<svg width="44" height="43" viewBox="0 0 44 43" fill="none" xmlns="http://www.w3.org/2000/svg">
<path d="M37.9944 12.1667C40.8698 14.4721 42.7518 18.1367 42.7985 22.2828V22.4407C42.7985 27.0338 40.5473 31.0517 37.1787 33.3136C34.7084 34.9722 32.4177 36.9033 30.2734 38.9995C28.5608 40.6731 26.2878 41.6883 23.7989 41.6883C22.1098 41.6883 20.5221 41.2215 19.1414 40.3999L19.1413 40.3998C16.7401 38.9716 14.1028 38.0736 11.3853 37.6826C9.14174 37.3595 6.52655 36.5449 4.47782 34.6874C2.44561 32.8449 0.916016 29.9269 0.916016 25.2776C0.916016 22.0074 1.92204 19.019 3.7044 16.7102C5.30156 14.6412 6.61987 12.3574 7.73937 9.97742C10.2517 4.63864 15.4099 1 21.3437 1C26.1709 1 30.4811 3.40651 33.2759 7.17871C34.649 9.03329 36.2107 10.7372 37.9944 12.1667Z" fill="white" stroke="#E9DFC1"/>
<path d="M22.7142 14C19.3371 14 16 16.2503 16 19.894C16 22.2108 17.3024 23.5278 18.0926 23.5278C18.4185 23.5278 18.6074 22.6192 18.6074 22.3625C18.6074 22.0565 17.8265 21.4046 17.8265 20.1308C17.8265 17.4848 19.8407 15.6097 22.4474 15.6097C24.6891 15.6097 26.348 16.8828 26.348 19.2229C26.348 20.9703 25.6462 24.2475 23.3747 24.2475C22.5559 24.2475 21.8554 23.6555 21.8554 22.8068C21.8554 21.5629 22.6517 20.3583 22.6517 19.0745C22.6517 16.8955 19.6338 17.2906 19.6338 19.924C19.6338 20.4767 19.703 21.0887 19.9498 21.5922C19.4954 23.5478 18.6607 26.6627 18.6607 28.6775C18.6607 29.2995 18.7498 29.9114 18.809 30.534C18.9207 30.6591 18.8649 30.6464 19.0358 30.5839C20.6947 28.313 20.5411 27.6652 21.2914 24.6932C21.6971 25.4635 22.7434 25.8779 23.5729 25.8779C27.0683 25.8779 28.6381 22.4722 28.6381 19.4005C28.6381 16.1325 25.8145 14 22.7142 14Z" fill="#D51F91"/>
</svg>
