<?xml version="1.0" encoding="UTF-8"?>
<svg width="1440px" height="32px" viewBox="0 0 1440 32" version="1.1" xmlns="http://www.w3.org/2000/svg" xmlns:xlink="http://www.w3.org/1999/xlink">
    <title>graphic/texture-edge/angle-in-cream</title>
    <defs>
        <rect id="path-1" x="0" y="0" width="1440" height="32"></rect>
    </defs>
    <g id="graphic/texture-edge/angle-in-cream" stroke="none" stroke-width="1" fill="none" fill-rule="evenodd">
        <mask id="mask-2" fill="white">
            <use xlink:href="#path-1"></use>
        </mask>
        <g id="Rectangle"></g>
        <path d="M0,60.4724827 C2.464,57.8423385 4.114,61.7990686 7.712,61.6488891 C11.31,61.4987095 11.225,59.4422511 14.823,59.2920716 C18.421,59.1418921 18.491,60.8088849 22.089,60.6587053 C25.687,60.5085258 25.677,60.2792517 29.276,60.1290722 C32.874,59.9788927 32.896,60.5085258 36.494,60.3583463 C40.091,60.2081667 40.069,59.6615132 43.667,59.5113337 C47.265,59.3621554 47.258,59.2099734 50.856,59.0597939 C54.454,58.9096144 54.399,57.5740177 57.997,57.4238382 C61.595,57.2736586 61.687,59.4752906 65.285,59.3251111 C68.883,59.1749315 68.792,57.0003319 72.391,56.8511536 C75.989,56.700974 76.056,58.2958807 79.654,58.1457011 C83.253,57.9955216 83.196,56.6278866 86.795,56.4777071 C90.394,56.3275276 90.473,58.241816 94.072,58.0916365 C97.672,57.941457 97.647,57.3477472 101.246,57.1975677 C104.846,57.0473881 104.796,55.851959 108.396,55.7017795 C111.996,55.5516 112.073,57.4058166 115.672,57.2556371 C119.272,57.1054576 119.233,56.177348 122.832,56.0271685 C126.431,55.876989 126.393,54.9749106 129.992,54.824731 C133.591,54.6745515 133.594,54.7546472 137.193,54.6044677 C140.791,54.4542882 140.864,56.2063827 144.463,56.0562032 C148.061,55.9060237 148.006,54.570427 151.604,54.4202475 C155.202,54.2710691 155.194,54.0808417 158.792,53.9306622 C162.391,53.7804827 162.374,53.3749979 165.972,53.2248184 C169.57,53.0746389 169.556,52.7432427 173.155,52.5930631 C176.753,52.4428836 176.817,53.9837256 180.415,53.8335461 C184.014,53.6833666 183.988,53.0556161 187.586,52.9054366 C191.185,52.755257 191.163,52.2366371 194.762,52.0864575 C198.361,51.936278 198.366,52.048412 201.965,51.8982325 C205.564,51.748053 205.61,52.8443636 209.209,52.694184 C212.808,52.5440045 212.829,53.0456041 216.429,52.8954246 C220.029,52.7452451 220.014,52.378807 223.613,52.2286275 C227.213,52.0784479 227.157,50.7348417 230.756,50.5846622 C234.355,50.4344826 234.425,52.1004743 238.024,51.9502947 C241.623,51.8001152 241.541,49.8467801 245.14,49.6966005 C248.739,49.546421 248.743,49.6475419 252.342,49.4973623 C255.94,49.348184 256.024,51.351579 259.622,51.2013995 C263.221,51.0512199 263.13,48.8716143 266.729,48.7214347 C270.327,48.5712552 270.385,49.9559105 273.983,49.805731 C277.582,49.6555515 277.545,48.7875137 281.144,48.6373342 C284.743,48.4871547 284.734,48.2779045 288.333,48.127725 C291.931,47.9775455 291.985,49.2670871 295.584,49.1169075 C299.183,48.966728 299.187,49.0508285 302.786,48.900649 C306.385,48.7504695 306.376,48.5412193 309.976,48.3910398 C313.576,48.2408602 313.537,47.3197591 317.137,47.1695796 C320.737,47.0194 320.713,46.434701 324.312,46.2845215 C327.912,46.134342 328.003,48.3229584 331.602,48.1727789 C335.201,48.0225993 335.158,46.9803533 338.757,46.8301738 C342.356,46.6799943 342.342,46.3435921 345.941,46.1934126 C349.54,46.0432331 349.58,47.0224036 353.179,46.8722241 C356.778,46.7220445 356.786,46.9242863 360.385,46.7741068 C363.984,46.6249284 363.955,45.9381074 367.554,45.7879278 C371.152,45.6377483 371.168,46.0081912 374.767,45.8580116 C378.366,45.7078321 378.378,46.0081912 381.977,45.8580116 C385.576,45.7078321 385.524,44.461342 389.123,44.3111624 C392.723,44.1609829 392.709,43.8315891 396.309,43.6814096 C399.909,43.53123 399.898,43.2709188 403.498,43.1207393 C407.097,42.9705598 407.166,44.6205323 410.766,44.4703527 C414.365,44.3201732 414.29,42.5019996 417.889,42.3518201 C421.489,42.2016406 421.57,44.1539745 425.169,44.003795 C428.768,43.8536154 428.699,42.1926298 432.298,42.0424503 C435.897,41.8922707 435.966,43.5612659 439.565,43.4110864 C443.164,43.2609069 443.119,42.1716047 446.717,42.0214251 C450.316,41.8712456 450.291,41.2685251 453.89,41.1183455 C457.489,40.968166 457.515,41.5969176 461.114,41.4467381 C464.714,41.2965586 464.731,41.721066 468.331,41.5708865 C471.93,41.420707 471.896,40.6077351 475.496,40.4575556 C479.096,40.307376 479.114,40.7398931 482.714,40.5897136 C486.314,40.439534 486.339,41.039251 489.939,40.8890714 C493.538,40.7388919 493.484,39.4433431 497.084,39.2931636 C500.683,39.142984 500.697,39.4843922 504.297,39.3342126 C507.896,39.1850343 507.886,38.9557602 511.485,38.8055807 C515.084,38.6554012 515.076,38.4711809 518.675,38.3210014 C522.274,38.1708219 522.336,39.6415801 525.935,39.4914006 C529.534,39.341221 529.497,38.4491546 533.096,38.2989751 C536.696,38.1487955 536.678,37.7282928 540.278,37.5781133 C543.877,37.4279338 543.901,37.9976148 547.501,37.8474353 C551.101,37.6972557 551.152,38.9177147 554.752,38.7675352 C558.352,38.6173557 558.332,38.1528003 561.932,38.0026208 C565.531,37.8524412 565.498,37.0514837 569.098,36.9013042 C572.697,36.7511247 572.687,36.518847 576.286,36.3686674 C579.885,36.2184879 579.9,36.5578937 583.499,36.4077141 C587.098,36.2575346 587.141,37.281759 590.74,37.1315795 C594.339,36.9813999 594.282,35.6117626 597.882,35.4615831 C601.481,35.3114035 601.48,35.2893772 605.08,35.1391976 C608.68,34.9890181 608.685,35.1151689 612.285,34.9649894 C615.885,34.8148099 615.869,34.4273467 619.469,34.2771671 C623.069,34.1269876 623.115,35.2353126 626.715,35.085133 C630.314,34.9349535 630.262,33.6824562 633.861,33.5322766 C637.461,33.3820971 637.532,35.095145 641.131,34.9449655 C644.73,34.7947859 644.657,33.0296758 648.256,32.8794963 C651.856,32.7293167 651.858,32.7903897 655.458,32.6402102 C659.058,32.4900307 659.068,32.7483395 662.668,32.5981599 C666.269,32.4479804 666.252,32.0384909 669.852,31.8883113 C673.452,31.7381318 673.487,32.5841432 677.087,32.4339636 C680.686,32.2837841 680.699,32.583142 684.298,32.4329624 C687.898,32.2827829 687.853,31.2004891 691.452,31.0503095 C695.052,30.90013 695.112,32.3408523 698.711,32.1906728 C702.311,32.0404933 702.308,31.9844262 705.908,31.8342467 C709.507,31.6840672 709.458,30.5026548 713.057,30.3524753 C716.658,30.2022958 716.645,29.9019367 720.246,29.7517571 C723.845,29.6015776 723.926,31.5549128 727.526,31.4047332 C731.124,31.2545537 731.093,30.5176728 734.692,30.3674932 C738.29,30.2183149 738.307,30.625802 741.905,30.4756225 C745.502,30.325443 745.48,29.7878002 749.077,29.6376207 C752.674,29.4874412 752.661,29.1650558 756.258,29.0158774 C759.855,28.8656979 759.875,29.3292521 763.472,29.1790725 C767.069,29.028893 767.084,29.3893239 770.681,29.2391443 C774.278,29.0889648 774.223,27.7663837 777.821,27.6162042 C781.419,27.4660246 781.448,28.1628577 785.046,28.0126781 C788.644,27.8624986 788.654,28.0817607 792.252,27.9315812 C795.852,27.7814017 795.863,28.042714 799.462,27.8925345 C803.063,27.7413538 803.066,27.8194471 806.667,27.6692676 C810.266,27.5190881 810.227,26.5759606 813.827,26.4257811 C817.425,26.2766027 817.437,26.5589402 821.036,26.4087607 C824.634,26.2585812 824.662,26.9283819 828.26,26.7782024 C831.858,26.629024 831.821,25.7309504 835.419,25.5817721 C839.016,25.4315925 839.014,25.3665147 842.612,25.2163352 C846.209,25.0661557 846.245,25.9261838 849.843,25.7760043 C853.441,25.6258247 853.434,25.4386009 857.032,25.2884214 C860.631,25.139243 860.673,26.1524543 864.272,26.0022748 C867.872,25.8520952 867.846,25.2373603 871.446,25.0871808 C875.047,24.9370013 875.073,25.5667541 878.674,25.4165746 C882.274,25.2663951 882.261,24.9570252 885.861,24.8068457 C889.46,24.6566661 889.382,22.7844279 892.981,22.6342484 C896.579,22.4840689 896.599,22.9606386 900.197,22.8104591 C903.796,22.6602795 903.854,24.050942 907.452,23.9007625 C911.05,23.7505829 910.968,21.7802275 914.567,21.6300479 C918.166,21.4798684 918.247,23.4322023 921.846,23.2820228 C925.446,23.1318433 925.367,21.2505943 928.967,21.1004148 C932.568,20.9502352 932.63,22.4410174 936.231,22.2908379 C939.831,22.1406583 939.821,21.9123854 943.422,21.7622059 C947.021,21.6120264 946.985,20.7399839 950.584,20.5898043 C954.183,20.4396248 954.219,21.2996529 957.818,21.1494734 C961.417,20.9992939 961.378,20.0681808 964.977,19.9180012 C968.576,19.7678217 968.623,20.8951694 972.222,20.7449899 C975.821,20.5948103 975.811,20.3344991 979.41,20.1843196 C983.011,20.0341401 982.965,18.9278175 986.566,18.7766368 C990.166,18.6264572 990.199,19.413398 993.8,19.2632185 C997.399,19.1130389 997.427,19.7808373 1001.027,19.6306577 C1004.626,19.4804782 1004.563,17.9626637 1008.162,17.8124842 C1011.761,17.6623046 1011.839,19.5335416 1015.439,19.3833621 C1019.038,19.2331826 1019.016,18.7025482 1022.616,18.5523687 C1026.217,18.4021891 1026.205,18.106836 1029.806,17.9566565 C1033.406,17.806477 1033.452,18.9077936 1037.053,18.757614 C1040.653,18.6074345 1040.576,16.7762454 1044.176,16.6260658 C1047.776,16.4758863 1047.843,18.0768001 1051.442,17.9266206 C1055.042,17.7764411 1055.054,18.0727953 1058.654,17.9226158 C1062.255,17.7724363 1062.208,16.6340754 1065.808,16.4838959 C1069.409,16.3337163 1069.437,16.9915027 1073.038,16.8413232 C1076.638,16.6911436 1076.594,15.6408881 1080.194,15.4907086 C1083.794,15.340529 1083.796,15.3865841 1087.396,15.2364045 C1090.996,15.086225 1090.981,14.7137798 1094.581,14.5636002 C1098.182,14.4134207 1098.21,15.086225 1101.812,14.9360455 C1105.412,14.7858659 1105.406,14.6256744 1109.006,14.4754949 C1112.606,14.3253154 1112.658,15.5718055 1116.259,15.421626 C1119.859,15.2714464 1119.789,13.5994476 1123.39,13.4492681 C1126.991,13.2980873 1126.985,13.1479078 1130.587,12.9977283 C1134.188,12.8475487 1134.209,13.3781831 1137.81,13.2280036 C1141.411,13.077824 1141.462,14.3213106 1145.063,14.171131 C1148.664,14.0209515 1148.664,14.0319647 1152.265,13.8817851 C1155.866,13.7316056 1155.83,12.8615655 1159.431,12.711386 C1163.032,12.5612064 1163.06,13.2400179 1166.661,13.0898384 C1170.262,12.9396589 1170.263,12.96569 1173.864,12.8155104 C1177.465,12.6653309 1177.423,11.659128 1181.025,11.5089485 C1184.625,11.358769 1184.6,10.7400293 1188.2,10.5888485 C1191.802,10.438669 1191.842,11.4068264 1195.443,11.2566469 C1199.044,11.1064673 1198.996,9.94708134 1202.597,9.7969018 C1206.198,9.64672227 1206.28,11.5950514 1209.88,11.4448719 C1213.482,11.2946924 1213.438,10.2234117 1217.039,10.0732321 C1220.64,9.92305261 1220.611,9.22722077 1224.212,9.07704123 C1227.814,8.9268617 1227.834,9.40543381 1231.436,9.25525428 C1235.035,9.10507475 1235.066,9.84596045 1238.666,9.69578091 C1242.264,9.54560138 1242.209,8.23203105 1245.808,8.08185152 C1249.408,7.93167198 1249.492,9.95509091 1253.092,9.80491138 C1256.694,9.65473184 1256.645,8.49434464 1260.247,8.3441651 C1263.846,8.19398557 1263.805,7.2178186 1267.405,7.06763906 C1271.005,6.91745953 1271.011,7.06964145 1274.612,6.91946192 C1278.213,6.76928239 1278.296,8.74464386 1281.897,8.59446433 C1285.497,8.44428479 1285.431,6.8623937 1289.031,6.71221416 C1292.633,6.56203463 1292.661,7.22582817 1296.263,7.07564864 C1299.863,6.9254691 1299.866,6.97853254 1303.466,6.828353 C1307.068,6.67817347 1307.061,6.52298795 1310.663,6.37280841 C1314.264,6.22262888 1314.289,6.81533744 1317.89,6.66515791 C1321.492,6.51497837 1321.471,6.00436796 1325.073,5.85418842 C1328.675,5.70400889 1328.641,4.89804539 1332.243,4.74786585 C1335.845,4.59768632 1335.839,4.44550439 1339.441,4.29532485 C1343.044,4.14514532 1343.03,3.80974436 1346.633,3.65956482 C1350.236,3.50938529 1350.261,4.11410822 1353.863,3.96392868 C1357.466,3.81274795 1357.532,5.4086558 1361.135,5.25847627 C1364.738,5.10829673 1364.677,3.64454687 1368.28,3.49436734 C1371.883,3.3441878 1371.854,2.6363416 1375.457,2.48516086 C1379.058,2.33498133 1379.146,4.43549242 1382.747,4.28531288 C1386.349,4.13513335 1386.285,2.59028654 1389.888,2.440107 C1393.49,2.28992747 1393.555,3.85079343 1397.158,3.7006139 C1400.76,3.55043436 1400.763,3.61050618 1404.366,3.46032664 C1407.969,3.31014711 1407.957,3.00678445 1411.56,2.85660491 C1415.162,2.70642538 1415.091,1.00639305 1418.693,0.856213514 C1422.298,0.706033979 1422.374,2.55123986 1425.979,2.40106033 C1429.587,2.25088079 1429.537,1.07147085 1433.145,0.920290115 C1436.752,0.770110581 1437.383,-1.25731314 1440,1.23266355 L1440,86 L0,86 L0,60.4724827 Z" id="Fill-1" fill="#EFECE8" mask="url(#mask-2)"></path>
        <path d="M0,60.4724827 C2.464,57.8423385 4.114,61.7990686 7.712,61.6488891 C11.31,61.4987095 11.225,59.4422511 14.823,59.2920716 C18.421,59.1418921 18.491,60.8088849 22.089,60.6587053 C25.687,60.5085258 25.677,60.2792517 29.276,60.1290722 C32.874,59.9788927 32.896,60.5085258 36.494,60.3583463 C40.091,60.2081667 40.069,59.6615132 43.667,59.5113337 C47.265,59.3621554 47.258,59.2099734 50.856,59.0597939 C54.454,58.9096144 54.399,57.5740177 57.997,57.4238382 C61.595,57.2736586 61.687,59.4752906 65.285,59.3251111 C68.883,59.1749315 68.792,57.0003319 72.391,56.8511536 C75.989,56.700974 76.056,58.2958807 79.654,58.1457011 C83.253,57.9955216 83.196,56.6278866 86.795,56.4777071 C90.394,56.3275276 90.473,58.241816 94.072,58.0916365 C97.672,57.941457 97.647,57.3477472 101.246,57.1975677 C104.846,57.0473881 104.796,55.851959 108.396,55.7017795 C111.996,55.5516 112.073,57.4058166 115.672,57.2556371 C119.272,57.1054576 119.233,56.177348 122.832,56.0271685 C126.431,55.876989 126.393,54.9749106 129.992,54.824731 C133.591,54.6745515 133.594,54.7546472 137.193,54.6044677 C140.791,54.4542882 140.864,56.2063827 144.463,56.0562032 C148.061,55.9060237 148.006,54.570427 151.604,54.4202475 C155.202,54.2710691 155.194,54.0808417 158.792,53.9306622 C162.391,53.7804827 162.374,53.3749979 165.972,53.2248184 C169.57,53.0746389 169.556,52.7432427 173.155,52.5930631 C176.753,52.4428836 176.817,53.9837256 180.415,53.8335461 C184.014,53.6833666 183.988,53.0556161 187.586,52.9054366 C191.185,52.755257 191.163,52.2366371 194.762,52.0864575 C198.361,51.936278 198.366,52.048412 201.965,51.8982325 C205.564,51.748053 205.61,52.8443636 209.209,52.694184 C212.808,52.5440045 212.829,53.0456041 216.429,52.8954246 C220.029,52.7452451 220.014,52.378807 223.613,52.2286275 C227.213,52.0784479 227.157,50.7348417 230.756,50.5846622 C234.355,50.4344826 234.425,52.1004743 238.024,51.9502947 C241.623,51.8001152 241.541,49.8467801 245.14,49.6966005 C248.739,49.546421 248.743,49.6475419 252.342,49.4973623 C255.94,49.348184 256.024,51.351579 259.622,51.2013995 C263.221,51.0512199 263.13,48.8716143 266.729,48.7214347 C270.327,48.5712552 270.385,49.9559105 273.983,49.805731 C277.582,49.6555515 277.545,48.7875137 281.144,48.6373342 C284.743,48.4871547 284.734,48.2779045 288.333,48.127725 C291.931,47.9775455 291.985,49.2670871 295.584,49.1169075 C299.183,48.966728 299.187,49.0508285 302.786,48.900649 C306.385,48.7504695 306.376,48.5412193 309.976,48.3910398 C313.576,48.2408602 313.537,47.3197591 317.137,47.1695796 C320.737,47.0194 320.713,46.434701 324.312,46.2845215 C327.912,46.134342 328.003,48.3229584 331.602,48.1727789 C335.201,48.0225993 335.158,46.9803533 338.757,46.8301738 C342.356,46.6799943 342.342,46.3435921 345.941,46.1934126 C349.54,46.0432331 349.58,47.0224036 353.179,46.8722241 C356.778,46.7220445 356.786,46.9242863 360.385,46.7741068 C363.984,46.6249284 363.955,45.9381074 367.554,45.7879278 C371.152,45.6377483 371.168,46.0081912 374.767,45.8580116 C378.366,45.7078321 378.378,46.0081912 381.977,45.8580116 C385.576,45.7078321 385.524,44.461342 389.123,44.3111624 C392.723,44.1609829 392.709,43.8315891 396.309,43.6814096 C399.909,43.53123 399.898,43.2709188 403.498,43.1207393 C407.097,42.9705598 407.166,44.6205323 410.766,44.4703527 C414.365,44.3201732 414.29,42.5019996 417.889,42.3518201 C421.489,42.2016406 421.57,44.1539745 425.169,44.003795 C428.768,43.8536154 428.699,42.1926298 432.298,42.0424503 C435.897,41.8922707 435.966,43.5612659 439.565,43.4110864 C443.164,43.2609069 443.119,42.1716047 446.717,42.0214251 C450.316,41.8712456 450.291,41.2685251 453.89,41.1183455 C457.489,40.968166 457.515,41.5969176 461.114,41.4467381 C464.714,41.2965586 464.731,41.721066 468.331,41.5708865 C471.93,41.420707 471.896,40.6077351 475.496,40.4575556 C479.096,40.307376 479.114,40.7398931 482.714,40.5897136 C486.314,40.439534 486.339,41.039251 489.939,40.8890714 C493.538,40.7388919 493.484,39.4433431 497.084,39.2931636 C500.683,39.142984 500.697,39.4843922 504.297,39.3342126 C507.896,39.1850343 507.886,38.9557602 511.485,38.8055807 C515.084,38.6554012 515.076,38.4711809 518.675,38.3210014 C522.274,38.1708219 522.336,39.6415801 525.935,39.4914006 C529.534,39.341221 529.497,38.4491546 533.096,38.2989751 C536.696,38.1487955 536.678,37.7282928 540.278,37.5781133 C543.877,37.4279338 543.901,37.9976148 547.501,37.8474353 C551.101,37.6972557 551.152,38.9177147 554.752,38.7675352 C558.352,38.6173557 558.332,38.1528003 561.932,38.0026208 C565.531,37.8524412 565.498,37.0514837 569.098,36.9013042 C572.697,36.7511247 572.687,36.518847 576.286,36.3686674 C579.885,36.2184879 579.9,36.5578937 583.499,36.4077141 C587.098,36.2575346 587.141,37.281759 590.74,37.1315795 C594.339,36.9813999 594.282,35.6117626 597.882,35.4615831 C601.481,35.3114035 601.48,35.2893772 605.08,35.1391976 C608.68,34.9890181 608.685,35.1151689 612.285,34.9649894 C615.885,34.8148099 615.869,34.4273467 619.469,34.2771671 C623.069,34.1269876 623.115,35.2353126 626.715,35.085133 C630.314,34.9349535 630.262,33.6824562 633.861,33.5322766 C637.461,33.3820971 637.532,35.095145 641.131,34.9449655 C644.73,34.7947859 644.657,33.0296758 648.256,32.8794963 C651.856,32.7293167 651.858,32.7903897 655.458,32.6402102 C659.058,32.4900307 659.068,32.7483395 662.668,32.5981599 C666.269,32.4479804 666.252,32.0384909 669.852,31.8883113 C673.452,31.7381318 673.487,32.5841432 677.087,32.4339636 C680.686,32.2837841 680.699,32.583142 684.298,32.4329624 C687.898,32.2827829 687.853,31.2004891 691.452,31.0503095 C695.052,30.90013 695.112,32.3408523 698.711,32.1906728 C702.311,32.0404933 702.308,31.9844262 705.908,31.8342467 C709.507,31.6840672 709.458,30.5026548 713.057,30.3524753 C716.658,30.2022958 716.645,29.9019367 720.246,29.7517571 C723.845,29.6015776 723.926,31.5549128 727.526,31.4047332 C731.124,31.2545537 731.093,30.5176728 734.692,30.3674932 C738.29,30.2183149 738.307,30.625802 741.905,30.4756225 C745.502,30.325443 745.48,29.7878002 749.077,29.6376207 C752.674,29.4874412 752.661,29.1650558 756.258,29.0158774 C759.855,28.8656979 759.875,29.3292521 763.472,29.1790725 C767.069,29.028893 767.084,29.3893239 770.681,29.2391443 C774.278,29.0889648 774.223,27.7663837 777.821,27.6162042 C781.419,27.4660246 781.448,28.1628577 785.046,28.0126781 C788.644,27.8624986 788.654,28.0817607 792.252,27.9315812 C795.852,27.7814017 795.863,28.042714 799.462,27.8925345 C803.063,27.7413538 803.066,27.8194471 806.667,27.6692676 C810.266,27.5190881 810.227,26.5759606 813.827,26.4257811 C817.425,26.2766027 817.437,26.5589402 821.036,26.4087607 C824.634,26.2585812 824.662,26.9283819 828.26,26.7782024 C831.858,26.629024 831.821,25.7309504 835.419,25.5817721 C839.016,25.4315925 839.014,25.3665147 842.612,25.2163352 C846.209,25.0661557 846.245,25.9261838 849.843,25.7760043 C853.441,25.6258247 853.434,25.4386009 857.032,25.2884214 C860.631,25.139243 860.673,26.1524543 864.272,26.0022748 C867.872,25.8520952 867.846,25.2373603 871.446,25.0871808 C875.047,24.9370013 875.073,25.5667541 878.674,25.4165746 C882.274,25.2663951 882.261,24.9570252 885.861,24.8068457 C889.46,24.6566661 889.382,22.7844279 892.981,22.6342484 C896.579,22.4840689 896.599,22.9606386 900.197,22.8104591 C903.796,22.6602795 903.854,24.050942 907.452,23.9007625 C911.05,23.7505829 910.968,21.7802275 914.567,21.6300479 C918.166,21.4798684 918.247,23.4322023 921.846,23.2820228 C925.446,23.1318433 925.367,21.2505943 928.967,21.1004148 C932.568,20.9502352 932.63,22.4410174 936.231,22.2908379 C939.831,22.1406583 939.821,21.9123854 943.422,21.7622059 C947.021,21.6120264 946.985,20.7399839 950.584,20.5898043 C954.183,20.4396248 954.219,21.2996529 957.818,21.1494734 C961.417,20.9992939 961.378,20.0681808 964.977,19.9180012 C968.576,19.7678217 968.623,20.8951694 972.222,20.7449899 C975.821,20.5948103 975.811,20.3344991 979.41,20.1843196 C983.011,20.0341401 982.965,18.9278175 986.566,18.7766368 C990.166,18.6264572 990.199,19.413398 993.8,19.2632185 C997.399,19.1130389 997.427,19.7808373 1001.027,19.6306577 C1004.626,19.4804782 1004.563,17.9626637 1008.162,17.8124842 C1011.761,17.6623046 1011.839,19.5335416 1015.439,19.3833621 C1019.038,19.2331826 1019.016,18.7025482 1022.616,18.5523687 C1026.217,18.4021891 1026.205,18.106836 1029.806,17.9566565 C1033.406,17.806477 1033.452,18.9077936 1037.053,18.757614 C1040.653,18.6074345 1040.576,16.7762454 1044.176,16.6260658 C1047.776,16.4758863 1047.843,18.0768001 1051.442,17.9266206 C1055.042,17.7764411 1055.054,18.0727953 1058.654,17.9226158 C1062.255,17.7724363 1062.208,16.6340754 1065.808,16.4838959 C1069.409,16.3337163 1069.437,16.9915027 1073.038,16.8413232 C1076.638,16.6911436 1076.594,15.6408881 1080.194,15.4907086 C1083.794,15.340529 1083.796,15.3865841 1087.396,15.2364045 C1090.996,15.086225 1090.981,14.7137798 1094.581,14.5636002 C1098.182,14.4134207 1098.21,15.086225 1101.812,14.9360455 C1105.412,14.7858659 1105.406,14.6256744 1109.006,14.4754949 C1112.606,14.3253154 1112.658,15.5718055 1116.259,15.421626 C1119.859,15.2714464 1119.789,13.5994476 1123.39,13.4492681 C1126.991,13.2980873 1126.985,13.1479078 1130.587,12.9977283 C1134.188,12.8475487 1134.209,13.3781831 1137.81,13.2280036 C1141.411,13.077824 1141.462,14.3213106 1145.063,14.171131 C1148.664,14.0209515 1148.664,14.0319647 1152.265,13.8817851 C1155.866,13.7316056 1155.83,12.8615655 1159.431,12.711386 C1163.032,12.5612064 1163.06,13.2400179 1166.661,13.0898384 C1170.262,12.9396589 1170.263,12.96569 1173.864,12.8155104 C1177.465,12.6653309 1177.423,11.659128 1181.025,11.5089485 C1184.625,11.358769 1184.6,10.7400293 1188.2,10.5888485 C1191.802,10.438669 1191.842,11.4068264 1195.443,11.2566469 C1199.044,11.1064673 1198.996,9.94708134 1202.597,9.7969018 C1206.198,9.64672227 1206.28,11.5950514 1209.88,11.4448719 C1213.482,11.2946924 1213.438,10.2234117 1217.039,10.0732321 C1220.64,9.92305261 1220.611,9.22722077 1224.212,9.07704123 C1227.814,8.9268617 1227.834,9.40543381 1231.436,9.25525428 C1235.035,9.10507475 1235.066,9.84596045 1238.666,9.69578091 C1242.264,9.54560138 1242.209,8.23203105 1245.808,8.08185152 C1249.408,7.93167198 1249.492,9.95509091 1253.092,9.80491138 C1256.694,9.65473184 1256.645,8.49434464 1260.247,8.3441651 C1263.846,8.19398557 1263.805,7.2178186 1267.405,7.06763906 C1271.005,6.91745953 1271.011,7.06964145 1274.612,6.91946192 C1278.213,6.76928239 1278.296,8.74464386 1281.897,8.59446433 C1285.497,8.44428479 1285.431,6.8623937 1289.031,6.71221416 C1292.633,6.56203463 1292.661,7.22582817 1296.263,7.07564864 C1299.863,6.9254691 1299.866,6.97853254 1303.466,6.828353 C1307.068,6.67817347 1307.061,6.52298795 1310.663,6.37280841 C1314.264,6.22262888 1314.289,6.81533744 1317.89,6.66515791 C1321.492,6.51497837 1321.471,6.00436796 1325.073,5.85418842 C1328.675,5.70400889 1328.641,4.89804539 1332.243,4.74786585 C1335.845,4.59768632 1335.839,4.44550439 1339.441,4.29532485 C1343.044,4.14514532 1343.03,3.80974436 1346.633,3.65956482 C1350.236,3.50938529 1350.261,4.11410822 1353.863,3.96392868 C1357.466,3.81274795 1357.532,5.4086558 1361.135,5.25847627 C1364.738,5.10829673 1364.677,3.64454687 1368.28,3.49436734 C1371.883,3.3441878 1371.854,2.6363416 1375.457,2.48516086 C1379.058,2.33498133 1379.146,4.43549242 1382.747,4.28531288 C1386.349,4.13513335 1386.285,2.59028654 1389.888,2.440107 C1393.49,2.28992747 1393.555,3.85079343 1397.158,3.7006139 C1400.76,3.55043436 1400.763,3.61050618 1404.366,3.46032664 C1407.969,3.31014711 1407.957,3.00678445 1411.56,2.85660491 C1415.162,2.70642538 1415.091,1.00639305 1418.693,0.856213514 C1422.298,0.706033979 1422.374,2.55123986 1425.979,2.40106033 C1429.587,2.25088079 1429.537,1.07147085 1433.145,0.920290115 C1436.752,0.770110581 1437.383,-1.25731314 1440,1.23266355 L1440,86 L0,86 L0,60.4724827 Z" id="Fill-1" fill="#EFECE8" mask="url(#mask-2)" transform="translate(720, 43) scale(-1, 1) translate(-720, -43)"></path>
    </g>
</svg>