<svg width="449" height="642" viewBox="0 0 449 642" fill="none" xmlns="http://www.w3.org/2000/svg">
<path d="M1.11407 3.12256C56.5085 -7.03397 117.435 18.9228 149.52 68.8293C157.373 81.0467 162.726 94.6567 168.339 108.05C177.726 130.489 187.308 154.135 184.668 178.317C179.256 227.687 135.782 251.669 100.332 278.111C71.3326 299.728 36.8054 333.508 67.7829 368.987C75.2211 377.507 85.8914 382.587 96.7512 385.778C136.757 397.5 187.72 379.443 199.201 339.437C200.663 334.316 201.457 328.81 199.995 323.682C196.976 313.059 185.096 307.165 174.026 306.615C150.015 305.406 128.173 323.833 119.286 346.128C97.7179 400.282 126.53 440.467 183.017 442.148C220.004 443.248 253.942 425.727 289.477 418.407C309.332 414.316 325.877 415.904 345.521 419.065C362.8 421.848 379.033 421.816 392.258 435.617C402.537 446.334 407.044 462.799 401.918 476.707C395.094 495.233 374.729 504.514 361.341 519.045C337.493 544.951 339.337 589.136 363.059 615.135C383.859 637.934 418.169 645.883 448.05 637.93" stroke="#FF6520" stroke-miterlimit="10" stroke-linecap="round" stroke-dasharray="8 8"/>
</svg>
