<svg width="64" height="51" viewBox="0 0 64 51" fill="none" xmlns="http://www.w3.org/2000/svg">
<path d="M62.7637 26.1584C61.7621 24.1172 60.111 22.2887 57.9513 21.1853L57.1141 20.8149L56.6759 20.673L56.4568 20.6021V20.5864C56.4568 20.5864 56.4646 20.5706 56.4724 20.5548L56.5663 20.3499C56.6915 20.0819 56.8089 19.814 56.9106 19.5303C57.1219 18.9707 57.2784 18.3953 57.4271 17.82C57.9826 15.5029 57.9357 13.0676 57.3801 10.7978C56.8011 8.53582 55.7134 6.3921 54.1484 4.73703C51.0654 1.3717 46.7304 -0.125746 42.9588 0.00823624C41.0573 0.0555241 39.3046 0.512641 37.8178 1.15891C36.3311 1.82094 35.0948 2.66424 34.1088 3.51542C32.1291 5.22567 31.151 6.92015 30.7128 7.81074C30.2746 8.7565 30.0555 9.42641 29.9538 9.91505C29.14 9.5131 28.0445 9.09539 26.7143 8.81167C24.2494 8.23633 20.9004 8.22057 17.8799 9.5131C14.8595 10.7505 12.4103 13.2961 11.4792 15.8182C11.1975 16.5117 11.0253 17.158 10.9158 17.7648C10.5871 17.8279 10.2193 17.9146 9.78115 18.0407C9.25688 18.1983 8.40396 18.4663 7.35542 18.9707C7.14415 19.0653 6.93288 19.1835 6.71378 19.3017C6.69813 19.3096 6.6903 19.3175 6.66683 19.3253C6.45556 19.4436 6.23646 19.5539 6.01736 19.6879C5.79044 19.8297 5.56352 19.9716 5.32877 20.1214C5.32094 20.1292 5.31312 20.1371 5.29747 20.145C5.25052 20.1686 5.21922 20.208 5.1801 20.2317C4.96882 20.3736 4.76538 20.5154 4.5541 20.6809C4.4915 20.7361 4.42108 20.7992 4.35065 20.8464C4.17851 20.9883 3.99853 21.1302 3.82638 21.2878C3.67771 21.4139 3.53686 21.5558 3.39601 21.6976C3.29429 21.8001 3.18474 21.8947 3.09084 22.005C2.97347 22.1074 2.87957 22.2414 2.77785 22.3596C2.64482 22.5094 2.5118 22.6434 2.39442 22.801C2.37878 22.8089 2.37095 22.8246 2.36313 22.8483C2.36313 22.8483 2.3553 22.8562 2.34748 22.8641C2.2614 22.9823 2.17533 23.1241 2.0736 23.2424C1.9484 23.4079 1.83103 23.5734 1.71366 23.7468C1.62758 23.8807 1.55716 24.0226 1.47891 24.1566C1.36154 24.3615 1.24416 24.5664 1.12679 24.7792C0.95464 25.1575 0.782492 25.5516 0.633818 25.9535C0.571219 26.1427 0.532094 26.324 0.469495 26.5131C0.406896 26.7259 0.328647 26.9387 0.273872 27.1673C0.266047 27.2067 0.258222 27.2382 0.258222 27.2697H0.250397V27.2855C0.219098 27.4825 0.172148 27.6717 0.148673 27.8687C0.133024 27.9633 0.125199 28.0736 0.101724 28.1682C0.0860741 28.2864 0.0704243 28.4046 0.0547744 28.5307C0.0391246 28.6332 0.0391246 28.7435 0.0312997 28.846C0.0234748 28.9721 0.0156498 29.0903 0.00782492 29.2243C0.00782492 29.3031 0.00782492 29.3898 0 29.4844V29.9336C0.00782492 30.0045 0.00782492 30.0755 0.0156498 30.1385C0.0156498 30.304 0.0312997 30.4853 0.0391246 30.6508C0.0469495 30.7138 0.0547744 30.7769 0.0625993 30.8478C0.0782492 31.0133 0.109549 31.1867 0.133024 31.3601C0.148673 31.4468 0.164323 31.5335 0.187798 31.6202C0.219098 31.7621 0.250397 31.9039 0.281697 32.0458C0.328647 32.2113 0.367771 32.3768 0.422546 32.5344C0.438195 32.5896 0.44602 32.6369 0.469495 32.6921C0.47732 32.6999 0.47732 32.7078 0.485145 32.7157C0.49297 32.763 0.500795 32.8024 0.516445 32.8418C0.563394 32.9837 0.618169 33.1176 0.680768 33.2595C0.704243 33.3147 0.727717 33.3777 0.751192 33.4329C0.821616 33.5826 0.892041 33.7324 0.97029 33.8821C1.01724 33.9609 1.05636 34.0476 1.10331 34.1422C1.17374 34.2604 1.25199 34.3787 1.32241 34.4969C1.39284 34.5993 1.45543 34.7097 1.52586 34.8121C1.59628 34.9067 1.66671 35.0013 1.73713 35.088C1.80756 35.1826 1.87016 35.2771 1.9484 35.3638C1.97188 35.3953 2.00318 35.4269 2.02665 35.4584C2.0423 35.4663 2.05013 35.482 2.05795 35.5057C2.1362 35.5924 2.22228 35.6712 2.30053 35.7658C2.36313 35.8367 2.43355 35.9076 2.50397 35.9786C3.06737 36.5539 3.69336 37.0583 4.3663 37.5391C6.09561 38.7134 8.05966 39.47 10.188 39.8562C11.3305 40.0217 12.4573 39.9271 13.5293 39.6907C14.0457 39.6749 14.5856 39.604 15.1177 39.4148C15.2664 39.3675 15.4073 39.3202 15.5559 39.2493L15.6577 39.1941H15.6655L15.7672 39.47C15.822 39.6197 15.8846 39.7537 15.9394 39.8956C15.9707 39.9902 16.0098 40.0926 16.0567 40.1793C16.1115 40.3054 16.1741 40.4236 16.2211 40.5418C16.2758 40.6679 16.3384 40.7862 16.3854 40.9123C16.3932 40.9202 16.401 40.9359 16.4089 40.9596C16.4167 40.9674 16.4245 40.9832 16.4245 40.9911C16.5419 41.2275 16.6827 41.4482 16.8079 41.6689C16.9409 41.9053 17.0505 42.1575 17.207 42.3861C17.3713 42.654 17.5591 42.9141 17.7391 43.1742C17.8643 43.3634 17.9738 43.5446 18.1069 43.7259C18.1147 43.7417 18.1225 43.7495 18.1303 43.7574C18.1382 43.7732 18.146 43.7811 18.1538 43.789C18.3103 44.0017 18.4903 44.2067 18.6546 44.4116C18.8189 44.6165 18.9833 44.8293 19.1554 45.0184C19.3588 45.2391 19.5701 45.444 19.7814 45.6568C19.9535 45.8302 20.1257 46.0194 20.2978 46.1849C20.4622 46.3425 20.65 46.4844 20.8221 46.642C21.0569 46.839 21.2916 47.0518 21.5264 47.2331C21.7298 47.3907 21.9411 47.5326 22.1445 47.6823C22.3636 47.8321 22.5671 47.9897 22.7862 48.1394C22.794 48.1394 22.8018 48.1473 22.8096 48.1473C22.8175 48.1552 22.8253 48.1631 22.8409 48.171C23.0835 48.3365 23.3496 48.4783 23.6078 48.6202C23.7956 48.7384 23.9755 48.8488 24.1633 48.9591C24.4685 49.1167 24.7815 49.2507 25.0945 49.3926C25.251 49.4714 25.3997 49.5502 25.564 49.6132C25.8927 49.7551 26.2213 49.8733 26.5578 49.9837C26.7064 50.031 26.8473 50.1019 26.996 50.1413C27.3246 50.2359 27.6376 50.3147 27.9584 50.4093C28.1149 50.4408 28.2714 50.496 28.4436 50.5354C28.7331 50.6063 29.0226 50.6536 29.3121 50.7009C29.5078 50.7245 29.6956 50.7718 29.8834 50.7954C30.1416 50.827 30.3842 50.8506 30.6267 50.8743C30.8537 50.8979 31.0806 50.9294 31.3153 50.9452C31.5188 50.9531 31.7222 50.9531 31.91 50.9609C32.1839 50.9688 32.4578 50.9767 32.716 50.9767C32.8725 50.9688 33.029 50.9531 33.2011 50.9531C33.4828 50.9373 33.7645 50.9294 34.0384 50.9058C34.0462 50.8979 34.054 50.8979 34.0697 50.8979H34.0775C34.1949 50.89 34.3123 50.8664 34.4296 50.8506C34.7426 50.8112 35.0635 50.7797 35.3686 50.7324C35.5564 50.7009 35.7364 50.6536 35.9242 50.6142C36.1511 50.5669 36.3859 50.5275 36.6128 50.4723C36.8162 50.425 36.9962 50.3699 37.1997 50.3147C37.3953 50.2595 37.5987 50.2201 37.7865 50.1571C37.943 50.1019 38.0917 50.0546 38.2404 49.9994C38.4595 49.9206 38.6864 49.8497 38.8977 49.7709C38.9759 49.7393 39.0542 49.6999 39.1324 49.6763C40.4627 49.1404 41.6207 48.4783 42.5676 47.7927C44.602 46.3189 45.6427 44.6638 46.034 43.7732C46.0418 43.7495 46.0496 43.7259 46.0575 43.7023C46.527 43.9387 47.2938 44.2382 48.5849 44.4116C49.563 44.5456 51.5193 44.6007 53.9841 43.8126C55.2126 43.4106 56.5585 42.788 57.8809 41.8659C59.2112 40.9517 60.5179 39.7458 61.6056 38.1853C62.6932 36.6485 63.5462 34.7412 63.8279 32.6211C64.1252 30.4695 63.7261 28.1761 62.7011 26.1348L62.7637 26.1584ZM62.0751 32.4635C61.8482 34.2526 61.1361 35.8997 60.1971 37.2475C58.3113 39.998 55.6586 41.6058 53.4911 42.3861C51.2845 43.1663 49.5474 43.1978 48.671 43.19C47.5677 43.1821 46.84 43.0718 46.3705 43.0166C46.6365 42.1575 46.6443 41.5743 46.613 41.2275C46.5583 40.7862 46.4487 40.6995 46.3157 40.6916C46.214 40.6837 46.1044 40.7468 45.9636 41.1172C45.7992 41.4797 45.6271 42.1733 44.9698 43.2609C44.5316 43.9623 43.5613 45.3337 41.6912 46.5789C41.5973 46.642 41.4799 46.7129 41.386 46.776C41.2451 46.8627 41.1121 46.9494 40.9634 47.0361C40.8069 47.1306 40.6191 47.2252 40.447 47.3198C40.3531 47.375 40.2592 47.4222 40.1575 47.4774C40.0088 47.5483 39.8523 47.6193 39.6958 47.6902C39.555 47.7611 39.4219 47.8242 39.2733 47.8872C39.1559 47.9424 39.0385 47.9739 38.9211 48.0291C38.7177 48.1079 38.5221 48.1867 38.3264 48.2577C38.2482 48.2813 38.1699 48.3128 38.0917 48.3365C37.8335 48.4232 37.5831 48.502 37.3092 48.5808C37.2388 48.5966 37.1684 48.6123 37.0979 48.636C36.8162 48.7148 36.5267 48.7857 36.2294 48.8488C36.1433 48.8724 36.0416 48.8803 35.9477 48.9039C35.666 48.9591 35.3921 49.0064 35.1026 49.0537C34.9148 49.0773 34.727 49.101 34.5392 49.1167C34.3279 49.1325 34.1323 49.164 33.921 49.1798C33.7176 49.1955 33.5063 49.1955 33.3029 49.2034C33.0994 49.2113 32.896 49.2192 32.6847 49.2192C32.4969 49.2192 32.3169 49.2034 32.1291 49.2034C31.8944 49.1955 31.6674 49.1955 31.4249 49.1719C31.2762 49.164 31.1197 49.1325 30.971 49.1246C30.6972 49.0931 30.4155 49.0616 30.1338 49.0221C30.0164 49.0064 29.9068 48.9749 29.7895 48.9591C29.4765 48.896 29.1556 48.8409 28.8426 48.7621C28.7487 48.7463 28.647 48.7069 28.5531 48.6832C28.2167 48.5966 27.888 48.5099 27.5515 48.3995C27.4655 48.368 27.3794 48.3286 27.2855 48.2971C26.949 48.1788 26.6125 48.0606 26.2839 47.9188C26.1822 47.8715 26.0805 47.8242 25.9866 47.7769C25.6736 47.6272 25.3527 47.4853 25.0397 47.3198C24.9145 47.2488 24.7972 47.1622 24.6641 47.0912C24.3903 46.9336 24.1086 46.776 23.8347 46.5868C23.6704 46.4686 23.4982 46.3504 23.3417 46.2243C23.1226 46.0745 22.9114 45.9248 22.7001 45.7514C22.4966 45.6017 22.3167 45.4204 22.121 45.2549C21.9489 45.1051 21.7689 44.9554 21.6046 44.7978C21.4716 44.6717 21.3464 44.5377 21.2212 44.4116C21.0099 44.1909 20.7908 43.9781 20.5874 43.7495C20.4543 43.5998 20.3448 43.4422 20.2196 43.2924C20.0318 43.0718 19.8518 42.8511 19.6718 42.6225C19.5545 42.4649 19.4527 42.2915 19.3354 42.126C19.171 41.8896 18.9911 41.6373 18.8346 41.3851C18.7094 41.196 18.6155 40.999 18.5059 40.8019C18.3729 40.5734 18.2399 40.3527 18.1303 40.1084C18.0677 39.9823 18.013 39.8719 17.9582 39.7458C17.9034 39.6276 17.8643 39.5252 17.8095 39.4069C17.7782 39.336 17.7469 39.2651 17.7234 39.1941C17.653 39.0286 17.5826 38.8631 17.52 38.6976L17.4496 38.5242C17.4026 38.3902 17.3557 38.2641 17.3165 38.1459L17.2696 38.0198L17.1913 37.7519L17.1053 37.476L17.074 37.3814V37.3499L16.7218 36.2544L16.5967 35.8919C16.2915 36.1756 15.9315 36.5618 15.5716 36.8849L15.3447 37.0189L15.0004 37.1923L14.7421 37.3105L14.4135 37.4366C14.0301 37.5942 13.6232 37.7125 13.2163 37.807C12.3634 37.8149 11.4557 37.6652 10.5402 37.4603C8.60741 37.0425 6.76073 36.5933 5.25052 35.7421C4.6793 35.4348 4.17068 35.0643 3.74031 34.6309C3.72466 34.623 3.71684 34.6072 3.69336 34.5993C3.57599 34.4811 3.47426 34.3629 3.36471 34.2368C3.30212 34.1737 3.23952 34.0949 3.19257 34.024C3.12214 33.9373 3.05172 33.8506 2.98912 33.756C2.93434 33.6851 2.88739 33.6063 2.84045 33.5275C2.77785 33.4408 2.72307 33.3541 2.67612 33.2595C2.62135 33.1728 2.58222 33.0861 2.52745 32.9837C2.4805 32.9049 2.44137 32.8182 2.39442 32.7236C2.37095 32.6526 2.33965 32.5817 2.30835 32.5029C2.25358 32.3768 2.20663 32.2428 2.15968 32.1246C2.15968 32.1088 2.15185 32.101 2.15185 32.0773C2.08925 31.9197 2.03448 31.7463 1.99535 31.5729C1.9797 31.5099 1.97188 31.4389 1.9484 31.368C1.92493 31.2498 1.89363 31.1394 1.87016 31.0212C1.85451 30.9188 1.84668 30.8084 1.82321 30.7138C1.81538 30.6272 1.79973 30.5405 1.79191 30.4459C1.78408 30.3277 1.77626 30.2173 1.76843 30.0912C1.76843 30.0203 1.76061 29.9415 1.76061 29.8705C1.75278 29.7444 1.75278 29.6341 1.75278 29.5159V29.2873C1.76061 29.1849 1.76843 29.0745 1.76843 28.9721C1.77626 28.8854 1.77626 28.7987 1.78408 28.7041C1.79191 28.6095 1.80756 28.515 1.81538 28.4204C1.82321 28.3258 1.83103 28.2234 1.84668 28.1367C1.85451 28.0421 1.87016 27.9475 1.89363 27.8608C1.90928 27.7741 1.92493 27.6953 1.94058 27.6165C1.98753 27.4037 2.0423 27.2145 2.09708 27.0254C2.14403 26.8599 2.17533 26.6865 2.2301 26.5289C2.30053 26.3397 2.37878 26.1663 2.4492 25.9772C2.5118 25.8353 2.56657 25.6856 2.62135 25.5516C2.70742 25.3624 2.81697 25.1969 2.91087 25.0235C2.98129 24.8974 3.03607 24.7792 3.10649 24.661C3.22387 24.4876 3.33342 24.3221 3.45861 24.1566C3.52904 24.062 3.59164 23.9517 3.66989 23.8571C3.78726 23.6995 3.91246 23.5497 4.04548 23.4C4.11591 23.3133 4.19416 23.2108 4.27241 23.1241C4.3976 22.9902 4.53063 22.8562 4.648 22.738C4.73408 22.6513 4.82015 22.5646 4.91405 22.47C5.03925 22.3518 5.15662 22.2493 5.28964 22.1311C5.37572 22.0523 5.46179 21.9735 5.56352 21.8947C5.70437 21.7764 5.83739 21.674 5.97824 21.5636C6.05649 21.5085 6.12691 21.4454 6.20516 21.3981C6.36948 21.272 6.54163 21.1617 6.70595 21.0513C6.7529 21.0277 6.79203 20.9883 6.83898 20.9568C6.97983 20.8701 7.12068 20.7913 7.2537 20.6967C7.32412 20.6573 7.39455 20.61 7.45715 20.5706C7.55887 20.5075 7.66842 20.4445 7.77014 20.3972C7.85622 20.342 7.95794 20.2947 8.03619 20.2475C8.10662 20.2002 8.17704 20.1765 8.24746 20.1292C8.36484 20.0741 8.47439 20.011 8.58393 19.9637C8.60741 19.948 8.63871 19.9401 8.66218 19.9164C9.31165 19.6012 9.85157 19.3805 10.2193 19.2071C10.4228 19.1204 10.5949 19.0495 10.7749 18.9786C10.7201 19.9953 10.8532 20.7755 10.9705 21.1223C11.2992 22.1153 11.5652 22.1547 11.8156 22.0917C12.0347 22.0365 12.1599 21.8947 12.1834 20.941C12.2069 20.5233 12.1834 19.5145 12.4807 18.2614C12.4807 18.2535 12.4886 18.2535 12.4964 18.2535C12.7937 18.1037 12.9268 17.9855 12.9659 17.8831C12.9737 17.8437 12.9737 17.8121 12.9737 17.7806C12.9581 17.7097 12.8876 17.6387 12.6607 17.6151C12.7781 17.2604 12.9033 16.8979 13.0833 16.5196C13.9675 14.4547 16.0489 12.3661 18.6468 11.31C21.229 10.2145 24.1712 10.1594 26.4091 10.5692C28.6783 10.9475 30.2668 11.7356 30.8771 11.909C31.7457 12.2006 32.0196 12.1139 32.1604 11.8933C32.2778 11.7199 32.2543 11.4677 31.4405 10.8056C31.284 10.7032 31.0258 10.5298 30.6815 10.3328C30.9084 9.92293 31.2371 9.30819 31.8083 8.42548C32.3091 7.67676 33.2872 6.17931 35.1261 4.7055C36.9336 3.24746 39.7036 1.82094 43.0527 1.80518C46.347 1.75789 50.189 3.16076 52.8104 6.08473C54.1406 7.52701 55.0561 9.37124 55.5413 11.3495C56.0186 13.3277 56.0264 15.4635 55.5491 17.4654C55.4161 17.9619 55.2752 18.4584 55.0874 18.9313C55.0092 19.1756 54.8996 19.412 54.7979 19.6406L54.7118 19.8297C54.6492 19.9716 54.5866 20.0977 54.5162 20.2159L54.1093 20.9489L53.6946 21.6819L53.6007 21.8552C53.5772 21.9183 53.4833 21.9971 53.6007 21.9971L54.0154 22.0759L55.643 22.4069L56.4959 22.6749L57.1532 22.9665C58.8747 23.8492 60.2597 25.3703 61.1126 27.0963C61.9655 28.8223 62.3098 30.7296 62.0672 32.5029L62.0751 32.4635Z" fill="#3B2900"/>
<path d="M62.0761 32.4635C61.8492 34.2446 61.1371 35.8918 60.1981 37.2474C58.3123 40.0059 55.6597 41.6137 53.5 42.3939C51.2934 43.1742 49.5563 43.2057 48.6799 43.1978C47.5766 43.1978 46.8488 43.0875 46.3793 43.0166C46.6454 42.1654 46.6532 41.5743 46.6219 41.2354C46.5671 40.7861 46.4498 40.6994 46.3246 40.6916C46.215 40.6916 46.1133 40.7467 45.9724 41.1171C45.8003 41.4797 45.6438 42.1733 44.9787 43.253C44.5405 43.9623 43.578 45.3258 41.7079 46.571C41.614 46.6341 41.4966 46.705 41.3949 46.7681C41.254 46.8469 41.121 46.9414 40.9723 47.0203C40.808 47.1148 40.628 47.2094 40.4559 47.304C40.3542 47.3592 40.2681 47.4143 40.1585 47.4695C40.0099 47.5325 39.8534 47.6114 39.6969 47.6744C39.556 47.7453 39.423 47.8084 39.2743 47.8714C39.1569 47.9266 39.0396 47.9503 38.9222 48.0133C38.7266 48.0842 38.5309 48.1709 38.3275 48.2419C38.2493 48.2655 38.171 48.297 38.0928 48.3128C37.8345 48.3995 37.5841 48.4862 37.3103 48.565C37.2398 48.5808 37.1694 48.5965 37.099 48.6202C36.8173 48.699 36.5278 48.7699 36.2304 48.8251C36.1443 48.8566 36.0426 48.8645 35.9487 48.8881C35.667 48.9433 35.3932 48.9906 35.1115 49.0379C34.9237 49.0615 34.7359 49.0852 34.5481 49.1009C34.3368 49.1246 34.1412 49.1482 33.9299 49.164C33.7343 49.1876 33.5152 49.1876 33.3196 49.1955C33.1161 49.1955 32.9127 49.2113 32.7014 49.2113C32.5136 49.2113 32.3336 49.1955 32.1458 49.1955C31.9111 49.1955 31.6841 49.1955 31.4494 49.1561C31.3007 49.1561 31.1364 49.1246 30.9956 49.1088C30.7217 49.0773 30.44 49.0458 30.1661 49.0064C30.0487 48.9906 29.9392 48.9591 29.8218 48.9433C29.501 48.8802 29.1958 48.8251 28.875 48.7463C28.7811 48.7305 28.6794 48.6911 28.5777 48.6753C28.249 48.5886 27.9125 48.4941 27.5761 48.3916C27.4978 48.3522 27.4039 48.3207 27.3178 48.2813C26.9814 48.1709 26.6371 48.0448 26.3163 47.903C26.2145 47.8557 26.1128 47.8084 26.0111 47.7611C25.6903 47.6114 25.3851 47.4695 25.0643 47.304C24.9391 47.2409 24.8139 47.1464 24.6808 47.0754C24.407 46.9178 24.1253 46.7523 23.8514 46.571C23.6871 46.4607 23.5228 46.3346 23.3663 46.2085C23.1472 46.0587 22.9281 45.909 22.7246 45.7435C22.5212 45.5937 22.3334 45.4204 22.1456 45.247C21.9656 45.0972 21.7934 44.9475 21.6291 44.7898C21.4961 44.6716 21.3709 44.5376 21.2379 44.4037C21.0344 44.183 20.8075 43.9702 20.6041 43.7416C20.4789 43.584 20.3615 43.4264 20.2363 43.2845C20.0485 43.0638 19.8685 42.8353 19.6964 42.6067C19.579 42.4491 19.4773 42.2836 19.3599 42.1102C19.1956 41.8738 19.0234 41.6294 18.8591 41.3694C18.7417 41.1802 18.6478 40.9832 18.5383 40.794C18.4053 40.5655 18.2722 40.3448 18.1627 40.1005C18.1001 39.9744 18.0531 39.8561 17.9827 39.7379C17.9279 39.6197 17.8888 39.5172 17.834 39.4069C17.7949 39.336 17.7714 39.2572 17.748 39.1941C17.6775 39.0207 17.6071 38.871 17.5523 38.6976L17.4819 38.5163C17.435 38.3823 17.388 38.2641 17.3489 38.138L17.3019 38.0119L17.2237 37.7518L17.1454 37.476L17.1063 37.3814V37.342L16.7542 36.2465L16.629 35.884C16.3238 36.1677 15.9639 36.5618 15.6039 36.877L15.377 37.011L15.0405 37.1844L14.7823 37.3026L14.4615 37.4287C14.0703 37.5863 13.6712 37.7045 13.2643 37.7991C12.4114 37.7991 11.5115 37.6573 10.5803 37.4523C8.64758 37.0346 6.80873 36.5854 5.29852 35.7342C4.7273 35.419 4.21868 35.0485 3.78831 34.6229C3.77266 34.6229 3.76484 34.5914 3.74136 34.5835C3.63181 34.4732 3.52226 34.3471 3.42054 34.221C3.35794 34.1579 3.29534 34.0791 3.24057 34.0161C3.17797 33.9294 3.09972 33.8348 3.04494 33.7481C2.99017 33.6772 2.93539 33.5984 2.89627 33.5196C2.83367 33.4329 2.7789 33.3383 2.72412 33.2516C2.66935 33.1649 2.63022 33.0703 2.57545 32.9758C2.5285 32.8969 2.48937 32.8102 2.44242 32.7235C2.41112 32.6526 2.38765 32.5817 2.35635 32.5029C2.30158 32.3768 2.25463 32.2428 2.20768 32.1246C2.20768 32.1009 2.19203 32.093 2.19203 32.0773C2.12943 31.9118 2.08248 31.7541 2.03553 31.5729C2.01988 31.5098 2.00423 31.4389 1.98858 31.368C1.95728 31.2576 1.9338 31.1394 1.91033 31.0291C1.89468 30.9266 1.88686 30.8163 1.86338 30.7138C1.86338 30.6271 1.83991 30.5325 1.83208 30.4458C1.81643 30.3355 1.80861 30.2173 1.80078 30.0991C1.80078 30.0281 1.80078 29.9414 1.80078 29.8784C1.80078 29.7523 1.80078 29.642 1.80078 29.5237V29.2952C1.80078 29.1927 1.81643 29.0903 1.81643 28.972C1.81643 28.8853 1.81643 28.7987 1.83208 28.712C1.84773 28.6174 1.86338 28.5228 1.87121 28.4282C1.87121 28.3258 1.88686 28.2312 1.91033 28.1366C1.91033 28.042 1.9338 27.9475 1.95728 27.8608C1.97293 27.782 1.9964 27.6953 2.00423 27.6165C2.05118 27.4037 2.10595 27.2145 2.16073 27.0254C2.20768 26.8599 2.23898 26.6943 2.29375 26.5288C2.3094 26.4894 2.32505 26.4579 2.3407 26.4264C2.4033 26.2766 2.45807 26.1348 2.52067 25.985C2.58327 25.8432 2.63022 25.6855 2.70065 25.5515C2.78672 25.3624 2.88844 25.2048 2.99017 25.0235C3.06059 24.8974 3.11537 24.7792 3.17797 24.661C3.29534 24.4797 3.40489 24.3299 3.53009 24.1566C3.59269 24.062 3.66311 23.9595 3.74136 23.8571C3.85091 23.6916 3.98393 23.5418 4.11696 23.4C4.17956 23.3133 4.26563 23.2108 4.34388 23.1241C4.46125 22.9901 4.59428 22.8561 4.71948 22.73C4.80555 22.6433 4.89945 22.5488 4.98552 22.47C5.1029 22.3517 5.2281 22.2493 5.36112 22.1311C5.44719 22.0601 5.54109 21.9734 5.63499 21.8946C5.77584 21.7843 5.90886 21.6739 6.04971 21.5715C6.12796 21.5163 6.19839 21.4533 6.27663 21.3981C6.44878 21.2799 6.60528 21.1617 6.77743 21.0592C6.82438 21.0277 6.8635 20.9962 6.91045 20.9646C7.0513 20.8779 7.19215 20.7912 7.32517 20.7045C7.38777 20.6651 7.46602 20.6178 7.5208 20.5863C7.62252 20.5233 7.73207 20.4602 7.84162 20.4051C7.92769 20.3499 8.02942 20.2947 8.10767 20.2474C8.17027 20.2001 8.24851 20.1844 8.31111 20.1371C8.42849 20.0819 8.53804 20.0189 8.64758 19.9637C8.67106 19.9479 8.70236 19.9401 8.71801 19.9164C9.3753 19.5933 9.9074 19.3805 10.2752 19.2071C10.4786 19.1204 10.6586 19.0495 10.8307 18.9785C10.776 19.9952 10.909 20.7755 11.0264 21.1144C11.3472 22.1074 11.6211 22.1547 11.8636 22.0838C12.0827 22.0286 12.2001 21.8867 12.2314 20.941C12.2627 20.5233 12.2314 19.5145 12.5366 18.2535C12.5366 18.2535 12.5366 18.2535 12.5522 18.2535C12.8496 18.1037 12.9826 17.9934 13.0139 17.883C13.0139 17.8436 13.0139 17.82 13.0139 17.7806C12.9982 17.7096 12.9278 17.6387 12.6931 17.6072C12.8104 17.2604 12.9435 16.8979 13.1234 16.5117C14.0077 14.4468 16.0891 12.3582 18.6791 11.3021C21.2614 10.2066 24.2035 10.1515 26.4415 10.5613C28.7107 10.9396 30.2991 11.7277 30.9173 11.9011C31.7859 12.1927 32.0597 12.0981 32.2006 11.8775C32.3101 11.6962 32.2945 11.4519 31.4807 10.7898C31.3242 10.6795 31.066 10.514 30.7295 10.317C30.9564 9.91502 31.2851 9.29239 31.8485 8.40969C32.3493 7.66096 33.3196 6.16351 35.1741 4.69759C36.9816 3.23166 39.7438 1.81302 43.1007 1.79726C44.4388 1.7815 45.8629 1.99429 47.2636 2.46717C47.3183 2.48294 47.3575 2.4987 47.4044 2.52234C47.8113 2.65633 48.2104 2.81395 48.6016 2.99522C50.1666 3.69666 51.6377 4.72123 52.8584 6.07682C54.1886 7.52698 55.1041 9.36333 55.5971 11.3415C56.0666 13.3276 56.0822 15.4635 55.5971 17.4574C55.4641 17.954 55.3232 18.4426 55.1354 18.9312C55.0572 19.1756 54.9476 19.4041 54.8459 19.6327L54.7598 19.8218C54.6972 19.9637 54.6346 20.0898 54.572 20.208L54.1651 20.941L53.7504 21.6739L53.6565 21.8552C53.6252 21.9183 53.5391 21.9971 53.6565 21.9971L54.0712 22.0759L55.691 22.399L56.5439 22.667L57.2012 22.9586C58.9227 23.8413 60.3155 25.3624 61.1684 27.0963C62.0135 28.8223 62.3657 30.7296 62.1231 32.5029L62.0761 32.4635Z" fill="#FFFCF3"/>
<g style="mix-blend-mode:multiply" opacity="0.25">
<path d="M62.0761 32.4635C61.8492 34.2447 61.1371 35.8919 60.1981 37.2474C58.3123 40.0059 55.6597 41.6137 53.5 42.3939C51.2934 43.1742 49.5563 43.2057 48.6799 43.1978C47.5765 43.1978 46.8488 43.0875 46.3793 43.0166C46.6454 42.1654 46.6532 41.5743 46.6219 41.2354C46.5671 40.7862 46.4498 40.6995 46.3246 40.6916C46.215 40.6916 46.1133 40.7467 45.9724 41.1172C45.8003 41.4797 45.6438 42.1733 44.9787 43.253C44.5405 43.9623 43.578 45.3258 41.7079 46.571C41.614 46.6341 41.4966 46.705 41.3949 46.7681C41.254 46.8469 41.121 46.9415 40.9723 47.0203C40.808 47.1149 40.628 47.2094 40.4559 47.304C40.3541 47.3592 40.2681 47.4143 40.1585 47.4695C40.0099 47.5326 39.8534 47.6114 39.6969 47.6744C39.556 47.7454 39.423 47.8084 39.2743 47.8715C39.1569 47.9266 39.0396 47.9503 38.9222 48.0133C38.7266 48.0843 38.5309 48.1709 38.3275 48.2419C38.2492 48.2655 38.171 48.2971 38.0928 48.3128C37.8345 48.3995 37.5841 48.4862 37.3103 48.565C37.2398 48.5808 37.1694 48.5965 37.099 48.6202C36.8173 48.699 36.5278 48.7699 36.2304 48.8251C36.1443 48.8566 36.0426 48.8645 35.9487 48.8881C35.667 48.9433 35.3932 48.9906 35.1115 49.0379C34.9237 49.0615 34.7359 49.0852 34.5481 49.1009C34.3368 49.1246 34.1412 49.1482 33.9299 49.164C33.7343 49.1876 33.5152 49.1876 33.3195 49.1955C33.1161 49.1955 32.9127 49.2113 32.7014 49.2113C32.5136 49.2113 32.3336 49.1955 32.1458 49.1955C31.9111 49.1955 31.6841 49.1955 31.4494 49.1561C31.3007 49.1561 31.1364 49.1246 30.9956 49.1088C30.7217 49.0773 30.44 49.0458 30.1661 49.0064C30.0487 48.9906 29.9392 48.9591 29.8218 48.9433C29.501 48.8803 29.1958 48.8251 28.875 48.7463C28.7811 48.7305 28.6794 48.6911 28.5777 48.6754C28.249 48.5887 27.9125 48.4941 27.5761 48.3916C27.4978 48.3522 27.4039 48.3207 27.3178 48.2813C26.9814 48.1709 26.6371 48.0448 26.3162 47.903C26.2145 47.8557 26.1128 47.8084 26.0111 47.7611C25.6903 47.6114 25.3851 47.4695 25.0643 47.304C24.9391 47.241 24.8139 47.1464 24.6808 47.0754C24.407 46.9178 24.1253 46.7523 23.8514 46.571C23.6871 46.4607 23.5228 46.3346 23.3663 46.2085C23.1472 46.0588 22.9281 45.909 22.7246 45.7435C22.5212 45.5938 22.3334 45.4204 22.1456 45.247C21.9656 45.0972 21.7934 44.9475 21.6291 44.7899C21.4961 44.6716 21.3709 44.5377 21.2379 44.4037C21.0344 44.183 20.8075 43.9702 20.6041 43.7416C20.4789 43.584 20.3615 43.4264 20.2363 43.2845C20.0485 43.0639 19.8685 42.8353 19.6964 42.6067C19.579 42.4491 19.4773 42.2836 19.3599 42.1102C19.1956 41.8738 19.0234 41.6295 18.8591 41.3694C18.7417 41.1802 18.6478 40.9832 18.5383 40.794C18.4053 40.5655 18.2722 40.3448 18.1627 40.1005C18.1001 39.9744 18.0531 39.8562 17.9827 39.7379C17.9279 39.6197 17.8888 39.5173 17.834 39.4069C17.7949 39.336 17.7714 39.2572 17.748 39.1941C17.6775 39.0207 17.6071 38.871 17.5523 38.6976L17.4819 38.5163C17.435 38.3824 17.388 38.2641 17.3489 38.138L17.3019 38.0119L17.2237 37.7519L17.1454 37.476L17.1063 37.3814V37.342L16.7542 36.2465L16.629 35.884C16.3238 36.1677 15.9639 36.5618 15.6039 36.877L15.377 37.011L15.0405 37.1844L14.7823 37.3026L14.4615 37.4287C14.0703 37.5863 13.6712 37.7046 13.2643 37.7991C12.4114 37.7991 11.5115 37.6573 10.5803 37.4524C8.64758 37.0346 6.80873 36.5854 5.29852 35.7342C4.7273 35.419 4.21868 35.0486 3.78831 34.623C3.77266 34.623 3.76484 34.5914 3.74136 34.5836C3.63181 34.4732 3.52226 34.3471 3.42054 34.221C3.35794 34.158 3.29534 34.0792 3.24057 34.0161C3.17797 33.9294 3.09972 33.8348 3.04494 33.7481C2.99017 33.6772 2.93539 33.5984 2.89627 33.5196C2.83367 33.4329 2.7789 33.3383 2.72412 33.2516C2.66935 33.1649 2.63022 33.0703 2.57545 32.9758C2.5285 32.897 2.48937 32.8103 2.44242 32.7236C2.41112 32.6526 2.38765 32.5817 2.35635 32.5029C2.30158 32.3768 2.25463 32.2428 2.20768 32.1246C2.20768 32.1009 2.19203 32.0931 2.19203 32.0773C2.12943 31.9118 2.08248 31.7542 2.03553 31.5729C2.01988 31.5098 2.00423 31.4389 1.98858 31.368C1.95728 31.2576 1.9338 31.1394 1.91033 31.0291C1.89468 30.9266 1.88686 30.8163 1.86338 30.7138C1.86338 30.6271 1.83991 30.5326 1.83208 30.4459C1.81643 30.3355 1.80861 30.2173 1.80078 30.0991C1.80078 30.0282 1.80078 29.9415 1.80078 29.8784C1.80078 29.7523 1.80078 29.642 1.80078 29.5238V29.2952C1.80078 29.1927 1.81643 29.0903 1.81643 28.9721C1.81643 28.8854 1.81643 28.7987 1.83208 28.712C1.84773 28.6174 1.86338 28.5228 1.87121 28.4282C1.87121 28.3258 1.88686 28.2312 1.91033 28.1366C1.91033 28.0421 1.9338 27.9475 1.95728 27.8608C1.97293 27.782 1.9964 27.6953 2.00423 27.6165C2.05118 27.4037 2.10595 27.2145 2.16073 27.0254C2.20768 26.8599 2.23898 26.6944 2.29375 26.5289C2.3094 26.4894 2.32505 26.4579 2.3407 26.4264C3.27187 27.6716 4.14826 29.4371 5.14985 30.3434C9.04665 33.9136 17.435 34.5126 21.3552 30.7217C21.723 35.7658 23.0611 42.7328 29.0393 43.8599C34.6107 44.9002 44.4388 38.9183 43.8128 32.5502C44.5327 37.3578 52.3184 39.6512 54.5329 34.7885C56.5596 30.3276 51.9429 23.5891 47.6235 22.7616C49.2746 20.0425 51.4342 17.4417 51.6768 14.0685C51.9663 10.1121 50.6674 6.27387 48.6173 2.99524C50.1822 3.69668 51.6533 4.72125 52.874 6.07683C54.2043 7.527 55.1198 9.36334 55.6127 11.3416C56.0822 13.3276 56.0979 15.4635 55.6127 17.4575C55.4797 17.954 55.3389 18.4426 55.1511 18.9313C55.0728 19.1756 54.9633 19.4041 54.8615 19.6327L54.7755 19.8219C54.7129 19.9637 54.6503 20.0898 54.5877 20.208L54.1808 20.941L53.7661 21.674L53.6722 21.8552C53.6409 21.9183 53.5548 21.9971 53.6722 21.9971L54.0869 22.0759L55.7066 22.399L56.5596 22.667L57.2168 22.9586C58.9383 23.8413 60.3312 25.3624 61.1841 27.0963C62.0292 28.8223 62.3813 30.7296 62.1387 32.5029L62.0761 32.4635Z" fill="#FFC82A"/>
</g>
</svg>
