<svg width="2260" height="95" viewBox="0 0 2260 95" fill="none" xmlns="http://www.w3.org/2000/svg">
<path d="M405.704 25.8029C384.545 22.4029 363.448 18.8829 341.993 16.4429C308.31 12.6129 273.631 12.5829 239.901 16.2529C205.269 20.0329 164.428 27.7929 131.321 34.5529C89.9517 42.9929 43.7595 47.7629 0.476807 47.3329V94.6029H2259.52V47.3029C2163.93 46.5029 2055.38 14.3929 1971.13 19.3229C1891.51 23.9829 1882.89 32.9429 1803.84 42.9029C1668.79 59.9229 1530.06 50.7029 1395.79 35.0929C1291.23 22.9429 1188.33 0.592884 1081.55 0.0128841C973.374 -0.577116 868.823 19.2229 763.852 33.3629C691.678 43.0829 617.435 45.5129 543.969 41.7929C506.941 39.9229 482.577 36.5129 446.155 31.8229C432.573 30.0729 419.115 27.9629 405.673 25.8029H405.704Z" fill="#DCF7FF"/>
</svg>
