<svg width="1440" height="150" viewBox="0 0 1440 150" fill="none" xmlns="http://www.w3.org/2000/svg">
<path d="M55.5796 63.7386C48.7068 60.7848 22.3241 50.9865 9.20927 47.6957L-6.07617 43.1326L-4.21489 187.812H1445.29V85.9519C1442.01 85.9519 1423.93 80.1518 1377.84 56.9512C1320.23 27.9505 1283.69 43.3764 1224.68 63.1216C1177.46 78.9177 1140.37 65.5897 1127.72 56.9512C1113.2 44.6105 1071.09 26.593 1018.82 53.249C966.547 79.9049 913.667 64.3556 893.76 53.249C896.571 54.4831 885.47 48.6829 818.584 15.6098C751.698 -17.4633 688.606 9.64511 665.421 27.3335C661.206 28.9789 639.426 40.1678 586.029 71.7601C532.633 103.352 477.597 91.9166 456.754 82.2497L397.737 63.7386C365.653 48.5184 285.746 27.2101 222.794 63.7386C144.105 109.399 74.6956 71.9543 55.5796 63.7386Z" fill="#FFFCF3"/>
</svg>
