<svg width="202" height="43" viewBox="0 0 202 43" fill="none" xmlns="http://www.w3.org/2000/svg">
<path d="M199.332 20.2921C200.107 20.2921 200.785 20.2921 201.754 20.2921C200.107 19.5674 198.557 20.1713 197.104 20.0506C196.329 19.6882 195.651 19.2051 194.488 19.4466C193.81 19.3258 193.132 19.4466 192.454 19.4466C192.26 19.2051 192.066 19.0843 191.872 18.8427C191.775 18.7219 191.485 18.6011 191.388 18.4803C190.903 18.2388 190.419 18.118 189.935 17.8764C190.225 17.7556 190.419 17.6348 190.71 17.514C191.291 17.514 191.872 17.3933 192.357 17.0309C192.841 16.7893 193.422 16.5478 193.325 16.1854V16.0646C194.101 16.0646 194.972 16.0646 195.166 15.4607C195.166 15.2191 194.972 15.0983 194.876 14.8567C195.457 14.8567 196.038 15.0983 196.426 14.6152C196.813 14.132 197.298 13.7697 197.782 13.4073C198.266 13.1657 198.751 13.0449 199.332 12.8034C199.332 12.1994 199.72 11.7163 200.495 11.3539C200.882 11.3539 201.464 11.4747 201.754 11.2331C201.948 10.9916 201.464 10.9916 201.27 10.9916C200.689 10.9916 200.01 10.8708 199.429 10.75C199.429 10.5084 199.429 10.2669 199.429 10.1461C199.526 10.0253 199.72 9.90449 199.817 9.78371C199.817 9.78371 199.817 9.66292 199.817 9.54214C200.204 9.54214 200.592 9.78371 201.076 9.54214C200.882 9.30056 200.592 9.17978 200.204 9.05899C200.01 8.81742 199.623 8.57584 199.138 8.45506C199.332 7.97191 198.073 7.85112 198.363 7.36798C198.945 7.36798 199.042 7.85112 199.817 7.85112C199.623 7.48876 199.235 7.36798 198.751 7.1264C198.46 6.88483 198.363 6.64326 197.782 6.64326C197.782 6.76405 197.976 7.00562 197.976 7.1264C197.491 7.1264 197.007 7.1264 196.523 7.1264L195.36 6.64326C195.36 6.64326 195.263 6.52247 195.166 6.40169C195.457 6.40169 195.844 6.2809 196.135 6.16011C197.007 6.16011 196.135 5.67697 196.426 5.55618C197.104 5.55618 197.491 5.19382 197.976 4.95225C198.654 4.95225 199.526 5.07303 200.301 4.58989C199.332 4.58989 198.557 4.58989 197.879 4.58989C197.879 4.4691 197.782 4.34831 197.685 4.22753C198.073 3.98596 198.848 3.98595 198.945 3.6236C198.945 3.6236 198.751 3.6236 198.654 3.6236C197.685 3.26124 196.619 3.50281 195.554 3.50281C194.391 3.50281 193.325 3.50281 192.163 3.50281C191.388 3.50281 190.613 3.38202 189.935 3.26124C189.935 3.26124 189.741 3.26124 189.644 3.26124C189.644 3.26124 187.803 3.26124 188.481 2.41573C186.834 1.57022 184.8 1.44944 182.765 1.32865C182.281 1.32865 181.796 1.32865 181.409 1.32865C179.568 1.32865 177.921 0.603933 176.08 0.966292C175.208 0.966292 174.433 0.483146 173.465 0.724719C172.883 0.724719 172.302 0.603933 171.914 0.845506C171.818 0.845506 171.721 0.845506 171.527 0.845506C170.849 0.483146 170.074 0.603933 169.299 0.603933C169.105 0.603933 168.814 0.603933 168.62 0.603933C167.07 0.241573 165.326 0.483146 163.679 0.241573C162.904 0.120787 162.226 0.241573 161.451 0.241573C160.579 0.241573 159.707 0.241573 158.835 0.241573C158.738 0.241573 158.545 0.241573 158.448 0.241573C157.576 0.241573 156.801 0.241573 155.929 0.241573C153.41 0.241573 150.891 0.241573 148.372 0.241573C148.275 0.241573 148.081 0.241573 147.984 0.241573C147.209 0.241573 146.434 0.241573 145.659 0.241573C145.659 0.241573 145.659 0.36236 145.659 0.483146C145.659 0.483146 145.659 0.36236 145.659 0.241573C145.466 0.241573 145.369 0.241573 145.175 0.241573C144.69 0 144.012 0 143.431 0C140.331 0 137.134 0 134.033 0C133.84 0 133.84 0.120787 134.033 0.241573C137.134 0.241573 140.331 0.241573 143.431 0.241573C139.071 0.241573 134.615 0.241573 130.255 0.241573V0.36236H130.158C130.158 0.36236 130.158 0.483146 130.158 0.603933C130.158 0.603933 130.255 0.483146 130.158 0.36236C130.158 0.36236 130.158 0.36236 130.158 0.241573C129.771 0.241573 129.383 0.241573 128.995 0.241573C127.348 0.241573 125.605 0.120787 123.958 0.36236C123.958 0.36236 123.958 0.36236 123.861 0.36236C123.861 0.36236 123.667 0.36236 123.57 0.36236C122.795 0.241573 122.117 0.36236 121.342 0.36236C117.37 0.36236 113.397 0.36236 109.425 0.603933C108.263 0.603933 107.003 0.603933 105.841 0.603933C105.55 0.603933 105.356 0.603933 105.066 0.603933C105.453 0.603933 105.841 0.36236 106.228 0.36236C105.647 0.36236 105.066 0.120787 104.678 0.36236C103.903 0.36236 103.225 0.36236 102.45 0.36236C101.965 0.36236 101.578 0.36236 101.287 0.603933C99.5432 0.603933 97.7993 0.36236 96.1523 0.724719C96.1523 0.724719 96.0554 0.724719 95.9586 0.724719C92.277 0.724719 88.4986 0.724719 84.8171 0.724719C84.5264 0.724719 84.3327 0.724719 84.042 0.724719C80.6511 0.724719 77.2602 0.724719 73.8694 0.724719C71.7379 0.724719 69.7034 0.845506 67.572 0.966292C67.2813 0.966292 67.0876 0.966292 66.7969 0.966292C65.6343 0.966292 64.5686 0.966292 63.406 0.966292C62.0497 0.966292 60.5965 0.966292 59.2401 0.966292C58.6588 0.966292 57.9806 0.966292 57.3993 0.966292C56.6243 0.966292 55.8492 0.966292 55.171 0.966292C54.8804 0.966292 54.6866 0.966292 54.396 0.966292C53.3303 0.966292 52.2646 0.966292 51.102 0.966292C49.8425 0.724719 48.583 0.724719 47.2267 0.845506C46.2578 0.845506 45.289 0.845506 44.3202 0.845506C43.4483 0.603933 42.4794 0.603933 41.6075 0.724719C41.22 0.724719 40.9293 0.724719 40.5418 0.724719C38.7979 0.36236 37.054 0.603933 35.3101 0.483146C34.2444 0.120787 33.0818 0.483146 32.0161 0.241573C31.4348 0 30.9504 -0.120787 30.7566 0.483146C30.0785 0.966292 30.1753 1.69101 29.4003 2.17416C28.6252 2.6573 28.6252 3.14045 29.1096 3.74438C29.1096 3.74438 29.1096 3.74438 29.3034 3.86517C29.6909 4.22753 30.0785 4.58989 30.3691 4.95225C29.1096 4.95225 28.4315 5.31461 27.6564 5.79775C27.2689 5.79775 27.0751 6.03933 26.9782 6.16011C26.9782 6.16011 26.3969 6.16011 26.3 6.40169C25.7188 6.52247 24.7499 6.16011 24.4593 6.76404C24.4593 6.76404 24.4593 6.76404 24.3624 6.76404C23.7811 6.76404 23.1998 6.76404 22.6185 6.76404C22.0372 6.52247 21.5528 6.52247 20.6809 6.52247C21.359 6.88483 21.9403 7.00562 22.6185 7.00562C22.8123 7.00562 23.1029 7.1264 23.2967 7.24719C23.1998 7.85112 23.1029 8.33427 23.006 8.9382C23.006 8.9382 23.1998 8.9382 23.2967 9.05899C23.2967 9.05899 23.006 9.05899 22.8123 9.05899C22.4248 9.05899 22.0372 9.05899 21.7466 9.05899C21.2622 9.05899 20.7777 9.17978 20.1965 9.30056C18.6463 9.54213 16.9024 9.66292 15.643 10.3876C14.5773 10.5084 13.8991 11.1124 12.8334 11.3539C13.6084 11.5955 13.996 11.2331 14.5773 11.3539C14.6742 11.3539 14.8679 11.4747 14.9648 11.5955C14.9648 11.5955 14.3835 11.9579 14.1897 12.1994C13.124 12.3202 12.5427 12.8034 11.8646 13.2865C11.477 13.4073 11.1864 13.6489 11.1864 13.8904C11.3801 14.736 9.63626 14.9775 9.53938 15.823C10.0238 15.5815 10.4113 15.4607 10.7989 15.3399C10.7989 15.3399 10.7989 15.4607 10.7989 15.5815C10.5082 15.823 10.3144 15.9438 10.0238 16.1854C10.4113 16.5478 10.2176 16.9101 9.63626 17.2725C9.24873 17.3933 8.8612 17.6348 8.57055 17.7556C8.27991 17.7556 7.98926 17.7556 7.79549 17.9972C6.14849 18.6011 6.14849 18.6011 8.08614 19.3258C8.08614 19.3258 8.08614 19.5674 8.08614 19.6882C6.6329 19.6882 5.37343 20.0506 4.11396 20.4129C3.43578 20.6545 3.72643 20.7753 4.30772 20.7753C4.01708 21.3792 3.04825 21.3792 2.37007 21.6208C1.98254 21.8624 1.49813 21.9831 1.01372 22.2247C1.6919 22.2247 2.27319 22.2247 2.85449 22.2247C3.14513 22.4663 3.04825 22.5871 2.46696 22.5871C1.6919 22.5871 1.01372 22.5871 0.0448949 22.5871C1.6919 23.3118 3.24202 22.7079 4.69525 22.8287C5.47031 23.191 6.14849 23.6742 7.31108 23.4326C7.98926 23.5534 8.66744 23.4326 9.34561 23.4326C9.53938 23.6742 9.73314 23.7949 9.92691 24.0365C10.0238 24.1573 10.3144 24.2781 10.4113 24.3989C10.8957 24.6404 11.3801 24.7612 11.8646 25.0028C11.5739 25.1236 11.3801 25.2444 11.0895 25.3652C10.5082 25.3652 9.92691 25.486 9.4425 25.8483C8.95808 26.0899 8.37679 26.3315 8.47367 26.6938V26.9354C7.69861 26.9354 6.82667 26.9354 6.6329 27.5393C6.6329 27.7809 6.82667 27.9017 6.92355 28.1433C6.34226 28.1433 5.76096 27.9017 5.37343 28.3848C4.9859 28.868 4.50149 29.2303 4.01708 29.5927C3.53266 29.8343 3.04825 29.9551 2.46696 30.1966C2.46696 30.1966 2.07943 31.2837 1.30437 31.6461C0.916837 31.6461 0.335542 31.5253 0.0448949 31.7669C-0.14887 32.0084 0.335542 32.0084 0.529307 32.0084C1.1106 32.0084 1.78878 32.1292 2.37007 32.25C2.37007 32.4916 2.37007 32.7331 2.37007 32.8539C2.27319 32.9747 2.07943 33.0955 1.98254 33.2163C1.98254 33.2163 1.98254 33.3371 1.98254 33.4579C1.59501 33.4579 1.20748 33.2163 0.723072 33.4579C0.916837 33.6994 1.20748 33.8202 1.59501 33.941C1.78878 34.1826 2.17631 34.4242 2.66072 34.5449C2.46696 35.0281 3.72643 35.1489 3.43578 35.632C2.95137 35.632 2.7576 35.1489 1.98254 35.1489C2.17631 35.5112 2.56384 35.632 3.04825 35.8736C3.3389 36.1152 3.43578 36.3567 4.01708 36.3567C4.01708 36.236 3.82331 35.9944 3.82331 35.8736C4.30772 35.8736 4.79214 35.8736 5.27655 35.8736C5.66408 35.9944 6.05161 36.1152 6.43914 36.3567C6.43914 36.3567 6.53602 36.4775 6.6329 36.5983C6.34226 36.5983 5.95473 36.7191 5.66408 36.8399C4.79214 36.8399 5.66408 37.323 5.37343 37.4438C4.69525 37.4438 4.30772 37.8062 3.82331 38.0478C3.14513 38.0478 2.27319 37.927 1.49813 38.4101C2.46696 38.4101 3.24202 38.4101 3.92019 38.4101C3.92019 38.5309 4.01708 38.6517 4.11396 38.7725C4.30772 38.7725 4.40461 38.8933 4.59837 39.014C4.59837 39.014 4.50149 38.6517 4.11396 38.7725C3.72643 39.014 2.95137 39.014 2.85449 39.3764C2.85449 39.3764 3.04825 39.3764 3.14513 39.3764C4.11396 39.7388 5.17967 39.4972 6.24537 39.4972C7.40796 39.4972 8.47367 39.4972 9.63626 39.4972C10.4113 39.4972 11.1864 39.618 11.8646 39.7388C11.8646 39.7388 12.0583 39.7388 12.1552 39.7388C12.1552 39.7388 13.996 39.7388 13.3178 40.5843C14.9648 41.4298 16.9993 41.5506 19.0339 41.6713C19.5183 41.6713 20.0027 41.6713 20.3902 41.6713C22.231 41.6713 23.878 42.3961 25.7188 42.0337C26.5907 42.0337 27.3658 42.5169 28.3346 42.2753C28.9159 42.2753 29.4972 42.3961 29.8847 42.1545C29.9816 42.1545 30.0785 42.1545 30.2722 42.1545C30.9504 42.5169 31.7255 42.5169 32.5005 42.3961C32.6943 42.3961 32.9849 42.3961 33.1787 42.3961C34.7288 42.7584 36.4727 42.5169 38.1197 42.7584C38.8948 42.8792 39.573 42.7584 40.348 42.7584C41.22 42.7584 42.0919 42.7584 42.9638 42.7584C43.0607 42.7584 43.2545 42.7584 43.3514 42.7584C44.2233 42.7584 44.9984 42.7584 45.8703 42.7584C48.3893 42.7584 50.9082 42.7584 53.4271 42.7584C53.524 42.7584 53.7178 42.7584 53.8147 42.7584C54.5897 42.7584 55.3648 42.7584 56.1399 42.7584C56.1399 42.7584 56.1399 42.6376 56.1399 42.5169C56.1399 42.5169 56.1399 42.6376 56.1399 42.7584C56.3336 42.7584 56.4305 42.7584 56.6243 42.7584C57.1087 43 57.7869 43 58.3682 43C61.4684 43 64.6655 43 67.7658 43C67.9595 43 67.9595 42.8792 67.7658 42.7584C64.6655 42.7584 61.4684 42.7584 58.3682 42.7584C62.7279 42.7584 67.1845 42.7584 71.5442 42.7584V42.6376H71.6411C71.6411 42.6376 71.6411 42.5169 71.6411 42.3961C71.6411 42.3961 71.5442 42.5169 71.6411 42.6376C71.6411 42.6376 71.6411 42.6376 71.6411 42.7584C72.0286 42.7584 72.4161 42.7584 72.8036 42.7584C74.4506 42.7584 76.1945 42.8792 77.8415 42.6376C77.8415 42.6376 77.8415 42.6376 77.9384 42.6376C77.9384 42.6376 78.1322 42.6376 78.2291 42.6376C79.0041 42.7584 79.6823 42.6376 80.4574 42.6376C84.4295 42.6376 88.4017 42.6376 92.3739 42.3961C93.5365 42.3961 94.796 42.3961 95.9586 42.3961C96.2492 42.3961 96.443 42.3961 96.7336 42.3961C96.3461 42.3961 95.9586 42.6376 95.571 42.6376C96.1523 42.6376 96.7336 42.8792 97.1212 42.6376C97.8962 42.6376 98.5744 42.6376 99.3494 42.6376C99.4463 42.6376 99.4463 42.5169 99.3494 42.3961C99.3494 42.3961 99.3494 42.5169 99.3494 42.6376C99.8339 42.6376 100.221 42.6376 100.512 42.3961C102.256 42.3961 104.097 42.6376 105.841 42.2753C109.522 42.2753 113.301 42.2753 116.982 42.2753C117.273 42.2753 117.466 42.2753 117.757 42.2753C121.148 42.2753 124.539 42.2753 127.93 42.2753C130.061 42.2753 132.096 42.1545 134.227 42.0337C134.518 42.0337 134.712 42.0337 135.002 42.0337C136.165 42.0337 137.231 42.0337 138.393 42.0337H142.559C143.14 42.0337 143.819 42.0337 144.4 42.0337C145.175 42.0337 145.95 42.0337 146.628 42.0337C146.919 42.0337 147.113 42.0337 147.403 42.0337H150.697C151.957 42.2753 153.216 42.2753 154.476 42.1545C155.444 42.1545 156.413 42.1545 157.382 42.1545C158.254 42.3961 159.223 42.2753 160.095 42.2753C160.482 42.2753 160.773 42.2753 161.16 42.2753C162.904 42.6376 164.648 42.3961 166.392 42.5169C167.458 42.8792 168.62 42.5169 169.686 42.7584C170.267 43 170.752 43.1208 170.946 42.5169C171.624 42.0337 171.527 41.309 172.302 40.8258C173.077 40.3427 173.077 39.8595 172.593 39.2556C172.593 39.2556 172.593 39.2556 172.399 39.1348C172.011 38.7725 171.624 38.4101 171.333 38.0478C172.593 38.0478 173.271 37.6854 174.046 37.2022C174.433 37.2022 174.627 36.9607 174.724 36.8399C174.724 36.8399 175.305 36.8399 175.402 36.5983C175.983 36.4775 176.952 36.8399 177.243 36.236C177.243 36.236 177.243 36.236 177.34 36.236C177.921 36.236 178.502 36.236 179.084 36.236C179.665 36.4775 180.149 36.4775 181.021 36.4775C180.343 36.1152 179.762 35.9944 179.084 35.9944C178.89 35.9944 178.599 35.8736 178.406 35.7528C178.502 35.1489 178.599 34.6657 178.696 34.0618C178.696 34.0618 178.502 34.0618 178.406 33.941C178.406 33.941 178.696 33.941 178.89 33.941H179.956C180.44 33.941 180.925 33.8202 181.506 33.6994C183.056 33.4579 184.8 33.3371 186.059 32.6124C187.125 32.4916 187.803 31.8876 188.869 31.6461C188.094 31.4045 187.706 31.7669 187.125 31.6461L186.737 31.4045C186.737 31.4045 187.319 31.0421 187.513 30.8006C188.578 30.6798 189.16 30.1966 189.838 29.7135C189.838 29.7135 190.516 29.3511 190.516 29.1096C190.322 28.264 192.066 28.0225 192.163 27.177C191.678 27.4185 191.291 27.5393 190.903 27.6601C190.903 27.6601 190.903 27.5393 190.903 27.4185C191.194 27.177 191.388 27.0562 191.678 26.8146C191.291 26.4522 191.485 26.0899 192.066 25.7275C192.454 25.6067 192.841 25.3652 193.132 25.2444C193.422 25.2444 193.713 25.2444 193.907 25.0028C195.554 24.3989 195.554 24.3989 193.616 23.6742C193.616 23.6742 193.616 23.4326 193.616 23.3118C195.069 23.3118 196.329 22.9494 197.588 22.5871C198.266 22.3455 197.976 22.2247 197.395 22.2247C197.685 21.6208 198.654 21.6208 199.332 21.3792C199.72 21.1376 200.204 21.0169 200.689 20.7753C200.01 20.7753 199.429 20.7753 198.848 20.7753C198.557 20.5337 198.654 20.4129 199.235 20.4129L199.332 20.2921ZM127.155 41.309C127.155 41.309 127.155 41.309 127.252 41.309C127.252 41.309 127.252 41.309 127.155 41.309ZM4.50149 39.014C4.50149 39.014 4.40461 39.014 4.30772 39.014C4.30772 39.014 4.40461 39.014 4.50149 39.014ZM74.3538 1.20787C74.3538 1.20787 74.3538 1.20787 74.2569 1.20787C74.2569 1.20787 74.2569 1.20787 74.3538 1.20787ZM41.7044 5.31461C41.7044 5.31461 41.5106 5.31461 41.4137 5.31461C41.4137 5.31461 41.6075 5.31461 41.7044 5.31461ZM159.804 37.2022C159.804 37.2022 159.998 37.2022 160.095 37.2022C160.095 37.2022 159.901 37.2022 159.804 37.2022ZM57.0118 3.6236H57.3024C57.3024 3.6236 57.3024 3.6236 57.2056 3.6236C57.2056 3.6236 57.1087 3.6236 57.0118 3.6236ZM59.0463 3.38202C59.2401 3.38202 58.9495 3.26124 59.0463 3.38202ZM43.642 3.50281C43.642 3.50281 43.642 3.50281 43.5451 3.50281C43.5451 3.50281 43.642 3.50281 43.7389 3.50281H43.642ZM13.5116 19.6882C13.5116 19.6882 13.4147 19.6882 13.3178 19.6882C13.3178 19.6882 13.3178 19.6882 13.4147 19.6882H13.5116ZM144.497 39.014H144.206C144.206 39.014 144.206 39.014 144.303 39.014C144.303 39.014 144.4 39.014 144.497 39.014ZM142.462 39.1348C142.559 39.2556 142.268 39.1348 142.462 39.1348ZM157.866 39.014C157.866 39.014 157.866 39.014 157.963 39.014C157.963 39.014 157.866 39.014 157.77 39.014H157.866ZM188.094 22.8287C188.094 22.8287 188.191 22.8287 188.288 22.8287C188.288 22.8287 188.288 22.8287 188.191 22.8287H188.094ZM48.7768 2.53652C48.7768 2.53652 48.8737 2.53652 48.9706 2.53652H48.7768ZM152.829 39.9803C152.829 39.9803 152.732 39.9803 152.635 39.9803H152.829ZM168.136 1.8118C168.136 1.8118 167.748 1.8118 167.652 1.8118C167.652 1.8118 167.942 1.8118 168.136 1.8118ZM160.095 1.08708C160.095 1.08708 160.289 1.08708 160.482 1.20787C160.385 1.20787 160.192 1.20787 160.095 1.08708ZM33.3725 40.7051C33.3725 40.7051 33.76 40.7051 33.8569 40.7051C33.8569 40.7051 33.5662 40.7051 33.3725 40.7051ZM41.4137 41.4298C41.4137 41.4298 41.1231 41.4298 41.0262 41.309C41.1231 41.309 41.3168 41.309 41.4137 41.4298ZM186.447 18.4803C186.447 18.4803 186.544 18.4803 186.641 18.4803H186.544H186.447ZM142.268 1.08708H142.365H142.172H142.268ZM72.513 1.69101C72.513 1.69101 72.4161 1.69101 72.3192 1.69101C72.3192 1.69101 72.3192 1.69101 72.4161 1.69101H72.513ZM29.8847 8.21348C29.8847 8.21348 29.5941 8.21348 29.4972 8.21348C29.4972 8.21348 29.7878 8.21348 29.8847 8.21348ZM14.9648 24.1573H15.0617C15.0617 24.1573 14.9648 24.1573 14.8679 24.1573H14.9648ZM59.337 41.5506H59.2401H59.4339H59.337ZM47.3236 0.845506C47.3236 0.845506 47.3236 0.845506 47.4204 0.845506H47.3236ZM128.995 40.9466C128.995 40.9466 129.092 40.9466 129.189 40.9466C129.189 40.9466 129.189 40.9466 129.092 40.9466H128.995ZM154.185 41.6713C154.185 41.6713 154.185 41.6713 154.088 41.6713H154.185ZM197.007 20.1713C197.007 20.1713 197.007 20.1713 197.007 20.2921V20.1713ZM96.8305 1.08708C96.8305 1.08708 96.8305 0.966292 96.8305 0.845506H96.7336C96.7336 0.845506 96.7336 0.845506 96.8305 0.845506C96.8305 0.845506 96.8305 0.966292 96.8305 1.08708ZM71.9317 1.08708C71.9317 1.08708 71.9317 1.08708 71.8348 1.08708C71.8348 1.08708 71.8348 1.08708 71.7379 1.08708C71.7379 1.08708 71.8348 1.08708 71.9317 1.08708ZM70.7691 1.08708C70.7691 1.08708 70.7691 1.08708 70.866 1.08708C70.866 1.08708 70.7691 1.08708 70.6722 1.08708H70.7691ZM39.3792 0.483146C39.3792 0.483146 39.3792 0.483146 39.4761 0.483146H39.3792ZM4.59837 22.4663C4.59837 22.4663 4.59837 22.4663 4.59837 22.3455V22.4663ZM104.775 41.7921C104.775 41.7921 104.775 41.6713 104.775 41.5506C104.775 41.5506 104.775 41.6713 104.775 41.7921H104.872C104.872 41.7921 104.872 41.7921 104.775 41.7921ZM129.867 41.5506C129.867 41.5506 129.771 41.5506 129.674 41.5506C129.674 41.5506 129.674 41.5506 129.771 41.5506C129.771 41.5506 129.771 41.5506 129.867 41.5506C130.158 41.5506 130.352 41.5506 130.642 41.5506C130.642 41.5506 130.739 41.5506 130.836 41.5506C130.836 41.5506 130.836 41.5506 130.739 41.5506C130.449 41.4298 130.255 41.4298 129.964 41.5506H129.867ZM162.129 42.0337C162.129 42.0337 162.129 42.0337 162.032 42.0337H162.129Z" fill="#FF6520"/>
</svg>
