<svg width="202" height="43" viewBox="0 0 202 43" fill="none" xmlns="http://www.w3.org/2000/svg">
<g clip-path="url(#clip0_2258_17545)">
<path d="M199.578 20.5343C200.353 20.5343 201.032 20.5343 202 20.5343C200.353 19.8096 198.803 20.4135 197.35 20.2927C196.575 19.9304 195.897 19.4472 194.734 19.6888C194.056 19.568 193.378 19.6888 192.7 19.6888C192.506 19.4472 192.312 19.3265 192.118 19.0849C192.021 18.9641 191.731 18.8433 191.634 18.7225C191.15 18.481 190.665 18.3602 190.181 18.1186C190.471 17.9978 190.665 17.877 190.956 17.7562C191.537 17.7562 192.118 17.6354 192.603 17.2731C193.087 17.0315 193.668 16.7899 193.572 16.4276V16.3068C194.347 16.3068 195.219 16.3068 195.412 15.7029C195.412 15.4613 195.219 15.3405 195.122 15.0989C195.703 15.0989 196.284 15.3405 196.672 14.8574C197.059 14.3742 197.544 14.0118 198.028 13.6495C198.513 13.4079 198.997 13.2871 199.578 13.0456C199.578 12.4416 199.966 11.9585 200.741 11.5961C201.128 11.5961 201.71 11.7169 202 11.4753C202.194 11.2338 201.71 11.2338 201.516 11.2338C200.935 11.2338 200.256 11.113 199.675 10.9922C199.675 10.7506 199.675 10.509 199.675 10.3883C199.772 10.2675 199.966 10.1467 200.063 10.0259C200.063 10.0259 200.063 9.90511 200.063 9.78432C200.45 9.78432 200.838 10.0259 201.322 9.78432C201.128 9.54275 200.838 9.42196 200.45 9.30118C200.256 9.0596 199.869 8.81803 199.385 8.69724C199.578 8.2141 198.319 8.09331 198.609 7.61017C199.191 7.61017 199.288 8.09331 200.063 8.09331C199.869 7.73095 199.481 7.61017 198.997 7.36859C198.706 7.12702 198.609 6.88545 198.028 6.88545C198.028 7.00623 198.222 7.24781 198.222 7.36859C197.737 7.36859 197.253 7.36859 196.769 7.36859L195.606 6.88545C195.606 6.88545 195.509 6.76466 195.412 6.64387C195.703 6.64387 196.091 6.52309 196.381 6.4023C197.253 6.4023 196.381 5.91915 196.672 5.79837C197.35 5.79837 197.737 5.43601 198.222 5.19443C198.9 5.19443 199.772 5.31522 200.547 4.83208C199.578 4.83208 198.803 4.83208 198.125 4.83208C198.125 4.71129 198.028 4.5905 197.931 4.46972C198.319 4.22814 199.094 4.22814 199.191 3.86578C199.191 3.86578 198.997 3.86578 198.9 3.86578C197.931 3.50342 196.866 3.745 195.8 3.745C194.637 3.745 193.572 3.745 192.409 3.745C191.634 3.745 190.859 3.62421 190.181 3.50342C190.181 3.50342 189.987 3.50342 189.89 3.50342C189.89 3.50342 188.049 3.50342 188.727 2.65792C187.08 1.81241 185.046 1.69163 183.011 1.57084C182.527 1.57084 182.043 1.57084 181.655 1.57084C179.814 1.57084 178.167 0.84612 176.326 1.20848C175.455 1.20848 174.679 0.725334 173.711 0.966907C173.129 0.966907 172.548 0.84612 172.161 1.08769C172.064 1.08769 171.967 1.08769 171.773 1.08769C171.095 0.725334 170.32 0.84612 169.545 0.84612C169.351 0.84612 169.06 0.84612 168.867 0.84612C167.316 0.483761 165.573 0.725334 163.926 0.483761C163.15 0.362974 162.472 0.483761 161.697 0.483761C160.825 0.483761 159.953 0.483761 159.081 0.483761C158.985 0.483761 158.791 0.483761 158.694 0.483761C157.822 0.483761 157.047 0.483761 156.175 0.483761C153.656 0.483761 151.137 0.483761 148.618 0.483761C148.521 0.483761 148.327 0.483761 148.231 0.483761C147.455 0.483761 146.68 0.483761 145.905 0.483761C145.905 0.483761 145.905 0.604547 145.905 0.725334C145.905 0.725334 145.905 0.604547 145.905 0.483761C145.712 0.483761 145.615 0.483761 145.421 0.483761C144.937 0.242188 144.258 0.242188 143.677 0.242188C140.577 0.242188 137.38 0.242188 134.279 0.242188C134.086 0.242188 134.086 0.362974 134.279 0.483761C137.38 0.483761 140.577 0.483761 143.677 0.483761C139.317 0.483761 134.861 0.483761 130.501 0.483761V0.604547H130.404C130.404 0.604547 130.404 0.725334 130.404 0.84612C130.404 0.84612 130.501 0.725334 130.404 0.604547C130.404 0.604547 130.404 0.604547 130.404 0.483761C130.017 0.483761 129.629 0.483761 129.242 0.483761C127.595 0.483761 125.851 0.362974 124.204 0.604547C124.204 0.604547 124.204 0.604547 124.107 0.604547C124.107 0.604547 123.913 0.604547 123.816 0.604547C123.041 0.483761 122.363 0.604547 121.588 0.604547C117.616 0.604547 113.644 0.604547 109.671 0.84612C108.509 0.84612 107.249 0.84612 106.087 0.84612C105.796 0.84612 105.602 0.84612 105.312 0.84612C105.699 0.84612 106.087 0.604547 106.474 0.604547C105.893 0.604547 105.312 0.362974 104.924 0.604547C104.149 0.604547 103.471 0.604547 102.696 0.604547C102.211 0.604547 101.824 0.604547 101.533 0.84612C99.7893 0.84612 98.0454 0.604547 96.3984 0.966907C96.3984 0.966907 96.3015 0.966907 96.2047 0.966907C92.5231 0.966907 88.7447 0.966907 85.0632 0.966907C84.7725 0.966907 84.5788 0.966907 84.2881 0.966907C80.8972 0.966907 77.5063 0.966907 74.1155 0.966907C71.984 0.966907 69.9495 1.08769 67.8181 1.20848C67.5274 1.20848 67.3337 1.20848 67.043 1.20848C65.8804 1.20848 64.8147 1.20848 63.6521 1.20848C62.2958 1.20848 60.8425 1.20848 59.4862 1.20848C58.9049 1.20848 58.2267 1.20848 57.6454 1.20848C56.8704 1.20848 56.0953 1.20848 55.4171 1.20848C55.1265 1.20848 54.9327 1.20848 54.6421 1.20848C53.5764 1.20848 52.5107 1.20848 51.3481 1.20848C50.0886 0.966907 48.8291 0.966907 47.4728 1.08769C46.5039 1.08769 45.5351 1.08769 44.5663 1.08769C43.6943 0.84612 42.7255 0.84612 41.8536 0.966907C41.4661 0.966907 41.1754 0.966907 40.7879 0.966907C39.044 0.604547 37.3001 0.84612 35.5562 0.725334C34.4905 0.362974 33.3279 0.725334 32.2622 0.483761C31.6809 0.242188 31.1965 0.121401 31.0027 0.725334C30.3246 1.20848 30.4214 1.9332 29.6464 2.41634C28.8713 2.89949 28.8713 3.38264 29.3557 3.98657C29.3557 3.98657 29.3557 3.98657 29.5495 4.10736C29.937 4.46972 30.3246 4.83208 30.6152 5.19443C29.3557 5.19443 28.6776 5.55679 27.9025 6.03994C27.515 6.03994 27.3212 6.28151 27.2243 6.4023C27.2243 6.4023 26.643 6.4023 26.5461 6.64387C25.9648 6.76466 24.996 6.4023 24.7054 7.00623C24.7054 7.00623 24.7054 7.00623 24.6085 7.00623C24.0272 7.00623 23.4459 7.00623 22.8646 7.00623C22.2833 6.76466 21.7989 6.76466 20.927 6.76466C21.6051 7.12702 22.1864 7.24781 22.8646 7.24781C23.0584 7.24781 23.349 7.36859 23.5428 7.48938C23.4459 8.09331 23.349 8.57646 23.2521 9.18039C23.2521 9.18039 23.4459 9.18039 23.5428 9.30118C23.5428 9.30118 23.2521 9.30118 23.0584 9.30118C22.6708 9.30118 22.2833 9.30118 21.9927 9.30118C21.5083 9.30118 21.0238 9.42196 20.4425 9.54275C18.8924 9.78432 17.1485 9.90511 15.8891 10.6298C14.8234 10.7506 14.1452 11.3545 13.0795 11.5961C13.8545 11.8377 14.2421 11.4753 14.8234 11.5961C14.9202 11.5961 15.114 11.7169 15.2109 11.8377C15.2109 11.8377 14.6296 12.2001 14.4358 12.4416C13.3701 12.5624 12.7888 13.0456 12.1107 13.5287C11.7231 13.6495 11.4325 13.8911 11.4325 14.1326C11.6262 14.9781 9.88235 15.2197 9.78547 16.0652C10.2699 15.8236 10.6574 15.7029 11.0449 15.5821C11.0449 15.5821 11.0449 15.7029 11.0449 15.8236C10.7543 16.0652 10.5605 16.186 10.2699 16.4276C10.6574 16.7899 10.4637 17.1523 9.88236 17.5147C9.49483 17.6354 9.1073 17.877 8.81665 17.9978C8.526 17.9978 8.23535 17.9978 8.04159 18.2394C6.39459 18.8433 6.39459 18.8433 8.33223 19.568C8.33223 19.568 8.33223 19.8096 8.33223 19.9304C6.879 19.9304 5.61953 20.2927 4.36005 20.6551C3.68188 20.8967 3.97252 21.0175 4.55382 21.0175C4.26317 21.6214 3.29435 21.6214 2.61617 21.863C2.22864 22.1045 1.74423 22.2253 1.25981 22.4669C1.93799 22.4669 2.51929 22.4669 3.10058 22.4669C3.39123 22.7085 3.29435 22.8293 2.71305 22.8293C1.93799 22.8293 1.25981 22.8293 0.290989 22.8293C1.93799 23.554 3.48811 22.9501 4.94135 23.0708C5.71641 23.4332 6.39458 23.9163 7.55717 23.6748C8.23535 23.7956 8.91353 23.6748 9.59171 23.6748C9.78547 23.9163 9.97924 24.0371 10.173 24.2787C10.2699 24.3995 10.5605 24.5203 10.6574 24.6411C11.1418 24.8826 11.6262 25.0034 12.1107 25.245C11.82 25.3658 11.6262 25.4866 11.3356 25.6074C10.7543 25.6074 10.173 25.7281 9.68859 26.0905C9.20418 26.3321 8.62288 26.5736 8.71977 26.936V27.1776C7.94471 27.1776 7.07276 27.1776 6.879 27.7815C6.879 28.0231 7.07276 28.1439 7.16965 28.3854C6.58835 28.3854 6.00706 28.1439 5.61953 28.627C5.232 29.1102 4.74758 29.4725 4.26317 29.8349C3.77876 30.0765 3.29435 30.1972 2.71305 30.4388C2.71305 30.4388 2.32552 31.5259 1.55046 31.8883C1.16293 31.8883 0.581636 31.7675 0.290989 32.009C0.0972237 32.2506 0.581636 32.2506 0.775401 32.2506C1.3567 32.2506 2.03487 32.3714 2.61617 32.4922C2.61617 32.7338 2.61617 32.9753 2.61617 33.0961C2.51929 33.2169 2.32552 33.3377 2.22864 33.4585C2.22864 33.4585 2.22864 33.5793 2.22864 33.7001C1.84111 33.7001 1.45358 33.4585 0.969166 33.7001C1.16293 33.9416 1.45358 34.0624 1.84111 34.1832C2.03487 34.4248 2.4224 34.6663 2.90682 34.7871C2.71305 35.2703 3.97252 35.3911 3.68188 35.8742C3.19746 35.8742 3.0037 35.3911 2.22864 35.3911C2.4224 35.7534 2.80993 35.8742 3.29435 36.1158C3.58499 36.3574 3.68188 36.5989 4.26317 36.5989C4.26317 36.4781 4.06941 36.2366 4.06941 36.1158C4.55382 36.1158 5.03823 36.1158 5.52264 36.1158C5.91017 36.2366 6.2977 36.3574 6.68523 36.5989C6.68523 36.5989 6.78211 36.7197 6.879 36.8405C6.58835 36.8405 6.20082 36.9613 5.91017 37.0821C5.03823 37.0821 5.91017 37.5652 5.61953 37.686C4.94135 37.686 4.55382 38.0484 4.06941 38.2899C3.39123 38.2899 2.51929 38.1692 1.74423 38.6523C2.71305 38.6523 3.48811 38.6523 4.16629 38.6523C4.16629 38.7731 4.26317 38.8939 4.36005 39.0147C4.55382 39.0147 4.6507 39.1354 4.84447 39.2562C4.84447 39.2562 4.74758 38.8939 4.36005 39.0147C3.97252 39.2562 3.19746 39.2562 3.10058 39.6186C3.10058 39.6186 3.29435 39.6186 3.39123 39.6186C4.36005 39.981 5.42576 39.7394 6.49147 39.7394C7.65406 39.7394 8.71977 39.7394 9.88236 39.7394C10.6574 39.7394 11.4325 39.8602 12.1107 39.9809C12.1107 39.9809 12.3044 39.9809 12.4013 39.9809C12.4013 39.9809 14.2421 39.981 13.5639 40.8265C15.2109 41.672 17.2454 41.7927 19.28 41.9135C19.7644 41.9135 20.2488 41.9135 20.6363 41.9135C22.4771 41.9135 24.1241 42.6383 25.9648 42.2759C26.8368 42.2759 27.6119 42.759 28.5807 42.5175C29.162 42.5175 29.7433 42.6383 30.1308 42.3967C30.2277 42.3967 30.3246 42.3967 30.5183 42.3967C31.1965 42.759 31.9716 42.759 32.7466 42.6383C32.9404 42.6383 33.231 42.6383 33.4248 42.6383C34.9749 43.0006 36.7188 42.759 38.3658 43.0006C39.1409 43.1214 39.819 43.0006 40.5941 43.0006C41.466 43.0006 42.338 43.0006 43.2099 43.0006C43.3068 43.0006 43.5006 43.0006 43.5975 43.0006C44.4694 43.0006 45.2445 43.0006 46.1164 43.0006C48.6354 43.0006 51.1543 43.0006 53.6732 43.0006C53.7701 43.0006 53.9639 43.0006 54.0608 43.0006C54.8358 43.0006 55.6109 43.0006 56.386 43.0006C56.386 43.0006 56.386 42.8798 56.386 42.759C56.386 42.759 56.386 42.8798 56.386 43.0006C56.5797 43.0006 56.6766 43.0006 56.8704 43.0006C57.3548 43.2422 58.033 43.2422 58.6143 43.2422C61.7145 43.2422 64.9116 43.2422 68.0119 43.2422C68.2056 43.2422 68.2056 43.1214 68.0119 43.0006C64.9116 43.0006 61.7145 43.0006 58.6143 43.0006C62.974 43.0006 67.4306 43.0006 71.7903 43.0006V42.8798H71.8871C71.8871 42.8798 71.8871 42.759 71.8871 42.6383C71.8871 42.6383 71.7903 42.759 71.8871 42.8798C71.8871 42.8798 71.8871 42.8798 71.8871 43.0006C72.2747 43.0006 72.6622 43.0006 73.0497 43.0006C74.6967 43.0006 76.4406 43.1214 78.0876 42.8798C78.0876 42.8798 78.0876 42.8798 78.1845 42.8798C78.1845 42.8798 78.3783 42.8798 78.4752 42.8798C79.2502 43.0006 79.9284 42.8798 80.7035 42.8798C84.6756 42.8798 88.6478 42.8798 92.62 42.6383C93.7826 42.6383 95.0421 42.6383 96.2047 42.6383C96.4953 42.6383 96.6891 42.6383 96.9797 42.6383C96.5922 42.6383 96.2047 42.8798 95.8171 42.8798C96.3984 42.8798 96.9797 43.1214 97.3673 42.8798C98.1423 42.8798 98.8205 42.8798 99.5955 42.8798C99.6924 42.8798 99.6924 42.759 99.5955 42.6383C99.5955 42.6383 99.5955 42.759 99.5955 42.8798C100.08 42.8798 100.467 42.8798 100.758 42.6383C102.502 42.6383 104.343 42.8798 106.087 42.5175C109.768 42.5175 113.547 42.5175 117.228 42.5175C117.519 42.5175 117.713 42.5175 118.003 42.5175C121.394 42.5175 124.785 42.5175 128.176 42.5175C130.307 42.5175 132.342 42.3967 134.473 42.2759C134.764 42.2759 134.958 42.2759 135.248 42.2759C136.411 42.2759 137.477 42.2759 138.639 42.2759H142.805C143.386 42.2759 144.065 42.2759 144.646 42.2759C145.421 42.2759 146.196 42.2759 146.874 42.2759C147.165 42.2759 147.359 42.2759 147.649 42.2759H150.943C152.203 42.5175 153.462 42.5175 154.722 42.3967C155.691 42.3967 156.659 42.3967 157.628 42.3967C158.5 42.6383 159.469 42.5175 160.341 42.5175C160.728 42.5175 161.019 42.5175 161.407 42.5175C163.15 42.8798 164.894 42.6383 166.638 42.759C167.704 43.1214 168.867 42.759 169.932 43.0006C170.514 43.2422 170.998 43.363 171.192 42.759C171.87 42.2759 171.773 41.5512 172.548 41.068C173.323 40.5849 173.323 40.1017 172.839 39.4978C172.839 39.4978 172.839 39.4978 172.645 39.377C172.257 39.0147 171.87 38.6523 171.579 38.2899C172.839 38.2899 173.517 37.9276 174.292 37.4444C174.679 37.4444 174.873 37.2029 174.97 37.0821C174.97 37.0821 175.551 37.0821 175.648 36.8405C176.23 36.7197 177.198 37.0821 177.489 36.4781C177.489 36.4781 177.489 36.4781 177.586 36.4781C178.167 36.4781 178.749 36.4781 179.33 36.4781C179.911 36.7197 180.396 36.7197 181.267 36.7197C180.589 36.3574 180.008 36.2366 179.33 36.2366C179.136 36.2366 178.845 36.1158 178.652 35.995C178.749 35.3911 178.845 34.9079 178.942 34.304C178.942 34.304 178.749 34.304 178.652 34.1832C178.652 34.1832 178.942 34.1832 179.136 34.1832H180.202C180.686 34.1832 181.171 34.0624 181.752 33.9416C183.302 33.7001 185.046 33.5793 186.305 32.8545C187.371 32.7338 188.049 32.1298 189.115 31.8883C188.34 31.6467 187.952 32.009 187.371 31.8883L186.984 31.6467C186.984 31.6467 187.565 31.2843 187.759 31.0427C188.824 30.922 189.406 30.4388 190.084 29.9557C190.084 29.9557 190.762 29.5933 190.762 29.3517C190.568 28.5062 192.312 28.2647 192.409 27.4192C191.925 27.6607 191.537 27.7815 191.149 27.9023C191.149 27.9023 191.149 27.7815 191.149 27.6607C191.44 27.4192 191.634 27.2984 191.925 27.0568C191.537 26.6944 191.731 26.3321 192.312 25.9697C192.7 25.8489 193.087 25.6074 193.378 25.4866C193.668 25.4866 193.959 25.4866 194.153 25.245C195.8 24.6411 195.8 24.6411 193.862 23.9163C193.862 23.9163 193.862 23.6748 193.862 23.554C195.315 23.554 196.575 23.1916 197.834 22.8293C198.513 22.5877 198.222 22.4669 197.641 22.4669C197.931 21.863 198.9 21.863 199.578 21.6214C199.966 21.3798 200.45 21.259 200.935 21.0175C200.256 21.0175 199.675 21.0175 199.094 21.0175C198.803 20.7759 198.9 20.6551 199.481 20.6551L199.578 20.5343ZM127.401 41.5512C127.401 41.5512 127.401 41.5512 127.498 41.5512C127.498 41.5512 127.498 41.5512 127.401 41.5512ZM4.74758 39.2562C4.74758 39.2562 4.6507 39.2562 4.55382 39.2562C4.55382 39.2562 4.6507 39.2562 4.74758 39.2562ZM74.5999 1.45005C74.5999 1.45005 74.5999 1.45005 74.503 1.45005C74.503 1.45005 74.503 1.45005 74.5999 1.45005ZM41.9505 5.55679C41.9505 5.55679 41.7567 5.55679 41.6598 5.55679C41.6598 5.55679 41.8536 5.55679 41.9505 5.55679ZM160.05 37.4444C160.05 37.4444 160.244 37.4444 160.341 37.4444C160.341 37.4444 160.147 37.4444 160.05 37.4444ZM57.2579 3.86578H57.5485C57.5485 3.86578 57.5485 3.86578 57.4517 3.86578C57.4517 3.86578 57.3548 3.86578 57.2579 3.86578ZM59.2924 3.62421C59.4862 3.62421 59.1955 3.50342 59.2924 3.62421ZM43.8881 3.745C43.8881 3.745 43.8881 3.745 43.7912 3.745C43.7912 3.745 43.8881 3.745 43.985 3.745H43.8881ZM13.7577 19.9304C13.7577 19.9304 13.6608 19.9304 13.5639 19.9304C13.5639 19.9304 13.5639 19.9304 13.6608 19.9304H13.7577ZM144.743 39.2562H144.452C144.452 39.2562 144.452 39.2562 144.549 39.2562C144.549 39.2562 144.646 39.2562 144.743 39.2562ZM142.708 39.377C142.805 39.4978 142.514 39.377 142.708 39.377ZM158.113 39.2562C158.113 39.2562 158.113 39.2562 158.209 39.2562C158.209 39.2562 158.113 39.2562 158.016 39.2562H158.113ZM188.34 23.0708C188.34 23.0708 188.437 23.0708 188.534 23.0708C188.534 23.0708 188.534 23.0708 188.437 23.0708H188.34ZM49.0229 2.7787C49.0229 2.7787 49.1198 2.7787 49.2166 2.7787H49.0229ZM153.075 40.2225C153.075 40.2225 152.978 40.2225 152.881 40.2225H153.075ZM168.382 2.05399C168.382 2.05399 167.995 2.05399 167.898 2.05399C167.898 2.05399 168.188 2.05399 168.382 2.05399ZM160.341 1.32927C160.341 1.32927 160.535 1.32927 160.728 1.45005C160.632 1.45005 160.438 1.45005 160.341 1.32927ZM33.6186 40.9472C33.6186 40.9472 34.0061 40.9472 34.103 40.9472C34.103 40.9472 33.8123 40.9472 33.6186 40.9472ZM41.6598 41.672C41.6598 41.672 41.3692 41.672 41.2723 41.5512C41.3692 41.5512 41.5629 41.5512 41.6598 41.672ZM186.693 18.7225C186.693 18.7225 186.79 18.7225 186.887 18.7225H186.79H186.693ZM142.514 1.32927H142.611H142.418H142.514ZM72.7591 1.9332C72.7591 1.9332 72.6622 1.9332 72.5653 1.9332C72.5653 1.9332 72.5653 1.9332 72.6622 1.9332H72.7591ZM30.1308 8.45567C30.1308 8.45567 29.8401 8.45567 29.7433 8.45567C29.7433 8.45567 30.0339 8.45567 30.1308 8.45567ZM15.2109 24.3995H15.3078C15.3078 24.3995 15.2109 24.3995 15.114 24.3995H15.2109ZM59.5831 41.7927H59.4862H59.68H59.5831ZM47.5696 1.08769C47.5696 1.08769 47.5696 1.08769 47.6665 1.08769H47.5696ZM129.242 41.1888C129.242 41.1888 129.338 41.1888 129.435 41.1888C129.435 41.1888 129.435 41.1888 129.338 41.1888H129.242ZM154.431 41.9135C154.431 41.9135 154.431 41.9135 154.334 41.9135H154.431ZM197.253 20.4135C197.253 20.4135 197.253 20.4135 197.253 20.5343V20.4135ZM97.0766 1.32927C97.0766 1.32927 97.0766 1.20848 97.0766 1.08769H96.9797C96.9797 1.08769 96.9797 1.08769 97.0766 1.08769C97.0766 1.08769 97.0766 1.20848 97.0766 1.32927ZM72.1778 1.32927C72.1778 1.32927 72.1778 1.32927 72.0809 1.32927C72.0809 1.32927 72.0809 1.32927 71.984 1.32927C71.984 1.32927 72.0809 1.32927 72.1778 1.32927ZM71.0152 1.32927C71.0152 1.32927 71.0152 1.32927 71.1121 1.32927C71.1121 1.32927 71.0152 1.32927 70.9183 1.32927H71.0152ZM39.6253 0.725334C39.6253 0.725334 39.6253 0.725334 39.7222 0.725334H39.6253ZM4.84447 22.7085C4.84447 22.7085 4.84447 22.7085 4.84447 22.5877V22.7085ZM105.021 42.0343C105.021 42.0343 105.021 41.9135 105.021 41.7927C105.021 41.7927 105.021 41.9135 105.021 42.0343H105.118C105.118 42.0343 105.118 42.0343 105.021 42.0343ZM130.114 41.7927C130.114 41.7927 130.017 41.7927 129.92 41.7927C129.92 41.7927 129.92 41.7927 130.017 41.7927C130.017 41.7927 130.017 41.7927 130.114 41.7927C130.404 41.7927 130.598 41.7927 130.889 41.7927C130.889 41.7927 130.985 41.7927 131.082 41.7927C131.082 41.7927 131.082 41.7927 130.985 41.7927C130.695 41.672 130.501 41.672 130.21 41.7927H130.114ZM162.375 42.2759C162.375 42.2759 162.375 42.2759 162.279 42.2759H162.375Z" fill="#81C573"/>
<path d="M194.443 27.418C193.474 27.6595 192.602 28.0219 192.215 28.505C192.893 28.1427 193.668 27.7803 194.443 27.418Z" fill="#FBB03B"/>
<path d="M197.641 17.7566C197.641 17.7566 197.835 17.6358 197.835 17.515C197.835 17.3942 197.835 17.2734 197.447 17.2734C197.254 17.2734 197.06 17.3942 196.963 17.515C196.963 17.515 196.963 17.6358 197.544 17.7566H197.641Z" fill="#FBB03B"/>
<path d="M77.6016 42.9997C78.3766 42.9997 78.861 42.9997 79.6361 42.8789C78.861 42.8789 78.3766 42.8789 77.6016 42.9997Z" fill="#FBB03B"/>
<path d="M67.7207 42.9994C68.4958 42.9994 69.2708 42.9994 69.949 42.9994H72.1773C72.1773 42.9994 72.1773 42.8786 72.1773 42.7578H69.949C69.1739 42.7578 68.3989 42.7578 67.7207 42.7578V42.9994Z" fill="#FBB03B"/>
<path d="M199.868 3.26172C199.383 3.26172 199.286 3.38251 199.189 3.62408C199.48 3.62408 199.965 3.62408 200.158 3.50329C200.158 3.50329 199.965 3.26172 199.868 3.26172Z" fill="#FBB03B"/>
<path d="M7.65234 15.5812C8.62117 15.3396 9.49311 14.9773 9.88064 14.4941C9.20246 14.8565 8.4274 15.2189 7.65234 15.5812Z" fill="#FBB03B"/>
<path d="M4.35978 25.2441C4.35978 25.2441 4.16602 25.3649 4.16602 25.4857C4.16602 25.6065 4.16602 25.7273 4.55355 25.7273C4.74731 25.7273 4.94108 25.6065 5.03796 25.4857C5.03796 25.4857 5.03796 25.3649 4.45666 25.2441H4.35978Z" fill="#FBB03B"/>
<path d="M131.955 0.241573C132.73 0.241573 133.505 0.241573 134.183 0.241573V0C133.408 0 132.633 0 131.955 0H129.727C129.727 0 129.727 0.120787 129.727 0.241573H131.955Z" fill="#FBB03B"/>
<path d="M124.398 0C123.623 0 123.138 0 122.363 0.120787C123.138 0.120787 123.623 0.120787 124.398 0Z" fill="#FBB03B"/>
<path d="M2.22815 39.7393C2.71256 39.7393 2.80944 39.6185 2.90632 39.377C2.61568 39.377 2.13126 39.377 1.9375 39.4977C1.9375 39.4977 2.13126 39.7393 2.22815 39.7393Z" fill="#FBB03B"/>
</g>
<defs>
<clipPath id="clip0_2258_17545">
<rect width="202" height="43" fill="white"/>
</clipPath>
</defs>
</svg>
