<svg width="1440" height="45" viewBox="0 0 1440 45" fill="none" xmlns="http://www.w3.org/2000/svg">
<path fill-rule="evenodd" clip-rule="evenodd" d="M1425.18 29.493C1421.58 29.343 1421.51 31.008 1417.91 30.858C1414.31 30.708 1414.32 30.479 1410.72 30.329C1407.13 30.18 1407.1 30.709 1403.51 30.559C1399.91 30.409 1399.93 29.863 1396.33 29.713C1392.74 29.563 1392.74 29.412 1389.14 29.262C1385.55 29.112 1385.6 27.778 1382 27.628C1378.41 27.478 1378.31 29.677 1374.71 29.527C1371.12 29.377 1371.21 27.205 1367.61 27.055C1364.01 26.905 1363.94 28.499 1360.35 28.349C1356.75 28.199 1356.8 26.832 1353.2 26.682C1349.61 26.532 1349.53 28.445 1345.93 28.295C1342.33 28.145 1342.35 27.551 1338.75 27.401C1335.15 27.251 1335.2 26.058 1331.6 25.908C1328 25.758 1327.93 27.61 1324.33 27.46C1320.73 27.31 1320.77 26.383 1317.17 26.233C1313.57 26.083 1313.61 25.181 1310.01 25.031C1306.41 24.881 1306.41 24.962 1302.81 24.812C1299.21 24.662 1299.14 26.412 1295.54 26.262C1291.94 26.112 1291.99 24.778 1288.4 24.628C1284.8 24.478 1284.81 24.289 1281.21 24.139C1277.61 23.989 1277.63 23.583 1274.03 23.433C1270.43 23.283 1270.44 22.953 1266.84 22.803C1263.25 22.653 1263.18 24.192 1259.58 24.042C1255.99 23.892 1256.01 23.265 1252.41 23.115C1248.81 22.965 1248.84 22.447 1245.24 22.297C1241.64 22.147 1241.63 22.258 1238.04 22.108C1234.44 21.958 1234.39 23.054 1230.79 22.904C1227.19 22.754 1227.17 23.254 1223.57 23.104C1219.97 22.954 1219.99 22.589 1216.39 22.439C1212.79 22.289 1212.84 20.946 1209.24 20.796C1205.65 20.646 1205.57 22.311 1201.98 22.161C1198.38 22.011 1198.46 20.06 1194.86 19.91C1191.26 19.76 1191.26 19.861 1187.66 19.711C1184.06 19.561 1183.98 21.563 1180.38 21.413C1176.78 21.263 1176.87 19.086 1173.27 18.936C1169.67 18.786 1169.62 20.168 1166.02 20.019C1162.42 19.869 1162.45 19.002 1158.86 18.852C1155.26 18.702 1155.27 18.492 1151.67 18.343C1148.07 18.193 1148.02 19.481 1144.42 19.331C1140.82 19.181 1140.81 19.265 1137.21 19.115C1133.61 18.965 1133.62 18.756 1130.02 18.606C1126.42 18.456 1126.46 17.535 1122.86 17.385C1119.26 17.235 1119.29 16.652 1115.69 16.502C1112.09 16.352 1112 18.538 1108.4 18.387C1104.8 18.238 1104.84 17.196 1101.24 17.046C1097.64 16.896 1097.66 16.561 1094.06 16.411C1090.46 16.261 1090.42 17.238 1086.82 17.088C1083.22 16.938 1083.21 17.141 1079.61 16.991C1076.02 16.841 1076.05 16.156 1072.45 16.006C1068.85 15.856 1068.83 16.225 1065.23 16.075C1061.64 15.925 1061.62 16.226 1058.02 16.076C1054.42 15.926 1054.48 14.68 1050.88 14.53C1047.28 14.38 1047.29 14.051 1043.69 13.901C1040.09 13.751 1040.1 13.492 1036.5 13.342C1032.9 13.192 1032.83 14.839 1029.23 14.689C1025.64 14.539 1025.71 12.724 1022.11 12.574C1018.51 12.424 1018.43 14.374 1014.83 14.224C1011.23 14.074 1011.3 12.414 1007.7 12.264C1004.1 12.114 1004.03 13.781 1000.43 13.631C996.836 13.481 996.882 12.394 993.283 12.244C989.684 12.094 989.709 11.492 986.11 11.342C982.511 11.192 982.485 11.82 978.886 11.67C975.286 11.52 975.269 11.943 971.67 11.793C968.07 11.644 968.104 10.831 964.504 10.681C960.904 10.531 960.886 10.964 957.286 10.814C953.686 10.664 953.661 11.262 950.061 11.112C946.462 10.962 946.516 9.669 942.916 9.519C939.317 9.369 939.303 9.71 935.704 9.56C932.105 9.41 932.114 9.181 928.515 9.031C924.916 8.881 924.924 8.697 921.325 8.547C917.726 8.397 917.664 9.867 914.065 9.717C910.466 9.567 910.503 8.676 906.904 8.526C903.305 8.376 903.322 7.956 899.723 7.806C896.123 7.656 896.099 8.225 892.499 8.075C888.899 7.925 888.848 9.144 885.248 8.994C881.648 8.844 881.668 8.38 878.068 8.23C874.469 8.08 874.502 7.28 870.903 7.13C867.303 6.98 867.313 6.748 863.714 6.598C860.115 6.448 860.101 6.787 856.501 6.637C852.902 6.487 852.86 7.509 849.26 7.359C845.661 7.209 845.718 5.841 842.119 5.691C838.519 5.541 838.52 5.519 834.92 5.369C831.32 5.219 831.315 5.345 827.715 5.195C824.115 5.046 824.131 4.658 820.531 4.508C816.931 4.358 816.885 5.465 813.286 5.316C809.686 5.166 809.738 3.914 806.139 3.764C802.54 3.614 802.468 5.326 798.869 5.176C795.27 5.026 795.343 3.263 791.744 3.113C788.144 2.963 788.142 3.024 784.542 2.874C780.942 2.724 780.932 2.981 777.332 2.831C773.732 2.681 773.749 2.273 770.148 2.123C766.548 1.973 766.513 2.818 762.913 2.668C759.314 2.518 759.301 2.817 755.702 2.667C752.102 2.517 752.147 1.436 748.548 1.286C744.948 1.136 744.889 2.574 741.289 2.424C737.69 2.274 737.692 2.219 734.092 2.069C732.221 1.991 731.335 1.634 730.411 1.289C729.702 1.447 728.866 1.584 727.526 1.64C724.717 1.757 724.045 0.598 722.176 0.153C721.609 0.096 720.927 0.043 720 0C719.073 0.043 718.391 0.096 717.824 0.153C715.956 0.598 715.284 1.757 712.475 1.64C711.134 1.584 710.298 1.447 709.59 1.289C708.665 1.634 707.78 1.991 705.908 2.069C702.308 2.219 702.311 2.274 698.711 2.424C695.112 2.574 695.052 1.136 691.452 1.286C687.853 1.436 687.898 2.517 684.299 2.667C680.699 2.817 680.687 2.518 677.087 2.668C673.487 2.818 673.452 1.973 669.852 2.123C666.252 2.273 666.269 2.681 662.668 2.831C659.069 2.981 659.058 2.724 655.458 2.874C651.859 3.024 651.856 2.963 648.257 3.113C644.657 3.263 644.731 5.026 641.131 5.176C637.532 5.326 637.461 3.614 633.861 3.764C630.262 3.914 630.314 5.166 626.715 5.316C623.115 5.465 623.069 4.358 619.469 4.508C615.869 4.658 615.886 5.046 612.286 5.195C608.686 5.345 608.68 5.219 605.08 5.369C601.481 5.519 601.481 5.541 597.882 5.691C594.282 5.841 594.339 7.209 590.74 7.359C587.141 7.509 587.098 6.487 583.499 6.637C579.9 6.787 579.886 6.448 576.286 6.598C572.687 6.748 572.697 6.98 569.098 7.13C565.498 7.28 565.532 8.08 561.932 8.23C558.333 8.38 558.352 8.844 554.752 8.994C551.152 9.144 551.101 7.925 547.501 8.075C543.901 8.225 543.878 7.656 540.278 7.806C536.678 7.956 536.696 8.376 533.096 8.526C529.497 8.676 529.534 9.567 525.935 9.717C522.336 9.867 522.275 8.397 518.676 8.547C515.077 8.697 515.084 8.881 511.485 9.031C507.886 9.181 507.896 9.41 504.297 9.56C500.697 9.71 500.683 9.369 497.084 9.519C493.485 9.669 493.538 10.962 489.939 11.112C486.339 11.262 486.314 10.664 482.714 10.814C479.114 10.964 479.096 10.531 475.496 10.681C471.897 10.831 471.93 11.644 468.331 11.793C464.732 11.943 464.714 11.52 461.115 11.67C457.516 11.82 457.489 11.192 453.89 11.342C450.291 11.492 450.317 12.094 446.718 12.244C443.119 12.394 443.164 13.481 439.565 13.631C435.966 13.781 435.897 12.114 432.298 12.264C428.699 12.414 428.768 14.074 425.169 14.224C421.57 14.374 421.489 12.424 417.89 12.574C414.29 12.724 414.366 14.539 410.766 14.689C407.166 14.839 407.098 13.192 403.498 13.342C399.898 13.492 399.909 13.751 396.309 13.901C392.709 14.051 392.723 14.38 389.124 14.53C385.524 14.68 385.576 15.926 381.977 16.076C378.378 16.226 378.366 15.925 374.767 16.075C371.168 16.225 371.153 15.856 367.554 16.006C363.955 16.156 363.984 16.841 360.385 16.991C356.786 17.141 356.778 16.938 353.179 17.088C349.581 17.238 349.54 16.261 345.941 16.411C342.342 16.561 342.356 16.896 338.757 17.046C335.158 17.196 335.202 18.238 331.602 18.387C328.003 18.538 327.912 16.352 324.313 16.502C320.713 16.652 320.737 17.235 317.137 17.385C313.538 17.535 313.576 18.456 309.976 18.606C306.377 18.756 306.385 18.965 302.786 19.115C299.187 19.265 299.183 19.181 295.584 19.331C291.985 19.481 291.932 18.193 288.333 18.343C284.734 18.492 284.743 18.702 281.144 18.852C277.546 19.002 277.582 19.869 273.983 20.019C270.385 20.168 270.327 18.786 266.729 18.936C263.13 19.086 263.221 21.263 259.622 21.413C256.024 21.563 255.941 19.561 252.342 19.711C248.743 19.861 248.739 19.76 245.141 19.91C241.542 20.06 241.623 22.011 238.024 22.161C234.425 22.311 234.356 20.646 230.757 20.796C227.157 20.946 227.213 22.289 223.613 22.439C220.014 22.589 220.029 22.954 216.429 23.104C212.83 23.254 212.809 22.754 209.209 22.904C205.61 23.054 205.564 21.958 201.965 22.108C198.366 22.258 198.361 22.147 194.762 22.297C191.164 22.447 191.185 22.965 187.587 23.115C183.988 23.265 184.014 23.892 180.416 24.042C176.817 24.192 176.753 22.653 173.155 22.803C169.557 22.953 169.57 23.283 165.972 23.433C162.374 23.583 162.391 23.989 158.793 24.139C155.194 24.289 155.202 24.478 151.604 24.628C148.006 24.778 148.061 26.112 144.463 26.262C140.865 26.412 140.792 24.662 137.193 24.812C133.595 24.962 133.591 24.881 129.993 25.031C126.394 25.181 126.431 26.083 122.832 26.233C119.233 26.383 119.272 27.31 115.673 27.46C112.073 27.61 111.996 25.758 108.396 25.908C104.797 26.058 104.846 27.251 101.247 27.401C97.647 27.551 97.672 28.145 94.073 28.295C90.474 28.445 90.394 26.532 86.795 26.682C83.196 26.832 83.253 28.199 79.654 28.349C76.056 28.499 75.989 26.905 72.391 27.055C68.793 27.205 68.883 29.377 65.285 29.527C61.687 29.677 61.595 27.478 57.997 27.628C54.399 27.778 54.455 29.112 50.856 29.262C47.258 29.412 47.265 29.563 43.667 29.713C40.069 29.863 40.092 30.409 36.494 30.559C32.896 30.709 32.874 30.18 29.276 30.329C25.678 30.479 25.687 30.708 22.089 30.858C18.491 31.008 18.422 29.343 14.823 29.493C11.225 29.643 11.311 31.698 7.712 31.848C4.114 31.998 2.465 28.046 0 30.673L0 45H1440V30.673C1437.54 28.046 1435.89 31.998 1432.29 31.848C1428.69 31.698 1428.78 29.643 1425.18 29.493Z" fill="white"/>
</svg>
