<?xml version="1.0" encoding="utf-8"?>
<!-- Generator: Adobe Illustrator 27.8.1, SVG Export Plug-In . SVG Version: 6.00 Build 0)  -->
<svg version="1.1" id="Layer_1" xmlns="http://www.w3.org/2000/svg" xmlns:xlink="http://www.w3.org/1999/xlink" x="0px" y="0px"
	 viewBox="0 0 1440 32" style="enable-background:new 0 0 1440 32;" xml:space="preserve">
<style type="text/css">
	.st0{fill:#FFFFFF;filter:url(#Adobe_OpacityMaskFilter);}
	.st1{mask:url(#mask0_2_179_00000027573891993944601510000000419582854859106484_);}
	.st2{fill-rule:evenodd;clip-rule:evenodd;fill:#2A2627;}
</style>
<defs>
	<filter id="Adobe_OpacityMaskFilter" filterUnits="userSpaceOnUse" x="-7" y="0" width="1454" height="86">
		<feColorMatrix  type="matrix" values="1 0 0 0 0  0 1 0 0 0  0 0 1 0 0  0 0 0 1 0"/>
	</filter>
</defs>
<mask maskUnits="userSpaceOnUse" x="-7" y="0" width="1454" height="86" id="mask0_2_179_00000027573891993944601510000000419582854859106484_">
	<rect x="-7" class="st0" width="1454" height="32"/>
</mask>
<g class="st1">
	<path class="st2" d="M1447,60.5c-2.5-2.6-4.1,1.3-7.8,1.2c-3.6-0.2-3.6-2.2-7.2-2.4c-3.6-0.2-3.7,1.5-7.3,1.4s-3.6-0.4-7.3-0.5
		c-3.6-0.2-3.7,0.4-7.3,0.2c-3.6-0.2-3.6-0.7-7.2-0.8c-3.6-0.1-3.6-0.3-7.3-0.5c-3.6-0.2-3.6-1.5-7.2-1.6c-3.6-0.2-3.7,2.1-7.4,1.9
		c-3.6-0.2-3.5-2.3-7.2-2.5c-3.6-0.2-3.7,1.4-7.3,1.3c-3.6-0.2-3.6-1.5-7.2-1.7c-3.6-0.2-3.7,1.8-7.4,1.6c-3.6-0.2-3.6-0.7-7.2-0.9
		c-3.6-0.2-3.6-1.3-7.2-1.5c-3.6-0.2-3.7,1.7-7.3,1.6c-3.6-0.2-3.6-1.1-7.2-1.2c-3.6-0.2-3.6-1.1-7.2-1.2s-3.6-0.1-7.3-0.2
		s-3.7,1.6-7.3,1.5c-3.6-0.2-3.6-1.5-7.2-1.6c-3.6-0.1-3.6-0.3-7.3-0.5c-3.6-0.2-3.6-0.6-7.2-0.7s-3.6-0.5-7.2-0.6
		c-3.6-0.2-3.7,1.4-7.3,1.2c-3.6-0.2-3.6-0.8-7.2-0.9c-3.6-0.2-3.6-0.7-7.2-0.8c-3.6-0.2-3.6,0-7.3-0.2c-3.6-0.2-3.7,0.9-7.3,0.8
		c-3.6-0.2-3.7,0.4-7.3,0.2c-3.6-0.2-3.6-0.5-7.2-0.7c-3.6-0.2-3.6-1.5-7.2-1.6c-3.6-0.2-3.7,1.5-7.3,1.4c-3.6-0.2-3.6-2.1-7.2-2.3
		c-3.6-0.2-3.6,0-7.3-0.2c-3.6-0.1-3.7,1.9-7.4,1.7s-3.5-2.3-7.2-2.5c-3.6-0.2-3.7,1.2-7.3,1.1c-3.6-0.2-3.6-1-7.2-1.2
		c-3.6-0.2-3.6-0.4-7.3-0.5c-3.6-0.2-3.7,1.1-7.3,1c-3.6-0.2-3.6-0.1-7.3-0.2c-3.6-0.2-3.6-0.4-7.3-0.5c-3.6-0.2-3.6-1.1-7.2-1.2
		s-3.6-0.7-7.2-0.9c-3.6-0.2-3.7,2-7.4,1.9c-3.6-0.2-3.6-1.2-7.2-1.3c-3.6-0.2-3.6-0.5-7.2-0.6c-3.6-0.2-3.7,0.8-7.3,0.7
		c-3.6-0.2-3.6,0.1-7.3-0.1c-3.6-0.1-3.6-0.8-7.2-1c-3.6-0.2-3.7,0.2-7.3,0.1s-3.6,0.2-7.3,0c-3.6-0.2-3.6-1.4-7.2-1.5
		c-3.6-0.2-3.6-0.5-7.3-0.6c-3.6-0.2-3.6-0.4-7.3-0.6c-3.6-0.2-3.7,1.5-7.3,1.3c-3.6-0.2-3.6-2-7.2-2.1c-3.6-0.2-3.7,1.8-7.4,1.7
		s-3.6-1.8-7.2-2c-3.6-0.2-3.7,1.5-7.3,1.4c-3.6-0.2-3.6-1.2-7.2-1.4c-3.6-0.2-3.6-0.8-7.2-0.9c-3.6-0.2-3.7,0.5-7.3,0.3
		c-3.6-0.2-3.7,0.3-7.3,0.1c-3.6-0.2-3.6-1-7.2-1.1c-3.6-0.2-3.7,0.3-7.3,0.1c-3.6-0.2-3.7,0.4-7.3,0.3c-3.6-0.2-3.6-1.4-7.2-1.6
		c-3.6-0.2-3.6,0.2-7.3,0c-3.6-0.1-3.6-0.4-7.3-0.5c-3.6-0.2-3.6-0.3-7.3-0.5c-3.6-0.2-3.7,1.3-7.3,1.2c-3.6-0.2-3.6-1-7.2-1.2
		c-3.6-0.2-3.6-0.6-7.3-0.7c-3.6-0.2-3.7,0.4-7.3,0.3c-3.6-0.2-3.7,1.1-7.3,0.9c-3.6-0.2-3.6-0.6-7.2-0.8c-3.6-0.2-3.6-1-7.2-1.1
		c-3.6-0.2-3.6-0.4-7.3-0.5c-3.6-0.2-3.6,0.2-7.3,0s-3.7,0.9-7.3,0.7c-3.6-0.2-3.6-1.5-7.2-1.7c-3.6-0.2-3.6-0.2-7.3-0.3
		c-3.6-0.2-3.6,0-7.3-0.2c-3.6-0.2-3.6-0.5-7.3-0.7c-3.6-0.2-3.7,1-7.3,0.8c-3.6-0.2-3.6-1.4-7.2-1.6c-3.6-0.2-3.7,1.6-7.3,1.4
		c-3.6-0.2-3.6-1.9-7.2-2.1c-3.6-0.2-3.6-0.1-7.3-0.2s-3.6,0.1-7.3,0c-3.6-0.2-3.6-0.6-7.3-0.7c-3.6-0.2-3.7,0.7-7.3,0.5
		c-3.6-0.2-3.6,0.1-7.3,0c-3.6-0.2-3.6-1.2-7.2-1.4c-3.6-0.2-3.7,1.3-7.3,1.1c-3.6-0.2-3.6-0.2-7.3-0.4c-3.6-0.2-3.6-1.3-7.2-1.5
		c-3.6-0.2-3.6-0.5-7.3-0.6c-3.6-0.2-3.7,1.8-7.4,1.7c-3.6-0.2-3.6-0.9-7.2-1c-3.6-0.1-3.7,0.3-7.3,0.1c-3.6-0.2-3.6-0.7-7.2-0.8
		c-3.6-0.2-3.6-0.5-7.3-0.6c-3.6-0.2-3.7,0.3-7.3,0.2c-3.6-0.2-3.6,0.2-7.3,0.1c-3.6-0.2-3.6-1.5-7.2-1.6c-3.6-0.2-3.7,0.5-7.3,0.4
		c-3.6-0.2-3.6,0.1-7.3-0.1c-3.6-0.2-3.6,0.1-7.3,0c-3.6-0.2-3.6-0.1-7.3-0.2c-3.6-0.2-3.6-1.1-7.2-1.2c-3.6-0.1-3.6,0.1-7.3,0
		c-3.6-0.2-3.7,0.5-7.3,0.4c-3.6-0.1-3.6-1-7.2-1.2c-3.6-0.2-3.6-0.2-7.3-0.4c-3.6-0.2-3.7,0.7-7.3,0.6c-3.6-0.2-3.6-0.3-7.3-0.5
		c-3.6-0.1-3.7,0.9-7.3,0.7c-3.6-0.2-3.6-0.8-7.2-0.9c-3.6-0.2-3.7,0.5-7.3,0.3c-3.6-0.2-3.6-0.5-7.3-0.6c-3.6-0.2-3.6-2-7.2-2.2
		c-3.6-0.2-3.7,0.3-7.3,0.2c-3.6-0.2-3.7,1.2-7.3,1.1c-3.6-0.2-3.6-2.1-7.2-2.3c-3.6-0.2-3.7,1.8-7.3,1.7c-3.6-0.2-3.6-2-7.2-2.2
		c-3.6-0.2-3.7,1.3-7.3,1.2c-3.6-0.2-3.6-0.4-7.3-0.5c-3.6-0.2-3.6-1-7.2-1.2c-3.6-0.2-3.7,0.7-7.3,0.6s-3.6-1.1-7.2-1.2
		s-3.7,1-7.3,0.8c-3.6-0.2-3.6-0.4-7.3-0.6c-3.6-0.2-3.6-1.3-7.2-1.4c-3.6-0.2-3.7,0.6-7.3,0.5c-3.6-0.2-3.7,0.5-7.3,0.4
		c-3.6-0.2-3.6-1.7-7.2-1.8s-3.7,1.7-7.3,1.6c-3.6-0.2-3.6-0.7-7.2-0.8c-3.6-0.2-3.6-0.4-7.3-0.6c-3.6-0.2-3.7,1-7.3,0.8
		c-3.6-0.2-3.6-2-7.2-2.1c-3.6-0.2-3.7,1.5-7.3,1.3c-3.6-0.2-3.6,0.1-7.3,0c-3.6-0.2-3.6-1.3-7.2-1.4c-3.6-0.2-3.7,0.5-7.3,0.4
		c-3.6-0.2-3.6-1.2-7.2-1.4s-3.6-0.1-7.3-0.3c-3.6-0.2-3.6-0.5-7.3-0.7c-3.6-0.2-3.7,0.5-7.3,0.4c-3.6-0.2-3.6-0.3-7.3-0.5
		c-3.6-0.2-3.7,1.1-7.3,0.9c-3.6-0.2-3.6-1.8-7.2-2c-3.6-0.2-3.6-0.3-7.3-0.5c-3.6-0.2-3.7,0.4-7.3,0.2c-3.6-0.2-3.7,1.1-7.3,0.9
		c-3.6-0.2-3.6-0.1-7.3-0.3s-3.6-1-7.2-1.2c-3.6-0.2-3.7,0.5-7.3,0.4c-3.6-0.2-3.6-0.1-7.3-0.3c-3.6-0.2-3.6-1.2-7.2-1.3
		c-3.6-0.2-3.6-0.8-7.2-0.9c-3.6-0.2-3.7,0.8-7.3,0.7c-3.6-0.2-3.6-1.3-7.2-1.5c-3.6-0.2-3.7,1.8-7.4,1.6c-3.6-0.2-3.6-1.2-7.2-1.4
		c-3.6-0.2-3.6-0.8-7.2-1c-3.6-0.2-3.7,0.3-7.3,0.2c-3.6-0.2-3.7,0.6-7.3,0.4c-3.6-0.2-3.6-1.5-7.2-1.6c-3.6-0.2-3.7,1.9-7.4,1.7
		c-3.6-0.2-3.6-1.3-7.2-1.5c-3.6-0.2-3.6-1.1-7.2-1.3c-3.6-0.2-3.6,0-7.3-0.1c-3.6-0.2-3.7,1.8-7.4,1.7c-3.6-0.2-3.6-1.7-7.2-1.9
		c-3.6-0.2-3.7,0.5-7.3,0.4c-3.6-0.2-3.6-0.1-7.3-0.2c-3.6-0.2-3.6-0.3-7.3-0.5c-3.6-0.2-3.7,0.4-7.3,0.3c-3.6-0.2-3.6-0.7-7.3-0.8
		c-3.6-0.2-3.6-1-7.2-1.1c-3.6-0.2-3.6-0.3-7.3-0.5c-3.6-0.2-3.6-0.5-7.3-0.6C83.7,3.5,83.6,4.1,80,4c-3.6-0.2-3.7,1.4-7.3,1.3
		s-3.6-1.6-7.2-1.8c-3.6-0.2-3.6-0.9-7.2-1c-3.6-0.2-3.7,2-7.4,1.8c-3.6-0.2-3.6-1.7-7.2-1.8c-3.6-0.2-3.7,1.4-7.3,1.3
		c-3.6-0.2-3.6-0.1-7.3-0.2c-3.6-0.2-3.6-0.5-7.3-0.6c-3.6-0.2-3.6-1.9-7.2-2c-3.6-0.2-3.7,1.7-7.4,1.5C3.5,2.3,3.6,1.1-0.1,0.9
		C-3.7,0.8-4.3-1.3-7,1.2V86h1454V60.5z"/>
	<path class="st2" d="M-7,60.5c2.5-2.6,4.2,1.3,7.8,1.2s3.5-2.2,7.2-2.4s3.7,1.5,7.3,1.4s3.6-0.4,7.3-0.5c3.6-0.2,3.7,0.4,7.3,0.2
		c3.6-0.2,3.6-0.7,7.2-0.8c3.6-0.1,3.6-0.3,7.3-0.5s3.6-1.5,7.2-1.6c3.6-0.2,3.7,2.1,7.4,1.9c3.6-0.2,3.5-2.3,7.2-2.5
		c3.6-0.2,3.7,1.4,7.3,1.3c3.6-0.2,3.6-1.5,7.2-1.7c3.6-0.2,3.7,1.8,7.3,1.6c3.6-0.2,3.6-0.7,7.2-0.9c3.6-0.2,3.6-1.3,7.2-1.5
		s3.7,1.7,7.3,1.6c3.6-0.2,3.6-1.1,7.2-1.2c3.6-0.2,3.6-1.1,7.2-1.2c3.6-0.2,3.6-0.1,7.3-0.2c3.6-0.2,3.7,1.6,7.3,1.5
		c3.6-0.2,3.6-1.5,7.2-1.6c3.6-0.1,3.6-0.3,7.3-0.5c3.6-0.2,3.6-0.6,7.2-0.7c3.6-0.2,3.6-0.5,7.3-0.6c3.6-0.2,3.7,1.4,7.3,1.2
		c3.6-0.2,3.6-0.8,7.2-0.9c3.6-0.2,3.6-0.7,7.2-0.8c3.6-0.2,3.6,0,7.3-0.2c3.6-0.2,3.7,0.9,7.3,0.8s3.7,0.4,7.3,0.2s3.6-0.5,7.3-0.7
		c3.6-0.2,3.6-1.5,7.2-1.6c3.6-0.2,3.7,1.5,7.3,1.4s3.6-2.1,7.2-2.3c3.6-0.2,3.6,0,7.3-0.2c3.6-0.1,3.7,1.9,7.4,1.7
		c3.6-0.2,3.5-2.3,7.2-2.5c3.6-0.2,3.7,1.2,7.3,1.1c3.6-0.2,3.6-1,7.2-1.2c3.6-0.2,3.6-0.4,7.3-0.5c3.6-0.2,3.7,1.1,7.3,1
		s3.6-0.1,7.3-0.2c3.6-0.2,3.6-0.4,7.3-0.5c3.6-0.2,3.6-1.1,7.2-1.2s3.6-0.7,7.2-0.9c3.6-0.2,3.7,2,7.4,1.9c3.6-0.2,3.6-1.2,7.2-1.3
		s3.6-0.5,7.3-0.6s3.7,0.8,7.3,0.7c3.6-0.2,3.6,0.1,7.3-0.1c3.6-0.1,3.6-0.8,7.2-1c3.6-0.2,3.6,0.2,7.3,0.1s3.6,0.2,7.3,0
		s3.6-1.4,7.2-1.5c3.6-0.2,3.6-0.5,7.3-0.6s3.6-0.4,7.3-0.6c3.6-0.2,3.7,1.5,7.3,1.3c3.6-0.2,3.6-2,7.2-2.1c3.6-0.2,3.7,1.8,7.4,1.7
		s3.6-1.8,7.2-2c3.6-0.2,3.7,1.5,7.3,1.4s3.6-1.2,7.2-1.4c3.6-0.2,3.6-0.8,7.2-0.9c3.6-0.2,3.7,0.5,7.3,0.3c3.6-0.2,3.7,0.3,7.3,0.1
		c3.6-0.2,3.6-1,7.2-1.1c3.6-0.2,3.7,0.3,7.3,0.1s3.7,0.4,7.3,0.3c3.6-0.2,3.6-1.4,7.2-1.6c3.6-0.2,3.6,0.2,7.3,0
		c3.6-0.1,3.6-0.4,7.3-0.5c3.6-0.2,3.6-0.3,7.3-0.5c3.6-0.2,3.7,1.3,7.3,1.2c3.6-0.2,3.6-1,7.2-1.2c3.6-0.2,3.6-0.6,7.3-0.7
		c3.6-0.2,3.7,0.4,7.3,0.3c3.6-0.2,3.7,1.1,7.3,0.9c3.6-0.2,3.6-0.6,7.2-0.8c3.6-0.2,3.6-1,7.2-1.1c3.6-0.2,3.6-0.4,7.3-0.5
		c3.6-0.2,3.6,0.2,7.3,0s3.7,0.9,7.3,0.7c3.6-0.2,3.6-1.5,7.2-1.7c3.6-0.2,3.6-0.2,7.3-0.3c3.6-0.2,3.6,0,7.3-0.2
		c3.6-0.2,3.6-0.5,7.3-0.7c3.6-0.2,3.7,1,7.3,0.8c3.6-0.2,3.6-1.4,7.2-1.6c3.6-0.2,3.7,1.6,7.3,1.4c3.6-0.2,3.6-1.9,7.2-2.1
		c3.6-0.2,3.6-0.1,7.3-0.2s3.6,0.1,7.3,0c3.6-0.2,3.6-0.6,7.3-0.7c3.6-0.2,3.7,0.7,7.3,0.5c3.6-0.2,3.6,0.1,7.3,0
		c3.6-0.2,3.6-1.2,7.2-1.4c3.6-0.2,3.7,1.3,7.3,1.1c3.6-0.2,3.6-0.2,7.3-0.4c3.6-0.2,3.6-1.3,7.2-1.5c3.6-0.2,3.6-0.5,7.3-0.6
		c3.6-0.2,3.7,1.8,7.4,1.7c3.6-0.2,3.6-0.9,7.2-1c3.6-0.1,3.7,0.3,7.3,0.1c3.6-0.2,3.6-0.7,7.2-0.8c3.6-0.2,3.6-0.5,7.3-0.6
		c3.6-0.2,3.7,0.3,7.3,0.2c3.6-0.2,3.6,0.2,7.3,0.1c3.6-0.2,3.6-1.5,7.2-1.6c3.6-0.2,3.7,0.5,7.3,0.4c3.6-0.2,3.6,0.1,7.3-0.1
		c3.6-0.2,3.6,0.1,7.3,0c3.6-0.2,3.6-0.1,7.3-0.2c3.6-0.2,3.6-1.1,7.2-1.2c3.6-0.1,3.6,0.1,7.3,0c3.6-0.2,3.7,0.5,7.3,0.4
		c3.6-0.1,3.6-1,7.2-1.2c3.6-0.2,3.6-0.2,7.3-0.4c3.6-0.2,3.7,0.7,7.3,0.6c3.6-0.2,3.6-0.3,7.3-0.5c3.6-0.1,3.7,0.9,7.3,0.7
		c3.6-0.2,3.6-0.8,7.2-0.9c3.6-0.2,3.7,0.5,7.3,0.3c3.6-0.2,3.6-0.5,7.3-0.6c3.6-0.2,3.6-2,7.2-2.2c3.6-0.2,3.7,0.3,7.3,0.2
		c3.6-0.2,3.7,1.2,7.3,1.1c3.6-0.2,3.6-2.1,7.2-2.3c3.6-0.2,3.7,1.8,7.3,1.7c3.6-0.2,3.6-2,7.2-2.2c3.6-0.2,3.7,1.3,7.3,1.2
		c3.6-0.2,3.6-0.4,7.3-0.5c3.6-0.2,3.6-1,7.2-1.2c3.6-0.2,3.7,0.7,7.3,0.6c3.6-0.2,3.6-1.1,7.2-1.2c3.6-0.2,3.7,1,7.3,0.8
		c3.6-0.2,3.6-0.4,7.3-0.6c3.6-0.2,3.6-1.3,7.2-1.4c3.6-0.2,3.7,0.6,7.3,0.5c3.6-0.2,3.7,0.5,7.3,0.4c3.6-0.2,3.6-1.7,7.2-1.8
		c3.6-0.2,3.7,1.7,7.4,1.6c3.6-0.2,3.6-0.7,7.2-0.8c3.6-0.2,3.6-0.4,7.3-0.6c3.6-0.2,3.7,1,7.3,0.8c3.6-0.2,3.6-2,7.2-2.1
		c3.6-0.2,3.7,1.5,7.3,1.3c3.6-0.2,3.6,0.1,7.3,0c3.6-0.2,3.6-1.3,7.2-1.4c3.6-0.2,3.7,0.5,7.3,0.4c3.6-0.2,3.6-1.2,7.2-1.4
		c3.6-0.2,3.6-0.1,7.3-0.3c3.6-0.2,3.6-0.5,7.2-0.7c3.6-0.2,3.7,0.5,7.3,0.4c3.6-0.2,3.6-0.3,7.3-0.5s3.7,1.1,7.3,0.9s3.6-1.8,7.2-2
		c3.6-0.2,3.6-0.3,7.3-0.5c3.6-0.2,3.7,0.4,7.3,0.2c3.6-0.2,3.7,1.1,7.3,0.9c3.6-0.2,3.6-0.1,7.3-0.3c3.6-0.2,3.6-1,7.2-1.2
		c3.6-0.2,3.7,0.5,7.3,0.4c3.6-0.2,3.6-0.1,7.3-0.3c3.6-0.2,3.6-1.2,7.2-1.3c3.6-0.2,3.6-0.8,7.2-0.9c3.6-0.2,3.7,0.8,7.3,0.7
		c3.6-0.2,3.6-1.3,7.2-1.5c3.6-0.2,3.7,1.8,7.4,1.6c3.6-0.2,3.6-1.2,7.2-1.4c3.6-0.2,3.6-0.8,7.2-1c3.6-0.2,3.7,0.3,7.3,0.2
		c3.6-0.2,3.7,0.6,7.3,0.4c3.6-0.2,3.6-1.5,7.2-1.6c3.6-0.2,3.7,1.9,7.4,1.7c3.6-0.2,3.6-1.3,7.2-1.5c3.6-0.2,3.6-1.1,7.2-1.3
		c3.6-0.2,3.6,0,7.3-0.1c3.6-0.2,3.7,1.8,7.4,1.7c3.6-0.2,3.6-1.7,7.2-1.9c3.6-0.2,3.7,0.5,7.3,0.4c3.6-0.2,3.6-0.1,7.3-0.2
		s3.6-0.3,7.3-0.5c3.6-0.2,3.7,0.4,7.3,0.3c3.6-0.2,3.6-0.7,7.2-0.8c3.6-0.2,3.6-1,7.2-1.1c3.6-0.2,3.6-0.3,7.3-0.5
		c3.6-0.2,3.6-0.5,7.3-0.6c3.6-0.2,3.7,0.5,7.3,0.3c3.6-0.2,3.7,1.4,7.4,1.3c3.6-0.2,3.6-1.6,7.2-1.8s3.6-0.9,7.2-1
		c3.6-0.2,3.7,2,7.4,1.8c3.6-0.2,3.6-1.7,7.2-1.8c3.6-0.2,3.7,1.4,7.3,1.3c3.6-0.2,3.6-0.1,7.3-0.2c3.6-0.2,3.6-0.5,7.3-0.6
		c3.6-0.2,3.6-1.9,7.2-2c3.6-0.2,3.7,1.7,7.4,1.5c3.6-0.2,3.6-1.3,7.2-1.5c3.6-0.2,4.3-2.2,6.9,0.3V86H-7V60.5z"/>
</g>
</svg>
