<svg width="2065" height="114" viewBox="0 0 2065 114" fill="none" xmlns="http://www.w3.org/2000/svg">
<path d="M0 113.993H2064.57C2064.57 113.993 2064.57 61.6299 2064.57 61.6081C2063.79 61.5862 2064.5 61.6081 2063.79 61.5862C2062.79 61.557 2061.41 61.4914 2060.41 61.4477C2059.28 61.3967 2058.16 61.3384 2057.02 61.28C2055.88 61.2217 2054.79 61.1634 2053.69 61.0978C2051.92 61.003 2050.13 60.8937 2048.35 60.7625C2048.32 60.7625 2048.29 60.7625 2048.28 60.7625C2047.4 60.6969 2046.5 60.6385 2045.63 60.5438C2045.07 60.4927 2044.51 60.4417 2043.95 60.3907C2042.41 60.2449 2040.87 60.0845 2039.35 59.9168C2037.82 59.7492 2036.3 59.5669 2034.77 59.3774C2033.25 59.1879 2031.75 58.9837 2030.24 58.7723C2028.73 58.5609 2027.26 58.3349 2025.76 58.109C2024.27 57.883 2022.81 57.6351 2021.33 57.38C2019.85 57.1248 2018.4 56.8697 2016.94 56.5927C2015.48 56.3157 2014.05 56.0387 2012.6 55.7544C2011.15 55.47 2009.74 55.1639 2008.32 54.8577C2006.91 54.5515 2005.49 54.2381 2004.09 53.91C2002.69 53.582 2001.29 53.2539 1999.91 52.9113C1998.52 52.5687 1997.14 52.2188 1995.77 51.8689C1994.4 51.519 1993.03 51.1472 1991.68 50.7754C1990.32 50.4036 1988.97 50.0246 1987.65 49.6382C1986.32 49.2518 1984.99 48.8582 1983.66 48.4572C1982.34 48.0563 1981.03 47.6481 1979.73 47.2325C1978.42 46.817 1977.13 46.4015 1975.84 45.9714C1974.55 45.5413 1973.27 45.1112 1972.01 44.6738C1971.31 44.4333 1970.63 44.1927 1969.93 43.9448C1919.5 26.0994 1869.87 22.9647 1809.74 30.6045C1750.45 38.1349 1689.58 53.1081 1626.48 49.106C1579.56 46.1318 1541.27 30.2181 1493.91 28.0239C1449.38 25.9609 1408.57 36.553 1367.44 42.691C1325.41 48.9602 1281.51 49.9954 1239.25 43.4856C1163.97 31.8875 1099.14 4.54336 1018.76 0.577699C954.881 -2.5715 888.136 7.53948 832.252 21.5432C778.389 35.0367 730.299 54.588 670.136 61.9142C607.81 69.5029 541.812 62.5412 480.389 53.4872C401.462 41.86 316.328 27.9218 231.49 34.315C150.883 40.3874 86.021 62.9494 0.513419 61.6227C0.342279 61.6227 0 61.6154 0 61.6154V114V113.993Z" fill="#FFFCF3"/>
</svg>
