<svg width="534" height="240" viewBox="0 0 534 240" fill="none" xmlns="http://www.w3.org/2000/svg">
    <path d="M139.59 236.164a.666.666 0 0 1-.775-.496.659.659 0 0 1 .493-.787c2.535-.585 5.087-1.28 7.558-2.039a.652.652 0 0 1 .816.433.642.642 0 0 1-.434.815c-2.507.78-5.087 1.468-7.658 2.074zm-7.738 1.499-.039.008c-2.585.407-5.241.735-7.867.95a.665.665 0 0 1-.716-.602.674.674 0 0 1 .602-.717c2.597-.221 5.214-.541 7.774-.943a.64.64 0 0 1 .744.542.642.642 0 0 1-.516.739l.018.023zm22.772-6.164a.647.647 0 0 1-.743-.408.664.664 0 0 1 .371-.856c.78-.311 1.56-.622 2.335-.959a100.276 100.276 0 0 0 4.826-2.205.653.653 0 0 1 .881.299.654.654 0 0 1-.298.881 91.539 91.539 0 0 1-4.901 2.234c-.79.327-1.568.651-2.361.964l-.103.022-.007.028zm-38.459 7.516-.116.024c-2.635.042-5.302-.004-7.92-.14a.653.653 0 0 1-.627-.687.66.66 0 0 1 .687-.627c2.59.128 5.231.179 7.838.13a.663.663 0 0 1 .153 1.31l-.015-.01zm52.559-14.522a.658.658 0 0 1-.693-.298.652.652 0 0 1 .201-.901 56.898 56.898 0 0 0 6.304-4.568.665.665 0 0 1 .928.074.66.66 0 0 1-.087.931 60.352 60.352 0 0 1-6.442 4.678.708.708 0 0 1-.211.084zm-68.294 13.723c-.064.013-.142.029-.214.004a122.465 122.465 0 0 1-7.832-1.192c-.351-.074-.596-.412-.522-.763a.646.646 0 0 1 .763-.522 112.4 112.4 0 0 0 7.749 1.183.65.65 0 0 1 .569.726.66.66 0 0 1-.513.564zm-15.489-2.891a.78.78 0 0 1-.296-.005 122.869 122.869 0 0 1-7.607-2.233.65.65 0 0 1-.414-.826.651.651 0 0 1 .825-.414c2.465.812 4.997 1.558 7.522 2.21a.657.657 0 0 1-.027 1.281l-.002-.013zm95.761-20.991a.652.652 0 0 1-.625-1.063 42.538 42.538 0 0 0 1.877-2.38 35.391 35.391 0 0 0 2.088-3.229c-.128.027-.257.054-.383.094-.347.072-.712-.133-.798-.478a.668.668 0 0 1 .478-.797 81.783 81.783 0 0 0 7.492-2.227c.336-.124.711.066.835.402a.66.66 0 0 1-.402.836 75.307 75.307 0 0 1-5.582 1.733.558.558 0 0 1-.085.299 35.688 35.688 0 0 1-2.598 4.128 39.432 39.432 0 0 1-1.941 2.46.666.666 0 0 1-.369.225l.013-.003zm266.172-61.812c-.9.188-1.802.364-2.708.526-.36.076-.694-.176-.757-.539-.075-.36.123-.697.54-.757a95.824 95.824 0 0 0 6.841-1.487l.789-.205c.388-.135.71.12.796.464a.649.649 0 0 1-.465.795l-.802.209a97.593 97.593 0 0 1-4.234.994zm-271.01 56.651-.052.011a58.418 58.418 0 0 1-7.946.442.66.66 0 0 1 .019-1.319 58.406 58.406 0 0 0 7.774-.433.652.652 0 0 1 .736.57.657.657 0 0 1-.519.726l-.012.003zm260.505-55.163-.09.019a57.599 57.599 0 0 1-7.97.004.659.659 0 0 1-.605-.706.659.659 0 0 1 .706-.604c2.467.182 5.095.168 7.783-.005a.67.67 0 0 1 .703.604.66.66 0 0 1-.514.685l-.013.003zm23.041-4.945a.677.677 0 0 1-.762-.432.67.67 0 0 1 .415-.838 121.233 121.233 0 0 0 7.343-2.746.656.656 0 0 1 .496 1.212 123.99 123.99 0 0 1-7.418 2.775l-.077.016.003.013zM69.998 230.36a.642.642 0 0 1-.384-.04 114.486 114.486 0 0 1-7.23-3.252.638.638 0 0 1-.29-.878.649.649 0 0 1 .877-.291 111.745 111.745 0 0 0 7.143 3.215c.335.131.499.527.352.853a.661.661 0 0 1-.467.393zm128.497-27.764a.659.659 0 0 1-.737-.383.642.642 0 0 1 .329-.861 119.404 119.404 0 0 0 7.054-3.423.657.657 0 0 1 .888.27.664.664 0 0 1-.27.889 121.393 121.393 0 0 1-7.125 3.465c-.051.011-.087.032-.126.04l-.013.003zm-38.33 6.334a.607.607 0 0 1-.255 0c-3.053-.542-5.614-1.429-7.629-2.658a.66.66 0 0 1 .69-1.124c1.876 1.137 4.292 1.974 7.177 2.484a.654.654 0 0 1 .027 1.283l-.01.015zm313.826-65.858a.644.644 0 0 1-.719-.359.655.655 0 0 1 .298-.882 119.453 119.453 0 0 0 6.923-3.664.669.669 0 0 1 .896.242.669.669 0 0 1-.242.896 121.361 121.361 0 0 1-6.994 3.706c-.049.024-.098.048-.149.058l-.013.003zm-53.276 9.692a.759.759 0 0 1-.296-.005c-2.652-.68-5.17-1.616-7.499-2.806a.65.65 0 0 1-.291-.878.65.65 0 0 1 .878-.291c2.239 1.141 4.669 2.042 7.235 2.699a.657.657 0 0 1-.027 1.281zm-232.618 47.794a.613.613 0 0 1-.312-.015.644.644 0 0 1-.45-.805c.701-2.55 1.09-5.114 1.145-7.609a.661.661 0 0 1 .669-.65.644.644 0 0 1 .637.672 31.831 31.831 0 0 1-1.196 7.941.654.654 0 0 1-.493.466zm24.357-5.261a.645.645 0 0 1-.696-.311.665.665 0 0 1 .226-.906 158.897 158.897 0 0 0 3.982-2.458c.889-.562 1.788-1.139 2.671-1.727a.67.67 0 0 1 .911.185.664.664 0 0 1-.185.911c-.899.578-1.782 1.166-2.684 1.73a173.775 173.775 0 0 1-4.004 2.476.617.617 0 0 1-.198.082l-.023.018zm275.216-60.029a.665.665 0 0 1-.691-.285.666.666 0 0 1 .185-.911 124.102 124.102 0 0 0 6.426-4.499.654.654 0 0 1 .913.13.656.656 0 0 1-.131.914 126.78 126.78 0 0 1-6.484 4.539.744.744 0 0 1-.224.087l.006.025zm-431.8 88.118a.659.659 0 0 1-.473-.076 112.518 112.518 0 0 1-6.687-4.251.662.662 0 0 1-.166-.918.662.662 0 0 1 .919-.165 104.987 104.987 0 0 0 6.61 4.199.662.662 0 0 1 .229.905.637.637 0 0 1-.433.306zm169.805-36.669a.655.655 0 0 1-.675-.275.652.652 0 0 1 .172-.908c1.902-1.298 3.812-2.624 5.712-3.935l.773-.537a.672.672 0 0 1 .921.169.66.66 0 0 1-.169.922l-.773.537c-1.9 1.311-3.81 2.637-5.712 3.935a.578.578 0 0 1-.234.102l-.015-.01zm-77.817 13.69a.664.664 0 0 1-.761-.432 13.393 13.393 0 0 1-.469-1.727c-.382-1.826-.481-3.899-.292-6.328a.658.658 0 0 1 .706-.604c.369.03.637.35.604.706-.175 2.305-.088 4.26.268 5.957.113.54.265 1.072.436 1.573a.67.67 0 0 1-.402.836l-.077.016-.013.003zm242.846-51.184a.654.654 0 0 1-.772-.483.67.67 0 0 1 .477-.798 52.018 52.018 0 0 0 7.39-2.393.656.656 0 0 1 .854.358.656.656 0 0 1-.358.854c-2.321.969-4.871 1.798-7.591 2.462zm-7.746 1.461-.052.01c-2.387.326-4.964.583-7.886.793a.67.67 0 0 1-.703-.605c-.022-.358.243-.695.604-.703 2.896-.204 5.444-.469 7.793-.787a.648.648 0 0 1 .734.558.657.657 0 0 1-.519.726l.029.008zm23.951-5.15a.682.682 0 0 1-.584-.159 29.65 29.65 0 0 1-5.029-6.263.665.665 0 0 1 .226-.906.665.665 0 0 1 .907.226 29.647 29.647 0 0 0 2.388 3.393 31.541 31.541 0 0 0 5.63-4.964c.24-.265.662-.3.93-.047.265.24.299.662.047.93a32.71 32.71 0 0 1-5.751 5.096c.505.552 1.02 1.089 1.555 1.594a.667.667 0 0 1 .035.932.686.686 0 0 1-.349.194l-.005-.026zm93.373-19.698a.643.643 0 0 1-.635-.216.664.664 0 0 1 .074-.928 125.17 125.17 0 0 0 5.826-5.247.65.65 0 0 1 .93.02.65.65 0 0 1-.02.93 126.474 126.474 0 0 1-5.882 5.299.706.706 0 0 1-.293.142zm-133.028 26.055-.103.022c-2.621.106-5.251.173-7.899.218a.655.655 0 0 1-.032-1.309c2.619-.052 5.249-.119 7.87-.225a.658.658 0 0 1 .684.635.661.661 0 0 1-.517.672l-.003-.013zM238.658 177.77a.656.656 0 0 1-.675-.274.664.664 0 0 1 .172-.909 308.65 308.65 0 0 1 6.589-4.359.66.66 0 0 1 .914.198.641.641 0 0 1-.201.901 331.304 331.304 0 0 0-6.566 4.341.56.56 0 0 1-.233.102zm112.84-25.56-.128.027c-2.628.014-5.258.014-7.888.015a.668.668 0 0 1-.661-.654.656.656 0 0 1 .654-.66c2.63-.001 5.26-.001 7.875-.012a.656.656 0 0 1 .138 1.3l.01-.016zm-163.199 32.776a.66.66 0 0 1-.769-.47 23.13 23.13 0 0 0-1.181-3.269 20.111 20.111 0 0 0-2.094-3.589.66.66 0 0 1 .144-.916.65.65 0 0 1 .916.144 20.752 20.752 0 0 1 2.224 3.83c.5 1.103.92 2.277 1.248 3.457a.652.652 0 0 1-.501.816l.013-.003zM42.9 214.451a.674.674 0 0 1-.55-.127 91.66 91.66 0 0 1-2.471-2.06 97.278 97.278 0 0 1-3.506-3.158.666.666 0 0 1-.035-.932.666.666 0 0 1 .933-.034 106.05 106.05 0 0 0 5.907 5.138.65.65 0 0 1 .098.919.633.633 0 0 1-.381.228l.005.026zm292.832-62.228s-.09.019-.131.014c-2.63.001-5.255.027-7.88.053a.65.65 0 0 1-.66-.654.643.643 0 0 1 .653-.66c2.622-.039 5.25-.052 7.893-.055a.666.666 0 0 1 .66.653.656.656 0 0 1-.522.646l-.013.003zm175.931-37.28a.657.657 0 0 1-.618-1.092 131.822 131.822 0 0 0 5.135-5.921.66.66 0 0 1 .919-.098.662.662 0 0 1 .099.919 134.65 134.65 0 0 1-5.189 5.985.68.68 0 0 1-.348.194l.002.013zm-259.719 54.368a.648.648 0 0 1-.696-.311.648.648 0 0 1 .242-.896 141.876 141.876 0 0 1 6.947-3.804.648.648 0 0 1 .879.286.658.658 0 0 1-.286.879 138.35 138.35 0 0 0-6.875 3.761.575.575 0 0 1-.198.082l-.013.003zm68.024-16.874-.116.024c-2.799.09-5.367.198-7.859.344a.665.665 0 0 1-.694-.62c-.021-.358.259-.685.62-.694 2.492-.146 5.086-.259 7.888-.336a.656.656 0 0 1 .151 1.297l.01-.015zm95.531-20.996a.672.672 0 0 1-.428-.058.65.65 0 0 1-.291-.879c1.204-2.386 1.994-4.833 2.371-7.261a.645.645 0 0 1 .745-.545.645.645 0 0 1 .545.744c-.386 2.578-1.229 5.157-2.489 7.662a.666.666 0 0 1-.45.35l-.003-.013zm-149.466 30.745a.672.672 0 0 1-.75-.379.64.64 0 0 1 .317-.859l.038-.008a101.617 101.617 0 0 1 7.415-2.787.653.653 0 0 1 .826.418.66.66 0 0 1-.418.825 103.704 103.704 0 0 0-7.305 2.738l-.128.027.005.025zm38.21-8.833-.077.017c-2.7.243-5.32.55-7.8.881a.648.648 0 0 1-.734-.557.64.64 0 0 1 .557-.735c2.493-.334 5.139-.646 7.852-.892a.66.66 0 0 1 .714.589.665.665 0 0 1-.525.7l.013-.003zm-23.305 3.874a.655.655 0 0 1-.772-.483.652.652 0 0 1 .477-.798 121.964 121.964 0 0 1 7.734-1.713.642.642 0 0 1 .767.524.655.655 0 0 1-.511.764c-2.595.49-5.184 1.072-7.656 1.698l-.026.005-.013.003zm-132.344 27.657a.65.65 0 0 1-.752-.836c.834-2.685 1.955-5.148 3.342-7.304a.651.651 0 0 1 .913-.191.65.65 0 0 1 .191.913c-1.326 2.063-2.392 4.407-3.193 6.991a.67.67 0 0 1-.496.453l-.005-.026zm250.298-52.704a.671.671 0 0 1-.77-.47 28.048 28.048 0 0 1-.345-1.458c-.466-2.224-.62-4.434-.461-6.561a.648.648 0 0 1 .705-.604c.369.03.635.337.604.706a22.479 22.479 0 0 0 .44 6.203c.097.463.207.923.33 1.381a.652.652 0 0 1-.462.808l-.038.008-.003-.013zm122.718-29.467a.66.66 0 0 1-.519-.106.663.663 0 0 1-.152-.921 116.455 116.455 0 0 0 4.351-6.522.663.663 0 0 1 .908-.217c.308.19.407.6.217.907a125.944 125.944 0 0 1-4.405 6.587.658.658 0 0 1-.402.259l.002.013zM31.423 203.673a.651.651 0 0 1-.62-.206 107.537 107.537 0 0 1-5.142-6.037.664.664 0 0 1 .102-.921.663.663 0 0 1 .92.103 115.335 115.335 0 0 0 5.076 5.97.648.648 0 0 1-.049.923.628.628 0 0 1-.302.158l.015.01zM179.29 172.47a.665.665 0 0 1-.503-.096 22.064 22.064 0 0 0-6.927-3.153.657.657 0 1 1 .323-1.276c2.58.654 5.055 1.774 7.354 3.332a.663.663 0 0 1 .179.916.682.682 0 0 1-.413.274l-.013.003zm-22.126-.495a.676.676 0 0 1-.669-.249.66.66 0 0 1 .144-.916 18.329 18.329 0 0 1 3.58-2.065 16.485 16.485 0 0 1 3.864-1.158c.36-.075.694.177.757.54.075.36-.218.69-.539.757-1.23.217-2.442.578-3.574 1.07a17.347 17.347 0 0 0-3.316 1.916.683.683 0 0 1-.26.108l.013-.003zm260.474-55.827a.658.658 0 0 1-.775-.496c-.471-1.995-1.218-3.449-2.255-4.427a5.589 5.589 0 0 0-1.853-1.156.673.673 0 0 1-.391-.844.674.674 0 0 1 .844-.391 6.914 6.914 0 0 1 2.285 1.427c1.237 1.164 2.097 2.836 2.635 5.086.075.36-.133.712-.493.788l-.012.002.015.011zm-17.406.705a.648.648 0 0 1-.444-.069.648.648 0 0 1-.265-.883c.375-.71.809-1.391 1.264-2.037 1.079-1.514 2.615-2.896 4.316-3.87.31-.186.711-.068.897.242a.67.67 0 0 1-.242.896c-1.546.887-2.923 2.129-3.9 3.488a17.85 17.85 0 0 0-1.186 1.899.648.648 0 0 1-.44.334zm129.705-27.508a.644.644 0 0 1-.444-.068.65.65 0 0 1-.266-.884c1.237-2.299 2.406-4.664 3.482-7.024a.666.666 0 0 1 .87-.33.667.667 0 0 1 .33.87 116.467 116.467 0 0 1-3.519 7.1.648.648 0 0 1-.44.334l-.013.002zM21.657 191.316a.656.656 0 0 1-.676-.275 119.99 119.99 0 0 1-4.234-6.697.643.643 0 0 1 .242-.897.643.643 0 0 1 .896.242 113.644 113.644 0 0 0 4.18 6.628.664.664 0 0 1-.406 1.011l-.003-.012zm-7.937-13.613a.645.645 0 0 1-.72-.36 117.453 117.453 0 0 1-3.27-7.221.656.656 0 0 1 .358-.854.656.656 0 0 1 .854.359c1 2.408 2.08 4.812 3.238 7.134a.654.654 0 0 1-.299.881c-.048.023-.097.047-.161.061zM7.707 163.15a.666.666 0 0 1-.762-.431 113.673 113.673 0 0 1-2.274-7.591.649.649 0 0 1 .465-.795c.323-.122.71.12.808.461.661 2.52 1.418 5.046 2.255 7.501a.671.671 0 0 1-.415.839l-.077.016zm-4.023-15.238a.643.643 0 0 1-.767-.524c-.503-2.593-.92-5.23-1.238-7.834-.047-.353.22-.677.57-.737a.653.653 0 0 1 .737.57c.312 2.579.735 5.175 1.219 7.745a.657.657 0 0 1-.51.765l-.011.015zm-1.932-15.635-.103.021a.664.664 0 0 1-.693-.62c-.137-2.642-.197-5.3-.144-7.929a.66.66 0 0 1 1.32.019c-.05 2.587.008 5.233.15 7.834a.65.65 0 0 1-.517.672l-.013.003zm.273-15.748s-.129.027-.199.014a.655.655 0 0 1-.59-.708c.24-2.628.572-5.274.982-7.87a.66.66 0 1 1 1.305.21 109.41 109.41 0 0 0-.976 7.774.646.646 0 0 1-.522.58zm2.544-15.539a.662.662 0 0 1-.772-.805l.255-1.02a124.21 124.21 0 0 1 1.888-6.623.65.65 0 0 1 .823-.428.65.65 0 0 1 .427.824 121.086 121.086 0 0 0-1.865 6.538l-.246 1.004a.675.675 0 0 1-.5.494l-.01.016zm4.717-15.028a.658.658 0 0 1-.747-.877 169.873 169.873 0 0 1 3.005-7.314.667.667 0 0 1 .867-.342.655.655 0 0 1 .343.867 162.97 162.97 0 0 0-2.99 7.257.665.665 0 0 1-.478.409zm6.318-14.437a.597.597 0 0 1-.428-.058.652.652 0 0 1-.304-.875 242.987 242.987 0 0 1 3.369-6.598l.23-.438a.649.649 0 0 1 .884-.265.65.65 0 0 1 .266.883l-.23.438a247.132 247.132 0 0 0-3.35 6.567.652.652 0 0 1-.463.352l.026-.006zm7.433-13.918a.605.605 0 0 1-.46-.078.663.663 0 0 1-.242-.903c1.345-2.294 2.72-4.569 4.128-6.756a.65.65 0 0 1 .912-.191.65.65 0 0 1 .192.913 187.891 187.891 0 0 0-4.098 6.71.651.651 0 0 1-.43.318l-.002-.013zm8.507-13.271a.663.663 0 0 1-.684-1.024 168.148 168.148 0 0 1 4.706-6.368.648.648 0 0 1 .916-.111.648.648 0 0 1 .111.916 166.448 166.448 0 0 0-4.665 6.305.658.658 0 0 1-.402.259l.018.023zm9.678-12.429a.665.665 0 0 1-.569-.15.652.652 0 0 1-.072-.924 147.446 147.446 0 0 1 5.339-5.842.652.652 0 0 1 .922-.019c.255.256.261.67.019.922a153.316 153.316 0 0 0-5.296 5.794.646.646 0 0 1-.359.21l.016.01zm10.97-11.317a.65.65 0 0 1-.62-.205.648.648 0 0 1 .048-.923 106.696 106.696 0 0 1 6.038-5.13.663.663 0 0 1 .921.102.664.664 0 0 1-.102.921 122.338 122.338 0 0 0-5.957 5.073.624.624 0 0 1-.303.157l-.025.005zm12.344-9.752a.655.655 0 0 1-.502-1.183 90.93 90.93 0 0 1 6.753-4.152.66.66 0 1 1 .644 1.153 93.382 93.382 0 0 0-6.659 4.092.57.57 0 0 1-.233.103l-.003-.013zm13.752-7.644a.658.658 0 0 1-.395-1.247A77.843 77.843 0 0 1 85.31-.894a.66.66 0 0 1 .826.418.66.66 0 0 1-.418.825 75.887 75.887 0 0 0-7.29 2.802c-.052.01-.088.032-.127.04l-.013.003zm22.737-6.077-.064.014c-2.51.257-5.03.65-7.486 1.165l-.219.045a.65.65 0 0 1-.777-.508.65.65 0 0 1 .508-.777l.218-.046c2.507-.525 5.08-.93 7.631-1.182a.66.66 0 0 1 .192 1.302l-.003-.013z" fill="#FFC82B"/>
</svg>
