<svg width="15" height="19" viewBox="0 0 15 19" fill="none" xmlns="http://www.w3.org/2000/svg">
<path id="Vector" d="M14.2393 9.31278C13.7237 9.51831 12.9973 9.87405 12.1928 10.4195C10.9587 11.2654 9.59178 12.5934 8.62323 14.2219C7.8187 15.5499 7.31881 17.0361 7.06886 18.3484C6.77204 17.0045 6.33463 15.4393 5.70195 13.9136C5.35046 13.0598 4.85056 12.1903 4.24912 11.5104C3.6555 10.8069 2.98376 10.2772 2.37451 9.85033C1.35128 9.17049 0.484274 8.79104 -0.0078125 8.62503C0.437408 8.39579 1.05447 8.03215 1.74964 7.55784C2.87441 6.77523 4.18664 5.66851 5.34265 4.39579C6.48304 3.16258 7.51408 1.72385 8.04522 0.37207C8.31079 1.62899 8.73258 3.14677 9.45118 4.59341C10.2245 6.14282 11.3648 7.51041 12.5052 8.34045C13.1535 8.83057 13.7706 9.13096 14.2471 9.30488L14.2393 9.31278Z" fill="white"/>
</svg>
