<svg width="74" height="244" viewBox="0 0 74 244" fill="none" xmlns="http://www.w3.org/2000/svg">
    <path d="M139.051 240.958a.664.664 0 0 1-.773-.495.66.66 0 0 1 .492-.788 109.5 109.5 0 0 0 7.537-2.039.65.65 0 0 1 .814.433.645.645 0 0 1-.432.816c-2.501.78-5.074 1.468-7.638 2.073zm-7.717 1.5-.039.008c-2.578.407-5.227.735-7.845.949a.664.664 0 0 1-.715-.602.672.672 0 0 1 .6-.716c2.59-.222 5.2-.542 7.753-.943a.637.637 0 0 1 .742.542.642.642 0 0 1-.515.739l.019.023zm22.71-6.164a.648.648 0 0 1-.741-.408.666.666 0 0 1 .37-.857c.778-.311 1.557-.622 2.329-.959a99.265 99.265 0 0 0 4.813-2.205.652.652 0 0 1 .879.299.654.654 0 0 1-.298.881 90.228 90.228 0 0 1-4.887 2.234c-.788.327-1.564.651-2.355.965l-.102.021-.008.029zm-38.355 7.516-.116.024c-2.628.041-5.287-.004-7.899-.14a.658.658 0 0 1 .06-1.315c2.584.129 5.218.18 7.817.131.36-.009.66.277.672.651a.67.67 0 0 1-.519.659l-.015-.01zm52.418-14.522a.659.659 0 0 1-.692-.298.653.653 0 0 1 .2-.901 56.689 56.689 0 0 0 6.287-4.568.662.662 0 0 1 .926.074.66.66 0 0 1-.087.931 60.219 60.219 0 0 1-6.424 4.677.747.747 0 0 1-.21.085zm-68.11 13.722a.394.394 0 0 1-.214.005 122.52 122.52 0 0 1-7.81-1.192c-.35-.075-.596-.412-.522-.764a.645.645 0 0 1 .761-.522c2.55.485 5.15.879 7.73 1.183a.65.65 0 0 1 .566.727.659.659 0 0 1-.512.563zm-15.447-2.891a.756.756 0 0 1-.296-.005c-2.547-.66-5.1-1.412-7.586-2.232a.652.652 0 0 1-.414-.826.649.649 0 0 1 .824-.415c2.458.813 4.983 1.558 7.501 2.21a.657.657 0 0 1-.027 1.281l-.002-.013zm95.502-20.99a.646.646 0 0 1-.551-.139.654.654 0 0 1-.073-.925 42.434 42.434 0 0 0 1.873-2.379 35.489 35.489 0 0 0 2.082-3.23c-.128.027-.256.054-.382.094-.346.073-.71-.133-.795-.477a.669.669 0 0 1 .476-.798 81.08 81.08 0 0 0 7.471-2.226c.336-.125.71.065.834.402.124.336-.066.711-.401.836a75.25 75.25 0 0 1-5.567 1.732.57.57 0 0 1-.085.3 35.86 35.86 0 0 1-2.591 4.128c-.602.837-1.26 1.66-1.936 2.46a.67.67 0 0 1-.368.225l.013-.003zm265.455-61.813a99.02 99.02 0 0 1-2.701.527c-.359.075-.692-.177-.755-.54-.075-.36.122-.697.538-.757a95.494 95.494 0 0 0 6.824-1.486l.786-.206c.387-.135.708.12.793.465a.649.649 0 0 1-.463.795l-.799.208c-1.41.363-2.838.703-4.223.994zm-270.28 56.652-.052.01a58.102 58.102 0 0 1-7.924.443.661.661 0 0 1 .019-1.32 57.913 57.913 0 0 0 7.752-.433.651.651 0 0 1 .735.571.658.658 0 0 1-.517.726l-.013.003zm259.803-55.164-.09.019a57.456 57.456 0 0 1-7.949.005.657.657 0 0 1 .101-1.31c2.461.181 5.081.168 7.762-.006a.67.67 0 0 1 .702.605.659.659 0 0 1-.513.684l-.013.003zm22.979-4.945a.674.674 0 0 1-.76-.431.672.672 0 0 1 .414-.839 120.657 120.657 0 0 0 7.323-2.745.654.654 0 0 1 .494 1.211 123.393 123.393 0 0 1-7.397 2.775l-.077.016.003.013zM69.647 235.154a.64.64 0 0 1-.383-.04 113.457 113.457 0 0 1-7.21-3.251.64.64 0 0 1-.291-.879.648.648 0 0 1 .876-.291 110.784 110.784 0 0 0 7.123 3.216.643.643 0 0 1 .352.852.66.66 0 0 1-.467.393zm128.15-27.764a.655.655 0 0 1-.735-.382.642.642 0 0 1 .329-.861 118.401 118.401 0 0 0 7.034-3.424.655.655 0 0 1 .886.271.664.664 0 0 1-.269.889 121.948 121.948 0 0 1-7.106 3.465c-.052.01-.087.031-.126.039l-.013.003zm-38.227 6.335a.603.603 0 0 1-.254-.001c-3.045-.542-5.599-1.428-7.609-2.657a.664.664 0 0 1-.216-.908.66.66 0 0 1 .905-.217c1.87 1.138 4.28 1.974 7.157 2.484a.654.654 0 0 1 .027 1.283l-.01.016zm312.981-65.859a.642.642 0 0 1-.718-.359.654.654 0 0 1 .298-.881 119.576 119.576 0 0 0 6.904-3.664.665.665 0 0 1 .893.241.67.67 0 0 1-.241.897 121.783 121.783 0 0 1-6.975 3.706c-.049.023-.097.047-.149.058l-.012.002zm-53.133 9.692a.754.754 0 0 1-.295-.005c-2.645-.679-5.156-1.615-7.479-2.805a.653.653 0 0 1-.29-.879.649.649 0 0 1 .876-.291c2.233 1.142 4.656 2.043 7.215 2.7a.657.657 0 0 1-.027 1.28zm-231.99 47.795a.608.608 0 0 1-.311-.016.644.644 0 0 1-.45-.805c.699-2.549 1.087-5.114 1.142-7.608a.659.659 0 0 1 .667-.65.642.642 0 0 1 .636.671 31.979 31.979 0 0 1-1.193 7.942.656.656 0 0 1-.491.466zm24.291-5.261a.645.645 0 0 1-.694-.311.666.666 0 0 1 .225-.907c1.344-.805 2.66-1.618 3.971-2.457.886-.562 1.783-1.14 2.664-1.727a.667.667 0 0 1 .909.185.666.666 0 0 1-.185.911c-.897.577-1.778 1.165-2.677 1.73-1.323.841-2.649 1.67-3.993 2.476a.587.587 0 0 1-.197.081l-.023.019zm274.473-60.029a.661.661 0 0 1-.504-1.196 123.06 123.06 0 0 0 6.408-4.5.651.651 0 0 1 .781 1.044 125.723 125.723 0 0 1-6.467 4.539.738.738 0 0 1-.223.087l.005.026zM55.556 228.18a.66.66 0 0 1-.47-.075 112.68 112.68 0 0 1-6.67-4.251.659.659 0 0 1 .75-1.084 104.706 104.706 0 0 0 6.592 4.2.663.663 0 0 1 .23.905.638.638 0 0 1-.432.305zm169.348-36.669a.652.652 0 0 1-.673-.274.654.654 0 0 1 .171-.909c1.898-1.298 3.802-2.624 5.697-3.934l.771-.538a.669.669 0 0 1 .919.17.662.662 0 0 1-.169.921l-.771.538c-1.895 1.31-3.8 2.636-5.697 3.934a.576.576 0 0 1-.233.103l-.015-.011zm-77.607 13.69a.662.662 0 0 1-.759-.431 13.48 13.48 0 0 1-.468-1.727c-.381-1.826-.48-3.9-.291-6.329a.658.658 0 0 1 .704-.604c.368.031.635.35.602.706-.174 2.305-.087 4.26.267 5.957.113.54.264 1.072.436 1.573a.672.672 0 0 1-.401.836 2.106 2.106 0 0 1-.077.016l-.013.003zm242.191-51.184a.652.652 0 0 1-.77-.482c-.075-.361.133-.713.476-.798a52.073 52.073 0 0 0 7.37-2.393.655.655 0 0 1 .494 1.211c-2.314.969-4.857 1.799-7.57 2.462zm-7.725 1.461-.051.011c-2.382.325-4.951.583-7.865.792a.67.67 0 0 1-.702-.604c-.021-.358.243-.696.602-.704 2.889-.204 5.43-.469 7.773-.786a.647.647 0 0 1 .732.557.659.659 0 0 1-.517.727l.028.007zm23.886-5.149a.683.683 0 0 1-.582-.16 29.608 29.608 0 0 1-5.015-6.262.667.667 0 0 1 .225-.907.663.663 0 0 1 .904.227 29.84 29.84 0 0 0 2.382 3.392 31.41 31.41 0 0 0 5.615-4.964.652.652 0 0 1 .927-.047c.264.24.299.662.047.93a32.651 32.651 0 0 1-5.735 5.097 30.365 30.365 0 0 0 1.551 1.593.669.669 0 0 1 .034.933.682.682 0 0 1-.348.194l-.005-.026zm93.122-19.699a.637.637 0 0 1-.634-.216.666.666 0 0 1 .074-.928 123.674 123.674 0 0 0 5.81-5.247.648.648 0 0 1 .928.02.652.652 0 0 1-.02.931 127.165 127.165 0 0 1-5.866 5.298.69.69 0 0 1-.292.142zm-132.67 26.056-.102.021c-2.615.106-5.237.174-7.878.218a.656.656 0 0 1-.033-1.309c2.613-.051 5.236-.119 7.85-.225.36-.008.67.262.682.636a.661.661 0 0 1-.516.672l-.003-.013zm-128.249 25.879a.651.651 0 0 1-.673-.275.664.664 0 0 1 .171-.908 308.063 308.063 0 0 1 6.572-4.36.658.658 0 0 1 .911.198.642.642 0 0 1-.2.901 332.108 332.108 0 0 0-6.548 4.341.563.563 0 0 1-.233.103zm112.536-25.56-.128.027c-2.621.013-5.244.014-7.867.014a.666.666 0 0 1-.658-.654.654.654 0 0 1 .651-.66c2.623 0 5.247-.001 7.854-.011a.657.657 0 0 1 .138 1.299l.01-.015zM187.629 189.78a.657.657 0 0 1-.767-.469 23.337 23.337 0 0 0-1.178-3.27 20.226 20.226 0 0 0-2.088-3.588.661.661 0 0 1 .143-.916.646.646 0 0 1 .914.144 20.793 20.793 0 0 1 2.218 3.829 24.143 24.143 0 0 1 1.244 3.457.651.651 0 0 1-.46.808l-.039.008.013-.003zM42.622 219.245a.67.67 0 0 1-.549-.126 95.61 95.61 0 0 1-2.464-2.06 97.143 97.143 0 0 1-3.497-3.158.669.669 0 0 1-.034-.933.663.663 0 0 1 .93-.034 105.802 105.802 0 0 0 5.89 5.139.65.65 0 0 1 .099.919.625.625 0 0 1-.38.227l.005.026zm292.042-62.227s-.089.018-.13.014c-2.624 0-5.242.026-7.859.052a.649.649 0 0 1-.659-.653.644.644 0 0 1 .652-.661c2.615-.039 5.236-.052 7.872-.055.362.004.65.293.658.654a.658.658 0 0 1-.521.646l-.013.003zm175.457-37.281a.646.646 0 0 1-.582-.159.66.66 0 0 1-.034-.933 131.565 131.565 0 0 0 5.121-5.921.66.66 0 0 1 .917-.098.664.664 0 0 1 .098.919 134.414 134.414 0 0 1-5.175 5.986.682.682 0 0 1-.347.193l.002.013zm-259.019 54.368a.643.643 0 0 1-.694-.31.65.65 0 0 1 .241-.897 141.517 141.517 0 0 1 6.929-3.803.643.643 0 0 1 .876.286.657.657 0 0 1-.285.878 138.078 138.078 0 0 0-6.857 3.762.612.612 0 0 1-.197.082l-.013.002zm67.841-16.874-.116.024c-2.792.09-5.352.198-7.838.344a.664.664 0 0 1-.692-.62c-.021-.358.259-.685.618-.693 2.486-.146 5.072-.26 7.867-.336.36-.009.66.277.669.638a.65.65 0 0 1-.519.659l.011-.016zm95.273-20.996a.662.662 0 0 1-.427-.058.65.65 0 0 1-.29-.878c1.201-2.387 1.988-4.834 2.365-7.262a.643.643 0 0 1 .742-.545.645.645 0 0 1 .544.745c-.385 2.577-1.225 5.156-2.482 7.662a.665.665 0 0 1-.449.349l-.003-.013zm-149.063 30.746a.67.67 0 0 1-.748-.38.64.64 0 0 1 .316-.858l.038-.008a100.838 100.838 0 0 1 7.395-2.788.65.65 0 0 1 .823.418.661.661 0 0 1-.416.826 102.865 102.865 0 0 0-7.285 2.737l-.128.027.005.026zm38.107-8.833-.077.016c-2.692.243-5.305.55-7.779.882a.648.648 0 0 1-.732-.558c-.05-.365.202-.7.556-.734a184.43 184.43 0 0 1 7.831-.893.66.66 0 0 1 .712.589.667.667 0 0 1-.523.701l.012-.003zm-23.242 3.873a.651.651 0 0 1-.77-.483.65.65 0 0 1 .476-.797 120.61 120.61 0 0 1 7.713-1.714.641.641 0 0 1 .765.524.657.657 0 0 1-.51.765c-2.588.49-5.17 1.072-7.636 1.697l-.025.005-.013.003zm-131.987 27.657a.658.658 0 0 1-.324-.012.65.65 0 0 1-.426-.824c.831-2.684 1.95-5.147 3.333-7.303.19-.309.6-.395.91-.191a.65.65 0 0 1 .191.913c-1.323 2.062-2.386 4.406-3.185 6.99a.667.667 0 0 1-.494.453l-.005-.026zm249.623-52.704a.667.667 0 0 1-.767-.469 28.54 28.54 0 0 1-.345-1.458c-.465-2.225-.618-4.434-.46-6.561a.646.646 0 0 1 .704-.604c.367.03.632.337.602.705a22.472 22.472 0 0 0 .439 6.203c.097.463.206.923.328 1.381a.65.65 0 0 1-.46.808l-.038.008-.003-.013zm122.388-29.467a.654.654 0 0 1-.518-.106c-.297-.206-.357-.623-.152-.921a116.794 116.794 0 0 0 4.34-6.522.66.66 0 0 1 .905-.217c.307.19.406.6.216.908a126.232 126.232 0 0 1-4.393 6.587.656.656 0 0 1-.401.258l.003.013zM31.176 208.467a.646.646 0 0 1-.618-.206 107.126 107.126 0 0 1-5.13-6.037.664.664 0 0 1 .103-.92.66.66 0 0 1 .918.102 115.788 115.788 0 0 0 5.061 5.971.65.65 0 0 1-.048.923.623.623 0 0 1-.302.157l.016.01zm147.468-31.203a.66.66 0 0 1-.501-.096 22.016 22.016 0 0 0-6.909-3.153.657.657 0 0 1 .322-1.276c2.573.655 5.042 1.774 7.335 3.333a.662.662 0 0 1 .177.915.677.677 0 0 1-.411.275l-.013.002zm-22.066-.494a.679.679 0 0 1-.668-.249.661.661 0 0 1 .143-.916 18.269 18.269 0 0 1 3.571-2.065 16.407 16.407 0 0 1 3.854-1.158c.359-.076.693.176.755.539.075.36-.217.69-.538.757a15.94 15.94 0 0 0-3.564 1.071 17.256 17.256 0 0 0-3.307 1.916.695.695 0 0 1-.259.108l.013-.003zm259.772-55.828a.654.654 0 0 1-.773-.495c-.47-1.996-1.216-3.45-2.25-4.427a5.531 5.531 0 0 0-1.847-1.156.674.674 0 0 1-.39-.844.67.67 0 0 1 .841-.392 6.89 6.89 0 0 1 2.279 1.428c1.234 1.164 2.092 2.836 2.628 5.085.075.36-.132.713-.491.788l-.013.003.016.01zm-17.36.705a.635.635 0 0 1-.442-.068.65.65 0 0 1-.265-.884c.374-.709.807-1.391 1.261-2.037 1.076-1.514 2.607-2.896 4.305-3.87a.655.655 0 0 1 .893.242.669.669 0 0 1-.241.896c-1.541.888-2.915 2.129-3.889 3.488a18.195 18.195 0 0 0-1.183 1.899.644.644 0 0 1-.439.334zM528.346 94.14a.642.642 0 0 1-.443-.068.65.65 0 0 1-.265-.884 120.27 120.27 0 0 0 3.472-7.024.664.664 0 0 1 .868-.33.667.667 0 0 1 .329.87 115.759 115.759 0 0 1-3.51 7.1.645.645 0 0 1-.439.333l-.012.003zM21.435 196.11a.652.652 0 0 1-.673-.275 119.265 119.265 0 0 1-4.223-6.697.643.643 0 0 1 .242-.896.64.64 0 0 1 .893.242 114.331 114.331 0 0 0 4.168 6.628.664.664 0 0 1-.404 1.011l-.003-.013zm-7.915-13.613a.643.643 0 0 1-.718-.359 117.932 117.932 0 0 1-3.26-7.222.653.653 0 1 1 1.208-.495 114.876 114.876 0 0 0 3.229 7.134.654.654 0 0 1-.298.881.63.63 0 0 1-.161.061zm-5.997-14.553a.662.662 0 0 1-.76-.431 113.723 113.723 0 0 1-2.267-7.591.65.65 0 0 1 .463-.795c.323-.121.708.12.806.462.66 2.519 1.415 5.045 2.249 7.501a.67.67 0 0 1-.414.838 2.098 2.098 0 0 1-.077.016zm-4.012-15.238a.64.64 0 0 1-.765-.523c-.501-2.593-.918-5.23-1.235-7.835-.046-.353.22-.677.57-.737a.651.651 0 0 1 .734.571c.311 2.579.733 5.175 1.216 7.744a.657.657 0 0 1-.51.765l-.01.015zm-1.926-15.635-.103.022a.663.663 0 0 1-.692-.62 110.417 110.417 0 0 1-.143-7.93.66.66 0 0 1 .667-.65.66.66 0 0 1 .649.669c-.049 2.588.008 5.233.15 7.834a.647.647 0 0 1-.516.672l-.012.003zm.271-15.748s-.128.027-.197.015a.656.656 0 0 1-.59-.709c.241-2.627.572-5.274.98-7.87a.66.66 0 1 1 1.302.21c-.416 2.557-.74 5.176-.973 7.775a.645.645 0 0 1-.522.579zm2.537-15.539a.662.662 0 0 1-.77-.804l.256-1.021c.55-2.169 1.183-4.395 1.882-6.623a.647.647 0 0 1 .821-.427.65.65 0 0 1 .426.823 121.3 121.3 0 0 0-1.86 6.538l-.245 1.005a.677.677 0 0 1-.5.494l-.01.015zm4.705-15.028a.659.659 0 0 1-.745-.877c.909-2.378 1.92-4.845 2.997-7.313a.664.664 0 0 1 .865-.343.656.656 0 0 1 .342.868 163.26 163.26 0 0 0-2.982 7.257.663.663 0 0 1-.477.408zM15.4 76.32a.594.594 0 0 1-.427-.058.653.653 0 0 1-.303-.876 243.095 243.095 0 0 1 3.36-6.598l.23-.438a.646.646 0 0 1 .881-.265.65.65 0 0 1 .265.884l-.23.437a247.162 247.162 0 0 0-3.34 6.567.65.65 0 0 1-.462.352l.026-.005zm7.413-13.918a.602.602 0 0 1-.458-.079.664.664 0 0 1-.242-.902 190.532 190.532 0 0 1 4.117-6.757c.19-.308.6-.394.91-.191.307.19.393.602.19.913a187.937 187.937 0 0 0-4.086 6.71.65.65 0 0 1-.429.318l-.002-.013zm8.485-13.272a.664.664 0 0 1-.682-1.025c1.526-2.172 3.1-4.314 4.692-6.367a.645.645 0 0 1 .914-.111.65.65 0 0 1 .111.916 166.306 166.306 0 0 0-4.653 6.306.656.656 0 0 1-.4.258l.018.023zm9.65-12.428a.663.663 0 0 1-.566-.15.653.653 0 0 1-.072-.924 147.326 147.326 0 0 1 5.324-5.843.649.649 0 0 1 .92-.018c.254.255.26.67.019.922a153.139 153.139 0 0 0-5.282 5.793.643.643 0 0 1-.358.21l.016.01zm10.941-11.317a.648.648 0 0 1-.618-.206.65.65 0 0 1 .048-.923c1.977-1.81 4-3.537 6.022-5.13a.66.66 0 0 1 .918.103.665.665 0 0 1-.102.92 122.21 122.21 0 0 0-5.94 5.073.622.622 0 0 1-.302.157l-.026.006zM64.2 15.632a.653.653 0 0 1-.674-.274.66.66 0 0 1 .172-.909 90.646 90.646 0 0 1 6.735-4.152.657.657 0 0 1 .897.255.666.666 0 0 1-.254.899 93.157 93.157 0 0 0-6.641 4.092.565.565 0 0 1-.233.102l-.002-.012zm13.715-7.644a.656.656 0 0 1-.736-.382.65.65 0 0 1 .341-.864A77.505 77.505 0 0 1 84.918 3.9a.658.658 0 0 1 .823.418.66.66 0 0 1-.417.826 75.575 75.575 0 0 0-7.271 2.802c-.051.01-.087.031-.126.04l-.012.002zm22.675-6.076-.064.013c-2.503.257-5.017.651-7.466 1.165l-.218.046a.649.649 0 0 1-.775-.508.65.65 0 0 1 .506-.778l.218-.046a71.63 71.63 0 0 1 7.61-1.181.66.66 0 0 1 .192 1.302l-.003-.013z" fill="#FFC82B"/>
</svg>
