<svg width="82" height="85" viewBox="0 0 82 85" fill="none" xmlns="http://www.w3.org/2000/svg">
<g clip-path="url(#clip0_3219_16238)">
<path d="M1.67992 30.4895C1.67992 30.4895 1.90992 33.8395 4.66992 39.6195L8.47992 45.5295L12.5099 50.7895L19.8999 57.9995L22.5099 60.7795L24.3799 62.2895L24.6399 61.7095L25.0799 59.9695L26.0699 56.0895L28.7799 50.7595L34.7699 42.8695L40.0599 37.9995L46.1699 34.1395L53.2299 31.3295L57.0399 30.4495L59.7999 30.0095L57.8099 26.7195L51.2099 18.4895L43.5399 10.4195L38.2099 6.15953L34.1299 3.51953L32.0399 2.51953L30.9399 2.86953L24.5699 6.10953L15.9099 12.3595L8.33992 19.9295L4.40992 26.0095L1.66992 30.4795L1.67992 30.4895Z" fill="#FFF8E3"/>
<path d="M78.2408 35.7498C76.9908 32.5698 75.4508 29.5098 73.6508 26.6098C71.9808 23.9298 69.8808 21.2398 66.8708 20.3298C63.1108 19.1998 59.1908 21.1398 55.7508 23.0298C50.3908 16.1798 44.7908 9.27977 37.4008 4.69977C30.0108 0.119773 20.3808 -1.76023 12.5508 2.00977C5.7308 5.28977 1.2608 12.4998 0.250796 19.9998C-0.759204 27.4998 1.3908 35.1998 5.1508 41.7698C8.9108 48.3398 14.2108 53.8998 19.8408 58.9598C19.7608 59.3798 19.3108 59.8998 19.1008 60.2598C18.0708 62.0898 17.2008 63.8298 16.9108 65.9398C16.4008 69.6398 17.5508 73.4998 20.0108 76.3098C22.1108 78.7098 24.9308 80.1998 27.8508 81.3298C30.4608 82.3398 33.1808 83.0698 35.9408 83.4998C38.7008 83.9298 41.7508 84.2198 44.5808 83.8298C45.6608 83.6798 46.8508 83.3198 47.3508 82.3598C47.9208 81.2698 47.3708 79.9998 46.8508 79.0098C44.7308 74.9598 42.0008 71.2398 38.7708 68.0098C39.6008 67.8398 40.4208 67.6698 41.2508 67.4998C42.3908 70.2598 44.0208 72.8198 46.0208 75.0198C46.3708 75.4098 46.7608 75.7998 47.2608 75.9498C48.7008 76.3698 49.8008 74.6798 50.3408 73.2798C51.6208 76.2898 53.5108 79.0398 55.8708 81.2998C56.7708 82.1698 57.8808 83.0198 59.1408 82.9298C61.2608 82.7798 62.2208 80.2498 62.6808 78.1798C64.1308 79.8098 65.6708 81.4998 67.7208 82.2598C69.7708 83.0198 72.4708 82.5098 73.4608 80.5598C74.7008 78.1198 72.7208 75.3198 72.5208 72.5898C74.2308 73.4398 76.6108 74.1698 77.7708 72.6498C78.4008 71.8398 78.3408 70.6798 78.0808 69.6898C77.5608 67.6898 76.3408 65.8798 74.6808 64.6498C77.0508 65.2398 78.9108 62.0398 78.0908 59.7498C77.2708 57.4598 74.9608 56.0898 72.7908 54.9598C73.7008 54.6298 74.0608 53.4598 73.8108 52.5298C73.5608 51.5998 72.8708 50.8598 72.1808 50.1798C69.7208 47.7598 67.0208 45.5898 64.1308 43.7098C64.2908 43.2298 64.4608 42.7598 64.6208 42.2798C67.7408 45.8498 71.7308 48.6598 76.1408 50.3998C77.1108 50.7798 78.1908 51.1198 79.1808 50.7998C81.3508 50.0898 81.4408 47.0698 80.9708 44.8298C80.3208 41.7298 79.4008 38.6998 78.2408 35.7498ZM0.900796 25.5698C0.760796 24.1798 0.780796 22.7698 0.930796 21.3798C1.1608 19.2498 1.6908 17.1598 2.4608 15.1598C3.3408 12.8398 4.5408 10.6398 6.0508 8.66977C7.7208 6.49977 9.8108 4.63977 12.2208 3.32977C14.6208 2.01977 17.3208 1.30977 20.0408 1.10977C22.7608 0.909774 25.5408 1.19977 28.1908 1.85977C28.5908 1.95977 28.9908 2.06977 29.3808 2.18977C29.5808 2.24977 29.7708 2.30977 29.9708 2.36977C30.0808 2.40977 30.4508 2.59977 30.5508 2.55977C25.3608 4.28977 20.7808 7.47977 16.5908 10.9898C14.5908 12.6598 12.6608 14.4198 10.8508 16.2998C9.0408 18.1798 7.3408 20.1798 5.8308 22.3098C5.0808 23.3698 4.3708 24.4698 3.7308 25.5898C3.4108 26.1498 3.1008 26.7298 2.8008 27.2998C2.6508 27.5898 2.5108 27.8798 2.3708 28.1798C2.2708 28.3898 2.1608 28.8398 1.9608 28.9698C1.4708 29.2898 1.3108 27.8798 1.2508 27.6198C1.1008 26.9398 0.990796 26.2498 0.920796 25.5598L0.900796 25.5698ZM16.4908 53.8598C13.5408 50.7398 10.6008 47.2898 8.1408 43.4998C6.8808 41.6298 5.8008 39.6398 4.8008 37.6598C3.8308 35.6598 3.0008 33.6198 2.3308 31.5798C2.3108 31.5098 2.2908 31.4398 2.2608 31.3598C2.3208 31.1298 2.4108 30.8398 2.5708 30.4198C2.7308 29.9898 3.0808 29.1698 3.7108 28.0898C4.3108 26.9998 5.1508 25.6398 6.1608 24.1598C8.2008 21.1798 11.1608 17.7898 14.4708 14.7598C17.7808 11.7398 21.3608 8.96977 24.3408 6.99977C27.3208 5.01977 29.8108 4.00977 30.6808 3.62977C31.1608 3.41977 31.4808 3.26977 31.7108 3.13977C32.5108 3.50977 33.3008 3.91977 34.0908 4.37977C37.4108 6.23977 40.4808 8.93977 43.4808 11.7098C46.4808 14.4898 49.3708 17.3998 51.9208 20.3298C54.4808 23.2498 56.7208 26.1898 58.5308 28.9198C58.7308 29.2098 58.9108 29.4998 59.0908 29.7798C58.8508 29.7798 58.5908 29.7798 58.2708 29.7898C57.1208 29.8298 53.7708 30.2098 49.7008 31.8598C45.6308 33.4598 40.9108 36.3098 36.8408 39.9698C32.7508 43.6098 29.4108 48.0698 27.4108 52.0198C26.4108 53.9998 25.6608 55.7998 25.2108 57.2698C24.7108 58.7198 24.5008 59.8798 24.4508 60.4898C24.4308 60.8198 24.4308 61.0798 24.4508 61.3098C21.9108 59.1298 19.2008 56.6498 16.5208 53.8698L16.4908 53.8598ZM42.9108 75.1198C43.5908 76.0798 44.2808 77.0498 44.9608 78.0098C45.6508 78.9898 46.3708 80.2198 45.8608 81.2998C45.4708 82.1298 44.4908 82.4898 43.5908 82.6298C41.0808 83.0198 38.4208 82.3198 35.9708 81.8198C31.6808 80.9398 27.0508 80.0398 23.4008 77.4698C20.2108 75.2198 17.4708 71.3198 18.0108 67.2398C18.0408 66.9998 18.0808 66.7698 18.1308 66.5298C18.1608 66.3598 18.2008 66.1998 18.2408 66.0298C18.7708 63.7998 19.7908 61.7298 20.4208 59.5298C22.6808 61.5498 24.9508 63.5798 27.4608 65.2998C30.4608 67.3498 34.2008 68.2998 37.8108 67.9198C39.5108 70.3198 41.2108 72.7198 42.9108 75.1198ZM40.3608 66.0198C40.4408 66.4398 40.5308 66.7298 40.6308 66.9298C40.1408 66.9298 39.4108 66.9598 38.2808 66.9698H37.1208C37.1408 66.7398 37.0708 66.3598 37.0608 65.6698C37.0508 65.2198 37.0408 64.3398 37.2208 63.1498C37.4108 61.9498 37.7208 60.4398 38.3308 58.7998C39.1108 56.5898 40.4408 54.1598 42.2208 51.9598C42.7608 52.6298 43.3508 53.2898 43.9808 53.9498C43.7408 54.2698 43.5208 54.5998 43.3208 54.9298C42.8208 55.7498 42.4508 56.5898 42.1108 57.3798C41.7808 58.1698 41.4808 58.9398 41.2408 59.6798C40.7308 61.1598 40.4208 62.5398 40.3208 63.6498C40.2008 64.7598 40.2808 65.5998 40.3608 66.0198ZM39.9508 45.2198C39.9308 44.8598 39.9508 44.4998 40.0208 44.1398C40.0408 44.0198 40.0708 43.8898 40.1008 43.7698C40.1508 43.5598 40.2308 43.3598 40.2808 43.1498C40.4708 42.4298 40.9508 41.8298 41.6608 41.5898C42.3908 41.3398 43.2008 41.3298 43.9508 41.4798C44.1308 41.5198 44.3208 41.5598 44.5008 41.6198C45.8108 42.0398 46.9208 42.9098 47.9508 43.8198C52.8308 48.1198 56.4908 53.6098 60.0908 59.0298C60.8108 60.1198 61.5408 61.2198 62.0608 62.4098C62.2608 62.8598 62.4108 63.4198 62.1108 63.8098C61.7308 64.3198 60.9408 64.1498 60.3508 63.8998C58.2808 63.0198 56.4008 61.7698 54.5508 60.4998C49.4208 56.9798 44.3008 53.1298 40.9808 47.8698C40.6408 47.3298 40.3108 46.7498 40.1208 46.1298C40.0308 45.8298 39.9708 45.5198 39.9508 45.2098V45.2198ZM65.3908 46.2498C67.4208 47.9798 69.4508 49.7098 71.4808 51.4298C71.8408 51.7398 72.2108 52.0598 72.4008 52.4898C72.5908 52.9198 72.5308 53.4998 72.1408 53.7698C71.8708 53.9598 71.5208 53.9498 71.2008 54.0398C70.8808 54.1298 70.5608 54.4298 70.6708 54.7398C70.7208 54.8998 70.8708 54.9998 71.0008 55.0998C73.4808 56.7998 76.2908 58.6498 76.9308 61.5898C77.0108 61.9598 77.0408 62.3998 76.7908 62.6898C76.6408 62.8698 76.4208 62.9598 76.2108 63.0398C75.3008 63.3598 74.3108 63.4498 73.3608 63.2998C73.2308 63.2798 73.0808 63.2498 72.9608 63.3198C72.7008 63.4598 72.7908 63.8498 72.9208 64.1198C74.1508 66.4598 76.6908 68.2998 76.7208 70.9498C76.7208 71.3998 76.6008 71.9198 76.2008 72.1198C75.9808 72.2298 75.7108 72.2098 75.4708 72.1798C74.1008 72.0098 72.7608 71.5898 71.5508 70.9498C71.3908 70.8598 71.1808 70.7698 71.0308 70.8698C70.8608 70.9798 70.8708 71.2298 70.9108 71.4298C71.3908 74.0698 72.3908 76.6698 72.1508 79.3398C72.1008 79.8698 71.9908 80.4398 71.6008 80.8098C71.0608 81.3398 70.1808 81.2998 69.4408 81.1098C66.9808 80.4598 65.0808 78.5798 62.9208 77.2398C62.6508 77.0698 62.3208 76.9098 62.0208 77.0298C61.7208 77.1598 61.6108 77.5198 61.5208 77.8298C61.2208 78.8798 60.7408 79.8798 60.1108 80.7698C59.8608 81.1198 59.5508 81.4798 59.1308 81.5698C58.5508 81.6898 58.0108 81.2598 57.5708 80.8598C54.9808 78.4198 52.7708 75.5798 51.0208 72.4798C50.7908 72.0698 50.3608 71.5798 49.9408 71.7898C49.7908 71.8698 49.6908 72.0098 49.6108 72.1598C49.0908 72.9998 48.5608 73.8398 48.0408 74.6898C48.0308 74.7098 47.4208 74.2598 47.3608 74.2098C47.1408 74.0398 46.9408 73.8498 46.7408 73.6598C46.3408 73.2698 45.9908 72.8398 45.6608 72.3998C45.3308 71.9598 45.0108 71.4698 44.7108 70.9898C44.4108 70.5098 44.1108 70.0098 43.8108 69.5198C43.5108 69.0298 43.2008 68.5498 42.8708 68.0798C42.5408 67.6098 42.1708 67.1198 41.7608 66.6998C41.5308 66.4698 41.2608 66.3098 41.2708 65.9398C41.2708 65.7698 41.3008 65.5998 41.3108 65.4298C41.3808 64.7498 41.4708 64.0698 41.6008 63.3998C41.7308 62.7298 41.8908 62.0598 42.0708 61.3998C42.2508 60.7398 42.4808 60.0898 42.7208 59.4498C42.9608 58.8098 43.2408 58.1798 43.5408 57.5698C43.8408 56.9598 44.1708 56.3598 44.5308 55.7698C44.6808 55.5198 44.8408 55.2698 45.0008 55.0298C49.2908 58.7998 53.9108 62.2798 59.0708 64.7298C60.1208 65.2298 61.4508 65.6598 62.3608 64.9298C62.9508 64.4598 63.1408 63.6198 63.0908 62.8698C63.0108 61.6098 62.3908 60.4498 61.7608 59.3598C59.4408 55.2998 56.7608 51.4498 53.8408 47.7998C56.1908 46.2098 58.8408 45.0698 61.6108 44.4698C62.0608 44.3698 62.5308 44.2898 62.9608 44.4198C63.3408 44.5298 63.6508 44.7998 63.9508 45.0498C64.4308 45.4498 64.9008 45.8598 65.3808 46.2598L65.3908 46.2498ZM63.6708 43.2398C63.6708 43.3198 63.6608 43.3798 63.6608 43.4398C63.6008 43.4098 63.5508 43.3798 63.5108 43.3598C62.9508 43.1398 62.7708 43.2098 62.6508 43.3798C62.6508 43.3798 62.6508 43.4098 62.6408 43.4098C62.5508 43.4098 62.4608 43.3998 62.3608 43.3898C61.5408 43.3298 59.1008 43.5298 56.2608 44.8598C55.1808 45.3498 54.0608 45.9698 52.9108 46.6798C52.3608 46.0598 51.7908 45.4598 51.2108 44.8798C52.7308 44.1198 54.2408 43.5398 55.6208 43.1098C57.2708 42.5898 58.7708 42.2398 59.9508 42.0598C61.1308 41.8698 61.9908 41.8298 62.4508 41.7998C63.0608 41.7698 63.4508 41.7398 63.7008 41.6898C63.7308 42.4298 63.6908 42.9198 63.6808 43.2398H63.6708ZM63.6408 40.8298C63.6408 40.8798 63.6508 40.9298 63.6608 40.9898C58.9808 40.5798 54.1908 41.5898 50.0608 43.8398C48.8908 42.6898 47.6608 41.5498 46.1808 40.8498C44.7008 40.1498 42.8908 39.9298 41.4308 40.6698C40.2808 41.2498 39.4908 42.3598 39.1208 43.5698C38.9308 44.2098 38.8408 44.8798 38.8808 45.5398C38.9908 47.4798 39.9908 49.2798 41.2808 50.7298C39.5408 53.0798 37.9708 55.5998 37.0008 58.3598C36.0308 61.1198 35.7108 64.1598 36.4508 66.9998C36.4508 66.9698 35.6008 66.9298 35.5208 66.9298C35.2008 66.8998 34.8908 66.8498 34.5708 66.7998C33.9408 66.6998 33.3208 66.5498 32.7108 66.3798C31.4808 66.0298 30.3008 65.5398 29.1808 64.9298C28.0608 64.3198 27.0108 63.5898 26.0508 62.7398C25.8908 62.5998 25.7408 62.4598 25.5908 62.3098C25.4408 62.1598 25.3008 62.0598 25.2308 61.8698C25.0908 61.4998 25.2008 61.0698 25.3108 60.6998C27.6408 53.0398 32.1308 46.0398 38.1408 40.7398C44.1408 35.4398 51.6408 31.8398 59.5308 30.4698C61.7108 33.5298 63.1308 37.1198 63.6408 40.8398V40.8298ZM79.3408 43.4998C79.5908 44.5998 79.7408 45.7098 79.7708 46.8498C79.7908 47.5198 79.7308 48.2398 79.2908 48.7398C78.7308 49.3698 77.7608 49.4198 76.9408 49.2598C75.4908 48.9798 74.1708 48.2398 72.9308 47.4298C70.5008 45.8398 68.2608 43.9798 65.8908 42.2998C65.5908 42.0898 65.2908 41.8798 64.9908 41.6798C64.6608 41.4598 64.6408 41.4198 64.6208 41.0398C64.5908 40.3398 64.5108 39.6298 64.4008 38.9398C64.1708 37.5498 63.7708 36.1798 63.2708 34.8598C62.8908 33.8698 62.4508 32.8998 61.9608 31.9598C60.4308 29.0298 58.4708 26.3498 56.5108 23.6898C58.5208 23.0598 60.4308 22.1398 62.4808 21.6498C65.0508 21.0298 67.7808 21.2198 69.7908 23.0998C70.4508 23.7098 70.9808 24.4498 71.4608 25.1998C73.2808 28.0098 74.4708 31.1598 75.8008 34.2298C77.1208 37.2598 78.6208 40.3098 79.3408 43.5098V43.4998Z" fill="#3B2900"/>
<path d="M30.4713 2.48954C30.3313 2.44954 29.8113 2.77954 29.6713 2.83954C29.3913 2.95954 29.1113 3.08954 28.8413 3.21954C28.2913 3.47954 27.7413 3.74954 27.1913 4.01954C26.1013 4.56954 25.0313 5.15954 23.9813 5.77954C21.8813 7.01954 19.8513 8.38954 17.9213 9.87954C15.9913 11.3695 14.1513 12.9795 12.4213 14.6995C10.6913 16.4195 9.06131 18.2395 7.55131 20.1595C6.04131 22.0795 4.66131 24.0895 3.41131 26.1895C3.05131 26.7895 2.71131 27.3895 2.37131 27.9995C2.26131 28.1995 2.09131 28.7595 1.80131 28.7195C1.48131 28.6795 1.35131 28.0595 1.29131 27.8095C0.801314 25.8995 0.801314 23.8895 0.981314 21.9195C1.47131 16.7395 3.33131 11.6295 6.79131 7.67954C10.2813 3.68954 14.9313 1.39954 20.5313 1.04954C23.8813 0.839536 27.2613 1.52954 30.4713 2.48954Z" fill="#DCF7FF"/>
<path d="M76.2218 59.8502C75.1618 57.9602 73.2018 56.5502 71.3218 55.3602C70.9718 55.1402 70.5618 54.7702 70.7218 54.3902C70.9118 53.9202 71.6318 54.0702 72.0718 53.8202C72.4918 53.5802 72.5818 52.9902 72.4018 52.5402C72.2218 52.0902 71.8418 51.7602 71.4718 51.4502C68.9818 49.3302 66.5018 47.2002 64.0118 45.0802C63.7018 44.8102 63.3718 44.5402 62.9718 44.4202C62.5218 44.2902 62.0418 44.3702 61.5818 44.4702C58.8318 45.0702 56.1918 46.2102 53.8518 47.7902C56.9918 51.8902 60.1418 56.0302 62.3918 60.6702C62.7418 61.4002 63.0818 62.1702 63.1218 62.9802C63.1618 63.7902 62.8318 64.6702 62.1318 65.0802C61.2218 65.6102 60.0718 65.2002 59.1118 64.7502C53.9318 62.3002 49.3218 58.8002 45.0018 55.0302C45.0018 55.0302 44.3518 56.0702 44.2918 56.1702C44.0618 56.5602 43.8418 56.9602 43.6418 57.3702C43.2318 58.1802 42.8718 59.0202 42.5618 59.8802C41.9418 61.5902 41.5118 63.3802 41.3018 65.1902C41.2618 65.5102 41.1218 66.0002 41.3218 66.2802C41.4018 66.3902 41.5218 66.4802 41.6218 66.5702C41.7618 66.7002 41.8818 66.8402 42.0118 66.9902C42.5118 67.5602 42.9418 68.1802 43.3518 68.8202C44.1718 70.0902 44.8918 71.4402 45.8218 72.6402C46.4318 73.4302 47.1418 74.1402 47.9918 74.6802C48.5318 73.8402 49.0718 73.0102 49.6018 72.1702C49.7718 71.9102 50.0418 71.6102 50.3318 71.7002C50.5018 71.7602 50.6018 71.9202 50.6918 72.0702C52.5318 75.3102 54.8418 78.2902 57.5318 80.8702C57.9618 81.2802 58.5118 81.7202 59.0918 81.5802C59.4418 81.4902 59.7118 81.2102 59.9418 80.9202C60.6318 80.0402 61.1518 79.0302 61.4418 77.9502C61.5518 77.5502 61.7018 77.0802 62.1018 76.9902C62.3518 76.9402 62.5918 77.0702 62.8118 77.2002C65.1418 78.6102 67.1818 80.7402 69.8618 81.1902C70.3018 81.2602 70.7818 81.2802 71.1818 81.0902C71.9318 80.7202 72.1418 79.7502 72.1618 78.9202C72.2218 76.4102 71.3818 73.9802 70.8718 71.5202C70.8218 71.2702 70.8218 70.9302 71.0618 70.8602C71.1918 70.8202 71.3318 70.8902 71.4518 70.9502C72.6518 71.5702 73.9518 71.9802 75.2818 72.1902C75.5418 72.2302 75.8018 72.2602 76.0418 72.1702C76.6018 71.9502 76.7418 71.2102 76.6618 70.6202C76.3518 68.1502 74.1418 66.4102 72.8918 64.2602C72.7318 63.9902 72.6118 63.6002 72.8518 63.4002C73.0118 63.2702 73.2518 63.3102 73.4518 63.3402C74.3418 63.4802 75.2618 63.3902 76.1118 63.0902C76.3318 63.0102 76.5618 62.9102 76.7118 62.7202C76.9618 62.4102 76.9318 61.9602 76.8418 61.5702C76.7018 60.9602 76.4718 60.4002 76.1818 59.8702L76.2218 59.8502ZM50.3618 66.4202C50.1918 66.5302 50.0418 66.6002 49.8018 66.5102C49.4918 66.3702 48.6918 65.2802 48.0618 64.0702C47.4218 62.8702 46.9518 61.5902 46.9818 61.2602C47.0118 61.0002 47.1418 60.9102 47.2818 60.8502C47.4718 60.7602 47.6218 60.7202 47.8418 60.8502C48.1318 61.0302 48.7218 62.1802 49.3418 63.3302C49.9518 64.4702 50.5618 65.6302 50.5818 65.9602C50.5918 66.2202 50.4918 66.3202 50.3518 66.4202H50.3618ZM60.7118 50.6402C60.6418 50.4002 60.7118 50.2602 60.8218 50.1402C60.9618 49.9902 61.0818 49.8802 61.3318 49.9102H61.3418C61.6918 49.9602 62.7718 50.8502 63.7118 51.8702C64.6618 52.9002 65.4618 54.0502 65.5118 54.3902C65.5518 54.6502 65.4618 54.7702 65.3318 54.8702C65.3218 54.8702 65.3118 54.8902 65.3018 54.8902C65.1518 55.0102 65.0118 55.0702 64.7818 55.0002C64.4618 54.8902 63.5618 53.9102 62.6518 52.9202C61.7518 51.9302 60.8218 50.9402 60.7218 50.6302L60.7118 50.6402ZM62.4118 69.7802C62.5418 69.6202 62.6618 69.5202 62.8518 69.4802C63.3618 69.4202 65.4418 71.4202 65.4818 71.9002C65.5018 72.0902 65.4118 72.2202 65.3018 72.3502C65.1718 72.5102 65.0518 72.6102 64.8618 72.6402C64.3518 72.7002 62.2718 70.7002 62.2318 70.2202C62.2118 70.0302 62.3018 69.9102 62.4118 69.7802ZM54.5218 69.5602C54.5718 69.3602 54.7118 69.2902 54.8618 69.2202C55.0518 69.1402 55.2018 69.0902 55.3918 69.1602C55.6318 69.2502 56.0618 69.9802 56.5818 70.6402C57.0918 71.3102 57.7118 71.9002 57.7818 72.1402C57.8318 72.3302 57.7718 72.4702 57.6818 72.6102C57.5718 72.7902 57.4518 72.9102 57.2518 72.9602C56.9718 73.0102 56.0918 72.4402 55.4518 71.6302C54.7918 70.8202 54.4518 69.8402 54.5218 69.5702V69.5602ZM68.4418 62.5802C68.4218 62.7702 68.3218 62.8802 68.1918 62.9902C68.0318 63.1202 67.8918 63.2002 67.6918 63.1902C67.5718 63.1802 67.3818 63.0402 67.1718 62.8102C66.9218 62.5502 66.6418 62.1802 66.4118 61.7802C66.0618 61.2102 65.8018 60.6102 65.7318 60.2502C65.7118 60.1502 65.7018 60.0602 65.7218 60.0002C65.7718 59.8102 65.9018 59.7302 66.0418 59.6502C66.2218 59.5502 66.3718 59.4902 66.5618 59.5302C66.8018 59.5902 67.2418 60.2602 67.6618 60.9402C68.0718 61.6202 68.4818 62.3202 68.4518 62.5702L68.4418 62.5802Z" fill="#FBB03B"/>
<path d="M45.9806 80.1898C46.0306 80.4998 46.0205 80.8098 45.9205 81.1198C45.6005 82.0998 44.4906 82.5698 43.4706 82.7198C41.8206 82.9598 40.1306 82.6698 38.4906 82.3598C33.5206 81.4298 28.5106 80.3498 23.9806 78.0898C21.5906 76.8998 20.2406 74.6498 18.8706 72.4498C18.5406 71.9198 18.3006 71.3398 18.1406 70.7398C17.9806 70.1398 17.9106 69.4998 17.8906 68.8698C17.8706 68.2398 17.9306 67.5898 18.0306 66.9598C18.0806 66.6698 18.1306 66.3898 18.2006 66.1098C18.7206 63.8798 19.7406 61.7898 20.4006 59.5898C22.8406 61.8598 25.3106 64.1498 28.2006 65.8098C31.0906 67.4698 34.4706 68.4898 37.7605 67.9798C40.1705 71.3898 42.5806 74.7998 44.9906 78.1998C45.4106 78.7998 45.8506 79.4798 45.9706 80.1798L45.9806 80.1898Z" fill="#FFB936"/>
<path d="M43.9812 53.95C43.7412 54.27 43.5212 54.6 43.3212 54.93C42.8212 55.75 42.4512 56.59 42.1112 57.38C41.7812 58.17 41.4812 58.94 41.2412 59.68C40.7312 61.16 40.4212 62.54 40.3212 63.65C40.2012 64.76 40.2812 65.6 40.3612 66.02C40.4412 66.44 40.5312 66.73 40.6312 66.93C40.1412 66.93 39.4112 66.96 38.2812 66.97H37.1212C37.1412 66.74 37.0712 66.36 37.0612 65.67C37.0512 65.22 37.0412 64.34 37.2212 63.15C37.4112 61.95 37.7212 60.44 38.3312 58.8C39.1112 56.59 40.4412 54.16 42.2212 51.96C42.7612 52.63 43.3512 53.29 43.9812 53.95Z" fill="#3B2900"/>
<path d="M63.6909 41.6895C63.7209 42.4295 63.6809 42.9195 63.6709 43.2395C63.6709 43.3195 63.6609 43.3795 63.6609 43.4395C63.6009 43.4095 63.5509 43.3795 63.5109 43.3595C62.9509 43.1395 62.7709 43.2095 62.6509 43.3795C62.6509 43.3795 62.6509 43.4095 62.6409 43.4095C62.5509 43.4095 62.4609 43.3995 62.3609 43.3895C61.5409 43.3295 59.1009 43.5295 56.2609 44.8595C55.1809 45.3495 54.0609 45.9695 52.9109 46.6795C52.3609 46.0595 51.7909 45.4595 51.2109 44.8795C52.7309 44.1195 54.2409 43.5395 55.6209 43.1095C57.2709 42.5895 58.7709 42.2395 59.9509 42.0595C61.1309 41.8695 61.9909 41.8295 62.4509 41.7995C63.0609 41.7695 63.4509 41.7395 63.7009 41.6895H63.6909Z" fill="#3B2900"/>
<path d="M62.4307 63.2897C62.4307 63.5097 62.4007 63.7097 62.2707 63.8897C62.0507 64.1897 61.6407 64.2997 61.2707 64.2597C60.9007 64.2197 60.5606 64.0497 60.2306 63.8797C59.3207 63.4097 58.4306 62.9197 57.5506 62.3997C56.6707 61.8797 55.7907 61.3497 54.9307 60.7897C54.0707 60.2297 53.2207 59.6497 52.3907 59.0497C51.5607 58.4497 50.7407 57.8297 49.9406 57.1897C49.1406 56.5497 48.3507 55.8897 47.5807 55.2097C46.8107 54.5297 46.0607 53.8297 45.3207 53.1197C44.2707 52.0997 43.2507 51.0497 42.3407 49.8997C41.4507 48.7797 40.5807 47.5597 40.1307 46.1897C40.0907 46.0697 40.0607 45.9597 40.0207 45.8397C39.9807 45.7197 39.9606 45.6097 39.9406 45.4997C39.6706 44.2397 39.8907 42.7797 40.8607 41.9297C41.5907 41.2897 42.6307 41.1097 43.5907 41.2597C44.5507 41.4097 45.4307 41.8697 46.2407 42.3997C48.2207 43.6797 49.8807 45.3797 51.4307 47.1497C54.1107 50.1997 56.5007 53.4997 58.7907 56.8597C59.9907 58.6197 61.1706 60.4097 62.1206 62.3197C62.2706 62.6197 62.4107 62.9797 62.4307 63.3097V63.2897Z" fill="#FFB936"/>
<path d="M63.651 40.8295C63.661 40.8995 63.671 40.9795 63.681 41.0495C59.061 40.1695 54.361 41.8995 50.061 43.8095C48.891 42.7095 47.691 41.5795 46.251 40.8695C45.351 40.4195 44.351 40.1495 43.351 40.1595C42.351 40.1695 41.391 40.4895 40.631 41.1295C39.901 41.7395 39.381 42.5995 39.101 43.5095C38.921 44.0895 38.831 44.6895 38.841 45.2995C38.841 45.3395 38.841 45.3795 38.841 45.4195C38.931 47.3995 39.951 49.2495 41.291 50.7195C39.541 53.0695 37.971 55.5895 37.001 58.3495C36.031 61.1095 35.711 64.1594 36.461 66.9894C36.461 66.9594 35.821 66.9494 35.761 66.9494C35.521 66.9294 35.281 66.8995 35.051 66.8695C34.581 66.8095 34.101 66.7195 33.641 66.6195C32.711 66.4095 31.791 66.1195 30.901 65.7595C30.011 65.3995 29.161 64.9594 28.351 64.4494C27.541 63.9394 26.771 63.3595 26.061 62.7195C25.881 62.5595 25.711 62.3995 25.541 62.2295C25.411 62.1095 25.251 61.9895 25.161 61.8295C25.071 61.6695 25.111 61.4895 25.161 61.3195C25.231 61.0895 25.291 60.8595 25.361 60.6295C25.641 59.7095 25.951 58.7895 26.291 57.8895C26.631 56.9895 27.001 56.0995 27.401 55.2195C27.801 54.3395 28.231 53.4795 28.691 52.6295C29.151 51.7795 29.631 50.9495 30.151 50.1295C30.671 49.3095 31.201 48.5195 31.771 47.7395C32.341 46.9595 32.931 46.1995 33.551 45.4595C34.171 44.7195 34.811 43.9995 35.471 43.2995C36.131 42.5995 36.821 41.9295 37.541 41.2795C37.601 41.2295 37.651 41.1795 37.711 41.1195C43.801 35.6095 51.471 31.8795 59.551 30.4395C61.721 33.5095 63.141 37.0995 63.671 40.8195L63.651 40.8295Z" fill="#DCF7FF"/>
<path d="M79.6517 45.4096C79.7117 45.8596 79.7517 46.3196 79.7717 46.7696C79.8017 47.4296 79.7817 48.1396 79.3717 48.6596C78.8117 49.3696 77.7517 49.4196 76.8717 49.2396C75.3217 48.9196 73.9117 48.0996 72.6017 47.2096C70.1717 45.5796 67.9117 43.6996 65.5117 42.0296C65.2917 41.8696 64.8017 41.6696 64.6617 41.4396C64.5417 41.2396 64.6117 40.8296 64.6017 40.5996C64.5517 39.8996 64.4617 39.1996 64.3317 38.5096C64.0717 37.1196 63.6517 35.7696 63.1217 34.4596C62.7817 33.6096 62.3917 32.7696 61.9617 31.9496C60.4317 29.0196 58.4717 26.3396 56.5117 23.6796C58.4917 23.0396 60.3817 22.1396 62.4017 21.6496C64.3817 21.1696 66.5217 21.1796 68.3617 22.1096C69.9717 22.9296 71.0017 24.2896 71.8917 25.8196C72.6217 27.0696 73.2217 28.3796 73.8017 29.7096C74.0717 30.3296 74.3417 30.9596 74.6117 31.5796C76.5917 36.0796 79.0417 40.5496 79.6517 45.3896V45.4096Z" fill="#FFB936"/>
<path d="M38.6212 19.2396C37.7612 17.4596 36.5512 15.8496 35.0312 14.5796C33.1212 12.9696 30.7312 11.9096 28.2412 11.6996C23.8712 11.3296 19.6512 13.5496 16.3212 16.3996C14.4012 18.0396 12.6112 19.9896 11.6212 22.3596C10.6812 24.6196 10.5212 27.1496 10.9512 29.5596C11.4912 32.5696 13.0012 35.4196 15.2412 37.4996C17.6812 39.7596 21.1012 41.0996 24.4212 41.0796C24.9712 41.0796 25.5212 41.0396 26.0712 40.9696C28.5212 40.6596 30.8612 39.7196 32.9712 38.4396C35.2412 37.0596 37.3012 35.2296 38.5912 32.8996C39.8312 30.6596 40.3112 28.0396 40.1912 25.4796C40.0912 23.3296 39.5512 21.1896 38.6112 19.2596L38.6212 19.2396ZM38.7212 26.3196C38.7112 28.3096 38.2912 30.2896 37.3512 32.0296C36.1112 34.3396 34.0412 36.1196 31.7612 37.4196C29.8912 38.4896 27.8412 39.2796 25.7012 39.5296C22.3612 39.9296 18.8412 38.8496 16.3212 36.6096C14.1212 34.6596 12.6812 31.8796 12.1412 28.9996C11.7012 26.6496 11.8112 24.1496 12.8312 21.9896C13.9012 19.6996 15.8912 17.9596 17.9712 16.5096C20.8512 14.4996 24.2112 12.8496 27.7212 13.0496C30.6112 13.2096 33.3712 14.6696 35.3012 16.8296C37.2312 18.9896 38.3512 21.8196 38.6512 24.6996C38.7112 25.2396 38.7312 25.7796 38.7312 26.3196H38.7212Z" fill="#3B2900"/>
<path d="M37.3617 19.9401C35.6017 16.0301 31.8817 13.5201 28.3817 13.0901C26.6317 12.8601 24.9517 13.1301 23.4717 13.6101C21.9917 14.0901 20.7017 14.7701 19.6117 15.4201C17.4117 16.7601 15.9817 18.0101 15.2817 18.6801C14.1817 19.7301 13.2117 20.9401 12.6217 22.3601C11.9517 23.9601 11.8517 25.7501 11.9317 27.4701C11.9917 28.7301 12.2517 30.1501 12.8017 31.6101C13.3417 33.0701 14.2217 34.5501 15.4517 35.8401C17.8917 38.4101 21.9917 40.0801 26.1617 39.5101C28.2417 39.2601 30.2117 38.3301 32.1417 37.1101C34.0517 35.9201 35.8817 34.5201 37.0617 32.6701C38.2317 30.8501 38.6817 28.5501 38.7017 26.3201C38.7217 24.0901 38.2517 21.8701 37.3617 19.9401ZM36.6417 25.2001C36.7517 26.2701 36.7117 27.3601 36.5017 28.4201C35.7517 32.1201 32.8617 35.1501 29.4217 36.7001C27.8717 37.4001 26.1517 37.8201 24.4417 37.7701C22.7317 37.7201 21.2817 37.0801 19.8517 36.2501C17.2317 34.7301 15.2017 32.1801 14.4117 29.2501C13.5517 26.0401 14.2617 22.4101 16.2817 19.7501C17.4617 18.2001 19.0717 17.0501 20.7517 16.1001C22.5017 15.1001 24.4217 14.2901 26.4317 14.2601C28.4717 14.2401 30.4817 15.0501 32.0617 16.3501C33.6417 17.6501 34.8116 19.4001 35.6017 21.2801C36.1217 22.5301 36.4917 23.8501 36.6217 25.2001H36.6417Z" fill="#FFFCF3"/>
<path d="M34.9902 19.9197C34.3002 18.6397 33.4102 17.4697 32.3102 16.5297C30.6502 15.0997 28.4902 14.1997 26.3102 14.2597C24.3102 14.3197 22.4002 15.1497 20.6702 16.1497C17.7802 17.8297 15.2602 20.3197 14.4102 23.6597C14.4102 23.6997 14.3902 23.7297 14.3802 23.7697C13.9502 25.5497 13.9502 27.4297 14.4202 29.1997C14.4202 29.2197 14.4202 29.2297 14.4302 29.2497C15.2402 32.2397 17.3402 34.8297 20.0302 36.3297C21.1602 36.9597 22.3202 37.5397 23.6202 37.6997C24.9802 37.8697 26.3802 37.6997 27.6902 37.3197C29.9802 36.6597 32.1002 35.3897 33.7302 33.6497C35.2102 32.0697 36.2802 30.0697 36.6202 27.9297C36.9302 25.9197 36.6002 23.8497 35.9002 21.9397C35.6502 21.2497 35.3502 20.5697 35.0002 19.9197H34.9902ZM35.1902 25.4097C35.3702 27.0697 35.0602 28.7397 34.3102 30.2497C33.5702 31.7697 32.4302 33.0497 31.0902 34.0197C29.7502 34.9897 28.2002 35.6697 26.6402 36.0797C25.8702 36.2797 25.1102 36.3897 24.3902 36.3397C23.6702 36.2997 22.9502 36.0897 22.2502 35.8197C20.8502 35.2997 19.6202 34.5097 18.6202 33.5997C17.6102 32.6897 16.8402 31.6397 16.3002 30.6097C15.7702 29.5697 15.4502 28.5297 15.3002 27.5997C15.0002 25.8097 15.0902 23.8497 15.8602 22.1797C16.5302 20.7197 17.7002 19.5797 18.9902 18.6597C19.4302 18.3397 19.8902 18.0497 20.3602 17.7797C21.2102 17.2797 22.1802 16.7297 23.2802 16.2997C24.3702 15.8697 25.6202 15.5497 26.9202 15.6597C28.2302 15.7597 29.5902 16.2797 30.7802 17.1397C31.9702 17.9997 33.0002 19.2497 33.7402 20.6897C34.4902 22.1297 35.0302 23.7697 35.1902 25.4297V25.4097Z" fill="#3B2900"/>
<path d="M65.5099 54.3895C65.5499 54.6495 65.4499 54.7695 65.3299 54.8695C65.1799 54.9995 65.0299 55.0795 64.7799 54.9995C64.4599 54.8895 63.5599 53.9095 62.6499 52.9195C61.7499 51.9295 60.8299 50.9495 60.7199 50.6295C60.6399 50.3795 60.7199 50.2595 60.8299 50.1295C60.9699 49.9795 61.0899 49.8695 61.3499 49.8995C61.6999 49.9495 62.7699 50.8395 63.7199 51.8595C64.6699 52.8895 65.4699 54.0395 65.5199 54.3795L65.5099 54.3895Z" fill="#3B2900"/>
<path d="M68.4408 62.5799C68.4308 62.7699 68.3208 62.8799 68.1908 62.9799C68.0308 63.1099 67.8908 63.1899 67.6908 63.1799C67.4308 63.1499 66.8608 62.5199 66.4108 61.7799C65.9608 61.0499 65.6508 60.2499 65.7208 60.0099C65.7708 59.8199 65.8908 59.7399 66.0408 59.6599C66.2208 59.5599 66.3708 59.4999 66.5608 59.5399C66.8008 59.5999 67.2408 60.2699 67.6608 60.9499C68.0708 61.6399 68.4708 62.3299 68.4508 62.5799H68.4408Z" fill="#3B2900"/>
<path d="M50.5907 65.9598C50.6007 66.2198 50.5007 66.3198 50.3607 66.4198C50.1907 66.5398 50.0307 66.5998 49.8007 66.5098C49.4907 66.3698 48.6907 65.2798 48.0607 64.0698C47.4207 62.8798 46.9507 61.5998 46.9907 61.2598C47.0207 61.0098 47.1507 60.9198 47.3007 60.8498C47.4807 60.7598 47.6407 60.7198 47.8607 60.8498C48.1407 61.0298 48.7407 62.1798 49.3607 63.3198C49.9707 64.4598 50.5707 65.6198 50.6007 65.9498L50.5907 65.9598Z" fill="#3B2900"/>
<path d="M57.7807 72.1297C57.8207 72.3197 57.7607 72.4597 57.6807 72.5997C57.5707 72.7797 57.4607 72.8997 57.2507 72.9397C56.9707 72.9797 56.0907 72.4197 55.4507 71.6097C54.7907 70.7997 54.4507 69.8197 54.5207 69.5497C54.5807 69.3497 54.7107 69.2697 54.8607 69.2097C55.0407 69.1197 55.2007 69.0797 55.3907 69.1497C55.6407 69.2497 56.0607 69.9697 56.5807 70.6297C57.0907 71.2997 57.7107 71.8897 57.7807 72.1297Z" fill="#3B2900"/>
<path d="M65.4815 71.8996C65.4915 72.0896 65.4115 72.2196 65.3015 72.3396C65.1615 72.4996 65.0515 72.5996 64.8515 72.6396C64.3415 72.6996 62.2615 70.6996 62.2215 70.2196C62.2115 70.0296 62.2915 69.9096 62.4015 69.7896C62.5415 69.6296 62.6515 69.5196 62.8515 69.4896C63.3615 69.4296 65.4415 71.4296 65.4815 71.9096V71.8996Z" fill="#3B2900"/>
<g style="mix-blend-mode:multiply" opacity="0.22">
<path d="M62.3005 63.2198C62.2705 63.4098 62.2105 63.6398 62.0805 63.8598C62.0005 63.9698 61.8905 64.0898 61.6905 64.1398C61.4705 64.1998 61.1005 64.1598 60.6305 63.9998C59.6705 63.6998 58.5205 63.1098 57.2605 62.2898C54.7105 60.5998 51.5005 58.5098 48.5805 56.1298C47.7905 55.4898 47.0305 54.8298 46.3105 54.1598C48.5805 55.0298 50.5705 56.8998 53.3505 55.1798C55.0205 54.1398 55.0305 52.5298 54.3505 50.7998C56.2305 53.2198 57.9005 55.7298 59.2705 57.8098C60.0705 59.0298 60.7805 60.1098 61.3305 60.9598C61.8605 61.7798 62.0905 62.3998 62.1805 62.7298C62.2505 62.9198 62.2905 63.0898 62.3105 63.2398H62.3005V63.2198Z" fill="#FF6520"/>
</g>
<g style="mix-blend-mode:multiply" opacity="0.22">
<path d="M79.6111 45.4199C79.6811 46.0499 79.7811 46.7299 79.8011 47.2799C79.8011 47.8499 79.7111 48.2699 79.4311 48.6099C79.1611 48.9399 78.7211 49.1899 78.2711 49.2899C77.3211 49.4899 76.2111 49.1499 75.2311 48.7299C74.2311 48.2899 73.3211 47.7199 72.4711 47.1399C69.0711 44.7599 66.6011 42.7699 65.6911 42.1399C65.1811 41.7799 64.8211 41.5499 64.5611 41.4099C64.5611 41.1999 64.5811 40.9799 64.5811 40.7299C64.5811 40.2399 64.5311 39.4999 64.3711 38.5899C67.7911 38.7699 72.9411 41.5499 72.3211 35.6499C72.0311 32.9599 71.1311 30.3799 69.9311 27.9699C69.3611 26.8199 68.7211 25.7099 68.0611 24.6099C67.7211 24.0599 67.3811 23.5099 67.0311 22.9699C66.8611 22.6999 66.6811 22.4299 66.5011 22.1599C66.3611 21.9499 66.0511 21.6199 66.0211 21.3799C66.7511 21.3799 67.6211 21.7599 68.2611 22.0899C70.2411 23.0999 71.4811 24.9999 72.4911 26.9099C73.0311 27.9199 73.5011 28.9599 73.9611 29.9999C74.8111 31.9299 75.7711 34.0999 76.7911 36.3799C77.7711 38.6899 78.9111 40.9799 79.3311 43.5199C79.4411 44.1499 79.5511 44.7799 79.6311 45.4199H79.6111Z" fill="#FF6520"/>
</g>
<g style="mix-blend-mode:multiply" opacity="0.22">
<path d="M46.0212 80.1794C46.0712 80.4194 46.0812 80.6594 46.0212 80.9094C45.8913 81.5594 45.3612 82.0794 44.7612 82.3494C44.1612 82.6194 43.4812 82.6894 42.8212 82.7094C39.1912 82.8394 35.6213 81.8794 32.1112 80.9194C27.9113 79.7794 21.7413 78.5494 20.0312 73.9294C22.4613 74.0594 24.7412 75.0894 26.9912 76.0294C29.2412 76.9694 31.6213 77.8394 34.0413 77.6194C34.6713 77.5594 35.3012 77.4294 35.8412 77.1094C36.3813 76.7894 36.8212 76.2594 36.9212 75.6394C37.0512 74.8394 36.6112 74.0794 36.1612 73.4094C34.5012 70.9194 32.4312 68.6994 30.0712 66.8594C32.1812 67.6994 34.4713 68.0994 36.7413 68.0194C37.1313 68.0094 37.5613 67.9894 37.8813 68.2094C38.0413 68.3194 38.1512 68.4894 38.2712 68.6494C40.5712 71.9294 42.8813 75.2094 45.1812 78.4894C45.5413 78.9994 45.9112 79.5694 46.0312 80.1594L46.0212 80.1794Z" fill="#FF6520"/>
</g>
<g style="mix-blend-mode:multiply" opacity="0.29">
<path d="M49.0812 25.0296C43.9212 16.9396 36.9812 10.3596 29.9512 3.93965C30.2512 3.80965 30.5012 3.69965 30.6712 3.62965C31.1512 3.41965 31.4712 3.26965 31.7012 3.13965C32.5012 3.50965 33.2912 3.91965 34.0812 4.37965C37.4012 6.24965 40.4612 8.94965 43.4712 11.7196C46.4712 14.4996 49.3612 17.4096 51.9012 20.3296C54.4612 23.2396 56.7012 26.1896 58.5112 28.9196C58.7112 29.2097 58.8912 29.4996 59.0712 29.7796C58.8412 29.7796 58.5712 29.7796 58.2512 29.7796C57.3512 29.8197 55.0912 30.0596 52.1912 30.9596C51.4512 28.8796 50.2812 26.9196 49.0812 25.0396H49.0912L49.0812 25.0296Z" fill="#D51F91"/>
</g>
<g style="mix-blend-mode:multiply" opacity="0.26">
<path d="M55.2016 41.7895C53.6016 42.2395 51.8416 42.9095 50.0816 43.7995C49.9516 43.6695 49.8116 43.5495 49.6816 43.4295C50.6516 41.4695 52.1716 39.6595 52.7016 37.3795C53.1116 35.5795 53.0116 33.8495 52.5816 32.1995C55.3716 31.2495 57.5416 30.8995 58.4016 30.7295C58.9116 30.6295 59.2716 30.5495 59.5416 30.4795C60.0416 31.2895 60.5116 32.0695 60.9316 32.8095C61.6416 34.0095 62.1416 35.1695 62.5316 36.2295C63.3116 38.3395 63.5416 39.9895 63.6216 40.8295C63.6416 40.9195 63.6316 40.9895 63.6416 41.0795C63.3916 40.9895 63.0216 40.8995 62.4416 40.8295C61.9616 40.7695 61.0116 40.7395 59.7516 40.8695C58.4916 40.9995 56.9416 41.2995 55.1916 41.7995L55.2016 41.7895Z" fill="#5EBF50"/>
</g>
<g style="mix-blend-mode:multiply" opacity="0.38">
<path d="M76.9809 61.8998C77.0209 62.2098 76.9809 62.4798 76.9109 62.6298C76.8409 62.7698 76.7509 62.8498 76.5009 62.9498C75.3909 63.3398 74.4009 63.3498 74.0709 63.4198C73.9109 63.4498 73.8009 63.4898 73.7109 63.5398C73.7009 63.5398 73.6909 63.5198 73.6909 63.5098C73.2609 63.1598 73.0809 63.1598 72.9009 63.2598C72.7609 63.3398 72.6709 63.4998 72.9109 64.0798C73.0609 64.4598 73.7209 65.3898 74.6109 66.4698C75.0609 67.0198 75.5309 67.6298 75.9209 68.3098C76.3209 68.9798 76.6209 69.7298 76.7209 70.4498C76.8309 71.2098 76.6409 71.9198 76.3209 72.0598C75.9909 72.2798 75.2309 72.1698 74.5909 72.0198C73.3009 71.7198 72.3709 71.2898 72.0109 71.1998C71.8909 71.1698 71.7809 71.1498 71.6909 71.1498C71.4309 70.7698 71.2609 70.7198 71.1109 70.7698C70.9609 70.8198 70.8609 70.9798 70.9809 71.7798C71.0609 72.2798 71.4909 73.6698 71.8709 75.5098C72.0409 76.4198 72.2009 77.4498 72.2209 78.5298C72.2609 79.5898 72.0609 80.6598 71.4009 80.9798C70.7109 81.3798 69.5909 81.2098 68.6609 80.8498C67.7209 80.4698 66.8609 79.9098 66.0909 79.3798C64.5109 78.3198 63.4009 77.4898 62.9909 77.2198C62.3909 76.8498 62.2009 76.8698 62.0609 77.0098H62.0409C61.8709 77.0098 61.7609 77.1398 61.5809 77.7498C61.5209 77.9398 61.4109 78.3298 61.2109 78.8298C61.0009 79.3298 60.6709 79.9398 60.2309 80.6498C60.0309 80.9798 59.8009 81.2798 59.5709 81.4198C59.3509 81.5498 59.0609 81.5898 58.7109 81.4998C58.0509 81.3598 57.3409 80.6298 56.6209 79.8998C56.0309 79.3098 55.4809 78.6898 54.9609 78.0698C56.7109 77.1498 58.2509 77.4198 58.8709 74.7398C59.1909 73.3398 59.0609 71.7498 58.5209 70.4398C60.9009 70.1898 62.2609 73.2298 64.2409 72.9398C67.6109 72.4398 64.4109 67.2698 64.1309 65.6398C66.0609 65.0498 68.1209 67.9198 67.4809 63.8198C67.4209 63.4898 67.3409 63.1498 67.2109 62.8098C66.9009 61.9298 66.3909 61.0198 65.7609 60.2598C65.2309 59.5998 64.6109 59.0498 63.9909 58.7198C64.7609 56.5398 66.4409 57.0798 65.3209 54.9098C65.2609 54.7798 65.1809 54.6498 65.1009 54.4998C64.1409 52.8498 62.7909 51.3198 61.3609 49.9198C60.7109 49.2798 60.0409 48.6798 59.3909 48.1098C58.5409 47.3698 57.7509 46.6598 56.9709 46.0498C59.5609 44.7798 61.7009 44.4898 62.4409 44.3698C62.6909 44.3298 62.9009 44.2898 63.0609 44.2598C63.4109 44.6098 64.2909 45.3398 65.4109 46.2698C66.5309 47.1898 67.9009 48.3298 69.2309 49.4898C69.9309 50.0898 70.6609 50.6998 71.2709 51.2598C71.5809 51.5498 71.8509 51.8298 72.0709 52.1198C72.3009 52.4098 72.5009 52.7098 72.5709 52.9198C72.6509 53.1498 72.6309 53.1998 72.5709 53.3398C72.5109 53.4798 72.3709 53.6098 72.2309 53.6898C71.9409 53.8598 71.5909 53.9098 71.4209 53.9598C71.1409 54.0298 70.9809 54.1098 70.8909 54.1998C70.7809 54.2398 70.7209 54.2998 70.6809 54.3898C70.6109 54.5298 70.6109 54.7098 71.0309 55.0898C71.3009 55.3398 72.1809 55.8698 73.2509 56.6398C74.3009 57.4198 75.5209 58.4898 76.2809 59.8398C76.6609 60.4898 76.9209 61.2498 77.0009 61.8998H76.9809Z" fill="#FFC82A"/>
</g>
<g style="mix-blend-mode:multiply" opacity="0.22">
<path d="M35.181 25.4102C35.361 27.0702 35.051 28.7402 34.301 30.2502C33.561 31.7702 32.421 33.0502 31.081 34.0302C29.741 35.0002 28.191 35.6902 26.631 36.0902C25.861 36.2902 25.101 36.4002 24.381 36.3502C23.661 36.3102 22.941 36.1002 22.241 35.8302C21.911 35.7102 21.601 35.5702 21.291 35.4202C21.291 35.4202 21.291 35.4202 21.291 35.4102C22.691 34.7702 24.291 35.5102 25.761 35.3602C26.881 35.2402 28.041 34.6102 28.971 34.0102C31.021 32.6902 32.431 30.5202 32.781 28.0902C33.151 25.5402 32.881 23.2202 31.441 21.0502C30.731 19.9702 29.821 18.8702 28.881 17.9802C28.181 17.3302 26.771 16.1402 25.561 15.6702C26.001 15.6102 26.461 15.6002 26.921 15.6402C28.231 15.7502 29.591 16.2602 30.781 17.1302C31.981 17.9902 33.001 19.2302 33.741 20.6702C34.501 22.1102 35.031 23.7502 35.191 25.4102H35.201H35.181Z" fill="#FF6520"/>
</g>
</g>
<defs>
<clipPath id="clip0_3219_16238">
<rect width="81.2" height="84.02" fill="white"/>
</clipPath>
</defs>
</svg>
