<svg xmlns="http://www.w3.org/2000/svg" width="173" height="120" viewBox="0 0 173 120" fill="none">
<path d="M172.804 17.8826C172.505 16.5063 171.763 15.2647 170.827 14.3311C169.892 13.3782 168.783 12.7045 167.655 12.2714C165.399 11.3378 163.104 11.2031 161.05 11.2608C152.998 11.5784 147.193 12.9066 144.204 13.6477C139.826 14.7931 137.454 15.7363 136.152 16.2753C135.67 16.4966 135.333 16.6506 135.111 16.7854C134.118 15.9095 133.346 15.3513 132.777 14.9856C132.72 14.9567 132.681 14.9278 132.633 14.8893C132.633 14.8893 132.626 14.8861 132.613 14.8797C132.613 14.8797 132.546 14.8123 132.507 14.7834C132.151 14.4755 131.64 14.052 130.907 13.4745C130.164 12.897 129.229 12.127 127.889 11.2897C126.182 10.1636 122.884 7.98845 117.985 5.81328C113.116 3.60924 106.626 1.4052 98.9315 0.471607C98.4494 0.413859 97.9769 0.327238 97.4851 0.279114L96.0097 0.192493C95.0166 0.12512 94.0137 0.0673725 92.9916 0C91.9695 0 90.9377 0.0192493 89.8866 0.0288739C89.3659 0.0288739 88.8356 0.0288739 88.3052 0.0288739C87.7749 0.0673725 87.2542 0.115496 86.7142 0.153994C85.6535 0.240616 84.5735 0.317613 83.4935 0.404235C82.4135 0.558229 81.3239 0.731473 80.2246 0.885467C79.6847 0.972088 79.1157 1.03946 78.5757 1.13571C78.0261 1.2512 77.4765 1.37632 76.9268 1.49182C75.8276 1.74206 74.709 1.9538 73.6098 2.22329C71.4209 2.85852 69.1548 3.3975 66.9756 4.22522C65.8859 4.61983 64.7578 4.96631 63.6778 5.41867C62.5978 5.8614 61.5082 6.31376 60.4185 6.7565C56.06 8.47931 51.6726 10.616 47.6612 13.2628C45.6459 14.5813 43.727 16.0635 41.8853 17.6131C40.0628 19.1819 38.3367 20.8566 36.7264 22.5986C33.5347 26.1213 30.7094 29.8653 28.3469 33.7921C25.888 37.6901 24.2777 41.9538 23.2266 46.1116C22.6384 48.1906 22.3877 50.2887 22.0792 52.3099C21.9152 54.3503 21.7224 56.333 21.7802 58.2772C21.7224 60.2214 21.9345 62.0789 22.0213 63.8883C22.1177 64.7834 22.2527 65.6593 22.3588 66.5159C22.4745 67.3821 22.5709 68.2194 22.7445 69.0375C22.9856 70.2791 23.1977 71.4918 23.4677 72.6468C23.2074 72.7045 22.7349 72.8585 21.9249 73.2339C20.5267 73.8787 18.1064 75.1299 14.1721 77.7478C12.8993 78.614 11.0479 79.9037 8.82044 81.7132C7.71153 82.6179 6.49655 83.6574 5.243 84.8797C3.99909 86.1116 2.68768 87.4976 1.54984 89.2396C0.980925 90.1155 0.469862 91.1068 0.170938 92.2618C0.0262976 92.8393 -0.0412013 93.4745 0.0262977 94.1193C0.0455831 94.4466 0.161295 94.7642 0.238437 95.0914C0.296293 95.255 0.373435 95.3994 0.440934 95.5534C0.527718 95.6785 0.566289 95.8999 0.759143 96.0828C1.6752 96.9971 2.59126 97.6901 3.6616 98.3638C4.73194 98.999 5.86977 99.538 7.08476 99.9807C11.9447 101.713 17.5374 101.963 23.3231 101.559C27.0259 101.29 30.8347 100.731 34.7207 99.9326C34.8847 100.231 35.0872 100.539 35.28 100.866C35.8971 101.867 36.8228 103.301 38.2114 104.995C39.571 106.708 41.5381 108.595 44.0067 110.404C46.4945 112.194 49.5126 113.927 53.0033 115.419C54.7486 116.16 56.6193 116.843 58.6057 117.401C59.5989 117.671 60.621 117.931 61.6914 118.142C62.7521 118.316 63.8224 118.441 64.912 118.595C73.629 119.605 83.5707 119.124 93.6762 116.872C98.729 115.746 103.82 114.206 108.815 112.214C111.313 111.222 113.791 110.135 116.221 108.922C117.436 108.306 118.651 107.709 119.837 107.016L121.621 106.025L123.328 104.88C127.917 101.848 132.016 98.1232 135.477 93.975C138.92 89.7979 141.716 85.1973 143.886 80.4812C144.156 79.8941 144.426 79.2974 144.696 78.7103C144.956 78.1232 145.159 77.5072 145.39 76.9105C145.612 76.3138 145.834 75.717 146.055 75.1203C146.296 74.5332 146.499 73.9365 146.663 73.3205C147.01 72.1078 147.367 70.9047 147.704 69.7113C147.974 68.5082 148.235 67.2955 148.485 66.1116C149.353 61.3282 149.71 56.6699 149.527 52.2618C149.44 50.5197 149.276 48.8162 149.064 47.18C150.154 46.3426 151.234 45.4957 152.304 44.6679C154.859 42.7526 157.231 40.7315 159.574 38.8065C161.927 36.8912 164.184 34.9374 166.238 32.8393C168.272 30.7507 170.066 28.4504 171.31 25.9288C171.946 24.6776 172.399 23.3782 172.746 22.0212C173.036 20.6545 173.103 19.2493 172.814 17.8633L172.804 17.8826ZM23.7956 63.6092C23.7088 61.8672 23.5256 60.0481 23.6027 58.1713C23.5545 56.2945 23.7859 54.3888 23.9402 52.4158C24.2584 50.4716 24.5188 48.4601 25.0973 46.4774C25.2227 45.9769 25.348 45.4764 25.4734 44.9663C25.6277 44.4658 25.8109 43.975 25.9844 43.4841C26.1677 42.9836 26.3316 42.4832 26.5148 41.9923L26.7752 41.2416C26.8716 40.9913 26.9969 40.7507 27.103 40.5101C27.5466 39.538 27.9901 38.5563 28.4433 37.565C28.993 36.6217 29.533 35.6785 30.0826 34.7257C34.7593 27.18 41.0271 19.9615 48.8762 14.8989C52.7912 12.3388 56.9761 10.2887 61.3057 8.58518C62.3856 8.14244 63.456 7.69971 64.5263 7.24735C65.587 6.81424 66.6863 6.47738 67.7566 6.0924C69.8877 5.2743 72.0862 4.7642 74.2172 4.11935C82.8571 2.00192 91.3909 1.3667 98.8447 2.31954C106.318 3.18576 112.653 5.2743 117.436 7.3436C122.248 9.39365 125.545 11.4341 127.291 12.4447C128.592 13.1569 129.537 13.8114 130.309 14.283C131.08 14.7546 131.64 15.0914 132.054 15.3128C132.102 15.332 132.141 15.3609 132.189 15.3898C132.189 15.3898 132.257 15.4668 132.295 15.4957C133.115 16.2849 134.638 17.6323 136.837 20.3369C138.245 22.1078 140.868 25.6497 143.143 31.1357C144.271 33.8691 145.313 37.0741 146.113 40.6641C146.113 40.693 146.133 40.7218 146.123 40.7507C144.975 41.6169 143.789 42.5024 142.565 43.3782C136.123 48.0269 128.544 52.7815 120.271 57.2955C111.997 61.8287 103.087 66.1886 94.0812 70.3657C89.5684 72.435 85.0846 74.5621 80.5718 76.4966C76.0783 78.4793 71.6523 80.4331 67.3227 82.3388C58.6732 86.0828 50.3419 89.3359 42.7242 91.5784C39.0696 92.666 35.5693 93.5226 32.339 94.1578L32.2715 94.0808C32.2233 93.8883 32.1558 93.6381 32.0401 93.3109C31.7026 92.358 30.9987 90.7026 29.8897 87.8056C29.1762 85.9095 27.7491 82.3099 26.3412 77.2473C25.9652 75.9961 25.647 74.6391 25.3287 73.1954C24.9623 71.7613 24.7309 70.231 24.432 68.6429C24.268 67.8441 24.2005 67.0164 24.0848 66.179C23.9884 65.3417 23.8534 64.4851 23.7956 63.6092ZM138.91 20.7988C139.055 20.7988 139.228 20.8181 139.45 20.8085C140.819 20.7988 147.106 19.846 153.355 18.7873C156.46 18.2579 159.536 17.8633 161.995 17.9115C164.145 17.9115 165.784 18.2483 166.594 18.3927C166.633 18.4697 166.662 18.5467 166.691 18.6333C166.826 19.0568 166.932 19.5765 166.864 20.1251C166.806 20.6737 166.604 21.3186 166.238 21.973C165.775 22.8296 164.839 23.9846 163.422 25.3802C162.728 26.0924 161.966 26.8624 161.137 27.719C160.712 28.1424 160.278 28.5852 159.835 29.0375C159.362 29.4803 158.871 29.9326 158.369 30.4042C155.496 33.1761 151.889 36.3138 147.666 39.5958C146.817 36.1405 145.747 33.0414 144.59 30.385C142.68 25.9865 140.53 22.82 138.92 20.8085L138.91 20.7988ZM31.8472 94.2541C28.5301 94.8701 25.483 95.255 22.7831 95.4187C17.3157 95.8133 13.2947 95.2935 11.2215 95.0241C10.4597 94.9086 9.78471 94.8123 9.17722 94.7161C8.57937 94.6006 8.04903 94.4947 7.59582 94.3985C7.30654 94.3503 7.05583 94.3022 6.8244 94.2541C6.8244 94.2348 6.79547 94.2252 6.78583 94.206C6.74726 94.1771 6.6894 94.1193 6.65083 94.0905C6.65083 94.0712 6.66048 94.0327 6.70869 93.975C6.79547 93.8691 6.78583 93.8883 6.79547 93.8498C6.80512 93.7921 6.81476 93.6477 6.87262 93.6477C7.05583 93.0991 7.47046 91.5399 8.85901 89.8749C10.1897 88.1906 12.3979 86.4292 14.6543 84.7161C18.8681 81.4822 23.4773 78.8354 24.837 77.8826C26.3702 82.9548 27.8937 86.5447 28.7423 88.4023C29.9765 91.1261 30.854 92.6756 31.394 93.5611C31.5772 93.8691 31.7315 94.0905 31.8569 94.2445L31.8472 94.2541ZM142.005 79.7979C139.884 84.3696 137.146 88.7969 133.819 92.82C130.463 96.8335 126.481 100.404 122.084 103.301C121.534 103.657 121.004 104.052 120.435 104.389L118.699 105.361C117.552 106.025 116.356 106.612 115.17 107.209C112.788 108.402 110.368 109.471 107.918 110.443C103.02 112.377 98.0347 113.908 93.088 115.014C83.1946 117.238 73.4651 117.729 64.9795 116.776C63.9285 116.641 62.8774 116.535 61.8746 116.372C60.8814 116.169 59.9075 115.938 58.9528 115.669C57.0436 115.14 55.2404 114.504 53.5433 113.802C50.1683 112.387 47.237 110.741 44.8263 109.047C39.9953 105.679 37.6135 101.944 36.2925 100.106C36.1961 99.9615 36.1093 99.8267 36.0129 99.692C37.7678 99.307 39.5517 98.8643 41.3453 98.3831C44.402 97.4976 47.5166 96.6025 50.689 95.6881C53.8422 94.6872 57.0629 93.744 60.2835 92.6468C73.1855 88.3446 86.5695 83.205 99.4908 77.026C112.402 70.8662 124.947 63.8787 136.239 56.2753C137.647 55.3224 139.055 54.3792 140.443 53.436C141.832 52.5024 143.163 51.5014 144.503 50.539C145.477 49.8364 146.441 49.1434 147.396 48.4504C147.425 48.7584 147.454 49.0664 147.482 49.3744C147.521 49.8845 147.569 50.4042 147.608 50.924C147.656 51.4437 147.695 51.973 147.675 52.5024C147.926 61.001 146.325 70.6833 142.005 79.8171V79.7979ZM170.982 21.8191C170.664 22.974 170.22 24.1578 169.622 25.3032C168.446 27.5842 166.758 29.7113 164.781 31.7036C162.805 33.6959 160.577 35.6015 158.215 37.4976C155.872 39.4033 153.509 41.3956 150.973 43.282C150.231 43.8499 149.498 44.4177 148.746 44.9952C148.225 45.3898 147.695 45.794 147.174 46.2079C147.164 46.2079 147.145 46.2271 147.135 46.2464C145.834 47.1703 144.532 48.1136 143.22 49.0568C140.578 51.0106 137.792 52.8489 134.995 54.7257C123.752 62.2425 111.284 69.153 98.4494 75.2743C85.6053 81.4052 72.2983 86.5159 59.4832 90.8181C56.2818 91.9057 53.0804 92.8585 49.9466 93.8595C46.7934 94.7834 43.6981 95.6881 40.651 96.5736C38.7225 97.103 36.8036 97.5746 34.9039 97.9884C34.5086 98.0751 34.1229 98.1521 33.7372 98.2291C30.0633 98.9798 26.4666 99.5091 22.9952 99.769C17.3735 100.183 11.9832 99.923 7.50903 98.3157C6.39048 97.9018 5.35871 97.411 4.40408 96.8431C3.93159 96.5447 3.47838 96.2464 3.06375 95.8999C2.84197 95.7363 2.63947 95.5823 2.44662 95.3898C2.29233 95.2358 2.01269 95.0048 2.01269 94.9759C1.62699 94.3118 1.57877 93.3879 1.82948 92.512C2.07055 91.6266 2.51411 90.7796 3.01554 89.9904C4.05695 88.4119 5.29121 87.0645 6.47726 85.871C7.66332 84.6776 8.83973 83.6477 9.90042 82.7526C12.0507 80.9432 13.8443 79.6343 15.0689 78.7392C18.6656 76.1309 20.922 74.7353 22.1949 73.898C22.9084 73.436 23.3327 73.1569 23.5545 72.9836C23.6027 73.2242 23.6606 73.4745 23.7281 73.7151C23.9113 74.4369 24.0848 75.1492 24.2488 75.8422C24.3163 76.0924 24.3934 76.3426 24.4609 76.5832C23.2556 76.9394 18.0485 79.5861 13.4297 83.1376C11.1347 84.8893 8.83008 86.7565 7.39332 88.7969C5.8987 90.7988 5.54192 92.82 5.59978 93.4937C5.59978 93.7247 5.64799 93.8883 5.70585 94.0231C5.64799 94.0038 5.59978 93.9942 5.54192 93.9846C4.5873 93.8017 4.35587 93.8595 4.30766 93.9846C4.26909 94.0905 4.37516 94.2348 5.28157 94.6294C5.73478 94.8219 6.3712 95.1107 7.32582 95.3802C7.79832 95.5245 8.34795 95.6881 8.97472 95.8614C9.61114 96.0058 10.3343 96.1694 11.1347 96.3426C13.2561 96.7276 17.4024 97.3532 23.0241 97.026C25.8687 96.8912 29.0798 96.5159 32.5608 95.8903C32.8597 95.8421 33.1586 95.7844 33.4575 95.7363C36.5914 95.1395 39.9278 94.3407 43.3992 93.3205C51.1326 91.0876 59.5603 87.8441 68.2677 84.1001C72.5973 82.204 77.0426 80.2599 81.5457 78.2868C86.0585 76.3522 90.5809 74.2156 95.1033 72.1463C104.129 67.9499 113.087 63.5419 121.389 58.9509C129.701 54.3888 137.309 49.538 143.799 44.7834C144.744 44.0905 145.65 43.4071 146.547 42.7141C147.077 42.3099 147.598 41.9057 148.119 41.4918C152.69 37.9211 156.556 34.4947 159.594 31.4629C160.095 30.9817 160.587 30.5101 161.05 30.0577C161.493 29.5861 161.927 29.1242 162.342 28.691C163.162 27.8152 163.923 27.0067 164.598 26.2849C165.968 24.8604 166.98 23.5226 167.462 22.4447C167.829 21.6651 168.012 20.8951 168.041 20.1636C168.06 19.4995 167.915 18.9317 167.732 18.4601C168.031 18.4312 168.156 18.3253 168.224 18.1617C168.301 17.9596 168.243 17.7093 167.279 17.1896C167.144 17.1126 166.951 17.0356 166.729 16.949C166.729 16.949 166.729 16.9458 166.729 16.9394C166.479 16.6987 166.218 16.5255 165.977 16.41C165.418 16.1309 165.003 16.1598 164.772 16.1886C164.589 16.2271 164.502 16.2849 164.483 16.3426C163.769 16.2175 162.949 16.1116 162.053 16.0539C159.401 15.8807 156.151 16.256 153.017 16.795C146.759 17.8537 140.53 19.0472 139.228 19.5284C138.717 19.7209 138.457 19.8845 138.332 20.0289C138.129 19.7979 137.946 19.5765 137.772 19.384C136.943 18.4697 136.201 17.7382 135.545 17.1319C135.747 17.0934 136.017 17.026 136.336 16.9394C137.685 16.6025 140.135 15.8422 144.686 14.8604C147.656 14.2445 153.403 13.0606 161.3 12.8489C163.21 12.8104 165.283 13.0221 167.183 13.8595C169.111 14.6391 170.741 16.256 171.146 18.4023C171.358 19.4803 171.232 20.6352 170.991 21.7998L170.982 21.8191Z" fill="#3B2900"/>
<path d="M146.113 40.6552C145.313 37.0652 144.272 33.8602 143.144 31.1171C140.868 25.6407 138.245 22.0988 136.837 20.3279C134.639 17.6234 133.115 16.2759 132.305 15.4867C132.267 15.4578 132.228 15.4193 132.199 15.3905C132.199 15.3905 132.112 15.3327 132.064 15.3135C131.649 15.0921 131.09 14.7552 130.319 14.2836C129.547 13.812 128.602 13.1576 127.301 12.4357C125.565 11.4251 122.257 9.3847 117.446 7.33465C114.929 6.24706 111.969 5.14985 108.652 4.22589C105.672 3.39817 102.403 2.72445 98.8642 2.31059C91.4104 1.35775 82.867 1.99297 74.2368 4.11039C72.0961 4.75524 69.8976 5.26535 67.7762 6.08344C66.7058 6.46843 65.6066 6.80529 64.5362 7.2384C63.4755 7.69076 62.3955 8.12387 61.3156 8.57623C56.986 10.2798 52.8011 12.3298 48.8861 14.89C41.037 19.9526 34.7692 27.171 30.0925 34.7167C29.5429 35.66 29.0029 36.6128 28.4532 37.5464C28 38.5377 27.5565 39.5194 27.1129 40.5012C27.0068 40.7418 26.8815 40.9728 26.7851 41.223L26.5247 41.9737C26.3511 42.4742 26.1776 42.9747 25.9944 43.4752C25.8208 43.966 25.6279 44.4569 25.4833 44.9477C25.3579 45.4578 25.2229 45.9583 25.1072 46.4588C24.5383 48.4415 24.278 50.453 23.9501 52.3972C23.7958 54.3703 23.5644 56.2856 23.6126 58.1624C23.5258 60.0392 23.709 61.8486 23.7958 63.6003C23.8633 64.4858 23.9983 65.3423 24.0947 66.1701C24.2008 67.0074 24.2683 67.8448 24.4322 68.634C24.7215 70.222 24.9626 71.762 25.329 73.1864C25.6472 74.6301 25.9654 75.9872 26.3415 77.2384C27.7397 82.2913 29.1764 85.891 29.8804 87.7966C30.9989 90.684 31.7028 92.3395 32.0403 93.2923C32.156 93.6195 32.2235 93.8794 32.2718 94.0623L32.3393 94.1393C35.5792 93.504 39.0699 92.6474 42.7244 91.5599C50.3422 89.3173 58.6735 86.0642 67.323 82.3202C71.6525 80.4145 76.0785 78.4607 80.572 76.4684C85.0848 74.5435 89.5687 72.4068 94.0815 70.3375C103.097 66.1508 111.998 61.7909 120.281 57.2577C124.456 54.9766 128.458 52.6378 132.228 50.2798C135.921 47.9603 139.383 45.6407 142.575 43.3404C143.799 42.455 144.976 41.5695 146.133 40.7129C146.133 40.684 146.133 40.6551 146.113 40.6263V40.6552ZM38.9059 65.0729C38.3274 65.9102 37.7584 66.4011 37.4595 66.6417C36.4953 67.3443 36.2831 67.2192 36.206 67.1037C36.1963 67.0748 36.1674 67.0459 36.1674 67.0267C36.0999 67.0363 36.0324 67.0459 35.9649 67.0652C35.5792 67.1037 34.8174 67.171 33.8049 67.0074C32.8021 66.8342 31.4328 66.3914 30.3432 65.198C29.8225 64.6109 29.3789 63.8505 29.1572 62.9939C28.945 62.1277 28.9547 61.1941 29.1572 60.299C29.3693 59.4039 29.7936 58.5377 30.3914 57.7966C30.97 57.0555 31.8185 56.4011 32.6575 56.0546C33.0625 55.8428 33.5735 55.6407 34.0942 55.5926C34.6149 55.5348 35.126 55.5541 35.6274 55.6696C36.5917 55.9006 37.4402 56.3818 38.1249 56.9785C38.7902 57.5753 39.3688 58.2394 39.7448 59.0671C40.1016 59.8659 40.2366 60.7225 40.1981 61.4925C40.1306 63.0517 39.4845 64.2548 38.9156 65.0921L38.9059 65.0729ZM59.3485 38.8938C57.8731 38.2586 56.3014 36.8919 55.2021 34.9189C54.6814 33.9275 54.2571 32.7918 54.0643 31.5406C53.881 30.2894 54.016 28.9227 54.45 27.6234C55.3564 25.0344 57.6513 22.8881 60.4092 22.1085C61.7688 21.7235 63.302 21.6272 64.6712 22.1277L65.6644 22.4838C65.9826 22.6282 66.2719 22.8111 66.5805 22.9843C67.2073 23.2827 67.699 23.7832 68.2294 24.2066C70.1772 26.1508 70.9486 28.865 70.6593 31.0883C70.4472 33.35 69.4444 35.1691 68.4126 36.3048C67.4001 37.4886 66.3683 38.0372 65.8573 38.3067C65.4619 38.5281 65.1148 38.6243 64.8352 38.7013C64.6134 38.7591 64.4398 38.7976 64.3144 38.8265C64.2855 38.8457 64.2469 38.8746 64.1987 38.9035C63.9673 39.0478 63.5237 39.3173 62.6366 39.4424C62.0484 39.5483 60.7949 39.5579 59.3292 38.9035L59.3485 38.8938ZM73.9571 70.2028C73.2436 71.4059 72.3275 72.0122 71.8647 72.2432C71.6622 72.3298 71.479 72.3972 71.3247 72.455C71.2958 72.4646 71.2861 72.4935 71.2668 72.5031C70.8426 72.7918 69.9651 73.35 68.5669 73.581C67.8726 73.658 67.0626 73.7254 66.1948 73.504C65.3462 73.3019 64.4398 72.9266 63.6202 72.3106C62.8005 71.6946 62.1159 70.838 61.5856 69.8756C61.3059 69.4039 61.1034 68.8746 60.9202 68.3164C60.7949 67.7389 60.6213 67.1614 60.6502 66.5454C60.5924 65.9391 60.7466 65.3135 60.8527 64.6975C61.0841 64.1008 61.2866 63.5137 61.6627 62.9939C62.357 61.9352 63.302 61.0401 64.4109 60.4723C65.5005 59.8948 66.7155 59.5194 67.9497 59.4136C69.1744 59.3366 70.4086 59.5291 71.5368 59.9814C72.0672 60.2894 72.6168 60.5204 73.0411 60.915L73.3882 61.1941L73.5618 61.3481C73.6486 61.3962 73.6968 61.5117 73.745 61.5599C73.8993 61.8005 74.0921 62.0315 74.2175 62.2913C74.7671 63.2923 75.0082 64.3414 75.0661 65.3231C75.1914 67.3058 74.6707 69.0093 73.9571 70.1835V70.2028ZM87.9873 13.6292C87.9391 12.8784 88.1126 12.0603 88.4598 11.2808C88.8648 10.53 89.4626 9.8178 90.2533 9.35582C90.6294 9.12483 91.044 8.96121 91.4586 8.79759C91.8926 8.71097 92.3265 8.5281 92.7508 8.5281C93.1847 8.4896 93.5993 8.42223 94.0911 8.44148C94.5829 8.46073 95.065 8.55698 95.5182 8.73022C96.4343 9.07671 97.2057 9.74081 97.7168 10.5397C97.8421 10.7418 97.9578 10.9535 98.0542 11.1556C98.1796 11.4636 98.1892 11.5984 98.2664 11.8197C98.3917 12.2143 98.4689 12.6282 98.546 13.0324C98.681 13.8409 98.7389 14.6686 98.6135 15.4771C98.5075 16.2759 98.2278 17.0555 97.7553 17.6811C97.2925 18.3067 96.6657 18.7687 96.0389 18.9805C95.74 19.1152 95.4411 19.173 95.1518 19.2211C94.8722 19.2884 94.6022 19.2692 94.3515 19.2788C93.8404 19.3077 93.4354 19.2115 93.0786 19.1826C92.7604 19.096 92.5001 19.019 92.3168 18.9612C92.1529 18.8938 92.0083 18.8457 91.8926 18.7783C91.7094 18.7783 91.4104 18.6917 90.8897 18.4415C90.7354 18.3452 90.504 18.1816 90.2244 17.9795C89.9544 17.7485 89.6362 17.4501 89.3276 17.0748C88.7008 16.3144 88.0355 15.1306 87.9776 13.6195L87.9873 13.6292ZM103.319 50.1258C102.384 51.4829 101.285 52.0892 100.745 52.378C99.8671 52.7726 99.3367 52.8207 99.0667 52.8303C98.8546 52.8303 98.7775 52.8014 98.7389 52.7437C98.5364 52.8111 98.3339 52.8592 98.1025 52.8977C98.035 52.9169 97.8614 52.9458 97.7843 52.9266C97.6878 52.9362 97.601 52.9362 97.5046 52.9362C97.3118 52.9362 97.1189 52.9362 96.9164 52.9169C95.2771 52.8399 93.2425 52.1951 91.4008 50.7418C90.4751 50.0199 89.6362 49.0767 88.9805 47.9314C88.3151 46.7764 87.968 45.3712 88.0066 43.9468C88.0451 42.5223 88.479 41.0498 89.3951 39.8274C89.6265 39.5194 89.8772 39.2403 90.1665 38.9708C90.4654 38.7206 90.7547 38.5089 91.0633 38.3067C91.6708 37.9121 92.3072 37.5464 92.9918 37.2865C94.3322 36.7187 95.8075 36.4492 97.2635 36.5069C98.7292 36.5358 100.176 37.0074 101.362 37.8063C101.96 38.1912 102.471 38.7013 102.905 39.2018C103.126 39.4617 103.329 39.7312 103.531 39.991C103.715 40.2605 103.859 40.5589 104.033 40.8573C104.64 42.0315 104.91 43.2827 104.968 44.4473C105.055 46.8053 104.255 48.7976 103.329 50.1065L103.319 50.1258ZM126.018 30.8091C125.208 31.5406 124.446 31.8294 124.061 31.9737C123.906 32.0122 123.771 32.0507 123.665 32.07C123.482 32.2143 123.164 32.378 122.633 32.4838C122.219 32.5608 121.341 32.5512 120.319 32.1855C119.827 32.0122 119.239 31.7042 118.719 31.3866C118.111 31.0209 117.513 30.4723 117.079 29.7697C116.645 29.0478 116.385 28.2105 116.289 27.3346L116.269 27.1903V27.1229L116.183 26.786C116.154 26.5551 116.105 26.3337 116.115 26.0834C116.086 25.6022 116.144 25.0921 116.308 24.6012C116.626 23.6003 117.34 22.7726 118.121 22.2047C118.516 21.9064 118.94 21.6754 119.355 21.454C119.827 21.1941 120.329 21.0498 120.811 20.9631C121.293 20.8669 121.766 20.8091 122.257 20.8091C122.556 20.8091 122.855 20.7995 123.173 20.8476C123.386 20.8669 123.598 20.9246 123.829 21.0016C124.716 21.3 125.632 21.8294 126.288 22.5031C126.626 22.8303 126.915 23.1287 127.185 23.5329C127.31 23.735 127.445 23.9275 127.561 24.1393C127.648 24.3606 127.734 24.5724 127.831 24.7745C128.12 25.6503 128.139 26.5454 127.995 27.3443C127.927 27.7389 127.821 28.1046 127.677 28.4319C127.262 29.4809 126.597 30.2509 126.008 30.8091H126.018Z" fill="#66C555" fill-opacity="0.05"/>
<path d="M147.675 52.4836C147.694 51.9543 147.665 51.4249 147.608 50.9052C147.559 50.3854 147.521 49.8657 147.473 49.3556C147.444 49.0476 147.415 48.7493 147.386 48.4316C146.441 49.1246 145.467 49.8176 144.493 50.5202C143.153 51.4827 141.832 52.4836 140.433 53.4172C139.035 54.3604 137.637 55.3133 136.229 56.2565C134.792 57.2286 133.336 58.1814 131.861 59.1246C121.736 65.6212 110.743 71.6366 99.4712 76.9976C86.55 83.1766 73.1755 88.3161 60.264 92.6184C57.0433 93.7252 53.8226 94.6588 50.6791 95.6597C47.497 96.5837 44.3921 97.4692 41.3257 98.3643C39.5322 98.8455 37.7483 99.2882 36.0029 99.6636C36.0994 99.7983 36.1861 99.9427 36.2826 100.077C36.9093 100.973 37.8061 102.31 39.1079 103.831C40.4771 105.448 42.3189 107.286 44.8164 109.028C47.2174 110.722 50.1584 112.368 53.5334 113.783C55.2305 114.495 57.0337 115.13 58.9429 115.65C59.8975 115.929 60.8811 116.16 61.8743 116.353C62.8675 116.526 63.9185 116.622 64.9696 116.767C73.4648 117.719 83.1847 117.229 93.0781 115.005C98.0248 113.889 103.02 112.368 107.918 110.424C110.377 109.452 112.788 108.384 115.179 107.2C116.365 106.603 117.561 106.016 118.708 105.352L120.444 104.38C121.013 104.043 121.543 103.648 122.103 103.292C126.509 100.405 130.482 96.8243 133.838 92.8108C137.174 88.7878 139.903 84.3508 142.024 79.7887C146.344 70.6646 147.945 60.9725 147.694 52.4836H147.675ZM72.2306 100.145C72.327 99.3845 72.7513 98.653 73.3105 98.114C74.4291 96.9879 76.1937 96.603 77.7173 96.9687C79.2504 97.3056 80.639 98.422 81.1693 99.8561C81.449 100.539 81.584 101.29 81.5261 102.002C81.449 102.715 81.2176 103.369 80.8993 103.908C80.5715 104.457 80.1279 104.871 79.7036 105.207C79.2504 105.506 78.7876 105.727 78.3537 105.814C77.5919 105.977 77.0037 105.881 76.6662 105.766C76.6276 105.804 76.5891 105.823 76.5216 105.843C76.3673 105.871 76.078 105.871 75.6248 105.708C75.0462 105.487 73.3202 104.534 72.4427 102.166C72.2498 101.569 72.1341 100.876 72.2402 100.135L72.2306 100.145ZM124.803 88.0274C124.33 89.9908 123.086 91.4153 121.929 92.1467C121.379 92.4355 120.917 92.7242 120.454 92.859C120.242 93.0418 119.885 93.3017 119.171 93.5231C118.921 93.6289 118.516 93.6386 118.024 93.7059C117.522 93.6867 116.905 93.6578 116.23 93.4461C115.353 93.2055 114.408 92.6954 113.53 91.9254C113.048 91.5115 112.585 91.0014 112.171 90.4336C111.091 88.7974 110.213 86.4971 111.139 83.9947C111.688 82.8108 112.633 81.9735 113.521 81.2613C113.762 81.0784 113.926 80.9437 114.167 80.7319C114.408 80.5394 114.658 80.3566 114.928 80.1833C115.459 79.8465 116.037 79.577 116.654 79.3845C117.281 79.2112 117.947 79.1246 118.602 79.1631C119.277 79.2016 119.904 79.4037 120.454 79.6443C121.563 80.0486 122.623 80.7704 123.347 81.6944C123.366 81.7136 123.395 81.7329 123.404 81.7618C124.147 82.705 124.639 83.7829 124.86 84.8801C125.082 85.9774 125.005 87.0457 124.783 88.0274H124.803Z" fill="#66C555" fill-opacity="0.05"/>
<path d="M170.982 21.8194C170.664 22.9744 170.22 24.1582 169.622 25.3035C168.446 27.5846 166.759 29.7116 164.782 31.7039C162.805 33.6962 160.578 35.6019 158.215 37.498C155.872 39.4036 153.509 41.3959 150.973 43.2824C150.231 43.8502 149.498 44.4181 148.746 44.9956C148.225 45.3902 147.695 45.7944 147.174 46.2083C147.165 46.2083 147.145 46.2275 147.136 46.2468C145.834 47.1707 144.532 48.1139 143.221 49.0572C140.579 51.011 137.792 52.8493 134.995 54.7261C123.752 62.2429 111.284 69.1534 98.4496 75.2747C85.6056 81.4056 72.2986 86.5163 59.4835 90.8185C56.2821 91.906 53.0807 92.8589 49.9469 93.8598C46.7937 94.7838 43.6984 95.6885 40.6513 96.574C38.7227 97.1034 36.8038 97.575 34.9042 97.9888C34.5089 98.0754 34.1232 98.1524 33.7375 98.2294C30.0636 98.9802 26.4669 99.5095 22.9955 99.7694C17.3738 100.183 11.9835 99.9234 7.50933 98.3161C6.39077 97.9022 5.359 97.4113 4.40438 96.8435C3.93188 96.5451 3.47868 96.2468 3.06404 95.9003C2.84226 95.7367 2.63976 95.5827 2.44691 95.3902C2.29262 95.2362 2.01299 95.0052 2.01299 94.9763C1.62728 94.3122 1.57906 93.3882 1.82977 92.5124C2.07084 91.6269 2.51441 90.78 3.01583 89.9907C4.05724 88.4123 5.2915 87.0649 6.47756 85.8714C7.66361 84.6779 8.84002 83.6481 9.90071 82.753C12.051 80.9436 13.8446 79.6346 15.0692 78.7395C18.6659 76.1313 20.9223 74.7357 22.1952 73.8983C22.9087 73.4364 23.333 73.1573 23.5548 72.984C23.603 73.2246 23.6608 73.4749 23.7283 73.7155C23.9116 74.4373 24.0851 75.1496 24.2491 75.8425C24.3166 76.0928 24.3937 76.343 24.4612 76.5836C23.2559 76.9397 18.0488 79.5865 13.4299 83.138C11.135 84.8897 8.83038 86.7569 7.39361 88.7973C5.89899 90.7992 5.54221 92.8204 5.60007 93.4941C5.60007 93.7251 5.64828 93.8887 5.70614 94.0235C5.64828 94.0042 5.60007 93.9946 5.54221 93.985C4.58759 93.8021 4.35616 93.8599 4.30795 93.985C4.26938 94.0908 4.37545 94.2352 5.28186 94.6298C5.73507 94.8223 6.37149 95.1111 7.32611 95.3805C7.79861 95.5249 8.34824 95.6885 8.97502 95.8618C9.61143 96.0061 10.3346 96.1698 11.135 96.343C13.2564 96.728 17.4027 97.3536 23.0244 97.0264C25.869 96.8916 29.08 96.5162 32.5611 95.8906C32.86 95.8425 33.1589 95.7848 33.4578 95.7367C36.5917 95.1399 39.9281 94.3411 43.3995 93.3209C51.1329 91.088 59.5606 87.8444 68.268 84.1005C72.5975 82.2044 77.0428 80.2602 81.546 78.2872C86.0588 76.3526 90.5812 74.216 95.1036 72.1467C104.129 67.9503 113.087 63.5422 121.39 58.9513C129.702 54.3892 137.31 49.5384 143.799 44.7838C144.744 44.0908 145.651 43.4075 146.547 42.7145C147.078 42.3103 147.598 41.906 148.119 41.4922C152.69 37.9214 156.557 34.4951 159.594 31.4633C160.095 30.9821 160.587 30.5105 161.05 30.0581C161.494 29.5865 161.928 29.1245 162.342 28.6914C163.162 27.8156 163.924 27.0071 164.599 26.2853C165.968 24.8608 166.98 23.523 167.462 22.445C167.829 21.6654 168.012 20.8955 168.041 20.164C168.06 19.4999 167.916 18.932 167.732 18.4604C168.031 18.4315 168.157 18.3257 168.224 18.1621C168.301 17.9599 168.244 17.7097 167.279 17.19C167.144 17.113 166.951 17.036 166.73 16.9494C166.73 16.9494 166.73 16.9461 166.73 16.9397C166.479 16.6991 166.219 16.5259 165.977 16.4104C165.418 16.1313 165.004 16.1601 164.772 16.189C164.589 16.2275 164.502 16.2853 164.483 16.343C163.769 16.2179 162.95 16.112 162.053 16.0543C159.401 15.881 156.152 16.2564 153.018 16.7954C146.76 17.8541 140.53 19.0475 139.229 19.5288C138.718 19.7212 138.457 19.8849 138.332 20.0292C138.129 19.7982 137.946 19.5769 137.773 19.3844C136.943 18.47 136.201 17.7386 135.545 17.1322C135.748 17.0937 136.018 17.0263 136.336 16.9397C137.686 16.6029 140.135 15.8425 144.686 14.8608C147.656 14.2448 153.403 13.061 161.301 12.8493C163.21 12.8108 165.283 13.0225 167.183 13.8598C169.111 14.6394 170.741 16.2564 171.146 18.4027C171.358 19.4806 171.233 20.6356 170.992 21.8002L170.982 21.8194Z" fill="#FFC82B"/>
<path d="M68.2394 24.1952C67.709 23.7717 67.2173 23.2713 66.5905 22.9729C66.2819 22.8093 65.9926 22.6168 65.6744 22.4724L64.6812 22.1163C63.312 21.6158 61.7691 21.7121 60.4191 22.0874C57.6517 22.8767 55.3664 25.0133 54.4503 27.612C54.0164 28.9113 53.891 30.2684 54.0646 31.5292C54.2575 32.7804 54.6817 33.9161 55.2024 34.9171C56.3017 36.8901 57.8638 38.2665 59.3392 38.8921C60.8049 39.5562 62.0584 39.5369 62.6466 39.431C63.5337 39.3155 63.9677 39.0364 64.2087 38.8921C64.2569 38.8632 64.2859 38.8439 64.3148 38.8151C64.4498 38.7862 64.6137 38.7477 64.8452 38.6899C65.1151 38.6129 65.4719 38.5263 65.8576 38.2953C66.3783 38.0258 67.4005 37.4772 68.4226 36.2934C69.4447 35.1481 70.4572 33.3386 70.6693 31.0769C70.949 28.8536 70.1776 26.1394 68.2394 24.1952ZM67.4776 35.5427C67.0919 36.1009 66.6098 36.457 66.2626 36.8035C65.8866 37.1115 65.5587 37.304 65.3466 37.4676C65.0476 37.7275 64.768 37.8622 64.5559 37.997C64.3437 38.1317 64.1798 38.2472 64.0737 38.3242C64.0448 38.3531 64.0255 38.3723 64.0062 38.382C63.7362 38.382 63.312 38.4782 62.5598 38.4493C62.0488 38.4493 61.0363 38.3916 59.8309 37.7756C58.6352 37.1981 57.3238 35.9662 56.3981 34.2241C55.9642 33.3483 55.6267 32.3666 55.4917 31.2982C55.3567 30.2299 55.4917 29.1327 55.8678 28.074C56.6296 25.9662 58.5774 24.1664 60.8724 23.5311C62.0006 23.2328 63.2155 23.1558 64.2762 23.56L65.1055 23.8487C65.3659 23.9739 65.6166 24.1375 65.8673 24.2722C66.4073 24.5128 66.793 24.9363 67.2462 25.2732C68.8276 26.8613 69.5122 29.0749 69.3001 30.9902C69.1554 32.9152 68.3358 34.4936 67.4872 35.5331L67.4776 35.5427Z" fill="#FFF8E3"/>
<path d="M69.2892 31.0013C69.1446 32.9262 68.325 34.5046 67.4764 35.5441C67.0907 36.1023 66.6086 36.4584 66.2614 36.8049C65.8854 37.1129 65.5575 37.3054 65.3454 37.469C65.0465 37.7289 64.7668 37.8636 64.5547 37.9984C64.3425 38.1331 64.1786 38.2486 64.0725 38.3256C64.0436 38.3545 64.0243 38.3737 64.005 38.3834C63.735 38.3834 63.3108 38.4796 62.5586 38.4507C62.0476 38.4507 61.0351 38.393 59.8298 37.777C58.6341 37.1995 57.3227 35.9676 56.397 34.2255C55.963 33.3497 55.6255 32.368 55.4905 31.2996C55.3555 30.2313 55.4905 29.1341 55.8666 28.0754C56.6284 25.9676 58.5762 24.1678 60.8712 23.5325C61.9994 23.2342 63.2143 23.1572 64.275 23.5614L65.1043 23.8502C65.3647 23.9753 65.6154 24.1389 65.8661 24.2736C66.4061 24.5143 66.7918 24.9377 67.245 25.2746C68.8264 26.8627 69.511 29.0763 69.2989 30.9916L69.2892 31.0013Z" fill="#FFF8E3"/>
<path d="M98.5553 13.0319C98.4781 12.6277 98.401 12.2138 98.2756 11.8192C98.2082 11.5979 98.1985 11.4631 98.0635 11.1551C97.9671 10.9434 97.861 10.7316 97.726 10.5295C97.215 9.73068 96.4435 9.0762 95.5275 8.72009C95.0743 8.54685 94.5921 8.4506 94.1004 8.43135C93.6086 8.42173 93.2036 8.4891 92.7697 8.51797C92.3454 8.5276 91.9018 8.71047 91.4775 8.78746C91.0629 8.95108 90.6386 9.1147 90.2626 9.34569C89.4719 9.80768 88.874 10.5103 88.469 11.2706C88.1122 12.0598 87.9483 12.8683 87.9965 13.619C88.0544 15.1301 88.7197 16.3139 89.3465 17.0743C89.6551 17.4496 89.9733 17.7384 90.2336 17.979C90.5229 18.1811 90.7447 18.3447 90.899 18.4314C91.4293 18.6816 91.7186 18.7778 91.9115 18.7682C92.0272 18.8356 92.1718 18.8837 92.3357 18.9511C92.519 19.0088 92.7697 19.0762 93.0975 19.1628C93.4447 19.1917 93.8593 19.2976 94.3607 19.2687C94.6114 19.2591 94.8814 19.2687 95.1611 19.2013C95.4503 19.1532 95.7493 19.0955 96.0482 18.9607C96.675 18.749 97.3017 18.2966 97.7549 17.6614C98.2274 17.0454 98.5071 16.2562 98.6131 15.467C98.7385 14.6585 98.6806 13.8308 98.5456 13.0223L98.5553 13.0319ZM96.6364 16.901C96.0771 17.7576 95.0743 18.0079 94.2932 18.0752C93.8979 18.133 93.5314 18.0752 93.2325 18.0849C92.9336 18.0464 92.7022 18.0271 92.5286 18.0175C92.22 17.9886 91.9886 17.979 91.815 17.9886C91.7186 17.8924 91.6029 17.7865 91.4679 17.6614C91.3522 17.5459 91.1786 17.3726 90.9568 17.1802C90.764 16.9492 90.5229 16.6797 90.2915 16.3428C89.8094 15.6883 89.3562 14.7066 89.3658 13.5709C89.3465 13.0127 89.5104 12.4448 89.7515 11.9058C90.0601 11.4054 90.4651 10.9434 91.034 10.6258C91.3233 10.4718 91.6222 10.337 91.95 10.2312C92.2972 10.1734 92.6154 10.029 92.9914 10.0387C93.3579 10.0098 93.7436 9.95205 94.0714 9.96167C94.3896 9.98092 94.7079 10.0483 95.0068 10.1638C95.6046 10.3948 96.1253 10.8375 96.4725 11.3861C96.5592 11.5209 96.6364 11.6652 96.6942 11.8096C96.7232 11.8673 96.7135 11.8385 96.7232 11.877L96.7617 12.0117L96.8389 12.2812C96.9546 12.6277 97.0221 12.9838 97.0896 13.3303C97.2149 14.0233 97.2632 14.7162 97.186 15.3226C97.1185 15.9482 96.9257 16.5064 96.6267 16.9107L96.6364 16.901Z" fill="#FFF8E3"/>
<path d="M97.1966 15.3126C97.1291 15.9382 96.9363 16.4964 96.6374 16.9006C96.0781 17.7572 95.0753 18.0075 94.2942 18.0748C93.8988 18.1326 93.5324 18.0748 93.2335 18.0845C92.9346 18.046 92.7031 18.0267 92.5296 18.0171C92.221 17.9882 91.9896 17.9786 91.816 17.9882C91.7196 17.892 91.6039 17.7861 91.4689 17.661C91.3532 17.5455 91.1796 17.3722 90.9578 17.1798C90.765 16.9488 90.5239 16.6793 90.2925 16.3424C89.8103 15.6879 89.3571 14.7062 89.3668 13.5705C89.3475 13.0123 89.5114 12.4444 89.7525 11.9055C90.061 11.405 90.466 10.943 91.035 10.6254C91.3242 10.4714 91.6232 10.3366 91.951 10.2308C92.2982 10.173 92.6164 10.0286 92.9924 10.0383C93.3588 10.0094 93.7446 9.95165 94.0724 9.96127C94.3906 9.98052 94.7088 10.0479 95.0078 10.1634C95.6056 10.3944 96.1263 10.8371 96.4734 11.3857C96.5602 11.5205 96.6374 11.6648 96.6952 11.8092C96.7242 11.867 96.7145 11.8381 96.7242 11.8766L96.7627 12.0113L96.8399 12.2808C96.9556 12.6273 97.0231 12.9834 97.0906 13.3299C97.2159 14.0229 97.2641 14.7158 97.187 15.3222L97.1966 15.3126Z" fill="#FFF8E3"/>
<path d="M39.734 59.0573C39.3675 58.2296 38.789 57.5655 38.114 56.9687C37.4293 56.372 36.5808 55.8812 35.6165 55.6598C35.1247 55.5443 34.604 55.5251 34.093 55.5828C33.5723 55.6309 33.0708 55.833 32.6562 56.0448C31.8076 56.4009 30.9687 57.0457 30.3902 57.7868C29.7923 58.5279 29.368 59.4038 29.1559 60.2989C28.9438 61.194 28.9341 62.1276 29.1559 62.9938C29.3777 63.8504 29.8213 64.6107 30.342 65.1978C31.4316 66.3913 32.8008 66.834 33.8037 67.0073C34.8258 67.1805 35.5779 67.1035 35.9637 67.065C36.0408 67.0554 36.1083 67.0361 36.1661 67.0265C36.1661 67.0554 36.1951 67.0843 36.2047 67.1131C36.2915 67.2286 36.5036 67.3537 37.4679 66.6511C37.7668 66.4105 38.3358 65.9197 38.9143 65.0823C39.4832 64.245 40.1197 63.0419 40.1968 61.4827C40.2354 60.7127 40.1004 59.8658 39.7436 59.0669L39.734 59.0573ZM37.8825 64.4375C37.4293 65.1882 36.9858 65.679 36.7833 65.9582C36.7254 66.0352 36.6772 66.1025 36.6194 66.1603C36.4361 66.1314 36.2047 66.1122 35.8962 66.0929C35.549 66.0544 34.874 66.0448 34.0062 65.8234C33.1576 65.6117 32.1066 65.1882 31.3448 64.2739C30.5734 63.3884 30.2166 62.0121 30.5927 60.6357C30.9494 59.2594 31.9137 57.989 33.3312 57.4019C34.5944 56.6896 36.0794 57.1805 37.1786 58.1141C37.7186 58.5857 38.2008 59.1343 38.4515 59.6925C38.7215 60.2604 38.8372 60.886 38.8179 61.4635C38.7986 62.6569 38.3261 63.6964 37.8825 64.4471V64.4375Z" fill="#FFF8E3"/>
<path d="M38.8094 61.4524C38.7901 62.6458 38.3177 63.6853 37.8741 64.436C37.4209 65.1867 36.9773 65.6776 36.7748 65.9567C36.717 66.0337 36.6688 66.1011 36.6109 66.1588C36.4277 66.13 36.1963 66.1107 35.8877 66.0915C35.5406 66.053 34.8656 66.0433 33.9977 65.822C33.1492 65.6102 32.0981 65.1867 31.3363 64.2724C30.5649 63.3869 30.2081 62.0106 30.5842 60.6343C30.941 59.258 31.9053 57.9875 33.3227 57.4004C34.5859 56.6882 36.0709 57.179 37.1702 58.1126C37.7102 58.5842 38.1923 59.1329 38.443 59.6911C38.713 60.2589 38.8287 60.8845 38.8094 61.462V61.4524Z" fill="#FFF8E3"/>
<path d="M75.0667 65.343C75.0185 64.371 74.7678 63.3026 74.2182 62.3113C74.0928 62.0514 73.8999 61.8204 73.7457 61.5798C73.6974 61.5317 73.6492 61.4162 73.5624 61.3681L73.3889 61.2141L73.0417 60.935C72.6078 60.5403 72.0582 60.2997 71.5278 60.0014C70.3996 59.5586 69.175 59.3565 67.9408 59.4335C66.7065 59.5394 65.5011 59.9051 64.4115 60.4922C63.3026 61.0601 62.3576 61.9648 61.6634 63.0139C61.2873 63.524 61.0848 64.1303 60.8534 64.7174C60.7377 65.3334 60.593 65.9494 60.6509 66.5654C60.6219 67.1814 60.8051 67.7588 60.9209 68.3363C61.1041 68.8945 61.3066 69.4143 61.5862 69.8955C62.1166 70.858 62.8012 71.7146 63.6208 72.3209C64.4404 72.9369 65.3372 73.3219 66.1954 73.524C67.0633 73.7357 67.8733 73.6684 68.5675 73.5914C69.9657 73.3604 70.8432 72.7925 71.2675 72.5134C71.2868 72.4941 71.2964 72.4749 71.3253 72.4653C71.4893 72.4075 71.6628 72.3498 71.8653 72.2535C72.3378 72.0129 73.2442 71.4066 73.9578 70.2131C74.681 69.0389 75.1921 67.3353 75.0667 65.3527V65.343ZM72.8971 69.626C72.4246 70.5115 71.8653 70.9927 71.5182 71.2911C71.3157 71.3873 71.065 71.5221 70.7564 71.6664C70.3418 71.8397 69.5414 72.2728 68.3843 72.3786C67.8154 72.4171 67.1597 72.4268 66.4751 72.2343C65.8001 72.0418 65.0962 71.7146 64.4597 71.1948C63.8233 70.6943 63.2833 69.9821 62.8494 69.164C62.4251 68.3459 62.1262 67.422 62.1358 66.4884C62.0298 64.5731 63.3798 62.754 65.1733 61.7819C66.0797 61.3103 67.0825 61.012 68.095 60.9157C69.1075 60.8676 70.1007 61.0312 70.9782 61.3681C71.3928 61.6087 71.8364 61.7819 72.1739 62.0995C72.3282 62.2439 72.5789 62.3883 72.6175 62.4845C72.7332 62.6674 72.8971 62.8118 72.9839 63.0235C73.3985 63.7935 73.6396 64.6501 73.6974 65.4778C73.8421 67.1428 73.4371 68.6347 72.8971 69.626Z" fill="#FFF8E3"/>
<path d="M72.896 69.6243C72.4235 70.5098 71.8642 70.991 71.5171 71.2894C71.3146 71.3856 71.0639 71.5204 70.7553 71.6647C70.3407 71.838 69.5403 72.2711 68.3832 72.377C67.8143 72.4155 67.1586 72.4251 66.474 72.2326C65.799 72.0401 65.0951 71.7129 64.4586 71.1931C63.8222 70.6927 63.2822 69.9804 62.8483 69.1623C62.424 68.3442 62.1251 67.4203 62.1348 66.4867C62.0287 64.5714 63.3787 62.7523 65.1722 61.7802C66.0786 61.3086 67.0815 61.0103 68.0939 60.914C69.1064 60.8659 70.0996 61.0295 70.9771 61.3664C71.3917 61.607 71.8353 61.7802 72.1728 62.0978C72.3271 62.2422 72.5778 62.3866 72.6164 62.4828C72.7321 62.6657 72.896 62.8101 72.9828 63.0218C73.3974 63.7918 73.6385 64.6484 73.6964 65.4761C73.841 67.1412 73.436 68.633 72.896 69.6243Z" fill="#FFF8E3"/>
<path d="M104.958 44.4656C104.901 43.2914 104.631 42.0498 104.023 40.8756C103.859 40.5868 103.705 40.2789 103.522 40.0094C103.319 39.7495 103.107 39.48 102.895 39.2201C102.461 38.71 101.95 38.2096 101.352 37.8246C100.156 37.0257 98.71 36.5541 97.2443 36.5252C95.7882 36.4675 94.3225 36.737 92.9726 37.2952C92.2879 37.5551 91.6515 37.9208 91.044 38.3154C90.7354 38.5175 90.4462 38.7293 90.1472 38.9795C89.8483 39.249 89.5976 39.5281 89.3758 39.8265C88.4598 41.0488 88.0258 42.531 87.9873 43.9458C87.9487 45.3703 88.2958 46.7659 88.9612 47.9304C89.6169 49.0758 90.4558 50.019 91.3815 50.7408C93.2233 52.1942 95.2675 52.839 96.8971 52.916C97.0996 52.9353 97.2925 52.9353 97.4853 52.9353C97.5818 52.9353 97.6685 52.9353 97.765 52.9256C97.8421 52.9353 98.0157 52.916 98.0832 52.8968C98.3146 52.8583 98.5267 52.8005 98.7196 52.7428C98.7582 52.7909 98.845 52.8198 99.0475 52.8198C99.3271 52.8198 99.8478 52.762 100.725 52.377C101.265 52.0883 102.365 51.4723 103.3 50.1249C104.226 48.8063 105.026 46.8236 104.939 44.4656H104.958ZM102.297 49.48C102.075 49.8457 101.825 50.1441 101.583 50.404C101.391 50.404 100.937 50.6157 99.7707 51.1932C99.2692 51.3953 98.3146 51.9632 96.9646 51.7418C95.5664 51.5974 93.7922 50.9815 92.2301 49.6725C91.4394 49.0277 90.7451 48.1903 90.2051 47.2375C89.6844 46.2846 89.424 45.1489 89.4626 43.9843C89.5108 42.8294 89.8772 41.6456 90.6004 40.7312C91.2562 39.8457 92.4518 39.1816 93.5897 38.7004C95.9039 37.738 98.6617 37.7765 100.552 39.0854C100.802 39.2298 100.995 39.4319 101.217 39.6051C101.429 39.8073 101.622 40.019 101.825 40.2211C102.008 40.4425 102.181 40.6638 102.355 40.8852C102.519 41.1162 102.644 41.3568 102.789 41.5878C103.29 42.5503 103.531 43.5994 103.589 44.5907C103.705 46.6022 103.049 48.3443 102.307 49.4993L102.297 49.48Z" fill="#FFF8E3"/>
<path d="M102.297 49.4805C102.075 49.8462 101.825 50.1446 101.584 50.4045C101.391 50.4045 100.938 50.6162 99.7708 51.1937C99.2694 51.3958 98.3147 51.9636 96.9647 51.7423C95.5666 51.5979 93.7923 50.9819 92.2302 49.673C91.4395 49.0281 90.7452 48.1908 90.2052 47.238C89.6845 46.2851 89.4242 45.1494 89.4627 43.9848C89.5109 42.8299 89.8774 41.646 90.6006 40.7317C91.2563 39.8462 92.452 39.1821 93.5898 38.7009C95.9041 37.7384 98.6619 37.7769 100.552 39.0859C100.803 39.2303 100.995 39.4324 101.217 39.6056C101.429 39.8077 101.622 40.0195 101.825 40.2216C102.008 40.443 102.181 40.6643 102.355 40.8857C102.519 41.1167 102.644 41.3573 102.789 41.5883C103.29 42.5508 103.531 43.5998 103.589 44.5912C103.705 46.6027 103.049 48.3448 102.307 49.4997L102.297 49.4805Z" fill="#FFF8E3"/>
<path d="M81.1698 99.8657C80.6298 98.4316 79.2413 97.3152 77.7177 96.9687C76.1942 96.6029 74.4295 96.9975 73.311 98.114C72.7517 98.653 72.3274 99.3941 72.231 100.154C72.1346 100.896 72.231 101.588 72.4335 102.185C73.311 104.553 75.037 105.506 75.6156 105.727C76.0592 105.881 76.3484 105.881 76.5124 105.852C76.5799 105.833 76.6184 105.814 76.657 105.775C76.9945 105.891 77.5827 105.987 78.3445 105.823C78.788 105.737 79.2413 105.515 79.6945 105.217C80.1284 104.88 80.5623 104.466 80.8998 103.918C81.218 103.369 81.4591 102.715 81.5266 102.012C81.5844 101.29 81.4591 100.549 81.1698 99.8561V99.8657ZM79.6945 103.244C79.2605 104.024 78.5759 104.495 78.0166 104.659C77.4381 104.842 76.9656 104.813 76.7245 104.774C76.3581 104.774 76.1267 104.707 75.9531 104.736C75.9531 104.736 75.9467 104.736 75.9338 104.736C75.7024 104.563 75.3649 104.293 74.9792 103.87C74.5163 103.359 74.0053 102.638 73.7353 101.733C73.4846 100.838 73.5617 99.8079 74.3428 99.1535C75.0852 98.4412 76.2809 98.1717 77.3802 98.4412C78.4795 98.7011 79.4245 99.4518 79.8005 100.443C80.003 100.944 80.0898 101.434 80.0705 101.916C80.032 102.407 79.8873 102.849 79.6752 103.244H79.6945Z" fill="#FFF8E3"/>
<path d="M80.0896 101.915C80.051 102.406 79.9064 102.849 79.6943 103.243C79.2603 104.023 78.5757 104.494 78.0164 104.658C77.4379 104.841 76.9654 104.812 76.7243 104.774C76.3579 104.774 76.1265 104.706 75.9529 104.735C75.9529 104.735 75.9465 104.735 75.9336 104.735C75.7022 104.562 75.3647 104.292 74.979 103.869C74.5161 103.359 74.0051 102.637 73.7351 101.732C73.4844 100.837 73.5615 99.8072 74.3426 99.1527C75.085 98.4405 76.2807 98.171 77.38 98.4405C78.4793 98.7004 79.4243 99.4511 79.8003 100.442C80.0028 100.943 80.0896 101.434 80.0703 101.915H80.0896Z" fill="#FFF8E3"/>
<g style="mix-blend-mode:plus-darker" opacity="0.22">
<path d="M108.632 4.22618C111.958 5.15014 114.909 6.24735 117.426 7.33494C122.237 9.38498 125.545 11.4254 127.281 12.436C128.582 13.1482 129.527 13.8027 130.299 14.2839C131.061 14.7555 131.629 15.0924 132.044 15.3138C132.092 15.333 132.131 15.3619 132.179 15.3811C132.179 15.3811 132.256 15.4678 132.285 15.487C133.095 16.2859 134.628 17.6237 136.817 20.3282C138.225 22.0991 140.848 25.641 143.124 31.1174C144.252 33.8604 145.284 37.0558 146.093 40.6554C146.103 40.6843 146.113 40.7132 146.113 40.7421C144.965 41.6083 143.779 42.4937 142.555 43.3696C139.363 45.6699 135.901 47.9894 132.208 50.309C132.102 46.3244 131.649 42.3686 130.954 38.5091C130.299 34.8614 129.171 31.5505 127.666 28.4225C126.413 25.795 124.889 23.2926 123.154 20.8287C122.527 19.924 121.871 19.0192 121.177 18.1145C117.715 13.5813 113.472 8.14341 108.612 4.21655L108.632 4.22618Z" fill="#555454"/>
</g>
<g style="mix-blend-mode:plus-darker" opacity="0.22">
<path d="M142.005 79.7983C139.884 84.3604 137.145 88.7974 133.819 92.8205C130.463 96.834 126.49 100.405 122.084 103.302C121.534 103.658 121.004 104.052 120.425 104.389L118.689 105.361C117.542 106.025 116.346 106.613 115.16 107.209C112.778 108.393 110.358 109.461 107.899 110.434C103.001 112.378 98.0154 113.898 93.0591 115.015C83.1657 117.229 73.4458 117.729 64.9506 116.776C63.8995 116.632 62.8485 116.545 61.8553 116.362C60.8621 116.17 59.8785 115.929 58.9239 115.66C57.0146 115.13 55.2115 114.495 53.5143 113.793C50.1394 112.378 47.208 110.732 44.7973 109.038C42.2999 107.306 40.4678 105.467 39.0889 103.841C41.837 104.274 44.9034 105.64 46.8609 106.141C50.4383 107.036 53.9097 108.441 57.5257 109.182C64.1985 110.52 71.3148 109.192 77.9007 107.854C90.1759 105.352 103.3 100.183 113.521 91.935C117.243 88.9417 120.579 85.5346 123.347 81.704C124.957 79.4807 126.384 77.1034 127.58 74.5914C129.894 69.7213 131.254 64.4855 131.842 59.1246C133.317 58.1814 134.773 57.2286 136.21 56.2565C137.618 55.3036 139.016 54.3604 140.414 53.4172C141.813 52.4836 143.134 51.4827 144.474 50.5202C145.438 49.8176 146.422 49.1342 147.367 48.4316C147.396 48.7396 147.425 49.0476 147.454 49.3556C147.502 49.8753 147.54 50.3951 147.589 50.9052C147.646 51.4249 147.675 51.9639 147.656 52.4836C147.907 60.9725 146.306 70.6646 141.986 79.7887L142.005 79.7983Z" fill="#535353"/>
</g>
<path d="M123.453 87.7477C123.086 89.3358 122.141 90.51 121.216 91.1644C120.251 91.8478 119.48 92.0595 119.075 92.1173C118.477 92.2135 118.149 92.1365 117.937 92.1365C117.725 92.1173 117.638 92.1654 117.58 92.252C117.542 92.3098 117.513 92.3964 117.667 92.5504C117.561 92.5311 117.465 92.5311 117.359 92.5023C117.108 92.4734 116.867 92.3579 116.587 92.2905C115.507 91.9248 114.263 91.0104 113.328 89.6341C112.875 88.9315 112.518 88.1134 112.344 87.2183C112.152 86.3521 112.219 85.3319 112.528 84.5812C112.913 83.792 113.666 83.0894 114.524 82.4156C115.006 82.0499 115.363 81.7034 115.797 81.4532C116.221 81.1837 116.684 80.9719 117.147 80.8372C118.101 80.5677 119.017 80.6255 119.962 81.0489C120.898 81.4147 121.727 81.9633 122.315 82.714C122.913 83.4551 123.299 84.3213 123.491 85.1972C123.684 86.0826 123.626 86.9585 123.472 87.7477H123.453Z" fill="#FFF8E3"/>
<path d="M126.644 27.1312C126.471 28.3439 125.767 29.3064 125.178 29.9416C124.542 30.5865 123.954 30.8945 123.665 31.0773C123.317 31.2795 123.086 31.4142 122.932 31.5104C122.826 31.5104 122.71 31.5104 122.585 31.5008C122.257 31.4719 121.601 31.4046 120.762 31.0292C120.338 30.8463 119.914 30.5865 119.403 30.2592C118.978 29.9513 118.564 29.547 118.274 29.0177C117.985 28.4883 117.792 27.8435 117.725 27.1409L117.705 26.9676L117.667 26.7751L117.619 26.5249C117.599 26.3516 117.57 26.1784 117.58 26.0148C117.58 25.6683 117.609 25.341 117.725 25.0234C117.946 24.3978 118.419 23.8396 119.046 23.3872C119.354 23.1659 119.701 22.9541 120.078 22.7713C120.386 22.6173 120.752 22.5018 121.138 22.4248C121.534 22.3478 121.939 22.2997 122.334 22.29C122.729 22.29 123.125 22.29 123.366 22.4055C124.137 22.6654 124.745 23.0215 125.294 23.5605C125.555 23.8204 125.853 24.1187 126.037 24.3882C126.123 24.5326 126.22 24.6577 126.297 24.8117L126.5 25.2641C126.712 25.88 126.75 26.5249 126.644 27.1216V27.1312Z" fill="#FFF8E3"/>
<path d="M124.871 84.8797C124.649 83.7921 124.167 82.7045 123.415 81.7613C122.682 80.8085 121.602 80.0674 120.464 79.6439C119.915 79.4033 119.288 79.2108 118.613 79.1723C117.957 79.1338 117.292 79.2108 116.675 79.3936C116.058 79.5765 115.479 79.846 114.949 80.1925C114.679 80.3657 114.428 80.539 114.187 80.7411C113.955 80.9528 113.772 81.0876 113.541 81.2704C112.654 81.9827 111.699 82.82 111.159 84.0038C110.233 86.5062 111.111 88.7969 112.191 90.4331C113.358 92.0404 114.881 93.0799 116.241 93.4456C116.916 93.6573 117.523 93.6862 118.034 93.7055C118.526 93.6381 118.931 93.6381 119.182 93.5226C119.895 93.3205 120.262 93.051 120.474 92.8681C120.927 92.7334 121.4 92.4446 121.949 92.1463C123.106 91.4148 124.341 89.9904 124.823 88.0269C125.035 87.0452 125.112 85.9673 124.89 84.8701L124.871 84.8797ZM123.454 87.7478C123.087 89.3359 122.142 90.5101 121.216 91.1646C120.252 91.8479 119.481 92.0597 119.076 92.1174C118.478 92.2136 118.15 92.1367 117.938 92.1367C117.726 92.1174 117.639 92.1655 117.581 92.2521C117.543 92.3099 117.514 92.3965 117.668 92.5505C117.562 92.5313 117.465 92.5313 117.359 92.5024C117.109 92.4735 116.868 92.358 116.588 92.2906C115.508 91.9249 114.264 91.0106 113.329 89.6342C112.876 88.9316 112.519 88.1136 112.345 87.2185C112.152 86.3522 112.22 85.332 112.528 84.5813C112.914 83.7921 113.666 83.0895 114.524 82.4158C115.007 82.05 115.363 81.7035 115.797 81.4533C116.222 81.1838 116.684 80.9721 117.147 80.8373C118.102 80.5678 119.018 80.6256 119.963 81.0491C120.898 81.4148 121.728 81.9634 122.316 82.7141C122.914 83.4552 123.299 84.3214 123.492 85.1973C123.685 86.0828 123.627 86.9586 123.473 87.7478H123.454Z" fill="#FFF8E3"/>
<path d="M127.84 24.7643C127.744 24.5526 127.657 24.3408 127.56 24.1291C127.454 23.9173 127.319 23.7248 127.184 23.5227C126.914 23.1185 126.625 22.8201 126.288 22.4833C125.632 21.8095 124.716 21.2802 123.829 20.9818C123.221 20.7604 122.758 20.7893 122.257 20.7893C121.765 20.7893 121.293 20.8471 120.811 20.9433C120.328 21.0396 119.827 21.1839 119.355 21.4342C118.94 21.6459 118.516 21.8962 118.12 22.1849C117.33 22.7624 116.626 23.5901 116.307 24.5814C116.143 25.0723 116.086 25.5824 116.115 26.0636C116.115 26.3139 116.153 26.5352 116.182 26.7758L116.259 27.1127L116.278 27.1801V27.3148C116.394 28.1907 116.655 29.028 117.088 29.7402C117.522 30.4525 118.12 31.0107 118.728 31.3668C119.258 31.6748 119.827 31.9924 120.328 32.156C121.351 32.5314 122.228 32.541 122.652 32.464C123.173 32.3678 123.491 32.2041 123.674 32.0501C123.79 32.0309 123.916 31.9924 124.07 31.9539C124.446 31.8095 125.208 31.5208 126.027 30.7893C126.808 30.0578 127.715 28.9318 128.014 27.3148C128.168 26.5256 128.139 25.6305 127.85 24.745L127.84 24.7643ZM126.644 27.132C126.471 28.3447 125.767 29.3071 125.179 29.9424C124.542 30.5872 123.954 30.8952 123.665 31.0781C123.318 31.2802 123.086 31.4149 122.932 31.5112C122.826 31.5112 122.71 31.5112 122.585 31.5015C122.257 31.4727 121.601 31.4053 120.762 31.0299C120.338 30.8471 119.914 30.5872 119.403 30.26C118.978 29.952 118.564 29.5477 118.275 29.0184C117.985 28.489 117.792 27.8442 117.725 27.1416L117.706 26.9683L117.667 26.7758L117.619 26.5256C117.6 26.3524 117.571 26.1791 117.58 26.0155C117.58 25.669 117.609 25.3418 117.725 25.0242C117.947 24.3986 118.419 23.8403 119.046 23.388C119.355 23.1666 119.702 22.9549 120.078 22.772C120.386 22.618 120.753 22.5025 121.138 22.4255C121.534 22.3485 121.939 22.3004 122.334 22.2908C122.729 22.2908 123.125 22.2908 123.366 22.4063C124.137 22.6661 124.745 23.0222 125.294 23.5612C125.555 23.8211 125.854 24.1194 126.037 24.3889C126.124 24.5333 126.22 24.6584 126.297 24.8124L126.5 25.2648C126.712 25.8808 126.75 26.5256 126.644 27.1223V27.132Z" fill="#FFF8E3"/>
</svg>