<svg width="178" height="44" viewBox="0 0 178 44" fill="none" xmlns="http://www.w3.org/2000/svg">
    <path d="M120.803 43.795c-.529 0-1.066 0-1.595-.017a.412.412 0 0 1-.412-.43c0-.237.193-.414.428-.414 1.663.033 3.342.016 5.005-.068.227-.025.428.169.436.405a.417.417 0 0 1-.403.44c-1.15.05-2.317.084-3.467.084h.008zm-95.437-.102h-.042a18.747 18.747 0 0 1-4.996-1.207.421.421 0 0 1-.235-.549.417.417 0 0 1 .546-.236c1.47.59 3.073.97 4.77 1.157a.419.419 0 0 1 .369.464.42.42 0 0 1-.42.38l.008-.009zm5.03-.084a.425.425 0 0 1-.42-.363.414.414 0 0 1 .361-.473 20.973 20.973 0 0 0 4.77-1.233.425.425 0 0 1 .302.794 21.901 21.901 0 0 1-4.963 1.283h-.059l.009-.008zm83.79-.118h-.042a72.45 72.45 0 0 1-5.029-.642.414.414 0 0 1-.344-.481.411.411 0 0 1 .478-.346c1.646.27 3.317.48 4.971.633a.422.422 0 0 1 .378.456.415.415 0 0 1-.42.38h.008zm15.081-.194a.426.426 0 0 1-.42-.372.418.418 0 0 1 .369-.464 70.863 70.863 0 0 0 4.954-.76.421.421 0 0 1 .152.828 72.425 72.425 0 0 1-5.005.768h-.05zm-25.022-1.436s-.067 0-.101-.008a69.772 69.772 0 0 1-4.887-1.343.425.425 0 0 1 .252-.81c1.587.498 3.208.937 4.828 1.325a.42.42 0 0 1 .311.507.423.423 0 0 1-.412.33h.009zm34.913-.439a.42.42 0 0 1-.101-.827 71.14 71.14 0 0 0 4.795-1.444.409.409 0 0 1 .529.262.416.416 0 0 1-.26.532 73.074 73.074 0 0 1-4.854 1.46.415.415 0 0 1-.109.017zm-99.459-1.444a.414.414 0 0 1-.344-.177.43.43 0 0 1 .1-.591 20.837 20.837 0 0 0 3.687-3.293.422.422 0 0 1 .596-.034.427.427 0 0 1 .034.6 22.02 22.02 0 0 1-3.837 3.41.435.435 0 0 1-.244.077l.008.008zm-23.477-.11a.38.38 0 0 1-.285-.118 10.533 10.533 0 0 1-1.352-1.545c-.613-.87-1.1-1.824-1.436-2.854a.423.423 0 0 1 .269-.532.42.42 0 0 1 .529.27c.31.946.756 1.833 1.318 2.635.353.498.773.98 1.243 1.418a.427.427 0 0 1-.286.735v-.009zm78.408-1.004c-.05 0-.1-.009-.15-.026a70.978 70.978 0 0 1-4.652-2.018.427.427 0 0 1-.202-.565.42.42 0 0 1 .563-.203 69.43 69.43 0 0 0 4.601 1.993c.218.084.32.329.235.549a.425.425 0 0 1-.395.27zm54.075-.676a.418.418 0 0 1-.386-.262.413.413 0 0 1 .227-.548 74.316 74.316 0 0 0 4.551-2.094.425.425 0 0 1 .562.185.427.427 0 0 1-.185.566 70.92 70.92 0 0 1-4.601 2.12.36.36 0 0 1-.159.033h-.009zm-63.177-3.656a.42.42 0 0 1-.201-.05 73.522 73.522 0 0 1-4.333-2.652.422.422 0 0 1-.117-.582.417.417 0 0 1 .58-.118c1.393.92 2.829 1.798 4.273 2.617a.42.42 0 0 1 .16.574.427.427 0 0 1-.37.22l.008-.009zm72.17-.878a.415.415 0 0 1-.361-.21.423.423 0 0 1 .143-.575 71.964 71.964 0 0 0 4.215-2.719.42.42 0 0 1 .588.11.424.424 0 0 1-.11.59 72.037 72.037 0 0 1-4.265 2.753.398.398 0 0 1-.21.06v-.009zm-111.34-1.157a.444.444 0 0 1-.201-.05.429.429 0 0 1-.168-.574 22.903 22.903 0 0 0 1.897-4.585.424.424 0 0 1 .52-.287.42.42 0 0 1 .286.523 24.088 24.088 0 0 1-1.965 4.754.41.41 0 0 1-.369.22zM13.116 30.64h-.06a.424.424 0 0 1-.36-.473c.226-1.672.78-3.327 1.662-4.914a.414.414 0 0 1 .571-.16c.202.11.277.371.16.574-.832 1.494-1.352 3.048-1.562 4.618a.419.419 0 0 1-.42.363l.009-.008zm64.024-1.714a.395.395 0 0 1-.252-.085l-1.142-.878c-.906-.7-1.864-1.435-2.871-2.195a.422.422 0 0 1 .504-.675 276.93 276.93 0 0 1 2.88 2.203l1.133.878a.42.42 0 0 1 .076.591.425.425 0 0 1-.336.17l.008-.01zm88.829-1.03a.402.402 0 0 1-.328-.16.42.42 0 0 1 .067-.592 69.796 69.796 0 0 0 3.787-3.284.422.422 0 0 1 .596.025.427.427 0 0 1-.025.6 71.719 71.719 0 0 1-3.837 3.326.428.428 0 0 1-.26.093v-.008zm-96.923-5.007a.391.391 0 0 1-.235-.076 79.435 79.435 0 0 0-4.215-2.727.425.425 0 0 1-.143-.583.413.413 0 0 1 .58-.144c1.385.836 2.778 1.731 4.265 2.753a.424.424 0 0 1 .109.591.422.422 0 0 1-.344.186h-.017zm-19.833-.034h-.034a.419.419 0 0 1-.386-.456c.05-.633.076-1.275.076-1.908 0-1.03-.068-2.06-.202-3.057a.42.42 0 0 1 .361-.473.424.424 0 0 1 .47.364 24.745 24.745 0 0 1 .135 5.142.422.422 0 0 1-.42.388zm-31.395-.963a.425.425 0 0 1-.303-.126.427.427 0 0 1 .009-.6 23.469 23.469 0 0 1 4.055-3.14.42.42 0 0 1 .58.134.427.427 0 0 1-.135.583c-1.469.92-2.787 1.934-3.912 3.031a.434.434 0 0 1-.294.118zm155.54-.86a.38.38 0 0 1-.286-.119.427.427 0 0 1-.016-.6 70.418 70.418 0 0 0 3.299-3.782.419.419 0 1 1 .647.532 72.414 72.414 0 0 1-3.342 3.825.434.434 0 0 1-.302.135v.008zM60.38 17.73a.49.49 0 0 1-.184-.042 49.361 49.361 0 0 0-4.585-1.976.427.427 0 0 1-.252-.54.427.427 0 0 1 .538-.254 53.638 53.638 0 0 1 4.668 2.01.423.423 0 0 1-.185.802zm-34.09-1.216a.419.419 0 0 1-.386-.262.413.413 0 0 1 .226-.549c1.596-.667 3.2-1.25 4.787-1.714a.42.42 0 0 1 .52.287.42.42 0 0 1-.285.524 44.912 44.912 0 0 0-4.703 1.68.363.363 0 0 1-.16.034zm24.644-2.255s-.067 0-.1-.008a36.802 36.802 0 0 0-4.904-.853.424.424 0 0 1-.37-.464.41.41 0 0 1 .462-.372c.495.051 1 .119 1.495.195a.451.451 0 0 1-.059-.11 17.493 17.493 0 0 0-2.385-4.306.42.42 0 1 1 .664-.515 18.497 18.497 0 0 1 2.502 4.517.42.42 0 0 1-.151.498c.982.16 1.973.363 2.947.6a.42.42 0 0 1-.1.827v-.009zm-14.996-.574a.415.415 0 0 1-.412-.354.42.42 0 0 1 .344-.481c1.68-.28 3.384-.44 5.064-.49.218 0 .428.177.428.414 0 .236-.176.43-.412.43a37.84 37.84 0 0 0-4.954.481h-.067.009zm-46.98-2.035a.414.414 0 0 1-.352-.194.424.424 0 0 1 .126-.582 65.04 65.04 0 0 1 4.383-2.567.42.42 0 0 1 .57.177.424.424 0 0 1-.176.574 59.927 59.927 0 0 0-4.324 2.525.444.444 0 0 1-.227.067zm8.9-4.728a.422.422 0 0 1-.168-.81 70.488 70.488 0 0 1 4.728-1.85.424.424 0 0 1 .277.803 68.729 68.729 0 0 0-4.668 1.823.374.374 0 0 1-.168.034zM41.74 5.056a.443.443 0 0 1-.227-.067c-1.26-.828-2.754-1.537-4.45-2.111a.419.419 0 0 1-.26-.532.415.415 0 0 1 .529-.262c1.755.6 3.316 1.334 4.643 2.204a.424.424 0 0 1 .126.582.425.425 0 0 1-.353.195l-.008-.009zM7.364 3.587a.421.421 0 0 1-.403-.312.416.416 0 0 1 .294-.515 73.114 73.114 0 0 1 4.929-1.166.42.42 0 0 1 .495.33.428.428 0 0 1-.328.498c-1.629.32-3.266.71-4.878 1.157a.49.49 0 0 1-.11.016v-.008zm24.938-1.883h-.067a42.851 42.851 0 0 0-4.963-.515.423.423 0 0 1-.403-.439c.009-.236.227-.405.437-.405 1.763.084 3.468.261 5.055.523a.414.414 0 0 1 .344.481.423.423 0 0 1-.411.355h.008zM17.238 1.62a.425.425 0 0 1-.42-.372.43.43 0 0 1 .361-.473 62.17 62.17 0 0 1 5.055-.43.423.423 0 0 1 .034.844c-1.629.076-3.3.22-4.988.43h-.05.008z" fill="#FFC82B"/>
</svg>
