<svg width="193" height="642" viewBox="0 0 193 642" fill="none" xmlns="http://www.w3.org/2000/svg">
<path d="M0.975396 3.46802C56.3698 -6.68851 117.297 19.2682 149.382 69.1748C157.235 81.3922 162.588 95.0022 168.201 108.396C177.587 130.835 187.169 154.48 184.529 178.663C179.118 228.032 135.643 252.015 100.193 278.457C71.1939 300.073 36.6667 333.854 67.6442 369.333C75.0824 377.853 85.7527 382.933 96.6125 386.123C136.619 397.845 187.582 379.788 199.063 339.783C200.525 334.662 201.319 329.155 199.856 324.027C196.837 313.405 184.957 307.511 173.887 306.961C149.877 305.751 128.034 324.179 119.148 346.474C97.5792 400.628 126.391 440.812 182.878 442.494C219.865 443.593 253.803 426.073 289.338 418.752C309.194 414.662 325.738 416.25 345.383 419.411C362.661 422.194 378.894 422.162 392.119 435.963C402.398 446.679 406.905 463.144 401.78 477.052C394.956 495.579 374.591 504.86 361.202 519.39C337.354 545.297 339.198 589.482 362.921 615.481C383.721 638.28 418.03 646.228 447.911 638.276" stroke="#FF6520" stroke-miterlimit="10" stroke-linecap="round" stroke-dasharray="8 8"/>
</svg>
