<svg width="370" height="92" viewBox="0 0 370 92" fill="none" xmlns="http://www.w3.org/2000/svg">
    <path d="M30.715 40.756C26.348 38.88 9.585 32.654 1.25 30.563l-9.712-2.9 1.183 91.928h921v-64.72c-2.083 0-13.571-3.686-42.855-18.427-36.606-18.427-59.82-8.626-97.319 3.92-29.999 10.037-53.569 1.569-61.605-3.92-9.226-7.841-35.981-19.29-69.194-2.353-33.213 16.937-66.813 7.057-79.462 0 1.786.785-5.267-2.9-47.766-23.915-42.499-21.015-82.587-3.79-97.318 7.449-2.679 1.045-16.518 8.155-50.445 28.228-33.928 20.074-68.897 12.807-82.141 6.665l-37.498-11.762c-20.387-9.67-71.159-23.21-111.158 0-49.998 29.013-94.1 5.22-106.246 0z" fill="#FFF6DC"/>
</svg>
