<svg width="39" height="38" viewBox="0 0 39 38" fill="none" xmlns="http://www.w3.org/2000/svg">
<path d="M38.9501 19.6336C38.9501 23.8676 36.8745 27.5834 33.7512 29.6805C31.5793 31.1389 29.5613 32.8394 27.6681 34.6901C26.067 36.2548 23.9345 37.2101 21.5944 37.2101C20.0075 37.2101 18.5161 36.7712 17.2213 36.0007C15.137 34.761 12.8459 33.9804 10.4821 33.6403C6.39246 33.0512 0.782227 30.6519 0.782227 22.1586C0.782227 19.1567 1.70595 16.3996 3.35681 14.2611C4.75423 12.4509 5.91165 10.4474 6.89775 8.35108C9.19916 3.4605 13.937 0.105042 19.4091 0.105042C23.8595 0.105042 27.8236 2.32458 30.3871 5.78469C31.5911 7.41094 32.9554 8.89794 34.5076 10.1419C37.2053 12.3049 38.9509 15.7515 38.9509 19.6336H38.9501Z" fill="#D51F91"/>
<path d="M19.2611 24.2326C22.9062 24.2326 25.8611 21.2777 25.8611 17.6326C25.8611 13.9875 22.9062 11.0326 19.2611 11.0326C15.616 11.0326 12.6611 13.9875 12.6611 17.6326C12.6611 21.2777 15.616 24.2326 19.2611 24.2326Z" stroke="white" stroke-width="1.65" stroke-linecap="round" stroke-linejoin="round"/>
<path d="M27.5116 25.8826L23.9229 22.2938" stroke="white" stroke-width="1.65" stroke-linecap="round" stroke-linejoin="round"/>
</svg>
