<svg width="39" height="38" viewBox="0 0 39 38" fill="none" xmlns="http://www.w3.org/2000/svg">
<path d="M38.1679 19.6336C38.1679 23.8676 36.0923 27.5834 32.969 29.6805C30.7971 31.1389 28.7791 32.8394 26.8859 34.6901C25.2847 36.2548 23.1523 37.2101 20.8122 37.2101C19.2253 37.2101 17.7339 36.7712 16.4391 36.0007C14.3548 34.761 12.0637 33.9804 9.69988 33.6403C5.61023 33.0512 0 30.6519 0 22.1586C0 19.1567 0.923723 16.3996 2.57458 14.2611C3.97201 12.4509 5.12942 10.4474 6.11552 8.35108C8.41693 3.4605 13.1548 0.105042 18.6268 0.105042C23.0773 0.105042 27.0414 2.32458 29.6049 5.78469C30.8089 7.41094 32.1732 8.89794 33.7254 10.1419C36.4231 12.3049 38.1687 15.7515 38.1687 19.6336H38.1679Z" fill="#D51F91"/>
<path d="M24.7967 24.8826V23.2326C24.7967 22.3574 24.449 21.518 23.8301 20.8991C23.2112 20.2803 22.3719 19.9326 21.4967 19.9326H14.8967C14.0215 19.9326 13.1821 20.2803 12.5632 20.8991C11.9444 21.518 11.5967 22.3574 11.5967 23.2326V24.8826" stroke="white" stroke-width="1.65" stroke-linecap="round" stroke-linejoin="round"/>
<path d="M18.1965 16.6326C20.019 16.6326 21.4965 15.1551 21.4965 13.3326C21.4965 11.5101 20.019 10.0326 18.1965 10.0326C16.3739 10.0326 14.8965 11.5101 14.8965 13.3326C14.8965 15.1551 16.3739 16.6326 18.1965 16.6326Z" stroke="white" stroke-width="1.65" stroke-linecap="round" stroke-linejoin="round"/>
</svg>
