<svg width="39" height="38" viewBox="0 0 39 38" fill="none" xmlns="http://www.w3.org/2000/svg">
<path d="M38.5087 19.6336C38.5087 23.8676 36.4331 27.5834 33.3098 29.6805C31.1379 31.1389 29.1199 32.8394 27.2267 34.6901C25.6256 36.2548 23.4931 37.2101 21.153 37.2101C19.5661 37.2101 18.0747 36.7712 16.7799 36.0007C14.6956 34.761 12.4045 33.9804 10.0407 33.6403C5.95105 33.0512 0.34082 30.6519 0.34082 22.1586C0.34082 19.1567 1.26454 16.3996 2.9154 14.2611C4.31283 12.4509 5.47024 10.4474 6.45634 8.35108C8.75775 3.4605 13.4956 0.105042 18.9676 0.105042C23.4181 0.105042 27.3822 2.32458 29.9457 5.78469C31.1497 7.41094 32.514 8.89794 34.0662 10.1419C36.7639 12.3049 38.5095 15.7515 38.5095 19.6336H38.5087Z" fill="#D51F91"/>
<path d="M13.6527 11.0076L11.1777 14.3076V25.8576C11.1777 26.2952 11.3516 26.7149 11.661 27.0244C11.9704 27.3338 12.3901 27.5076 12.8277 27.5076H24.3777C24.8153 27.5076 25.235 27.3338 25.5444 27.0244C25.8539 26.7149 26.0277 26.2952 26.0277 25.8576V14.3076L23.5527 11.0076H13.6527Z" stroke="white" stroke-width="1.65" stroke-linecap="round" stroke-linejoin="round"/>
<path d="M11.1777 14.3076H26.0277" stroke="white" stroke-width="1.65" stroke-linecap="round" stroke-linejoin="round"/>
<path d="M21.9027 17.6076C21.9027 18.4828 21.555 19.3222 20.9362 19.9411C20.3173 20.5599 19.4779 20.9076 18.6027 20.9076C17.7275 20.9076 16.8881 20.5599 16.2693 19.9411C15.6504 19.3222 15.3027 18.4828 15.3027 17.6076" stroke="white" stroke-width="1.65" stroke-linecap="round" stroke-linejoin="round"/>
</svg>
