<svg xmlns="http://www.w3.org/2000/svg" width="39" height="38" viewBox="0 0 39 38" fill="none">
  <path d="M38.814 19.976c0 4.234-2.075 7.95-5.199 10.047-2.171 1.458-4.19 3.159-6.083 5.01-1.6 1.564-3.733 2.52-6.073 2.52a8.516 8.516 0 0 1-4.373-1.21 18.23 18.23 0 0 0-6.74-2.36c-4.09-.59-9.7-2.989-9.7-11.482 0-3.002.924-5.759 2.575-7.898 1.397-1.81 2.555-3.813 3.541-5.91C9.063 3.803 13.802.447 19.273.447c4.45 0 8.415 2.22 10.978 5.68 1.204 1.626 2.569 3.113 4.12 4.357 2.699 2.163 4.444 5.61 4.444 9.492z" fill="#fff"/>
  <path d="m13.958 11.35-2.475 3.3V26.2a1.65 1.65 0 0 0 1.65 1.65h11.55a1.65 1.65 0 0 0 1.65-1.65V14.65l-2.475-3.3h-9.9zM11.483 14.65h14.85" stroke="#D51F91" stroke-width="1.65" stroke-linecap="round" stroke-linejoin="round"/>
  <path d="M22.208 17.95a3.3 3.3 0 0 1-6.6 0" stroke="#D51F91" stroke-width="1.65" stroke-linecap="round" stroke-linejoin="round"/>
</svg>