<svg width="174" height="120" viewBox="0 0 174 120" fill="none" xmlns="http://www.w3.org/2000/svg">
    <path d="M172.986 18.262c-.299-1.376-1.042-2.617-1.977-3.551a8.909 8.909 0 0 0-3.172-2.06c-2.257-.933-4.552-1.068-6.606-1.01-8.051.317-13.856 1.646-16.845 2.387-4.378 1.145-6.75 2.088-8.052 2.627-.482.221-.82.375-1.041.51-.994-.876-1.765-1.434-2.334-1.8a.775.775 0 0 1-.145-.096l-.019-.01s-.067-.067-.106-.096a47.226 47.226 0 0 0-1.601-1.309c-.742-.577-1.678-1.347-3.018-2.184-1.707-1.127-5.004-3.302-9.903-5.477A65.565 65.565 0 0 0 99.113.851C98.631.794 98.16.707 97.667.66L96.19.572C95.198.505 94.195.447 93.173.38c-1.022 0-2.054.02-3.105.029h-1.581c-.53.038-1.051.086-1.591.125-1.06.086-2.14.163-3.22.25-1.08.154-2.17.327-3.27.481-.54.087-1.109.154-1.649.25-.55.116-1.099.241-1.648.357-1.1.25-2.218.462-3.318.731-2.188.635-4.454 1.174-6.634 2.002-1.09.395-2.218.741-3.298 1.194-1.08.442-2.17.895-3.259 1.337-4.358 1.723-8.746 3.86-12.757 6.507-2.015 1.318-3.934 2.8-5.776 4.35a63.122 63.122 0 0 0-5.159 4.986c-3.192 3.522-6.017 7.266-8.38 11.193-2.458 3.898-4.069 8.162-5.12 12.32-.588 2.078-.839 4.177-1.147 6.198-.164 2.04-.357 4.023-.3 5.967-.057 1.944.155 3.802.242 5.611.096.895.231 1.771.337 2.628.116.866.213 1.703.386 2.521.241 1.242.453 2.455.723 3.61-.26.057-.733.211-1.543.587-1.398.645-3.818 1.896-7.752 4.514a76.269 76.269 0 0 0-5.352 3.965 53.46 53.46 0 0 0-3.577 3.167C4.18 86.49 2.869 87.877 1.73 89.62c-.568.875-1.08 1.867-1.378 3.022a5.377 5.377 0 0 0-.145 1.857c.02.328.135.645.212.972.058.164.135.308.203.462.086.125.125.347.318.53.916.914 1.832 1.607 2.902 2.28a20.332 20.332 0 0 0 3.423 1.618c4.86 1.732 10.453 1.982 16.239 1.578 3.703-.269 7.511-.828 11.397-1.627.164.299.367.607.56.934a36.716 36.716 0 0 0 2.931 4.129c1.36 1.713 3.327 3.6 5.795 5.409 2.488 1.79 5.506 3.523 8.997 5.015a46.574 46.574 0 0 0 5.602 1.982c.994.27 2.016.53 3.086.741 1.06.174 2.131.299 3.22.453 8.718 1.01 18.66.529 28.765-1.723a99.158 99.158 0 0 0 15.139-4.658 95.398 95.398 0 0 0 7.405-3.292c1.215-.616 2.43-1.213 3.617-1.906l1.783-.991 1.707-1.145c4.59-3.032 8.688-6.757 12.15-10.905 3.442-4.177 6.239-8.778 8.408-13.494.27-.587.54-1.184.81-1.77.261-.588.463-1.204.695-1.8l.665-1.79a14.48 14.48 0 0 0 .607-1.8c.348-1.213.704-2.416 1.042-3.61.27-1.203.53-2.416.781-3.6.868-4.783 1.225-9.441 1.041-13.85a64.267 64.267 0 0 0-.462-5.081c1.089-.838 2.169-1.684 3.239-2.512 2.556-1.916 4.928-3.937 7.271-5.862 2.353-1.915 4.609-3.869 6.663-5.967 2.035-2.088 3.828-4.389 5.072-6.91.637-1.252 1.09-2.55 1.437-3.908.289-1.367.357-2.772.067-4.158l-.009.02zM23.977 63.99c-.087-1.742-.27-3.561-.193-5.438-.048-1.877.184-3.782.338-5.755.318-1.944.578-3.956 1.157-5.939l.376-1.51c.154-.501.337-.992.511-1.483.183-.5.347-1.001.53-1.492l.26-.75c.097-.25.223-.491.329-.732.443-.972.887-1.954 1.34-2.945.55-.943 1.09-1.887 1.64-2.84C34.94 27.56 41.208 20.342 49.057 15.28c3.915-2.56 8.1-4.61 12.43-6.314 1.08-.443 2.15-.885 3.22-1.338 1.06-.433 2.16-.77 3.23-1.155 2.131-.818 4.33-1.328 6.46-1.973 8.64-2.117 17.175-2.752 24.628-1.8 7.473.867 13.809 2.955 18.591 5.024 4.812 2.05 8.11 4.091 9.855 5.102 1.302.712 2.247 1.366 3.018 1.838.772.471 1.331.808 1.746 1.03.048.019.087.048.135.077 0 0 .067.077.106.106.82.789 2.343 2.136 4.542 4.84 1.407 1.772 4.03 5.313 6.306 10.8 1.128 2.733 2.17 5.938 2.97 9.528 0 .029.019.058.01.087a171.607 171.607 0 0 1-3.559 2.627c-6.441 4.649-14.02 9.403-22.294 13.917-8.273 4.534-17.183 8.894-26.19 13.07-4.512 2.07-8.996 4.197-13.509 6.131-4.493 1.983-8.92 3.937-13.249 5.843-8.65 3.744-16.98 6.997-24.598 9.24a113.245 113.245 0 0 1-10.385 2.579l-.068-.077a8.182 8.182 0 0 0-.231-.77c-.338-.953-1.042-2.609-2.15-5.505-.714-1.897-2.141-5.496-3.55-10.559-.375-1.251-.693-2.608-1.012-4.052-.366-1.434-.598-2.964-.896-4.552-.164-.799-.232-1.627-.348-2.464-.096-.837-.23-1.694-.289-2.57zm115.115-42.81c.144 0 .318.019.54.01 1.369-.01 7.656-.963 13.905-2.022 3.104-.53 6.18-.924 8.639-.876 2.151 0 3.79.337 4.6.482.039.077.067.154.096.24.135.424.241.943.174 1.492-.058.549-.26 1.194-.627 1.848-.463.856-1.398 2.011-2.815 3.407-.695.712-1.457 1.482-2.286 2.339-.424.423-.858.866-1.302 1.318-.472.443-.964.895-1.465 1.367-2.874 2.772-6.48 5.91-10.704 9.192-.848-3.456-1.919-6.555-3.076-9.211-1.909-4.399-4.059-7.565-5.67-9.577l-.009-.01zM32.029 94.634c-3.317.616-6.364 1-9.064 1.165-5.468.394-9.489-.126-11.562-.395-.762-.116-1.437-.212-2.044-.308a88.505 88.505 0 0 1-1.582-.318c-.289-.048-.54-.096-.771-.144 0-.02-.029-.029-.039-.048-.038-.029-.096-.087-.135-.116 0-.019.01-.057.058-.115.087-.106.077-.087.087-.125.01-.058.02-.202.077-.202.183-.549.598-2.108 1.987-3.773 1.33-1.685 3.538-3.446 5.795-5.16 4.214-3.233 8.823-5.88 10.183-6.832 1.533 5.072 3.056 8.662 3.905 10.52 1.234 2.723 2.112 4.272 2.652 5.158.183.308.337.53.462.683l-.01.01zm110.158-14.456A60.31 60.31 0 0 1 134 93.2a54.333 54.333 0 0 1-11.735 10.481c-.549.356-1.08.751-1.649 1.088l-1.735.972c-1.148.664-2.344 1.251-3.53 1.848a91.584 91.584 0 0 1-7.251 3.234 99.908 99.908 0 0 1-14.83 4.571c-9.894 2.224-19.623 2.714-28.109 1.762-1.05-.135-2.102-.241-3.105-.405a40.595 40.595 0 0 1-2.921-.702 47.117 47.117 0 0 1-5.41-1.867c-3.375-1.415-6.306-3.061-8.717-4.755-4.831-3.369-7.213-7.103-8.534-8.941-.096-.145-.183-.279-.28-.414 1.755-.385 3.54-.828 5.333-1.31 3.057-.885 6.171-1.78 9.344-2.694 3.153-1 6.373-1.944 9.594-3.041 12.902-4.303 26.286-9.442 39.207-15.621 12.912-6.16 25.457-13.147 36.749-20.75 1.408-.954 2.815-1.897 4.204-2.84 1.389-.934 2.719-1.935 4.06-2.897.973-.703 1.938-1.396 2.892-2.089l.087.924c.039.51.087 1.03.125 1.55.049.52.087 1.049.068 1.578.251 8.499-1.35 18.181-5.67 27.315v-.02zm28.976-57.98a17.68 17.68 0 0 1-1.359 3.485c-1.177 2.281-2.864 4.408-4.841 6.4-1.977 1.993-4.204 3.898-6.567 5.794-2.343 1.906-4.705 3.898-7.241 5.785-.743.568-1.476 1.136-2.228 1.713-.52.395-1.051.799-1.571 1.213-.01 0-.029.019-.039.038-1.302.924-2.604 1.867-3.915 2.81-2.642 1.955-5.429 3.793-8.225 5.67-11.244 7.516-23.712 14.427-36.546 20.548-12.844 6.131-26.151 11.242-38.966 15.544-3.201 1.088-6.403 2.04-9.537 3.041-3.153.924-6.248 1.829-9.295 2.715-1.929.529-3.848 1-5.747 1.414-.396.087-.782.164-1.167.24-3.674.752-7.27 1.281-10.742 1.541-5.622.414-11.012.154-15.486-1.453a18.841 18.841 0 0 1-3.105-1.473c-.473-.298-.926-.597-1.34-.943a5.257 5.257 0 0 1-.618-.51c-.154-.154-.434-.385-.434-.414-.385-.664-.434-1.588-.183-2.464.241-.886.685-1.733 1.186-2.522 1.042-1.578 2.276-2.926 3.462-4.12 1.186-1.193 2.362-2.222 3.423-3.118 2.15-1.809 3.944-3.118 5.169-4.013 3.596-2.608 5.853-4.004 7.126-4.841.713-.462 1.137-.741 1.36-.915.047.241.105.491.173.732.183.722.357 1.434.52 2.127.068.25.145.5.212.741-1.205.356-6.412 3.003-11.03 6.555-2.296 1.751-4.6 3.618-6.037 5.659-1.495 2.002-1.851 4.023-1.794 4.697 0 .23.049.394.106.529a1.003 1.003 0 0 0-.163-.038c-.955-.183-1.186-.126-1.235 0-.038.105.068.25.974.644.453.193 1.09.482 2.044.751.473.144 1.023.308 1.65.481.636.145 1.359.308 2.16.481 2.12.386 6.267 1.011 11.889.684 2.844-.135 6.055-.51 9.536-1.136.3-.048.598-.106.897-.154 3.134-.597 6.47-1.395 9.942-2.416 7.733-2.233 16.161-5.476 24.868-9.22 4.33-1.896 8.775-3.84 13.278-5.813 4.513-1.935 9.035-4.072 13.558-6.14 9.026-4.197 17.984-8.605 26.286-13.196 8.312-4.562 15.92-9.413 22.41-14.168.945-.693 1.851-1.376 2.748-2.069.53-.404 1.051-.808 1.572-1.222 4.57-3.571 8.437-6.997 11.474-10.03.502-.48.994-.952 1.456-1.404.444-.472.878-.934 1.293-1.367.819-.876 1.581-1.684 2.256-2.406 1.369-1.425 2.382-2.762 2.864-3.84.366-.78.549-1.55.578-2.281a4.295 4.295 0 0 0-.308-1.704c.299-.029.424-.135.492-.298.077-.203.019-.453-.945-.973a4.562 4.562 0 0 0-.55-.24v-.01a2.926 2.926 0 0 0-.752-.53c-.559-.278-.974-.25-1.206-.22-.183.038-.27.096-.289.154a22.472 22.472 0 0 0-2.43-.29c-2.651-.172-5.901.203-9.035.742-6.258 1.059-12.487 2.252-13.789 2.733-.511.193-.771.356-.897.5-.202-.23-.386-.452-.559-.644a35.546 35.546 0 0 0-2.228-2.252c.203-.039.473-.106.791-.193 1.35-.337 3.799-1.097 8.351-2.079 2.97-.616 8.717-1.8 16.614-2.011 1.909-.039 3.983.173 5.882 1.01 1.929.78 3.558 2.397 3.963 4.543.212 1.078.087 2.233-.154 3.398l-.01.019z" fill="#3B2900"/>
    <path d="M146.295 41.035c-.8-3.59-1.842-6.795-2.97-9.538-2.276-5.476-4.898-9.018-6.306-10.79-2.199-2.704-3.722-4.051-4.532-4.84-.039-.03-.077-.068-.106-.097 0 0-.087-.057-.135-.077-.415-.221-.974-.558-1.746-1.03-.771-.471-1.716-1.126-3.018-1.847-1.735-1.011-5.043-3.051-9.855-5.101a68.707 68.707 0 0 0-8.794-3.11 64.548 64.548 0 0 0-9.787-1.915c-7.454-.952-15.997-.317-24.628 1.8-2.14.645-4.339 1.155-6.46 1.973-1.07.385-2.17.722-3.24 1.155-1.06.453-2.14.886-3.22 1.338-4.33 1.704-8.515 3.754-12.43 6.314-7.85 5.062-14.117 12.28-18.794 19.827-.55.943-1.09 1.896-1.64 2.83-.452.99-.896 1.972-1.34 2.954-.105.24-.23.472-.327.722l-.26.75a92.07 92.07 0 0 1-.531 1.502c-.174.49-.366.982-.511 1.473-.125.51-.26 1.01-.376 1.51-.57 1.983-.83 3.995-1.157 5.94-.155 1.972-.386 3.887-.338 5.764-.087 1.877.097 3.686.183 5.438.068.886.203 1.742.3 2.57.105.837.173 1.675.337 2.464.29 1.588.53 3.128.897 4.552.318 1.444.636 2.801 1.012 4.052 1.398 5.053 2.835 8.653 3.539 10.559 1.119 2.887 1.822 4.542 2.16 5.495.116.327.183.587.231.77l.068.077c3.24-.635 6.73-1.492 10.385-2.58 7.618-2.242 15.95-5.495 24.599-9.239 4.33-1.906 8.755-3.86 13.249-5.852 4.512-1.925 8.996-4.061 13.51-6.13 9.015-4.187 17.915-8.547 26.198-13.08a235.692 235.692 0 0 0 11.948-6.978c3.693-2.32 7.154-4.64 10.346-6.94 1.225-.885 2.401-1.77 3.558-2.627 0-.03 0-.058-.019-.087v.029zM39.088 65.453a7.303 7.303 0 0 1-1.447 1.569c-.964.702-1.176.577-1.253.462-.01-.03-.039-.058-.039-.078-.067.01-.135.02-.202.039a8.033 8.033 0 0 1-2.16-.058c-1.003-.173-2.373-.616-3.462-1.81a5.41 5.41 0 0 1-1.186-2.203 5.916 5.916 0 0 1 0-2.695 6.344 6.344 0 0 1 1.234-2.503c.579-.74 1.427-1.395 2.266-1.742.405-.211.916-.413 1.437-.462a4.546 4.546 0 0 1 1.533.078 5.924 5.924 0 0 1 2.498 1.308c.665.597 1.243 1.261 1.62 2.089a5.36 5.36 0 0 1 .453 2.425c-.068 1.56-.714 2.763-1.283 3.6l-.01-.02zm20.442-26.18c-1.475-.635-3.047-2.001-4.146-3.974a10.825 10.825 0 0 1-1.138-3.378c-.183-1.252-.048-2.618.386-3.918.906-2.589 3.201-4.735 5.959-5.515 1.36-.385 2.893-.48 4.262.02l.993.356c.318.144.608.327.916.5.627.299 1.119.799 1.649 1.223 1.948 1.944 2.72 4.658 2.43 6.881-.212 2.262-1.215 4.081-2.247 5.217a8.221 8.221 0 0 1-2.555 2.002 4.267 4.267 0 0 1-1.022.394c-.222.058-.396.096-.52.125-.03.02-.068.048-.117.077-.231.145-.675.414-1.562.54-.588.105-1.841.115-3.307-.54l.02-.01zm14.609 31.31c-.714 1.203-1.63 1.81-2.093 2.04-.202.087-.385.154-.54.212-.029.01-.038.038-.058.048a6.527 6.527 0 0 1-2.7 1.078c-.694.077-1.504.144-2.372-.077a6.988 6.988 0 0 1-2.574-1.194c-.82-.615-1.504-1.472-2.035-2.435-.28-.471-.482-1-.665-1.559-.125-.577-.3-1.155-.27-1.77-.058-.607.096-1.233.202-1.849.232-.596.434-1.183.81-1.703.695-1.059 1.64-1.954 2.748-2.522a9.31 9.31 0 0 1 3.54-1.058 8.273 8.273 0 0 1 3.587.567c.53.308 1.08.54 1.504.934l.347.279.173.154c.087.048.135.164.184.212.154.24.347.471.472.731.55 1.001.79 2.05.849 3.032.125 1.983-.396 3.686-1.11 4.86v.02zm14.03-56.574c-.048-.75.125-1.569.472-2.348.405-.751 1.003-1.463 1.794-1.925.376-.231.79-.395 1.205-.559.434-.086.868-.269 1.292-.269.434-.039.849-.106 1.34-.087.492.02.975.116 1.428.29a4.569 4.569 0 0 1 2.198 1.808c.126.203.242.414.338.617.125.308.135.442.212.664.125.394.203.808.28 1.212.135.809.193 1.636.067 2.445-.106.799-.386 1.578-.858 2.204-.463.626-1.09 1.088-1.716 1.3-.3.134-.598.192-.888.24-.28.067-.55.048-.8.058-.511.029-.916-.068-1.273-.096a20.926 20.926 0 0 1-.761-.222c-.164-.067-.31-.115-.425-.183-.183 0-.482-.086-1.003-.337-.154-.096-.385-.26-.665-.462a7.264 7.264 0 0 1-.897-.904c-.627-.76-1.292-1.944-1.35-3.456l.01.01zM103.5 50.506c-.936 1.357-2.035 1.963-2.575 2.252-.877.395-1.408.443-1.678.452-.212 0-.289-.029-.328-.086a4.112 4.112 0 0 1-.636.154c-.067.019-.241.048-.318.028-.096.01-.183.01-.28.01-.193 0-.386 0-.588-.02-1.64-.076-3.674-.721-5.516-2.174a9.618 9.618 0 0 1-2.42-2.81c-.665-1.156-1.012-2.56-.974-3.985.039-1.425.473-2.897 1.389-4.12a6.46 6.46 0 0 1 .771-.856c.3-.25.588-.462.897-.664.607-.395 1.244-.76 1.928-1.02a10 10 0 0 1 4.272-.78 7.68 7.68 0 0 1 4.098 1.3c.598.384 1.109.894 1.543 1.395.222.26.424.53.627.789.183.27.328.568.501.866.608 1.174.878 2.426.936 3.59.086 2.358-.714 4.35-1.64 5.66l-.009.019zM126.2 31.189a5.782 5.782 0 0 1-1.958 1.165c-.154.038-.289.077-.395.096-.183.144-.502.308-1.032.414-.415.077-1.292.067-2.314-.299-.492-.173-1.08-.48-1.601-.798a4.951 4.951 0 0 1-1.639-1.617c-.434-.722-.694-1.56-.791-2.435l-.019-.145v-.067l-.087-.337c-.029-.231-.077-.452-.067-.703a3.951 3.951 0 0 1 .193-1.482c.318-1 1.031-1.829 1.812-2.396.396-.299.82-.53 1.235-.751a4.73 4.73 0 0 1 1.456-.491 7.306 7.306 0 0 1 1.446-.154c.299 0 .598-.01.916.038.212.02.424.078.656.154.887.299 1.803.828 2.459 1.502.337.327.626.626.896 1.03.126.202.261.394.377.606.086.222.173.433.27.635.289.876.308 1.771.163 2.57-.067.395-.173.76-.318 1.088-.414 1.049-1.08 1.819-1.668 2.377h.01zM147.858 52.864c.019-.53-.01-1.06-.068-1.579-.048-.52-.087-1.04-.135-1.55l-.087-.923c-.945.693-1.919 1.386-2.892 2.088-1.341.962-2.662 1.964-4.06 2.897-1.398.943-2.796 1.896-4.204 2.84a202.58 202.58 0 0 1-4.368 2.867c-10.125 6.497-21.118 12.512-32.39 17.873-12.921 6.18-26.296 11.319-39.207 15.621-3.221 1.107-6.442 2.04-9.585 3.042-3.182.924-6.287 1.81-9.354 2.704-1.793.481-3.577.924-5.323 1.299.097.135.184.28.28.414.627.895 1.524 2.233 2.825 3.754A29.67 29.67 0 0 0 45 109.408c2.401 1.694 5.342 3.34 8.717 4.755 1.697.712 3.5 1.347 5.41 1.867.954.279 1.938.51 2.93.703.994.173 2.045.269 3.096.413 8.495.953 18.215.462 28.109-1.761a99.997 99.997 0 0 0 14.84-4.581 95.657 95.657 0 0 0 7.261-3.224c1.186-.597 2.382-1.184 3.529-1.848l1.736-.972c.569-.337 1.099-.732 1.658-1.088 4.407-2.887 8.38-6.468 11.735-10.481 3.337-4.023 6.066-8.46 8.187-13.022 4.32-9.125 5.921-18.817 5.67-27.305h-.019zm-75.445 47.661c.097-.76.52-1.492 1.08-2.031 1.119-1.126 2.883-1.511 4.407-1.145 1.533.336 2.922 1.453 3.452 2.887.28.683.415 1.434.357 2.146a4.788 4.788 0 0 1-.627 1.906c-.328.549-.771.962-1.196 1.299-.453.299-.916.52-1.35.607-.761.163-1.35.067-1.687-.049a.29.29 0 0 1-.145.077c-.154.029-.443.029-.897-.134-.578-.222-2.304-1.174-3.182-3.542-.192-.597-.308-1.29-.202-2.031l-.01.01zm52.572-12.118c-.472 1.964-1.716 3.388-2.873 4.12-.55.288-1.013.577-1.476.712-.212.183-.569.443-1.282.664-.251.106-.656.115-1.148.183-.501-.02-1.118-.048-1.793-.26-.878-.24-1.823-.75-2.7-1.52a8.887 8.887 0 0 1-1.36-1.493c-1.08-1.636-1.957-3.936-1.032-6.438.55-1.184 1.495-2.022 2.382-2.734.241-.183.405-.317.646-.53.241-.192.492-.375.762-.548a7.226 7.226 0 0 1 1.726-.799 6.035 6.035 0 0 1 1.948-.221c.675.038 1.302.24 1.851.481 1.109.404 2.17 1.126 2.893 2.05.019.02.048.039.058.068a7.46 7.46 0 0 1 1.456 3.118c.222 1.097.145 2.166-.077 3.147h.019z" fill="#D7CAFF"/>
    <path d="M171.165 22.2a17.749 17.749 0 0 1-1.36 3.483c-1.176 2.281-2.864 4.408-4.841 6.4-1.976 1.993-4.204 3.898-6.566 5.795-2.343 1.905-4.706 3.898-7.242 5.784-.742.568-1.475 1.136-2.227 1.713-.521.395-1.051.799-1.572 1.213-.01 0-.029.02-.039.038-1.302.924-2.603 1.868-3.915 2.81-2.642 1.955-5.429 3.793-8.225 5.67-11.243 7.517-23.711 14.427-36.546 20.548-12.844 6.131-26.15 11.242-38.966 15.544-3.201 1.088-6.403 2.04-9.536 3.042-3.154.924-6.249 1.828-9.296 2.714-1.929.529-3.848 1-5.747 1.415a63.56 63.56 0 0 1-1.167.24c-3.674.75-7.27 1.28-10.742 1.54-5.622.414-11.012.154-15.486-1.453a18.833 18.833 0 0 1-3.105-1.473c-.473-.298-.926-.597-1.34-.943a5.258 5.258 0 0 1-.617-.51c-.155-.154-.434-.385-.434-.414-.386-.664-.434-1.588-.184-2.464.241-.885.685-1.732 1.186-2.522 1.042-1.578 2.276-2.925 3.462-4.119 1.186-1.193 2.363-2.223 3.423-3.118 2.15-1.81 3.944-3.119 5.169-4.014 3.597-2.608 5.853-4.004 7.126-4.841.713-.462 1.138-.741 1.36-.914.048.24.105.49.173.731.183.722.357 1.434.52 2.127.068.25.145.5.213.741-1.205.356-6.413 3.003-11.031 6.555-2.295 1.751-4.6 3.618-6.037 5.659-1.494 2.002-1.851 4.023-1.793 4.697 0 .23.048.394.106.53a1.013 1.013 0 0 0-.164-.04c-.955-.182-1.186-.124-1.234 0-.039.106.067.25.973.645.454.193 1.09.482 2.045.751.472.144 1.022.308 1.649.481.636.145 1.36.308 2.16.482 2.121.385 6.267 1.01 11.889.683 2.845-.135 6.056-.51 9.537-1.136.299-.048.598-.106.896-.154 3.134-.596 6.47-1.395 9.942-2.415 7.733-2.233 16.161-5.477 24.869-9.22 4.33-1.897 8.775-3.841 13.278-5.814 4.512-1.935 9.035-4.071 13.557-6.14 9.026-4.197 17.984-8.605 26.286-13.196 8.312-4.562 15.92-9.413 22.41-14.168.945-.692 1.851-1.376 2.748-2.069.53-.404 1.051-.808 1.572-1.222 4.57-3.57 8.437-6.997 11.475-10.03.501-.48.993-.952 1.456-1.404.443-.472.877-.934 1.292-1.367.819-.876 1.581-1.684 2.256-2.406 1.369-1.425 2.382-2.762 2.864-3.84.366-.78.55-1.55.579-2.281a4.311 4.311 0 0 0-.309-1.704c.299-.029.424-.135.492-.298.077-.202.019-.453-.945-.972a4.562 4.562 0 0 0-.55-.241v-.01a2.91 2.91 0 0 0-.752-.529c-.559-.28-.974-.25-1.205-.221-.183.038-.27.096-.29.154a22.482 22.482 0 0 0-2.429-.29c-2.652-.172-5.902.203-9.036.742-6.258 1.059-12.487 2.252-13.789 2.733-.511.193-.771.357-.897.5-.202-.23-.385-.452-.559-.644a35.8 35.8 0 0 0-2.227-2.252c.202-.039.472-.106.79-.193 1.35-.336 3.8-1.097 8.351-2.079 2.97-.616 8.717-1.8 16.614-2.011 1.91-.039 3.983.173 5.882 1.01 1.929.78 3.559 2.397 3.964 4.543.212 1.078.086 2.233-.155 3.398l-.009.02z" fill="#D7CAFF"/>
    <path d="M68.422 24.575c-.53-.423-1.022-.924-1.649-1.222-.308-.164-.598-.356-.916-.5l-.993-.357c-1.37-.5-2.912-.404-4.262-.029-2.768.79-5.053 2.926-5.97 5.525a8.707 8.707 0 0 0-.385 3.917c.193 1.251.617 2.387 1.138 3.388 1.1 1.973 2.661 3.35 4.137 3.975 1.465.664 2.719.645 3.307.539.887-.116 1.321-.395 1.562-.54a.497.497 0 0 0 .106-.076c.135-.029.3-.067.53-.125.27-.077.627-.164 1.013-.395a8.227 8.227 0 0 0 2.565-2.002 9.218 9.218 0 0 0 2.247-5.216c.28-2.224-.492-4.938-2.43-6.882zm-.762 11.348c-.385.558-.868.914-1.215 1.26-.376.308-.704.5-.916.664-.299.26-.578.395-.79.53-.213.135-.377.25-.483.327a.305.305 0 0 1-.067.058c-.27 0-.694.096-1.447.067-.51 0-1.523-.057-2.728-.673-1.196-.578-2.508-1.81-3.433-3.552a9.19 9.19 0 0 1-.907-2.926c-.135-1.068 0-2.165.376-3.224.762-2.108 2.71-3.908 5.005-4.543 1.128-.298 2.343-.375 3.404.029l.83.289c.26.125.51.288.76.423.54.24.927.664 1.38 1.001 1.581 1.588 2.266 3.802 2.054 5.717a8.248 8.248 0 0 1-1.813 4.543l-.01.01z" fill="#FFF8E3"/>
    <path d="M69.47 31.381a8.249 8.249 0 0 1-1.812 4.543c-.386.558-.868.914-1.215 1.26-.376.309-.704.501-.916.665-.299.26-.579.395-.79.53-.213.134-.377.25-.483.327a.305.305 0 0 1-.067.057c-.27 0-.695.096-1.447.068-.51 0-1.523-.058-2.729-.674-1.195-.578-2.507-1.81-3.432-3.552a9.191 9.191 0 0 1-.907-2.925c-.135-1.069 0-2.166.376-3.225.762-2.107 2.71-3.907 5.005-4.543 1.128-.298 2.343-.375 3.404.03l.829.288c.26.125.511.289.762.424.54.24.925.664 1.379 1 1.581 1.589 2.266 3.802 2.053 5.718l-.01.01zM98.737 13.412c-.077-.405-.154-.819-.28-1.213-.067-.222-.077-.356-.212-.664A4.622 4.622 0 0 0 95.71 9.1a4.486 4.486 0 0 0-1.427-.289c-.492-.01-.897.058-1.33.087-.425.01-.868.192-1.293.27-.415.163-.839.326-1.215.557-.79.462-1.388 1.165-1.793 1.925-.357.79-.521 1.598-.473 2.349.058 1.51.723 2.695 1.35 3.455.309.375.627.664.887.905.29.202.511.365.666.452.53.25.82.346 1.012.337.116.067.26.115.424.183.184.058.434.125.762.212.347.028.762.134 1.263.105.251-.01.521 0 .8-.067.29-.048.589-.106.888-.24.627-.212 1.253-.665 1.707-1.3.472-.616.752-1.405.858-2.194.125-.809.067-1.637-.068-2.445l.01.01zm-1.919 3.869c-.56.856-1.562 1.107-2.343 1.174-.395.058-.762 0-1.06.01a9.793 9.793 0 0 0-.705-.068c-.308-.029-.54-.038-.713-.029-.097-.096-.213-.202-.347-.327a9.658 9.658 0 0 0-.512-.481c-.192-.231-.433-.5-.665-.838-.482-.654-.935-1.636-.926-2.772-.019-.558.145-1.125.386-1.664.309-.501.714-.963 1.283-1.28a5.59 5.59 0 0 1 .916-.395c.347-.058.665-.202 1.041-.193.367-.029.752-.086 1.08-.077.318.02.636.087.935.202a3.077 3.077 0 0 1 1.688 1.646c.029.058.02.03.029.068l.038.134.078.27c.115.346.183.702.25 1.049.126.693.174 1.386.097 1.992-.068.626-.26 1.184-.56 1.588l.01-.01z" fill="#FFF8E3"/>
    <path d="M97.378 15.692c-.067.626-.26 1.184-.559 1.588-.56.857-1.562 1.107-2.343 1.174-.395.058-.762 0-1.06.01a9.786 9.786 0 0 0-.705-.067c-.308-.03-.54-.039-.713-.03-.097-.095-.213-.201-.348-.326a9.698 9.698 0 0 0-.51-.482c-.193-.23-.434-.5-.666-.837-.482-.654-.935-1.636-.926-2.772-.019-.558.145-1.126.386-1.665.309-.5.714-.962 1.283-1.28a5.59 5.59 0 0 1 .916-.395c.347-.057.665-.202 1.041-.192.366-.029.752-.087 1.08-.077.318.02.636.087.935.202a3.078 3.078 0 0 1 1.688 1.646c.029.058.02.029.029.067l.038.135.078.27c.115.346.183.702.25 1.049.126.692.174 1.385.097 1.992l.01-.01zM39.915 59.437c-.367-.828-.945-1.492-1.62-2.088-.685-.597-1.534-1.088-2.498-1.31a4.49 4.49 0 0 0-1.523-.076c-.521.048-1.023.25-1.437.462-.849.356-1.688 1-2.266 1.742a6.383 6.383 0 0 0-1.234 2.512 5.659 5.659 0 0 0 0 2.695 5.411 5.411 0 0 0 1.186 2.204c1.09 1.193 2.458 1.636 3.461 1.81 1.023.172 1.775.095 2.16.057.078-.01.145-.029.203-.039 0 .03.029.058.038.087.087.116.3.24 1.264-.462a7.3 7.3 0 0 0 1.446-1.569c.569-.837 1.205-2.04 1.282-3.6a5.323 5.323 0 0 0-.453-2.415l-.01-.01zm-1.852 5.38c-.453.751-.897 1.242-1.1 1.521-.057.077-.105.144-.163.202a8.127 8.127 0 0 0-.723-.067c-.347-.039-1.022-.048-1.89-.27-.849-.211-1.9-.635-2.661-1.55-.772-.885-1.129-2.261-.753-3.637.357-1.377 1.321-2.647 2.739-3.234 1.263-.712 2.748-.222 3.847.712.54.472 1.022 1.02 1.273 1.578.27.568.386 1.194.367 1.771-.02 1.194-.492 2.233-.936 2.984v-.01z" fill="#FFF8E3"/>
    <path d="M38.991 61.832c-.02 1.194-.492 2.233-.935 2.984-.453.75-.897 1.242-1.1 1.52-.057.078-.106.145-.164.203a8.165 8.165 0 0 0-.723-.068c-.347-.038-1.022-.048-1.89-.27-.848-.21-1.9-.634-2.661-1.549-.771-.885-1.128-2.261-.752-3.638.357-1.376 1.32-2.647 2.738-3.234 1.264-.712 2.749-.221 3.848.712.54.472 1.022 1.02 1.273 1.579.27.568.385 1.193.366 1.77v-.009zM75.247 65.723a6.997 6.997 0 0 0-.848-3.032c-.126-.26-.318-.49-.473-.731-.048-.048-.096-.164-.183-.212l-.173-.154-.348-.28c-.433-.394-.983-.634-1.513-.933a8.395 8.395 0 0 0-3.588-.568 9.1 9.1 0 0 0-3.529 1.06c-1.109.567-2.054 1.472-2.748 2.52-.376.51-.578 1.117-.81 1.704-.116.616-.26 1.232-.203 1.848-.028.616.155 1.194.27 1.771.184.558.386 1.078.666 1.56.53.962 1.215 1.818 2.034 2.425.82.616 1.717 1 2.575 1.203.868.212 1.678.144 2.372.067a6.663 6.663 0 0 0 2.7-1.078c.02-.019.03-.038.058-.048.164-.058.338-.115.54-.212.472-.24 1.379-.847 2.092-2.04.724-1.174 1.235-2.878 1.11-4.86v-.01zm-2.17 4.283c-.472.885-1.031 1.367-1.378 1.665-.203.096-.453.23-.762.375-.415.174-1.215.607-2.372.712-.569.039-1.225.049-1.91-.144a5.606 5.606 0 0 1-2.015-1.04c-.636-.5-1.176-1.212-1.61-2.03-.424-.818-.723-1.742-.714-2.676-.106-1.915 1.244-3.734 3.038-4.706a8.009 8.009 0 0 1 2.922-.866 7.15 7.15 0 0 1 2.883.452c.414.24.858.414 1.196.731.154.145.405.29.443.385.116.183.28.328.367.54.414.77.655 1.626.713 2.454.145 1.665-.26 3.156-.8 4.148z" fill="#FFF8E3"/>
    <path d="M73.078 70.004c-.473.886-1.032 1.367-1.38 1.665-.202.097-.452.231-.761.376-.415.173-1.215.606-2.372.712-.57.038-1.225.048-1.91-.145a5.604 5.604 0 0 1-2.015-1.039c-.636-.5-1.176-1.213-1.61-2.03-.424-.819-.723-1.743-.714-2.676-.106-1.916 1.244-3.735 3.038-4.707a8.012 8.012 0 0 1 2.922-.866 7.148 7.148 0 0 1 2.883.452c.414.24.858.414 1.195.732.155.144.405.288.444.385.116.183.28.327.366.539.415.77.656 1.626.714 2.454.145 1.665-.26 3.157-.8 4.148zM105.14 44.846c-.058-1.175-.328-2.416-.935-3.59-.164-.29-.318-.597-.502-.867-.202-.26-.414-.53-.626-.789-.434-.51-.945-1.01-1.543-1.395a7.741 7.741 0 0 0-4.108-1.3 10.166 10.166 0 0 0-4.272.77c-.684.26-1.32.626-1.928 1.02a9.35 9.35 0 0 0-.897.664c-.299.27-.55.549-.771.847-.917 1.223-1.35 2.705-1.39 4.12-.038 1.424.31 2.82.975 3.984a9.615 9.615 0 0 0 2.42 2.81c1.842 1.454 3.886 2.099 5.516 2.176.202.02.395.02.588.02.096 0 .183 0 .28-.01.077.01.25-.01.318-.03.231-.038.443-.096.636-.153.039.048.126.077.328.077.28 0 .8-.058 1.678-.443a7.039 7.039 0 0 0 2.575-2.252c.925-1.319 1.726-3.302 1.639-5.66h.019zm-2.661 5.014a5.704 5.704 0 0 1-.714.924c-.193 0-.646.212-1.813.79-.501.201-1.456.77-2.806.548-1.398-.145-3.172-.76-4.734-2.07a8.651 8.651 0 0 1-2.025-2.435c-.521-.953-.781-2.088-.743-3.253.048-1.155.415-2.339 1.138-3.253.656-.885 1.852-1.55 2.99-2.03 2.314-.963 5.071-.925 6.961.384.251.145.444.347.666.52.212.202.405.414.607.616.183.221.357.443.531.664.163.231.289.472.433.703.502.962.743 2.011.801 3.003a8.322 8.322 0 0 1-1.283 4.908l-.009-.02z" fill="#FFF8E3"/>
    <path d="M102.479 49.86a5.698 5.698 0 0 1-.714.924c-.193 0-.646.212-1.813.79-.501.202-1.456.77-2.806.548-1.398-.144-3.172-.76-4.734-2.07a8.648 8.648 0 0 1-2.025-2.434c-.52-.953-.781-2.089-.743-3.253.049-1.155.415-2.34 1.138-3.253.656-.886 1.852-1.55 2.99-2.031 2.314-.963 5.072-.924 6.961.385.251.144.444.346.666.52.212.202.405.413.607.616.184.22.357.442.531.664.164.23.289.471.434.702.501.963.742 2.012.8 3.003a8.322 8.322 0 0 1-1.283 4.909l-.009-.02zM128.022 25.144c-.097-.212-.183-.423-.28-.635-.106-.212-.241-.404-.376-.606-.27-.405-.559-.703-.897-1.04-.655-.674-1.572-1.203-2.459-1.501-.607-.222-1.07-.193-1.571-.193-.492 0-.965.058-1.447.154-.482.096-.983.24-1.456.491a9.194 9.194 0 0 0-1.234.75c-.791.578-1.495 1.406-1.813 2.397a3.951 3.951 0 0 0-.193 1.483c0 .25.039.471.068.712l.077.337.019.067v.135c.116.875.376 1.713.81 2.425a4.807 4.807 0 0 0 1.639 1.627c.531.308 1.1.625 1.601.789 1.022.375 1.9.385 2.324.308.521-.096.839-.26 1.022-.414.116-.02.241-.058.395-.096.376-.145 1.138-.433 1.958-1.165.781-.731 1.687-1.857 1.986-3.474a5.122 5.122 0 0 0-.164-2.57l-.009.02zm-1.196 2.368c-.174 1.212-.877 2.175-1.466 2.81-.636.645-1.224.953-1.514 1.136-.347.202-.578.337-.732.433-.106 0-.222 0-.348-.01a5.433 5.433 0 0 1-1.822-.471c-.424-.183-.849-.443-1.36-.77-.424-.308-.839-.712-1.128-1.242a4.912 4.912 0 0 1-.549-1.877l-.02-.173-.038-.192-.049-.25c-.019-.174-.048-.347-.038-.51 0-.347.029-.674.145-.992.221-.626.694-1.184 1.321-1.636a7.078 7.078 0 0 1 1.031-.616 4.29 4.29 0 0 1 1.061-.347 7.22 7.22 0 0 1 1.196-.134c.395 0 .79 0 1.032.115.771.26 1.378.616 1.928 1.155.26.26.559.558.743.828.086.144.183.27.26.423l.202.453c.213.616.251 1.26.145 1.857v.01z" fill="#FFF8E3"/>
    <path d="M126.826 27.511c-.174 1.213-.878 2.175-1.466 2.81-.636.645-1.224.953-1.514 1.136-.347.202-.578.337-.733.433-.106 0-.221 0-.347-.01a5.43 5.43 0 0 1-1.822-.47c-.425-.184-.849-.444-1.36-.77-.424-.309-.839-.713-1.128-1.242a4.93 4.93 0 0 1-.55-1.877l-.019-.174-.039-.192-.048-.25c-.019-.174-.048-.347-.038-.51 0-.347.029-.674.144-.992.222-.625.695-1.183 1.321-1.636a7.152 7.152 0 0 1 1.032-.616 4.29 4.29 0 0 1 1.061-.346 7.21 7.21 0 0 1 1.196-.135c.395 0 .79 0 1.031.115.772.26 1.379.616 1.929 1.155.26.26.559.559.742.828.087.145.184.27.261.424l.202.452c.212.616.251 1.26.145 1.858v.01zM125.053 85.26a7.392 7.392 0 0 0-1.456-3.119c-.733-.953-1.813-1.694-2.951-2.117-.55-.24-1.176-.433-1.851-.472a5.703 5.703 0 0 0-1.939.221 6.567 6.567 0 0 0-1.726.8c-.27.173-.52.346-.761.548-.232.212-.415.347-.647.53-.887.712-1.841 1.549-2.381 2.733-.926 2.502-.048 4.793 1.032 6.429 1.166 1.607 2.69 2.647 4.049 3.013.675.211 1.283.24 1.794.26.492-.068.897-.068 1.147-.183.714-.203 1.08-.472 1.293-.655.453-.135.925-.424 1.475-.722 1.157-.731 2.391-2.156 2.873-4.12.213-.98.29-2.059.068-3.156l-.019.01zm-1.418 2.868c-.366 1.588-1.311 2.762-2.237 3.416-.964.684-1.736.895-2.141.953-.597.097-.925.02-1.137.02-.213-.02-.299.028-.357.115-.039.058-.068.144.087.298-.107-.019-.203-.019-.309-.048-.251-.029-.492-.144-.771-.212-1.08-.365-2.324-1.28-3.26-2.656a6.891 6.891 0 0 1-.983-2.416c-.193-.866-.126-1.886.183-2.637.386-.789 1.138-1.492 1.996-2.165.482-.366.839-.713 1.273-.963.424-.27.887-.481 1.35-.616.954-.27 1.871-.212 2.816.212.935.366 1.764.914 2.352 1.665a6.02 6.02 0 0 1 1.177 2.483c.193.886.135 1.761-.02 2.55h-.019z" fill="#FFF8E3"/>
    <path d="M123.634 88.128c-.366 1.588-1.311 2.762-2.237 3.416-.964.684-1.735.895-2.14.953-.598.096-.926.02-1.138.02-.212-.02-.299.028-.357.115-.038.058-.067.144.087.298-.106-.019-.203-.019-.309-.048-.25-.029-.491-.144-.771-.212-1.08-.365-2.324-1.28-3.259-2.656a6.892 6.892 0 0 1-.984-2.416c-.193-.866-.125-1.886.183-2.637.386-.79 1.138-1.492 1.996-2.165.482-.366.839-.713 1.273-.963.424-.27.887-.481 1.35-.616.955-.27 1.871-.212 2.816.212.935.366 1.764.914 2.353 1.665a6.017 6.017 0 0 1 1.176 2.483c.193.886.135 1.761-.019 2.55h-.02zM81.351 100.245c-.54-1.434-1.928-2.55-3.452-2.897-1.523-.365-3.288.03-4.406 1.146-.56.539-.984 1.28-1.08 2.04-.097.741 0 1.434.202 2.031.878 2.368 2.604 3.32 3.182 3.542.444.154.733.154.897.125a.298.298 0 0 0 .145-.077c.337.115.925.212 1.687.048.444-.087.897-.308 1.35-.606.434-.337.868-.751 1.205-1.3.319-.548.56-1.203.627-1.905a4.649 4.649 0 0 0-.357-2.156v.009zm-1.475 3.379c-.434.779-1.119 1.251-1.678 1.414a2.868 2.868 0 0 1-1.292.116c-.366 0-.598-.067-.771-.039h-.02a6.568 6.568 0 0 1-.954-.866c-.463-.51-.974-1.232-1.244-2.137-.25-.895-.174-1.924.607-2.579.743-.712 1.939-.982 3.038-.712 1.1.26 2.044 1.01 2.42 2.002.203.5.29.991.27 1.472a3.342 3.342 0 0 1-.395 1.329h.02z" fill="#FFF8E3"/>
    <path d="M80.271 102.295a3.339 3.339 0 0 1-.395 1.328c-.434.78-1.119 1.251-1.678 1.415a2.848 2.848 0 0 1-1.292.115c-.367 0-.598-.067-.772-.038h-.019a6.628 6.628 0 0 1-.954-.866c-.463-.51-.974-1.232-1.244-2.137-.251-.895-.174-1.925.607-2.58.743-.712 1.938-.981 3.038-.712 1.099.26 2.044 1.011 2.42 2.002.203.501.29.992.27 1.473h.02z" fill="#FFF8E3"/>
    <path d="M108.814 4.606a68.163 68.163 0 0 1 8.794 3.11c4.812 2.05 8.12 4.09 9.855 5.1 1.302.712 2.247 1.367 3.018 1.848a34.06 34.06 0 0 0 1.746 1.03c.048.02.086.048.135.067 0 0 .077.087.106.106.81.799 2.343 2.137 4.532 4.841 1.408 1.771 4.03 5.313 6.306 10.79 1.128 2.743 2.16 5.938 2.97 9.538a.27.27 0 0 1 .019.086 168.864 168.864 0 0 1-3.558 2.628c-3.191 2.3-6.653 4.62-10.346 6.94-.106-3.985-.56-7.941-1.254-11.8-.656-3.648-1.784-6.96-3.288-10.087-1.254-2.628-2.777-5.13-4.513-7.594a68.382 68.382 0 0 0-1.977-2.714c-3.461-4.534-7.704-9.971-12.564-13.898l.019.01z" fill="#66C555" style="mix-blend-mode:multiply" opacity=".22"/>
</svg>
