<svg width="65" height="63" viewBox="0 0 65 63" fill="none" xmlns="http://www.w3.org/2000/svg">
    <g clip-path="url(#v6p7pwkvna)">
        <path d="M21.145 15.7c-.554 4.3-.782 8.22-.782 12.047 0 1.99.062 3.954.172 5.936.239 4.322.705 8.719 1.256 13.612C34.89 43.831 43.614 37.45 50.52 29.563c-.504-.371-1.005-.734-1.503-1.088-9.464-6.727-17.868-10.282-27.87-12.775z" fill="#fff"/>
        <path d="M54.861 9.226A32.259 32.259 0 0 0 37.218.39 32.909 32.909 0 0 0 32.151 0c-7.564 0-14.515 2.563-20.003 6.854A32.254 32.254 0 0 0 9.44 9.226C3.628 14.927.033 22.801.033 31.5c0 8.7 3.595 16.573 9.407 22.274C15.253 59.474 23.281 63 32.15 63c8.87 0 16.898-3.526 22.712-9.226a31.886 31.886 0 0 0 2.829-3.171c4.126-5.299 6.578-11.92 6.578-19.103 0-.792-.03-1.578-.089-2.355-.584-7.76-4.036-14.738-9.319-19.919zm-22.71 48.12c-14.554 0-26.352-11.572-26.353-25.846 0-14.274 11.798-25.845 26.353-25.845 14.554 0 26.352 11.57 26.352 25.845 0 14.274-11.798 25.845-26.352 25.845z" fill="#fff"/>
        <path d="M50.52 29.563c-.504-.372-1.005-.735-1.503-1.088-1.746 1.665-3.623 3.184-5.667 4.476-4.287 2.709-9.414 4.367-14.495 3.885-2.988-.284-5.936-1.383-8.32-3.152.24 4.322.706 8.72 1.256 13.613C34.89 43.832 43.615 37.45 50.52 29.565l.002-.002z" fill="#DCF3F7"/>
        <path d="M9.44 53.774C15.253 59.474 23.281 63 32.15 63c8.87 0 16.898-3.526 22.712-9.226a31.898 31.898 0 0 0 2.829-3.171c-5.418 5.713-12.96 9.517-20.894 10.274-10.788 1.027-21.97-3.618-28.727-11.933C2.183 41.71-.258 31.756 2.145 22.805 3.792 16.661 7.492 11.35 12.149 6.853a32.26 32.26 0 0 0-2.708 2.372C3.628 14.927.033 22.8.033 31.5c0 8.7 3.595 16.572 9.407 22.274zM58.367 16.751a42.74 42.74 0 0 1 5.814 12.394c-.585-7.76-4.036-14.738-9.319-19.919A32.259 32.259 0 0 0 37.22.39c8.525 3.177 16.053 8.938 21.148 16.361z" fill="#DCF3F7"/>
    </g>
    <defs>
        <clipPath id="v6p7pwkvna">
            <path fill="#fff" transform="translate(.033)" d="M0 0h64.235v63H0z"/>
        </clipPath>
    </defs>
</svg>
