<svg width="21" height="24" viewBox="0 0 21 24" fill="none" xmlns="http://www.w3.org/2000/svg">
<path d="M5.41979 6.3826L5.34223 6.44572C5.30363 6.39829 5.27812 6.33962 5.2894 6.27615C5.30064 6.2129 5.34371 6.17142 5.38469 6.1481C5.46049 6.10498 5.56918 6.0991 5.65396 6.13844C5.65763 6.13773 5.66651 6.13602 5.68402 6.13124C5.68526 6.1309 5.68662 6.13052 5.6881 6.13011C5.71003 6.12396 5.75808 6.1105 5.81003 6.12508C6.64091 5.89987 7.4522 5.67301 8.26543 5.4456C8.96285 5.25058 9.66168 5.05516 10.3755 4.86005L10.3755 4.86004C11.1088 4.65995 11.8492 4.4749 12.5891 4.28999L12.6209 4.28206C13.3517 4.09943 14.0818 3.91671 14.8059 3.71914C14.811 3.7099 14.817 3.70153 14.8233 3.69416C14.8437 3.67046 14.8963 3.631 14.9588 3.64939C14.959 3.64855 14.9592 3.6477 14.9594 3.64685L14.9602 3.64366L14.9603 3.64368C14.9736 3.59605 15.0106 3.57218 15.0373 3.56259C15.0636 3.55312 15.0903 3.55273 15.1125 3.5566C15.1345 3.56044 15.1618 3.57023 15.1851 3.59169C15.1921 3.59807 15.1985 3.60541 15.204 3.61357C15.3151 3.60324 15.4142 3.65743 15.4675 3.73071C15.4976 3.77208 15.5193 3.82836 15.5092 3.88936C15.5072 3.90131 15.5042 3.91274 15.5001 3.92362L15.5666 3.96875L15.4415 4.02533C15.5106 4.08571 15.579 4.14586 15.6473 4.20769C15.7547 4.30141 15.862 4.39895 15.9655 4.49647C16.0163 4.54031 16.0667 4.58772 16.1153 4.6334L16.1163 4.63427C16.1267 4.64407 16.1382 4.65396 16.1521 4.66587L16.1523 4.66597C16.1655 4.6773 16.1809 4.69047 16.1958 4.70451C16.2252 4.73223 16.2598 4.76976 16.2813 4.81962L16.3699 5.02597L16.2507 4.98551L14.7946 3.82587C14.0713 4.02266 13.3423 4.20486 12.6138 4.38689C11.8736 4.57189 11.134 4.75671 10.4019 4.95651C9.68993 5.15111 8.99109 5.34652 8.29334 5.54163C7.46826 5.77235 6.64471 6.00264 5.80283 6.23064C5.77318 6.21051 5.74038 6.21949 5.70716 6.22858C5.67606 6.2371 5.64459 6.24571 5.61498 6.23064C5.50399 6.17609 5.3088 6.24622 5.41979 6.3826ZM5.41979 6.3826C5.4777 6.45629 5.56407 6.5166 5.64579 6.57365C5.67209 6.59202 5.69791 6.61004 5.72214 6.62807C5.76998 6.66314 5.81782 6.69918 5.86566 6.73523C5.9135 6.77127 5.96133 6.80731 6.00917 6.84237L5.94896 6.92221C5.94914 6.92235 5.94932 6.92248 5.9495 6.92262M5.41979 6.3826L5.34116 6.44438C5.38763 6.50352 5.44671 6.55263 5.50259 6.59428C5.53081 6.61531 5.55955 6.6354 5.58643 6.65417L5.58796 6.65524C5.61472 6.67393 5.63945 6.69119 5.66244 6.7083L5.66302 6.70872C5.71024 6.74334 5.75755 6.77898 5.80548 6.81509L5.80578 6.81532C5.85325 6.85108 5.90133 6.8873 5.9495 6.92262M5.9495 6.92262C6.15642 7.07866 6.36327 7.23076 6.56955 7.38243L6.56993 7.38271L6.57015 7.38287C6.6598 7.44843 6.74935 7.51483 6.8391 7.58139C7.10842 7.78111 7.37959 7.98221 7.6612 8.16583L5.9495 6.92262ZM2.47288 13.7403L2.39979 13.6721C2.39976 13.6721 2.39974 13.6721 2.39972 13.6721C2.39968 13.6722 2.39963 13.6722 2.39959 13.6723L2.47288 13.7403ZM2.47288 13.7403C1.88775 14.367 1.32526 14.9847 0.81161 15.6722M2.47288 13.7403C2.77753 13.4121 3.09985 13.0854 3.42221 12.7586C3.72754 12.4491 4.03291 12.1396 4.32333 11.8288L0.81161 15.6722M0.81161 15.6722C0.811241 15.6706 0.810876 15.669 0.810522 15.6675C0.805421 15.6396 0.789437 15.6045 0.75238 15.5845C0.741933 15.5984 0.731507 15.6123 0.7211 15.6263L0.81161 15.6722ZM15.0898 3.65444L15.0856 3.64224L15.0882 3.64137C15.1088 3.63437 15.1371 3.62475 15.167 3.61938L15.0898 3.65444ZM15.0898 3.65444C15.0753 3.6534 15.061 3.6582 15.0569 3.66946L15.0283 3.66244C15.0283 3.66254 15.0283 3.66265 15.0282 3.66276C15.0282 3.66306 15.0281 3.66338 15.028 3.66369C15.0266 3.66969 15.0249 3.67708 15.0233 3.68534M15.0898 3.65444L15.0233 3.68534M15.0233 3.68534C15.0229 3.68507 15.0225 3.68476 15.022 3.6844M3.45404 17.6589C2.83945 17.1825 2.22295 16.7046 1.59566 16.2413L5.05222 12.44L5.12637 12.5071C5.1264 12.507 5.12643 12.507 5.12647 12.5069C5.38712 12.2189 5.63368 11.9538 5.87882 11.6902C6.17569 11.371 6.47049 11.0541 6.78572 10.7013L6.78576 10.7012C6.97216 10.4923 7.17185 10.2839 7.37528 10.0715C7.48192 9.96017 7.5896 9.84776 7.69692 9.73366C8.00706 9.40393 8.31117 9.0632 8.56403 8.70674L8.60923 8.64303L8.55836 8.58375C8.47929 8.49161 8.3386 8.37891 8.2216 8.29163C8.18719 8.26597 8.15405 8.24193 8.12398 8.22054C8.17801 8.18593 8.2401 8.14335 8.29978 8.09985C8.36999 8.04868 8.43949 7.99432 8.48945 7.94874C8.51365 7.92666 8.5375 7.90284 8.55426 7.88015C8.56198 7.8697 8.57374 7.85223 8.58023 7.83034C8.58691 7.80777 8.59326 7.75668 8.5507 7.71697L8.48247 7.79008L8.55227 7.71847C8.36797 7.53882 8.19185 7.3994 8.01437 7.26577C7.96854 7.23127 7.92284 7.1973 7.87695 7.16319C7.74418 7.06452 7.60984 6.96468 7.46634 6.84723L7.4656 6.84664C7.369 6.76909 7.33405 6.73647 7.29916 6.7039L7.29844 6.70324C7.26284 6.67001 7.2269 6.63655 7.13955 6.56583C7.75479 6.40823 8.23252 6.27948 8.69353 6.15525C9.30971 5.9892 9.896 5.8312 10.7408 5.6231L10.7408 5.62312L10.7427 5.62263C11.2005 5.50047 11.648 5.38859 12.0948 5.27686C12.9873 5.05367 13.8773 4.83111 14.8432 4.52859C14.2233 7.25014 13.9908 9.87731 13.9595 12.7694C13.8465 12.6819 13.7325 12.5954 13.6195 12.5096C13.5596 12.4641 13.5 12.4188 13.4409 12.3737L13.4407 12.3735C13.0349 12.0656 12.6277 11.7605 12.2086 11.4709L12.2086 11.4708L12.2061 11.4692C12.1749 11.449 12.1403 11.4433 12.1148 11.4425C12.0881 11.4416 12.0588 11.4456 12.032 11.4561C12.0105 11.4646 11.9636 11.4881 11.9479 11.5433C11.9365 11.5834 11.9471 11.6172 11.9628 11.6424C11.1558 12.5256 10.449 13.5157 9.75097 14.4938C9.48391 14.8679 9.21812 15.2403 8.94847 15.6043C8.76652 15.8496 8.58443 16.095 8.40229 16.3404C7.5993 17.4224 6.79542 18.5056 5.99872 19.5937C5.40181 19.2157 4.84024 18.7636 4.27904 18.3119C4.05785 18.1339 3.83671 17.9558 3.61349 17.7824L3.61339 17.7824C3.56029 17.7412 3.50717 17.7 3.45404 17.6589ZM15.5809 4.28243C15.5005 4.20975 15.4202 4.13942 15.3381 4.06778L16.045 4.7045C15.9961 4.65862 15.9473 4.61282 15.8985 4.57077C15.7952 4.47336 15.688 4.37595 15.5809 4.28243ZM15.4116 3.86354C15.4153 3.79082 15.3282 3.7076 15.222 3.71257L15.4116 3.86354ZM15.0547 3.67856C15.0521 3.69014 15.0499 3.70168 15.0477 3.71297C15.0465 3.71969 15.0452 3.72632 15.0439 3.73282C15.0321 3.719 15.0235 3.69854 15.026 3.67543L15.0547 3.67856Z" fill="#3B2900" stroke="#3B2900" stroke-width="0.2"/>
<path d="M7.28689 13.4602L7.35963 13.5289L7.36164 13.5267L7.28689 13.4602ZM7.28689 13.4602L7.36165 13.5266L7.36168 13.5266L7.36181 13.5265L7.36232 13.5259L7.36433 13.5236L7.37221 13.5148L7.4024 13.4807L7.5126 13.3564C7.6052 13.2519 7.73212 13.1083 7.86933 12.9525C8.14332 12.6413 8.45949 12.2797 8.62506 12.0817C8.83193 11.8368 9.03274 11.6074 9.22935 11.3828C9.65363 10.898 10.0584 10.4356 10.4622 9.88841C10.4824 9.86104 10.4867 9.83125 10.4877 9.81275C10.4887 9.79261 10.4863 9.77269 10.4828 9.75498C10.4759 9.71934 10.4619 9.67953 10.4439 9.63934C10.4077 9.55837 10.3492 9.46301 10.2738 9.37585C10.1273 9.20673 9.88546 9.03642 9.60052 9.13455L9.57824 9.14222L9.56174 9.15903C9.00989 9.72086 8.49227 10.321 7.97772 10.9175C7.82952 11.0893 7.68158 11.2609 7.53315 11.4311L7.53306 11.4312C7.37051 11.6181 7.20794 11.8041 7.04527 11.9901C6.8827 12.1761 6.72003 12.3622 6.55734 12.5492C6.4686 12.6499 6.37395 12.7516 6.27757 12.8551C6.02202 13.1295 5.75439 13.4168 5.55308 13.7344L5.55308 13.7344C5.48328 13.8445 5.51593 13.9703 5.56815 14.0663C5.62222 14.1657 5.71112 14.262 5.80841 14.3401C5.90584 14.4182 6.01919 14.4842 6.12753 14.5174C6.23045 14.549 6.35991 14.5595 6.45415 14.4761L6.45435 14.4764L6.45969 14.4709C6.65574 14.2688 6.88074 14.0332 7.05663 13.8483C7.1446 13.7559 7.22033 13.676 7.27407 13.6193L7.33697 13.5528L7.35378 13.5351L7.35811 13.5305L7.35922 13.5293L7.3595 13.529L7.35957 13.5289L7.35959 13.5289L7.28689 13.4602Z" fill="#3B2900" stroke="#3B2900" stroke-width="0.2"/>
<path d="M5.23543 15.5893L5.23573 15.5895L5.23906 15.5819C5.29449 15.4563 5.25277 15.3315 5.18514 15.235C5.11735 15.1382 5.01363 15.0533 4.90506 14.9891C4.79618 14.9248 4.67395 14.8763 4.56333 14.8585C4.46361 14.8426 4.33577 14.8465 4.25786 14.9367C4.09826 15.0841 3.9585 15.2501 3.82343 15.4105L3.82145 15.4129C3.78758 15.4531 3.75109 15.4943 3.71358 15.5367C3.60725 15.6568 3.49274 15.7862 3.40675 15.9281L3.40675 15.9281L3.40644 15.9286C3.39256 15.9518 3.38798 15.9763 3.38607 15.9927C3.38395 16.011 3.384 16.0301 3.38523 16.0487C3.38769 16.0861 3.39546 16.1294 3.40764 16.175C3.43203 16.2664 3.47656 16.3762 3.54366 16.4787C3.61068 16.5811 3.70319 16.6806 3.82529 16.7443C3.94943 16.8091 4.0986 16.8337 4.26993 16.7933L4.29806 16.7867L4.31832 16.7661C4.44543 16.6367 4.60634 16.4136 4.725 16.2491C4.74836 16.2167 4.77008 16.1866 4.78959 16.1599L4.7898 16.16L4.79366 16.1539L4.81496 16.1198C4.85957 16.0592 4.9136 15.9984 4.97216 15.9325C4.98897 15.9136 5.00615 15.8943 5.0236 15.8744C5.09988 15.7876 5.17984 15.6916 5.23543 15.5893Z" fill="#3B2900" stroke="#3B2900" stroke-width="0.2"/>
<path d="M8.00634 1.65018L7.99235 1.6312L7.97137 1.62047C7.84245 1.55452 7.67149 1.54309 7.51862 1.58409C7.36411 1.62552 7.21264 1.72512 7.14185 1.89779L7.13047 1.92555L7.13625 1.955C7.16939 2.12369 7.25287 2.31649 7.31738 2.45945C7.34982 2.53289 7.37489 2.60513 7.40139 2.68169L7.40194 2.68326C7.42798 2.75849 7.4555 2.83797 7.49162 2.9197L7.49162 2.9197L7.49181 2.92012C7.55668 3.06506 7.61436 3.21905 7.67349 3.37692C7.67576 3.38296 7.67802 3.38902 7.68029 3.39507C7.74136 3.55807 7.80426 3.72479 7.87681 3.8825L7.87699 3.88289C7.89739 3.92673 7.93703 3.94182 7.95462 3.94694C7.97504 3.95289 7.99574 3.95422 8.01219 3.95433C8.04606 3.95455 8.08657 3.94943 8.12775 3.94212C8.21155 3.92726 8.3167 3.89992 8.41781 3.8689C8.51899 3.83786 8.61996 3.80195 8.6953 3.76896C8.73219 3.75281 8.7672 3.73553 8.79353 3.71808C8.80589 3.70989 8.8227 3.69758 8.83641 3.68095C8.84704 3.66805 8.8801 3.62193 8.85526 3.56412L8.76338 3.6036L8.85583 3.56548C8.78951 3.40464 8.73142 3.28645 8.67454 3.17072L8.67428 3.17018C8.61745 3.05458 8.56184 2.94138 8.49813 2.78687L8.49814 2.78687L8.49779 2.78604L8.43552 2.63879L8.26283 2.20898C8.26282 2.20894 8.2628 2.2089 8.26278 2.20885C8.25403 2.18687 8.24397 2.16085 8.23294 2.13231C8.20961 2.07197 8.18192 2.00034 8.15294 1.93159C8.11056 1.83105 8.06001 1.72304 8.00634 1.65018Z" fill="#3B2900" stroke="#3B2900" stroke-width="0.2"/>
<path d="M11.7557 0.670025H11.6816C11.6768 0.664638 11.6718 0.659872 11.6668 0.655693C11.6368 0.630227 11.599 0.61763 11.5695 0.610416C11.5071 0.595191 11.4267 0.59155 11.3508 0.594107C11.2735 0.596709 11.1923 0.606052 11.1257 0.620933C11.0927 0.628306 11.06 0.637759 11.032 0.65002C11.018 0.656161 11.0028 0.664053 10.9886 0.674362C10.9752 0.684164 10.9571 0.70014 10.9447 0.724285L11.0336 0.770035L10.9449 0.723873C10.6255 1.33758 10.5826 2.09381 10.72 2.75325L10.72 2.75345C10.7293 2.79755 10.7611 2.81994 10.7758 2.82843C10.7922 2.83795 10.809 2.84295 10.8211 2.84585C10.846 2.85187 10.8752 2.85458 10.9031 2.85585C10.9604 2.85846 11.0326 2.85571 11.1018 2.85005C11.1713 2.84437 11.2418 2.83544 11.2963 2.82463C11.3228 2.81937 11.3497 2.81287 11.3716 2.80461C11.3818 2.80076 11.3973 2.79426 11.4118 2.78361C11.4211 2.77681 11.4629 2.7445 11.4576 2.68596L11.4577 2.68595L11.4572 2.68209C11.4163 2.36411 11.42 2.04233 11.4683 1.72427C11.5167 1.41385 11.6136 1.10952 11.7134 0.800784L11.7557 0.670025Z" fill="#3B2900" stroke="#3B2900" stroke-width="0.2"/>
<path d="M20.441 5.51183C20.0472 5.65194 19.6535 5.79302 19.2599 5.93406L19.2599 5.93407C18.8657 6.07532 18.4716 6.21653 18.0775 6.35675L18.111 6.45097C18.0115 6.48603 18.131 7.18483 18.265 7.14197L20.441 5.51183Z" fill="#3B2900" stroke="#3B2900" stroke-width="0.2"/>
<path d="M20.4892 10.2835L20.4892 10.2835L18.4726 10.2601L18.4722 10.2601L18.4734 10.1601C18.3777 10.1601 18.4754 9.44368 18.5481 9.44368L20.4892 10.2835ZM20.4892 10.2835H20.4903C20.5595 10.2835 20.601 10.2313 20.6182 10.2062C20.6401 10.1744 20.6578 10.1344 20.6723 10.0939C20.7016 10.0116 20.7249 9.90581 20.7386 9.80261C20.7521 9.70009 20.7572 9.5922 20.7461 9.50663C20.7407 9.46491 20.7304 9.41935 20.7088 9.38152C20.6858 9.34109 20.6408 9.29682 20.5709 9.29848L20.5732 9.39845L20.5721 9.29846C20.2326 9.30236 19.895 9.31174 19.5583 9.32109L19.5579 9.32111C19.2209 9.33047 18.8849 9.3398 18.5472 9.34368L20.4892 10.2835Z" fill="#3B2900" stroke="#3B2900" stroke-width="0.2"/>
</svg>
