<svg width="39" height="38" viewBox="0 0 39 38" fill="none" xmlns="http://www.w3.org/2000/svg">
<path d="M38.9501 19.5285C38.9501 23.7625 36.8745 27.4783 33.7512 29.5755C31.5793 31.0338 29.5613 32.7343 27.6681 34.5851C26.067 36.1497 23.9345 37.105 21.5944 37.105C20.0075 37.105 18.5161 36.6662 17.2213 35.8957C15.137 34.656 12.8459 33.8753 10.4821 33.5352C6.39246 32.9462 0.782227 30.5469 0.782227 22.0536C0.782227 19.0517 1.70595 16.2946 3.35681 14.1561C4.75423 12.3458 5.91165 10.3424 6.89775 8.24603C9.19916 3.35546 13.937 0 19.4091 0C23.8595 0 27.8236 2.21953 30.3871 5.67964C31.5911 7.3059 32.9554 8.7929 34.5076 10.0369C37.2053 12.1998 38.9509 15.6465 38.9509 19.5285H38.9501Z" fill="white"/>
<path d="M19.2611 24.1276C22.9062 24.1276 25.8611 21.1726 25.8611 17.5276C25.8611 13.8825 22.9062 10.9276 19.2611 10.9276C15.616 10.9276 12.6611 13.8825 12.6611 17.5276C12.6611 21.1726 15.616 24.1276 19.2611 24.1276Z" stroke="#D51F91" stroke-width="1.65" stroke-linecap="round" stroke-linejoin="round"/>
<path d="M27.5116 25.7776L23.9229 22.1888" stroke="#D51F91" stroke-width="1.65" stroke-linecap="round" stroke-linejoin="round"/>
</svg>
