<svg width="39" height="38" viewBox="0 0 39 38" fill="none" xmlns="http://www.w3.org/2000/svg">
<path d="M38.1679 19.5285C38.1679 23.7625 36.0923 27.4783 32.969 29.5755C30.7971 31.0338 28.7791 32.7343 26.8859 34.5851C25.2847 36.1497 23.1523 37.105 20.8122 37.105C19.2253 37.105 17.7339 36.6662 16.4391 35.8957C14.3548 34.656 12.0637 33.8753 9.69988 33.5352C5.61023 32.9462 0 30.5469 0 22.0536C0 19.0517 0.923723 16.2946 2.57458 14.1561C3.97201 12.3458 5.12942 10.3424 6.11552 8.24603C8.41693 3.35546 13.1548 0 18.6268 0C23.0773 0 27.0414 2.21953 29.6049 5.67964C30.8089 7.3059 32.1732 8.7929 33.7254 10.0369C36.4231 12.1998 38.1687 15.6465 38.1687 19.5285H38.1679Z" fill="white"/>
<path d="M24.7967 24.7776V23.1276C24.7967 22.2523 24.449 21.413 23.8301 20.7941C23.2112 20.1752 22.3719 19.8276 21.4967 19.8276H14.8967C14.0215 19.8276 13.1821 20.1752 12.5632 20.7941C11.9444 21.413 11.5967 22.2523 11.5967 23.1276V24.7776" stroke="#D51F91" stroke-width="1.65" stroke-linecap="round" stroke-linejoin="round"/>
<path d="M18.1965 16.5276C20.019 16.5276 21.4965 15.0501 21.4965 13.2276C21.4965 11.405 20.019 9.92755 18.1965 9.92755C16.3739 9.92755 14.8965 11.405 14.8965 13.2276C14.8965 15.0501 16.3739 16.5276 18.1965 16.5276Z" stroke="#D51F91" stroke-width="1.65" stroke-linecap="round" stroke-linejoin="round"/>
</svg>
