<svg width="19" height="10" viewBox="0 0 19 10" fill="none" xmlns="http://www.w3.org/2000/svg">
<path fill-rule="evenodd" clip-rule="evenodd" d="M3.90366 0.21162C3.7644 0.255523 3.69643 0.306179 3.64815 0.402031C3.54856 0.599743 3.67791 0.837999 3.90843 0.881451C3.9671 0.8925 5.87272 0.901545 8.14312 0.901545C11.4776 0.901545 12.2711 0.909492 12.2711 0.942961C12.2711 0.965737 12.1932 1.30375 12.0979 1.69407C12.0026 2.08439 11.6402 3.58132 11.2925 5.02055C10.9448 6.45978 10.6521 7.67002 10.642 7.71002L10.6238 7.78271H9.65087H8.67802L8.65703 7.67771C8.59194 7.35165 8.1963 6.85003 7.85574 6.66172C7.48593 6.45729 7.0465 6.37249 6.63886 6.42696C6.33712 6.46727 5.91065 6.65284 5.67983 6.84422C5.47404 7.01486 5.26087 7.32257 5.16979 7.58041L5.09832 7.78271H4.4993C3.81893 7.78271 3.72719 7.80571 3.64208 7.99761C3.57946 8.13881 3.62541 8.29892 3.75644 8.396C3.83724 8.4559 3.89464 8.46113 4.46922 8.46113H5.09414L5.16561 8.65839C5.49958 9.57979 6.55899 10.0698 7.5123 9.74387C8.05437 9.5585 8.49198 9.12331 8.64852 8.61394L8.69053 8.47728L10.9201 8.46921L13.1498 8.46113L13.2116 8.65571C13.4252 9.32748 14.1835 9.84932 14.946 9.84932C15.7085 9.84932 16.4667 9.32748 16.6803 8.65571L16.7422 8.46113H17.077C17.459 8.46113 17.5579 8.43038 17.6342 8.28771C17.664 8.23208 17.8135 7.54687 17.9664 6.76507C18.2077 5.5306 18.2415 5.31373 18.2233 5.11647C18.1012 3.79586 17.1257 2.71197 15.7474 2.36536C15.4149 2.28175 15.3851 2.28001 14.0629 2.26618C13.3226 2.25846 12.7169 2.24812 12.7169 2.24321C12.7169 2.2383 12.8034 1.8799 12.9091 1.44677C13.0148 1.01365 13.1018 0.603362 13.1024 0.535067C13.1033 0.437955 13.0799 0.388592 12.9953 0.308925L12.8871 0.206968L8.42109 0.201185C5.9648 0.198019 3.93195 0.202703 3.90366 0.21162ZM2.32023 1.63528C2.12661 1.74844 2.09403 2.01235 2.25497 2.16396L2.3552 2.25839H3.97225H5.58929L5.68953 2.16396C5.83774 2.02434 5.83133 1.8388 5.67317 1.68981L5.55658 1.57997L3.98425 1.58084C2.58041 1.58158 2.40208 1.58743 2.32023 1.63528ZM12.5297 3.05619C12.5121 3.12219 11.9192 5.57385 11.416 7.66156L11.3868 7.78271H12.2693H13.1519L13.1955 7.64541C13.3653 7.11071 13.8383 6.65306 14.3921 6.4875C14.7053 6.39391 15.1855 6.39355 15.4971 6.48672C16.0568 6.6541 16.5253 7.10674 16.6964 7.64541C16.7385 7.77802 16.7449 7.78271 16.8811 7.78271H17.0221L17.2733 6.51418C17.4744 5.49868 17.5198 5.21355 17.5008 5.08465C17.4076 4.45235 17.0795 3.89443 16.574 3.50899C16.3063 3.30481 15.8134 3.0767 15.5118 3.01742C15.325 2.98072 14.9701 2.97013 13.9123 2.96967L12.5529 2.96912L12.5297 3.05619ZM1.58386 3.70977C1.43612 3.79467 1.37968 3.95853 1.44641 4.10901C1.54754 4.33696 1.43729 4.32597 3.62243 4.32597H5.58929L5.68953 4.23154C5.83774 4.09192 5.83133 3.90638 5.67317 3.75739L5.55658 3.64755L3.62418 3.64768C1.7795 3.64777 1.68687 3.65062 1.58386 3.70977ZM0.90304 5.74566C0.78857 5.78979 0.709628 5.89695 0.689978 6.03476C0.673243 6.15236 0.6836 6.17713 0.792342 6.27958L0.913328 6.39355H3.25131H5.58929L5.68953 6.29912C5.83774 6.1595 5.83133 5.97396 5.67317 5.82497L5.55658 5.71513L3.2641 5.71716C2.00326 5.71829 0.940762 5.73112 0.90304 5.74566ZM6.49949 7.16796C5.98846 7.35604 5.7052 7.88324 5.8445 8.38702C5.93328 8.70817 6.12786 8.91894 6.47563 9.07061C6.9883 9.29427 7.62653 9.06809 7.88355 8.57171C7.99603 8.35449 8.01555 8.00904 7.92855 7.77534C7.84281 7.54506 7.52087 7.23906 7.28151 7.16036C7.05675 7.08642 6.71184 7.08978 6.49949 7.16796ZM14.6155 7.13759C14.4465 7.18669 14.1872 7.3658 14.0644 7.51831C13.5871 8.111 13.9666 9.00458 14.7539 9.14169C15.2358 9.22562 15.7376 8.97334 15.9468 8.5419C16.0658 8.29663 16.0589 7.92624 15.9308 7.68059C15.8253 7.47809 15.643 7.3059 15.419 7.19703C15.253 7.11633 14.8033 7.08309 14.6155 7.13759Z" fill="#3B2900"/>
</svg>
