<svg width="42" height="51" viewBox="0 0 42 51" fill="none" xmlns="http://www.w3.org/2000/svg">
<path d="M41.6142 13.6108C41.5678 13.2164 41.2817 12.8839 40.895 12.7524C40.8022 12.7137 40.7017 12.6905 40.6089 12.6751L40.4465 12.6364C40.3305 12.6209 40.2222 12.6055 40.114 12.5823C39.8974 12.5591 39.6809 12.5359 39.4566 12.5204C38.5905 12.474 37.7476 12.5359 36.9433 12.6441C35.3502 12.8684 33.8886 13.1777 32.5817 13.5025C31.2747 13.8273 30.1534 14.1753 29.2718 14.4847C28.3902 14.794 27.7715 15.0647 27.4776 15.1652C27.0368 15.3199 26.8048 15.3431 26.6502 15.3895C26.5883 15.3972 26.5574 15.4204 26.5264 15.4436C26.511 15.289 26.4955 15.1266 26.4723 14.91C26.3795 14.1676 25.9851 12.0873 25.3741 9.36518C25.0648 7.99638 24.7013 6.4729 24.2992 4.87209C24.0904 4.06782 23.8739 3.24035 23.6651 2.42061C23.5491 2.02621 23.4872 1.52354 23.0696 0.997666C22.8685 0.734731 22.4896 0.510462 22.0952 0.494995C21.7008 0.471795 21.3605 0.626463 21.1131 0.788864C20.6181 1.1446 20.3552 1.56994 20.1077 1.96434C19.868 2.36647 19.6669 2.79181 19.4968 3.20941C19.1565 4.05235 18.94 4.89529 18.7234 5.69183C18.3058 7.2849 17.9037 8.79291 17.5402 10.1463C16.8442 12.8529 16.3416 14.8946 16.2178 15.637C16.1405 16.1164 16.125 16.4026 16.125 16.5959V16.5882C15.9626 16.5031 15.6765 16.3871 15.1815 16.2247C14.4933 16.0004 12.5831 15.5287 10.0156 14.9178C8.73191 14.6161 7.30897 14.2604 5.74682 13.9356C4.95802 13.7809 4.13055 13.6495 3.25667 13.6185C2.82361 13.6031 2.3828 13.6185 1.942 13.6649C1.71773 13.7036 1.51666 13.7113 1.23053 13.7964C1.09906 13.8351 0.936661 13.8969 0.758793 14.0284C0.588658 14.1444 0.457191 14.3068 0.372124 14.5001C0.178789 14.8946 0.356657 15.4436 0.495858 15.6602C0.650525 15.9308 0.77426 16.0855 0.91346 16.2788C1.19186 16.6578 1.47026 17.0135 1.76413 17.3692C2.3596 18.0652 2.97054 18.7612 3.63561 19.318C4.28521 19.9058 4.92708 20.4703 5.53802 21.0194C6.15669 21.5453 6.75216 22.0402 7.3167 22.5197C9.56711 24.4143 11.2917 25.8295 11.9258 26.2781C12.1037 26.4018 12.2583 26.5024 12.3898 26.5797C12.3511 26.6261 12.297 26.6725 12.2506 26.7189C11.7479 27.2525 10.4178 28.8765 8.70098 31.0341C7.84257 32.1168 6.88363 33.3232 5.87829 34.5915C5.38335 35.2333 4.87295 35.8829 4.34708 36.5403L3.96815 37.0352C3.82121 37.2054 3.65881 37.4606 3.56601 37.7003C3.51188 37.824 3.46548 37.9555 3.42681 38.1024C3.39588 38.2262 3.37268 38.4814 3.39588 38.6747C3.44228 39.0846 3.72068 39.4326 4.09961 39.564C4.43988 39.7032 4.93482 39.564 5.05855 39.5408L5.62309 39.3939C6.00202 39.2856 6.37323 39.1774 6.74443 39.0768C7.47137 38.8526 8.19831 38.6283 8.89431 38.3808C10.2786 37.8936 11.5623 37.3678 12.6837 36.8496C14.9263 35.8133 16.504 34.8467 17.053 34.4523C17.3392 34.2435 17.5248 34.0811 17.6485 33.9573C17.6485 34.112 17.6485 34.2821 17.664 34.4832C17.6949 35.2643 17.8882 37.3678 18.1744 40.1827C18.3213 41.5902 18.4992 43.1755 18.677 44.8459C18.7698 45.6811 18.8626 46.5473 18.9632 47.4212C19.0096 47.862 19.0637 48.295 19.1101 48.7358L19.1874 49.4009L19.2106 49.5788C19.2106 49.6638 19.2338 49.7876 19.2725 49.8958C19.3344 50.1046 19.4426 50.2902 19.5896 50.4372C19.9376 50.7465 20.4634 50.7852 20.881 50.5609C21.0898 50.4604 21.2832 50.267 21.3992 50.0892C21.4997 49.9268 21.5693 49.7721 21.6235 49.6406C21.8013 49.1148 21.9251 48.6817 22.0797 48.21C22.3581 47.2742 22.6288 46.3462 22.8917 45.4259C23.4021 43.6009 23.8429 41.8531 24.2064 40.2755C24.9256 37.128 25.3432 34.6997 25.4205 33.8568C25.4824 33.1531 25.5056 32.7045 25.4747 32.4493C25.5752 32.5499 25.7067 32.6736 25.8691 32.8128C26.3099 33.2072 27.5936 34.1816 29.3259 35.4576C30.192 36.0917 31.1742 36.811 32.2182 37.5688C32.7518 37.9478 33.3163 38.3344 33.9659 38.6592C34.2907 38.8294 34.631 38.9763 34.9867 39.0846C35.1723 39.1464 35.3038 39.1928 35.6982 39.2624C36.023 39.3166 36.3478 39.3552 36.6881 39.3939C36.7422 39.0227 36.8195 38.6824 36.835 38.3035C36.8428 37.8472 36.8041 37.7312 36.7654 37.4838C36.6958 37.0429 36.5643 36.6408 36.4174 36.2542C36.1313 35.4963 35.8374 34.7925 35.5203 34.0965C34.8939 32.6968 34.2211 31.3976 33.5793 30.2608C32.2878 27.9872 31.0968 26.3709 30.6483 25.8605C30.2539 25.4274 30.0374 25.2573 29.8904 25.2109C30.0528 25.1181 30.2539 24.9634 30.5323 24.7469C31.0891 24.3061 32.5739 22.9527 34.515 21.1431C35.4817 20.2306 36.5721 19.2098 37.7089 18.1348C38.2812 17.5935 38.8612 17.0367 39.4566 16.4722C39.7505 16.1938 40.0521 15.9076 40.346 15.6292L40.7945 15.1962L41.0265 14.9796C41.1116 14.8868 41.2044 14.7863 41.2894 14.6703C41.3281 14.6161 41.3668 14.562 41.4054 14.5001C41.4596 14.4151 41.4982 14.3145 41.5369 14.2295C41.6142 14.0361 41.6452 13.8351 41.6142 13.6417V13.6108ZM40.3769 13.8583L40.3073 13.9588C37.9641 16.2324 35.6286 18.5138 33.7417 20.3466C31.847 22.2026 30.4395 23.6333 29.991 24.1823C29.3182 24.9789 29.2718 25.2109 29.3878 25.3346C29.4264 25.3733 29.5038 25.3887 29.6352 25.3346C29.6198 25.4506 29.6971 25.6981 30.0296 26.2858C30.3467 26.8813 31.4216 28.513 32.6203 30.7712C33.2081 31.9003 33.8499 33.184 34.4377 34.5528C34.7393 35.2333 35.0331 35.9448 35.2961 36.6486C35.4198 36.9966 35.5281 37.3368 35.5899 37.6694C35.6286 37.9246 35.6286 37.9864 35.6286 38.0019C35.6286 38.0019 35.5435 37.9787 35.3579 37.9246C35.0641 37.824 34.7857 37.708 34.4995 37.5688C33.935 37.2904 33.4014 36.9347 32.8833 36.5789C31.8238 35.852 30.8262 35.156 29.9523 34.5451C28.1736 33.3232 26.8358 32.4339 26.3099 32.1477C25.4901 31.6992 25.2736 31.7147 25.1808 31.8461C25.1344 31.908 25.1344 32.0008 25.2891 32.1941C25.1499 32.3101 24.9411 32.7355 24.6704 33.7099C24.4461 34.5219 23.928 36.9038 23.1469 40.0048C22.7448 41.5515 22.2885 43.2838 21.7704 45.0857C21.4997 45.9827 21.2291 46.9107 20.9506 47.8387C20.8114 48.2796 20.6568 48.7977 20.5176 49.1921C20.4866 49.2849 20.4557 49.3468 20.417 49.3932C20.4093 49.4086 20.4093 49.4164 20.4093 49.4164C20.2237 47.7924 20.0226 46.1915 19.8448 44.6758C19.636 42.9977 19.4426 41.42 19.2648 40.0126C18.9013 37.2054 18.5997 35.1096 18.4373 34.344C18.1898 33.184 18.0274 32.9829 17.865 33.0061C17.78 33.0061 17.7181 33.0989 17.6872 33.416C17.5402 33.416 17.2541 33.5011 16.6664 33.764C16.0632 34.0347 14.4701 34.8931 12.2506 35.8365C11.1447 36.3083 9.87645 36.8032 8.52311 37.2595C7.84257 37.4915 7.1311 37.7003 6.41963 37.9168C6.05616 38.0174 5.70042 38.1179 5.32922 38.2184C5.07402 38.2803 4.71055 38.3731 4.60228 38.404C4.60228 38.404 4.61775 38.2648 4.67962 38.1488C4.74148 38.0019 4.80335 37.9014 4.92708 37.7467L5.31375 37.2518C5.82416 36.5867 6.33456 35.9293 6.8295 35.2875C7.8039 34.0037 8.74738 32.7741 9.59031 31.676C11.2607 29.4642 12.4981 27.7706 12.8847 27.152C12.9543 27.036 13.0162 26.9277 13.0703 26.8349C13.1167 26.7421 13.1554 26.6648 13.1941 26.5952C13.4029 26.1698 13.3797 26.0229 13.2946 25.9533C13.225 25.9069 13.1167 25.8991 12.8538 26.1311C12.7455 26.0074 12.5986 25.845 12.4207 25.6594C11.8794 25.1026 10.2245 23.6023 8.0359 21.6613C7.48683 21.1818 6.8991 20.6637 6.29589 20.1301C5.70816 19.5964 5.09722 19.0242 4.46308 18.4596C3.81348 17.8951 3.26441 17.261 2.69987 16.5959C2.4292 16.2634 2.15853 15.9154 1.90333 15.5674C1.7796 15.3972 1.63266 15.1962 1.56306 15.0724C1.51666 14.9874 1.51666 14.9719 1.51666 14.9641L1.60946 14.9332C1.72547 14.8946 1.92653 14.8714 2.11213 14.8482C2.4988 14.8018 2.87774 14.794 3.26441 14.8017C4.03001 14.8172 4.81108 14.9332 5.56122 15.0724C7.09243 15.3972 8.54631 15.6988 9.82232 15.9772C12.4053 16.5186 14.3541 16.9052 15.0655 16.9826C15.9626 17.0831 16.2333 17.0367 16.3184 16.9284C16.3184 16.9284 16.3184 16.9362 16.3338 16.9362C16.4576 16.9671 16.6045 16.8975 17.0066 15.8226C17.2696 15.1188 17.865 13.1004 18.6461 10.4247C19.0173 9.07905 19.4504 7.57877 19.8989 5.9857C20.1232 5.18916 20.3397 4.38489 20.649 3.63475C20.8037 3.26355 20.9739 2.90008 21.1827 2.56754C21.3992 2.22727 21.6157 1.91794 21.8477 1.771C21.956 1.7014 22.0411 1.68594 22.072 1.68594C22.1184 1.69367 22.1416 1.7014 22.2112 1.77874C22.3504 1.94114 22.4509 2.32781 22.5669 2.75314C22.7912 3.58062 23 4.39262 23.2165 5.18916C23.6187 6.78997 24.0131 8.29798 24.3611 9.64359C25.0416 12.3425 25.5365 14.3919 25.7685 15.0956C26.1088 16.1396 26.2789 16.3098 26.4336 16.2788C26.5264 16.2556 26.5806 16.1706 26.5806 15.7762L26.596 15.7916C26.7584 15.8844 27.1142 15.9927 27.7096 15.9076C28.1118 15.8535 28.7536 15.6292 29.6275 15.3895C30.5091 15.1343 31.6227 14.8404 32.9065 14.5543C34.1825 14.2681 35.6363 13.9975 37.1676 13.8041C37.9254 13.7113 38.691 13.6572 39.4566 13.7113C39.6422 13.7268 39.8356 13.7423 40.0212 13.7655C40.114 13.7809 40.199 13.7964 40.2996 13.8119L40.4233 13.8351L40.3769 13.8583Z" fill="#3B2900"/>
<path d="M40.3774 13.8506L40.3078 13.9588C37.9646 16.2324 35.6291 18.5138 33.7422 20.3466C31.8475 22.2026 30.4478 23.6333 29.9915 24.1824C29.3187 24.9789 29.2723 25.2109 29.3883 25.3269C29.427 25.3656 29.5043 25.381 29.6358 25.3269C29.6203 25.4429 29.7054 25.6981 30.0302 26.2781C30.3395 26.8736 31.4144 28.5053 32.6208 30.7712C33.2086 31.9003 33.8427 33.1763 34.4382 34.5528C34.7321 35.2334 35.0337 35.9448 35.2966 36.6486C35.4203 36.9966 35.5286 37.3368 35.5905 37.6694C35.6291 37.9246 35.6291 37.9864 35.6291 38.0019C35.6291 38.0019 35.5363 37.9787 35.3507 37.9246C35.0569 37.8318 34.7785 37.708 34.4923 37.5766C33.9355 37.2982 33.3942 36.9424 32.8838 36.5867C31.8243 35.852 30.8267 35.1715 29.9451 34.5606C28.1664 33.3387 26.8285 32.4416 26.3104 32.1632C25.4907 31.7224 25.2741 31.7301 25.1813 31.8616C25.1272 31.9235 25.1349 32.0163 25.2896 32.2096C25.1504 32.3179 24.9416 32.7509 24.6787 33.7253C24.4544 34.5296 23.9285 36.9192 23.1475 40.0203C22.7453 41.567 22.289 43.2915 21.7709 45.1012C21.5002 45.9982 21.2296 46.9262 20.9512 47.8542C20.812 48.2873 20.6496 48.8054 20.5104 49.2076C20.4872 49.3004 20.4485 49.3622 20.4098 49.4086C20.4098 49.4241 20.4021 49.4318 20.4021 49.4318C20.2088 47.8078 20.0154 46.207 19.8298 44.6835C19.6288 43.0131 19.4277 41.4278 19.2498 40.0203C18.8864 37.2131 18.5925 35.1096 18.4301 34.3517C18.1826 33.1917 18.0202 32.9829 17.8578 33.0061C17.7805 33.0061 17.7109 33.0989 17.68 33.416C17.533 33.416 17.2469 33.5011 16.6591 33.7717C16.0559 34.0424 14.4629 34.8931 12.2511 35.8443C11.1452 36.316 9.87697 36.8032 8.52363 37.275C7.83535 37.507 7.13162 37.7158 6.42015 37.9323C6.06441 38.0328 5.70094 38.1256 5.32974 38.2339C5.07454 38.2958 4.70334 38.3886 4.6028 38.4195C4.6028 38.4195 4.61827 38.288 4.6724 38.1643C4.73427 38.0174 4.79614 37.9168 4.91987 37.7544L5.30654 37.2672C5.38387 37.1667 5.46894 37.0584 5.54627 36.9579C5.97934 36.4011 6.39695 35.8443 6.81455 35.303C7.78895 34.0192 8.73243 32.7896 9.57537 31.6915C11.238 29.4875 12.4831 27.7938 12.8621 27.1674C12.9317 27.0514 12.9935 26.9432 13.0477 26.8504C13.0941 26.7576 13.1327 26.6802 13.1714 26.6106C13.3802 26.193 13.3647 26.0461 13.2719 25.9688C13.2023 25.9224 13.0941 25.9146 12.8311 26.1466C12.7229 26.0229 12.5759 25.8605 12.3981 25.6749C11.8567 25.1181 10.2018 23.6256 8.00549 21.6767C7.44869 21.1973 6.86868 20.6791 6.26548 20.1455C5.67001 19.6042 5.0668 19.0397 4.43267 18.4674C3.78306 17.9028 3.23399 17.2764 2.66946 16.6114C2.39879 16.2788 2.12812 15.9308 1.86518 15.5828C1.74145 15.405 1.60225 15.2116 1.53265 15.0956C1.48625 15.0028 1.47852 14.9951 1.47852 14.9874L1.56358 14.9564C1.67958 14.9178 1.88838 14.9023 2.06625 14.8636C2.45292 14.8172 2.83186 14.8095 3.21853 14.825C3.99186 14.8404 4.7652 14.9487 5.51534 15.0956C7.04655 15.4204 8.49269 15.722 9.77643 16.0004C12.3594 16.5495 14.3082 16.9284 15.0274 16.998C15.9322 17.0986 16.1951 17.0522 16.2725 16.9439C16.2725 16.9439 16.2879 16.9439 16.2879 16.9516C16.4117 16.9903 16.5586 16.9207 16.9607 15.838C17.2159 15.1343 17.8192 13.1159 18.6002 10.4324C18.9792 9.0868 19.4122 7.58652 19.853 5.99344C20.0773 5.1969 20.2938 4.39263 20.6032 3.64249C20.7578 3.27129 20.9357 2.90782 21.1368 2.57529C21.2218 2.43609 21.3146 2.30462 21.4074 2.18088C21.5389 2.01075 21.6704 1.86382 21.8018 1.78648C21.9101 1.71688 21.9952 1.70142 22.0338 1.70142C22.0725 1.70915 22.1034 1.71688 22.173 1.79422C22.3122 1.95662 22.405 2.34329 22.521 2.77636C22.7453 3.60383 22.9541 4.41583 23.1784 5.21237C23.5805 6.81318 23.9749 8.31346 24.3229 9.6668C25.0035 12.3657 25.4984 14.4074 25.7304 15.1188C26.0707 16.1628 26.2408 16.333 26.3955 16.2943C26.4805 16.2788 26.5501 16.186 26.5424 15.7994V15.8148C26.7203 15.9076 27.0683 16.0159 27.6637 15.9386C28.0659 15.8844 28.7078 15.6602 29.5816 15.4204C30.4632 15.1652 31.5768 14.8714 32.8606 14.5852C34.1443 14.2991 35.5905 14.0207 37.1217 13.8351C37.8718 13.7423 38.6451 13.6882 39.403 13.7423C39.5886 13.7578 39.782 13.7732 39.9676 13.7964C40.0681 13.8119 40.1532 13.8274 40.246 13.8428L40.3697 13.866L40.3774 13.8506Z" fill="#FFB936"/>
<g style="mix-blend-mode:multiply" opacity="0.25">
<path d="M40.3762 13.8506L40.3066 13.9588C37.9634 16.2324 35.6279 18.5138 33.7409 20.3466C31.8463 22.2026 30.4465 23.6333 29.9903 24.1824C29.3174 24.9789 29.271 25.2109 29.387 25.3269C29.4257 25.3656 29.503 25.381 29.6345 25.3269C29.6191 25.4429 29.7041 25.6981 30.0289 26.2781C30.3383 26.8736 31.4132 28.5053 32.6196 30.7712C33.2073 31.9003 33.8415 33.1763 34.4369 34.5528C34.7308 35.2334 35.0324 35.9448 35.2954 36.6486C35.4191 36.9966 35.5274 37.3368 35.5892 37.6694C35.6279 37.9246 35.6279 37.9864 35.6279 38.0019C35.6279 38.0019 35.5351 37.9787 35.3495 37.9246C35.0556 37.8318 34.7772 37.708 34.4911 37.5766C33.9343 37.2982 33.3929 36.9424 32.8825 36.5867C31.8231 35.852 30.8255 35.1715 29.9439 34.5606C28.1652 33.3387 26.8273 32.4416 26.3092 32.1632C25.4894 31.7224 25.2729 31.7301 25.1801 31.8616C25.126 31.9235 25.1337 32.0163 25.2884 32.2096C25.1492 32.3179 24.9404 32.7509 24.6774 33.7253C24.4532 34.5296 23.9273 36.9192 23.1462 40.0203C22.7441 41.567 22.2878 43.2915 21.7697 45.1012C21.499 45.9982 21.2283 46.9262 20.9499 47.8542C20.8107 48.2873 20.6483 48.8054 20.5091 49.2076C20.4859 49.3004 20.4473 49.3622 20.4086 49.4086C20.4086 49.4241 20.4009 49.4318 20.4009 49.4318C20.2075 47.8078 20.0142 46.207 19.8286 44.6835C19.6275 43.0131 19.4265 41.4278 19.2486 40.0203C18.8851 37.2131 18.5912 35.1096 18.4288 34.3517C18.1814 33.1917 18.019 32.9829 17.8566 33.0061C17.7792 33.0061 17.7096 33.0989 17.6787 33.416C17.5318 33.416 17.2456 33.5011 16.6579 33.7717C16.0547 34.0424 14.4616 34.8931 12.2499 35.8443C11.144 36.316 9.87573 36.8032 8.52239 37.275C7.83412 37.507 7.13038 37.7158 6.41891 37.9323C6.06317 38.0328 5.6997 38.1256 5.3285 38.2339C5.0733 38.2958 4.7021 38.3886 4.60156 38.4195C4.60156 38.4195 4.61703 38.288 4.67116 38.1643C4.73303 38.0174 4.7949 37.9168 4.91863 37.7544L5.3053 37.2672C5.38263 37.1667 5.4677 37.0584 5.54503 36.9579C7.78772 35.1328 11.4688 34.1275 13.8816 32.9829C15.7686 32.0859 17.4699 30.7171 19.1171 29.6653C19.1094 32.3256 20.2153 35.7206 21.1123 38.2262C23.1694 36.7182 23.6257 31.1347 24.1129 28.6522C25.7756 29.8045 28.5982 32.6195 30.6863 32.5421C31.1967 29.6731 26.5412 26.6648 27.0825 24.1669C27.7553 21.0658 33.4625 19.8362 33.3465 15.9618C31.0033 15.6988 25.6364 16.8356 24.2753 18.6917C22.5585 13.3943 22.8523 7.63292 21.4139 2.18088C21.5454 2.01075 21.6769 1.86382 21.8083 1.78648C21.9166 1.71688 22.0017 1.70142 22.0403 1.70142C22.079 1.70915 22.1099 1.71688 22.1795 1.79422C22.3187 1.95662 22.4115 2.34329 22.5275 2.77636C22.7518 3.60383 22.9606 4.41583 23.1849 5.21237C23.587 6.81318 23.9814 8.31346 24.3294 9.6668C25.01 12.3657 25.5049 14.4074 25.7369 15.1188C26.0772 16.1628 26.2473 16.333 26.402 16.2943C26.487 16.2788 26.5566 16.186 26.5489 15.7994V15.8148C26.7268 15.9076 27.0748 16.0159 27.6702 15.9386C28.0724 15.8844 28.7142 15.6602 29.5881 15.4204C30.4697 15.1652 31.5833 14.8714 32.8671 14.5852C34.1508 14.2991 35.597 14.0207 37.1282 13.8351C37.8783 13.7423 38.6516 13.6882 39.4095 13.7423C39.5951 13.7578 39.7884 13.7732 39.974 13.7964C40.0746 13.8119 40.1596 13.8274 40.2524 13.8428L40.3762 13.866V13.8506Z" fill="#FFA02C"/>
</g>
</svg>
