
<svg width="11" height="17" viewBox="0 0 11 17" fill="none" xmlns="http://www.w3.org/2000/svg">
    <path d="M.38.005.26.081C.229.19.213.37.376.304.206.37.195.641 0 .793l.081-.06c-.168.435-.032.641.028.924.315-.103.097.266.358.239.255-.223.07-.027.217.021-.081-.021-.19.174-.184.24a.259.259 0 0 1 .174-.039c-.06.104-.13.419.076.3-.017.135-.093.059-.152.097-.098.147.146-.049.081.054 0 0-.027.027-.043.033.103.081.092.2.157.326.245-.228.185.005.31-.038-.087.06-.033.141-.05.212l.224-.125c.2-.098-.033.174.114.157l.027-.06c.12-.021.103.245.027.419.902-.017.43.94 1.016 1.282.103-.038.098-.142.222-.223.077.022.077.043.12.081.027-.103-.049-.016.022-.076h-.13s.026-.021.054-.06c-.044 0-.114.022-.13-.021.102-.022.287-.18.276-.06-.027.022-.043.022-.07.022.032.06.12-.022.108.06 0 .081.05.016-.021.097l.038.223c.271-.141.157.136.157.18-.168.14-.136-.039-.32.08l-.066.164.125-.12.033.104-.027.021c.054-.038.114-.081.087-.021-.017.021-.044.06-.055.06L3 5.263c-.158.097 0 .081-.153.222.082.234.402 0 .337.343.05-.093.277-.19.294-.12-.011.06-.038.098-.11.141l.131-.021c-.163.298.055.222.082.402l-.07.06c.113-.039.216-.06.249.021l-.141.12c-.022.162.326-.223.32-.06.142-.141.163-.261.288-.402-.125.163-.065.266.022.141.136.022.049.054.022.098l.13-.038c.049.06-.168.2-.266.26.2-.103.152.06.185.142l-.087.038.048.103c.158-.06.234 0 .24.12l-.229.14c-.054.142.087-.043.13-.059.158-.022.05.12-.016.26.305-.08-.081.528.294.348l-.098.12c.364-.103.18.38.608.163-.222.543.446-.24.25.25l.05-.06.059.087c-.114.043-.207.098-.24.174.104-.038.218-.05.327-.055v.006l.081.108c.006.017 0 .028 0 .038-.005.044-.021.077-.027.104l-.043.021.038-.01c-.011.038 0 .043.184.065h-.146l-.022.016c-.125.027-.109.027-.114.065 0 .011.005.011-.016.038l-.245.266a7.55 7.55 0 0 1-.521.5c0 .136.212.266.239.408-.033.016-.082.086-.174-.011 0-.098-.114-.158-.136-.212-.07.092-.282.087-.239.271l.18.06c.021.082-.055.087-.088.109-.048-.07-.222-.169-.228-.223.152.456-.25-.01-.255.24.234.282.282.656.364.944l-.125-.01c.076-.071-.19-.185-.087-.267-.152 0-.109.185-.223.212.076.05.158.141.158.196-.082.01-.212-.114-.277-.082l-.033-.13c-.13-.065-.032.092-.049.141-.12-.098-.211-.043-.32-.174.081.218-.027.158-.006.326.19.038.125.163.223.245l.044-.13c-.196.048.021-.06-.174-.234.141.027.223.38.293.255-.022.206-.125.152-.092.418.038-.103.108.136.2.152-.08.098-.086-.043-.233-.13-.043.054-.168-.033-.076.147-.136.021-.125-.152-.239-.185-.098-.158.375-.065-.049-.446.038-.043-.065-.25 0-.304-.103 0-.31-.06-.282.098l.222.234c-.043.054.104.217.05.233-.05-.087-.18-.146-.196-.087.043.022.049 0 .087.044-.055.087.092.255.049.386.13-.011.211.043.38.076.141.179-.022.07-.044.13-.016-.027-.01-.038-.054-.06l.033.12c-.158.021-.223-.245-.37-.245-.184-.081.006.147-.108.109.016.01.038.022.049.033-.011.005-.022.01-.033.01l.01.011c-.02.07-.086.109.023.24-.06-.05-.028.053 0 .108.021.076.097.277-.13.125-.082.038-.186.021-.24-.055l-.141.05-.147-.164c-.043.13.055.212.158.43-.152-.033-.19.152-.169.25-.01 0-.021.01-.032.037l.098.028c-.076.06.016.135-.028.179.022 0 .033.01-.016.01.006 0 .011-.01.016-.01H2.57l.022.016s-.022.011-.038.011c-.016-.016 0-.027.016-.027l-.06-.044c-.217-.108.011.174-.103.174 0-.01 0-.032.006-.038-.076-.01-.342-.184-.217-.038-.028-.01-.011.027.01.07h-.048.048c.028.06.071.131.038.099l-.108.054c-.038-.005-.038.032-.038.07l-.076-.048c-.022.038-.06 0-.07-.022-.327-.12-.05.277-.354.195.087.13.18.13.244.185.066.098.077.24.104.332-.201-.098-.484-.077-.674-.316-.109.077.163.104.19.223H1.44c.06 0 .158.044.256.109.125.108.076.223.016.217l-.147-.185c-.027.142.24.375.348.592-.136 0-.244-.184-.407-.32l-.033.114-.125-.125c-.016.082.093.207-.022.223-.07-.163-.211-.017-.304-.24-.076-.005.152.245-.032.099.108.157.097.032.157.06.207.173.011.168.016.26-.103-.092-.086-.147-.2-.157.065.086.086.173-.033.114.125.125-.033.081-.07.103.054-.011.195.038.276.163.022.076.027.12-.049.163l.098.016c.13.234-.212-.049-.223.076-.043-.103-.027-.12-.092-.239.027.093.054.24.065.348l-.239-.125c.082.098-.07.054.05.18-.153-.012-.093-.207-.175-.305-.173.005.136.277-.14.174l-.088-.147c-.038.022-.027.141-.092.087.043.043.038.01.06-.006.228.267.038.305.31.55l.054-.023c-.011.11.12.326-.017.283-.12-.049-.146-.201-.195-.288-.076.038.233.326.141.37.076 0 .163.103.206.19.055-.022.185-.055.066-.147l-.038-.011c-.066-.07-.066-.114-.087-.157.054-.055.14.092.2.13.131-.05-.25-.26-.157-.337l.06.038c-.027-.103.027-.174-.12-.342.201.13.027-.158.163-.098.37.353-.163.114-.01.359.119.032.146.195.211.298l-.021-.293c.06.038.282.18.173.022h-.016c.011-.093-.152-.228-.054-.223.038.027.081.098.103.125.076-.01-.049-.12-.049-.18.076-.01.125.17.201.175-.092-.19.114-.044.147-.098-.223-.19-.109-.451-.386-.538l-.038-.245c.141.077.217.359.418.506l-.092.076c.272.244.005-.342.348-.109.054-.033.01-.06.217-.016l-.245-.217c.098.01.234.119.277.157a.102.102 0 0 1 .071-.07c.027.038.049.08.044.108.157.092.12.038.065-.043-.038-.076-.006-.093.021-.12l.06.109a.161.161 0 0 0-.049-.125c.011-.011.017-.027.011-.054-.049-.033-.2-.147-.299-.169.19-.01.218-.141.495-.038.065.07.108.19.13.185.076-.011.006-.174-.098-.266 0-.017.011-.028.017-.033.065.049.135.098.168.087.027.016.049.027.076.022-.168-.196.006-.19-.06-.288-.038 0-.06.027-.076.054-.087-.157-.195-.326-.07-.255.049.179.255.12.212.266.298.163-.13-.201.021-.19l.136.043c.125.141-.01.141.049.18l.016-.05c.065.131-.12.19-.049.414l.223-.077c.033-.347.45-.402.32-.852v.01s-.037-.043-.086-.092l.038.027-.066-.13c.158.087.25.043.408.087a.642.642 0 0 1-.223-.141c-.125-.142-.174-.201-.07-.207.092.092.06.125.173.158-.065-.027-.114-.109-.103-.147.093.033.152-.005.25.087.01.038-.033.016-.054.016.01.038.141.027.179.147l.027-.082c.109.05.103.147.163.185.027-.157-.141-.418-.125-.565.044.054.255.266.196.201.125 0-.093-.364-.038-.45.049.07 0 .075.005.124.299-.141.484-.32.891-.326l-.163-.271.196.087c.353-.082.385-.386.527-.658.048-.076.19.114.282.142.168-.12-.043-.397.043-.576.05.087.201.304.267.25-.05-.071-.142-.18-.066-.174l.05.087c.13.065.07-.06.179-.087.12-.125.081-.397-.055-.734.13-.086.223.245.288.272-.157 0-.016.092.044.185-.022-.103-.011-.19.168-.054.049-.066.081-.087.033-.245.021.082-.082.022-.125-.076.097.005.157-.168.342.033.114-.153.255-.294.407-.435l.256-.239.374-.375c-.038-.157-.108.033-.146-.07-.044-.212.174-.038.136-.207l.097.114c.169-.136.055-.407.028-.576.152.087.25-.054.25.093.027-.065.923.103.82-.011a17.95 17.95 0 0 1-.842-.152c-.071-.027.06-.098 0-.103.206-.006.461-.033.5-.076.228.021.075.119.016.173.32.098.418-.152.64.011.082-.152-.195-.021-.244-.13l.19-.103-.206.065c-.01-.12-.26-.185.065-.277a2.407 2.407 0 0 0-.25-.158c.315.017.141-.081.272-.136l.163.05c.076-.088.157-.115.331-.164.234.06-.146.076.098.109l.195-.098c-.184 0-.266-.065-.445 0-.109-.038-.217-.07-.293-.108-.19-.05-.332-.104-.424-.207.212-.108.364.082.63.033-.108-.245-1.032-.196-1.092-.299-.027-.158-.271-.103-.413-.228.218 0 .093-.141.223-.223h.234c-.098-.022-.082-.092.054-.114-.217.082-.413-.136-.608-.19l-.152.098c-.136-.05-.332-.087-.364-.185-.158-.076-.267.038-.5.082.087-.142.233-.261.407-.364-.038.086.055.108.06.19.266.049.75 0 .842.212.505-.104-.168-.098-.103-.245.027-.01.038-.005.049 0a.042.042 0 0 1-.011-.027c.114.038.282.114.521.038-.163-.103-.5.109-.461-.114-.207-.038.01-.299-.033-.386-.212.017-.494.223-.592.027l.26-.081c-.184-.196-.358.141-.51-.022.033.076-.217.12-.125.217-.152.033-.223-.005-.233-.114-.039.011-.06.055-.12.109-.06.18.206-.027.092.201.082-.043.163-.087.245-.125.01.141-.152.277-.266.31.027.01.07 0 .049.049-.294.266.027-.174-.245.032l.065.022c-.174.185-.255.06-.293 0 .027-.141.005-.223.13-.359l.13.022c.066-.147-.157-.038-.2-.087.016-.022.021-.038.027-.054-.011.016-.022.027-.033.038 0-.016 0-.038.027-.082-.032-.043-.168-.021-.163-.103l-.114.12.071-.06c.033.038.01.163-.109.223-.163 0 .05-.24.13-.364.196-.163.077.081.18.06.152-.201-.065-.104-.033-.3.229-.162.093.099.294-.059-.033-.098-.19.022-.212-.098.098-.081.174-.022.288-.141l.01-.103c.126.098.223-.261.36-.223.037-.12-.218.103-.153-.081-.07.103-.174.298-.31.32v-.12c.06-.119.267-.14.305-.26h-.13c-.055.06-.055.12-.153.18.022-.104-.288.162-.418.2-.033-.038-.049-.081.005-.163-.26.082-.37-.038-.614.038.174-.06.196-.2.25-.32.093.043.272-.142.386-.261-.06-.022-.272.141-.315.223.005-.142-.174.081-.109-.104.027-.103.196-.163.256-.239-.066-.081-.24.201-.277.082.027-.022.043-.022.07-.06 0-.081-.136-.038-.233.038.19-.282-.152-.103.087-.32-.163-.038-.11.14-.212.2-.142.06-.136-.103-.125-.162.032.021.114-.022.103.038l.136-.18c-.011-.239-.44.283-.424.022.147-.022.141-.098.288-.18-.06.023-.109-.119-.174.06a.357.357 0 0 1-.038-.179c-.103.022-.19.022-.32.104-.05-.082.016-.245.054-.343-.25-.021-.18-.342-.445-.364v.022c-.082-.141-.163.26-.272.141.212-.179.065-.2.13-.342-.038-.239-.385-.103-.385-.364.043-.038.097-.081.13-.06-.038-.163-.158-.2-.234-.298l.028-.022c.016-.304-.305-.239-.5-.342.038-.011.114-.082.146-.098-.032-.12-.12-.266-.353-.141.104-.283-.12 0-.043-.299.027-.044.043-.022.06-.022.01-.12-.05-.141-.087-.222-.25 0-.533.222-.603 0 .26-.272.157.021.37-.185-.077.016-.158.049-.131-.054.13-.082.07-.06.184-.142.039-.098-.401.152-.374.13-.055.05-.07.088-.033.11-.195.13-.157-.131-.293-.137.016.028.038.153-.114.25-.038-.152-.326.076-.5.114.033-.206.288-.157.456-.364.055-.081.169-.266.277-.304-.038-.12-.255-.016-.364-.043l.055-.05c-.12-.075-.457.05-.43-.135l-.016.103c-.049.017-.081-.049-.217.033.092-.087.103-.228.206-.272-.326.24-.39-.049-.706.163.044-.097.18-.19.25-.244.038.087 0 .163.147.081-.055-.049-.022-.157.049-.212-.229.125-.419.071-.62.218.05-.125.06-.207.223-.342-.25-.066-.37.526-.549.347.06-.223.272-.114.207-.271h.043C1.391.13.771.793.695.69.885.473.907.608.99.396.853.364.516.63.494.483L.592.407C.522.37.462.223.392.19.428.147.428.163.45.157.429-.016.304.223.364 0L.38.005zM2.222 15.4l-.033-.049.033.049zm-.19-1.738.038.016c.01.054.027.098-.038-.016zm.847-.717c.152.217-.32.081-.18.157 0 .147-.064.038-.124-.01.125-.023.103-.126.228-.126-.049-.027-.098-.076-.13-.103.032-.016.103 0 .2.082h.006z" fill="#3E1702"/>
</svg>
