<svg width="100" height="16" viewBox="0 0 100 16" fill="none" xmlns="http://www.w3.org/2000/svg">
<path d="M8.28615 0.900146L10.795 5.86287L16.4053 6.66357L12.3457 10.5243L13.3038 15.9786L8.28615 13.4021L3.26851 15.9786L4.22657 10.5243L0.166992 6.66357L5.77733 5.86287L8.28615 0.900146Z" fill="#FFC82A"/>
<path d="M29.1641 0.900146L31.6729 5.86287L37.2832 6.66357L33.2237 10.5243L34.1817 15.9786L29.1641 13.4021L24.1464 15.9786L25.1045 10.5243L21.0449 6.66357L26.6553 5.86287L29.1641 0.900146Z" fill="#FFC82A"/>
<path d="M50.042 0.900146L52.5508 5.86287L58.1612 6.66357L54.1016 10.5243L55.0597 15.9786L50.042 13.4021L45.0244 15.9786L45.9824 10.5243L41.9229 6.66357L47.5332 5.86287L50.042 0.900146Z" fill="#FFC82A"/>
<path d="M70.9199 0.900146L73.4288 5.86287L79.0391 6.66357L74.9795 10.5243L75.9376 15.9786L70.9199 13.4021L65.9023 15.9786L66.8604 10.5243L62.8008 6.66357L68.4111 5.86287L70.9199 0.900146Z" fill="#FFC82A"/>
<path d="M91.7979 0.900146L94.3067 5.86287L99.917 6.66357L95.8575 10.5243L96.8155 15.9786L91.7979 13.4021L86.7802 15.9786L87.7383 10.5243L83.6787 6.66357L89.2891 5.86287L91.7979 0.900146Z" fill="#FFC82A"/>
</svg>
