<svg width="21" height="24" viewBox="0 0 21 24" fill="none" xmlns="http://www.w3.org/2000/svg">
<path d="M5.44323 6.12381L5.36567 6.18693C5.32707 6.1395 5.30156 6.08083 5.31284 6.01736C5.32408 5.95411 5.36714 5.91263 5.40813 5.88931C5.48393 5.84619 5.59262 5.84031 5.6774 5.87965C5.68107 5.87894 5.68994 5.87723 5.70745 5.87245C5.70869 5.87211 5.71006 5.87173 5.71154 5.87132C5.73346 5.86517 5.78152 5.85171 5.83347 5.86629C6.66435 5.64108 7.47564 5.41422 8.28887 5.18681C8.98628 4.99179 9.68512 4.79637 10.3989 4.60126L10.399 4.60125C11.1322 4.40116 11.8727 4.21612 12.6126 4.0312L12.6443 4.02327C13.3751 3.84064 14.1053 3.65792 14.8294 3.46035C14.8345 3.45111 14.8404 3.44274 14.8468 3.43537C14.8671 3.41168 14.9197 3.37221 14.9823 3.3906C14.9825 3.38976 14.9827 3.38891 14.9829 3.38806L14.9836 3.38488L14.9837 3.38489C14.9971 3.33726 15.034 3.31339 15.0607 3.3038C15.087 3.29433 15.1138 3.29395 15.1359 3.29781C15.1579 3.30165 15.1853 3.31144 15.2086 3.3329C15.2155 3.33928 15.2219 3.34662 15.2275 3.35478C15.3385 3.34445 15.4376 3.39864 15.4909 3.47192C15.521 3.51329 15.5427 3.56957 15.5327 3.63057C15.5307 3.64252 15.5276 3.65395 15.5235 3.66483L15.59 3.70996L15.465 3.76654C15.5341 3.82692 15.6024 3.88707 15.6707 3.9489C15.7781 4.04263 15.8854 4.14016 15.9889 4.23768C16.0397 4.28152 16.0902 4.32893 16.1388 4.37462L16.1397 4.37548C16.1501 4.38528 16.1617 4.39517 16.1756 4.40708L16.1757 4.40718C16.1889 4.41851 16.2043 4.43168 16.2192 4.44572C16.2486 4.47344 16.2833 4.51097 16.3047 4.56083L16.3934 4.76718L16.2741 4.72672L14.8181 3.56708C14.0948 3.76387 13.3657 3.94607 12.6373 4.1281C11.897 4.3131 11.1575 4.49792 10.4253 4.69772C9.71336 4.89232 9.01452 5.08774 8.31678 5.28284C7.4917 5.51356 6.66814 5.74385 5.82627 5.97185C5.79662 5.95173 5.76382 5.9607 5.7306 5.96979C5.6995 5.97831 5.66802 5.98692 5.63841 5.97185C5.52743 5.9173 5.33224 5.98743 5.44323 6.12381ZM5.44323 6.12381C5.50113 6.1975 5.58751 6.25781 5.66923 6.31486C5.69553 6.33323 5.72134 6.35126 5.74557 6.36928C5.79341 6.40435 5.84126 6.44039 5.8891 6.47644C5.93693 6.51248 5.98477 6.54852 6.03261 6.58358L5.9724 6.66343C5.97258 6.66356 5.97275 6.66369 5.97293 6.66383M5.44323 6.12381L5.3646 6.18559C5.41107 6.24473 5.47015 6.29384 5.52603 6.33549C5.55424 6.35652 5.58299 6.37661 5.60987 6.39538L5.6114 6.39645C5.63816 6.41514 5.66289 6.4324 5.68588 6.44951L5.68645 6.44993C5.73367 6.48455 5.78099 6.52019 5.82892 6.5563L5.82922 6.55653C5.87669 6.59229 5.92476 6.62851 5.97293 6.66383M5.97293 6.66383C6.17986 6.81987 6.38671 6.97197 6.59299 7.12365L6.59337 7.12393L6.59358 7.12408C6.68324 7.18964 6.77279 7.25604 6.86254 7.3226C7.13185 7.52233 7.40302 7.72342 7.68464 7.90704L5.97293 6.66383ZM2.49632 13.4815L2.42322 13.4133C2.4232 13.4133 2.42318 13.4133 2.42316 13.4133C2.42311 13.4134 2.42307 13.4134 2.42303 13.4135L2.49632 13.4815ZM2.49632 13.4815C1.91118 14.1082 1.3487 14.7259 0.835048 15.4134M2.49632 13.4815C2.80097 13.1533 3.12329 12.8266 3.44565 12.4999C3.75098 12.1904 4.05635 11.8808 4.34676 11.57L0.835048 15.4134M0.835048 15.4134C0.834678 15.4118 0.834314 15.4102 0.833959 15.4087C0.828859 15.3808 0.812875 15.3457 0.775817 15.3257C0.765371 15.3396 0.754944 15.3536 0.744537 15.3675L0.835048 15.4134ZM15.1132 3.39565L15.1091 3.38345L15.1116 3.38258C15.1323 3.37558 15.1606 3.36596 15.1904 3.36059L15.1132 3.39565ZM15.1132 3.39565C15.0987 3.39461 15.0844 3.39941 15.0804 3.41068L15.0518 3.40365C15.0517 3.40375 15.0517 3.40386 15.0517 3.40397C15.0516 3.40427 15.0515 3.40459 15.0514 3.4049C15.05 3.4109 15.0483 3.41829 15.0467 3.42655M15.1132 3.39565L15.0467 3.42655M15.0467 3.42655C15.0463 3.42628 15.0459 3.42597 15.0454 3.42561M3.47748 17.4001C2.86288 16.9237 2.24639 16.4458 1.6191 15.9825L5.07565 12.1812L5.1498 12.2483C5.14984 12.2482 5.14987 12.2482 5.1499 12.2482C5.41056 11.9601 5.65712 11.695 5.90225 11.4314C6.19913 11.1123 6.49392 10.7953 6.80915 10.4425L6.8092 10.4424C6.9956 10.2336 7.19529 10.0251 7.39871 9.81272C7.50536 9.70138 7.61303 9.58897 7.72036 9.47487C8.03049 9.14514 8.3346 8.80441 8.58747 8.44795L8.63266 8.38424L8.5818 8.32496C8.50272 8.23282 8.36203 8.12012 8.24504 8.03284C8.21063 8.00718 8.17748 7.98314 8.14742 7.96175C8.20145 7.92714 8.26354 7.88456 8.32322 7.84106C8.39343 7.78989 8.46293 7.73553 8.51288 7.68995C8.53708 7.66787 8.56094 7.64405 8.5777 7.62136C8.58542 7.61091 8.59718 7.59344 8.60366 7.57156C8.61035 7.54898 8.6167 7.49789 8.57414 7.45818L8.50591 7.53129L8.57571 7.45968C8.39141 7.28003 8.21529 7.14061 8.03781 7.00698C7.99198 6.97248 7.94628 6.93851 7.90038 6.9044C7.76762 6.80573 7.63327 6.70589 7.48978 6.58844L7.48904 6.58785C7.39244 6.5103 7.35749 6.47768 7.32259 6.44512L7.32188 6.44445C7.28627 6.41122 7.25034 6.37776 7.16299 6.30704C7.77823 6.14944 8.25596 6.0207 8.71696 5.89646C9.33315 5.73041 9.91943 5.57241 10.7642 5.36431L10.7642 5.36433L10.7661 5.36384C11.224 5.24168 11.6714 5.1298 12.1182 5.01807C13.0107 4.79488 13.9008 4.57232 14.8666 4.2698C14.2467 6.99135 14.0142 9.61852 13.9829 12.5106C13.87 12.4231 13.756 12.3366 13.643 12.2508C13.5831 12.2053 13.5235 12.16 13.4644 12.1149L13.4641 12.1147C13.0583 11.8068 12.6511 11.5017 12.232 11.2121L12.2321 11.212L12.2296 11.2104C12.1984 11.1902 12.1637 11.1845 12.1382 11.1837C12.1115 11.1828 12.0822 11.1868 12.0555 11.1973C12.0339 11.2058 11.987 11.2293 11.9714 11.2845C11.96 11.3246 11.9705 11.3584 11.9862 11.3837C11.1792 12.2668 10.4725 13.2569 9.77441 14.235C9.50735 14.6091 9.24156 14.9815 8.9719 15.3455C8.78995 15.5908 8.60786 15.8362 8.42573 16.0816C7.62274 17.1636 6.81885 18.2468 6.02216 19.3349C5.42525 18.9569 4.86368 18.5049 4.30247 18.0531C4.08128 17.8751 3.86015 17.6971 3.63693 17.5237L3.63683 17.5236C3.58372 17.4824 3.53061 17.4413 3.47748 17.4001ZM15.6043 4.02364C15.524 3.95096 15.4437 3.88063 15.3616 3.80899L16.0684 4.44571C16.0196 4.39983 15.9708 4.35403 15.922 4.31198C15.8186 4.21457 15.7115 4.11716 15.6043 4.02364ZM15.435 3.60476C15.4387 3.53203 15.3516 3.44881 15.2454 3.45378L15.435 3.60476ZM15.0781 3.41977C15.0755 3.43136 15.0733 3.44289 15.0712 3.45418C15.0699 3.4609 15.0686 3.46753 15.0673 3.47403C15.0555 3.46021 15.0469 3.43975 15.0495 3.41665L15.0781 3.41977Z" fill="white" stroke="white" stroke-width="0.2"/>
<path d="M7.31033 13.2014L7.38306 13.2701L7.38507 13.2679L7.31033 13.2014ZM7.31033 13.2014L7.38509 13.2679L7.38512 13.2678L7.38525 13.2677L7.38576 13.2671L7.38777 13.2648L7.39565 13.256L7.42584 13.222L7.53603 13.0976C7.62864 12.9931 7.75555 12.8495 7.89277 12.6937C8.16676 12.3825 8.48293 12.0209 8.6485 11.8229C8.85536 11.578 9.05618 11.3486 9.25278 11.124C9.67707 10.6392 10.0818 10.1768 10.4856 9.62962C10.5058 9.60225 10.5102 9.57246 10.5111 9.55396C10.5122 9.53382 10.5098 9.5139 10.5063 9.49619C10.4993 9.46055 10.4853 9.42075 10.4674 9.38056C10.4311 9.29958 10.3727 9.20422 10.2972 9.11706C10.1508 8.94795 9.9089 8.77763 9.62395 8.87576L9.60168 8.88343L9.58517 8.90024C9.03333 9.46207 8.51571 10.0622 8.00116 10.6587C7.85296 10.8306 7.70502 11.0021 7.55659 11.1723L7.5565 11.1724C7.39394 11.3593 7.23138 11.5453 7.06871 11.7313C6.90614 11.9173 6.74346 12.1034 6.58078 12.2904C6.49204 12.3912 6.39739 12.4928 6.30101 12.5963C6.04546 12.8707 5.77783 13.158 5.57652 13.4756L5.57651 13.4756C5.50671 13.5857 5.53937 13.7115 5.59159 13.8075C5.64566 13.907 5.73456 14.0032 5.83185 14.0813C5.92928 14.1595 6.04263 14.2254 6.15097 14.2587C6.25388 14.2902 6.38334 14.3007 6.47759 14.2174L6.47779 14.2176L6.48313 14.2121C6.67917 14.01 6.90418 13.7744 7.08007 13.5896C7.16804 13.4971 7.24377 13.4172 7.29751 13.3605L7.36041 13.294L7.37721 13.2763L7.38155 13.2717L7.38266 13.2705L7.38294 13.2702L7.38301 13.2701L7.38303 13.2701L7.31033 13.2014Z" fill="white" stroke="white" stroke-width="0.2"/>
<path d="M5.25887 15.3305L5.25917 15.3307L5.26249 15.3232C5.31792 15.1975 5.27621 15.0728 5.20858 14.9762C5.14079 14.8795 5.03706 14.7945 4.92849 14.7303C4.81962 14.666 4.69739 14.6175 4.58677 14.5998C4.48705 14.5838 4.35921 14.5877 4.2813 14.6779C4.1217 14.8253 3.98194 14.9913 3.84687 15.1517L3.84488 15.1541C3.81102 15.1943 3.77453 15.2355 3.73701 15.2779C3.63069 15.398 3.51617 15.5274 3.43018 15.6693L3.43018 15.6693L3.42987 15.6698C3.416 15.693 3.41142 15.7175 3.40951 15.7339C3.40739 15.7522 3.40744 15.7713 3.40866 15.7899C3.41112 15.8273 3.4189 15.8706 3.43108 15.9163C3.45547 16.0077 3.5 16.1174 3.5671 16.2199C3.63412 16.3223 3.72663 16.4218 3.84873 16.4855C3.97287 16.5503 4.12203 16.5749 4.29336 16.5345L4.3215 16.5279L4.34176 16.5073C4.46887 16.3779 4.62978 16.1548 4.74844 15.9903C4.7718 15.9579 4.79352 15.9278 4.81303 15.9011L4.81324 15.9012L4.81709 15.8951L4.83839 15.861C4.88301 15.8004 4.93704 15.7396 4.9956 15.6738C5.01241 15.6548 5.02959 15.6355 5.04703 15.6157C5.12332 15.5288 5.20328 15.4328 5.25887 15.3305Z" fill="white" stroke="white" stroke-width="0.2"/>
<path d="M8.02978 1.39139L8.01579 1.37241L7.9948 1.36168C7.86589 1.29573 7.69493 1.2843 7.54206 1.3253C7.38755 1.36673 7.23608 1.46633 7.16529 1.639L7.1539 1.66676L7.15969 1.69621C7.19283 1.86491 7.27631 2.0577 7.34082 2.20066C7.37326 2.2741 7.39832 2.34634 7.42483 2.4229L7.42537 2.42447C7.45142 2.4997 7.47893 2.57918 7.51506 2.66091L7.51506 2.66091L7.51525 2.66133C7.58012 2.80627 7.6378 2.96026 7.69693 3.11813C7.69919 3.12417 7.70146 3.13023 7.70373 3.13628C7.7648 3.29928 7.8277 3.466 7.90025 3.62371L7.90043 3.6241C7.92083 3.66794 7.96047 3.68304 7.97805 3.68816C7.99847 3.6941 8.01918 3.69543 8.03563 3.69554C8.0695 3.69576 8.11001 3.69064 8.15119 3.68333C8.23499 3.66847 8.34014 3.64113 8.44125 3.61011C8.54243 3.57907 8.6434 3.54316 8.71874 3.51017C8.75563 3.49402 8.79063 3.47674 8.81697 3.45929C8.82933 3.45111 8.84614 3.43879 8.85985 3.42216C8.87047 3.40926 8.90353 3.36314 8.87869 3.30533L8.78682 3.34481L8.87927 3.30669C8.81295 3.14585 8.75486 3.02766 8.69798 2.91194L8.69771 2.91139C8.64089 2.79579 8.58527 2.68259 8.52157 2.52808L8.52157 2.52808L8.52122 2.52725L8.45896 2.38L8.28627 1.95019C8.28625 1.95015 8.28624 1.95011 8.28622 1.95007C8.27747 1.92808 8.26741 1.90206 8.25637 1.87352C8.23305 1.81318 8.20536 1.74155 8.17638 1.6728C8.134 1.57226 8.08344 1.46425 8.02978 1.39139Z" fill="white" stroke="white" stroke-width="0.2"/>
<path d="M11.7752 0.411236H11.7011C11.6963 0.405848 11.6913 0.401083 11.6864 0.396904C11.6563 0.371438 11.6185 0.358841 11.589 0.351627C11.5266 0.336402 11.4463 0.332761 11.3703 0.335318C11.293 0.33792 11.2118 0.347263 11.1452 0.362144C11.1122 0.369517 11.0795 0.37897 11.0516 0.391231C11.0376 0.397372 11.0223 0.405264 11.0082 0.415573C10.9947 0.425375 10.9766 0.441351 10.9642 0.465496L11.0531 0.511246L10.9644 0.465084C10.6451 1.07879 10.6021 1.83502 10.7395 2.49446L10.7396 2.49466C10.7488 2.53876 10.7806 2.56115 10.7953 2.56965C10.8117 2.57916 10.8286 2.58416 10.8406 2.58706C10.8655 2.59308 10.8947 2.59579 10.9226 2.59706C10.98 2.59967 11.0521 2.59692 11.1214 2.59126C11.1908 2.58558 11.2614 2.57665 11.3158 2.56584C11.3423 2.56058 11.3692 2.55408 11.3912 2.54582C11.4014 2.54197 11.4168 2.53548 11.4313 2.52482C11.4406 2.51802 11.4824 2.48571 11.4772 2.42717L11.4772 2.42716L11.4767 2.4233C11.4358 2.10532 11.4395 1.78354 11.4879 1.46548C11.5362 1.15506 11.6331 0.850727 11.733 0.541995L11.7752 0.411236Z" fill="white" stroke="white" stroke-width="0.2"/>
<path d="M20.4644 5.25304C20.0707 5.39316 19.6769 5.53423 19.2833 5.67527L19.2833 5.67528C18.8891 5.81653 18.495 5.95774 18.1009 6.09796L18.1344 6.19218C18.0349 6.22724 18.1545 6.92604 18.2884 6.88318L20.4644 5.25304Z" fill="white" stroke="white" stroke-width="0.2"/>
<path d="M20.5165 10.0247L20.5165 10.0247L18.4999 10.0013L18.4996 10.0013L18.5007 9.90132C18.4051 9.90132 18.5027 9.18489 18.5754 9.18489L20.5165 10.0247ZM20.5165 10.0247H20.5177C20.5868 10.0247 20.6283 9.97248 20.6455 9.94744C20.6674 9.91561 20.6851 9.87562 20.6996 9.8351C20.729 9.75277 20.7523 9.64702 20.7659 9.54382C20.7794 9.4413 20.7845 9.33341 20.7735 9.24784C20.7681 9.20613 20.7577 9.16057 20.7362 9.12273C20.7131 9.0823 20.6682 9.03803 20.5982 9.03969L20.6006 9.13966L20.5994 9.03967C20.2599 9.04358 19.9223 9.05295 19.5856 9.06231L19.5852 9.06232C19.2483 9.07168 18.9122 9.08101 18.5746 9.0849L20.5165 10.0247Z" fill="white" stroke="white" stroke-width="0.2"/>
</svg>
