<svg width="90" height="119" viewBox="0 0 90 119" fill="none" xmlns="http://www.w3.org/2000/svg">
<path d="M89.3838 38.5642C89.3838 38.4694 89.3732 38.3852 89.3522 38.3168C89.3522 38.3168 89.3522 38.3168 89.3522 38.301C89.3205 38.0905 89.2731 37.8273 89.1993 37.501C88.8251 35.7379 86.6063 27.7273 84.0924 19.7905C82.8328 15.8221 81.473 11.8852 80.2819 8.75365C79.6811 7.1905 79.1541 5.81681 78.6376 4.74839C78.1369 3.67997 77.6678 2.9326 77.3991 2.56418C77.2251 2.32734 77.0723 2.14839 76.9458 2.00628C77.0934 2.10628 77.1777 2.1326 77.241 2.10102C77.2989 2.06944 77.3358 1.99049 77.2199 1.71681C77.1092 1.46418 76.7297 0.974705 75.8443 0.769442C75.2804 0.627337 74.1789 0.6326 72.8402 1.06944C71.549 1.49049 69.9468 2.04313 68.118 2.69576C64.4604 4.00102 59.949 5.74313 55.5167 7.64313C51.0738 9.53786 46.6994 11.58 43.2263 13.3221C42.3567 13.7589 41.545 14.1747 40.7966 14.5537C40.0377 14.9537 39.3789 15.3537 38.8097 15.7273C37.6608 16.4852 36.8808 17.1115 36.4855 17.4484C35.89 17.9852 35.5896 18.301 35.4578 18.5063C35.4051 18.5221 35.3524 18.5958 35.3366 18.8431C35.2575 18.88 35.1574 19.0642 34.8517 19.7642C34.7252 20.0431 34.4828 20.5747 34.0612 21.2642C33.6501 21.9537 33.0598 22.801 32.3641 23.7484C30.978 25.6431 29.0912 27.8958 26.9357 29.8642C26.3981 30.3589 25.8447 30.8379 25.2913 31.2852C24.7327 31.7431 24.1582 32.2115 23.6364 32.6905C22.5771 33.6326 21.6232 34.5589 20.7747 35.3852C19.0829 37.0589 17.8391 38.3379 17.4175 38.8116C17.1223 39.1537 16.9589 39.3642 16.8799 39.5168C16.8325 39.5168 16.7903 39.5589 16.7429 39.7273C16.7007 39.9063 16.6533 40.2694 16.8483 40.8326C16.9168 41.0484 17.0591 41.3642 17.3068 41.7431C17.428 41.9379 17.5703 42.1431 17.739 42.3642C17.8233 42.4694 17.9181 42.5852 18.0077 42.701C18.1026 42.8063 18.2449 43.0115 18.54 43.0958C18.7298 43.1431 18.9248 43.1063 19.046 43.0747C19.1672 43.0379 19.2779 43.0063 19.3991 42.9589C19.6363 42.8747 19.8734 42.7694 20.1053 42.6431C20.5744 42.3958 21.0382 42.0747 21.4914 41.7116C22.3927 40.98 23.3044 40.0958 24.2004 39.1168C26.0028 37.1537 27.7631 34.8273 29.3495 32.5537C30.1453 31.4168 30.899 30.2905 31.5788 29.2273C32.264 28.1642 32.9017 27.1589 33.4024 26.2273C33.4656 26.1168 33.5078 26.0115 33.571 25.901C32.8911 28.5273 31.9161 31.7484 30.7619 34.9168C29.6235 38.0852 28.327 41.2063 27.1623 43.6431C27.0147 43.9484 26.8724 44.2537 26.7354 44.5484C26.6669 44.7116 26.5984 44.8958 26.572 45.1063C26.5404 45.3168 26.572 45.5589 26.6563 45.7484C26.825 46.1273 27.0147 46.3168 27.1781 46.5431C27.3573 46.7642 27.5259 46.9589 27.6999 47.1326C28.0424 47.4852 28.3587 47.7589 28.6538 47.98C28.9489 48.2063 29.2493 48.3326 29.4707 48.3747C30.1558 48.4905 30.5195 48.1537 30.6302 47.9747C30.7461 47.7747 30.6987 47.6905 30.6513 47.6694C30.7619 47.5379 30.8937 47.3589 31.0676 47.1168C31.4629 46.5589 32.4115 44.8589 33.2917 42.4694C34.1771 40.08 35.0256 37.0168 35.4367 33.8694C35.7951 30.701 35.7687 27.5589 35.7951 25.0379C35.7951 24.4484 35.7951 23.901 35.8004 23.3905C36.3748 27.5063 37.5396 34.6694 39.0047 41.7747C40.9442 51.4221 43.4318 60.9431 44.1169 62.9379C44.2592 63.3694 44.3805 63.68 44.4806 63.9273C44.4384 63.9905 44.3805 64.1168 44.3014 64.3221C44.2171 64.5379 44.1169 64.8589 43.943 65.2852C43.7849 65.7273 43.5477 66.28 43.2263 66.9852C43.1156 67.2115 42.9733 67.4958 42.8099 67.8168C42.6518 68.1379 42.4304 68.501 42.2091 68.9116C41.7137 69.7168 41.0865 70.6694 40.2432 71.68C39.9112 72.0747 39.5318 72.4852 39.1312 72.8905C39.1101 72.78 39.068 72.6326 39.0153 72.4484C38.9467 72.2168 38.7781 71.78 38.5567 71.1958C38.4408 70.9063 38.309 70.5747 38.1667 70.2168C38.0244 69.8589 37.8716 69.4484 37.645 69.0221C37.4131 68.601 37.0811 68.1379 36.5856 67.8115C36.0955 67.4905 35.4894 67.3326 34.8939 67.3221C34.293 67.3168 33.6817 67.4484 33.1178 67.7063C32.8437 67.8379 32.5538 68.001 32.3009 68.2484C32.0584 68.4852 31.8687 68.78 31.7422 69.0905C31.4892 69.7168 31.484 70.401 31.6421 71.0168C31.8055 71.6273 32.1217 72.18 32.5222 72.6168C33.3549 73.5168 34.4564 73.901 35.3998 74.0484C36.359 74.1958 37.1917 74.1116 37.8242 74.0168C37.8821 74.0063 37.9296 74.001 37.977 73.9905C37.6819 74.2484 37.3709 74.501 37.0547 74.7484C35.7635 75.7431 34.2298 76.6589 32.4906 77.3905C30.7461 78.1221 28.7908 78.6694 26.7459 79.3168C25.7288 79.6484 24.6905 80.001 23.6523 80.4431C22.614 80.8905 21.581 81.4431 20.6534 82.201C19.9894 82.7484 19.3833 83.4221 18.9564 84.2221C18.9248 84.1537 18.8932 84.0747 18.851 83.98C18.7561 83.7747 18.54 83.4063 18.2133 82.9326C18.0446 82.6958 17.8602 82.4326 17.6494 82.1431C17.4438 81.8537 17.2014 81.5326 16.8641 81.2221C16.532 80.9116 16.0683 80.6221 15.5465 80.5273C15.0247 80.4168 14.4977 80.4589 13.9865 80.5537C13.4858 80.6537 12.9535 80.7905 12.4423 81.1221C11.9416 81.4589 11.5621 81.9537 11.3619 82.5273C11.1616 83.0905 11.1616 83.7484 11.3619 84.3063C11.5569 84.8694 11.9363 85.3589 12.4159 85.6958C12.8903 86.0221 13.4384 86.1747 13.9443 86.2168C14.4503 86.2589 14.9193 86.2116 15.3462 86.1326C16.2053 85.9642 16.8746 85.7063 17.4069 85.5589C17.9392 85.3905 18.324 85.3116 18.5242 85.2694C18.5242 85.2694 18.5348 85.2694 18.5453 85.2642C18.1869 86.4642 18.324 87.7695 18.7509 88.9168C19.1725 90.0958 19.8945 91.1537 20.7325 92.0484C21.5705 92.9537 22.5139 93.7273 23.4414 94.4905C24.369 95.2537 25.2808 95.9905 26.0766 96.8273C26.8777 97.6642 27.5628 98.5852 27.9897 99.6116C28.0108 99.6642 28.0266 99.7221 28.0424 99.7747C28.0266 99.7694 28.0214 99.7589 28.0108 99.7537C27.6735 99.5537 26.6669 99.0695 25.2281 98.8063C24.875 98.7431 24.4902 98.6852 24.0897 98.6484C23.6944 98.6273 23.2623 98.5695 22.7405 98.701C22.2135 98.8168 21.7391 99.2484 21.5283 99.7431C21.307 100.238 21.2595 100.796 21.4124 101.333C21.5705 101.88 21.9341 102.301 22.3558 102.596C22.7827 102.891 23.2623 103.054 23.7366 103.117C24.7063 103.238 25.5759 102.938 26.2347 102.606C26.9041 102.259 27.41 101.859 27.8 101.559C28.0424 101.369 28.2269 101.206 28.3797 101.085C28.6064 102.748 28.1795 104.491 27.3415 105.917C26.2505 107.806 24.5588 109.233 22.7985 110.338C22.1713 110.727 21.5283 111.069 20.8801 111.375C20.9749 110.985 21.1489 109.964 21.1963 108.612C21.2068 108.264 21.2174 107.891 21.2068 107.506C21.2068 107.312 21.1963 107.106 21.1594 106.864C21.1225 106.627 21.0276 106.354 20.8643 106.133C20.1528 105.238 18.9511 105.191 18.0446 105.501C17.5756 105.664 17.1434 105.933 16.7956 106.28C16.453 106.622 16.1631 107.101 16.0999 107.622C16.0314 108.138 16.1526 108.617 16.3212 109.006C16.4846 109.406 16.706 109.743 16.9326 110.038C17.8549 111.227 18.9195 111.696 19.2779 111.801C19.4518 111.854 19.573 111.875 19.6732 111.885C18.8879 112.185 18.1079 112.422 17.3279 112.601C15.4991 113.017 13.7177 113.064 12.1261 112.869C10.5239 112.659 9.12197 112.175 7.96777 111.58C7.45655 111.322 7.0033 111.043 6.58694 110.764C6.58694 110.738 6.60275 110.722 6.60275 110.696C6.79776 110.659 7.11398 110.585 7.52506 110.491C7.7675 110.433 8.03101 110.369 8.34723 110.28C8.65291 110.185 9.01656 110.043 9.35386 109.806C10.0127 109.327 10.5397 108.501 10.6293 107.533C10.6767 107.048 10.5977 106.527 10.3816 106.069C10.1602 105.601 9.82819 105.201 9.42238 104.896C9.01656 104.58 8.54223 104.369 8.03628 104.285C7.5356 104.196 7.00857 104.217 6.50262 104.475C6.24437 104.606 6.01248 104.827 5.88599 105.085C5.74896 105.327 5.69626 105.569 5.6541 105.785C5.58031 106.206 5.54869 106.559 5.50653 106.922C5.35369 108.343 5.32733 109.422 5.35896 109.806C5.35896 109.817 5.35896 109.822 5.35896 109.833C4.59476 109.164 4.06773 108.548 3.7357 108.143C2.81866 106.991 2.46028 106.185 2.21257 105.743C1.99122 105.28 1.89108 105.169 1.83311 105.185C1.78568 105.206 1.78041 105.327 1.9227 105.833C2.08608 106.322 2.37068 107.222 3.31407 108.533C3.57759 108.891 3.98867 109.401 4.5526 109.954C4.34178 109.991 4.06773 110.064 3.77259 110.196C3.34569 110.396 2.81339 110.643 2.20203 110.948C1.90162 111.122 1.5854 111.327 1.28499 111.596C0.989856 111.869 0.684177 112.217 0.520797 112.685C0.346876 113.154 0.420661 113.733 0.599852 114.143C0.768502 114.554 0.963504 114.954 1.30608 115.327C1.47473 115.512 1.69081 115.68 1.94906 115.791C2.21257 115.901 2.49717 115.948 2.7765 115.912C3.33515 115.848 3.75151 115.533 4.06246 115.243C4.38395 114.933 4.62638 114.596 4.83192 114.28C5.0322 113.964 5.22193 113.664 5.38004 113.369C5.83856 112.58 6.16532 111.901 6.36032 111.433C6.7714 111.712 7.20357 111.985 7.70425 112.243C8.91643 112.885 10.4027 113.401 12.0892 113.638C13.7809 113.859 15.6572 113.812 17.5756 113.38C18.2291 113.233 18.8879 113.043 19.5519 112.817C19.3411 113.285 19.0565 114.112 18.9564 115.196C18.93 115.543 18.9248 115.912 18.9406 116.301C18.9564 116.691 19.0091 117.117 19.1883 117.554C19.3464 117.975 19.7311 118.464 20.2898 118.627C20.8379 118.791 21.3702 118.654 21.8076 118.443C22.6931 118.012 23.3097 117.169 23.4836 116.254C23.6575 115.338 23.3782 114.485 23.0356 113.854C22.6878 113.206 22.2451 112.754 21.8972 112.422C21.7339 112.275 21.581 112.138 21.4493 112.043C22.0764 111.743 22.6983 111.406 23.3097 111.033C25.1385 109.891 26.9409 108.375 28.1373 106.306C28.7329 105.28 29.1334 104.112 29.2757 102.896C29.3548 102.28 29.3442 101.638 29.2599 101.012C29.808 101.275 30.8673 101.764 32.3378 102.148C32.7699 102.259 33.239 102.354 33.7291 102.412C34.214 102.464 34.7621 102.512 35.3524 102.391C35.9321 102.29 36.5646 101.891 36.8808 101.301C37.197 100.722 37.255 100.08 37.1917 99.4747C37.1074 98.8642 36.9124 98.2958 36.5329 97.7747C36.1271 97.2326 35.4736 96.9484 34.9044 96.8695C34.3247 96.78 33.7871 96.8326 33.2864 96.9116C32.7805 96.9905 32.3061 97.1168 31.8792 97.2747C30.1453 97.9273 29.1861 99.0063 28.9068 99.38C28.8857 99.4063 28.8752 99.4221 28.8541 99.4484C28.8277 99.3747 28.8119 99.301 28.7803 99.2326C28.2849 98.0747 27.5259 97.0695 26.6722 96.1905C25.8184 95.301 24.8697 94.5379 23.9474 93.7905C23.0198 93.0273 22.1133 92.28 21.3386 91.4326C20.5638 90.5905 19.9261 89.6273 19.5625 88.5852C19.2199 87.6484 19.1198 86.6431 19.3411 85.7221C19.4465 85.8905 19.5836 86.0958 19.7575 86.3326C20.0842 86.7694 20.5428 87.3221 21.2174 87.7958C21.8814 88.2642 22.7985 88.6747 23.8578 88.5852C24.369 88.5431 24.8908 88.38 25.3546 88.0695C25.8131 87.7695 26.2031 87.2905 26.3823 86.7431C26.572 86.2063 26.5773 85.6063 26.4034 85.0695C26.2242 84.5221 25.8658 84.0642 25.4231 83.7537C24.9751 83.4326 24.4375 83.2905 23.9738 83.2589C23.4994 83.2221 23.0831 83.2589 22.6878 83.3063C21.639 83.4273 20.801 83.68 20.2476 83.9063C20.5428 83.5273 20.8906 83.18 21.2701 82.8694C22.9513 81.5063 25.0752 80.8116 27.0727 80.1431C29.0912 79.501 31.0676 78.9221 32.8701 78.1537C34.6725 77.38 36.2589 76.4116 37.5817 75.3537C38.1298 74.9221 38.6094 74.48 39.0785 74.0326C39.2103 74.4589 39.6899 75.6958 40.8388 76.9958C41.1339 77.3168 41.4818 77.6589 41.935 77.9221C42.3777 78.1905 42.9522 78.3537 43.5161 78.3326C44.6492 78.301 45.7507 77.6905 46.4412 76.7431C46.7785 76.2852 47.0525 75.6958 47.0103 75.0221C46.9471 74.3431 46.5624 73.8063 46.1091 73.4431C45.6506 73.08 45.1341 72.8958 44.6598 72.7642C44.1855 72.6484 43.7375 72.58 43.3053 72.5221C42.0299 72.3905 40.9916 72.5273 40.3645 72.6694C40.5226 72.4852 40.686 72.3063 40.823 72.1221C42.5306 69.9905 43.3686 68.1537 43.7691 67.2063C44.0379 66.4905 44.2329 65.9273 44.3541 65.48C44.4121 65.2852 44.4542 65.1168 44.4911 64.9694C44.5386 64.98 44.6124 64.9326 44.7441 64.7589C44.9813 64.701 45.4451 64.5168 46.3779 64.0589C48.5019 63.0273 58.1149 57.7431 67.6858 52.3958C72.4766 49.7221 77.2568 47.0379 81.083 44.8537C82.838 43.8484 84.377 42.9642 85.6471 42.2326C85.6102 42.2905 85.5733 42.3431 85.5206 42.401C85.2782 42.7221 84.8091 43.3431 84.1187 44.1484C83.4283 44.9589 82.506 45.9379 81.473 47.08C80.4348 48.2326 79.3491 49.6115 78.2739 51.0852C77.1988 52.5589 76.0709 54.1168 75.0327 55.7484C73.9944 57.38 73.0668 59.0958 72.3923 60.8379C71.7229 62.5694 71.3118 64.3063 71.1853 65.8852C71.159 66.28 71.1379 66.6642 71.1432 67.0326C71.1432 67.2168 71.1432 67.3958 71.1537 67.58C71.1537 67.7273 71.1643 67.8747 71.1748 68.0168L71.1853 68.2537L71.412 68.3221C71.5543 68.3642 71.6966 68.401 71.8283 68.4379C71.9126 68.4589 71.997 68.4747 72.076 68.4958C72.2341 68.5221 72.3922 68.5642 72.5451 68.5958C72.8508 68.6537 73.1406 68.6905 73.4147 68.7273C73.9628 68.7852 74.4424 68.801 74.8377 68.7905C75.2382 68.7905 75.5913 68.7221 75.818 68.6116C75.9919 68.5326 76.1394 68.4326 76.2396 68.3063C76.345 68.1852 76.4082 68.0642 76.4504 67.9431C76.5189 67.7484 76.5189 67.58 76.4873 67.4537C76.5242 67.28 76.5611 67.0273 76.6085 66.6589C76.6876 66.001 76.8299 64.1221 77.4096 61.7273C77.6995 60.5273 78.1 59.1958 78.6323 57.8379C79.1699 56.48 79.8339 55.101 80.5718 53.7484C82.0527 51.0379 83.7761 48.4537 85.0832 46.3063C86.0582 44.7168 86.7908 43.3694 87.2124 42.5273C86.3375 44.7905 84.6089 49.5273 83.2544 54.4063C82.4217 57.401 81.7629 60.4537 81.3992 62.9221C81.2042 64.1589 81.0725 65.2589 81.0619 66.1589C81.0409 67.0431 81.1357 67.7063 81.2148 68.0431C81.3413 68.5116 81.4519 68.7905 81.5468 68.9484C81.5468 68.9852 81.5468 69.0221 81.5521 69.0695C81.5732 69.1642 81.6048 69.2484 81.7523 69.301C81.8525 69.3273 82.0949 69.3221 82.4375 69.2642C82.7695 69.1958 83.207 69.0589 83.6022 68.7958C84.0028 68.5168 84.3084 68.101 84.4244 67.7168C84.5509 67.3431 84.4982 67.0273 84.4297 66.9116C84.4455 66.7589 84.4613 66.5642 84.4771 66.3115C84.4771 66.1484 84.4876 65.9221 84.4876 65.6273C84.5087 65.3379 84.5245 64.98 84.5562 64.5694C84.572 64.3694 84.5772 64.1484 84.5878 63.9168C84.6141 63.6905 84.6352 63.4431 84.6668 63.1905C84.7195 62.68 84.767 62.1273 84.8566 61.5431C85.1781 59.1905 85.8158 56.3063 86.5483 53.4221C87.2862 50.5484 88.0293 47.6537 88.472 45.2852C88.92 42.9168 89.115 41.101 89.0939 40.4537C89.0939 40.0589 89.0834 39.8115 89.0518 39.6484C89.1624 39.4642 89.2415 39.2852 89.2942 39.1221C89.3732 39.101 89.4207 38.9905 89.3785 38.58L89.3838 38.5642ZM18.714 84.7326C18.6402 84.7273 18.5453 84.7168 18.4452 84.7116C18.2133 84.7116 17.7706 84.7484 17.2014 84.88C16.6322 85.0063 15.947 85.2326 15.1828 85.3431C14.4292 85.4642 13.5385 85.4484 12.885 84.9852C12.242 84.5326 11.8942 83.5958 12.2051 82.8273C12.3421 82.4379 12.6109 82.0958 12.943 81.8695C13.2803 81.6431 13.7282 81.5168 14.1657 81.4221C14.6031 81.3326 15.03 81.3063 15.3884 81.3747C15.7573 81.4431 16.0525 81.6168 16.3212 81.8537C16.8535 82.3326 17.2804 82.9642 17.6388 83.3852C17.9814 83.8221 18.2291 84.1379 18.3661 84.3116C18.5295 84.5116 18.6349 84.6326 18.7245 84.701C18.7245 84.7116 18.714 84.7168 18.7087 84.7273L18.714 84.7326ZM4.66327 112.959C4.30489 113.501 3.9307 114.159 3.43529 114.612C2.9188 115.096 2.3496 115.201 1.93324 114.706C1.72243 114.475 1.53797 114.127 1.39567 113.796C1.26391 113.464 1.24283 113.212 1.33243 112.943C1.51689 112.396 2.09662 111.943 2.60785 111.622C3.1665 111.317 3.65664 111.043 4.04138 110.827C4.43138 110.617 4.70017 110.533 4.83719 110.496C4.92679 110.469 4.99003 110.454 5.04801 110.438C5.2799 110.638 5.52234 110.838 5.79112 111.043C5.54869 111.464 5.16923 112.143 4.658 112.948L4.66327 112.959ZM6.32343 110.164C6.17586 110.233 6.06518 110.285 5.98086 110.338C5.92288 110.301 5.86491 110.259 5.81221 110.217C5.84383 110.122 5.88072 110.001 5.90707 109.817C5.97558 109.448 6.08626 108.391 6.28653 107.006C6.33924 106.664 6.39721 106.275 6.46045 105.922C6.49735 105.754 6.54478 105.606 6.61329 105.491C6.68181 105.375 6.76086 105.306 6.88735 105.238C7.14033 105.112 7.52506 105.08 7.86763 105.154C8.22074 105.217 8.56859 105.375 8.86372 105.606C9.45927 106.059 9.80184 106.78 9.72806 107.475C9.67535 108.175 9.29589 108.806 8.82683 109.159C8.38412 109.512 7.76223 109.633 7.29317 109.801C6.82411 109.954 6.48154 110.08 6.31289 110.159L6.32343 110.164ZM19.9578 111.764C19.9947 111.664 19.9578 111.58 19.4992 111.285C19.2094 111.096 18.3081 110.601 17.5598 109.548C17.1908 109.033 16.8588 108.354 16.9484 107.733C17.0327 107.143 17.6546 106.564 18.3292 106.338C18.6771 106.222 19.046 106.18 19.3728 106.238C19.7101 106.29 19.9999 106.454 20.1528 106.654C20.3056 106.843 20.332 107.154 20.3425 107.538C20.3583 107.917 20.3688 108.269 20.3688 108.612C20.3688 109.964 20.274 110.991 20.2898 111.348C20.2898 111.459 20.3003 111.548 20.3003 111.627C20.1844 111.675 20.0737 111.727 19.9578 111.764ZM21.3755 112.927C21.6706 113.254 22.0343 113.68 22.3031 114.227C22.5718 114.764 22.7405 115.448 22.6035 116.09C22.4717 116.727 21.9974 117.354 21.386 117.643C21.0856 117.791 20.7483 117.843 20.5164 117.764C20.274 117.691 20.0895 117.496 19.9736 117.201C19.7311 116.612 19.7417 115.854 19.7575 115.227C19.8207 113.959 20.1475 113.043 20.2213 112.706C20.2371 112.648 20.2476 112.59 20.2582 112.538C20.4426 112.469 20.6271 112.391 20.8063 112.306C20.938 112.448 21.133 112.648 21.3755 112.917V112.927ZM29.3179 99.7431C29.6552 99.4694 30.5827 98.5537 32.1533 98.0273C32.538 97.8905 32.9649 97.7905 33.4076 97.7326C33.8609 97.6694 34.3247 97.6431 34.7674 97.7168C35.1995 97.7958 35.579 97.9747 35.8162 98.3063C36.0639 98.6484 36.2378 99.1273 36.2852 99.58C36.3379 100.038 36.2852 100.517 36.0797 100.869C35.8794 101.222 35.5527 101.443 35.1363 101.527C34.7199 101.622 34.2509 101.596 33.7924 101.554C33.3391 101.506 32.907 101.433 32.4959 101.343C30.8673 100.969 29.6604 100.448 29.2072 100.343C29.1756 100.327 29.1492 100.322 29.1176 100.317C29.086 100.206 29.0649 100.101 29.0333 99.9905C29.107 99.9273 29.2019 99.8484 29.3179 99.7431ZM28.2374 100.427C28.0741 100.517 27.7684 100.717 27.3626 100.996C26.962 101.264 26.4613 101.606 25.8658 101.885C25.2703 102.154 24.5429 102.364 23.842 102.254C23.141 102.159 22.4348 101.696 22.2609 101.069C22.1713 100.759 22.2029 100.396 22.3347 100.101C22.477 99.8063 22.6931 99.6221 22.9777 99.5431C23.2728 99.4589 23.6575 99.48 24.037 99.5063C24.4112 99.5273 24.7696 99.5642 25.1069 99.6168C26.4613 99.8063 27.4205 100.185 27.7737 100.28C27.995 100.343 28.1373 100.369 28.2374 100.375C28.2374 100.396 28.2427 100.406 28.248 100.427H28.2374ZM22.7668 84.0905C23.5047 84.0326 24.3427 83.9958 24.9119 84.4484C25.2017 84.6694 25.4389 84.9852 25.5443 85.3379C25.6603 85.6905 25.6497 86.0905 25.518 86.4484C25.2808 87.1694 24.5061 87.6379 23.7419 87.701C22.9777 87.7747 22.224 87.48 21.6495 87.0958C21.0593 86.7063 20.6271 86.2379 20.2898 85.8589C19.9525 85.4695 19.7206 85.1642 19.5783 85.0116C19.5783 85.001 19.573 84.9958 19.5625 84.9905C19.5994 84.9063 19.6363 84.8168 19.6837 84.7379C19.7311 84.7273 19.7786 84.7116 19.8365 84.6905C20.2265 84.5958 21.2964 84.201 22.7668 84.0905ZM37.7188 73.3273C37.1127 73.38 36.3379 73.4221 35.5052 73.2642C34.6883 73.1168 33.7713 72.7484 33.1494 72.0431C32.5222 71.3537 32.2007 70.2852 32.5644 69.4326C32.733 69.001 33.0334 68.7326 33.4972 68.5273C33.9347 68.3221 34.4248 68.2116 34.8833 68.2221C35.3418 68.2221 35.7846 68.3379 36.1271 68.5642C36.4644 68.7695 36.7227 69.101 36.9335 69.4589C37.3288 70.18 37.6239 70.9589 37.8927 71.5116C38.1562 72.08 38.3565 72.4905 38.4777 72.701C38.6305 72.9589 38.7359 73.1115 38.8203 73.2115C38.562 73.2379 38.1878 73.2852 37.7188 73.3273ZM43.221 73.3168C43.9905 73.4431 44.9444 73.601 45.5715 74.1116C45.8772 74.3642 46.1039 74.7273 46.1197 75.0852C46.146 75.4379 45.9721 75.8589 45.7033 76.2168C45.1815 76.9326 44.3014 77.4168 43.474 77.4379C43.0576 77.4431 42.6781 77.3484 42.3356 77.1642C41.993 76.9695 41.6979 76.6958 41.4238 76.4116C40.3328 75.2537 39.8164 74.1431 39.6003 73.7747C39.5581 73.7116 39.5318 73.6589 39.5001 73.6063C39.7531 73.5063 39.8638 73.4221 39.8901 73.3537C39.9218 73.3484 39.9481 73.3537 39.985 73.3379C40.4172 73.3063 41.6346 73.0958 43.221 73.3116V73.3168ZM32.6961 25.8694C32.1902 26.7642 31.5525 27.7379 30.8515 28.7905C30.1558 29.8379 29.4022 30.9431 28.6064 32.0694C27.02 34.3168 25.2913 36.6168 23.5469 38.5537C22.6825 39.5168 21.8024 40.38 20.9591 41.0958C20.5375 41.4484 20.1264 41.7484 19.7153 41.9747C19.5098 42.0905 19.3148 42.1905 19.1145 42.2694C19.0196 42.3063 18.909 42.3484 18.8246 42.3747C18.735 42.401 18.7192 42.3958 18.7087 42.3958C18.7087 42.4484 18.4241 42.1115 18.2713 41.9326C18.1079 41.7326 17.955 41.5484 17.8338 41.38C17.5914 41.0537 17.4491 40.7958 17.3595 40.6221C17.1592 40.2221 17.1012 39.9589 17.0485 39.7905C17.1908 39.7221 17.4227 39.5589 17.8285 39.2326C18.3187 38.8379 19.631 37.6063 21.3544 35.98C22.2187 35.1642 23.1832 34.2642 24.232 33.3379C24.759 32.8747 25.2966 32.4326 25.8711 31.9747C26.4455 31.5115 27.0042 31.0221 27.5576 30.5168C29.7658 28.4958 31.6737 26.1852 33.0387 24.2221C33.6079 23.4063 34.0928 22.6642 34.4722 22.001C34.467 22.0326 34.4512 22.0642 34.4406 22.101C34.2403 22.6589 33.7344 24.0958 32.7014 25.8694H32.6961ZM34.5355 33.7958C34.1402 36.8642 33.3233 39.8905 32.5064 42.2379C31.7 44.5958 30.8463 46.2747 30.5511 46.8642C30.2718 47.4431 30.1664 47.7326 30.1558 47.8747C30.0188 47.9063 29.8344 47.9221 29.6025 47.8431C29.4654 47.7958 29.2652 47.6905 29.0333 47.4852C28.7961 47.28 28.5062 46.9958 28.2058 46.6537C28.053 46.4852 27.9001 46.301 27.7473 46.0905C27.605 45.8958 27.4153 45.6484 27.3573 45.4747C27.2993 45.3221 27.3362 45.1326 27.4574 44.8642C27.5997 44.5852 27.742 44.2958 27.8949 43.9905C29.1229 41.5431 30.451 38.401 31.6052 35.2063C32.7647 32.0063 33.7186 28.7326 34.3563 26.0747C34.6514 24.8852 34.8675 23.8168 35.0309 22.9379C35.0098 23.5852 34.9887 24.2852 34.9677 25.0589C34.8939 27.5747 34.8939 30.7221 34.5355 33.7852V33.7958ZM44.918 63.1694C44.8969 63.0379 44.8759 62.901 44.839 62.7326C44.4279 60.6642 42.0879 51.1326 40.1537 41.5168C38.1773 31.9063 36.6015 22.2273 36.1535 20.1642C35.9848 19.4431 35.8636 19.0326 35.7635 18.801C35.8004 18.7747 35.8478 18.7589 35.89 18.7326C35.969 18.8958 36.3169 19.2537 37.45 20.1326C38.4672 20.9168 41.5029 22.9694 45.8298 25.1063C50.0513 27.2221 55.5008 29.3537 61.0294 31.2273C60.65 31.88 60.2705 32.5326 59.891 33.1958C56.2229 39.58 52.8973 46.1484 50.3201 51.4642C47.7429 56.78 45.8878 60.8326 45.2817 62.2852C45.1394 62.6273 45.0234 62.9063 44.918 63.1642V63.1694ZM87.0121 41.5747C86.6537 42.1484 85.7314 43.7747 84.3822 45.88C83.0436 47.9852 81.2886 50.5694 79.7812 53.3221C79.0276 54.701 78.353 56.1273 77.8101 57.5326C77.2726 58.9326 76.8826 60.3063 76.6138 61.5484C76.0762 64.0326 76.013 65.9642 76.0288 66.6273C76.0551 67.1063 76.0867 67.3905 76.1289 67.5642C76.1131 67.6168 76.092 67.6747 76.0551 67.7379C75.9655 67.8694 75.8443 67.9958 75.5966 68.0695C75.3067 68.18 74.5109 68.1431 73.4832 67.9958C73.2197 67.9589 72.9509 67.9116 72.6663 67.8484C72.5293 67.8115 72.3712 67.78 72.2236 67.7379C72.1498 67.7221 72.0708 67.7063 71.997 67.68L71.9443 67.6589C71.9443 67.6589 71.9232 67.6379 71.9232 67.6221C71.9232 67.5958 71.9232 67.6326 71.9232 67.5168C71.9179 67.3484 71.9232 67.1747 71.9232 67.001C71.9232 66.6484 71.9601 66.2852 71.9917 65.9116C72.134 64.4168 72.5451 62.7642 73.2039 61.1115C73.8627 59.4484 74.7692 57.7905 75.7863 56.1905C76.8035 54.5905 77.9261 53.0379 78.9802 51.5642C80.0395 50.0852 81.083 48.7379 82.0896 47.5905C83.091 46.4326 83.9975 45.4168 84.6668 44.5747C85.3414 43.7273 85.7841 43.0589 85.9897 42.6905C86.2479 42.2379 86.3744 41.9431 86.4429 41.7431C86.6959 41.5958 86.9278 41.4589 87.1597 41.3273C87.107 41.4063 87.0596 41.4852 86.9963 41.5852L87.0121 41.5747ZM87.2124 40.2694C86.97 40.4115 86.6748 40.5694 86.3375 40.7484C86.2216 40.8063 86.1004 40.8747 85.9791 40.9379C85.8263 41.0221 85.6577 41.1115 85.4943 41.201C84.7722 41.5958 83.9501 42.0431 83.0436 42.5326C82.2583 42.9589 81.4098 43.4221 80.5086 43.9115C76.6559 46.0537 71.8547 48.701 67.0587 51.3642C64.3655 52.8694 61.6777 54.38 59.1585 55.7958C58.5998 56.1115 58.0464 56.4221 57.5036 56.7326C57.3824 56.8063 57.2559 56.8694 57.1346 56.9431C55.875 57.6537 54.6787 58.3326 53.5666 58.9694C51.9118 59.9116 50.4361 60.7537 49.2239 61.4642C48.9709 61.6063 48.7337 61.7431 48.5071 61.8747C48.1066 62.1063 47.7429 62.3221 47.4214 62.5168C47.3529 62.5537 47.2897 62.5905 47.2317 62.6273C47.1632 62.6694 47.0999 62.7063 47.0367 62.7431C46.9313 62.8063 46.8312 62.8642 46.7416 62.9273C46.7205 62.9326 46.7099 62.9431 46.6941 62.9537C46.6045 63.0063 46.5255 63.0589 46.4464 63.101C46.2567 63.2221 46.0986 63.3221 45.9721 63.401C45.698 63.58 45.482 63.7273 45.2922 63.8642C45.4767 63.5379 45.7033 63.1273 45.9879 62.5905C46.3199 61.9642 46.8997 60.801 47.6797 59.2221C47.7587 59.0537 47.8483 58.88 47.9327 58.7063C48.0275 58.5116 48.1224 58.3221 48.2278 58.1168C48.3069 57.9589 48.3859 57.7905 48.4702 57.6221C48.5862 57.3852 48.7021 57.1484 48.8286 56.8958C48.9024 56.7484 48.9762 56.5958 49.0552 56.4431C49.2977 55.9431 49.5612 55.4168 49.83 54.8694C49.8511 54.8273 49.8774 54.78 49.8985 54.7326C50.0461 54.4379 50.1989 54.1326 50.3517 53.8221C50.6574 53.201 50.9789 52.5642 51.3057 51.901C51.3689 51.78 51.4269 51.6589 51.4849 51.5379C52.0962 50.3273 52.7392 49.0484 53.4138 47.7273C53.5983 47.3694 53.7827 47.001 53.9777 46.6326C54.1675 46.2589 54.3572 45.8852 54.5575 45.5116C55.0107 44.6326 55.4745 43.7431 55.9541 42.8326C56.3283 42.1168 56.713 41.401 57.103 40.6747C57.4087 40.101 57.7197 39.5273 58.0359 38.9537C58.331 38.4115 58.6314 37.8694 58.9266 37.3273C59.5906 36.1326 60.2599 34.9326 60.9504 33.7431C61.3562 33.0273 61.7673 32.3221 62.1731 31.6168C67.5699 33.4379 72.9667 35.1115 77.3622 36.3694C81.9684 37.701 85.4837 38.5958 86.7381 38.8589C87.6709 39.0537 88.2296 39.1326 88.5563 39.1484C88.4562 39.28 88.3297 39.4273 88.1663 39.5694C87.9713 39.7484 87.6551 40.001 87.2071 40.2694H87.2124ZM87.9186 40.8221C87.8765 40.901 87.8343 41.001 87.7763 41.1115C87.8027 41.0168 87.8132 40.9484 87.8185 40.8958C87.8554 40.8694 87.8817 40.8484 87.9186 40.8221ZM88.5247 40.3958C88.4404 41.0221 88.1611 42.801 87.6762 45.1273C87.1808 47.4537 86.4113 50.3168 85.6787 53.2115C84.9462 56.101 84.3243 59.0326 84.0502 61.4431C83.9659 62.0379 83.9395 62.6063 83.8974 63.1221C83.8763 63.38 83.8657 63.6326 83.8499 63.8642C83.8394 64.1063 83.8447 64.3273 83.8447 64.5379C83.8447 64.9589 83.8447 65.3168 83.8447 65.6221C83.8657 65.9221 83.8868 66.1537 83.9079 66.3168C83.929 66.5168 83.9501 66.6694 83.9764 66.8063C83.929 66.8326 83.8868 66.8694 83.8552 66.9379C83.8183 67.0063 83.7867 67.1905 83.6707 67.401C83.5653 67.6221 83.3493 67.8694 83.091 68.0431C82.6852 68.3116 82.1476 68.4695 81.8419 68.5958C81.8314 68.4326 81.805 68.2168 81.784 67.9221C81.4572 66.6642 82.4586 60.5273 84.124 54.5958C85.7736 48.6537 87.8923 42.8379 88.2138 41.5379C88.393 40.8326 88.4035 40.5747 88.3561 40.4642C88.4246 40.401 88.4984 40.3431 88.5511 40.28C88.5511 40.3221 88.5405 40.3537 88.53 40.3905L88.5247 40.3958ZM88.7777 38.8116C88.5142 38.6747 87.9713 38.4589 86.912 38.1168C85.6945 37.7168 82.2109 36.7168 77.6362 35.3221C73.3356 34.0116 68.0758 32.3537 62.7792 30.5694C64.0019 28.4537 65.193 26.3537 66.2576 24.2694C67.8703 21.1589 69.2828 18.1431 70.4844 15.4379C72.8718 10.0115 74.3897 5.81155 74.8851 4.31155C75.3858 2.73786 75.6809 1.90628 75.7442 1.5326C75.6651 1.52207 75.5703 1.51681 75.4596 1.51155C75.2066 1.84839 74.7744 2.61155 74.1473 4.07471C73.9523 4.52734 73.6571 5.25365 73.2618 6.20628C72.8666 7.16944 72.3712 8.36944 71.7862 9.75365C71.1274 11.3115 70.3474 13.0905 69.4619 15.0379C68.2392 17.7115 66.8162 20.6958 65.193 23.7747C65.0138 24.1273 64.8293 24.4747 64.6396 24.8326C64.4393 25.201 64.239 25.5694 64.0335 25.9431C63.849 26.28 63.6593 26.6221 63.4696 26.9589C63.4538 26.9905 63.4327 27.0221 63.4169 27.0589C63.2113 27.4168 63.0111 27.7747 62.8055 28.1326C62.7212 28.2747 62.6421 28.4221 62.5578 28.5642C62.405 28.8326 62.2521 29.101 62.094 29.3694C61.9412 29.6379 61.7831 29.9115 61.6302 30.18C61.0663 29.9905 60.5077 29.7958 59.949 29.601C59.617 29.4852 59.2797 29.3694 58.9529 29.2537C58.6683 29.1589 58.389 29.0589 58.1044 28.9589C57.5457 28.7537 56.9871 28.5589 56.4337 28.3484C56.1596 28.2484 55.8856 28.1484 55.6168 28.0484C54.8789 27.7747 54.1516 27.4958 53.4349 27.2115C53.1134 27.0852 52.7866 26.9589 52.4651 26.8273C52.3755 26.7905 52.2912 26.7589 52.2069 26.7273C52.1437 26.701 52.0804 26.68 52.0224 26.6537C51.7589 26.5484 51.5007 26.4379 51.2424 26.3326C50.2885 25.9431 49.3715 25.5484 48.486 25.1537C47.706 24.8115 46.9629 24.4589 46.2514 24.1168C44.1064 23.0905 42.2776 22.0958 40.8388 21.2747C39.4105 20.4431 38.3828 19.7958 37.84 19.4694C36.8808 18.8905 36.4012 18.6431 36.1535 18.5694C36.359 18.4431 36.6225 18.2747 36.9598 18.0484C37.392 17.7694 38.1984 17.2063 39.3315 16.5221C39.8954 16.1852 40.5542 15.8063 41.2815 15.4484C42.0352 15.0905 42.8573 14.701 43.7217 14.2852C44.7125 13.8115 45.7824 13.3115 46.8944 12.7905C47.9485 12.301 49.0447 11.801 50.1725 11.2958C51.5323 10.68 52.9342 10.0537 54.3519 9.44313C54.626 9.32207 54.9 9.20628 55.1741 9.08523C55.4534 8.96418 55.7275 8.84839 56.0015 8.7326C57.7829 7.96944 59.5748 7.22734 61.3087 6.52207C62.4155 6.07471 63.4959 5.64313 64.55 5.22734C65.9466 4.67997 67.28 4.16944 68.5133 3.69576C70.321 3.02207 71.9126 2.42734 73.1617 1.95365C74.142 1.60102 74.9536 1.50628 75.449 1.50628C75.5861 1.3326 75.6704 1.27471 75.7073 1.29049C75.7494 1.30628 75.76 1.37997 75.7336 1.52734C75.9023 1.54313 76.0446 1.57471 76.1658 1.60628C76.1236 1.71681 76.2238 1.98523 76.7455 2.96944C76.9458 3.35892 77.3305 4.10102 77.768 5.15365C78.2107 6.21155 78.6956 7.57997 79.2648 9.14839C80.3821 12.2905 81.6996 16.2221 82.954 20.18C84.1872 24.1431 85.4152 28.1115 86.4113 31.301C87.3916 34.4852 88.1294 36.8958 88.4562 37.7273C88.6143 38.1326 88.7355 38.4168 88.8462 38.6221C88.8199 38.68 88.7935 38.7484 88.7672 38.8063L88.7777 38.8116Z" fill="#3B2900"/>
<path d="M57.7614 44.6484C56.6178 44.5431 56.038 43.7168 55.959 42.8326C56.3332 42.1168 56.7179 41.401 57.1079 40.6747C57.4031 40.5379 57.7456 40.4747 58.1462 40.5116C60.813 40.7589 60.4229 44.8958 57.7614 44.6484Z" fill="#FFFCF3"/>
<path d="M5.79668 111.049C5.55425 111.47 5.17479 112.149 4.65829 112.959C4.29991 113.501 3.92572 114.154 3.43558 114.612C2.91909 115.096 2.34989 115.201 1.92826 114.707C1.71218 114.475 1.53299 114.128 1.39596 113.796C1.2642 113.464 1.24312 113.212 1.33272 112.943C1.51718 112.396 2.09164 111.949 2.60814 111.628C3.16679 111.317 3.6622 111.049 4.04694 110.833C4.43167 110.622 4.70573 110.538 4.83748 110.501C4.92708 110.475 4.99032 110.459 5.05357 110.443C5.28019 110.643 5.5279 110.843 5.79668 111.049Z" fill="#FFFCF3"/>
<path d="M9.74339 107.48C9.69069 108.18 9.30595 108.812 8.84216 109.164C8.39946 109.517 7.77229 109.638 7.3085 109.812C6.83944 109.964 6.49687 110.085 6.32822 110.169C6.18065 110.238 6.06997 110.296 5.99092 110.348C5.93294 110.312 5.87497 110.264 5.82227 110.222C5.85389 110.133 5.88551 110.012 5.91713 109.827C5.99092 109.459 6.09632 108.401 6.30187 107.012C6.35457 106.669 6.40727 106.28 6.47579 105.933C6.51268 105.759 6.56011 105.612 6.62336 105.496C6.69187 105.38 6.77092 105.312 6.89741 105.248C7.15039 105.122 7.53512 105.096 7.88296 105.164C8.23608 105.233 8.58392 105.391 8.88433 105.617C9.48514 106.069 9.82244 106.785 9.75393 107.48H9.74339Z" fill="#FFFCF3"/>
<path d="M19.9577 111.759C19.9946 111.659 19.9577 111.58 19.5045 111.285C19.2146 111.096 18.3134 110.601 17.5597 109.543C17.1908 109.028 16.8588 108.349 16.9484 107.728C17.0327 107.138 17.6546 106.554 18.3292 106.333C18.6718 106.217 19.046 106.175 19.3727 106.233C19.71 106.285 19.9999 106.443 20.1527 106.649C20.3056 106.838 20.3319 107.149 20.3425 107.533C20.3583 107.912 20.3688 108.27 20.3635 108.607C20.3688 109.959 20.2739 110.985 20.2845 111.349C20.2845 111.459 20.295 111.549 20.295 111.622C20.1791 111.67 20.0684 111.722 19.9472 111.764C19.9472 111.764 19.9489 111.761 19.9525 111.754L19.9577 111.759Z" fill="#FFC82A"/>
<path d="M22.603 116.091C22.466 116.727 21.9969 117.354 21.3856 117.648C21.0852 117.796 20.7479 117.848 20.516 117.769C20.2736 117.696 20.0891 117.501 19.9731 117.206C19.7307 116.622 19.7412 115.854 19.7571 115.233C19.8203 113.969 20.1523 113.054 20.2208 112.712C20.2367 112.654 20.2472 112.596 20.2577 112.543C20.4475 112.475 20.6267 112.391 20.8111 112.317C20.9429 112.454 21.1379 112.659 21.3803 112.927C21.6807 113.254 22.0391 113.685 22.3079 114.227C22.5767 114.764 22.7506 115.443 22.6136 116.091H22.603Z" fill="#FFC82A"/>
<path d="M36.0796 100.869C35.8846 101.222 35.5579 101.438 35.1362 101.527C34.7146 101.622 34.2508 101.601 33.7923 101.554C33.3443 101.506 32.9069 101.433 32.4958 101.338C30.862 100.964 29.6551 100.443 29.2071 100.338C29.1755 100.322 29.1492 100.322 29.1175 100.312C29.0912 100.201 29.0648 100.096 29.0332 99.9852C29.1123 99.9221 29.2071 99.8431 29.3178 99.7379C29.6551 99.4642 30.5827 98.5484 32.1585 98.0221C32.5432 97.8905 32.9701 97.7852 33.4128 97.7273C33.8608 97.6642 34.3299 97.6379 34.7673 97.7115C35.2048 97.7905 35.5789 97.9747 35.8214 98.301C36.0691 98.6431 36.2377 99.1221 36.2904 99.5747C36.3484 100.033 36.2904 100.512 36.0849 100.864L36.0796 100.869Z" fill="#81C573"/>
<path d="M28.2371 100.427C28.2371 100.427 28.2371 100.433 28.2318 100.427C28.0632 100.517 27.7628 100.717 27.357 100.991C26.9564 101.259 26.4505 101.601 25.8549 101.88C25.2594 102.154 24.5321 102.359 23.8311 102.248C23.1301 102.154 22.4239 101.691 22.25 101.059C22.1604 100.748 22.192 100.385 22.3238 100.091C22.4661 99.7958 22.6822 99.6116 22.9668 99.5326C23.2619 99.4484 23.6466 99.4695 24.0261 99.4958C24.4003 99.5168 24.7587 99.5537 25.096 99.6063C26.4505 99.7958 27.4097 100.175 27.7628 100.275C27.9841 100.333 28.1264 100.364 28.2266 100.369C28.2266 100.385 28.2318 100.401 28.2371 100.422V100.427Z" fill="#81C573"/>
<path d="M18.7293 84.7063C18.7293 84.7063 18.724 84.722 18.7135 84.7326C18.6397 84.7273 18.5449 84.7168 18.4394 84.7115C18.2076 84.7115 17.7648 84.7484 17.1956 84.8799C16.6317 85.001 15.9413 85.2273 15.1771 85.3431C14.4287 85.4589 13.5328 85.4484 12.8793 84.9799C12.2363 84.5273 11.8884 83.5905 12.1994 82.822C12.3364 82.4273 12.5999 82.0852 12.9372 81.8641C13.2745 81.6378 13.7225 81.5115 14.1599 81.422C14.5974 81.3326 15.019 81.3063 15.3827 81.3694C15.7516 81.4378 16.0467 81.6115 16.3208 81.8484C16.8531 82.3326 17.28 82.9536 17.6436 83.3799C17.9809 83.8168 18.2286 84.1326 18.3709 84.3063C18.5343 84.5063 18.645 84.6273 18.7293 84.701V84.7063Z" fill="#D51F91"/>
<path d="M25.5232 86.4484C25.2861 87.1695 24.5166 87.6379 23.7471 87.7011C22.9829 87.7748 22.2346 87.48 21.6548 87.0958C21.0645 86.7063 20.6324 86.2379 20.2951 85.859C19.9578 85.4695 19.7259 85.1642 19.5836 85.0169C19.5836 85.0063 19.573 85.0011 19.5625 84.9905C19.5994 84.9063 19.6363 84.8221 19.6837 84.7379C19.7312 84.7274 19.7786 84.7063 19.8366 84.6905C20.2266 84.5905 21.2912 84.2011 22.7669 84.0853C23.5047 84.0326 24.3427 83.9958 24.9172 84.4432C25.207 84.6642 25.4442 84.98 25.5549 85.3326C25.6708 85.6853 25.6603 86.0853 25.5285 86.4432L25.5232 86.4484Z" fill="#D51F91"/>
<path d="M38.8204 73.2063C38.5621 73.2378 38.1879 73.2852 37.7189 73.3273C37.1128 73.3799 36.3381 73.4168 35.5106 73.2642C34.6937 73.1115 33.7767 72.7484 33.1548 72.0431C32.5276 71.3484 32.2061 70.2852 32.5698 69.4326C32.7437 69.0063 33.0388 68.7326 33.5026 68.5273C33.9453 68.3221 34.4302 68.2115 34.8887 68.2168C35.3472 68.2168 35.7899 68.3326 36.1272 68.5536C36.4698 68.7589 36.7228 69.0905 36.9336 69.4484C37.3289 70.1694 37.6293 70.9484 37.8928 71.501C38.1563 72.0694 38.3619 72.48 38.4778 72.6905C38.6306 72.9484 38.7361 73.101 38.8204 73.201V73.2063Z" fill="#81C573"/>
<path d="M45.6977 76.2168C45.1759 76.9326 44.2905 77.4221 43.4684 77.4379C43.052 77.4484 42.6725 77.3537 42.33 77.1642C41.9874 76.9695 41.687 76.701 41.4182 76.4168C40.3272 75.2589 39.8107 74.1431 39.5894 73.78C39.5525 73.7168 39.5209 73.6642 39.4893 73.6116C39.7475 73.5116 39.8529 73.4274 39.8793 73.3589C39.9109 73.3537 39.9425 73.3537 39.9741 73.3484C40.4063 73.3116 41.6237 73.101 43.2101 73.3221C43.9796 73.4484 44.9335 73.6063 45.5607 74.1221C45.8716 74.3747 46.093 74.7379 46.1141 75.0905C46.1404 75.4431 45.9665 75.8642 45.6977 76.2221V76.2168Z" fill="#81C573"/>
<path d="M88.5461 40.2852C88.5461 40.3221 88.5355 40.3536 88.525 40.3957C88.4407 41.0221 88.1666 42.7957 87.6765 45.1221C87.1811 47.4484 86.4169 50.3168 85.679 53.2063C84.9464 56.0957 84.3193 59.0326 84.0452 61.4326C83.9609 62.0273 83.9293 62.601 83.8924 63.1168C83.8713 63.38 83.8608 63.6273 83.8449 63.8642C83.8397 64.1063 83.845 64.3273 83.8397 64.5378C83.8397 64.9589 83.8397 65.3221 83.8397 65.6221C83.8608 65.9273 83.8818 66.1589 83.9029 66.3168C83.9293 66.5168 83.9451 66.6694 83.9714 66.8063C83.924 66.8326 83.8818 66.8747 83.8502 66.9378C83.8081 67.0115 83.7817 67.1905 83.6658 67.401C83.5551 67.6221 83.3443 67.8694 83.086 68.0431C82.6802 68.3115 82.1426 68.4694 81.8422 68.5957C81.8317 68.4326 81.8053 68.2168 81.7842 67.9221C81.4575 66.6642 82.4589 60.5273 84.1243 54.5957C85.7739 48.6589 87.8926 42.8378 88.2088 41.5431C88.388 40.8378 88.4038 40.5747 88.3511 40.4694C88.4249 40.4063 88.4881 40.3431 88.5513 40.2852H88.5461Z" fill="#FFFCF3"/>
<path d="M87.1699 41.3168C87.1172 41.3958 87.0698 41.4747 87.0065 41.5747C86.6534 42.1431 85.7258 43.7695 84.3766 45.8747C83.0432 47.98 81.283 50.5642 79.7756 53.3168C79.022 54.6958 78.3474 56.1221 77.8045 57.5274C77.267 58.9274 76.877 60.3063 76.6082 61.5431C76.0706 64.0274 76.0074 65.9537 76.0284 66.6221C76.0495 67.101 76.0811 67.38 76.1286 67.5589C76.1128 67.6116 76.0917 67.6695 76.0548 67.7326C75.9652 67.8642 75.844 67.9905 75.5963 68.0642C75.3064 68.1747 74.5106 68.1379 73.4829 67.9958C73.2246 67.9537 72.9506 67.9063 72.666 67.8431C72.5289 67.8063 72.3761 67.78 72.2285 67.7379C72.16 67.7221 72.081 67.701 72.0019 67.68L71.9492 67.6589C71.9492 67.6589 71.9281 67.6431 71.9281 67.6221C71.9281 67.5958 71.9281 67.6274 71.9281 67.5116C71.9229 67.3431 71.9281 67.1747 71.9281 66.9958C71.9281 66.6484 71.9597 66.28 71.9966 65.9063C72.1389 64.4168 72.55 62.7589 73.2088 61.1063C73.8676 59.4431 74.7741 57.78 75.7913 56.1853C76.8084 54.58 77.9258 53.0326 78.9851 51.5537C80.0444 50.0747 81.0879 48.7274 82.0946 47.58C83.0959 46.4274 84.0077 45.4116 84.6718 44.5642C85.3464 43.7168 85.7891 43.0484 85.9999 42.6853C86.2581 42.2274 86.3899 41.9326 86.4531 41.7379C86.7061 41.5905 86.938 41.4537 87.1646 41.3221L87.1699 41.3168Z" fill="#81C573"/>
<path d="M34.4667 22.001C34.4561 22.0326 34.4456 22.0642 34.435 22.101C34.2348 22.6589 33.7288 24.0958 32.6906 25.8695C32.1846 26.7642 31.5469 27.7379 30.846 28.7905C30.1503 29.8379 29.3966 30.9431 28.6008 32.0695C27.0144 34.3168 25.2858 36.6168 23.5413 38.5537C22.6717 39.5168 21.7968 40.3852 20.9536 41.101C20.5319 41.4484 20.1208 41.7537 19.7098 41.98C19.5095 42.0905 19.3039 42.1958 19.1089 42.2747C19.0141 42.3116 18.9034 42.3484 18.8191 42.38C18.7295 42.4063 18.7137 42.401 18.7031 42.401C18.7031 42.4484 18.4185 42.1168 18.2657 41.9379C18.097 41.7379 17.9495 41.5537 17.8282 41.3852C17.5858 41.0537 17.4435 40.7958 17.3539 40.6221C17.1484 40.2221 17.0904 39.9589 17.043 39.7905C17.1853 39.7221 17.4224 39.5589 17.823 39.2326C18.3131 38.8326 19.6254 37.6063 21.3488 35.98C22.2132 35.1695 23.1829 34.2589 24.2264 33.3379C24.7535 32.8747 25.291 32.4326 25.8655 31.9747C26.44 31.5116 26.9986 31.0221 27.552 30.5168C29.755 28.501 31.6629 26.1852 33.0331 24.2221C33.6023 23.4063 34.0872 22.6589 34.4667 22.001Z" fill="#FFFCF3"/>
<path d="M34.5353 33.7957C34.1401 36.8642 33.3284 39.8852 32.5063 42.2326C31.6946 44.5905 30.8461 46.2694 30.551 46.8642C30.2716 47.4484 30.1662 47.7326 30.1557 47.8747C30.0134 47.9115 29.8342 47.9273 29.597 47.8431C29.46 47.7905 29.2597 47.6852 29.0278 47.4852C28.7907 47.28 28.4955 46.9957 28.2004 46.6589C28.0476 46.4905 27.8947 46.301 27.7419 46.0957C27.5943 45.8957 27.4099 45.6536 27.3519 45.48C27.2939 45.3273 27.3361 45.1379 27.4573 44.8694C27.5996 44.5852 27.7419 44.301 27.8947 43.9957C29.1174 41.5484 30.4508 38.4115 31.605 35.2115C32.7645 32.0115 33.7184 28.7431 34.3561 26.0852C34.646 24.8957 34.8674 23.8273 35.0255 22.9431C35.0044 23.5852 34.9833 24.2905 34.9675 25.0642C34.8937 27.5747 34.8884 30.7221 34.5353 33.7905V33.7957Z" fill="#81C573"/>
<path d="M88.5614 39.1431C88.4612 39.2747 88.3347 39.4221 88.1714 39.5642C87.9764 39.7431 87.6601 39.9958 87.2122 40.2642C86.9697 40.4063 86.6746 40.5642 86.3373 40.7431C86.2213 40.801 86.1054 40.8642 85.9789 40.9326C85.8261 41.0168 85.6574 41.1063 85.494 41.1958C84.772 41.5905 83.9498 42.0379 83.0433 42.5273C82.2581 42.9537 81.4095 43.4168 80.5083 43.9063C76.6557 46.0484 71.8544 48.6958 67.0584 51.3589C64.3653 52.8642 61.6774 54.3747 59.1582 55.7905C58.5996 56.1063 58.0462 56.4168 57.5033 56.7273C57.3821 56.801 57.2556 56.8642 57.1344 56.9379C55.8748 57.6484 54.6784 58.3273 53.5664 58.9642C51.9115 59.9063 50.4358 60.7484 49.2237 61.4589C48.9707 61.601 48.7335 61.7379 48.5069 61.8694C48.1063 62.101 47.7427 62.3168 47.4212 62.5116C47.358 62.5484 47.2894 62.5852 47.2315 62.6221C47.163 62.6642 47.0997 62.701 47.0365 62.7379C46.9311 62.801 46.8309 62.8589 46.7413 62.9221C46.7203 62.9273 46.7097 62.9379 46.6939 62.9484C46.6043 63.001 46.5252 63.0537 46.4462 63.0958C46.2565 63.2168 46.0984 63.3168 45.9719 63.3958C45.6978 63.5747 45.4817 63.7221 45.292 63.8589C45.4765 63.5326 45.7031 63.1221 45.9877 62.5852C46.3197 61.9589 46.8994 60.7958 47.6794 59.2168C47.7638 59.0484 47.8481 58.8747 47.9324 58.701C48.0273 58.5063 48.1222 58.3168 48.2276 58.1116C48.3066 57.9484 48.3857 57.78 48.47 57.6168C48.5385 57.48 48.607 57.3379 48.6755 57.201C48.7282 57.101 48.7757 57.001 48.8284 56.8958C48.9022 56.7484 48.9759 56.5958 49.055 56.4431C49.2974 55.9431 49.561 55.4168 49.8297 54.8695C49.8508 54.8273 49.8772 54.78 49.8983 54.7326C50.0458 54.4379 50.1987 54.1326 50.3515 53.8221C50.6572 53.201 50.9787 52.5642 51.3054 51.901C51.3687 51.78 51.4267 51.6589 51.4846 51.5379C52.096 50.3273 52.739 49.0484 53.4136 47.7273C53.598 47.3695 53.7825 47.001 53.9775 46.6326C54.1672 46.2589 54.357 45.8852 54.5572 45.5116C55.0105 44.6326 55.4743 43.7431 55.9539 42.8326C56.0329 43.7168 56.6127 44.5431 57.7563 44.6484C60.4178 44.8958 60.8078 40.7589 58.141 40.5116C57.7405 40.4747 57.3927 40.5326 57.1028 40.6747C57.4085 40.101 57.7194 39.5273 58.0356 38.9537C58.3308 38.4116 58.6312 37.8695 58.9263 37.3273C59.5904 36.1326 60.2597 34.9326 60.9501 33.7431C61.3559 33.0273 61.767 32.3221 62.1728 31.6168C67.5697 33.4379 72.9665 35.1116 77.3619 36.3695C80.7033 37.3379 83.4702 38.0695 85.2147 38.501C85.8735 38.6642 86.3953 38.7852 86.7378 38.8589C87.6707 39.0537 88.2293 39.1326 88.5561 39.1484L88.5614 39.1431Z" fill="#D51F91"/>
<path d="M61.0243 31.2274C60.6449 31.88 60.2654 32.5326 59.8912 33.1958C56.2231 39.58 52.8975 46.1537 50.3203 51.4642C49.2821 53.6116 48.3598 55.5484 47.5903 57.1905C46.4466 59.6221 45.6403 61.4168 45.2819 62.2852C45.1396 62.6274 45.0236 62.9063 44.9182 63.1695C44.8971 63.0326 44.8761 62.8958 44.8392 62.7326C44.6494 61.7958 44.075 59.3379 43.3213 56.0326C42.399 52.0221 41.2132 46.7852 40.1539 41.5116C38.1775 31.901 36.6017 22.2221 36.1537 20.1589C35.985 19.4431 35.8638 19.0274 35.7637 18.7958C35.8006 18.7695 35.8427 18.7537 35.8902 18.7274C35.9692 18.8905 36.3118 19.2484 37.4502 20.1274C38.4674 20.9116 41.5031 22.9642 45.83 25.101C50.0515 27.2168 55.501 29.3484 61.0296 31.2221L61.0243 31.2274Z" fill="#81C573"/>
<path d="M75.46 1.51156C75.207 1.84841 74.7749 2.61156 74.1477 4.07472C73.9527 4.52735 73.6576 5.25367 73.2623 6.2063C72.867 7.16946 72.3716 8.36946 71.7866 9.75367C71.1278 11.3116 70.3478 13.0905 69.4624 15.0379C68.2397 17.7116 66.8167 20.6958 65.1934 23.7747C64.4503 25.2116 63.6387 26.6695 62.806 28.1326C62.4212 28.8116 62.0259 29.4958 61.6307 30.18C61.0667 29.9905 60.5081 29.7958 59.9494 29.601C57.2774 28.68 54.6528 27.7063 52.2073 26.7221C50.9108 26.201 49.6618 25.68 48.4917 25.1484C47.7117 24.8063 46.9686 24.4537 46.2571 24.1116C44.1121 23.0852 42.2833 22.0905 40.8445 21.2695C39.4162 20.4379 38.3885 19.7905 37.8457 19.4642C36.8865 18.8852 36.4069 18.6379 36.1592 18.5642C36.3647 18.4379 36.6282 18.2695 36.9655 18.0431C37.3977 17.7642 38.2041 17.201 39.3372 16.5168C39.9011 16.18 40.5599 15.801 41.2872 15.4431C42.0409 15.0852 42.863 14.6958 43.7274 14.28C44.7182 13.8063 45.7881 13.3063 46.9001 12.7852C47.9542 12.2958 49.0504 11.7958 50.1782 11.2905C52.0598 10.4326 54.0256 9.56946 56.0072 8.72735C57.7886 7.9642 59.5805 7.22209 61.3145 6.51683C62.4212 6.06946 63.5016 5.63788 64.5557 5.22209C65.9523 4.67472 67.2857 4.1642 68.519 3.69051C70.3267 3.01683 71.9184 2.42209 73.1674 1.94841C74.1477 1.59577 74.9593 1.50104 75.4547 1.50104L75.46 1.51156Z" fill="#FFC82A"/>
<path d="M88.8565 38.6273C88.8354 38.6852 88.8038 38.7484 88.7722 38.8115C88.5139 38.6747 87.9711 38.4589 86.9117 38.1168C86.6113 38.0221 86.1792 37.8852 85.631 37.7168C83.9287 37.2063 81.0986 36.3747 77.636 35.3221C73.3406 34.0168 68.0756 32.3536 62.7842 30.5694C64.0016 28.4536 65.198 26.3536 66.2626 24.2694C67.8753 21.1589 69.2878 18.1484 70.4894 15.4379C72.8716 10.0115 74.3947 5.81154 74.8848 4.31154C74.9639 4.06944 75.0324 3.84838 75.1009 3.64312C75.4751 2.49049 75.6912 1.85365 75.7492 1.53259C75.9178 1.54838 76.0654 1.57996 76.1866 1.61154C76.1445 1.72733 76.2446 1.99575 76.7663 2.9747C76.9666 3.36417 77.3514 4.10628 77.7835 5.16417C78.2262 6.2168 78.7164 7.59575 79.2856 9.16417C80.4029 12.3063 81.7257 16.2326 82.9748 20.1905C84.208 24.1589 85.436 28.1273 86.4321 31.3115C87.4071 34.4958 88.1503 36.9063 88.477 37.7379C88.6351 38.1431 88.7563 38.4273 88.867 38.6326L88.8565 38.6273Z" fill="#81C573"/>
<path d="M75.5594 37.3379C72.8979 37.0905 72.5079 41.2221 75.1747 41.4695C77.8362 41.7168 78.2262 37.5853 75.5594 37.3379Z" fill="#FFFCF3"/>
<path d="M49.835 54.8642C50.2987 53.9326 50.7889 52.9431 51.3106 51.901C51.3739 51.7799 51.4319 51.6589 51.4898 51.5378C52.3278 52.7536 51.6796 54.901 49.835 54.8642Z" fill="#FFFCF3"/>
<path d="M86.3424 40.7484C86.0789 40.8852 85.7943 41.0379 85.4991 41.201C84.7771 41.5958 83.9549 42.0431 83.0484 42.5326C82.9957 41.3905 83.7705 40.1905 85.2461 40.3274C85.6994 40.3695 86.063 40.5221 86.3424 40.7537V40.7484Z" fill="#FFFCF3"/>
<path d="M57.1393 56.9326C55.8797 57.6431 54.6833 58.3221 53.5713 58.9589C52.844 57.6852 53.5818 55.5958 55.4949 55.7747C56.3487 55.8536 56.8863 56.3326 57.1393 56.9326Z" fill="#FFFCF3"/>
<path d="M69.0291 42.9852C66.3676 42.7379 65.9776 46.8694 68.6444 47.1168C71.3059 47.3642 71.6959 43.2326 69.0291 42.9852Z" fill="#FFFCF3"/>
<path d="M66.5047 33.8221C63.8432 33.5747 63.4532 37.7063 66.12 37.9537C68.7815 38.201 69.1715 34.0694 66.5047 33.8221Z" fill="#FFFCF3"/>
<path d="M61.1561 47.9852C58.4946 47.7379 58.1046 51.8694 60.7713 52.1168C63.4329 52.3642 63.8229 48.2326 61.1561 47.9852Z" fill="#FFFCF3"/>
<path d="M56.7176 12.3484C54.0561 12.101 53.6661 16.2326 56.3329 16.48C58.9944 16.7273 59.3844 12.5958 56.7176 12.3484Z" fill="#FFFCF3"/>
<path d="M52.2175 26.7273C50.921 26.2063 49.672 25.6852 48.502 25.1536C48.8129 24.4326 49.498 23.8957 50.51 23.9905C52.0542 24.1326 52.5759 25.5852 52.2175 26.7273Z" fill="#FFFCF3"/>
<path d="M50.1824 11.2958C50.0981 12.3379 49.3339 13.3326 47.99 13.2116C47.542 13.1695 47.1836 13.0221 46.9043 12.7958C47.9584 12.3063 49.0546 11.8063 50.1824 11.301V11.2958Z" fill="#FFFCF3"/>
<path d="M63.1007 8.95892C61.6935 8.82734 61.1348 7.61155 61.3193 6.52734C62.4261 6.07997 63.5065 5.64839 64.5605 5.2326C65.9625 6.32208 65.3195 9.16418 63.1007 8.95892Z" fill="#FFFCF3"/>
<path d="M66.3153 14.201C63.6537 13.9537 63.2637 18.0853 65.9305 18.3326C68.592 18.58 68.982 14.4484 66.3153 14.201Z" fill="#FFFCF3"/>
<path d="M62.8106 28.1326C62.4259 28.8115 62.0306 29.4957 61.6353 30.1799C61.0714 29.9905 60.5128 29.7957 59.9541 29.601C60.1333 28.6589 60.8764 27.8378 62.1097 27.9484C62.3732 27.9747 62.6051 28.0378 62.8106 28.1273V28.1326Z" fill="#FFFCF3"/>
<path d="M73.2668 6.2063C72.8716 7.16946 72.3762 8.36946 71.7912 9.75367C71.7332 9.75367 71.6647 9.75367 71.6014 9.74315C68.9346 9.49578 69.3246 5.35894 71.9862 5.6063C72.5448 5.65894 72.9717 5.87999 73.2668 6.20104V6.2063Z" fill="#FFFCF3"/>
<path d="M58.8211 19.9905C56.1596 19.7431 55.7696 23.8747 58.4364 24.1221C61.0979 24.3694 61.4879 20.2378 58.8211 19.9905Z" fill="#FFFCF3"/>
<path d="M46.1141 16.4958C43.4526 16.2484 43.0626 20.38 45.7294 20.6274C48.3909 20.8747 48.7809 16.7432 46.1141 16.4958Z" fill="#FFFCF3"/>
<g style="mix-blend-mode:multiply" opacity="0.26">
<path d="M47.5903 57.1957C46.4466 59.6273 45.6402 61.4221 45.2819 62.2905C45.1396 62.6326 45.0236 62.9115 44.9182 63.1747C44.8971 63.0378 44.876 62.901 44.8391 62.7378C44.6494 61.801 44.0749 59.3431 43.3213 56.0378C44.3227 56.4326 45.3609 56.9115 46.0039 57.0273C46.5309 57.1221 47.0685 57.1694 47.5955 57.1905L47.5903 57.1957Z" fill="#2BBAA8"/>
</g>
<g style="mix-blend-mode:multiply" opacity="0.38">
<path d="M88.5614 39.1431C88.4612 39.2747 88.3347 39.4221 88.1714 39.5642C87.9764 39.7431 87.6601 39.9957 87.2122 40.2642C86.9697 40.4063 86.6746 40.5642 86.3373 40.7431C86.2213 40.801 86.1054 40.8642 85.9789 40.9326C85.8261 41.0168 85.6574 41.1063 85.494 41.1957C84.772 41.5905 83.9498 42.0379 83.0433 42.5273C82.2581 42.9536 81.4095 43.4168 80.5083 43.9063C76.6557 46.0484 71.8544 48.6957 67.0584 51.3589C64.3653 52.8642 61.6774 54.3747 59.1582 55.7905C58.5996 56.1063 58.0462 56.4168 57.5033 56.7273C57.3821 56.801 57.2556 56.8642 57.1344 56.9379C55.8748 57.6484 54.6784 58.3273 53.5664 58.9642C51.9115 59.9063 50.4358 60.7484 49.2237 61.4589C48.9707 61.601 48.7335 61.7379 48.5069 61.8694C48.1063 62.101 47.7427 62.3168 47.4212 62.5115C47.358 62.5484 47.2894 62.5852 47.2315 62.6221C47.163 62.6642 47.0997 62.701 47.0365 62.7379C46.9311 62.801 46.8309 62.8589 46.7413 62.9221C46.7203 62.9273 46.7097 62.9379 46.6939 62.9484C46.6043 63.001 46.5252 63.0536 46.4462 63.0957C46.2565 63.2168 46.0984 63.3168 45.9719 63.3957C45.6978 63.5747 45.4817 63.7221 45.292 63.8589C45.4765 63.5326 45.7031 63.1221 45.9877 62.5852C46.3197 61.9589 46.8994 60.7957 47.6794 59.2168C47.7638 59.0484 47.8481 58.8747 47.9324 58.701C48.0273 58.5063 48.1222 58.3168 48.2276 58.1115C48.3066 57.9484 48.3857 57.78 48.47 57.6168C48.5385 57.48 48.607 57.3379 48.6755 57.201C49.3976 57.1747 50.1249 57.1115 50.8416 57.0326C55.2898 56.5379 58.979 54.3326 62.7842 52.0905C66.484 49.9115 70.1785 47.5852 74.0364 45.68C76.4818 44.4694 78.8903 43.0221 81.1566 41.4905C82.3108 40.7115 84.3082 39.7589 85.22 38.5115C85.8788 38.6747 86.4005 38.7957 86.7431 38.8694C87.676 39.0642 88.2346 39.1431 88.5614 39.1589V39.1431Z" fill="#D84409"/>
</g>
<g style="mix-blend-mode:multiply" opacity="0.22">
<path d="M88.8571 38.6273C88.836 38.6852 88.8044 38.7484 88.7728 38.8115C88.5145 38.6747 87.9717 38.4589 86.9124 38.1168C86.6119 38.0221 86.1798 37.8852 85.6317 37.7168C86.164 36.0168 85.1626 33.301 84.7621 31.7168C83.7291 27.601 82.2218 23.5273 80.9569 19.4905C79.2809 14.1536 76.8091 8.98522 75.1016 3.64312C75.4758 2.49049 75.6918 1.85365 75.7498 1.53259C75.9185 1.54838 76.066 1.57996 76.1872 1.61154C76.1451 1.72733 76.2452 1.99575 76.767 2.9747C76.9673 3.36417 77.352 4.10628 77.7842 5.16417C78.2269 6.2168 78.717 7.59575 79.2862 9.16417C80.4035 12.3063 81.7264 16.2326 82.9754 20.1905C84.2087 24.1589 85.4367 28.1273 86.4328 31.3115C87.4078 34.4958 88.1509 36.9063 88.4776 37.7379C88.6358 38.1431 88.757 38.4273 88.8677 38.6326L88.8571 38.6273Z" fill="#D51F91"/>
</g>
</svg>
