<svg width="67" height="88" viewBox="0 0 67 88" fill="none" xmlns="http://www.w3.org/2000/svg">
<path d="M66.1484 28.5619C66.1484 28.492 66.1407 28.4299 66.1251 28.3795C66.1251 28.3795 66.1251 28.3795 66.1251 28.3679C66.1018 28.2126 66.0668 28.0186 66.0124 27.778C65.7365 26.478 64.1005 20.5716 62.247 14.7196C61.3182 11.7936 60.3156 8.89086 59.4374 6.58188C58.9944 5.42932 58.6058 4.41647 58.225 3.6287C57.8558 2.84093 57.51 2.28988 57.3118 2.01823C57.1836 1.8436 57.0709 1.71166 56.9776 1.60688C57.0864 1.68061 57.1486 1.70002 57.1952 1.67673C57.238 1.65345 57.2652 1.59524 57.1797 1.39344C57.0981 1.20717 56.8183 0.846273 56.1655 0.694927C55.7497 0.590149 54.9375 0.59403 53.9505 0.916124C52.9984 1.22658 51.8171 1.63405 50.4687 2.11525C47.7718 3.07765 44.4455 4.36214 41.1774 5.76306C37.9015 7.16009 34.6762 8.66579 32.1154 9.95028C31.4742 10.2724 30.8758 10.5789 30.324 10.8584C29.7644 11.1533 29.2786 11.4482 28.859 11.7237C28.0118 12.2826 27.4367 12.7444 27.1453 12.9927C26.7062 13.3885 26.4847 13.6214 26.3875 13.7727C26.3486 13.7844 26.3098 13.8387 26.2981 14.0211C26.2398 14.0483 26.166 14.1841 25.9406 14.7002C25.8474 14.9059 25.6686 15.2978 25.3577 15.8062C25.0546 16.3146 24.6194 16.9393 24.1065 17.6379C23.0845 19.0349 21.6933 20.6958 20.1039 22.1472C19.7076 22.512 19.2996 22.8651 18.8915 23.195C18.4796 23.5326 18.0561 23.8779 17.6714 24.2311C16.8903 24.9257 16.1869 25.6087 15.5613 26.218C14.3139 27.452 13.3968 28.395 13.0859 28.7443C12.8683 28.9965 12.7479 29.1518 12.6896 29.2643C12.6546 29.2643 12.6235 29.2953 12.5885 29.4195C12.5575 29.5515 12.5225 29.8192 12.6663 30.2345C12.7168 30.3936 12.8217 30.6264 13.0043 30.9058C13.0937 31.0494 13.1986 31.2007 13.323 31.3637C13.3852 31.4413 13.4551 31.5267 13.5212 31.6121C13.5911 31.6897 13.696 31.841 13.9136 31.9031C14.0535 31.9381 14.1973 31.9109 14.2867 31.8876C14.3761 31.8604 14.4577 31.8372 14.5471 31.8022C14.7219 31.7401 14.8968 31.6625 15.0678 31.5694C15.4136 31.387 15.7556 31.1503 16.0898 30.8825C16.7543 30.3431 17.4265 29.6912 18.0871 28.9694C19.4161 27.5219 20.714 25.8066 21.8837 24.1302C22.4705 23.292 23.0262 22.4615 23.5275 21.6776C24.0326 20.8937 24.5028 20.1525 24.872 19.4656C24.9186 19.3841 24.9497 19.3065 24.9963 19.225C24.4951 21.1615 23.7762 23.5364 22.9251 25.8726C22.0858 28.2088 21.1298 30.51 20.271 32.3067C20.1622 32.5318 20.0573 32.7569 19.9563 32.9742C19.9058 33.0945 19.8552 33.2303 19.8358 33.3855C19.8125 33.5408 19.8358 33.7193 19.898 33.859C20.0223 34.1384 20.1622 34.2781 20.2827 34.445C20.4148 34.6079 20.5392 34.7515 20.6674 34.8796C20.92 35.1396 21.1532 35.3414 21.3708 35.5044C21.5884 35.6712 21.8099 35.7644 21.9731 35.7954C22.4783 35.8808 22.7464 35.6324 22.828 35.5005C22.9135 35.353 22.8785 35.2909 22.8435 35.2754C22.9251 35.1784 23.0223 35.0465 23.1505 34.868C23.442 34.4566 24.1414 33.2032 24.7904 31.4413C25.4432 29.6795 26.0689 27.421 26.372 25.1004C26.6362 22.7642 26.6168 20.4474 26.6362 18.5886C26.6362 18.154 26.6362 17.7504 26.6401 17.374C27.0637 20.4086 27.9225 25.6902 29.0027 30.9291C30.4328 38.0423 32.2669 45.0624 32.7721 46.5332C32.877 46.8514 32.9664 47.0804 33.0402 47.2628C33.0091 47.3093 32.9664 47.4025 32.9081 47.5538C32.8459 47.7129 32.7721 47.9496 32.6439 48.264C32.5273 48.5899 32.3524 48.9974 32.1154 49.5174C32.0338 49.6843 31.9289 49.8938 31.8084 50.1306C31.6918 50.3673 31.5286 50.635 31.3654 50.9377C31.0001 51.5315 30.5377 52.2339 29.9159 52.979C29.6711 53.27 29.3913 53.5727 29.096 53.8715C29.0805 53.79 29.0494 53.6814 29.0105 53.5455C28.96 53.3748 28.8357 53.0527 28.6724 52.6219C28.587 52.4085 28.4898 52.164 28.3849 51.9001C28.28 51.6363 28.1673 51.3336 28.0002 51.0192C27.8292 50.7088 27.5844 50.3673 27.2191 50.1267C26.8577 49.89 26.4108 49.7735 25.9717 49.7658C25.5287 49.7619 25.0779 49.8589 24.6622 50.0491C24.4601 50.1461 24.2464 50.2664 24.0598 50.4488C23.8811 50.6234 23.7412 50.8407 23.6479 51.0697C23.4614 51.5315 23.4575 52.036 23.5741 52.49C23.6946 52.9402 23.9277 53.3476 24.223 53.6697C24.837 54.3333 25.6492 54.6166 26.3448 54.7253C27.052 54.8339 27.666 54.7718 28.1323 54.702C28.175 54.6942 28.21 54.6903 28.245 54.6826C28.0274 54.8727 27.7981 55.059 27.5649 55.2414C26.6129 55.9748 25.4821 56.6501 24.1997 57.1895C22.9135 57.7289 21.4718 58.1325 19.9641 58.6098C19.2141 58.8543 18.4485 59.1143 17.683 59.4402C16.9175 59.7701 16.1558 60.1776 15.4719 60.7364C14.9823 61.14 14.5354 61.6367 14.2206 62.2266C14.1973 62.1761 14.174 62.1179 14.1429 62.048C14.073 61.8967 13.9136 61.6251 13.6727 61.2758C13.5484 61.1012 13.4124 60.9071 13.2569 60.6937C13.1054 60.4803 12.9266 60.2435 12.6779 60.0146C12.4331 59.7856 12.0911 59.5722 11.7064 59.5023C11.3217 59.4208 10.9331 59.4519 10.5562 59.5217C10.187 59.5955 9.79455 59.6964 9.41762 59.9409C9.04845 60.1892 8.76867 60.554 8.621 60.977C8.47333 61.3922 8.47333 61.8773 8.621 62.2886C8.76478 62.7039 9.04457 63.0648 9.39819 63.3131C9.74792 63.5537 10.1521 63.6663 10.5251 63.6973C10.8982 63.7284 11.244 63.6934 11.5588 63.6352C12.1922 63.5111 12.6857 63.3209 13.0782 63.2122C13.4707 63.0881 13.7543 63.0299 13.902 62.9988C13.902 62.9988 13.9098 62.9988 13.9175 62.9949C13.6533 63.8797 13.7543 64.8421 14.0691 65.6881C14.38 66.5574 14.9123 67.3374 15.5302 67.9971C16.1481 68.6646 16.8436 69.235 17.5276 69.7977C18.2115 70.3604 18.8838 70.9037 19.4705 71.5207C20.0612 72.1377 20.5664 72.8169 20.8811 73.5736C20.8967 73.6124 20.9083 73.6551 20.92 73.6939C20.9083 73.69 20.9044 73.6822 20.8967 73.6784C20.648 73.5309 19.9058 73.1739 18.8449 72.9798C18.5845 72.9333 18.3009 72.8906 18.0055 72.8634C17.7141 72.8479 17.3954 72.8052 17.0107 72.9022C16.6221 72.9876 16.2724 73.3058 16.117 73.6706C15.9538 74.0354 15.9188 74.4467 16.0315 74.8426C16.1481 75.2461 16.4162 75.5566 16.7271 75.7739C17.0418 75.9912 17.3954 76.1115 17.7452 76.1581C18.4602 76.2474 19.1014 76.0262 19.5871 75.7817C20.0806 75.5256 20.4537 75.2306 20.7412 75.0094C20.92 74.8697 21.056 74.7494 21.1687 74.6602C21.3358 75.8865 21.021 77.1709 20.4032 78.2226C19.5988 79.6158 18.3514 80.6674 17.0535 81.4824C16.5911 81.7695 16.117 82.0218 15.639 82.2468C15.709 81.9597 15.8372 81.2068 15.8722 80.2095C15.8799 79.9534 15.8877 79.6778 15.8799 79.3946C15.8799 79.251 15.8722 79.0996 15.845 78.9211C15.8178 78.7465 15.7478 78.5447 15.6273 78.3817C15.1027 77.722 14.2168 77.6871 13.5484 77.916C13.2025 78.0363 12.8839 78.2342 12.6274 78.4904C12.3748 78.7426 12.1611 79.0957 12.1145 79.4799C12.0639 79.8602 12.1533 80.2134 12.2777 80.5005C12.3981 80.7955 12.5613 81.0438 12.7284 81.2612C13.4085 82.1382 14.1934 82.4836 14.4577 82.5612C14.5859 82.6 14.6753 82.6155 14.7491 82.6233C14.1701 82.8445 13.595 83.0191 13.0199 83.151C11.6715 83.4576 10.358 83.4925 9.18446 83.3489C8.00314 83.1937 6.96948 82.8367 6.11846 82.3982C5.74152 82.208 5.40733 82.0024 5.10034 81.7967C5.10034 81.7773 5.112 81.7656 5.112 81.7462C5.25578 81.7191 5.48893 81.6647 5.79204 81.5949C5.97079 81.5522 6.16509 81.5056 6.39824 81.4397C6.62363 81.3698 6.89176 81.265 7.14046 81.0904C7.6262 80.7373 8.01479 80.128 8.08085 79.414C8.11583 79.0569 8.05754 78.6728 7.89822 78.3351C7.73501 77.9898 7.49019 77.6948 7.19098 77.4698C6.89176 77.2369 6.54202 77.0817 6.16897 77.0196C5.79981 76.9536 5.41121 76.9692 5.03816 77.1593C4.84775 77.2563 4.67677 77.4193 4.58351 77.6095C4.48248 77.788 4.44362 77.9665 4.41253 78.1256C4.35813 78.436 4.33481 78.696 4.30372 78.9638C4.19103 80.0116 4.1716 80.8071 4.19492 81.0904C4.19492 81.0982 4.19492 81.1021 4.19492 81.1098C3.63146 80.617 3.24286 80.1629 2.99805 79.8641C2.32189 79.0143 2.05765 78.4205 1.87501 78.0945C1.7118 77.7531 1.63797 77.6715 1.59522 77.6832C1.56025 77.6987 1.55636 77.788 1.66128 78.1605C1.78175 78.5214 1.99159 79.185 2.68717 80.1513C2.88147 80.4152 3.18457 80.7916 3.60037 81.1991C3.44493 81.2262 3.24286 81.2806 3.02525 81.3776C2.71049 81.525 2.31801 81.7074 1.86724 81.9325C1.64574 82.0606 1.41258 82.2119 1.19109 82.4098C0.973474 82.6116 0.748089 82.8677 0.627625 83.2131C0.499389 83.5585 0.553792 83.9854 0.685914 84.2881C0.810264 84.5908 0.954044 84.8857 1.20663 85.1612C1.33098 85.297 1.4903 85.4212 1.68071 85.5027C1.87501 85.5842 2.08485 85.6191 2.29081 85.592C2.70272 85.5454 3.00971 85.3126 3.23898 85.0991C3.47602 84.8702 3.65477 84.6218 3.80632 84.389C3.95399 84.1561 4.09388 83.9349 4.21046 83.7176C4.54854 83.1355 4.78946 82.6349 4.93324 82.2895C5.23635 82.4952 5.55499 82.697 5.92416 82.8871C6.81792 83.3606 7.91376 83.7409 9.15726 83.9155C10.4046 84.0785 11.788 84.0436 13.2025 83.7254C13.6844 83.6167 14.1701 83.477 14.6597 83.3101C14.5043 83.6555 14.2945 84.2648 14.2206 85.0642C14.2012 85.3203 14.1973 85.592 14.209 85.8791C14.2206 86.1663 14.2595 86.4806 14.3916 86.8027C14.5082 87.1132 14.7919 87.4741 15.2038 87.5944C15.6079 87.7147 16.0004 87.6138 16.3229 87.4586C16.9758 87.1403 17.4304 86.5194 17.5587 85.8442C17.6869 85.169 17.4809 84.5403 17.2284 84.0746C16.9719 83.5973 16.6455 83.2636 16.389 83.0191C16.2685 82.9104 16.1558 82.8095 16.0587 82.7397C16.5211 82.5185 16.9797 82.2701 17.4304 81.9946C18.7788 81.1525 20.1078 80.0349 20.9899 78.5098C21.4291 77.753 21.7244 76.8915 21.8293 75.9951C21.8876 75.5411 21.8798 75.0676 21.8176 74.6058C22.2218 74.7999 23.0029 75.1608 24.087 75.4441C24.4057 75.5256 24.7515 75.5954 25.1129 75.6381C25.4704 75.6769 25.8746 75.7118 26.3098 75.6226C26.7372 75.5488 27.2036 75.2539 27.4367 74.8193C27.6699 74.3924 27.7126 73.919 27.666 73.4727C27.6038 73.0225 27.46 72.6034 27.1802 72.2192C26.881 71.8195 26.3992 71.61 25.9795 71.5518C25.552 71.4858 25.1557 71.5246 24.7865 71.5828C24.4135 71.641 24.0637 71.7342 23.749 71.8506C22.4705 72.3318 21.7632 73.1273 21.5573 73.4028C21.5417 73.4222 21.534 73.4339 21.5184 73.4533C21.499 73.399 21.4873 73.3446 21.464 73.2942C21.0987 72.4404 20.5392 71.6992 19.9096 71.0512C19.2801 70.3953 18.5807 69.8326 17.9006 69.2816C17.2167 68.7189 16.5483 68.1678 15.9771 67.5431C15.4058 66.9221 14.9356 66.212 14.6675 65.4436C14.4149 64.7529 14.3411 64.0117 14.5043 63.3325C14.582 63.4567 14.6831 63.6081 14.8113 63.7827C15.0522 64.1048 15.3903 64.5123 15.8877 64.8615C16.3773 65.2069 17.0535 65.5096 17.8346 65.4436C18.2115 65.4126 18.5962 65.2923 18.9382 65.0633C19.2762 64.8421 19.5638 64.489 19.6959 64.0854C19.8358 63.6896 19.8397 63.2472 19.7115 62.8513C19.5793 62.4478 19.3151 62.1101 18.9887 61.8812C18.6584 61.6445 18.262 61.5397 17.92 61.5164C17.5703 61.4892 17.2633 61.5164 16.9719 61.5513C16.1986 61.6406 15.5807 61.8268 15.1727 61.9937C15.3903 61.7143 15.6468 61.4582 15.9266 61.2292C17.1662 60.2241 18.7322 59.7119 20.205 59.2191C21.6933 58.7456 23.1505 58.3187 24.4795 57.7522C25.8085 57.1817 26.9782 56.4677 27.9535 55.6877C28.3577 55.3694 28.7113 55.0435 29.0571 54.7136C29.1543 55.0279 29.5079 55.9399 30.3551 56.8984C30.5727 57.1351 30.8291 57.3874 31.1633 57.5814C31.4897 57.7793 31.9133 57.8996 32.3291 57.8841C33.1646 57.8608 33.9767 57.4107 34.4858 56.7121C34.7345 56.3745 34.9366 55.9399 34.9055 55.4432C34.8589 54.9426 34.5752 54.5467 34.241 54.279C33.9029 54.0112 33.5221 53.8754 33.1724 53.7784C32.8226 53.693 32.4923 53.6426 32.1737 53.5999C31.2333 53.5028 30.4677 53.6037 30.0053 53.7085C30.1219 53.5727 30.2424 53.4408 30.3434 53.3049C31.6024 51.7333 32.2203 50.3789 32.5156 49.6804C32.7138 49.1526 32.8576 48.7374 32.947 48.4075C32.9897 48.264 33.0208 48.1398 33.048 48.0311C33.083 48.0389 33.1374 48.004 33.2345 47.8759C33.4094 47.8332 33.7514 47.6974 34.4392 47.3598C36.0052 46.5992 43.0932 42.703 50.15 38.7602C53.6823 36.7889 57.2069 34.8097 60.0281 33.1993C61.3221 32.4581 62.4568 31.8061 63.3933 31.2667C63.3661 31.3094 63.3389 31.3482 63.3 31.3909C63.1213 31.6276 62.7754 32.0855 62.2664 32.6793C61.7573 33.2769 61.0773 33.9987 60.3156 34.8408C59.5501 35.6907 58.7496 36.7074 57.9569 37.794C57.1641 38.8805 56.3326 40.0292 55.567 41.2322C54.8015 42.4352 54.1176 43.7003 53.6202 44.9848C53.1267 46.2615 52.8235 47.5422 52.7303 48.7064C52.7109 48.9974 52.6953 49.2807 52.6992 49.5523C52.6992 49.6882 52.6992 49.8201 52.707 49.9559C52.707 50.0646 52.7147 50.1732 52.7225 50.278L52.7303 50.4527L52.8974 50.5031C53.0023 50.5341 53.1072 50.5613 53.2044 50.5885C53.2665 50.604 53.3287 50.6156 53.387 50.6312C53.5036 50.6506 53.6202 50.6816 53.7329 50.7049C53.9582 50.7476 54.172 50.7748 54.374 50.8019C54.7782 50.8446 55.1318 50.8562 55.4232 50.8485C55.7186 50.8485 55.9789 50.798 56.146 50.7165C56.2743 50.6583 56.3831 50.5846 56.4569 50.4915C56.5346 50.4022 56.5813 50.313 56.6123 50.2237C56.6629 50.0801 56.6629 49.9559 56.6395 49.8628C56.6667 49.7347 56.6939 49.5485 56.7289 49.2768C56.7872 48.7917 56.8921 47.4063 57.3196 45.6406C57.5333 44.7559 57.8286 43.7741 58.2211 42.7728C58.6175 41.7716 59.1071 40.7549 59.6511 39.7576C60.7431 37.759 62.0138 35.8536 62.9775 34.2703C63.6964 33.0984 64.2365 32.1049 64.5474 31.484C63.9024 33.1527 62.6278 36.6453 61.6291 40.2427C61.0151 42.4507 60.5294 44.7015 60.2612 46.5216C60.1175 47.4335 60.0203 48.2446 60.0125 48.9082C59.997 49.5601 60.0669 50.0491 60.1252 50.2974C60.2185 50.6428 60.3001 50.8485 60.37 50.9649C60.37 50.9921 60.37 51.0192 60.3739 51.0542C60.3895 51.124 60.4128 51.1861 60.5216 51.2249C60.5954 51.2443 60.7742 51.2404 61.0268 51.1977C61.2716 51.1473 61.5941 51.0464 61.8856 50.8524C62.1809 50.6467 62.4063 50.3401 62.4918 50.0568C62.585 49.7813 62.5462 49.5485 62.4957 49.4631C62.5073 49.3505 62.519 49.207 62.5306 49.0207C62.5306 48.9004 62.5384 48.7335 62.5384 48.5162C62.5539 48.3028 62.5656 48.0389 62.5889 47.7362C62.6006 47.5887 62.6045 47.4257 62.6122 47.255C62.6317 47.0881 62.6472 46.9057 62.6705 46.7195C62.7094 46.343 62.7444 45.9356 62.8104 45.5048C63.0475 43.7702 63.5177 41.6436 64.0578 39.517C64.6018 37.3981 65.1497 35.2638 65.4762 33.5175C65.8065 31.7712 65.9502 30.4324 65.9347 29.955C65.9347 29.664 65.9269 29.4816 65.9036 29.3613C65.9852 29.2255 66.0435 29.0935 66.0824 28.9732C66.1407 28.9577 66.1756 28.8762 66.1445 28.5735L66.1484 28.5619ZM14.0419 62.603C13.9875 62.5991 13.9175 62.5913 13.8437 62.5875C13.6727 62.5875 13.3463 62.6146 12.9266 62.7116C12.5069 62.8048 12.0018 62.9716 11.4383 63.0531C10.8826 63.1424 10.2259 63.1307 9.74404 62.7893C9.26995 62.4555 9.01348 61.7648 9.24275 61.1982C9.34378 60.911 9.54197 60.6588 9.78678 60.4919C10.0355 60.325 10.3658 60.2319 10.6883 60.162C11.0109 60.0961 11.3256 60.0767 11.5899 60.1271C11.8619 60.1776 12.0795 60.3056 12.2777 60.4803C12.6701 60.8334 12.9849 61.2991 13.2492 61.6095C13.5017 61.9316 13.6844 62.1645 13.7854 62.2925C13.9059 62.44 13.9836 62.5292 14.0497 62.5797C14.0497 62.5875 14.0419 62.5913 14.038 62.5991L14.0419 62.603ZM3.68197 83.4149C3.41773 83.8146 3.14183 84.2997 2.77655 84.6334C2.39573 84.9905 1.97605 85.0681 1.66906 84.7033C1.51362 84.5325 1.37761 84.2764 1.27269 84.0319C1.17554 83.7875 1.16 83.6012 1.22606 83.4033C1.36207 82.9997 1.78952 82.666 2.16646 82.4292C2.57837 82.2042 2.93976 82.0024 3.22343 81.8433C3.51099 81.688 3.70917 81.6259 3.81021 81.5988C3.87627 81.5794 3.9229 81.5677 3.96565 81.5561C4.13663 81.7036 4.31538 81.851 4.51356 82.0024C4.33481 82.3128 4.05502 82.8134 3.67809 83.4072L3.68197 83.4149ZM4.90604 81.3543C4.79724 81.4047 4.71563 81.4436 4.65346 81.4824C4.61071 81.4552 4.56797 81.4241 4.52911 81.3931C4.55242 81.3232 4.57962 81.234 4.59905 81.0982C4.64957 80.8265 4.73118 80.0465 4.87884 79.0259C4.9177 78.7737 4.96045 78.4865 5.00708 78.2265C5.03428 78.1023 5.06925 77.9936 5.11977 77.9083C5.17029 77.8229 5.22858 77.7724 5.32184 77.722C5.50836 77.6289 5.79204 77.6056 6.04462 77.6599C6.30498 77.7065 6.56145 77.8229 6.77907 77.9936C7.21818 78.3274 7.47076 78.859 7.41636 79.3713C7.3775 79.8874 7.09771 80.3531 6.75186 80.6131C6.42544 80.8731 5.9669 80.9623 5.62106 81.0865C5.27521 81.1991 5.02262 81.2922 4.89827 81.3504L4.90604 81.3543ZM14.959 82.534C14.9862 82.4603 14.959 82.3982 14.6209 82.1809C14.4072 82.0412 13.7427 81.6764 13.1909 80.9003C12.9188 80.52 12.674 80.0193 12.7401 79.5614C12.8023 79.1268 13.2608 78.6999 13.7582 78.5331C14.0147 78.4477 14.2867 78.4166 14.5276 78.4593C14.7763 78.4981 14.9901 78.6184 15.1027 78.7659C15.2154 78.9056 15.2349 79.1346 15.2426 79.4178C15.2543 79.6973 15.2621 79.9573 15.2621 80.2095C15.2621 81.2068 15.1921 81.9636 15.2038 82.2274C15.2038 82.3089 15.2115 82.3749 15.2115 82.4331C15.1261 82.468 15.0445 82.5068 14.959 82.534ZM16.0043 83.3916C16.2219 83.6322 16.49 83.9466 16.6882 84.3502C16.8864 84.746 17.0107 85.2505 16.9097 85.7239C16.8126 86.1935 16.4628 86.6553 16.0121 86.8687C15.7906 86.9774 15.5419 87.0162 15.3709 86.958C15.1921 86.9036 15.0561 86.76 14.9706 86.5427C14.7919 86.1081 14.7996 85.5493 14.8113 85.0875C14.8579 84.1522 15.0989 83.477 15.1533 83.2286C15.1649 83.186 15.1727 83.1433 15.1805 83.1045C15.3165 83.054 15.4525 82.9958 15.5846 82.9337C15.6817 83.0385 15.8255 83.186 16.0043 83.3839V83.3916ZM21.8604 73.6706C22.1091 73.4688 22.793 72.7936 23.951 72.4055C24.2347 72.3046 24.5495 72.2309 24.8759 72.1882C25.2101 72.1416 25.552 72.1222 25.8785 72.1766C26.1971 72.2348 26.4769 72.3667 26.6518 72.6112C26.8344 72.8634 26.9626 73.2166 26.9976 73.5503C27.0365 73.8879 26.9976 74.2411 26.846 74.5011C26.6984 74.7611 26.4575 74.924 26.1505 74.9861C25.8435 75.056 25.4976 75.0366 25.1596 75.0055C24.8254 74.9706 24.5067 74.9163 24.2036 74.8503C23.0029 74.5748 22.113 74.1906 21.7788 74.113C21.7555 74.1013 21.736 74.0975 21.7127 74.0936C21.6894 74.0121 21.6739 73.9345 21.6506 73.853C21.705 73.8064 21.7749 73.7482 21.8604 73.6706ZM21.0638 74.1751C20.9433 74.2411 20.7179 74.3885 20.4187 74.5942C20.1234 74.7921 19.7542 75.0443 19.3151 75.25C18.876 75.4479 18.3397 75.6032 17.8229 75.5217C17.3061 75.4518 16.7854 75.1103 16.6571 74.6485C16.5911 74.4196 16.6144 74.1518 16.7115 73.9345C16.8164 73.7172 16.9758 73.5813 17.1856 73.5231C17.4032 73.461 17.6869 73.4766 17.9667 73.496C18.2426 73.5115 18.5068 73.5387 18.7555 73.5775C19.7542 73.7172 20.4615 73.9966 20.7218 74.0664C20.885 74.113 20.9899 74.1324 21.0638 74.1363C21.0638 74.1518 21.0677 74.1596 21.0715 74.1751H21.0638ZM17.0302 62.1295C17.5742 62.0869 18.1921 62.0597 18.6117 62.3934C18.8255 62.5564 19.0003 62.7892 19.0781 63.0493C19.1635 63.3093 19.1558 63.6042 19.0586 63.8681C18.8838 64.3997 18.3125 64.7451 17.7491 64.7917C17.1856 64.846 16.6299 64.6287 16.2064 64.3454C15.7711 64.0582 15.4525 63.7128 15.2038 63.4334C14.9551 63.1463 14.7841 62.9212 14.6792 62.8087C14.6792 62.8009 14.6753 62.797 14.6675 62.7931C14.6947 62.731 14.7219 62.6651 14.7569 62.6069C14.7919 62.5991 14.8268 62.5875 14.8696 62.5719C15.1571 62.5021 15.946 62.211 17.0302 62.1295ZM28.0546 54.1936C27.6077 54.2324 27.0365 54.2635 26.4225 54.147C25.8202 54.0384 25.144 53.7667 24.6855 53.2467C24.223 52.7384 23.986 51.9506 24.2541 51.3219C24.3785 51.0037 24.6 50.8058 24.9419 50.6544C25.2645 50.5031 25.6259 50.4216 25.9639 50.4294C26.302 50.4294 26.6284 50.5147 26.881 50.6816C27.1297 50.833 27.3201 51.0774 27.4756 51.3413C27.767 51.873 27.9846 52.4473 28.1828 52.8548C28.3771 53.2739 28.5248 53.5766 28.6142 53.7318C28.7268 53.922 28.8046 54.0345 28.8667 54.1082C28.6763 54.1276 28.4004 54.1626 28.0546 54.1936ZM32.1115 54.1858C32.6788 54.279 33.3822 54.3954 33.8446 54.7718C34.07 54.9581 34.2371 55.2259 34.2488 55.4897C34.2682 55.7497 34.14 56.0602 33.9418 56.3241C33.5571 56.8519 32.9081 57.2089 32.298 57.2244C31.991 57.2283 31.7112 57.1584 31.4587 57.0226C31.2061 56.879 30.9885 56.6772 30.7864 56.4677C29.982 55.6139 29.6012 54.7951 29.4419 54.5235C29.4108 54.4769 29.3913 54.4381 29.368 54.3993C29.5546 54.3255 29.6362 54.2635 29.6556 54.213C29.6789 54.2091 29.6983 54.213 29.7255 54.2014C30.0442 54.1781 30.9418 54.0229 32.1115 54.182V54.1858ZM24.3513 19.2018C23.9782 19.8615 23.508 20.5794 22.9912 21.3555C22.4783 22.1278 21.9226 22.9427 21.3358 23.7732C20.1661 25.4302 18.8915 27.1261 17.6053 28.5541C16.968 29.2643 16.319 29.9007 15.6973 30.4285C15.3864 30.6885 15.0833 30.9097 14.7802 31.0766C14.6287 31.1619 14.4849 31.2357 14.3372 31.2939C14.2673 31.321 14.1857 31.3521 14.1235 31.3715C14.0574 31.3909 14.0458 31.387 14.038 31.387C14.038 31.4258 13.8282 31.1775 13.7155 31.0455C13.595 30.898 13.4823 30.7622 13.3929 30.638C13.2142 30.3974 13.1093 30.2073 13.0432 30.0792C12.8955 29.7843 12.8528 29.5903 12.8139 29.4661C12.9188 29.4156 13.0898 29.2953 13.389 29.0547C13.7504 28.7637 14.718 27.8556 15.9887 26.6565C16.626 26.055 17.3372 25.3914 18.1105 24.7084C18.4991 24.3669 18.8954 24.0409 19.319 23.7033C19.7426 23.3618 20.1545 23.0009 20.5625 22.6284C22.1907 21.1382 23.5974 19.4346 24.6039 17.9871C25.0235 17.3856 25.3811 16.8384 25.6608 16.3495C25.657 16.3728 25.6453 16.396 25.6375 16.4232C25.4899 16.8346 25.1168 17.894 24.3552 19.2018H24.3513ZM25.7075 25.046C25.416 27.3084 24.8137 29.5398 24.2114 31.2706C23.6168 33.0091 22.9873 34.2471 22.7697 34.6817C22.5637 35.1086 22.486 35.322 22.4783 35.4268C22.3772 35.4501 22.2412 35.4617 22.0702 35.4035C21.9692 35.3686 21.8215 35.2909 21.6506 35.1396C21.4757 34.9883 21.262 34.7787 21.0405 34.5265C20.9278 34.4023 20.8151 34.2665 20.7024 34.1112C20.5975 33.9676 20.4576 33.7852 20.4148 33.6572C20.3721 33.5446 20.3993 33.4049 20.4887 33.207C20.5936 33.0014 20.6985 32.7879 20.8112 32.5628C21.7166 30.7583 22.6959 28.4416 23.5469 26.086C24.4018 23.7266 25.1052 21.3128 25.5753 19.3531C25.793 18.4761 25.9523 17.6883 26.0727 17.0402C26.0572 17.5176 26.0417 18.0337 26.0261 18.6041C25.9717 20.4591 25.9717 22.7797 25.7075 25.0383V25.046ZM33.3628 46.7039C33.3472 46.6069 33.3317 46.506 33.3045 46.3818C33.0014 44.8568 31.276 37.8289 29.8499 30.7389C28.3927 23.6529 27.2308 16.5163 26.9005 14.9951C26.7761 14.4635 26.6867 14.1608 26.6129 13.99C26.6401 13.9706 26.6751 13.959 26.7062 13.9396C26.7644 14.0599 27.0209 14.3238 27.8564 14.9718C28.6064 15.5501 30.8447 17.0635 34.035 18.6391C37.1477 20.1991 41.1657 21.7708 45.2421 23.1523C44.9623 23.6335 44.6825 24.1147 44.4027 24.6036C41.6981 29.3109 39.2461 34.1539 37.3459 38.0734C35.4456 41.9928 34.0778 44.9809 33.6309 46.052C33.526 46.3042 33.4405 46.5099 33.3628 46.7001V46.7039ZM64.3998 30.7816C64.1355 31.2046 63.4555 32.4037 62.4607 33.956C61.4737 35.5083 60.1796 37.4137 59.0683 39.4432C58.5126 40.46 58.0152 41.5116 57.6149 42.5478C57.2185 43.58 56.931 44.5929 56.7328 45.5087C56.3364 47.3404 56.2898 48.7646 56.3015 49.2535C56.3209 49.6067 56.3442 49.8162 56.3753 49.9443C56.3636 49.9831 56.3481 50.0258 56.3209 50.0723C56.2548 50.1694 56.1655 50.2625 55.9828 50.3168C55.7691 50.3983 55.1823 50.3712 54.4246 50.2625C54.2303 50.2353 54.0321 50.2004 53.8222 50.1538C53.7212 50.1267 53.6046 50.1034 53.4958 50.0723C53.4414 50.0607 53.3831 50.0491 53.3287 50.0297L53.2899 50.0141C53.2899 50.0141 53.2743 49.9986 53.2743 49.987C53.2743 49.9676 53.2743 49.9947 53.2743 49.9094C53.2704 49.7852 53.2743 49.6571 53.2743 49.5291C53.2743 49.2691 53.3015 49.0013 53.3248 48.7258C53.4298 47.6237 53.7329 46.4051 54.2186 45.1866C54.7043 43.9603 55.3727 42.7379 56.1227 41.5582C56.8727 40.3785 57.7004 39.2337 58.4776 38.1471C59.2587 37.0566 60.0281 36.0632 60.7703 35.2172C61.5086 34.3635 62.177 33.6145 62.6705 32.9936C63.1679 32.3688 63.4943 31.876 63.6459 31.6043C63.8363 31.2706 63.9296 31.0533 63.9801 30.9058C64.1666 30.7971 64.3376 30.6963 64.5086 30.5992C64.4697 30.6574 64.4347 30.7157 64.3881 30.7894L64.3998 30.7816ZM64.5474 29.8192C64.3687 29.924 64.1511 30.0404 63.9024 30.1724C63.8169 30.215 63.7275 30.2655 63.6381 30.3121C63.5254 30.3742 63.4011 30.4401 63.2806 30.5061C62.7482 30.7971 62.142 31.127 61.4736 31.4879C60.8946 31.8022 60.269 32.1437 59.6045 32.5046C56.7639 34.0841 53.2238 36.036 49.6876 37.9996C47.7019 39.1095 45.7201 40.2233 43.8626 41.2671C43.4507 41.5 43.0426 41.7289 42.6424 41.9579C42.553 42.0122 42.4598 42.0588 42.3704 42.1131C41.4416 42.637 40.5595 43.1376 39.7396 43.6072C38.5194 44.3018 37.4313 44.9227 36.5376 45.4466C36.3511 45.5514 36.1762 45.6523 36.0091 45.7493C35.7138 45.9201 35.4456 46.0792 35.2086 46.2227C35.1581 46.2499 35.1114 46.2771 35.0687 46.3042C35.0182 46.3353 34.9715 46.3624 34.9249 46.3896C34.8472 46.4362 34.7734 46.4789 34.7073 46.5254C34.6918 46.5293 34.684 46.5371 34.6723 46.5448C34.6063 46.5836 34.548 46.6225 34.4897 46.6535C34.3498 46.7427 34.2332 46.8165 34.14 46.8747C33.9379 47.0066 33.7786 47.1153 33.6387 47.2162C33.7747 46.9756 33.9418 46.6729 34.1516 46.2771C34.3964 45.8153 34.8239 44.9576 35.399 43.7935C35.4573 43.6693 35.5233 43.5412 35.5855 43.4132C35.6555 43.2696 35.7254 43.1299 35.8031 42.9785C35.8614 42.8621 35.9197 42.7379 35.9819 42.6137C36.0674 42.4391 36.1529 42.2645 36.2461 42.0782C36.3005 41.9695 36.3549 41.857 36.4132 41.7445C36.592 41.3758 36.7863 40.9877 36.9845 40.5842C37 40.5531 37.0194 40.5182 37.035 40.4833C37.1438 40.2659 37.2565 40.0409 37.3692 39.8119C37.5946 39.354 37.8316 38.8844 38.0725 38.3955C38.1192 38.3062 38.1619 38.217 38.2046 38.1277C38.6554 37.2351 39.1295 36.2922 39.6269 35.3181C39.7629 35.0542 39.8989 34.7826 40.0427 34.5109C40.1826 34.2354 40.3225 33.9599 40.4701 33.6844C40.8043 33.0363 41.1463 32.3805 41.4999 31.7091C41.7758 31.1813 42.0595 30.6536 42.3471 30.118C42.5724 29.695 42.8017 29.2721 43.0349 28.8491C43.2525 28.4494 43.474 28.0496 43.6916 27.6499C44.1812 26.769 44.6747 25.8842 45.1838 25.0072C45.483 24.4794 45.7861 23.9594 46.0853 23.4394C50.0645 24.7821 54.0437 26.0162 57.2846 26.9437C60.6809 27.9255 63.2728 28.5852 64.1977 28.7792C64.8855 28.9228 65.2974 28.981 65.5383 28.9926C65.4645 29.0897 65.3712 29.1983 65.2508 29.3031C65.107 29.435 64.8738 29.6213 64.5435 29.8192H64.5474ZM65.0681 30.2267C65.0371 30.2849 65.006 30.3586 64.9632 30.4401C64.9827 30.3703 64.9904 30.3198 64.9943 30.281C65.0215 30.2616 65.0409 30.2461 65.0681 30.2267ZM65.515 29.9124C65.4529 30.3742 65.2469 31.6858 64.8894 33.4011C64.5241 35.1163 63.9568 37.2274 63.4166 39.3617C62.8765 41.4922 62.4179 43.6538 62.2159 45.4311C62.1537 45.8696 62.1343 46.2887 62.1032 46.669C62.0876 46.8592 62.0799 47.0454 62.0682 47.2162C62.0604 47.3947 62.0643 47.5577 62.0643 47.7129C62.0643 48.0234 62.0643 48.2873 62.0643 48.5123C62.0799 48.7335 62.0954 48.9043 62.1109 49.0246C62.1265 49.172 62.142 49.2846 62.1615 49.3855C62.1265 49.4049 62.0954 49.432 62.0721 49.4825C62.0449 49.5329 62.0216 49.6688 61.9361 49.824C61.8584 49.987 61.699 50.1694 61.5086 50.2974C61.2094 50.4953 60.813 50.6118 60.5877 50.7049C60.5799 50.5846 60.5605 50.4255 60.5449 50.2082C60.304 49.2807 61.0423 44.7559 62.2703 40.3824C63.4866 36.0011 65.0487 31.713 65.2858 30.7545C65.4179 30.2345 65.4256 30.0443 65.3907 29.9628C65.4412 29.9162 65.4956 29.8736 65.5345 29.827C65.5345 29.858 65.5267 29.8813 65.5189 29.9085L65.515 29.9124ZM65.7016 28.7443C65.5073 28.6434 65.107 28.4843 64.3259 28.232C63.4283 27.9371 60.8597 27.1998 57.4867 26.1714C54.3158 25.2051 50.4376 23.9827 46.5322 22.6672C47.4338 21.1072 48.312 19.5588 49.0969 18.022C50.286 15.7286 51.3275 13.505 52.2135 11.5103C53.9738 7.50935 55.0929 4.41259 55.4582 3.30661C55.8274 2.14629 56.045 1.53315 56.0916 1.25762C56.0333 1.24986 55.9634 1.24598 55.8818 1.2421C55.6953 1.49046 55.3766 2.05316 54.9142 3.13198C54.7704 3.46571 54.5528 4.00124 54.2613 4.70364C53.9699 5.4138 53.6046 6.29859 53.1733 7.3192C52.6875 8.46787 52.1124 9.77953 51.4596 11.2154C50.558 13.1867 49.5088 15.3871 48.312 17.6573C48.1799 17.9173 48.0438 18.1734 47.9039 18.4373C47.7563 18.7089 47.6086 18.9806 47.4571 19.2561C47.3211 19.5044 47.1812 19.7567 47.0413 20.0051C47.0296 20.0283 47.0141 20.0516 47.0024 20.0788C46.8509 20.3427 46.7032 20.6066 46.5516 20.8704C46.4895 20.9752 46.4312 21.0839 46.369 21.1887C46.2563 21.3866 46.1436 21.5845 46.027 21.7824C45.9143 21.9803 45.7978 22.1821 45.6851 22.38C45.2693 22.2403 44.8574 22.0967 44.4455 21.9531C44.2006 21.8678 43.952 21.7824 43.711 21.697C43.5012 21.6272 43.2952 21.5534 43.0854 21.4797C42.6735 21.3284 42.2616 21.1848 41.8535 21.0295C41.6515 20.9558 41.4494 20.8821 41.2512 20.8083C40.7072 20.6066 40.1709 20.4009 39.6424 20.1913C39.4054 20.0982 39.1645 20.0051 38.9274 19.908C38.8614 19.8809 38.7992 19.8576 38.737 19.8343C38.6904 19.8149 38.6438 19.7994 38.601 19.78C38.4067 19.7024 38.2163 19.6209 38.0259 19.5433C37.3225 19.2561 36.6464 18.965 35.9935 18.674C35.4184 18.4217 34.8705 18.1617 34.3459 17.9095C32.7643 17.1528 31.4159 16.4193 30.3551 15.8139C29.302 15.2008 28.5442 14.7235 28.144 14.4829C27.4367 14.056 27.0831 13.8736 26.9005 13.8193C27.052 13.7262 27.2463 13.602 27.495 13.4351C27.8137 13.2294 28.4082 12.8142 29.2437 12.3097C29.6595 12.0614 30.1452 11.782 30.6815 11.5181C31.2372 11.2542 31.8434 10.967 32.4807 10.6604C33.2112 10.3112 34.0001 9.94252 34.82 9.55834C35.5972 9.19744 36.4055 8.82877 37.237 8.45623C38.2396 8.0022 39.2733 7.5404 40.3186 7.09024C40.5207 7.00099 40.7227 6.91561 40.9248 6.82636C41.1308 6.7371 41.3328 6.65173 41.5349 6.56635C42.8483 6.00366 44.1696 5.45649 45.448 4.93648C46.2641 4.60662 47.0607 4.28841 47.8379 3.98184C48.8677 3.57825 49.8508 3.20183 50.7601 2.85257C52.093 2.35585 53.2665 1.91733 54.1875 1.56807C54.9103 1.30807 55.5087 1.23822 55.874 1.23822C55.975 1.11016 56.0372 1.06747 56.0644 1.07911C56.0955 1.09075 56.1033 1.14508 56.0839 1.25374C56.2082 1.26538 56.3131 1.28867 56.4025 1.31195C56.3714 1.39344 56.4452 1.59136 56.83 2.31704C56.9776 2.60421 57.2613 3.15138 57.5838 3.92751C57.9102 4.70752 58.2677 5.71649 58.6874 6.87293C59.5112 9.18968 60.4827 12.0885 61.4076 15.0068C62.3169 17.9289 63.2223 20.8549 63.9568 23.2066C64.6795 25.5544 65.2236 27.3317 65.4645 27.9449C65.5811 28.2437 65.6705 28.4532 65.7521 28.6046C65.7326 28.6473 65.7132 28.6977 65.6938 28.7404L65.7016 28.7443Z" fill="#3B2900"/>
<path d="M42.8329 33.0481C41.9896 32.9704 41.5622 32.3612 41.5039 31.7092C41.7798 31.1815 42.0635 30.6537 42.351 30.1182C42.5687 30.0173 42.8212 29.9707 43.1166 29.9979C45.0829 30.1803 44.7953 33.2304 42.8329 33.0481Z" fill="#FFFCF3"/>
<path d="M4.519 82.0058C4.34024 82.3163 4.06046 82.8169 3.67964 83.4145C3.41539 83.8142 3.13949 84.2954 2.7781 84.633C2.39728 84.9901 1.97759 85.0677 1.66672 84.7029C1.5074 84.5322 1.37527 84.276 1.27424 84.0315C1.17709 83.7871 1.16155 83.6008 1.22761 83.4029C1.36362 82.9993 1.78718 82.6694 2.16801 82.4327C2.57991 82.2038 2.94519 82.0058 3.22887 81.8467C3.51254 81.6915 3.71461 81.6294 3.81176 81.6023C3.87782 81.5829 3.92445 81.5712 3.97108 81.5596C4.13818 81.707 4.32082 81.8545 4.519 82.0058Z" fill="#FFFCF3"/>
<path d="M7.4302 79.3753C7.39134 79.8914 7.10767 80.3571 6.76571 80.6171C6.43929 80.8771 5.97686 80.9663 5.6349 81.0944C5.28905 81.2069 5.03646 81.2962 4.91211 81.3583C4.80331 81.4087 4.7217 81.4514 4.66341 81.4902C4.62067 81.4631 4.57792 81.4281 4.53906 81.3971C4.56238 81.3311 4.58569 81.2419 4.60901 81.106C4.66341 80.8344 4.74113 80.0544 4.89268 79.0299C4.93154 78.7776 4.9704 78.4905 5.02092 78.2343C5.04812 78.1063 5.08309 77.9976 5.12973 77.9123C5.18024 77.8269 5.23853 77.7764 5.33179 77.7299C5.51832 77.6367 5.80199 77.6173 6.05846 77.6678C6.31882 77.7182 6.57529 77.8346 6.79679 78.0015C7.23979 78.3352 7.48849 78.863 7.43797 79.3753H7.4302Z" fill="#FFFCF3"/>
<path d="M14.9563 82.5302C14.9835 82.4565 14.9563 82.3983 14.6221 82.181C14.4084 82.0413 13.7439 81.6765 13.1882 80.8965C12.9162 80.5162 12.6714 80.0156 12.7375 79.5577C12.7996 79.123 13.2582 78.6923 13.7556 78.5293C14.0082 78.4439 14.2841 78.4129 14.525 78.4556C14.7737 78.4944 14.9874 78.6108 15.1001 78.7621C15.2128 78.9018 15.2322 79.1308 15.24 79.4141C15.2517 79.6935 15.2594 79.9574 15.2555 80.2057C15.2594 81.2031 15.1895 81.9598 15.1973 82.2276C15.1973 82.309 15.205 82.375 15.205 82.4293C15.1195 82.4643 15.0379 82.5031 14.9486 82.5341C14.9486 82.5341 14.9499 82.5315 14.9524 82.5264L14.9563 82.5302Z" fill="#FFC82A"/>
<path d="M16.9083 85.7238C16.8073 86.1934 16.4614 86.6552 16.0106 86.8725C15.7891 86.9812 15.5404 87.02 15.3695 86.9618C15.1907 86.9074 15.0547 86.7639 14.9692 86.5465C14.7905 86.1158 14.7982 85.5492 14.8099 85.0913C14.8565 84.1599 15.1013 83.4847 15.1519 83.2325C15.1635 83.1898 15.1713 83.1471 15.1791 83.1083C15.319 83.0578 15.4511 82.9957 15.5871 82.9414C15.6842 83.0423 15.828 83.1937 16.0068 83.3916C16.2283 83.6322 16.4925 83.9504 16.6907 84.3501C16.8889 84.7459 17.0171 85.2465 16.9161 85.7238H16.9083Z" fill="#FFC82A"/>
<path d="M26.8439 74.5009C26.7002 74.7609 26.4592 74.92 26.1484 74.986C25.8375 75.0559 25.4955 75.0403 25.1574 75.0054C24.8271 74.9705 24.5046 74.9162 24.2015 74.8463C22.9969 74.5708 22.107 74.1866 21.7767 74.109C21.7534 74.0973 21.7339 74.0973 21.7106 74.0896C21.6912 74.0081 21.6718 73.9305 21.6484 73.849C21.7067 73.8024 21.7767 73.7442 21.8583 73.6666C22.107 73.4648 22.7909 72.7896 23.9528 72.4015C24.2365 72.3045 24.5512 72.2269 24.8777 72.1842C25.208 72.1376 25.5538 72.1182 25.8763 72.1725C26.1989 72.2307 26.4748 72.3666 26.6535 72.6072C26.8362 72.8594 26.9605 73.2126 26.9994 73.5463C27.0421 73.8839 26.9994 74.237 26.8478 74.4971L26.8439 74.5009Z" fill="#FF6520"/>
<path d="M21.0652 74.1757C21.0652 74.1757 21.0652 74.1796 21.0613 74.1757C20.9369 74.2417 20.7154 74.3891 20.4162 74.5909C20.1209 74.7888 19.7478 75.0411 19.3087 75.2468C18.8696 75.4485 18.3333 75.5999 17.8165 75.5184C17.2997 75.4485 16.779 75.107 16.6507 74.6414C16.5847 74.4124 16.608 74.1446 16.7051 73.9273C16.8101 73.71 16.9694 73.5742 17.1792 73.516C17.3968 73.4539 17.6805 73.4694 17.9603 73.4888C18.2362 73.5043 18.5004 73.5315 18.7491 73.5703C19.7478 73.71 20.4551 73.9894 20.7154 74.0632C20.8786 74.1058 20.9835 74.1291 21.0574 74.133C21.0574 74.1446 21.0613 74.1563 21.0652 74.1718V74.1757Z" fill="#FF6520"/>
<path d="M14.0521 62.5836C14.0521 62.5836 14.0482 62.5952 14.0404 62.603C13.986 62.5991 13.9161 62.5913 13.8384 62.5875C13.6674 62.5875 13.341 62.6146 12.9213 62.7116C12.5055 62.8009 11.9964 62.9678 11.433 63.0531C10.8812 63.1385 10.2206 63.1307 9.73871 62.7854C9.26463 62.4516 9.00816 61.7609 9.23743 61.1943C9.33846 60.9033 9.53276 60.651 9.78146 60.488C10.0302 60.3212 10.3605 60.228 10.683 60.162C11.0055 60.0961 11.3164 60.0767 11.5845 60.1232C11.8565 60.1737 12.0742 60.3017 12.2762 60.4764C12.6687 60.8334 12.9835 61.2913 13.2516 61.6056C13.5003 61.9277 13.6829 62.1606 13.7879 62.2886C13.9083 62.4361 13.9899 62.5254 14.0521 62.5797V62.5836Z" fill="#D51F91"/>
<path d="M19.063 63.8674C18.8881 64.3991 18.3207 64.7444 17.7534 64.791C17.1899 64.8453 16.6381 64.628 16.2107 64.3447C15.7755 64.0576 15.4568 63.7122 15.2081 63.4328C14.9594 63.1456 14.7884 62.9205 14.6835 62.8119C14.6835 62.8041 14.6757 62.8002 14.668 62.7925C14.6952 62.7304 14.7224 62.6683 14.7573 62.6062C14.7923 62.5984 14.8273 62.5829 14.87 62.5713C15.1576 62.4975 15.9426 62.2104 17.0306 62.125C17.5746 62.0862 18.1925 62.059 18.6161 62.3889C18.8298 62.5519 19.0047 62.7847 19.0863 63.0447C19.1718 63.3047 19.164 63.5996 19.0669 63.8635L19.063 63.8674Z" fill="#D51F91"/>
<path d="M28.8659 54.1048C28.6755 54.1281 28.3996 54.163 28.0537 54.194C27.6069 54.2328 27.0356 54.26 26.4255 54.1475C25.8232 54.0349 25.1471 53.7672 24.6885 53.2471C24.2261 52.7349 23.989 51.951 24.2572 51.3223C24.3854 51.008 24.603 50.8062 24.945 50.6549C25.2714 50.5035 25.6289 50.422 25.967 50.4259C26.3051 50.4259 26.6315 50.5113 26.8802 50.6743C27.1328 50.8256 27.3193 51.0701 27.4747 51.334C27.7662 51.8656 27.9877 52.44 28.182 52.8474C28.3763 53.2665 28.5278 53.5692 28.6133 53.7245C28.726 53.9146 28.8037 54.0272 28.8659 54.1009V54.1048Z" fill="#FF6520"/>
<path d="M33.937 56.324C33.5523 56.8518 32.8995 57.2127 32.2933 57.2243C31.9863 57.2321 31.7065 57.1622 31.4539 57.0225C31.2013 56.8789 30.9798 56.681 30.7816 56.4715C29.9772 55.6177 29.5964 54.795 29.4332 54.5273C29.406 54.4807 29.3827 54.4419 29.3594 54.4031C29.5498 54.3294 29.6275 54.2673 29.6469 54.2168C29.6703 54.2129 29.6936 54.2129 29.7169 54.2091C30.0355 54.1819 30.9332 54.0267 32.1028 54.1897C32.6702 54.2828 33.3736 54.3992 33.836 54.7795C34.0652 54.9658 34.2285 55.2336 34.244 55.4936C34.2634 55.7536 34.1352 56.064 33.937 56.3279V56.324Z" fill="#FF6520"/>
<path d="M65.5311 29.8311C65.5311 29.8582 65.5233 29.8815 65.5155 29.9125C65.4534 30.3743 65.2513 31.6821 64.8899 33.3974C64.5246 35.1126 63.9612 37.2276 63.4171 39.3581C62.877 41.4885 62.4146 43.6539 62.2125 45.4235C62.1503 45.862 62.127 46.285 62.0998 46.6653C62.0842 46.8594 62.0765 47.0417 62.0648 47.2164C62.0609 47.3949 62.0648 47.5579 62.0609 47.7131C62.0609 48.0236 62.0609 48.2913 62.0609 48.5125C62.0765 48.7376 62.092 48.9083 62.1076 49.0248C62.127 49.1722 62.1387 49.2848 62.1581 49.3857C62.1231 49.4051 62.092 49.4361 62.0687 49.4827C62.0376 49.537 62.0182 49.669 61.9327 49.8242C61.8511 49.9872 61.6957 50.1696 61.5052 50.2976C61.206 50.4955 60.8097 50.6119 60.5882 50.7051C60.5804 50.5848 60.561 50.4257 60.5454 50.2084C60.3045 49.2809 61.0428 44.756 62.2708 40.3825C63.4871 36.0052 65.0492 31.7132 65.2824 30.7585C65.4145 30.2385 65.4262 30.0445 65.3873 29.9669C65.4417 29.9203 65.4883 29.8737 65.535 29.8311H65.5311Z" fill="#FFFCF3"/>
<path d="M64.5133 30.5918C64.4744 30.65 64.4395 30.7082 64.3928 30.7819C64.1325 31.2011 63.4485 32.4002 62.4537 33.9524C61.4706 35.5047 60.1727 37.4101 59.0613 39.4397C58.5056 40.4564 58.0082 41.5081 57.608 42.5442C57.2116 43.5765 56.9241 44.5932 56.7259 45.5051C56.3295 47.3368 56.2829 48.7571 56.2984 49.25C56.314 49.6031 56.3373 49.8088 56.3723 49.9407C56.3606 49.9795 56.3451 50.0222 56.3179 50.0688C56.2518 50.1658 56.1624 50.2589 55.9798 50.3133C55.766 50.3948 55.1793 50.3676 54.4215 50.2628C54.2311 50.2318 54.029 50.1969 53.8192 50.1503C53.7182 50.1231 53.6055 50.1037 53.4967 50.0727C53.4461 50.061 53.3879 50.0455 53.3296 50.03L53.2907 50.0145C53.2907 50.0145 53.2752 50.0028 53.2752 49.9873C53.2752 49.9679 53.2752 49.9912 53.2752 49.9058C53.2713 49.7816 53.2752 49.6574 53.2752 49.5255C53.2752 49.2694 53.2985 48.9977 53.3257 48.7222C53.4306 47.624 53.7337 46.4016 54.2194 45.183C54.7052 43.9568 55.3736 42.7305 56.1236 41.5546C56.8735 40.371 57.6974 39.2301 58.4784 38.1397C59.2595 37.0492 60.0289 36.0558 60.7711 35.2098C61.5095 34.3599 62.1817 33.6109 62.6714 32.9862C63.1688 32.3614 63.4952 31.8685 63.6506 31.6008C63.841 31.2631 63.9382 31.0458 63.9848 30.9022C64.1713 30.7936 64.3423 30.6927 64.5094 30.5957L64.5133 30.5918Z" fill="#FF6520"/>
<path d="M25.6594 16.3496C25.6516 16.3729 25.6439 16.3962 25.6361 16.4233C25.4884 16.8347 25.1154 17.8941 24.3498 19.2019C23.9768 19.8616 23.5066 20.5795 22.9898 21.3557C22.4768 22.1279 21.9211 22.9428 21.3344 23.7733C20.1647 25.4303 18.8901 27.1262 17.6039 28.5543C16.9627 29.2644 16.3176 29.9047 15.6959 30.4325C15.385 30.6886 15.0819 30.9137 14.7788 31.0806C14.6311 31.1621 14.4796 31.2397 14.3358 31.2979C14.2658 31.325 14.1842 31.3522 14.1221 31.3755C14.056 31.3949 14.0443 31.391 14.0366 31.391C14.0366 31.4259 13.8267 31.1815 13.714 31.0495C13.5897 30.9021 13.4809 30.7662 13.3915 30.6421C13.2128 30.3976 13.1078 30.2074 13.0418 30.0794C12.8902 29.7844 12.8475 29.5904 12.8125 29.4662C12.9174 29.4158 13.0923 29.2955 13.3876 29.0549C13.749 28.7599 14.7166 27.8557 15.9873 26.6566C16.6246 26.059 17.3396 25.3876 18.109 24.7085C18.4976 24.367 18.894 24.0411 19.3176 23.7034C19.7411 23.3619 20.153 23.001 20.5611 22.6285C22.1854 21.1422 23.5921 19.4347 24.6024 17.9872C25.0221 17.3857 25.3796 16.8347 25.6594 16.3496Z" fill="#FFFCF3"/>
<path d="M25.7061 25.0459C25.4147 27.3083 24.8162 29.5358 24.21 31.2665C23.6116 33.0051 22.986 34.243 22.7683 34.6815C22.5624 35.1123 22.4847 35.3218 22.4769 35.4266C22.372 35.4538 22.2399 35.4654 22.065 35.4033C21.964 35.3645 21.8163 35.2869 21.6453 35.1394C21.4704 34.9881 21.2528 34.7785 21.0352 34.5302C20.9225 34.406 20.8098 34.2663 20.6971 34.1149C20.5883 33.9675 20.4523 33.789 20.4096 33.6609C20.3668 33.5484 20.3979 33.4087 20.4873 33.2107C20.5922 33.0012 20.6971 32.7916 20.8098 32.5666C21.7114 30.7621 22.6945 28.4492 23.5455 26.0897C24.4004 23.7303 25.1038 21.3204 25.574 19.3607C25.7877 18.4837 25.9509 17.6959 26.0675 17.0439C26.052 17.5174 26.0364 18.0374 26.0248 18.6078C25.9704 20.4589 25.9665 22.7796 25.7061 25.042V25.0459Z" fill="#FF6520"/>
<path d="M65.5442 28.9888C65.4703 29.0858 65.3771 29.1945 65.2566 29.2992C65.1128 29.4312 64.8797 29.6175 64.5494 29.8154C64.3706 29.9201 64.153 30.0366 63.9043 30.1685C63.8188 30.2112 63.7333 30.2578 63.6401 30.3082C63.5274 30.3703 63.403 30.4363 63.2826 30.5022C62.7502 30.7933 62.144 31.1231 61.4756 31.484C60.8966 31.7984 60.271 32.1399 59.6065 32.5008C56.7658 34.0802 53.2258 36.0322 49.6896 37.9958C47.7038 39.1056 45.722 40.2194 43.8645 41.2633C43.4526 41.4961 43.0446 41.7251 42.6443 41.954C42.555 42.0084 42.4617 42.0549 42.3723 42.1093C41.4436 42.6332 40.5615 43.1338 39.7415 43.6033C38.5214 44.298 37.4333 44.9189 36.5395 45.4428C36.353 45.5475 36.1781 45.6484 36.011 45.7454C35.7157 45.9162 35.4476 46.0753 35.2105 46.2189C35.1639 46.246 35.1134 46.2732 35.0707 46.3004C35.0201 46.3314 34.9735 46.3586 34.9269 46.3857C34.8492 46.4323 34.7753 46.475 34.7093 46.5216C34.6937 46.5255 34.6859 46.5332 34.6743 46.541C34.6082 46.5798 34.5499 46.6186 34.4916 46.6496C34.3518 46.7389 34.2352 46.8126 34.1419 46.8708C33.9398 47.0028 33.7805 47.1114 33.6406 47.2123C33.7766 46.9717 33.9437 46.669 34.1536 46.2732C34.3984 45.8114 34.8258 44.9538 35.401 43.7896C35.4631 43.6654 35.5253 43.5374 35.5875 43.4093C35.6574 43.2657 35.7274 43.126 35.8051 42.9747C35.8634 42.8544 35.9217 42.7302 35.9838 42.6099C36.0344 42.509 36.0849 42.4042 36.1354 42.3033C36.1743 42.2296 36.2092 42.1558 36.2481 42.0782C36.3025 41.9696 36.3569 41.857 36.4152 41.7445C36.5939 41.3758 36.7882 40.9878 36.9864 40.5842C37.002 40.5531 37.0214 40.5182 37.0369 40.4833C37.1457 40.266 37.2584 40.0409 37.3711 39.8119C37.5965 39.354 37.8336 38.8845 38.0745 38.3955C38.1211 38.3062 38.1639 38.217 38.2066 38.1277C38.6574 37.2352 39.1315 36.2922 39.6289 35.3181C39.7649 35.0542 39.9009 34.7826 40.0447 34.511C40.1845 34.2354 40.3244 33.9599 40.4721 33.6844C40.8063 33.0363 41.1483 32.3805 41.5019 31.7091C41.5602 32.3611 41.9876 32.9703 42.8309 33.0479C44.7933 33.2303 45.0808 30.1801 43.1145 29.9978C42.8192 29.9706 42.5627 30.0133 42.349 30.1181C42.5744 29.6951 42.8037 29.2721 43.0368 28.8491C43.2544 28.4494 43.4759 28.0497 43.6935 27.65C44.1832 26.7691 44.6767 25.8843 45.1857 25.0072C45.485 24.4795 45.7881 23.9595 46.0873 23.4395C50.0665 24.7822 54.0457 26.0162 57.2866 26.9437C59.7502 27.6577 61.7904 28.1971 63.0766 28.5153C63.5623 28.6356 63.9471 28.7249 64.1996 28.7792C64.8875 28.9228 65.2994 28.981 65.5403 28.9927L65.5442 28.9888Z" fill="#D51F91"/>
<path d="M45.2386 23.1521C44.9588 23.6333 44.679 24.1145 44.4031 24.6035C41.6985 29.3107 39.2465 34.1576 37.3462 38.0732C36.5807 39.6565 35.9007 41.0846 35.3333 42.2954C34.4901 44.0882 33.8955 45.4115 33.6313 46.0518C33.5264 46.3041 33.4409 46.5097 33.3632 46.7038C33.3476 46.6029 33.3321 46.502 33.3049 46.3817C33.165 45.6909 32.7414 43.8787 32.1857 41.4416C31.5057 38.4846 30.6313 34.6233 29.8503 30.7349C28.393 23.6488 27.2311 16.5123 26.9008 14.9911C26.7765 14.4633 26.6871 14.1567 26.6133 13.986C26.6405 13.9666 26.6716 13.955 26.7065 13.9355C26.7648 14.0558 27.0174 14.3197 27.8568 14.9678C28.6068 15.546 30.8451 17.0595 34.0354 18.635C37.1481 20.195 41.1661 21.7667 45.2425 23.1482L45.2386 23.1521Z" fill="#FF6520"/>
<path d="M55.8837 1.24214C55.6972 1.4905 55.3785 2.05319 54.9161 3.13201C54.7723 3.46575 54.5547 4.00128 54.2633 4.70368C53.9718 5.41384 53.6065 6.29863 53.1752 7.31924C52.6894 8.46791 52.1143 9.77957 51.4615 11.2154C50.56 13.1868 49.5108 15.3871 48.3139 17.6573C47.766 18.7167 47.1675 19.7917 46.5536 20.8705C46.2699 21.3711 45.9784 21.8756 45.687 22.38C45.2712 22.2403 44.8593 22.0968 44.4474 21.9532C42.4772 21.2741 40.542 20.5561 38.7389 19.8305C37.783 19.4463 36.862 19.0621 35.9993 18.6701C35.4242 18.4179 34.8763 18.1579 34.3517 17.9057C32.7701 17.1489 31.4217 16.4155 30.3608 15.8101C29.3078 15.197 28.55 14.7196 28.1498 14.479C27.4425 14.0522 27.0889 13.8698 26.9062 13.8154C27.0578 13.7223 27.2521 13.5981 27.5008 13.4313C27.8194 13.2256 28.414 12.8104 29.2495 12.3059C29.6653 12.0575 30.151 11.7781 30.6873 11.5142C31.243 11.2503 31.8492 10.9632 32.4865 10.6566C33.217 10.3073 34.0059 9.93868 34.8258 9.55449C35.603 9.19359 36.4113 8.82493 37.2428 8.45239C38.6301 7.81984 40.0796 7.18341 41.5407 6.56251C42.8541 5.99982 44.1754 5.45264 45.4538 4.93264C46.2699 4.60278 47.0665 4.28457 47.8437 3.978C48.8735 3.57441 49.8566 3.19798 50.7659 2.84873C52.0988 2.352 53.2723 1.91349 54.1933 1.56423C54.9161 1.30423 55.5145 1.23438 55.8798 1.23438L55.8837 1.24214Z" fill="#FFC82A"/>
<path d="M65.7628 28.6087C65.7472 28.6513 65.7239 28.6979 65.7006 28.7445C65.5102 28.6436 65.11 28.4845 64.3289 28.2322C64.1074 28.1624 63.7887 28.0615 63.3846 27.9373C62.1294 27.5609 60.0427 26.9477 57.4896 26.1716C54.3226 25.2092 50.4405 23.9829 46.5391 22.6674C47.4367 21.1074 48.3188 19.559 49.1038 18.0222C50.2929 15.7288 51.3343 13.509 52.2203 11.5105C53.9767 7.50954 55.0998 4.41278 55.4612 3.3068C55.5195 3.12829 55.57 2.9653 55.6205 2.81395C55.8964 1.96409 56.0557 1.49453 56.0985 1.25781C56.2228 1.26945 56.3316 1.29274 56.421 1.31602C56.3899 1.4014 56.4637 1.59931 56.8485 2.32111C56.9961 2.60828 57.2798 3.15545 57.5984 3.93546C57.9249 4.71159 58.2862 5.72832 58.7059 6.88476C59.5297 9.20151 60.5051 12.0965 61.4261 15.0147C62.3354 17.9407 63.2408 20.8668 63.9753 23.2145C64.6942 25.5623 65.2421 27.3397 65.483 27.9528C65.5996 28.2516 65.689 28.4612 65.7706 28.6125L65.7628 28.6087Z" fill="#FF6520"/>
<path d="M55.9549 27.6573C53.9925 27.4749 53.7049 30.5212 55.6712 30.7036C57.6336 30.886 57.9212 27.8397 55.9549 27.6573Z" fill="#FFFCF3"/>
<path d="M36.9883 40.5805C37.3302 39.8936 37.6916 39.1641 38.0763 38.3957C38.123 38.3064 38.1657 38.2172 38.2085 38.1279C38.8263 39.0244 38.3484 40.6077 36.9883 40.5805Z" fill="#FFFCF3"/>
<path d="M63.9071 30.1728C63.7128 30.2737 63.503 30.3863 63.2854 30.5066C62.753 30.7976 62.1468 31.1275 61.4784 31.4884C61.4396 30.6463 62.0108 29.7615 63.0989 29.8624C63.433 29.8934 63.7012 30.006 63.9071 30.1767V30.1728Z" fill="#FFFCF3"/>
<path d="M42.3729 42.1058C41.4441 42.6297 40.562 43.1303 39.7421 43.5999C39.2058 42.6608 39.7499 41.1202 41.1605 41.2521C41.79 41.3103 42.1864 41.6634 42.3729 42.1058Z" fill="#FFFCF3"/>
<path d="M51.1385 31.8213C49.1761 31.639 48.8885 34.6853 50.8548 34.8677C52.8172 35.05 53.1048 32.0037 51.1385 31.8213Z" fill="#FFFCF3"/>
<path d="M49.2791 25.0655C47.3167 24.8831 47.0291 27.9294 48.9954 28.1118C50.9578 28.2942 51.2454 25.2479 49.2791 25.0655Z" fill="#FFFCF3"/>
<path d="M45.3338 35.5088C43.3714 35.3265 43.0838 38.3728 45.0501 38.5552C47.0125 38.7375 47.3001 35.6912 45.3338 35.5088Z" fill="#FFFCF3"/>
<path d="M42.0604 9.2315C40.098 9.04911 39.8104 12.0954 41.7767 12.2778C43.7391 12.4602 44.0266 9.41389 42.0604 9.2315Z" fill="#FFFCF3"/>
<path d="M38.7474 19.8336C37.7915 19.4494 36.8705 19.0652 36.0078 18.6732C36.2371 18.1416 36.7423 17.7458 37.4884 17.8156C38.6269 17.9204 39.0116 18.9915 38.7474 19.8336Z" fill="#FFFCF3"/>
<path d="M37.2452 8.45605C37.183 9.22442 36.6195 9.95787 35.6286 9.86861C35.2983 9.83757 35.0341 9.72891 34.8281 9.56204C35.6053 9.20114 36.4136 8.83248 37.2452 8.45994V8.45605Z" fill="#FFFCF3"/>
<path d="M46.7683 6.73285C45.7308 6.63584 45.3189 5.73941 45.4549 4.93999C46.2709 4.61014 47.0675 4.29192 47.8447 3.98535C48.8784 4.78865 48.4043 6.8842 46.7683 6.73285Z" fill="#FFFCF3"/>
<path d="M49.1385 10.5977C47.1761 10.4153 46.8885 13.4616 48.8548 13.644C50.8172 13.8264 51.1048 10.7801 49.1385 10.5977Z" fill="#FFFCF3"/>
<path d="M46.5554 20.8698C46.2717 21.3704 45.9803 21.8749 45.6888 22.3793C45.273 22.2396 44.8611 22.0961 44.4492 21.9525C44.5813 21.2578 45.1293 20.6525 46.0386 20.7339C46.2329 20.7533 46.4038 20.7999 46.5554 20.8659V20.8698Z" fill="#FFFCF3"/>
<path d="M54.2624 4.70318C53.971 5.41334 53.6057 6.29813 53.1744 7.31874C53.1316 7.31874 53.0811 7.31875 53.0345 7.31098C51.0682 7.12859 51.3558 4.0784 53.3182 4.26079C53.7301 4.2996 54.0448 4.46258 54.2624 4.6993V4.70318Z" fill="#FFFCF3"/>
<path d="M43.615 14.8663C41.6526 14.6839 41.3651 17.7302 43.3314 17.9126C45.2938 18.095 45.5813 15.0487 43.615 14.8663Z" fill="#FFFCF3"/>
<path d="M34.2439 12.2901C32.2815 12.1077 31.994 15.154 33.9603 15.3364C35.9227 15.5188 36.2102 12.4725 34.2439 12.2901Z" fill="#FFFCF3"/>
<g style="mix-blend-mode:multiply" opacity="0.26">
<path d="M35.3312 42.2991C34.488 44.0919 33.8934 45.4152 33.6292 46.0555C33.5242 46.3078 33.4388 46.5134 33.361 46.7075C33.3455 46.6066 33.3299 46.5057 33.3027 46.3854C33.1628 45.6946 32.7393 43.8824 32.1836 41.4453C32.9219 41.7364 33.6875 42.0895 34.1615 42.1749C34.5501 42.2447 34.9465 42.2797 35.3351 42.2952L35.3312 42.2991Z" fill="#6A6A6A"/>
</g>
<g style="mix-blend-mode:multiply" opacity="0.38">
<path d="M65.5442 28.9881C65.4703 29.0852 65.3771 29.1938 65.2566 29.2986C65.1128 29.4305 64.8797 29.6168 64.5494 29.8147C64.3706 29.9195 64.153 30.0359 63.9043 30.1679C63.8188 30.2105 63.7333 30.2571 63.6401 30.3076C63.5274 30.3697 63.403 30.4356 63.2826 30.5016C62.7502 30.7926 62.144 31.1225 61.4756 31.4834C60.8966 31.7977 60.271 32.1392 59.6065 32.5001C56.7658 34.0796 53.2258 36.0315 49.6896 37.9951C47.7038 39.105 45.722 40.2187 43.8645 41.2626C43.4526 41.4955 43.0446 41.7244 42.6443 41.9534C42.555 42.0077 42.4617 42.0543 42.3723 42.1086C41.4436 42.6325 40.5615 43.1331 39.7415 43.6027C38.5214 44.2973 37.4333 44.9182 36.5395 45.4421C36.353 45.5469 36.1781 45.6478 36.011 45.7448C35.7157 45.9155 35.4476 46.0747 35.2105 46.2182C35.1639 46.2454 35.1134 46.2726 35.0707 46.2997C35.0201 46.3308 34.9735 46.3579 34.9269 46.3851C34.8492 46.4317 34.7753 46.4744 34.7093 46.5209C34.6937 46.5248 34.6859 46.5326 34.6743 46.5403C34.6082 46.5791 34.5499 46.6179 34.4916 46.649C34.3518 46.7382 34.2352 46.812 34.1419 46.8702C33.9398 47.0021 33.7805 47.1108 33.6406 47.2117C33.7766 46.9711 33.9437 46.6684 34.1536 46.2726C34.3984 45.8108 34.8258 44.9531 35.401 43.7889C35.4631 43.6648 35.5253 43.5367 35.5875 43.4086C35.6574 43.2651 35.7274 43.1254 35.8051 42.974C35.8634 42.8537 35.9217 42.7295 35.9838 42.6092C36.0344 42.5083 36.0849 42.4036 36.1354 42.3027C36.6678 42.2833 37.204 42.2367 37.7325 42.1785C41.0122 41.8137 43.7324 40.1877 46.5381 38.5345C49.266 36.928 51.99 35.2127 54.8345 33.8079C56.6376 32.9154 58.4135 31.8482 60.0844 30.7189C60.9355 30.1446 62.4082 29.4422 63.0805 28.5225C63.5662 28.6428 63.9509 28.732 64.2035 28.7863C64.8913 28.9299 65.3032 28.9881 65.5442 28.9998V28.9881Z" fill="#D84409"/>
</g>
<g style="mix-blend-mode:multiply" opacity="0.22">
<path d="M65.7595 28.6087C65.7439 28.6513 65.7206 28.6979 65.6973 28.7445C65.5069 28.6436 65.1066 28.4845 64.3256 28.2322C64.1041 28.1624 63.7854 28.0615 63.3813 27.9373C63.7738 26.6838 63.0354 24.6814 62.7401 23.5134C61.9785 20.4787 60.8671 17.4751 59.9345 14.4986C58.6987 10.5636 56.8762 6.75282 55.6172 2.81395C55.8931 1.96409 56.0524 1.49453 56.0952 1.25781C56.2195 1.26945 56.3283 1.29274 56.4177 1.31602C56.3866 1.4014 56.4604 1.59931 56.8451 2.32111C56.9928 2.60828 57.2765 3.15545 57.5951 3.93546C57.9215 4.71159 58.2829 5.72832 58.7026 6.88476C59.5264 9.20151 60.5018 12.0965 61.4228 15.0147C62.3321 17.9407 63.2375 20.8668 63.972 23.2145C64.6909 25.5623 65.2388 27.3397 65.4797 27.9528C65.5963 28.2516 65.6857 28.4612 65.7673 28.6125L65.7595 28.6087Z" fill="#D51F91"/>
</g>
</svg>
