<svg width="16" height="14" viewBox="0 0 16 14" fill="none" xmlns="http://www.w3.org/2000/svg">
<path d="M4.59284 11.308H4.59078L4.61349 11.2529C4.61555 11.2465 4.61762 11.2401 4.62174 11.2338L7.0599 5.24073C7.36132 4.54278 8.04466 4.05273 8.84362 4.05273C9.91921 4.05273 10.7904 4.93949 10.7904 6.03627C10.7904 6.29084 10.7409 6.5348 10.6542 6.75967L10.6438 6.78725C10.6397 6.79998 10.6335 6.81271 10.6273 6.82544L8.20776 12.7782C8.20776 12.7782 8.20363 12.7909 8.1995 12.7951L8.18711 12.827C7.88363 13.5164 7.20235 14.0001 6.41165 14.0001C5.33606 14.0001 4.46484 13.1133 4.46484 12.0166C4.46484 11.7684 4.51233 11.5308 4.59491 11.3101" fill="#6B86AB"/>
<path d="M9.43826 11.308H9.43608L9.46012 11.2529C9.46231 11.2465 9.46449 11.2401 9.46887 11.2338L12.0504 5.24073C12.3696 4.54278 13.0931 4.05273 13.9391 4.05273C15.0779 4.05273 16.0004 4.93949 16.0004 6.03627C16.0004 6.29084 15.9479 6.5348 15.8561 6.75967L15.8452 6.78725C15.8387 6.79998 15.8343 6.81271 15.8277 6.82544L13.2658 12.7782C13.2658 12.7782 13.2614 12.7909 13.2571 12.7951L13.244 12.827C12.9226 13.5164 12.2013 14.0001 11.3641 14.0001C10.2252 14.0001 9.30273 13.1133 9.30273 12.0166C9.30273 11.7684 9.35301 11.5308 9.44045 11.3101" fill="#6B86AB"/>
<path d="M8.05793 11.308H8.06L8.03729 11.2529C8.03523 11.2465 8.03316 11.2401 8.02903 11.2338L5.59088 5.24073C5.28946 4.54278 4.60612 4.05273 3.80716 4.05273C2.73156 4.05273 1.86035 4.93949 1.86035 6.03627C1.86035 6.29084 1.9099 6.5348 1.99661 6.75967L2.00693 6.78725C2.01312 6.79998 2.01725 6.81271 2.02345 6.82544L4.44302 12.7782C4.44302 12.7782 4.44715 12.7909 4.45128 12.7951L4.46367 12.827C4.76715 13.5164 5.44843 14.0001 6.23912 14.0001C7.31472 14.0001 8.18593 13.1133 8.18593 12.0166C8.18593 11.7684 8.13845 11.5308 8.05587 11.3101" fill="#CBD9EB"/>
<path d="M13.767 11.0471C13.1884 10.8689 12.7304 10.4128 12.5255 9.83362C12.5215 9.8315 12.5175 9.82938 12.5155 9.82726L10.6994 5.24073C10.4061 4.54278 9.74117 4.05273 8.96373 4.05273C7.91709 4.05273 7.06934 4.93949 7.06934 6.03627C7.06934 6.29084 7.11755 6.5348 7.20192 6.75968L7.21197 6.78725C7.21799 6.79998 7.22201 6.81271 7.22804 6.82544L9.58247 12.7782C9.58247 12.7782 9.58649 12.7909 9.59051 12.7951L9.60256 12.827C9.89787 13.5164 10.5608 14.0001 11.3302 14.0001C12.0996 14.0001 12.8168 13.4782 13.092 12.74L13.767 11.0513V11.0471Z" fill="#9CB4CF"/>
<path d="M4.09302 2.02632C4.09302 3.14458 3.17719 4.05263 2.04651 4.05263C0.91583 4.05263 0 3.14458 0 2.02632C0 0.90805 0.91583 0 2.04651 0C3.17719 0 4.09302 0.905882 4.09302 2.02632Z" fill="#CBD9EB"/>
</svg>
