<svg width="272" height="444" viewBox="0 0 272 444" fill="none" xmlns="http://www.w3.org/2000/svg">
<path d="M1.05352 3.5813C56.4479 -6.57523 117.375 19.3815 149.46 69.2881C157.313 81.5054 162.666 95.1155 168.279 108.509C177.665 130.948 187.248 154.593 184.607 178.776C179.196 228.146 135.721 252.128 100.271 278.57C71.272 300.186 36.7448 333.967 67.7223 369.446C75.1606 377.966 85.8309 383.046 96.6907 386.237C136.697 397.959 187.66 379.901 199.141 339.896C200.603 334.775 201.397 329.268 199.934 324.141C196.915 313.518 185.035 307.624 173.965 307.074C149.955 305.864 128.112 324.292 119.226 346.587C97.6573 400.741 126.469 440.925 182.957 442.607C219.943 443.706 253.881 426.186 289.416 418.866C309.272 414.775 325.816 416.363 345.461 419.524" stroke="#FF6520" stroke-miterlimit="10" stroke-linecap="round" stroke-dasharray="8 8"/>
</svg>
