<svg width="98" height="68" viewBox="0 0 98 68" fill="none" xmlns="http://www.w3.org/2000/svg">
<path d="M97.8053 10.4441C97.6363 9.66596 97.2166 8.96404 96.6878 8.43624C96.159 7.89755 95.5321 7.51667 94.8943 7.27181C93.6186 6.74401 92.3212 6.66783 91.16 6.70048C86.608 6.88004 83.3263 7.63093 81.6363 8.04991C79.1614 8.69742 77.8203 9.23066 77.0844 9.53537C76.8118 9.66052 76.621 9.74758 76.4956 9.82375C75.9341 9.3286 75.498 9.01301 75.1764 8.80624C75.1436 8.78992 75.1218 8.77359 75.0946 8.75183C75.0946 8.75183 75.0909 8.75002 75.0837 8.74639C75.0837 8.74639 75.0455 8.7083 75.0237 8.69197C74.822 8.51786 74.5331 8.27844 74.1188 7.95197C73.699 7.62549 73.1702 7.19019 72.4125 6.7168C71.4476 6.08018 69.5832 4.85046 66.8138 3.62074C64.0608 2.37469 60.392 1.12865 56.0418 0.600849C55.7692 0.568202 55.5021 0.519231 55.224 0.492025L54.39 0.443053C53.8285 0.404965 53.2615 0.372317 52.6837 0.334229C52.1058 0.334229 51.5225 0.345111 50.9283 0.350552C50.6339 0.350552 50.3341 0.350552 50.0342 0.350552C49.7344 0.372317 49.44 0.399523 49.1348 0.421288C48.5351 0.47026 47.9245 0.513789 47.314 0.562761C46.7034 0.649821 46.0874 0.747763 45.4659 0.834823C45.1607 0.883794 44.839 0.921883 44.5337 0.976295C44.223 1.04159 43.9123 1.11233 43.6015 1.17762C42.9801 1.31909 42.3477 1.4388 41.7262 1.59116C40.4888 1.95028 39.2077 2.25499 37.9756 2.72293C37.3596 2.94602 36.7218 3.14191 36.1112 3.39765C35.5007 3.64794 34.8847 3.90368 34.2686 4.15398C31.8046 5.12796 29.3242 6.33592 27.0564 7.83226C25.917 8.57771 24.8322 9.41566 23.791 10.2917C22.7606 11.1786 21.7848 12.1254 20.8744 13.1103C19.07 15.1018 17.4727 17.2184 16.1371 19.4384C14.747 21.6421 13.8366 24.0526 13.2424 26.4032C12.9099 27.5785 12.7681 28.7647 12.5937 29.9074C12.501 31.0609 12.392 32.1818 12.4247 33.2809C12.392 34.3801 12.5119 35.4302 12.561 36.4532C12.6155 36.9592 12.6918 37.4544 12.7518 37.9386C12.8172 38.4284 12.8717 38.9017 12.9698 39.3643C13.1061 40.0662 13.226 40.7518 13.3787 41.4047C13.2315 41.4374 12.9644 41.5244 12.5064 41.7366C11.716 42.1012 10.3477 42.8086 8.12348 44.2886C7.40389 44.7783 6.35721 45.5074 5.09792 46.5304C4.471 47.0418 3.78412 47.6295 3.07543 48.3205C2.37219 49.017 1.6308 49.8006 0.987525 50.7854C0.665889 51.2806 0.376962 51.841 0.207967 52.494C0.126195 52.8204 0.0880352 53.1796 0.126195 53.5441C0.137098 53.7291 0.202516 53.9087 0.246127 54.0937C0.278836 54.1862 0.322448 54.2678 0.360608 54.3549C0.409671 54.4256 0.431477 54.5508 0.540506 54.6541C1.05839 55.1711 1.57628 55.5628 2.18139 55.9437C2.7865 56.3028 3.42978 56.6075 4.11666 56.8578C6.86419 57.8373 10.026 57.9787 13.2969 57.7502C15.3903 57.5979 17.5436 57.2823 19.7405 56.8306C19.8332 56.9993 19.9477 57.1734 20.0567 57.3584C20.4056 57.9243 20.9289 58.7351 21.7139 59.6927C22.4826 60.6613 23.5947 61.7278 24.9903 62.7507C26.3967 63.7628 28.1031 64.7422 30.0765 65.5856C31.0632 66.0046 32.1208 66.3909 33.2438 66.7065C33.8053 66.8588 34.3831 67.0058 34.9882 67.1255C35.5879 67.2234 36.193 67.2941 36.809 67.3812C41.7371 67.9525 47.3576 67.6805 53.0707 66.4072C55.9273 65.7706 58.8056 64.9 61.6295 63.7737C63.0414 63.2132 64.4424 62.5984 65.8162 61.9128C66.5031 61.5645 67.19 61.2272 67.8605 60.8354L68.869 60.2749L69.8339 59.6274C72.4288 57.9134 74.7457 55.8077 76.7028 53.4625C78.6489 51.101 80.2299 48.5001 81.4564 45.8339C81.6091 45.502 81.7617 45.1646 81.9144 44.8327C82.0615 44.5008 82.176 44.1525 82.3069 43.8152C82.4322 43.4778 82.5576 43.1405 82.683 42.8031C82.8193 42.4712 82.9338 42.1338 83.0265 41.7856C83.2227 41.1 83.4244 40.4199 83.6152 39.7451C83.7678 39.065 83.915 38.3794 84.0568 37.7101C84.5474 35.0058 84.7491 32.3723 84.6455 29.8802C84.5965 28.8953 84.5038 27.9322 84.3839 27.0072C84.9999 26.5338 85.6104 26.055 86.2156 25.587C87.6602 24.5042 89.0012 23.3616 90.3259 22.2733C91.6561 21.1905 92.9317 20.0859 94.0929 18.8997C95.2432 17.719 96.2571 16.4185 96.9604 14.9929C97.3202 14.2856 97.5764 13.551 97.7726 12.7838C97.9362 12.0111 97.9743 11.2167 97.8108 10.4332L97.8053 10.4441ZM13.564 36.2954C13.515 35.3105 13.4114 34.2821 13.455 33.2211C13.4277 32.16 13.5586 31.0827 13.6458 29.9672C13.8257 28.8681 13.9729 27.7309 14.3 26.61C14.3708 26.327 14.4417 26.0441 14.5126 25.7557C14.5998 25.4728 14.7034 25.1953 14.8015 24.9178C14.9051 24.6348 14.9978 24.3519 15.1013 24.0744L15.2485 23.6499C15.303 23.5085 15.3739 23.3724 15.4339 23.2364C15.6846 22.6868 15.9354 22.1318 16.1916 21.5714C16.5024 21.0382 16.8076 20.5049 17.1184 19.9662C19.7623 15.7003 23.3058 11.6194 27.7433 8.75727C29.9565 7.3099 32.3225 6.15092 34.7702 5.18782C35.3807 4.93752 35.9859 4.68722 36.591 4.43148C37.1906 4.18663 37.8121 3.99618 38.4172 3.77853C39.622 3.31603 40.8649 3.02764 42.0697 2.66308C46.9542 1.46601 51.7787 1.10688 55.9927 1.64557C60.2176 2.13528 63.7992 3.31603 66.5031 4.4859C69.2234 5.64488 71.0878 6.79842 72.0745 7.36975C72.8104 7.77241 73.3447 8.14241 73.7808 8.40903C74.2169 8.67565 74.5331 8.86609 74.7675 8.99124C74.7948 9.00213 74.8166 9.01845 74.8438 9.03477C74.8438 9.03477 74.882 9.0783 74.9038 9.09463C75.3672 9.54081 76.2285 10.3026 77.4714 11.8316C78.2673 12.8328 79.7501 14.8351 81.0367 17.9366C81.6745 19.482 82.2632 21.2939 82.7157 23.3235C82.7157 23.3398 82.7266 23.3561 82.7212 23.3724C82.0724 23.8622 81.4019 24.3627 80.7096 24.8579C77.068 27.486 72.7832 30.174 68.1058 32.7259C63.4285 35.2888 58.3913 37.7536 53.2997 40.1151C50.7484 41.285 48.2135 42.4875 45.6622 43.5812C43.1218 44.7021 40.6196 45.8067 38.1719 46.884C33.2819 49.0007 28.5719 50.8398 24.2652 52.1076C22.1991 52.7225 20.2203 53.2068 18.394 53.5659L18.3559 53.5224C18.3286 53.4135 18.2904 53.2721 18.225 53.0871C18.0342 52.5484 17.6363 51.6125 17.0093 49.9747C16.6059 48.9027 15.7991 46.8677 15.0032 44.0056C14.7906 43.2983 14.6107 42.5311 14.4308 41.7149C14.2237 40.9041 14.0928 40.039 13.9238 39.1412C13.8311 38.6895 13.793 38.2216 13.7276 37.7482C13.6731 37.2748 13.5967 36.7905 13.564 36.2954ZM78.6435 12.0928C78.7253 12.0928 78.8234 12.1036 78.9488 12.0982C79.7229 12.0928 83.2772 11.5541 86.8098 10.9555C88.5651 10.6563 90.3041 10.4332 91.6943 10.4604C92.9099 10.4604 93.8367 10.6508 94.2946 10.7324C94.3164 10.776 94.3328 10.8195 94.3491 10.8685C94.4254 11.1079 94.4854 11.4017 94.4472 11.7119C94.4145 12.022 94.3001 12.3866 94.0929 12.7566C93.8312 13.2409 93.3024 13.8938 92.5011 14.6828C92.1086 15.0854 91.6779 15.5207 91.2091 16.005C90.9692 16.2444 90.7239 16.4947 90.4731 16.7505C90.206 17.0008 89.928 17.2565 89.6445 17.5231C88.02 19.0902 85.9811 20.864 83.5934 22.7195C83.1137 20.7661 82.5086 19.014 81.8544 17.5122C80.775 15.0256 79.5593 13.2354 78.6489 12.0982L78.6435 12.0928ZM18.116 53.6203C16.2407 53.9685 14.518 54.1862 12.9916 54.2787C9.90065 54.5018 7.6274 54.208 6.45533 54.0556C6.02467 53.9903 5.64307 53.9359 5.29962 53.8815C4.96163 53.8162 4.6618 53.7563 4.40559 53.7019C4.24204 53.6747 4.10031 53.6475 3.96947 53.6203C3.96947 53.6094 3.95312 53.604 3.94766 53.5931C3.92586 53.5768 3.89315 53.5441 3.87134 53.5278C3.87134 53.5169 3.8768 53.4952 3.90405 53.4625C3.95312 53.4027 3.94766 53.4135 3.95312 53.3918C3.95857 53.3591 3.96402 53.2775 3.99673 53.2775C4.1003 52.9674 4.33472 52.0859 5.11973 51.1445C5.87203 50.1923 7.12041 49.1966 8.39605 48.228C10.7783 46.3998 13.3841 44.9034 14.1528 44.3648C15.0196 47.2323 15.8809 49.2619 16.3606 50.312C17.0584 51.8519 17.5545 52.7279 17.8598 53.2285C17.9634 53.4027 18.0506 53.5278 18.1214 53.6149L18.116 53.6203ZM80.3934 45.4476C79.1941 48.0322 77.6459 50.5351 75.7651 52.8096C73.868 55.0786 71.6166 57.0973 69.1307 58.7351C68.82 58.9364 68.5201 59.1595 68.1985 59.3499L67.2172 59.8995C66.5685 60.2749 65.8925 60.6069 65.222 60.9442C63.8755 61.6189 62.5072 62.2229 61.1225 62.7725C58.3532 63.8662 55.5348 64.7313 52.7382 65.3571C47.145 66.614 41.6445 66.8915 36.8472 66.3528C36.253 66.2766 35.6588 66.2168 35.0918 66.1243C34.5303 66.01 33.9797 65.8794 33.44 65.7271C32.3606 65.4278 31.3412 65.0687 30.3818 64.6715C28.4738 63.8716 26.8165 62.9412 25.4536 61.9835C22.7225 60.0791 21.376 57.9679 20.6291 56.9286C20.5746 56.847 20.5255 56.7708 20.471 56.6946C21.4632 56.477 22.4717 56.2267 23.4857 55.9546C25.2138 55.454 26.9746 54.948 28.7681 54.431C30.5508 53.8652 32.3715 53.3319 34.1923 52.7116C41.4864 50.2794 49.053 47.3738 56.3579 43.8805C63.6574 40.3981 70.7498 36.4477 77.1334 32.1492C77.9293 31.6105 78.7253 31.0772 79.5103 30.544C80.2953 30.0162 81.0476 29.4503 81.8053 28.9062C82.3559 28.509 82.9011 28.1172 83.4408 27.7254C83.4571 27.8996 83.4735 28.0737 83.4898 28.2478C83.5116 28.5362 83.5389 28.83 83.5607 29.1238C83.5879 29.4177 83.6098 29.7169 83.5989 30.0162C83.7406 34.8208 82.8356 40.2947 80.3934 45.4584V45.4476ZM96.775 12.6695C96.5951 13.3225 96.3443 13.9917 96.0064 14.6393C95.3413 15.9288 94.3873 17.1313 93.2697 18.2577C92.1522 19.384 90.8929 20.4614 89.5573 21.5333C88.2326 22.6107 86.897 23.737 85.4632 24.8035C85.0435 25.1245 84.6292 25.4456 84.204 25.772C83.9096 25.9951 83.6097 26.2237 83.3154 26.4576C83.3099 26.4576 83.299 26.4685 83.2936 26.4794C82.5576 27.0018 81.8217 27.535 81.0803 28.0682C79.5866 29.1728 78.0111 30.2121 76.4302 31.2731C70.0738 35.5227 63.0251 39.4295 55.7692 42.8902C48.5078 46.3562 40.9848 49.2455 33.7399 51.6778C31.93 52.2926 30.1201 52.8313 28.3484 53.3972C26.5657 53.9196 24.8158 54.431 23.0932 54.9316C22.0029 55.2309 20.918 55.4975 19.8441 55.7315C19.6206 55.7805 19.4025 55.824 19.1845 55.8675C17.1075 56.292 15.0741 56.5912 13.1116 56.7381C9.93336 56.9721 6.886 56.8252 4.35652 55.9165C3.72415 55.6825 3.14085 55.405 2.60116 55.084C2.33403 54.9153 2.07782 54.7466 1.8434 54.5508C1.71802 54.4583 1.60354 54.3712 1.49451 54.2624C1.40729 54.1753 1.24919 54.0447 1.24919 54.0284C1.03114 53.653 1.00388 53.1306 1.14562 52.6354C1.2819 52.1348 1.53267 51.656 1.81615 51.2098C2.4049 50.3175 3.10269 49.5557 3.77322 48.881C4.44375 48.2063 5.10882 47.6241 5.70848 47.118C6.92416 46.0951 7.93813 45.3551 8.63046 44.849C10.6639 43.3744 11.9395 42.5855 12.6591 42.1121C13.0625 41.8509 13.3024 41.6931 13.4277 41.5952C13.455 41.7312 13.4877 41.8727 13.5259 42.0087C13.6294 42.4168 13.7276 42.8194 13.8202 43.2112C13.8584 43.3527 13.902 43.4942 13.9402 43.6302C13.2587 43.8315 10.315 45.3279 7.70372 47.3357C6.40627 48.326 5.10337 49.3816 4.29111 50.5351C3.44613 51.6669 3.24443 52.8096 3.27714 53.1904C3.27714 53.321 3.30439 53.4135 3.3371 53.4897C3.30439 53.4788 3.27714 53.4734 3.24443 53.4679C2.70473 53.3646 2.5739 53.3972 2.54664 53.4679C2.52483 53.5278 2.5848 53.6094 3.09724 53.8325C3.35346 53.9413 3.71325 54.1046 4.25295 54.2569C4.52007 54.3385 4.8308 54.431 5.18514 54.529C5.54494 54.6106 5.9538 54.7031 6.40627 54.8011C7.60559 55.0187 9.94971 55.3724 13.1279 55.1874C14.7361 55.1112 16.5514 54.899 18.5194 54.5453C18.6884 54.5181 18.8574 54.4855 19.0264 54.4583C20.7981 54.1209 22.6843 53.6693 24.6468 53.0925C29.0189 51.8301 33.7835 49.9964 38.7061 47.8798C41.1538 46.8079 43.667 45.7087 46.2128 44.5933C48.7641 43.4996 51.3208 42.2916 53.8775 41.1218C58.9801 38.7494 64.0445 36.2573 68.7382 33.6618C73.4373 31.0827 77.7385 28.3403 81.4074 25.6523C81.9416 25.2606 82.454 24.8742 82.961 24.4825C83.2609 24.2539 83.5552 24.0254 83.8496 23.7914C86.4336 21.7727 88.6196 19.8356 90.3368 18.1216C90.6203 17.8496 90.8983 17.583 91.16 17.3272C91.4108 17.0606 91.6561 16.7994 91.8905 16.5546C92.3539 16.0594 92.7846 15.6024 93.1662 15.1943C93.9403 14.389 94.5127 13.6326 94.7852 13.0232C94.9924 12.5825 95.096 12.1472 95.1123 11.7336C95.1232 11.3582 95.0415 11.0372 94.9379 10.7705C95.1069 10.7542 95.1777 10.6944 95.2159 10.6019C95.2595 10.4876 95.2268 10.3461 94.6817 10.0523C94.6053 10.0088 94.4963 9.96523 94.3709 9.91625C94.3709 9.91625 94.3709 9.91444 94.3709 9.91081C94.2292 9.77478 94.082 9.67684 93.9457 9.61154C93.6295 9.45375 93.3951 9.47007 93.2643 9.4864C93.1607 9.50816 93.1116 9.54081 93.1007 9.57346C92.6973 9.50272 92.234 9.44287 91.727 9.41022C90.2278 9.31228 88.3907 9.52449 86.6189 9.8292C83.081 10.4277 79.5593 11.1024 78.8234 11.3745C78.5344 11.4833 78.3873 11.5758 78.3164 11.6575C78.2019 11.5269 78.0983 11.4017 78.0002 11.2929C77.5314 10.776 77.1116 10.3624 76.7409 10.0196C76.8554 9.99787 77.008 9.95978 77.1879 9.91081C77.9511 9.72037 79.3358 9.29051 81.9089 8.73551C83.5879 8.38727 86.837 7.71799 91.3018 7.59829C92.3811 7.57652 93.5532 7.69623 94.6271 8.16962C95.7174 8.61036 96.6387 9.52449 96.8677 10.7379C96.9876 11.3473 96.9167 12.0002 96.7805 12.6586L96.775 12.6695Z" fill="#3B2900"/>
<path d="M82.7154 23.3183C82.2629 21.2887 81.6742 19.4768 81.0363 17.926C79.7498 14.83 78.267 12.8276 77.4711 11.8264C76.2282 10.2974 75.3668 9.53565 74.9089 9.08947C74.8871 9.07315 74.8653 9.05138 74.8489 9.03506C74.8489 9.03506 74.7999 9.00241 74.7726 8.99153C74.5382 8.86638 74.222 8.67594 73.7859 8.40932C73.3498 8.14269 72.8156 7.77269 72.0796 7.3646C71.0983 6.79327 69.2285 5.63972 66.5082 4.48074C65.0854 3.86588 63.4118 3.24558 61.5365 2.72322C59.852 2.25527 58.004 1.87438 56.0033 1.64041C51.7893 1.10173 46.9593 1.46085 42.0803 2.65792C40.87 3.02249 39.6271 3.31087 38.4278 3.77338C37.8227 3.99103 37.2012 4.18147 36.5961 4.42633C35.9964 4.68206 35.3859 4.92692 34.7753 5.18266C32.3276 6.14576 29.9617 7.30474 27.7484 8.75211C23.3109 11.6142 19.7675 15.6951 17.1235 19.9611C16.8128 20.4943 16.5075 21.033 16.1968 21.5608C15.9405 22.1212 15.6898 22.6763 15.439 23.2313C15.379 23.3673 15.3082 23.4979 15.2537 23.6394L15.1065 24.0638C15.0083 24.3467 14.9102 24.6297 14.8066 24.9126C14.7085 25.1901 14.5995 25.4676 14.5177 25.7451C14.4468 26.0335 14.3705 26.3164 14.3051 26.5994C13.9835 27.7203 13.8363 28.8575 13.6509 29.9566C13.5637 31.0721 13.4329 32.1549 13.4601 33.2159C13.4111 34.277 13.5147 35.2999 13.5637 36.2902C13.6019 36.7908 13.6782 37.2751 13.7327 37.743C13.7927 38.2164 13.8308 38.6898 13.9235 39.136C14.0871 40.0338 14.2233 40.9044 14.4305 41.7097C14.6104 42.5259 14.7903 43.2931 15.0029 44.0005C15.7934 46.8571 16.6056 48.8922 17.0036 49.9695C17.6359 51.6019 18.0339 52.5378 18.2247 53.0765C18.2901 53.2615 18.3283 53.4084 18.3555 53.5118L18.3937 53.5553C20.2254 53.1962 22.1988 52.7119 24.2649 52.097C28.5716 50.8292 33.2816 48.9901 38.1716 46.8735C40.6193 45.7961 43.1215 44.6915 45.6619 43.5652C48.2131 42.4769 50.7481 41.269 53.2994 40.0991C58.3965 37.7322 63.4282 35.2673 68.1109 32.7045C70.4714 31.4149 72.7338 30.0927 74.8653 28.7596C76.9532 27.4482 78.9103 26.1369 80.7147 24.8364C81.407 24.3358 82.0721 23.8352 82.7263 23.351C82.7263 23.3346 82.7263 23.3183 82.7154 23.302V23.3183ZM22.1061 37.1227C21.7791 37.5961 21.4574 37.8736 21.2884 38.0097C20.7433 38.4069 20.6233 38.3361 20.5797 38.2709C20.5743 38.2545 20.5579 38.2382 20.5579 38.2273C20.5198 38.2328 20.4816 38.2382 20.4434 38.2491C20.2254 38.2709 19.7947 38.3089 19.2223 38.2164C18.6554 38.1185 17.8813 37.8682 17.2652 37.1935C16.9709 36.8616 16.7201 36.4317 16.5947 35.9474C16.4748 35.4577 16.4802 34.9299 16.5947 34.4239C16.7147 33.9179 16.9545 33.4281 17.2925 33.0092C17.6196 32.5902 18.0993 32.2202 18.5736 32.0243C18.8026 31.9046 19.0915 31.7903 19.3859 31.7631C19.6802 31.7305 19.9692 31.7414 20.2526 31.8067C20.7978 31.9372 21.2775 32.2093 21.6646 32.5467C22.0407 32.884 22.3678 33.2595 22.5804 33.7274C22.7821 34.179 22.8584 34.6633 22.8366 35.0986C22.7985 35.9801 22.4332 36.6602 22.1116 37.1336L22.1061 37.1227ZM33.6632 22.3226C32.8291 21.9634 31.9406 21.1908 31.3191 20.0753C31.0247 19.5149 30.7849 18.8728 30.6758 18.1655C30.5722 17.4581 30.6486 16.6854 30.8939 15.9509C31.4063 14.4872 32.7038 13.2738 34.2629 12.833C35.0315 12.6154 35.8983 12.561 36.6724 12.8439L37.2339 13.0453C37.4138 13.1269 37.5774 13.2303 37.7518 13.3282C38.1062 13.4969 38.3842 13.7798 38.684 14.0192C39.7852 15.1184 40.2213 16.6528 40.0578 17.9097C39.9378 19.1884 39.3709 20.2168 38.7876 20.8589C38.2152 21.5282 37.6319 21.8383 37.3429 21.9907C37.1194 22.1158 36.9232 22.1702 36.7651 22.2137C36.6397 22.2464 36.5416 22.2682 36.4707 22.2845C36.4544 22.2954 36.4326 22.3117 36.4053 22.328C36.2745 22.4096 36.0237 22.562 35.5222 22.6327C35.1896 22.6926 34.4809 22.698 33.6523 22.328L33.6632 22.3226ZM41.9222 40.0229C41.5188 40.7031 41.0009 41.0459 40.7392 41.1765C40.6247 41.2254 40.5211 41.2635 40.4339 41.2962C40.4176 41.3016 40.4121 41.3179 40.4012 41.3234C40.1614 41.4866 39.6653 41.8022 38.8748 41.9328C38.4823 41.9763 38.0244 42.0144 37.5338 41.8893C37.054 41.775 36.5416 41.5628 36.0782 41.2146C35.6148 40.8663 35.2278 40.3821 34.928 39.8379C34.7699 39.5713 34.6554 39.272 34.5518 38.9564C34.4809 38.63 34.3828 38.3035 34.3992 37.9553C34.3665 37.6125 34.4537 37.2588 34.5136 36.9105C34.6445 36.5732 34.759 36.2413 34.9716 35.9474C35.3641 35.3489 35.8983 34.8429 36.5252 34.5218C37.1412 34.1954 37.8281 33.9832 38.5259 33.9233C39.2183 33.8798 39.916 33.9886 40.5539 34.2443C40.8537 34.4184 41.1644 34.549 41.4043 34.7721L41.6005 34.9299L41.6987 35.017C41.7477 35.0442 41.775 35.1095 41.8022 35.1367C41.8895 35.2727 41.9985 35.4033 42.0694 35.5502C42.3801 36.1161 42.5164 36.7092 42.5491 37.2642C42.62 38.3851 42.3256 39.3482 41.9222 40.012V40.0229ZM49.854 8.03931C49.8268 7.61489 49.9249 7.15239 50.1212 6.71165C50.3501 6.28723 50.6881 5.88458 51.1351 5.6234C51.3477 5.49281 51.5821 5.40031 51.8166 5.30781C52.0619 5.25884 52.3072 5.15545 52.547 5.15545C52.7924 5.13369 53.0268 5.0956 53.3048 5.10648C53.5828 5.11736 53.8554 5.17178 54.1116 5.26972C54.6295 5.4656 55.0656 5.84105 55.3545 6.29267C55.4254 6.40694 55.4908 6.52665 55.5453 6.64091C55.6162 6.81503 55.6217 6.89121 55.6653 7.01636C55.7361 7.23945 55.7798 7.47342 55.8234 7.70195C55.8997 8.15902 55.9324 8.62697 55.8615 9.08403C55.8016 9.53565 55.6435 9.97639 55.3764 10.3301C55.1147 10.6838 54.7603 10.9449 54.406 11.0646C54.237 11.1408 54.068 11.1735 53.9045 11.2007C53.7464 11.2388 53.5937 11.2279 53.452 11.2333C53.1631 11.2496 52.9341 11.1952 52.7324 11.1789C52.5525 11.1299 52.4053 11.0864 52.3017 11.0538C52.2091 11.0157 52.1273 10.9885 52.0619 10.9504C51.9583 10.9504 51.7893 10.9014 51.4949 10.7599C51.4077 10.7055 51.2769 10.613 51.1188 10.4988C50.9661 10.3682 50.7862 10.1995 50.6118 9.98728C50.2574 9.55742 49.8813 8.88814 49.8486 8.03387L49.854 8.03931ZM58.5218 28.6725C57.9931 29.4397 57.3716 29.7825 57.0663 29.9457C56.5702 30.1688 56.2704 30.196 56.1178 30.2015C55.9978 30.2015 55.9542 30.1852 55.9324 30.1525C55.8179 30.1906 55.7034 30.2178 55.5726 30.2396C55.5344 30.2505 55.4363 30.2668 55.3927 30.2559C55.3382 30.2613 55.2891 30.2613 55.2346 30.2613C55.1256 30.2613 55.0166 30.2613 54.9021 30.2505C53.9753 30.2069 52.8251 29.8424 51.7838 29.0207C51.2605 28.6126 50.7862 28.0794 50.4155 27.4319C50.0394 26.7789 49.8431 25.9845 49.8649 25.1792C49.8867 24.3739 50.1321 23.5414 50.6499 22.8504C50.7808 22.6763 50.9225 22.5185 51.0861 22.3661C51.2551 22.2246 51.4186 22.1049 51.593 21.9907C51.9365 21.7676 52.2963 21.5608 52.6833 21.4139C53.4411 21.0929 54.2752 20.9405 55.0983 20.9731C55.9269 20.9895 56.7447 21.2561 57.4152 21.7077C57.7532 21.9254 58.0421 22.2137 58.2874 22.4967C58.4128 22.6436 58.5273 22.796 58.6418 22.9429C58.7453 23.0952 58.8271 23.2639 58.9253 23.4326C59.2687 24.0964 59.4213 24.8038 59.454 25.4622C59.5031 26.7953 59.0506 27.9216 58.5273 28.6616L58.5218 28.6725ZM71.3546 17.7519C70.8966 18.1655 70.466 18.3287 70.2479 18.4103C70.1607 18.4321 70.0844 18.4538 70.0244 18.4647C69.9208 18.5463 69.7409 18.6388 69.4411 18.6987C69.2067 18.7422 68.7106 18.7368 68.1328 18.53C67.8547 18.4321 67.5222 18.258 67.2278 18.0784C66.8844 17.8716 66.5464 17.5615 66.3011 17.1643C66.0558 16.7562 65.9086 16.2828 65.854 15.7876L65.8431 15.706V15.6679L65.7941 15.4775C65.7777 15.3469 65.7505 15.2218 65.7559 15.0803C65.7396 14.8082 65.7723 14.5198 65.8649 14.2423C66.0448 13.6764 66.4483 13.2085 66.8898 12.8875C67.1133 12.7188 67.3532 12.5882 67.5876 12.463C67.8547 12.3161 68.1382 12.2345 68.4108 12.1855C68.6834 12.1311 68.9505 12.0985 69.2285 12.0985C69.3975 12.0985 69.5665 12.093 69.7464 12.1202C69.8663 12.1311 69.9862 12.1638 70.1171 12.2073C70.6186 12.376 71.1365 12.6752 71.5072 13.0561C71.698 13.2411 71.8615 13.4098 72.0142 13.6383C72.0851 13.7526 72.1614 13.8614 72.2268 13.9811C72.2759 14.1063 72.3249 14.226 72.3794 14.3403C72.543 14.8354 72.5539 15.3415 72.4721 15.7931C72.4339 16.0162 72.374 16.2229 72.2922 16.4079C72.0578 17.001 71.6817 17.4363 71.3491 17.7519H71.3546Z" fill="#FFF6DC"/>
<path d="M83.5991 30.0055C83.61 29.7062 83.5936 29.4069 83.5609 29.1131C83.5337 28.8193 83.5119 28.5254 83.4846 28.237C83.4683 28.0629 83.4519 27.8943 83.4355 27.7147C82.9013 28.1065 82.3507 28.4982 81.8001 28.8954C81.0424 29.4396 80.2955 30.0055 79.505 30.5333C78.7146 31.0665 77.9241 31.6052 77.1282 32.1384C76.3159 32.688 75.4928 33.2267 74.6587 33.7599C68.9347 37.4327 62.72 40.8335 56.3473 43.8643C49.0423 47.3576 41.4812 50.2632 34.1817 52.6954C32.3609 53.3212 30.5401 53.849 28.7629 54.4149C26.964 54.9372 25.2086 55.4378 23.475 55.9438C22.4611 56.2159 21.4525 56.4662 20.4658 56.6784C20.5203 56.7546 20.5694 56.8362 20.6239 56.9124C20.9783 57.4184 21.4852 58.1748 22.2212 59.0345C22.9953 59.9486 24.0365 60.9879 25.4484 61.9727C26.8059 62.9304 28.4686 63.8609 30.3766 64.6607C31.336 65.0634 32.3554 65.4225 33.4348 65.7163C33.9745 65.8741 34.5306 66.0047 35.0921 66.1135C35.6536 66.2115 36.2478 66.2659 36.842 66.3475C41.6447 66.8862 47.1398 66.6087 52.733 65.3518C55.5296 64.7206 58.3534 63.8609 61.1228 62.7617C62.5129 62.2122 63.8757 61.6082 65.2277 60.9389C65.8982 60.6016 66.5742 60.2696 67.2229 59.8942L68.2042 59.3446C68.5258 59.1542 68.8257 58.9311 69.1418 58.7298C71.6332 57.0974 73.8791 55.0733 75.7763 52.8043C77.6625 50.5298 79.2052 48.0214 80.4045 45.4423C82.8468 40.284 83.7517 34.8046 83.61 30.0055H83.5991ZM40.9469 56.9505C41.0014 56.5206 41.2413 56.1071 41.5575 55.8024C42.1899 55.1658 43.1875 54.9481 44.0488 55.1549C44.9156 55.3453 45.7006 55.9765 46.0004 56.7872C46.1585 57.1736 46.2348 57.598 46.2021 58.0006C46.1585 58.4033 46.0277 58.7733 45.8478 59.078C45.6624 59.3882 45.4117 59.6221 45.1718 59.8126C44.9156 59.9813 44.6539 60.1064 44.4086 60.1554C43.9779 60.2479 43.6454 60.1935 43.4546 60.1282C43.4328 60.1499 43.411 60.1608 43.3728 60.1717C43.2856 60.188 43.1221 60.188 42.8658 60.0955C42.5388 59.9704 41.5629 59.4317 41.0669 58.0931C40.9578 57.7558 40.8924 57.364 40.9524 56.945L40.9469 56.9505ZM70.6682 50.1C70.4011 51.21 69.6979 52.0153 69.0437 52.4288C68.733 52.592 68.4713 52.7553 68.2096 52.8315C68.0897 52.9348 67.888 53.0818 67.4846 53.2069C67.3429 53.2668 67.1139 53.2722 66.8359 53.3103C66.5524 53.2994 66.2035 53.2831 65.8219 53.1634C65.3258 53.0273 64.7916 52.739 64.2955 52.3037C64.0229 52.0697 63.7613 51.7813 63.5268 51.4603C62.9163 50.5353 62.4202 49.2348 62.9435 47.8201C63.2543 47.1508 63.7885 46.6774 64.29 46.2748C64.4263 46.1714 64.519 46.0952 64.6553 45.9755C64.7916 45.8667 64.9333 45.7633 65.086 45.6653C65.3858 45.4749 65.7129 45.3225 66.0618 45.2137C66.4161 45.1158 66.7923 45.0668 67.163 45.0886C67.5446 45.1103 67.8989 45.2246 68.2096 45.3606C68.8366 45.5892 69.4362 45.9973 69.8451 46.5196C69.856 46.5305 69.8723 46.5414 69.8778 46.5577C70.2975 47.091 70.5756 47.7004 70.701 48.3207C70.8263 48.941 70.7827 49.545 70.6573 50.1H70.6682Z" fill="#FFF6DC"/>
<path d="M96.7756 12.6696C96.5957 13.3226 96.3449 13.9918 96.0069 14.6393C95.3419 15.9289 94.3879 17.1314 93.2703 18.2578C92.1528 19.3841 90.8935 20.4615 89.5579 21.5334C88.2332 22.6108 86.8976 23.7371 85.4638 24.8036C85.0441 25.1246 84.6298 25.4456 84.2045 25.7721C83.9102 25.9952 83.6103 26.2237 83.316 26.4577C83.3105 26.4577 83.2996 26.4686 83.2942 26.4795C82.5582 27.0018 81.8223 27.5351 81.0809 28.0683C79.5872 29.1729 78.0117 30.2122 76.4308 31.2732C70.0744 35.5228 63.0256 39.4296 55.7698 42.8903C48.5084 46.3563 40.9854 49.2456 33.7404 51.6779C31.9306 52.2927 30.1207 52.8314 28.349 53.3973C26.5663 53.9197 24.8164 54.4311 23.0938 54.9317C22.0035 55.231 20.9186 55.4976 19.8447 55.7316C19.6212 55.7806 19.4031 55.8241 19.1851 55.8676C17.1081 56.292 15.0747 56.5913 13.1121 56.7382C9.93395 56.9722 6.88659 56.8253 4.35711 55.9166C3.72474 55.6826 3.14144 55.4051 2.60174 55.0841C2.33462 54.9154 2.0784 54.7467 1.84399 54.5508C1.71861 54.4583 1.60413 54.3713 1.4951 54.2625C1.40787 54.1754 1.24978 54.0448 1.24978 54.0285C1.03172 53.653 1.00447 53.1307 1.14621 52.6355C1.28249 52.1349 1.53326 51.6561 1.81673 51.2099C2.40549 50.3176 3.10328 49.5558 3.77381 48.8811C4.44433 48.2064 5.10941 47.6241 5.70907 47.1181C6.92475 46.0952 7.93872 45.3551 8.63105 44.8491C10.6644 43.3745 11.9401 42.5856 12.6597 42.1122C13.0631 41.851 13.3029 41.6932 13.4283 41.5953C13.4556 41.7313 13.4883 41.8728 13.5265 42.0088C13.63 42.4169 13.7282 42.8195 13.8208 43.2113C13.859 43.3528 13.9026 43.4942 13.9408 43.6303C13.2593 43.8316 10.3155 45.3279 7.7043 47.3358C6.40686 48.3261 5.10396 49.3817 4.29169 50.5352C3.44672 51.667 3.24501 52.8097 3.27772 53.1905C3.27772 53.3211 3.30498 53.4136 3.33769 53.4898C3.30498 53.4789 3.27772 53.4735 3.24501 53.468C2.70532 53.3647 2.57449 53.3973 2.54723 53.468C2.52542 53.5279 2.58539 53.6095 3.09783 53.8326C3.35404 53.9414 3.71384 54.1047 4.25353 54.257C4.52065 54.3386 4.83139 54.4311 5.18573 54.5291C5.54553 54.6107 5.95439 54.7032 6.40686 54.8011C7.60618 55.0188 9.9503 55.3725 13.1285 55.1875C14.7367 55.1113 16.552 54.8991 18.52 54.5454C18.689 54.5182 18.858 54.4856 19.027 54.4583C20.7987 54.121 22.6849 53.6694 24.6474 53.0926C29.0195 51.8302 33.784 49.9965 38.7067 47.8799C41.1544 46.808 43.6675 45.7088 46.2134 44.5934C48.7646 43.4997 51.3214 42.2917 53.8781 41.1219C58.9807 38.7495 64.0451 36.2574 68.7388 33.6619C73.4379 31.0828 77.7391 28.3404 81.4079 25.6524C81.9422 25.2606 82.4546 24.8743 82.9616 24.4825C83.2614 24.254 83.5558 24.0255 83.8502 23.7915C86.4342 21.7728 88.6202 19.8357 90.3374 18.1217C90.6209 17.8497 90.8989 17.583 91.1606 17.3273C91.4114 17.0607 91.6567 16.7995 91.8911 16.5547C92.3545 16.0595 92.7851 15.6024 93.1667 15.1943C93.9408 14.389 94.5132 13.6327 94.7858 13.0233C94.993 12.5825 95.0965 12.1472 95.1129 11.7337C95.1238 11.3583 95.042 11.0372 94.9385 10.7706C95.1075 10.7543 95.1783 10.6944 95.2165 10.6019C95.2601 10.4877 95.2274 10.3462 94.6822 10.0524C94.6059 10.0088 94.4969 9.96531 94.3715 9.91634C94.3715 9.91634 94.3715 9.91453 94.3715 9.9109C94.2298 9.77487 94.0826 9.67692 93.9463 9.61163C93.6301 9.45383 93.3957 9.47016 93.2649 9.48648C93.1613 9.50825 93.1122 9.54089 93.1013 9.57354C92.6979 9.5028 92.2345 9.44295 91.7276 9.4103C90.2284 9.31236 88.3913 9.52457 86.6195 9.82928C83.0815 10.4278 79.5599 11.1025 78.824 11.3746C78.535 11.4834 78.3878 11.5759 78.317 11.6575C78.2025 11.5269 78.0989 11.4018 78.0008 11.293C77.532 10.7761 77.1122 10.3625 76.7415 10.0197C76.856 9.99796 77.0086 9.95987 77.1885 9.9109C77.9517 9.72045 79.3364 9.2906 81.9095 8.73559C83.5885 8.38735 86.8376 7.71808 91.3023 7.59837C92.3817 7.5766 93.5538 7.69631 94.6277 8.1697C95.718 8.61044 96.6393 9.52457 96.8683 10.738C96.9882 11.3474 96.9173 12.0003 96.781 12.6587L96.7756 12.6696Z" fill="#FFC82B"/>
<path d="M38.69 14.0128C38.3902 13.7734 38.1122 13.4905 37.7578 13.3218C37.5834 13.2293 37.4198 13.1205 37.2399 13.0388L36.6784 12.8375C35.9043 12.5546 35.0321 12.609 34.2689 12.8212C32.7043 13.2674 31.4123 14.4753 30.8944 15.9445C30.6491 16.679 30.5783 17.4463 30.6764 18.1591C30.7854 18.8664 31.0253 19.5085 31.3197 20.0744C31.9411 21.1898 32.8243 21.9679 33.6583 22.3216C34.487 22.6971 35.1956 22.6862 35.5282 22.6263C36.0297 22.561 36.275 22.4032 36.4113 22.3216C36.4386 22.3053 36.4549 22.2944 36.4713 22.2781C36.5476 22.2618 36.6403 22.24 36.7711 22.2073C36.9238 22.1638 37.1255 22.1148 37.3435 21.9842C37.6379 21.8319 38.2157 21.5217 38.7936 20.8525C39.3715 20.205 39.9439 19.182 40.0638 17.9033C40.2219 16.6464 39.7858 15.112 38.69 14.0128ZM38.2594 20.4281C38.0413 20.7436 37.7687 20.945 37.5725 21.1409C37.3599 21.315 37.1745 21.4238 37.0546 21.5163C36.8856 21.6632 36.7275 21.7394 36.6076 21.8156C36.4876 21.8917 36.395 21.957 36.335 22.0006C36.3186 22.0169 36.3077 22.0278 36.2968 22.0332C36.1442 22.0332 35.9043 22.0876 35.4791 22.0713C35.1902 22.0713 34.6178 22.0387 33.9364 21.6904C33.2604 21.3639 32.519 20.6675 31.9956 19.6826C31.7503 19.1874 31.5595 18.6324 31.4832 18.0285C31.4069 17.4245 31.4832 16.8042 31.6958 16.2056C32.1265 15.014 33.2277 13.9965 34.5251 13.6374C35.1629 13.4687 35.8498 13.4252 36.4495 13.6537L36.9183 13.8169C37.0655 13.8877 37.2072 13.9802 37.349 14.0564C37.6542 14.1924 37.8723 14.4318 38.1285 14.6222C39.0226 15.5201 39.4096 16.7715 39.2897 17.8543C39.2079 18.9426 38.7445 19.835 38.2648 20.4226L38.2594 20.4281Z" fill="#3B2900"/>
<path d="M39.284 17.8605C39.2022 18.9488 38.7389 19.8411 38.2591 20.4288C38.0411 20.7444 37.7685 20.9457 37.5723 21.1416C37.3596 21.3157 37.1743 21.4245 37.0544 21.517C36.8854 21.6639 36.7273 21.7401 36.6073 21.8163C36.4874 21.8925 36.3947 21.9578 36.3348 22.0013C36.3184 22.0176 36.3075 22.0285 36.2966 22.0339C36.144 22.0339 35.9041 22.0884 35.4789 22.072C35.19 22.072 34.6176 22.0394 33.9361 21.6911C33.2602 21.3647 32.5188 20.6682 31.9954 19.6833C31.7501 19.1882 31.5593 18.6332 31.483 18.0292C31.4067 17.4252 31.483 16.8049 31.6956 16.2064C32.1263 15.0147 33.2274 13.9972 34.5249 13.6381C35.1627 13.4694 35.8496 13.4259 36.4493 13.6544L36.9181 13.8177C37.0653 13.8884 37.207 13.9809 37.3487 14.0571C37.654 14.1931 37.8721 14.4325 38.1283 14.623C39.0223 15.5208 39.4094 16.7723 39.2895 17.8551L39.284 17.8605Z" fill="#FFB936"/>
<path d="M55.8295 7.70166C55.7859 7.47313 55.7422 7.23916 55.6714 7.01606C55.6332 6.89092 55.6278 6.81474 55.5514 6.64062C55.4969 6.52091 55.437 6.4012 55.3606 6.28694C55.0717 5.83531 54.6356 5.46531 54.1177 5.26398C53.8615 5.16604 53.5889 5.11163 53.3109 5.10075C53.0329 5.09531 52.8039 5.13339 52.5586 5.14972C52.3187 5.15516 52.068 5.25854 51.8281 5.30207C51.5937 5.39457 51.3538 5.48708 51.1412 5.61766C50.6942 5.87884 50.3562 6.27606 50.1273 6.70591C49.9256 7.1521 49.8329 7.60916 49.8601 8.03358C49.8928 8.88785 50.269 9.55712 50.6233 9.98698C50.7978 10.1992 50.9777 10.3624 51.1249 10.4985C51.2884 10.6127 51.4138 10.7052 51.501 10.7542C51.8008 10.8957 51.9644 10.9501 52.0734 10.9446C52.1388 10.9827 52.2206 11.0099 52.3133 11.048C52.4169 11.0807 52.5586 11.1188 52.7439 11.1677C52.9402 11.1841 53.1746 11.2439 53.4581 11.2276C53.5998 11.2221 53.7525 11.2276 53.9106 11.1895C54.0741 11.1623 54.2431 11.1296 54.4121 11.0535C54.7664 10.9338 55.1208 10.678 55.377 10.3189C55.6441 9.97066 55.8022 9.52448 55.8622 9.07829C55.933 8.62123 55.9003 8.15328 55.824 7.69622L55.8295 7.70166ZM54.7446 9.88904C54.4285 10.3733 53.8615 10.5148 53.4199 10.5529C53.1964 10.5855 52.9893 10.5529 52.8203 10.5583C52.6513 10.5365 52.5204 10.5257 52.4223 10.5202C52.2479 10.5039 52.117 10.4985 52.0189 10.5039C51.9644 10.4495 51.899 10.3896 51.8227 10.3189C51.7572 10.2536 51.6591 10.1557 51.5337 10.0468C51.4247 9.91625 51.2884 9.76389 51.1576 9.57345C50.885 9.20344 50.6288 8.64844 50.6342 8.00637C50.6233 7.69078 50.716 7.36975 50.8523 7.06504C51.0267 6.78209 51.2557 6.52091 51.5773 6.34135C51.7409 6.25429 51.9099 6.17811 52.0952 6.11826C52.2915 6.08561 52.4714 6.00399 52.684 6.00943C52.8911 5.99311 53.1092 5.96046 53.2945 5.9659C53.4744 5.97679 53.6543 6.01488 53.8233 6.08017C54.1613 6.21076 54.4557 6.46106 54.652 6.77121C54.701 6.84739 54.7446 6.929 54.7773 7.01062C54.7937 7.04327 54.7882 7.02695 54.7937 7.04871L54.8155 7.12489L54.8591 7.27724C54.9245 7.47313 54.9627 7.67445 55.0009 7.87034C55.0717 8.26211 55.099 8.65388 55.0554 8.99668C55.0172 9.35036 54.9082 9.66595 54.7392 9.89448L54.7446 9.88904Z" fill="#3B2900"/>
<path d="M55.0612 8.99102C55.0231 9.3447 54.914 9.6603 54.7451 9.88883C54.4289 10.3731 53.8619 10.5146 53.4204 10.5527C53.1968 10.5853 52.9897 10.5527 52.8207 10.5581C52.6517 10.5363 52.5209 10.5255 52.4227 10.52C52.2483 10.5037 52.1175 10.4982 52.0193 10.5037C51.9648 10.4493 51.8994 10.3894 51.8231 10.3187C51.7577 10.2534 51.6595 10.1554 51.5341 10.0466C51.4251 9.91603 51.2888 9.76368 51.158 9.57324C50.8854 9.20323 50.6292 8.64822 50.6347 8.00616C50.6238 7.69057 50.7164 7.36953 50.8527 7.06482C51.0272 6.78188 51.2561 6.5207 51.5778 6.34114C51.7413 6.25408 51.9103 6.1779 52.0956 6.11805C52.2919 6.0854 52.4718 6.00378 52.6844 6.00922C52.8916 5.9929 53.1096 5.96025 53.295 5.96569C53.4749 5.97657 53.6548 6.01466 53.8238 6.07996C54.1617 6.21055 54.4561 6.46085 54.6524 6.771C54.7014 6.84717 54.7451 6.92879 54.7778 7.01041C54.7941 7.04306 54.7887 7.02673 54.7941 7.0485L54.8159 7.12468L54.8595 7.27703C54.925 7.47292 54.9631 7.67424 55.0013 7.87013C55.0721 8.2619 55.0994 8.65367 55.0558 8.99646L55.0612 8.99102Z" fill="#FFB936"/>
<path d="M22.5752 33.7218C22.368 33.2539 22.0409 32.8785 21.6593 32.5411C21.2723 32.2037 20.7926 31.9262 20.2474 31.8011C19.9694 31.7358 19.675 31.7249 19.3861 31.7576C19.0917 31.7848 18.8082 31.899 18.5738 32.0187C18.0941 32.2201 17.6198 32.5846 17.2927 33.0036C16.9547 33.4226 16.7149 33.9177 16.5949 34.4238C16.475 34.9298 16.4696 35.4576 16.5949 35.9473C16.7203 36.4316 16.9711 36.8614 17.2655 37.1934C17.8815 37.8681 18.6556 38.1184 19.2225 38.2163C19.8004 38.3143 20.2256 38.2707 20.4437 38.249C20.4873 38.2435 20.5254 38.2326 20.5581 38.2272C20.5581 38.2435 20.5745 38.2598 20.5799 38.2762C20.629 38.3415 20.7489 38.4122 21.2941 38.015C21.4631 37.879 21.7847 37.6015 22.1118 37.1281C22.4334 36.6547 22.7932 35.9745 22.8368 35.093C22.8587 34.6577 22.7823 34.1789 22.5806 33.7273L22.5752 33.7218ZM21.5285 36.7635C21.2723 37.1879 21.0215 37.4654 20.907 37.6232C20.8743 37.6667 20.8471 37.7048 20.8144 37.7375C20.7108 37.7212 20.5799 37.7103 20.4055 37.6994C20.2092 37.6776 19.8276 37.6722 19.337 37.547C18.8573 37.4273 18.2631 37.1879 17.8324 36.671C17.3963 36.1704 17.1946 35.3923 17.4072 34.6142C17.6089 33.8361 18.1541 33.1179 18.9554 32.786C19.6696 32.3833 20.5091 32.6608 21.1305 33.1886C21.4358 33.4552 21.7084 33.7654 21.8501 34.081C22.0028 34.402 22.0682 34.7557 22.0573 35.0822C22.0464 35.7569 21.7793 36.3445 21.5285 36.7689V36.7635Z" fill="#3B2900"/>
<path d="M22.0516 35.076C22.0407 35.7508 21.7736 36.3384 21.5229 36.7628C21.2666 37.1872 21.0159 37.4647 20.9014 37.6225C20.8687 37.6661 20.8414 37.7042 20.8087 37.7368C20.7051 37.7205 20.5743 37.7096 20.3999 37.6987C20.2036 37.677 19.822 37.6715 19.3314 37.5464C18.8516 37.4267 18.2574 37.1872 17.8268 36.6703C17.3907 36.1697 17.189 35.3916 17.4016 34.6135C17.6033 33.8354 18.1484 33.1172 18.9498 32.7853C19.6639 32.3826 20.5034 32.6601 21.1249 33.1879C21.4302 33.4546 21.7028 33.7647 21.8445 34.0803C21.9971 34.4013 22.0625 34.755 22.0516 35.0815V35.076Z" fill="#FFB936"/>
<path d="M42.5499 37.2755C42.5227 36.726 42.381 36.122 42.0702 35.5615C41.9994 35.4146 41.8903 35.284 41.8031 35.148C41.7758 35.1208 41.7486 35.0555 41.6995 35.0283L41.6014 34.9412L41.4051 34.7834C41.1598 34.5603 40.8491 34.4243 40.5493 34.2556C39.9114 34.0053 39.2191 33.8911 38.5213 33.9346C37.8235 33.9945 37.1421 34.2012 36.5261 34.5331C35.8992 34.8542 35.3649 35.3656 34.9724 35.9587C34.7598 36.2471 34.6453 36.5899 34.5145 36.9218C34.4491 37.2701 34.3673 37.6183 34.4 37.9666C34.3837 38.3148 34.4872 38.6413 34.5527 38.9677C34.6562 39.2833 34.7707 39.5772 34.9288 39.8492C35.2286 40.3934 35.6157 40.8776 36.0791 41.2204C36.5424 41.5687 37.0494 41.7863 37.5346 41.9006C38.0252 42.0203 38.4832 41.9822 38.8757 41.9387C39.6661 41.8081 40.1622 41.487 40.4021 41.3292C40.413 41.3184 40.4184 41.3075 40.4348 41.302C40.5275 41.2694 40.6256 41.2367 40.7401 41.1823C41.0072 41.0463 41.5196 40.7035 41.923 40.0288C42.3319 39.365 42.6208 38.4019 42.5499 37.281V37.2755ZM41.3234 39.6969C41.0562 40.1975 40.7401 40.4695 40.5438 40.6382C40.4293 40.6926 40.2876 40.7688 40.1131 40.8504C39.8787 40.9484 39.4263 41.1932 38.7721 41.2531C38.4505 41.2748 38.0798 41.2803 37.6927 41.1715C37.3111 41.0626 36.9131 40.8776 36.5533 40.5838C36.1936 40.3009 35.8883 39.8982 35.643 39.4357C35.4031 38.9732 35.2341 38.4508 35.2395 37.923C35.1796 36.8402 35.9428 35.8118 36.9568 35.2623C37.4692 34.9956 38.0361 34.827 38.6085 34.7726C39.1809 34.7453 39.7425 34.8378 40.2385 35.0283C40.4729 35.1643 40.7237 35.2623 40.9145 35.4418C41.0017 35.5234 41.1435 35.6051 41.1653 35.6595C41.2307 35.7629 41.3234 35.8445 41.3724 35.9642C41.6068 36.3995 41.7431 36.8838 41.7758 37.3517C41.8576 38.293 41.6287 39.1364 41.3234 39.6969Z" fill="#3B2900"/>
<path d="M41.3225 39.6958C41.0554 40.1964 40.7392 40.4685 40.5429 40.6372C40.4284 40.6916 40.2867 40.7678 40.1123 40.8494C39.8778 40.9473 39.4254 41.1922 38.7712 41.252C38.4496 41.2738 38.0789 41.2792 37.6918 41.1704C37.3102 41.0616 36.9123 40.8766 36.5525 40.5828C36.1927 40.2998 35.8874 39.8972 35.6421 39.4347C35.4022 38.9722 35.2332 38.4498 35.2387 37.922C35.1787 36.8392 35.9419 35.8108 36.9559 35.2612C37.4683 34.9946 38.0353 34.8259 38.6077 34.7715C39.1801 34.7443 39.7416 34.8368 40.2376 35.0273C40.4721 35.1633 40.7228 35.2612 40.9136 35.4408C41.0008 35.5224 41.1426 35.604 41.1644 35.6584C41.2298 35.7618 41.3225 35.8434 41.3715 35.9631C41.606 36.3984 41.7422 36.8827 41.775 37.3507C41.8567 38.292 41.6278 39.1354 41.3225 39.6958Z" fill="#FFB936"/>
<path d="M59.4487 25.4726C59.416 24.8088 59.2634 24.1069 58.9199 23.4431C58.8273 23.2798 58.74 23.1057 58.6365 22.9533C58.522 22.8064 58.4021 22.6541 58.2821 22.5072C58.0368 22.2188 57.7479 21.9358 57.4099 21.7182C56.7339 21.2666 55.9162 20.9999 55.0876 20.9836C54.2644 20.951 53.4358 21.1033 52.6726 21.4189C52.2855 21.5658 51.9257 21.7726 51.5823 21.9957C51.4078 22.11 51.2443 22.2297 51.0753 22.3711C50.9063 22.5235 50.7646 22.6813 50.6392 22.85C50.1213 23.541 49.876 24.3789 49.8542 25.1788C49.8324 25.9841 50.0286 26.7731 50.4048 27.4315C50.7755 28.079 51.2497 28.6122 51.7731 29.0203C52.8143 29.842 53.97 30.2065 54.8913 30.25C55.0058 30.2609 55.1148 30.2609 55.2239 30.2609C55.2784 30.2609 55.3274 30.2609 55.382 30.2555C55.4256 30.2609 55.5237 30.25 55.5619 30.2392C55.6927 30.2174 55.8126 30.1848 55.9216 30.1521C55.9434 30.1793 55.9925 30.1956 56.107 30.1956C56.2651 30.1956 56.5595 30.163 57.0555 29.9453C57.3608 29.7821 57.9823 29.4339 58.5111 28.6721C59.0344 27.9266 59.4869 26.8057 59.4378 25.4726H59.4487ZM57.9441 28.3075C57.8187 28.5143 57.677 28.683 57.5407 28.8299C57.4317 28.8299 57.1755 28.9496 56.5159 29.2761C56.2324 29.3903 55.6927 29.7114 54.9295 29.5862C54.139 29.5046 53.136 29.1564 52.2528 28.4164C51.8058 28.0518 51.4133 27.5784 51.108 27.0397C50.8136 26.501 50.6664 25.859 50.6883 25.2006C50.7155 24.5476 50.9227 23.8784 51.3315 23.3614C51.7022 22.8608 52.3782 22.4854 53.0215 22.2133C54.3298 21.6692 55.8889 21.691 56.9574 22.431C57.0992 22.5126 57.2082 22.6269 57.3336 22.7248C57.4535 22.8391 57.5625 22.9588 57.677 23.0731C57.7806 23.1982 57.8787 23.3233 57.9768 23.4485C58.0695 23.5791 58.1404 23.7151 58.2222 23.8457C58.5056 24.3898 58.6419 24.9829 58.6746 25.5434C58.74 26.6806 58.3693 27.6655 57.9496 28.3184L57.9441 28.3075Z" fill="#3B2900"/>
<path d="M57.9445 28.3077C57.8191 28.5145 57.6774 28.6832 57.5411 28.8301C57.4321 28.8301 57.1759 28.9498 56.5162 29.2763C56.2328 29.3905 55.6931 29.7116 54.9299 29.5864C54.1394 29.5048 53.1363 29.1566 52.2532 28.4165C51.8062 28.052 51.4137 27.5786 51.1084 27.0399C50.814 26.5012 50.6668 25.8592 50.6886 25.2008C50.7159 24.5478 50.9231 23.8786 51.3319 23.3616C51.7026 22.861 52.3786 22.4856 53.0219 22.2135C54.3302 21.6694 55.8893 21.6912 56.9578 22.4312C57.0995 22.5128 57.2086 22.6271 57.334 22.725C57.4539 22.8393 57.5629 22.959 57.6774 23.0733C57.781 23.1984 57.8791 23.3235 57.9772 23.4487C58.0699 23.5793 58.1408 23.7153 58.2225 23.8459C58.506 24.39 58.6423 24.9831 58.675 25.5436C58.7404 26.6808 58.3697 27.6657 57.95 28.3186L57.9445 28.3077Z" fill="#FFB936"/>
<path d="M72.385 14.3346C72.3304 14.2149 72.2814 14.0952 72.2269 13.9755C72.1669 13.8558 72.0906 13.7469 72.0143 13.6327C71.8616 13.4041 71.6981 13.2355 71.5073 13.045C71.1366 12.6641 70.6187 12.3649 70.1172 12.1962C69.7737 12.071 69.512 12.0874 69.2286 12.0874C68.9505 12.0874 68.6834 12.12 68.4109 12.1744C68.1383 12.2288 67.8548 12.3105 67.5877 12.4519C67.3533 12.5716 67.1134 12.7131 66.8899 12.8763C66.4429 13.2028 66.0449 13.6708 65.865 14.2312C65.7723 14.5087 65.7396 14.7971 65.756 15.0692C65.756 15.2106 65.7778 15.3358 65.7942 15.4718L65.8378 15.6623L65.8487 15.7004V15.7765C65.9141 16.2717 66.0613 16.7451 66.3066 17.1477C66.5519 17.5504 66.8899 17.866 67.2333 18.0673C67.5332 18.2414 67.8548 18.421 68.1383 18.5135C68.7161 18.7257 69.2122 18.7311 69.4521 18.6876C69.7465 18.6332 69.9264 18.5407 70.0299 18.4536C70.0954 18.4427 70.1662 18.421 70.2534 18.3992C70.466 18.3176 70.8967 18.1544 71.3601 17.7408C71.8017 17.3273 72.3141 16.6907 72.4831 15.7765C72.5703 15.3303 72.554 14.8243 72.3904 14.3237L72.385 14.3346ZM71.709 15.6731C71.6109 16.3587 71.2129 16.9029 70.8804 17.262C70.5206 17.6266 70.188 17.8007 70.0245 17.9041C69.8282 18.0183 69.6974 18.0945 69.6102 18.1489C69.5502 18.1489 69.4848 18.1489 69.4139 18.1435C69.2286 18.1271 68.8579 18.0891 68.3836 17.8769C68.1437 17.7735 67.9039 17.6266 67.6149 17.4416C67.3751 17.2674 67.1407 17.0389 66.9771 16.7396C66.8136 16.4404 66.7045 16.0758 66.6664 15.6786L66.6555 15.5806L66.6337 15.4718L66.6064 15.3303C66.5955 15.2324 66.5792 15.1345 66.5846 15.042C66.5846 14.8461 66.601 14.6611 66.6664 14.4815C66.7918 14.1278 67.0589 13.8122 67.4132 13.5565C67.5877 13.4314 67.7839 13.3116 67.9965 13.2083C68.171 13.1212 68.3781 13.0559 68.5962 13.0124C68.8197 12.9688 69.0487 12.9416 69.2722 12.9362C69.4957 12.9362 69.7192 12.9362 69.8555 13.0015C70.2916 13.1484 70.635 13.3497 70.9458 13.6544C71.093 13.8014 71.262 13.97 71.3655 14.1224C71.4146 14.204 71.4691 14.2747 71.5127 14.3618L71.6272 14.6175C71.7471 14.9658 71.7689 15.3303 71.709 15.6677V15.6731Z" fill="#3B2900"/>
<path d="M71.7094 15.6726C71.6113 16.3582 71.2134 16.9023 70.8808 17.2615C70.521 17.626 70.1885 17.8001 70.0249 17.9035C69.8287 18.0178 69.6978 18.094 69.6106 18.1484C69.5507 18.1484 69.4852 18.1484 69.4144 18.1429C69.229 18.1266 68.8583 18.0885 68.384 17.8763C68.1442 17.7729 67.9043 17.626 67.6154 17.441C67.3755 17.2669 67.1411 17.0384 66.9776 16.7391C66.814 16.4398 66.705 16.0753 66.6668 15.6781L66.6559 15.5801L66.6341 15.4713L66.6069 15.3298C66.596 15.2319 66.5796 15.1339 66.5851 15.0414C66.5851 14.8455 66.6014 14.6605 66.6668 14.481C66.7922 14.1273 67.0593 13.8117 67.4137 13.556C67.5881 13.4308 67.7844 13.3111 67.997 13.2077C68.1714 13.1207 68.3786 13.0554 68.5967 13.0118C68.8202 12.9683 69.0491 12.9411 69.2726 12.9357C69.4961 12.9357 69.7197 12.9357 69.8559 13.001C70.2921 13.1479 70.6355 13.3492 70.9462 13.6539C71.0934 13.8008 71.2624 13.9695 71.366 14.1219C71.4151 14.2035 71.4696 14.2742 71.5132 14.3613L71.6277 14.617C71.7476 14.9653 71.7694 15.3298 71.7094 15.6672V15.6726Z" fill="#FFB936"/>
<path d="M70.7066 48.3205C70.5812 47.7056 70.3086 47.0908 69.8834 46.5575C69.4691 46.0189 68.8585 45.5999 68.2153 45.3605C67.9045 45.2244 67.5502 45.1156 67.1686 45.0938C66.7979 45.0721 66.4217 45.1156 66.0728 45.219C65.724 45.3224 65.3969 45.4747 65.097 45.6706C64.9444 45.7686 64.8027 45.8665 64.6664 45.9808C64.5355 46.1005 64.432 46.1767 64.3011 46.28C63.7996 46.6827 63.2599 47.1561 62.9546 47.8253C62.4313 49.2401 62.9274 50.5351 63.5379 51.4601C64.1975 52.3688 65.0589 52.9564 65.8275 53.1632C66.2091 53.2829 66.5526 53.2992 66.8415 53.3101C67.1195 53.272 67.3485 53.272 67.4902 53.2067C67.8936 53.0925 68.1008 52.9401 68.2207 52.8367C68.4769 52.7606 68.7441 52.5973 69.0548 52.4286C69.709 52.0151 70.4068 51.2098 70.6793 50.0998C70.7993 49.5448 70.8429 48.9354 70.7175 48.3151L70.7066 48.3205ZM69.9052 49.942C69.6981 50.8398 69.1638 51.5036 68.6405 51.8736C68.0953 52.26 67.6592 52.3797 67.4303 52.4123C67.0923 52.4667 66.9069 52.4232 66.787 52.4232C66.6671 52.4123 66.618 52.4395 66.5853 52.4885C66.5635 52.5211 66.5471 52.5701 66.6343 52.6572C66.5744 52.6463 66.5199 52.6463 66.4599 52.63C66.3182 52.6136 66.1819 52.5483 66.0238 52.5103C65.4132 52.3035 64.71 51.7866 64.1812 51.0085C63.925 50.6113 63.7233 50.1488 63.6251 49.6427C63.5161 49.153 63.5543 48.5762 63.7287 48.1518C63.9468 47.7056 64.372 47.3084 64.8572 46.9275C65.1297 46.7208 65.3314 46.5249 65.5768 46.3834C65.8166 46.2311 66.0783 46.1114 66.34 46.0352C66.8797 45.8828 67.3976 45.9155 67.9318 46.1549C68.4606 46.3617 68.9294 46.6718 69.2619 47.0962C69.5999 47.5152 69.818 48.0049 69.927 48.5001C70.0361 49.0007 70.0033 49.4958 69.9161 49.942H69.9052Z" fill="#3B2900"/>
<path d="M69.9047 49.9419C69.6975 50.8397 69.1633 51.5035 68.64 51.8735C68.0948 52.2599 67.6587 52.3796 67.4297 52.4122C67.0917 52.4666 66.9064 52.4231 66.7865 52.4231C66.6665 52.4122 66.6175 52.4394 66.5848 52.4884C66.5629 52.521 66.5466 52.57 66.6338 52.6571C66.5739 52.6462 66.5193 52.6462 66.4594 52.6299C66.3176 52.6135 66.1813 52.5482 66.0233 52.5102C65.4127 52.3034 64.7095 51.7865 64.1807 51.0084C63.9244 50.6112 63.7227 50.1487 63.6246 49.6426C63.5156 49.1529 63.5537 48.5761 63.7282 48.1517C63.9463 47.7055 64.3715 47.3083 64.8566 46.9274C65.1292 46.7207 65.3309 46.5248 65.5762 46.3833C65.8161 46.231 66.0778 46.1113 66.3394 46.0351C66.8791 45.8827 67.397 45.9154 67.9313 46.1548C68.4601 46.3616 68.9289 46.6717 69.2614 47.0961C69.5994 47.5151 69.8175 48.0048 69.9265 48.5C70.0355 49.0006 70.0028 49.4957 69.9156 49.9419H69.9047Z" fill="#FFB936"/>
<path d="M46.0006 56.7927C45.6953 55.9819 44.9103 55.3507 44.0489 55.1549C43.1876 54.9481 42.19 55.1712 41.5576 55.8024C41.2414 56.1071 41.0016 56.526 40.9471 56.9559C40.8925 57.3749 40.9471 57.7667 41.0615 58.104C41.5576 59.4426 42.5334 59.9812 42.8605 60.1064C43.1113 60.1934 43.2748 60.1934 43.3675 60.1771C43.4057 60.1662 43.4275 60.1554 43.4493 60.1336C43.6401 60.1989 43.9726 60.2533 44.4033 60.1608C44.6541 60.1118 44.9103 59.9867 45.1665 59.818C45.4118 59.6276 45.6571 59.3936 45.8479 59.0834C46.0278 58.7733 46.1641 58.4033 46.2023 58.0061C46.235 57.598 46.1641 57.179 46.0006 56.7872V56.7927ZM45.1665 58.7025C44.9212 59.1433 44.5341 59.4099 44.2179 59.5024C43.8908 59.6058 43.6237 59.5895 43.4874 59.5677C43.2803 59.5677 43.1495 59.5296 43.0513 59.5459C43.0513 59.5459 43.0477 59.5459 43.0404 59.5459C42.9096 59.448 42.7188 59.2956 42.5007 59.0562C42.2391 58.7678 41.9501 58.3597 41.7975 57.8483C41.6558 57.3422 41.6994 56.76 42.1409 56.39C42.5607 55.9874 43.2367 55.835 43.8581 55.9874C44.4796 56.1343 45.0138 56.5587 45.2265 57.1191C45.3409 57.4021 45.39 57.6796 45.3791 57.9517C45.3573 58.2292 45.2755 58.4795 45.1556 58.7025H45.1665Z" fill="#3B2900"/>
<path d="M45.3893 57.9513C45.3675 58.2288 45.2857 58.4791 45.1658 58.7021C44.9205 59.1429 44.5334 59.4095 44.2172 59.502C43.8901 59.6054 43.623 59.5891 43.4867 59.5673C43.2796 59.5673 43.1487 59.5292 43.0506 59.5455C43.0506 59.5455 43.047 59.5455 43.0397 59.5455C42.9089 59.4476 42.7181 59.2952 42.5 59.0558C42.2383 58.7674 41.9494 58.3593 41.7968 57.8479C41.655 57.3418 41.6986 56.7596 42.1402 56.3896C42.56 55.987 43.236 55.8346 43.8574 55.987C44.4789 56.1339 45.0131 56.5583 45.2257 57.1187C45.3402 57.4017 45.3893 57.6792 45.3784 57.9513H45.3893Z" fill="#FFB936"/>
</svg>
