<svg width="58" height="40" viewBox="0 0 58 40" fill="none" xmlns="http://www.w3.org/2000/svg">
<path d="M57.455 6.38414C57.3565 5.93066 57.1119 5.52159 56.8037 5.21399C56.4956 4.90005 56.1302 4.67807 55.7585 4.53537C55.015 4.22777 54.2589 4.18338 53.5822 4.2024C50.9293 4.30705 49.0167 4.74466 48.0318 4.98884C46.5894 5.3662 45.8079 5.67697 45.379 5.85456C45.2201 5.92749 45.1089 5.97823 45.0358 6.02263C44.7086 5.73406 44.4544 5.55013 44.267 5.42963C44.2479 5.42011 44.2352 5.4106 44.2193 5.39792C44.2193 5.39792 44.2172 5.39686 44.213 5.39474C44.213 5.39474 44.1907 5.37255 44.178 5.36303C44.0605 5.26156 43.8921 5.12203 43.6506 4.93176C43.406 4.74149 43.0978 4.4878 42.6562 4.21192C42.0939 3.84089 41.0073 3.12422 39.3934 2.40755C37.7889 1.68136 35.6508 0.955172 33.1155 0.647573C32.9566 0.628546 32.8009 0.600006 32.6389 0.58415L32.1528 0.55561C31.8256 0.533412 31.4951 0.514385 31.1584 0.492188C30.8216 0.492188 30.4817 0.49853 30.1354 0.501701C29.9638 0.501701 29.7891 0.501701 29.6143 0.501701C29.4396 0.514385 29.268 0.530241 29.0901 0.542925C28.7406 0.571466 28.3848 0.596835 28.029 0.625375C27.6731 0.676113 27.3141 0.733193 26.9519 0.783931C26.774 0.812471 26.5866 0.834669 26.4086 0.86638C26.2276 0.904434 26.0465 0.945658 25.8654 0.983712C25.5032 1.06616 25.1346 1.13593 24.7725 1.22472C24.0513 1.43401 23.3046 1.61159 22.5866 1.88431C22.2276 2.01433 21.8559 2.12849 21.5001 2.27753C21.1442 2.4234 20.7852 2.57244 20.4262 2.71832C18.9902 3.28595 17.5446 3.98994 16.2229 4.862C15.5589 5.29644 14.9267 5.78479 14.3199 6.29534C13.7194 6.81224 13.1507 7.36401 12.6201 7.93799C11.5685 9.09862 10.6376 10.3322 9.85927 11.626C9.04911 12.9103 8.51854 14.3151 8.17224 15.685C7.97844 16.37 7.89583 17.0613 7.79417 17.7272C7.74016 18.3995 7.67661 19.0528 7.69568 19.6933C7.67661 20.3339 7.74651 20.9459 7.7751 21.5421C7.80688 21.837 7.85135 22.1256 7.8863 22.4078C7.92443 22.6932 7.9562 22.9691 8.01338 23.2387C8.09281 23.6477 8.16271 24.0473 8.25167 24.4278C8.16588 24.4469 8.01021 24.4976 7.74333 24.6213C7.28266 24.8337 6.48521 25.246 5.18896 26.1085C4.76959 26.3939 4.15959 26.8189 3.42569 27.415C3.06032 27.7131 2.66001 28.0556 2.24699 28.4583C1.83715 28.8642 1.40507 29.3209 1.03017 29.8948C0.842726 30.1834 0.674341 30.51 0.575852 30.8906C0.528196 31.0808 0.505956 31.2901 0.528196 31.5026C0.53455 31.6104 0.572675 31.7151 0.598091 31.8229C0.617154 31.8768 0.64257 31.9244 0.66481 31.9751C0.693404 32.0163 0.706112 32.0893 0.769653 32.1495C1.07148 32.4508 1.3733 32.6791 1.72595 32.9011C2.07861 33.1104 2.4535 33.2879 2.85381 33.4338C4.45506 34.0046 6.29776 34.0871 8.20401 33.9539C9.42401 33.8651 10.679 33.6812 11.9593 33.418C12.0133 33.5163 12.08 33.6177 12.1436 33.7256C12.3469 34.0554 12.6519 34.5279 13.1094 35.086C13.5574 35.6504 14.2055 36.272 15.0188 36.8681C15.8385 37.458 16.8329 38.0288 17.983 38.5203C18.5581 38.7645 19.1744 38.9896 19.8289 39.1736C20.1562 39.2623 20.4929 39.348 20.8456 39.4177C21.1951 39.4748 21.5477 39.516 21.9067 39.5668C24.7788 39.8997 28.0544 39.7412 31.384 38.9991C33.0487 38.6281 34.7262 38.1207 36.372 37.4643C37.1948 37.1377 38.0113 36.7794 38.812 36.3798C39.2123 36.1768 39.6126 35.9802 40.0034 35.7519L40.5911 35.4253L41.1535 35.0479C42.6657 34.049 44.016 32.8218 45.1566 31.455C46.2908 30.0788 47.2121 28.563 47.927 27.0091C48.0159 26.8157 48.1049 26.6191 48.1939 26.4256C48.2796 26.2322 48.3464 26.0292 48.4226 25.8326C48.4957 25.636 48.5687 25.4394 48.6418 25.2428C48.7212 25.0494 48.788 24.8528 48.842 24.6498C48.9564 24.2502 49.0739 23.8539 49.1851 23.4606C49.2741 23.0642 49.3598 22.6647 49.4424 22.2746C49.7284 20.6986 49.8459 19.1638 49.7856 17.7114C49.757 17.1374 49.703 16.5761 49.6331 16.037C49.9921 15.7611 50.3479 15.4821 50.7006 15.2094C51.5425 14.5783 52.3241 13.9124 53.0961 13.2782C53.8713 12.6471 54.6147 12.0034 55.2914 11.3121C55.9618 10.6239 56.5527 9.86603 56.9626 9.03519C57.1723 8.62295 57.3216 8.19485 57.436 7.74772C57.5313 7.29742 57.5535 6.83443 57.4582 6.37779L57.455 6.38414ZM8.35969 21.4501C8.33109 20.8762 8.27073 20.2768 8.29614 19.6585C8.28026 19.0401 8.35651 18.4122 8.40734 17.7621C8.51219 17.1216 8.59797 16.4588 8.78859 15.8055C8.82989 15.6406 8.87119 15.4757 8.9125 15.3077C8.96333 15.1428 9.02369 14.9811 9.08088 14.8193C9.14125 14.6544 9.19526 14.4895 9.25562 14.3278L9.3414 14.0805C9.37317 13.998 9.41448 13.9187 9.44942 13.8394C9.59557 13.5192 9.74171 13.1957 9.89104 12.8691C10.0721 12.5583 10.25 12.2475 10.4311 11.9336C11.972 9.44744 14.0371 7.0691 16.6233 5.40109C17.9132 4.55757 19.292 3.88212 20.7185 3.32083C21.0743 3.17496 21.427 3.02909 21.7797 2.88004C22.1291 2.73734 22.4913 2.62635 22.844 2.49951C23.5461 2.22996 24.2705 2.06189 24.9726 1.84943C27.8193 1.15178 30.631 0.942487 33.0869 1.25643C35.5491 1.54183 37.6364 2.22996 39.2123 2.91175C40.7976 3.5872 41.8842 4.25948 42.4592 4.59245C42.8881 4.82711 43.1995 5.04275 43.4537 5.19813C43.7078 5.35352 43.8921 5.46451 44.0287 5.53745C44.0446 5.54379 44.0573 5.5533 44.0732 5.56281C44.0732 5.56281 44.0954 5.58818 44.1081 5.5977C44.3782 5.85773 44.8802 6.30169 45.6045 7.19277C46.0684 7.77626 46.9326 8.94323 47.6823 10.7508C48.0541 11.6514 48.3972 12.7074 48.6609 13.8902C48.6609 13.8997 48.6672 13.9092 48.6641 13.9187C48.286 14.2041 47.8952 14.4959 47.4917 14.7844C45.3694 16.3161 42.8723 17.8826 40.1463 19.3699C37.4204 20.8635 34.4848 22.3 31.5174 23.6763C30.0305 24.3581 28.5532 25.0589 27.0663 25.6963C25.5858 26.3495 24.1275 26.9933 22.701 27.6212C19.8512 28.8547 17.1062 29.9266 14.5963 30.6654C13.3922 31.0238 12.2389 31.306 11.1746 31.5153L11.1523 31.4899C11.1364 31.4265 11.1142 31.344 11.0761 31.2362C10.9649 30.9223 10.733 30.3769 10.3676 29.4223C10.1325 28.7976 9.66229 27.6116 9.19843 25.9436C9.07453 25.5314 8.96968 25.0843 8.86484 24.6086C8.74411 24.1361 8.66786 23.6319 8.56937 23.1086C8.51536 22.8454 8.49312 22.5727 8.455 22.2968C8.42323 22.0209 8.37875 21.7387 8.35969 21.4501ZM46.2876 7.34499C46.3353 7.34499 46.3925 7.35133 46.4655 7.34816C46.9167 7.34499 48.9881 7.03104 51.0469 6.68222C52.0699 6.50781 53.0834 6.37779 53.8935 6.39365C54.602 6.39365 55.1421 6.50464 55.409 6.5522C55.4217 6.57757 55.4312 6.60294 55.4408 6.63148C55.4852 6.77101 55.5202 6.94225 55.4979 7.12301C55.4789 7.30376 55.4122 7.51623 55.2914 7.73186C55.1389 8.01409 54.8308 8.39463 54.3637 8.85444C54.135 9.0891 53.884 9.34279 53.6108 9.62502C53.471 9.76455 53.328 9.91042 53.1819 10.0595C53.0262 10.2053 52.8642 10.3544 52.6989 10.5098C51.7522 11.4231 50.5639 12.4568 49.1724 13.5382C48.8928 12.3998 48.5402 11.3787 48.1589 10.5034C47.5298 9.05422 46.8214 8.01092 46.2908 7.34816L46.2876 7.34499ZM11.0125 31.547C9.91963 31.75 8.91567 31.8768 8.02609 31.9307C6.22469 32.0607 4.89985 31.8895 4.21678 31.8007C3.96579 31.7626 3.7434 31.7309 3.54324 31.6992C3.34626 31.6612 3.17152 31.6263 3.0222 31.5946C2.92689 31.5787 2.84428 31.5629 2.76803 31.547C2.76803 31.5407 2.7585 31.5375 2.75533 31.5311C2.74262 31.5216 2.72355 31.5026 2.71085 31.4931C2.71085 31.4867 2.71402 31.4741 2.72991 31.455C2.7585 31.4202 2.75533 31.4265 2.7585 31.4138C2.76168 31.3948 2.76486 31.3472 2.78392 31.3472C2.84428 31.1665 2.9809 30.6527 3.4384 30.1041C3.87683 29.5492 4.60438 28.9689 5.34782 28.4044C6.7362 27.3389 8.25484 26.4669 8.70281 26.1529C9.20796 27.8241 9.70994 29.0069 9.98953 29.619C10.3962 30.5164 10.6853 31.0269 10.8632 31.3187C10.9236 31.4202 10.9744 31.4931 11.0157 31.5438L11.0125 31.547ZM47.3074 26.784C46.6085 28.2903 45.7062 29.749 44.6101 31.0745C43.5045 32.3969 42.1924 33.5733 40.7436 34.5279C40.5625 34.6452 40.3878 34.7752 40.2003 34.8862L39.6285 35.2065C39.2504 35.4253 38.8564 35.6187 38.4656 35.8153C37.6809 36.2086 36.8835 36.5605 36.0765 36.8808C34.4625 37.5182 32.82 38.0224 31.1901 38.3871C27.9305 39.1196 24.7248 39.2814 21.929 38.9674C21.5827 38.923 21.2364 38.8882 20.906 38.8342C20.5787 38.7677 20.2578 38.6915 19.9433 38.6027C19.3142 38.4283 18.7201 38.219 18.161 37.9876C17.049 37.5214 16.0832 36.9791 15.2889 36.421C13.6972 35.3111 12.9124 34.0807 12.4772 33.475C12.4454 33.4275 12.4168 33.3831 12.385 33.3387C12.9633 33.2118 13.551 33.066 14.142 32.9074C15.1491 32.6157 16.1753 32.3208 17.2205 32.0195C18.2595 31.6897 19.3206 31.3789 20.3817 31.0174C24.6327 29.5999 29.0424 27.9065 33.2997 25.8707C37.5538 23.8412 41.6872 21.5389 45.4076 19.0337C45.8714 18.7198 46.3353 18.409 46.7928 18.0983C47.2503 17.7907 47.6887 17.4609 48.1303 17.1438C48.4512 16.9123 48.7689 16.6839 49.0834 16.4556C49.093 16.5571 49.1025 16.6586 49.112 16.7601C49.1247 16.9281 49.1406 17.0994 49.1533 17.2706C49.1692 17.4418 49.1819 17.6163 49.1756 17.7907C49.2582 20.5908 48.7308 23.7809 47.3074 26.7903V26.784ZM56.8546 7.68112C56.7497 8.06166 56.6036 8.45171 56.4066 8.82907C56.019 9.58063 55.463 10.2814 54.8117 10.9379C54.1604 11.5943 53.4265 12.2222 52.6481 12.8469C51.8761 13.4748 51.0977 14.1312 50.2621 14.7527C50.0175 14.9398 49.776 15.1269 49.5282 15.3172C49.3567 15.4472 49.1819 15.5804 49.0104 15.7168C49.0072 15.7168 49.0008 15.7231 48.9977 15.7294C48.5688 16.0339 48.1398 16.3446 47.7078 16.6554C46.8372 17.2991 45.9191 17.9048 44.9977 18.5232C41.2932 20.9998 37.1853 23.2767 32.9566 25.2935C28.7247 27.3136 24.3404 28.9974 20.118 30.4149C19.0633 30.7732 18.0085 31.0872 16.9759 31.417C15.937 31.7214 14.9172 32.0195 13.9132 32.3112C13.2778 32.4857 12.6456 32.641 12.0197 32.7774C11.8894 32.8059 11.7623 32.8313 11.6353 32.8567C10.4248 33.104 9.23974 33.2784 8.09599 33.3641C6.24375 33.5004 4.46777 33.4148 2.99361 32.8852C2.62507 32.7489 2.28512 32.5871 1.97059 32.4C1.81491 32.3017 1.66559 32.2034 1.52897 32.0893C1.4559 32.0354 1.38918 31.9846 1.32564 31.9212C1.27481 31.8705 1.18267 31.7943 1.18267 31.7848C1.05559 31.566 1.0397 31.2616 1.12231 30.973C1.20174 30.6813 1.34788 30.4022 1.51309 30.1422C1.85621 29.6221 2.26288 29.1782 2.65366 28.785C3.04444 28.3917 3.43204 28.0524 3.78152 27.7575C4.49001 27.1613 5.08094 26.7301 5.48443 26.4351C6.66948 25.5758 7.41292 25.116 7.83229 24.8401C8.0674 24.6879 8.20719 24.5959 8.28026 24.5388C8.29614 24.6181 8.31521 24.7005 8.33745 24.7798C8.39781 25.0177 8.455 25.2523 8.50901 25.4806C8.53125 25.5631 8.55666 25.6455 8.5789 25.7248C8.18177 25.8421 6.46615 26.7142 4.94433 27.8844C4.18819 28.4615 3.42887 29.0767 2.95548 29.749C2.46303 30.4086 2.34548 31.0745 2.36455 31.2965C2.36455 31.3726 2.38043 31.4265 2.39949 31.4709C2.38043 31.4646 2.36455 31.4614 2.34548 31.4582C2.03095 31.398 1.9547 31.417 1.93882 31.4582C1.92611 31.4931 1.96106 31.5407 2.2597 31.6707C2.40902 31.7341 2.61871 31.8292 2.93324 31.918C3.08892 31.9656 3.27001 32.0195 3.47652 32.0766C3.68621 32.1241 3.92449 32.1781 4.18819 32.2351C4.88714 32.362 6.25328 32.5681 8.10552 32.4603C9.04276 32.4159 10.1007 32.2922 11.2476 32.0861C11.3461 32.0702 11.4446 32.0512 11.5431 32.0354C12.5757 31.8387 13.6749 31.5755 14.8187 31.2394C17.3667 30.5037 20.1435 29.435 23.0124 28.2015C24.4389 27.5768 25.9035 26.9362 27.3872 26.2861C28.8741 25.6487 30.3641 24.9447 31.8542 24.2629C34.8279 22.8803 37.7794 21.4279 40.5149 19.9153C43.2535 18.4122 45.7602 16.814 47.8984 15.2474C48.2097 15.0191 48.5084 14.794 48.8039 14.5656C48.9786 14.4324 49.1502 14.2993 49.3217 14.1629C50.8276 12.9864 52.1017 11.8575 53.1024 10.8586C53.2676 10.7 53.4297 10.5446 53.5822 10.3956C53.7283 10.2402 53.8713 10.088 54.0079 9.94531C54.278 9.65673 54.5289 9.39036 54.7513 9.15253C55.2025 8.6832 55.5361 8.24241 55.6949 7.88725C55.8157 7.63039 55.876 7.3767 55.8856 7.13569C55.8919 6.91688 55.8443 6.72979 55.7839 6.5744C55.8824 6.56489 55.9237 6.53001 55.9459 6.4761C55.9713 6.4095 55.9523 6.32705 55.6346 6.15581C55.5901 6.13045 55.5265 6.10508 55.4535 6.07654C55.4535 6.07654 55.4535 6.07548 55.4535 6.07337C55.3709 5.99409 55.2851 5.93701 55.2057 5.89895C55.0214 5.80699 54.8848 5.8165 54.8085 5.82602C54.7482 5.8387 54.7196 5.85773 54.7132 5.87676C54.4781 5.83553 54.2081 5.80065 53.9126 5.78162C53.0389 5.72454 51.9682 5.84822 50.9357 6.0258C48.8737 6.37462 46.8214 6.76784 46.3925 6.9264C46.2241 6.98982 46.1383 7.04373 46.097 7.0913C46.0303 7.01519 45.9699 6.94225 45.9127 6.87883C45.6395 6.57757 45.3949 6.33657 45.1788 6.13679C45.2455 6.1241 45.3345 6.10191 45.4393 6.07337C45.8841 5.96238 46.6911 5.71186 48.1907 5.3884C49.1692 5.18545 51.0628 4.7954 53.6648 4.72564C54.2938 4.71295 54.9769 4.78272 55.6028 5.05861C56.2382 5.31547 56.7751 5.84822 56.9086 6.55538C56.9785 6.91054 56.9372 7.29108 56.8577 7.67478L56.8546 7.68112Z" fill="#3B2900"/>
<path d="M48.662 13.8873C48.3983 12.7045 48.0552 11.6485 47.6835 10.7447C46.9337 8.94036 46.0695 7.77339 45.6057 7.1899C44.8813 6.29882 44.3793 5.85486 44.1125 5.59483C44.0997 5.58531 44.087 5.57263 44.0775 5.56312C44.0775 5.56312 44.0489 5.54409 44.033 5.53775C43.8964 5.46481 43.7121 5.35382 43.458 5.19844C43.2038 5.04305 42.8925 4.82741 42.4636 4.58958C41.8917 4.25661 40.8019 3.58433 39.2166 2.90888C38.3874 2.55055 37.412 2.18904 36.3191 1.88461C35.3374 1.61189 34.2603 1.38992 33.0944 1.25356C30.6385 0.939617 27.8236 1.14891 24.9801 1.84656C24.2748 2.05902 23.5504 2.22709 22.8515 2.49664C22.4988 2.62348 22.1366 2.73447 21.784 2.87717C21.4345 3.02622 21.0787 3.16892 20.7228 3.31796C19.2963 3.87925 17.9175 4.5547 16.6276 5.39822C14.0414 7.06623 11.9763 9.44457 10.4355 11.9307C10.2544 12.2415 10.0765 12.5554 9.89536 12.863C9.74604 13.1897 9.59989 13.5131 9.45375 13.8366C9.4188 13.9159 9.3775 13.992 9.34573 14.0744L9.25995 14.3218C9.20276 14.4867 9.14557 14.6516 9.08521 14.8165C9.02802 14.9782 8.96448 15.1399 8.91682 15.3016C8.87552 15.4697 8.83104 15.6346 8.79292 15.7995C8.60547 16.4528 8.51969 17.1155 8.41167 17.7561C8.36083 18.4062 8.28458 19.0372 8.30047 19.6556C8.27188 20.274 8.33224 20.8701 8.36083 21.4473C8.38307 21.739 8.42755 22.0212 8.45932 22.294C8.49427 22.5699 8.51651 22.8457 8.57052 23.1058C8.66583 23.629 8.74526 24.1364 8.86599 24.6057C8.97083 25.0814 9.07568 25.5285 9.19958 25.9408C9.66026 27.6056 10.1336 28.7916 10.3656 29.4195C10.7341 30.3708 10.966 30.9163 11.0772 31.2302C11.1154 31.338 11.1376 31.4236 11.1535 31.4839L11.1757 31.5093C12.2432 31.3 13.3933 31.0177 14.5974 30.6594C17.1073 29.9205 19.8523 28.8487 22.7021 27.6151C24.1287 26.9872 25.5869 26.3435 27.0674 25.6871C28.5543 25.0528 30.0317 24.3489 31.5185 23.6671C34.4891 22.2876 37.4215 20.8511 40.1506 19.3575C41.5263 18.6059 42.8448 17.8354 44.087 17.0584C45.3039 16.2942 46.4444 15.53 47.496 14.7721C47.8995 14.4803 48.2871 14.1886 48.6684 13.9063C48.6684 13.8968 48.6684 13.8873 48.662 13.8778V13.8873ZM13.3393 21.9325C13.1487 22.2083 12.9612 22.3701 12.8627 22.4493C12.545 22.6808 12.4751 22.6396 12.4497 22.6016C12.4466 22.5921 12.437 22.5825 12.437 22.5762C12.4148 22.5794 12.3925 22.5825 12.3703 22.5889C12.2432 22.6016 11.9922 22.6238 11.6586 22.5699C11.3282 22.5128 10.8771 22.3669 10.5181 21.9737C10.3465 21.7802 10.2004 21.5297 10.1273 21.2475C10.0574 20.9621 10.0606 20.6545 10.1273 20.3596C10.1972 20.0647 10.337 19.7793 10.534 19.5351C10.7246 19.2909 11.0042 19.0753 11.2806 18.9611C11.414 18.8913 11.5824 18.8248 11.7539 18.8089C11.9255 18.7899 12.0939 18.7962 12.2591 18.8343C12.5768 18.9104 12.8564 19.0689 13.082 19.2655C13.3012 19.4622 13.4918 19.681 13.6157 19.9537C13.7333 20.2169 13.7777 20.4991 13.765 20.7528C13.7428 21.2665 13.5299 21.6629 13.3425 21.9388L13.3393 21.9325ZM20.0747 13.307C19.5886 13.0977 19.0708 12.6474 18.7086 11.9973C18.537 11.6707 18.3972 11.2965 18.3337 10.8843C18.2733 10.472 18.3178 10.0217 18.4608 9.59361C18.7594 8.74058 19.5155 8.03342 20.4242 7.77656C20.8722 7.64971 21.3773 7.618 21.8285 7.7829L22.1557 7.90023C22.2605 7.9478 22.3558 8.00805 22.4575 8.06513C22.664 8.16344 22.8261 8.32834 23.0008 8.46786C23.6426 9.10843 23.8967 10.0027 23.8014 10.7352C23.7315 11.4804 23.4011 12.0798 23.0612 12.454C22.7276 12.844 22.3876 13.0248 22.2192 13.1136C22.089 13.1865 21.9746 13.2182 21.8825 13.2436C21.8094 13.2626 21.7522 13.2753 21.7109 13.2848C21.7014 13.2911 21.6887 13.3007 21.6728 13.3102C21.5965 13.3577 21.4504 13.4465 21.1581 13.4878C20.9643 13.5226 20.5513 13.5258 20.0684 13.3102L20.0747 13.307ZM24.888 23.6227C24.6529 24.0191 24.351 24.2188 24.1986 24.2949C24.1318 24.3235 24.0715 24.3457 24.0206 24.3647C24.0111 24.3679 24.0079 24.3774 24.0016 24.3806C23.8618 24.4757 23.5727 24.6596 23.112 24.7357C22.8832 24.7611 22.6164 24.7833 22.3304 24.7104C22.0508 24.6438 21.7522 24.5201 21.4822 24.3171C21.2121 24.1142 20.9865 23.832 20.8118 23.5148C20.7197 23.3595 20.6529 23.1851 20.5926 23.0011C20.5513 22.8109 20.4941 22.6206 20.5036 22.4176C20.4846 22.2179 20.5354 22.0117 20.5703 21.8088C20.6466 21.6122 20.7133 21.4187 20.8372 21.2475C21.066 20.8987 21.3773 20.6038 21.7427 20.4167C22.1017 20.2264 22.502 20.1027 22.9087 20.0678C23.3121 20.0425 23.7188 20.1059 24.0905 20.2549C24.2653 20.3564 24.4464 20.4325 24.5862 20.5625L24.7005 20.6545L24.7577 20.7052C24.7863 20.7211 24.8022 20.7591 24.8181 20.775C24.8689 20.8543 24.9325 20.9304 24.9738 21.016C25.1549 21.3458 25.2343 21.6915 25.2533 22.0149C25.2946 22.6682 25.1231 23.2294 24.888 23.6163V23.6227ZM29.5106 4.9828C29.4947 4.73545 29.5519 4.46591 29.6663 4.20905C29.7997 3.9617 29.9967 3.72703 30.2572 3.57482C30.3811 3.49871 30.5177 3.4448 30.6544 3.3909C30.7973 3.36236 30.9403 3.3021 31.0801 3.3021C31.2231 3.28942 31.3597 3.26722 31.5217 3.27356C31.6837 3.27991 31.8426 3.31162 31.9919 3.3687C32.2937 3.48286 32.5479 3.70167 32.7163 3.96487C32.7576 4.03146 32.7957 4.10123 32.8275 4.16782C32.8688 4.2693 32.872 4.31369 32.8974 4.38663C32.9387 4.51664 32.9641 4.653 32.9895 4.78619C33.034 5.05256 33.0531 5.32528 33.0118 5.59166C32.9768 5.85486 32.8847 6.11172 32.729 6.31784C32.5765 6.52397 32.37 6.67618 32.1635 6.74594C32.065 6.79034 31.9665 6.80937 31.8712 6.82522C31.779 6.84742 31.6901 6.84108 31.6075 6.84425C31.4391 6.85376 31.3057 6.82205 31.1881 6.81254C31.0833 6.784 30.9975 6.75863 30.9371 6.7396C30.8831 6.7174 30.8355 6.70155 30.7973 6.67935C30.737 6.67935 30.6385 6.65081 30.4669 6.56836C30.4161 6.53665 30.3398 6.48274 30.2477 6.41615C30.1587 6.34004 30.0539 6.24174 29.9522 6.11806C29.7457 5.86754 29.5265 5.47749 29.5074 4.97963L29.5106 4.9828ZM34.5622 17.0077C34.254 17.4548 33.8918 17.6546 33.7139 17.7497C33.4248 17.8798 33.25 17.8956 33.1611 17.8988C33.0912 17.8988 33.0658 17.8893 33.0531 17.8702C32.9863 17.8924 32.9196 17.9083 32.8434 17.921C32.8211 17.9273 32.7639 17.9368 32.7385 17.9305C32.7068 17.9337 32.6782 17.9337 32.6464 17.9337C32.5828 17.9337 32.5193 17.9337 32.4526 17.9273C31.9125 17.902 31.2421 17.6895 30.6353 17.2107C30.3303 16.9728 30.0539 16.662 29.8379 16.2847C29.6186 15.9042 29.5043 15.4412 29.517 14.9718C29.5297 14.5025 29.6726 14.0173 29.9745 13.6146C30.0507 13.5131 30.1333 13.4212 30.2286 13.3324C30.3271 13.2499 30.4224 13.1802 30.5241 13.1136C30.7243 12.9835 30.9339 12.863 31.1595 12.7774C31.6011 12.5903 32.0872 12.5015 32.567 12.5206C33.0499 12.5301 33.5264 12.6855 33.9172 12.9487C34.1142 13.0755 34.2826 13.2436 34.4256 13.4085C34.4986 13.4941 34.5653 13.5829 34.6321 13.6685C34.6924 13.7573 34.7401 13.8556 34.7973 13.9539C34.9974 14.3408 35.0864 14.753 35.1054 15.1367C35.134 15.9137 34.8703 16.5701 34.5653 17.0014L34.5622 17.0077ZM42.041 10.6433C41.7741 10.8843 41.5231 10.9794 41.3961 11.027C41.3452 11.0396 41.3007 11.0523 41.2658 11.0587C41.2054 11.1062 41.1006 11.1601 40.9258 11.195C40.7892 11.2204 40.5001 11.2172 40.1633 11.0967C40.0013 11.0396 39.8075 10.9382 39.636 10.8335C39.4358 10.713 39.2388 10.5323 39.0959 10.3008C38.9529 10.0629 38.8671 9.78705 38.8353 9.49848L38.829 9.45091V9.42872L38.8004 9.31773C38.7909 9.24162 38.775 9.16868 38.7781 9.08623C38.7686 8.92768 38.7877 8.75961 38.8417 8.59788C38.9465 8.26808 39.1816 7.99537 39.439 7.80827C39.5692 7.70997 39.709 7.63386 39.8456 7.56092C40.0013 7.4753 40.1665 7.42774 40.3254 7.3992C40.4842 7.36749 40.6399 7.34846 40.8019 7.34846C40.9004 7.34846 40.9989 7.34529 41.1038 7.36114C41.1737 7.36748 41.2436 7.38651 41.3198 7.41188C41.6121 7.51019 41.9139 7.6846 42.13 7.90658C42.2412 8.01439 42.3365 8.1127 42.4254 8.24589C42.4667 8.31248 42.5112 8.3759 42.5493 8.44567C42.5779 8.5186 42.6065 8.58837 42.6383 8.65496C42.7336 8.94353 42.74 9.23845 42.6923 9.50165C42.6701 9.63167 42.6351 9.75217 42.5875 9.85999C42.4508 10.2056 42.2316 10.4593 42.0378 10.6433H42.041Z" fill="#FF823E"/>
<path d="M49.1765 17.7843C49.1829 17.6098 49.1733 17.4354 49.1543 17.2642C49.1384 17.093 49.1257 16.9217 49.1098 16.7536C49.1003 16.6522 49.0907 16.5539 49.0812 16.4492C48.7698 16.6775 48.449 16.9059 48.1281 17.1374C47.6865 17.4545 47.2512 17.7843 46.7905 18.0919C46.3299 18.4026 45.8692 18.7166 45.4053 19.0273C44.9319 19.3476 44.4522 19.6616 43.9661 19.9723C40.6302 22.1128 37.0083 24.0948 33.2943 25.8611C29.037 27.897 24.6304 29.5904 20.3763 31.0078C19.3152 31.3725 18.254 31.6801 17.2183 32.0099C16.1699 32.3144 15.1469 32.6061 14.1366 32.901C13.5456 33.0596 12.9579 33.2054 12.3828 33.3291C12.4146 33.3735 12.4432 33.4211 12.4749 33.4655C12.6815 33.7604 12.9769 34.2012 13.4058 34.7022C13.857 35.235 14.4638 35.8406 15.2867 36.4146C16.0778 36.9727 17.0468 37.515 18.1587 37.9811C18.7179 38.2158 19.312 38.4251 19.9411 38.5963C20.2556 38.6883 20.5797 38.7644 20.9069 38.8278C21.2341 38.8849 21.5804 38.9166 21.9267 38.9642C24.7257 39.2781 27.9282 39.1164 31.1879 38.3839C32.8178 38.016 34.4635 37.515 36.0774 36.8744C36.8876 36.5541 37.6819 36.2021 38.4698 35.8121C38.8606 35.6155 39.2545 35.4221 39.6326 35.2032L40.2045 34.883C40.3919 34.772 40.5666 34.642 40.7509 34.5246C42.2028 33.5733 43.5118 32.3936 44.6174 31.0713C45.7167 29.7457 46.6158 28.2839 47.3147 26.7807C48.7381 23.7745 49.2655 20.5812 49.1829 17.7843H49.1765ZM24.3191 33.4877C24.3509 33.2372 24.4906 32.9961 24.6749 32.8186C25.0435 32.4475 25.6249 32.3207 26.1268 32.4412C26.632 32.5522 27.0895 32.92 27.2642 33.3925C27.3564 33.6177 27.4008 33.865 27.3818 34.0997C27.3564 34.3344 27.2801 34.55 27.1753 34.7276C27.0673 34.9083 26.9211 35.0447 26.7813 35.1557C26.632 35.254 26.4795 35.3269 26.3365 35.3555C26.0855 35.4094 25.8917 35.3777 25.7805 35.3396C25.7678 35.3523 25.7551 35.3586 25.7329 35.365C25.682 35.3745 25.5867 35.3745 25.4374 35.3206C25.2468 35.2476 24.6781 34.9337 24.389 34.1536C24.3254 33.957 24.2873 33.7287 24.3223 33.4845L24.3191 33.4877ZM41.6405 29.4952C41.4848 30.1421 41.075 30.6115 40.6937 30.8525C40.5126 30.9476 40.3601 31.0427 40.2076 31.0871C40.1377 31.1474 40.0202 31.233 39.7851 31.3059C39.7025 31.3408 39.569 31.344 39.407 31.3662C39.2418 31.3598 39.0385 31.3503 38.8161 31.2806C38.527 31.2013 38.2156 31.0332 37.9265 30.7795C37.7676 30.6432 37.6151 30.4751 37.4785 30.288C37.1227 29.7489 36.8336 28.991 37.1386 28.1665C37.3197 27.7765 37.631 27.5006 37.9233 27.2659C38.0027 27.2057 38.0568 27.1613 38.1362 27.0915C38.2156 27.0281 38.2982 26.9678 38.3872 26.9108C38.5619 26.7998 38.7525 26.711 38.9559 26.6476C39.1624 26.5905 39.3816 26.5619 39.5976 26.5746C39.82 26.5873 40.0265 26.6539 40.2076 26.7332C40.573 26.8664 40.9225 27.1042 41.1608 27.4086C41.1671 27.415 41.1766 27.4213 41.1798 27.4308C41.4244 27.7416 41.5865 28.0968 41.6596 28.4583C41.7326 28.8198 41.7072 29.1718 41.6341 29.4952H41.6405Z" fill="#FF823E"/>
<path d="M56.8536 7.68151C56.7488 8.06204 56.6026 8.45209 56.4057 8.82946C56.018 9.58101 55.4621 10.2818 54.8108 10.9383C54.1595 11.5947 53.4256 12.2226 52.6472 12.8473C51.8751 13.4752 51.0968 14.1316 50.2612 14.7531C50.0166 14.9402 49.7751 15.1273 49.5273 15.3176C49.3557 15.4476 49.181 15.5808 49.0094 15.7171C49.0062 15.7171 48.9999 15.7235 48.9967 15.7298C48.5678 16.0342 48.1389 16.345 47.7068 16.6558C46.8363 17.2995 45.9181 17.9052 44.9968 18.5236C41.2923 21.0002 37.1843 23.2771 32.9557 25.2939C28.7238 27.3139 24.3394 28.9978 20.1171 30.4153C19.0623 30.7736 18.0075 31.0876 16.975 31.4174C15.9361 31.7218 14.9162 32.0199 13.9123 32.3116C13.2769 32.486 12.6446 32.6414 12.0187 32.7778C11.8885 32.8063 11.7614 32.8317 11.6343 32.8571C10.4238 33.1044 9.2388 33.2788 8.09505 33.3644C6.24282 33.5008 4.46683 33.4152 2.99267 32.8856C2.62413 32.7492 2.28418 32.5875 1.96965 32.4004C1.81397 32.3021 1.66465 32.2038 1.52804 32.0897C1.45496 32.0357 1.38825 31.985 1.3247 31.9216C1.27387 31.8708 1.18174 31.7947 1.18174 31.7852C1.05465 31.5664 1.03877 31.262 1.12137 30.9734C1.2008 30.6817 1.34694 30.4026 1.51215 30.1426C1.85528 29.6225 2.26194 29.1786 2.65272 28.7853C3.0435 28.3921 3.43111 28.0528 3.78058 27.7579C4.48907 27.1617 5.08001 26.7304 5.4835 26.4355C6.66854 25.5762 7.41198 25.1163 7.83135 24.8405C8.06646 24.6882 8.20625 24.5963 8.27932 24.5392C8.29521 24.6185 8.31427 24.7009 8.33651 24.7802C8.39687 25.018 8.45406 25.2527 8.50807 25.481C8.53031 25.5635 8.55573 25.6459 8.57797 25.7252C8.18083 25.8425 6.46521 26.7146 4.94339 27.8847C4.18725 28.4619 3.42793 29.0771 2.95454 29.7494C2.4621 30.409 2.34455 31.0749 2.36361 31.2969C2.36361 31.373 2.37949 31.4269 2.39856 31.4713C2.37949 31.4649 2.36361 31.4618 2.34455 31.4586C2.03002 31.3983 1.95377 31.4174 1.93788 31.4586C1.92517 31.4935 1.96012 31.541 2.25876 31.6711C2.40809 31.7345 2.61777 31.8296 2.9323 31.9184C3.08798 31.966 3.26907 32.0199 3.47558 32.077C3.68527 32.1245 3.92355 32.1784 4.18725 32.2355C4.88621 32.3624 6.25235 32.5685 8.10458 32.4607C9.04182 32.4163 10.0998 32.2926 11.2467 32.0865C11.3452 32.0706 11.4437 32.0516 11.5422 32.0357C12.5747 31.8391 13.674 31.5759 14.8177 31.2398C17.3658 30.5041 20.1425 29.4354 23.0114 28.2019C24.4379 27.5771 25.9026 26.9366 27.3862 26.2865C28.8731 25.6491 30.3632 24.9451 31.8532 24.2633C34.827 22.8807 37.7785 21.4283 40.5139 19.9157C43.2526 18.4126 45.7593 16.8143 47.8974 15.2478C48.2088 15.0195 48.5074 14.7943 48.8029 14.566C48.9777 14.4328 49.1492 14.2996 49.3208 14.1633C50.8267 12.9868 52.1007 11.8579 53.1015 10.859C53.2667 10.7004 53.4287 10.545 53.5812 10.396C53.7274 10.2406 53.8703 10.0884 54.007 9.94569C54.277 9.65712 54.528 9.39074 54.7504 9.15291C55.2015 8.68358 55.5351 8.2428 55.694 7.88763C55.8147 7.63077 55.8751 7.37708 55.8846 7.13608C55.891 6.91727 55.8433 6.73017 55.7829 6.57479C55.8814 6.56527 55.9227 6.53039 55.945 6.47648C55.9704 6.40989 55.9513 6.32744 55.6336 6.1562C55.5891 6.13083 55.5256 6.10546 55.4525 6.07692C55.4525 6.07692 55.4525 6.07586 55.4525 6.07375C55.3699 5.99447 55.2841 5.93739 55.2047 5.89934C55.0204 5.80737 54.8838 5.81689 54.8076 5.8264C54.7472 5.83909 54.7186 5.85811 54.7123 5.87714C54.4772 5.83591 54.2071 5.80103 53.9117 5.78201C53.038 5.72493 51.9673 5.8486 50.9347 6.02618C48.8728 6.37501 46.8204 6.76823 46.3915 6.92678C46.2231 6.9902 46.1373 7.04411 46.096 7.09168C46.0293 7.01557 45.969 6.94264 45.9118 6.87921C45.6385 6.57796 45.3939 6.33695 45.1779 6.13717C45.2446 6.12449 45.3335 6.10229 45.4384 6.07375C45.8832 5.96276 46.6902 5.71224 48.1897 5.38879C49.1683 5.18583 51.0618 4.79579 53.6638 4.72602C54.2929 4.71334 54.976 4.7831 55.6019 5.05899C56.2373 5.31585 56.7742 5.8486 56.9076 6.55576C56.9775 6.91093 56.9362 7.29146 56.8568 7.67517L56.8536 7.68151Z" fill="#FFC82B"/>
<path d="M23.0037 8.46411C22.829 8.32458 22.667 8.15968 22.4604 8.06138C22.3588 8.00747 22.2635 7.94404 22.1586 7.89648L21.8314 7.77915C21.3802 7.61425 20.8719 7.64596 20.4271 7.76963C19.5153 8.02967 18.7623 8.73365 18.4605 9.58986C18.3175 10.018 18.2762 10.4651 18.3334 10.8805C18.397 11.2928 18.5368 11.6669 18.7083 11.9967C19.0705 12.6468 19.5852 13.1003 20.0713 13.3064C20.5542 13.5252 20.9672 13.5189 21.161 13.484C21.4533 13.4459 21.5963 13.354 21.6757 13.3064C21.6916 13.2969 21.7011 13.2906 21.7107 13.281C21.7551 13.2715 21.8091 13.2588 21.8854 13.2398C21.9743 13.2145 22.0919 13.1859 22.219 13.1098C22.3905 13.021 22.7273 12.8403 23.0641 12.4502C23.4009 12.0728 23.7344 11.4767 23.8043 10.7315C23.8965 9.99893 23.6423 9.10468 23.0037 8.46411ZM22.7527 12.2029C22.6256 12.3868 22.4668 12.5041 22.3524 12.6183C22.2285 12.7198 22.1205 12.7832 22.0506 12.8371C21.9521 12.9227 21.86 12.9671 21.7901 13.0115C21.7202 13.0559 21.6662 13.094 21.6312 13.1193C21.6217 13.1288 21.6153 13.1352 21.609 13.1383C21.52 13.1383 21.3802 13.1701 21.1324 13.1605C20.964 13.1605 20.6304 13.1415 20.2333 12.9386C19.8394 12.7483 19.4073 12.3424 19.1023 11.7684C18.9593 11.4798 18.8481 11.1564 18.8036 10.8044C18.7591 10.4524 18.8036 10.0909 18.9275 9.74207C19.1785 9.0476 19.8203 8.4546 20.5764 8.2453C20.9482 8.147 21.3485 8.12163 21.6979 8.25481L21.9712 8.34995C22.057 8.39117 22.1396 8.44508 22.2222 8.48948C22.4001 8.56876 22.5272 8.70829 22.6765 8.81928C23.1975 9.34251 23.4231 10.0719 23.3532 10.7029C23.3055 11.3371 23.0355 11.8572 22.7559 12.1997L22.7527 12.2029Z" fill="#FFF8E3"/>
<path d="M23.3484 10.706C23.3007 11.3403 23.0307 11.8603 22.7511 12.2028C22.624 12.3867 22.4652 12.5041 22.3508 12.6182C22.2269 12.7197 22.1189 12.7831 22.049 12.837C21.9505 12.9226 21.8583 12.967 21.7884 13.0114C21.7185 13.0558 21.6645 13.0939 21.6296 13.1193C21.6201 13.1288 21.6137 13.1351 21.6073 13.1383C21.5184 13.1383 21.3786 13.17 21.1308 13.1605C20.9624 13.1605 20.6288 13.1415 20.2317 12.9385C19.8377 12.7482 19.4056 12.3423 19.1006 11.7684C18.9577 11.4798 18.8465 11.1563 18.802 10.8043C18.7575 10.4523 18.802 10.0908 18.9259 9.74201C19.1769 9.04753 19.8187 8.45453 20.5748 8.24524C20.9465 8.14694 21.3468 8.12157 21.6963 8.25475L21.9695 8.34989C22.0553 8.39111 22.1379 8.44502 22.2205 8.48942C22.3984 8.56869 22.5255 8.70822 22.6748 8.81921C23.1959 9.34245 23.4215 10.0718 23.3516 10.7029L23.3484 10.706Z" fill="#FFF8E3"/>
<path d="M32.9914 4.78564C32.966 4.65245 32.9405 4.51609 32.8992 4.38607C32.877 4.31314 32.8738 4.26874 32.8293 4.16727C32.7976 4.0975 32.7626 4.02774 32.7182 3.96114C32.5498 3.69794 32.2956 3.4823 31.9938 3.36497C31.8445 3.30789 31.6856 3.27618 31.5236 3.26984C31.3615 3.26667 31.2281 3.28887 31.0851 3.29838C30.9453 3.30155 30.7992 3.3618 30.6594 3.38717C30.5228 3.44108 30.383 3.49499 30.2591 3.5711C29.9986 3.72331 29.8016 3.9548 29.6682 4.20532C29.5506 4.46535 29.4966 4.73173 29.5125 4.97907C29.5315 5.47694 29.7508 5.86699 29.9573 6.11751C30.0589 6.24118 30.1638 6.33632 30.2496 6.41559C30.3449 6.48219 30.4179 6.5361 30.4688 6.56464C30.6435 6.64709 30.7388 6.6788 30.8024 6.67563C30.8405 6.69782 30.8882 6.71368 30.9422 6.73588C31.0025 6.7549 31.0851 6.7771 31.1932 6.80564C31.3075 6.81515 31.4441 6.85004 31.6094 6.84052C31.692 6.83735 31.7809 6.84052 31.873 6.81833C31.9684 6.80247 32.0669 6.78344 32.1653 6.73905C32.3719 6.66928 32.5784 6.52024 32.7277 6.31095C32.8834 6.10799 32.9755 5.84796 33.0104 5.58793C33.0517 5.32156 33.0327 5.04884 32.9882 4.78246L32.9914 4.78564ZM32.3591 6.06043C32.1749 6.34266 31.8445 6.42511 31.5871 6.4473C31.4569 6.46633 31.3361 6.4473 31.2376 6.45048C31.1391 6.43779 31.0629 6.43145 31.0057 6.42828C30.904 6.41876 30.8278 6.41559 30.7706 6.41876C30.7388 6.38705 30.7007 6.35217 30.6562 6.31095C30.6181 6.27289 30.5609 6.21581 30.4878 6.15239C30.4243 6.07628 30.3449 5.98749 30.2686 5.8765C30.1098 5.66087 29.9605 5.33741 29.9636 4.96322C29.9573 4.77929 30.0113 4.5922 30.0907 4.41461C30.1924 4.24972 30.3258 4.0975 30.5133 3.99285C30.6086 3.94212 30.7071 3.89772 30.8151 3.86284C30.9295 3.84381 31.0343 3.79625 31.1582 3.79942C31.2789 3.7899 31.406 3.77088 31.514 3.77405C31.6189 3.78039 31.7237 3.80259 31.8222 3.84064C32.0192 3.91675 32.1908 4.06262 32.3051 4.24337C32.3337 4.28777 32.3591 4.33534 32.3782 4.3829C32.3877 4.40193 32.3846 4.39242 32.3877 4.4051L32.4004 4.4495L32.4259 4.53829C32.464 4.65245 32.4862 4.76978 32.5085 4.88394C32.5498 5.11226 32.5657 5.34058 32.5402 5.54036C32.518 5.74649 32.4545 5.93041 32.356 6.0636L32.3591 6.06043Z" fill="#FFF8E3"/>
<path d="M32.5432 5.53693C32.5209 5.74306 32.4574 5.92698 32.3589 6.06017C32.1746 6.3424 31.8442 6.42485 31.5869 6.44705C31.4566 6.46607 31.3359 6.44705 31.2374 6.45022C31.1389 6.43753 31.0627 6.43119 31.0055 6.42802C30.9038 6.41851 30.8276 6.41534 30.7704 6.41851C30.7386 6.3868 30.7005 6.35191 30.656 6.31069C30.6179 6.27263 30.5607 6.21555 30.4876 6.15213C30.4241 6.07603 30.3446 5.98723 30.2684 5.87624C30.1095 5.66061 29.9602 5.33715 29.9634 4.96296C29.957 4.77904 30.0111 4.59194 30.0905 4.41436C30.1921 4.24946 30.3256 4.09724 30.513 3.9926C30.6083 3.94186 30.7068 3.89746 30.8149 3.86258C30.9292 3.84355 31.0341 3.79599 31.158 3.79916C31.2787 3.78965 31.4058 3.77062 31.5138 3.77379C31.6187 3.78013 31.7235 3.80233 31.822 3.84038C32.019 3.91649 32.1905 4.06236 32.3049 4.24312C32.3335 4.28751 32.3589 4.33508 32.378 4.38265C32.3875 4.40167 32.3843 4.39216 32.3875 4.40484L32.4002 4.44924L32.4256 4.53803C32.4638 4.65219 32.486 4.76952 32.5082 4.88368C32.5495 5.112 32.5654 5.34032 32.54 5.54011L32.5432 5.53693Z" fill="#FFF8E3"/>
<path d="M13.6111 19.9501C13.4904 19.6774 13.2998 19.4586 13.0774 19.262C12.8518 19.0653 12.5722 18.9036 12.2545 18.8307C12.0925 18.7926 11.9209 18.7863 11.7525 18.8053C11.581 18.8212 11.4158 18.8878 11.2792 18.9575C10.9996 19.0749 10.7232 19.2873 10.5326 19.5315C10.3356 19.7757 10.1958 20.0642 10.1259 20.3592C10.056 20.6541 10.0528 20.9617 10.1259 21.2471C10.199 21.5293 10.3451 21.7798 10.5167 21.9733C10.8757 22.3665 11.3268 22.5124 11.6572 22.5694C11.994 22.6265 12.2418 22.6011 12.3689 22.5885C12.3943 22.5853 12.4166 22.5789 12.4356 22.5758C12.4356 22.5853 12.4452 22.5948 12.4483 22.6043C12.4769 22.6424 12.5468 22.6836 12.8645 22.4521C12.963 22.3728 13.1505 22.2111 13.3411 21.9352C13.5285 21.6593 13.7382 21.2629 13.7636 20.7492C13.7763 20.4955 13.7319 20.2165 13.6143 19.9533L13.6111 19.9501ZM13.0011 21.7227C12.8518 21.9701 12.7057 22.1318 12.639 22.2238C12.6199 22.2492 12.604 22.2713 12.5849 22.2904C12.5246 22.2809 12.4483 22.2745 12.3467 22.2682C12.2323 22.2555 12.0099 22.2523 11.724 22.1794C11.4444 22.1096 11.0981 21.9701 10.8471 21.6688C10.5929 21.3771 10.4754 20.9236 10.5993 20.4702C10.7168 20.0167 11.0345 19.5981 11.5016 19.4047C11.9178 19.17 12.407 19.3317 12.7692 19.6393C12.9471 19.7947 13.106 19.9755 13.1886 20.1594C13.2775 20.3465 13.3157 20.5526 13.3093 20.7429C13.303 21.1361 13.1473 21.4786 13.0011 21.7259V21.7227Z" fill="#FFF8E3"/>
<path d="M13.3065 20.7389C13.3002 21.1321 13.1445 21.4746 12.9984 21.7219C12.849 21.9692 12.7029 22.131 12.6362 22.2229C12.6171 22.2483 12.6012 22.2705 12.5822 22.2895C12.5218 22.28 12.4456 22.2737 12.3439 22.2673C12.2295 22.2547 12.0071 22.2515 11.7212 22.1785C11.4416 22.1088 11.0953 21.9692 10.8443 21.668C10.5901 21.3762 10.4726 20.9228 10.5965 20.4693C10.7141 20.0158 11.0318 19.5972 11.4988 19.4038C11.915 19.1691 12.4043 19.3309 12.7664 19.6385C12.9444 19.7939 13.1032 19.9746 13.1858 20.1585C13.2748 20.3456 13.3129 20.5518 13.3065 20.742V20.7389Z" fill="#FFF8E3"/>
<path d="M25.2521 22.0217C25.2362 21.7014 25.1536 21.3494 24.9725 21.0228C24.9312 20.9372 24.8677 20.8611 24.8169 20.7818C24.801 20.7659 24.7851 20.7279 24.7565 20.712L24.6993 20.6613L24.5849 20.5693C24.442 20.4393 24.2609 20.36 24.0861 20.2617C23.7144 20.1158 23.3109 20.0492 22.9043 20.0746C22.4976 20.1095 22.1005 20.23 21.7414 20.4234C21.3761 20.6105 21.0647 20.9086 20.836 21.2543C20.7121 21.4223 20.6454 21.6221 20.5691 21.8156C20.531 22.0185 20.4833 22.2215 20.5024 22.4244C20.4929 22.6274 20.5532 22.8176 20.5913 23.0079C20.6517 23.1918 20.7184 23.3631 20.8106 23.5216C20.9853 23.8387 21.2109 24.121 21.4809 24.3208C21.751 24.5237 22.0464 24.6505 22.3292 24.7171C22.6151 24.7869 22.882 24.7647 23.1108 24.7393C23.5714 24.6632 23.8606 24.4761 24.0003 24.3842C24.0067 24.3778 24.0099 24.3715 24.0194 24.3683C24.0734 24.3493 24.1306 24.3303 24.1973 24.2986C24.353 24.2193 24.6516 24.0195 24.8868 23.6263C25.125 23.2394 25.2934 22.6781 25.2521 22.0249V22.0217ZM24.5373 23.4328C24.3816 23.7246 24.1973 23.8831 24.083 23.9814C24.0162 24.0132 23.9336 24.0575 23.832 24.1051C23.6953 24.1622 23.4317 24.3049 23.0504 24.3398C22.863 24.3525 22.6469 24.3556 22.4213 24.2922C22.1989 24.2288 21.967 24.121 21.7573 23.9497C21.5476 23.7848 21.3697 23.5502 21.2268 23.2806C21.087 23.0111 20.9885 22.7067 20.9917 22.3991C20.9567 21.768 21.4015 21.1687 21.9924 20.8484C22.2911 20.693 22.6215 20.5947 22.9551 20.563C23.2887 20.5471 23.6159 20.601 23.905 20.712C24.0416 20.7913 24.1878 20.8484 24.299 20.953C24.3498 21.0006 24.4324 21.0482 24.4451 21.0799C24.4833 21.1401 24.5373 21.1877 24.5659 21.2574C24.7025 21.5111 24.7819 21.7934 24.801 22.0661C24.8486 22.6147 24.7152 23.1062 24.5373 23.4328Z" fill="#FFF8E3"/>
<path d="M24.5358 23.4322C24.3801 23.7239 24.1959 23.8825 24.0815 23.9808C24.0148 24.0125 23.9322 24.0569 23.8305 24.1044C23.6939 24.1615 23.4302 24.3042 23.049 24.3391C22.8615 24.3518 22.6455 24.355 22.4199 24.2915C22.1975 24.2281 21.9656 24.1203 21.7559 23.9491C21.5462 23.7842 21.3683 23.5495 21.2253 23.2799C21.0855 23.0104 20.987 22.706 20.9902 22.3984C20.9553 21.7673 21.4001 21.168 21.991 20.8477C22.2896 20.6923 22.62 20.594 22.9536 20.5623C23.2872 20.5464 23.6145 20.6003 23.9036 20.7113C24.0402 20.7906 24.1863 20.8477 24.2975 20.9523C24.3484 20.9999 24.431 21.0475 24.4437 21.0792C24.4818 21.1394 24.5358 21.187 24.5644 21.2568C24.701 21.5105 24.7805 21.7927 24.7995 22.0654C24.8472 22.614 24.7137 23.1055 24.5358 23.4322Z" fill="#FFF8E3"/>
<path d="M35.1004 15.1431C35.0814 14.7562 34.9924 14.3472 34.7922 13.9603C34.7382 13.8652 34.6874 13.7637 34.627 13.6749C34.5603 13.5893 34.4904 13.5005 34.4205 13.4149C34.2776 13.2468 34.1092 13.0819 33.9122 12.955C33.5182 12.6918 33.0417 12.5365 32.5588 12.5269C32.079 12.5079 31.5961 12.5967 31.1513 12.7806C30.9257 12.8663 30.7161 12.9868 30.5159 13.1168C30.4142 13.1834 30.3189 13.2531 30.2204 13.3356C30.1219 13.4244 30.0393 13.5163 29.9663 13.6146C29.6644 14.0174 29.5215 14.5057 29.5088 14.9719C29.4961 15.4412 29.6104 15.901 29.8297 16.2847C30.0457 16.6621 30.3221 16.9729 30.6271 17.2107C31.2339 17.6895 31.9075 17.902 32.4444 17.9274C32.5111 17.9337 32.5746 17.9337 32.6382 17.9337C32.67 17.9337 32.6986 17.9337 32.7303 17.9305C32.7557 17.9337 32.8129 17.9274 32.8352 17.921C32.9114 17.9083 32.9813 17.8893 33.0449 17.8703C33.0576 17.8861 33.0862 17.8957 33.1529 17.8957C33.245 17.8957 33.4166 17.8766 33.7057 17.7498C33.8836 17.6546 34.2458 17.4517 34.554 17.0077C34.859 16.5733 35.1227 15.92 35.0941 15.1431H35.1004ZM34.2235 16.7953C34.1505 16.9158 34.0679 17.0141 33.9884 17.0997C33.9249 17.0997 33.7756 17.1695 33.3912 17.3597C33.2259 17.4263 32.9114 17.6134 32.4666 17.5405C32.0059 17.4929 31.4214 17.29 30.9067 16.8587C30.6462 16.6462 30.4174 16.3703 30.2395 16.0564C30.0679 15.7425 29.9822 15.3683 29.9949 14.9846C30.0107 14.604 30.1315 14.214 30.3698 13.9127C30.5858 13.621 30.9798 13.4022 31.3546 13.2436C32.1171 12.9265 33.0258 12.9392 33.6485 13.3705C33.7311 13.418 33.7946 13.4846 33.8677 13.5417C33.9376 13.6083 34.0012 13.6781 34.0679 13.7447C34.1282 13.8176 34.1854 13.8905 34.2426 13.9635C34.2966 14.0396 34.3379 14.1188 34.3856 14.195C34.5508 14.5121 34.6302 14.8577 34.6493 15.1843C34.6874 15.8471 34.4714 16.4211 34.2267 16.8016L34.2235 16.7953Z" fill="#FFF8E3"/>
<path d="M34.2241 16.7948C34.151 16.9153 34.0684 17.0136 33.989 17.0992C33.9254 17.0992 33.7761 17.169 33.3917 17.3592C33.2265 17.4258 32.9119 17.6129 32.4671 17.54C32.0065 17.4924 31.4219 17.2895 30.9072 16.8582C30.6467 16.6457 30.4179 16.3698 30.24 16.0559C30.0684 15.742 29.9827 15.3678 29.9954 14.9841C30.0113 14.6035 30.132 14.2135 30.3703 13.9122C30.5863 13.6205 30.9803 13.4017 31.3552 13.2431C32.1177 12.926 33.0263 12.9387 33.649 13.37C33.7316 13.4175 33.7952 13.4841 33.8682 13.5412C33.9381 13.6078 34.0017 13.6776 34.0684 13.7441C34.1287 13.8171 34.1859 13.89 34.2431 13.963C34.2971 14.0391 34.3384 14.1183 34.3861 14.1944C34.5513 14.5116 34.6307 14.8572 34.6498 15.1838C34.6879 15.8466 34.4719 16.4206 34.2272 16.8011L34.2241 16.7948Z" fill="#FFF8E3"/>
<path d="M42.6391 8.6509C42.6073 8.58114 42.5788 8.51137 42.547 8.44161C42.512 8.37184 42.4676 8.30842 42.4231 8.24183C42.3341 8.10864 42.2388 8.01033 42.1276 7.89935C41.9116 7.67737 41.6097 7.50295 41.3174 7.40465C41.1173 7.33171 40.9648 7.34123 40.7996 7.34123C40.6376 7.34123 40.4819 7.36025 40.323 7.39197C40.1642 7.42368 39.999 7.47124 39.8433 7.55369C39.7067 7.62346 39.5669 7.70591 39.4366 7.80104C39.1761 7.99131 38.9442 8.26402 38.8393 8.59065C38.7853 8.75238 38.7663 8.92045 38.7758 9.079C38.7758 9.16145 38.7885 9.23439 38.798 9.31367L38.8234 9.42466L38.8298 9.44685V9.49125C38.8679 9.77982 38.9537 10.0557 39.0967 10.2904C39.2396 10.525 39.4366 10.709 39.6368 10.8263C39.8115 10.9278 39.999 11.0324 40.1642 11.0863C40.5009 11.21 40.7901 11.2132 40.9298 11.1878C41.1014 11.1561 41.2063 11.1022 41.2666 11.0514C41.3047 11.0451 41.346 11.0324 41.3969 11.0197C41.5208 10.9722 41.7718 10.877 42.0418 10.636C42.2992 10.395 42.5978 10.024 42.6963 9.49125C42.7471 9.23122 42.7376 8.9363 42.6423 8.64456L42.6391 8.6509ZM42.2452 9.431C42.188 9.83056 41.956 10.1477 41.7622 10.357C41.5526 10.5694 41.3588 10.6709 41.2634 10.7312C41.1491 10.7978 41.0728 10.8421 41.022 10.8739C40.987 10.8739 40.9489 10.8739 40.9076 10.8707C40.7996 10.8612 40.5835 10.839 40.3071 10.7153C40.1674 10.6551 40.0276 10.5694 39.8592 10.4616C39.7194 10.3601 39.5828 10.2269 39.4875 10.0525C39.3921 9.87813 39.3286 9.66566 39.3064 9.43417L39.3 9.37709L39.2873 9.31367L39.2714 9.23122C39.2651 9.17414 39.2555 9.11706 39.2587 9.06315C39.2587 8.94899 39.2682 8.84117 39.3064 8.73652C39.3794 8.5304 39.5351 8.34647 39.7416 8.19743C39.8433 8.12449 39.9577 8.05473 40.0816 7.99448C40.1832 7.94374 40.304 7.90569 40.431 7.88032C40.5613 7.85495 40.6947 7.83909 40.825 7.83592C40.9553 7.83592 41.0855 7.83592 41.165 7.87398C41.4191 7.9596 41.6193 8.07693 41.8004 8.25451C41.8861 8.34013 41.9846 8.43844 42.045 8.52723C42.0736 8.57479 42.1054 8.61602 42.1308 8.66676L42.1975 8.8158C42.2674 9.01875 42.2801 9.23122 42.2452 9.42783V9.431Z" fill="#FFF8E3"/>
<path d="M42.2468 9.43101C42.1897 9.83057 41.9577 10.1477 41.7639 10.357C41.5542 10.5694 41.3604 10.6709 41.2651 10.7312C41.1508 10.7978 41.0745 10.8422 41.0237 10.8739C40.9887 10.8739 40.9506 10.8739 40.9093 10.8707C40.8013 10.8612 40.5852 10.839 40.3088 10.7153C40.169 10.6551 40.0292 10.5694 39.8609 10.4616C39.7211 10.3602 39.5845 10.227 39.4891 10.0526C39.3938 9.87814 39.3303 9.66568 39.3081 9.43418L39.3017 9.3771L39.289 9.31368L39.2731 9.23123C39.2668 9.17415 39.2572 9.11707 39.2604 9.06316C39.2604 8.949 39.2699 8.84118 39.3081 8.73654C39.3811 8.53041 39.5368 8.34649 39.7433 8.19745C39.845 8.12451 39.9594 8.05475 40.0833 7.99449C40.1849 7.94376 40.3057 7.9057 40.4327 7.88033C40.563 7.85496 40.6964 7.83911 40.8267 7.83594C40.957 7.83594 41.0872 7.83594 41.1666 7.87399C41.4208 7.95961 41.621 8.07694 41.8021 8.25453C41.8878 8.34015 41.9863 8.43845 42.0467 8.52724C42.0753 8.57481 42.1071 8.61603 42.1325 8.66677L42.1992 8.81581C42.2691 9.01877 42.2818 9.23123 42.2468 9.42784V9.43101Z" fill="#FFF8E3"/>
<path d="M41.6618 28.4579C41.5887 28.0995 41.4299 27.7412 41.182 27.4304C40.9406 27.1165 40.5848 26.8723 40.2099 26.7328C40.0288 26.6535 39.8223 26.5901 39.5999 26.5774C39.3838 26.5647 39.1646 26.5901 38.9613 26.6503C38.7579 26.7106 38.5673 26.7994 38.3926 26.9135C38.3036 26.9706 38.221 27.0277 38.1416 27.0943C38.0653 27.1641 38.005 27.2085 37.9287 27.2687C37.6364 27.5034 37.3219 27.7793 37.144 28.1693C36.839 28.9938 37.1281 29.7485 37.4839 30.2876C37.8684 30.8172 38.3703 31.1597 38.8183 31.2802C39.0407 31.3499 39.2408 31.3595 39.4092 31.3658C39.5713 31.3436 39.7047 31.3436 39.7873 31.3055C40.0224 31.239 40.1431 31.1502 40.213 31.0899C40.3624 31.0455 40.518 30.9504 40.6991 30.8521C41.0804 30.6111 41.487 30.1417 41.6459 29.4948C41.7158 29.1714 41.7412 28.8162 41.6681 28.4547L41.6618 28.4579ZM41.1947 29.4029C41.074 29.9261 40.7627 30.313 40.4577 30.5286C40.14 30.7538 39.8858 30.8235 39.7524 30.8426C39.5554 30.8743 39.4474 30.8489 39.3775 30.8489C39.3076 30.8426 39.279 30.8584 39.2599 30.887C39.2472 30.906 39.2377 30.9345 39.2885 30.9853C39.2536 30.9789 39.2218 30.9789 39.1868 30.9694C39.1042 30.9599 39.0248 30.9218 38.9327 30.8996C38.5768 30.7791 38.167 30.4779 37.8588 30.0244C37.7095 29.7929 37.5919 29.5234 37.5348 29.2285C37.4712 28.9431 37.4935 28.6069 37.5951 28.3596C37.7222 28.0995 37.97 27.8681 38.2528 27.6461C38.4116 27.5256 38.5292 27.4114 38.6722 27.329C38.8119 27.2402 38.9644 27.1704 39.1169 27.126C39.4315 27.0372 39.7333 27.0562 40.0446 27.1958C40.3528 27.3163 40.6261 27.497 40.8199 27.7444C41.0168 27.9886 41.1439 28.274 41.2075 28.5625C41.271 28.8543 41.2519 29.1428 41.2011 29.4029H41.1947Z" fill="#FFF8E3"/>
<path d="M41.1956 29.4031C41.0749 29.9264 40.7635 30.3132 40.4585 30.5289C40.1408 30.754 39.8867 30.8238 39.7532 30.8428C39.5563 30.8745 39.4482 30.8492 39.3783 30.8492C39.3084 30.8428 39.2798 30.8587 39.2608 30.8872C39.2481 30.9062 39.2385 30.9348 39.2894 30.9855C39.2544 30.9792 39.2227 30.9792 39.1877 30.9697C39.1051 30.9601 39.0257 30.9221 38.9335 30.8999C38.5777 30.7794 38.1679 30.4781 37.8597 30.0247C37.7104 29.7932 37.5928 29.5236 37.5356 29.2287C37.4721 28.9433 37.4943 28.6072 37.596 28.3598C37.7231 28.0998 37.9709 27.8683 38.2536 27.6463C38.4125 27.5258 38.5301 27.4117 38.673 27.3292C38.8128 27.2404 38.9653 27.1706 39.1178 27.1263C39.4323 27.0375 39.7342 27.0565 40.0455 27.196C40.3537 27.3165 40.6269 27.4973 40.8207 27.7446C41.0177 27.9888 41.1448 28.2742 41.2083 28.5628C41.2719 28.8545 41.2528 29.1431 41.202 29.4031H41.1956Z" fill="#FFF8E3"/>
<path d="M27.2642 33.3956C27.0863 32.9231 26.6288 32.5553 26.1268 32.4411C25.6248 32.3206 25.0434 32.4506 24.6749 32.8185C24.4906 32.9961 24.3508 33.2402 24.319 33.4908C24.2873 33.7349 24.319 33.9633 24.3858 34.1599C24.6749 34.94 25.2436 35.2539 25.4342 35.3268C25.5803 35.3776 25.6757 35.3776 25.7297 35.3681C25.7519 35.3617 25.7646 35.3554 25.7773 35.3427C25.8885 35.3807 26.0823 35.4125 26.3333 35.3585C26.4795 35.33 26.6288 35.2571 26.7781 35.1588C26.9211 35.0478 27.064 34.9114 27.1752 34.7307C27.2801 34.5499 27.3595 34.3343 27.3817 34.1028C27.4008 33.8649 27.3595 33.6208 27.2642 33.3924V33.3956ZM26.7781 34.5087C26.6351 34.7655 26.4096 34.9209 26.2253 34.9748C26.0347 35.0351 25.879 35.0256 25.7996 35.0129C25.6788 35.0129 25.6026 34.9907 25.5454 35.0002C25.5454 35.0002 25.5433 35.0002 25.539 35.0002C25.4628 34.9431 25.3516 34.8543 25.2245 34.7148C25.072 34.5467 24.9036 34.3089 24.8147 34.0108C24.7321 33.7159 24.7575 33.3766 25.0148 33.161C25.2595 32.9263 25.6534 32.8375 26.0156 32.9263C26.3778 33.0119 26.6891 33.2593 26.813 33.5859C26.8798 33.7508 26.9084 33.9125 26.902 34.0711C26.8893 34.2328 26.8416 34.3787 26.7717 34.5087H26.7781Z" fill="#FFF8E3"/>
<path d="M26.9072 34.0721C26.8945 34.2339 26.8469 34.3797 26.777 34.5098C26.634 34.7666 26.4084 34.922 26.2242 34.9759C26.0335 35.0362 25.8779 35.0266 25.7984 35.014C25.6777 35.014 25.6015 34.9918 25.5443 35.0013C25.5443 35.0013 25.5422 35.0013 25.5379 35.0013C25.4617 34.9442 25.3505 34.8554 25.2234 34.7159C25.0709 34.5478 24.9025 34.31 24.8135 34.0119C24.7309 33.717 24.7564 33.3777 25.0137 33.162C25.2583 32.9274 25.6523 32.8386 26.0145 32.9274C26.3767 33.013 26.688 33.2603 26.8119 33.587C26.8786 33.7519 26.9072 33.9136 26.9009 34.0721H26.9072Z" fill="#FFF8E3"/>
<g style="mix-blend-mode:multiply" opacity="0.22">
<path d="M36.311 1.88403C37.4071 2.18846 38.3793 2.54997 39.2085 2.9083C40.7939 3.58375 41.8836 4.25603 42.4555 4.589C42.8844 4.82366 43.1958 5.0393 43.4499 5.19786C43.7009 5.35324 43.8884 5.46423 44.025 5.53717C44.0409 5.54351 44.0536 5.55302 44.0695 5.55936C44.0695 5.55936 44.0949 5.5879 44.1044 5.59425C44.3713 5.85745 44.8764 6.29824 45.5976 7.18932C46.0615 7.77281 46.9257 8.93978 47.6754 10.7442C48.0472 11.6479 48.3871 12.7007 48.654 13.8867C48.6572 13.8962 48.6603 13.9058 48.6603 13.9153C48.2823 14.2007 47.8915 14.4924 47.488 14.781C46.4364 15.5389 45.2958 16.3031 44.079 17.0674C44.044 15.7545 43.8947 14.4512 43.666 13.1796C43.4499 11.9777 43.0782 10.8869 42.5826 9.85624C42.1696 8.99052 41.6676 8.16603 41.0957 7.35422C40.8892 7.05613 40.6732 6.75805 40.4444 6.45996C39.3038 4.96636 37.9059 3.17468 36.3047 1.88086L36.311 1.88403Z" fill="#FF823E"/>
</g>
<g style="mix-blend-mode:multiply" opacity="0.22">
<path d="M47.3074 26.7839C46.6084 28.287 45.7061 29.7489 44.61 31.0744C43.5044 32.3968 42.1954 33.5733 40.7435 34.5278C40.5624 34.6451 40.3877 34.7751 40.1971 34.8861L39.6252 35.2064C39.2471 35.4252 38.8532 35.6187 38.4624 35.8153C37.6776 36.2053 36.8802 36.5573 36.07 36.8776C34.4561 37.5182 32.8135 38.0192 31.1805 38.3871C27.9208 39.1164 24.7184 39.2813 21.9194 38.9674C21.5731 38.9198 21.2268 38.8913 20.8995 38.831C20.5723 38.7676 20.2482 38.6883 19.9337 38.5995C19.3046 38.4251 18.7105 38.2158 18.1513 37.9843C17.0394 37.5182 16.0735 36.9759 15.2793 36.4178C14.4564 35.847 13.8528 35.2413 13.3984 34.7054C14.3039 34.8481 15.3142 35.2984 15.9592 35.4633C17.1379 35.7582 18.2816 36.2212 19.473 36.4654C21.6715 36.9061 24.0162 36.4685 26.1862 36.0277C30.2306 35.2032 34.5546 33.5004 37.9223 30.7827C39.1486 29.7965 40.2479 28.6739 41.1597 27.4118C41.6903 26.6793 42.1605 25.896 42.5545 25.0683C43.317 23.4637 43.7649 21.7387 43.9587 19.9723C44.4448 19.6616 44.9246 19.3476 45.3979 19.0273C45.8618 18.7134 46.3225 18.4026 46.7831 18.0919C47.2438 17.7843 47.6791 17.4545 48.1207 17.1374C48.4384 16.9059 48.7625 16.6807 49.0738 16.4492C49.0833 16.5507 49.0929 16.6522 49.1024 16.7536C49.1183 16.9249 49.131 17.0961 49.1469 17.2642C49.166 17.4354 49.1755 17.613 49.1691 17.7843C49.2517 20.5812 48.7243 23.7745 47.301 26.7807L47.3074 26.7839Z" fill="#FF823E"/>
</g>
</svg>
