<svg width="174" height="120" viewBox="0 0 174 120" fill="none" xmlns="http://www.w3.org/2000/svg">
<path d="M172.988 18.4785C172.689 17.1036 171.946 15.8632 171.011 14.9305C170.076 13.9786 168.967 13.3055 167.839 12.8728C165.582 11.9401 163.287 11.8055 161.233 11.8632C153.182 12.1805 147.377 13.5074 144.388 14.2478C140.01 15.392 137.638 16.3343 136.336 16.8728C135.854 17.0939 135.516 17.2478 135.294 17.3824C134.301 16.5074 133.53 15.9497 132.961 15.5843C132.903 15.5555 132.865 15.5266 132.816 15.4882C132.816 15.4882 132.81 15.485 132.797 15.4786C132.797 15.4786 132.73 15.4113 132.691 15.3824C132.334 15.0747 131.823 14.6516 131.09 14.0747C130.348 13.4978 129.412 12.7286 128.072 11.8921C126.365 10.7671 123.068 8.594 118.169 6.42093C113.299 4.21903 106.81 2.01712 99.1151 1.08443C98.6329 1.02674 98.1605 0.940202 97.6687 0.892126L96.1933 0.805588C95.2001 0.73828 94.1973 0.680588 93.1752 0.613281C92.153 0.613281 91.1213 0.632512 90.0702 0.642127C89.5495 0.642127 89.0192 0.642127 88.4888 0.642127C87.9585 0.680588 87.4378 0.728665 86.8978 0.767126C85.8371 0.853664 84.7571 0.930587 83.6771 1.01712C82.5971 1.17097 81.5075 1.34405 80.4082 1.49789C79.8682 1.58443 79.2993 1.65174 78.7593 1.74789C78.2097 1.86327 77.6601 1.98827 77.1104 2.10366C76.0112 2.35365 74.8926 2.56519 73.7933 2.83442C71.6045 3.46903 69.3384 4.00749 67.1592 4.83441C66.0695 5.22863 64.9414 5.57479 63.8614 6.02671C62.7814 6.46901 61.6917 6.92093 60.6021 7.36324C56.2436 9.08438 51.8562 11.219 47.8448 13.8632C45.8295 15.1805 43.9106 16.6613 42.0689 18.2093C40.2464 19.7766 38.5203 21.4497 36.91 23.1901C33.7183 26.7093 30.893 30.4496 28.5305 34.3727C26.0716 38.2669 24.4613 42.5265 23.4102 46.6803C22.822 48.7572 22.5713 50.8533 22.2627 52.8725C22.0988 54.911 21.906 56.8918 21.9638 58.834C21.906 60.7763 22.1181 62.6321 22.2049 64.4398C22.3013 65.334 22.4363 66.209 22.5424 67.0648C22.6581 67.9301 22.7545 68.7667 22.9281 69.584C23.1692 70.8244 23.3813 72.0359 23.6513 73.1897C23.3909 73.2474 22.9185 73.4013 22.1085 73.7763C20.7103 74.4205 18.29 75.6705 14.3557 78.2858C13.0829 79.1512 11.2315 80.4397 9.00403 82.2474C7.89512 83.1512 6.68014 84.1897 5.42659 85.4108C4.18268 86.6416 2.87128 88.0262 1.73344 89.7665C1.16452 90.6415 0.653456 91.6319 0.354532 92.7857C0.209891 93.3627 0.142392 93.9973 0.209891 94.6415C0.229177 94.9684 0.344889 95.2857 0.422031 95.6126C0.479887 95.7761 0.557029 95.9203 0.624528 96.0742C0.711312 96.1992 0.749883 96.4203 0.942737 96.603C1.85879 97.5165 2.77485 98.2088 3.84519 98.8819C4.91553 99.5165 6.05337 100.055 7.26835 100.497C12.1283 102.228 17.721 102.478 23.5067 102.074C27.2095 101.805 31.0183 101.247 34.9043 100.449C35.0683 100.747 35.2707 101.055 35.4636 101.382C36.0807 102.382 37.0064 103.815 38.395 105.507C39.7546 107.218 41.7217 109.103 44.1903 110.911C46.6781 112.699 49.6962 114.43 53.1869 115.92C54.9322 116.661 56.8029 117.343 58.7893 117.901C59.7825 118.17 60.8046 118.43 61.875 118.641C62.9357 118.814 64.006 118.939 65.0956 119.093C73.8126 120.103 83.7543 119.622 93.8598 117.372C98.9126 116.247 104.004 114.709 108.999 112.718C111.496 111.728 113.974 110.641 116.404 109.43C117.619 108.814 118.834 108.218 120.02 107.526L121.804 106.536L123.511 105.391C128.101 102.363 132.199 98.6415 135.661 94.4973C139.103 90.3242 141.9 85.7281 144.069 81.0166C144.339 80.4301 144.609 79.8339 144.879 79.2474C145.14 78.6608 145.342 78.0455 145.574 77.4493C145.795 76.8532 146.017 76.257 146.239 75.6609C146.48 75.0743 146.683 74.4782 146.846 73.8628C147.194 72.6513 147.55 71.4493 147.888 70.257C148.158 69.0551 148.418 67.8436 148.669 66.6609C149.537 61.8821 149.894 57.2283 149.71 52.8245C149.624 51.0841 149.46 49.3822 149.247 47.7476C150.337 46.911 151.417 46.0649 152.487 45.238C155.043 43.3245 157.415 41.3053 159.758 39.3823C162.111 37.4688 164.367 35.5169 166.421 33.4208C168.456 31.3342 170.249 29.0362 171.493 26.517C172.13 25.267 172.583 23.9689 172.93 22.6131C173.219 21.2478 173.287 19.8439 172.997 18.4593L172.988 18.4785ZM23.9792 64.1609C23.8924 62.4206 23.7092 60.6033 23.7863 58.7283C23.7381 56.8533 23.9695 54.9495 24.1238 52.9783C24.442 51.036 24.7024 49.0264 25.2809 47.0457C25.4063 46.5457 25.5316 46.0457 25.657 45.5361C25.8113 45.0361 25.9945 44.5457 26.168 44.0553C26.3513 43.5553 26.5152 43.0553 26.6984 42.5649L26.9587 41.8149C27.0552 41.5649 27.1805 41.3245 27.2866 41.0842C27.7302 40.113 28.1737 39.1323 28.6269 38.1419C29.1766 37.1996 29.7166 36.2573 30.2662 35.3054C34.9429 27.7669 41.2107 20.5555 49.0598 15.4978C52.9748 12.9401 57.1597 10.8921 61.4893 9.19015C62.5692 8.74784 63.6396 8.30554 64.7099 7.85362C65.7706 7.42093 66.8699 7.08439 67.9402 6.69978C70.0713 5.88248 72.2698 5.37287 74.4008 4.72864C83.0407 2.61327 91.5745 1.97866 99.0283 2.93057C106.501 3.79595 112.837 5.88248 117.619 7.94977C122.431 9.99783 125.729 12.0363 127.474 13.0459C128.776 13.7574 129.721 14.4113 130.492 14.8824C131.264 15.3536 131.823 15.6901 132.238 15.9113C132.286 15.9305 132.325 15.9593 132.373 15.9882C132.373 15.9882 132.44 16.0651 132.479 16.0939C133.298 16.8824 134.822 18.2285 137.021 20.9305C138.428 22.6997 141.051 26.2381 143.327 31.7188C144.455 34.4496 145.496 37.6515 146.297 41.238C146.297 41.2669 146.316 41.2957 146.306 41.3245C145.159 42.1899 143.973 43.0745 142.748 43.9495C136.307 48.5937 128.728 53.3437 120.454 57.8533C112.181 62.3821 103.271 66.7378 94.2648 70.9109C89.752 72.9782 85.2682 75.1032 80.7554 77.0359C76.2619 79.0166 71.8359 80.9685 67.5063 82.8724C58.8568 86.6127 50.5255 89.8627 42.9078 92.1031C39.2532 93.1896 35.7529 94.0453 32.5226 94.68L32.4551 94.603C32.4069 94.4107 32.3394 94.1607 32.2237 93.8338C31.8862 92.8819 31.1822 91.2281 30.0733 88.3339C29.3598 86.4396 27.9327 82.8435 26.5248 77.7858C26.1488 76.5359 25.8305 75.1801 25.5123 73.7378C25.1459 72.3051 24.9145 70.7763 24.6156 69.1898C24.4516 68.3917 24.3841 67.5648 24.2684 66.7282C24.172 65.8917 24.037 65.0359 23.9792 64.1609ZM139.094 21.392C139.238 21.392 139.412 21.4112 139.634 21.4016C141.003 21.392 147.29 20.4401 153.538 19.3824C156.643 18.8535 159.719 18.4593 162.178 18.5074C164.329 18.5074 165.968 18.8439 166.778 18.9882C166.816 19.0651 166.845 19.142 166.874 19.2285C167.009 19.6516 167.115 20.1708 167.048 20.7189C166.99 21.267 166.788 21.9112 166.421 22.5651C165.958 23.4208 165.023 24.5747 163.605 25.9689C162.911 26.6804 162.149 27.4496 161.32 28.3054C160.896 28.7285 160.462 29.1708 160.018 29.6227C159.546 30.065 159.054 30.5169 158.553 30.9881C155.679 33.7573 152.073 36.8919 147.849 40.1707C147.001 36.7188 145.93 33.6227 144.773 30.9688C142.864 26.5746 140.714 23.4112 139.103 21.4016L139.094 21.392ZM32.0308 94.7761C28.7137 95.3915 25.6666 95.7761 22.9667 95.9396C17.4993 96.3338 13.4782 95.8146 11.4051 95.5453C10.6433 95.43 9.9683 95.3338 9.36082 95.2377C8.76297 95.1223 8.23262 95.0165 7.77941 94.9203C7.49013 94.8723 7.23942 94.8242 7.008 94.7761C7.008 94.7569 6.97907 94.7473 6.96943 94.728C6.93085 94.6992 6.873 94.6415 6.83443 94.6127C6.83443 94.5934 6.84407 94.555 6.89228 94.4973C6.97907 94.3915 6.96943 94.4107 6.97907 94.3723C6.98871 94.3146 6.99835 94.1704 7.05621 94.1704C7.23942 93.6223 7.65406 92.0646 9.04261 90.4011C10.3733 88.7185 12.5815 86.9589 14.8379 85.2473C19.0517 82.0166 23.6609 79.3724 25.0206 78.4205C26.5538 83.4877 28.0773 87.0742 28.9259 88.93C30.1601 91.6511 31.0376 93.1992 31.5776 94.0838C31.7608 94.3915 31.9151 94.6127 32.0404 94.7665L32.0308 94.7761ZM142.189 80.3339C140.068 84.9012 137.329 89.3242 134.002 93.3434C130.647 97.353 126.664 100.92 122.267 103.815C121.718 104.17 121.187 104.565 120.618 104.901L118.883 105.872C117.735 106.536 116.539 107.122 115.353 107.718C112.972 108.911 110.551 109.978 108.102 110.949C103.204 112.882 98.2183 114.411 93.2716 115.516C83.3782 117.738 73.6487 118.228 65.1631 117.276C64.1121 117.141 63.061 117.036 62.0582 116.872C61.065 116.67 60.0911 116.439 59.1364 116.17C57.2272 115.641 55.424 115.007 53.7269 114.305C50.3519 112.891 47.4206 111.247 45.0099 109.555C40.1789 106.19 37.7971 102.459 36.4761 100.622C36.3797 100.478 36.2929 100.343 36.1964 100.209C37.9514 99.8242 39.7353 99.3819 41.5289 98.9011C44.5856 98.0165 47.7002 97.1223 50.8726 96.2088C54.0258 95.2088 57.2465 94.2665 60.4671 93.1704C73.3691 88.8723 86.7531 83.7377 99.6744 77.5647C112.586 71.4109 125.131 64.4302 136.423 56.8341C137.831 55.8821 139.238 54.9398 140.627 53.9975C142.015 53.0649 143.346 52.0649 144.686 51.1033C145.66 50.4014 146.625 49.7091 147.579 49.0168C147.608 49.3245 147.637 49.6322 147.666 49.9399C147.705 50.4495 147.753 50.9687 147.791 51.4879C147.84 52.0072 147.878 52.536 147.859 53.0649C148.11 61.5552 146.509 71.2282 142.189 80.3531V80.3339ZM171.165 22.4112C170.847 23.5651 170.404 24.7477 169.806 25.892C168.629 28.1708 166.942 30.2958 164.965 32.2861C162.988 34.2765 160.761 36.1804 158.398 38.0746C156.055 39.9784 153.693 41.9688 151.157 43.8534C150.414 44.4207 149.681 44.988 148.929 45.5649C148.409 45.9591 147.878 46.363 147.358 46.7764C147.348 46.7764 147.329 46.7957 147.319 46.8149C146.017 47.738 144.715 48.6803 143.404 49.6226C140.762 51.5745 137.975 53.411 135.179 55.286C123.935 62.7956 111.467 69.6994 98.6329 75.8147C85.7889 81.9397 72.4819 87.0454 59.6668 91.3434C56.4654 92.43 53.264 93.3819 50.1302 94.3819C46.977 95.305 43.8817 96.2088 40.8346 97.0934C38.906 97.6222 36.9872 98.0934 35.0875 98.5069C34.6922 98.5934 34.3065 98.6703 33.9208 98.7472C30.2469 99.4972 26.6502 100.026 23.1788 100.286C17.5571 100.699 12.1668 100.44 7.69263 98.8338C6.57407 98.4203 5.54231 97.9299 4.58768 97.3626C4.11519 97.0646 3.66198 96.7665 3.24734 96.4203C3.02556 96.2569 2.82306 96.103 2.63021 95.9107C2.47593 95.7569 2.19629 95.5261 2.19629 95.4973C1.81058 94.8338 1.76237 93.9107 2.01308 93.0357C2.25414 92.1511 2.69771 91.305 3.19913 90.5165C4.24054 88.9396 5.47481 87.5935 6.66086 86.4012C7.84691 85.2089 9.02332 84.18 10.084 83.2858C12.2343 81.4781 14.0279 80.1704 15.2525 79.2762C18.8492 76.6705 21.1056 75.2762 22.3785 74.4397C23.092 73.9782 23.5163 73.6993 23.7381 73.5263C23.7863 73.7666 23.8442 74.0166 23.9117 74.257C24.0949 74.9782 24.2684 75.6897 24.4324 76.382C24.4999 76.632 24.577 76.882 24.6445 77.1224C23.4392 77.4782 18.2321 80.1224 13.6132 83.6704C11.3183 85.4204 9.01368 87.2858 7.57692 89.3242C6.0823 91.3242 5.72552 93.3434 5.78337 94.0165C5.78337 94.2473 5.83159 94.4107 5.88944 94.5453C5.83159 94.5261 5.78337 94.5165 5.72552 94.5069C4.77089 94.3242 4.53946 94.3819 4.49125 94.5069C4.45268 94.6127 4.55875 94.7569 5.46516 95.1511C5.91837 95.3434 6.55479 95.6319 7.50942 95.9011C7.98191 96.0453 8.53154 96.2088 9.15832 96.3819C9.79474 96.5261 10.5179 96.6896 11.3183 96.8626C13.4397 97.2473 17.586 97.8722 23.2077 97.5453C26.0523 97.4107 29.2633 97.0357 32.7444 96.4107C33.0433 96.3626 33.3422 96.305 33.6411 96.2569C36.775 95.6607 40.1114 94.8627 43.5828 93.8434C51.3162 91.6127 59.7439 88.3723 68.4513 84.632C72.7809 82.7377 77.2262 80.7954 81.7293 78.8243C86.2421 76.8916 90.7645 74.757 95.2869 72.6897C104.312 68.4974 113.271 64.0936 121.573 59.5071C129.885 54.9495 137.493 50.1033 143.983 45.3534C144.928 44.6611 145.834 43.9784 146.731 43.2861C147.261 42.8822 147.782 42.4784 148.302 42.0649C152.873 38.4976 156.74 35.0746 159.777 32.0458C160.279 31.565 160.771 31.0938 161.233 30.6419C161.677 30.1708 162.111 29.7092 162.525 29.2766C163.345 28.4016 164.107 27.5939 164.782 26.8727C166.151 25.4497 167.164 24.1131 167.646 23.0362C168.012 22.2574 168.195 21.4881 168.224 20.7574C168.244 20.0939 168.099 19.5266 167.916 19.0555C168.215 19.0266 168.34 18.9209 168.408 18.7574C168.485 18.5555 168.427 18.3055 167.463 17.7862C167.328 17.7093 167.135 17.6324 166.913 17.5459C166.913 17.5459 166.913 17.5427 166.913 17.5362C166.662 17.2959 166.402 17.1228 166.161 17.0074C165.602 16.7286 165.187 16.7574 164.955 16.7863C164.772 16.8247 164.685 16.8824 164.666 16.9401C163.953 16.8151 163.133 16.7093 162.236 16.6516C159.584 16.4786 156.335 16.8536 153.201 17.392C146.943 18.4497 140.714 19.642 139.412 20.1228C138.901 20.3151 138.641 20.4785 138.515 20.6228C138.313 20.392 138.129 20.1708 137.956 19.9785C137.127 19.0651 136.384 18.3343 135.728 17.7286C135.931 17.6901 136.201 17.6228 136.519 17.5362C137.869 17.1997 140.318 16.4401 144.87 15.4593C147.84 14.844 153.587 13.6613 161.484 13.4497C163.393 13.4113 165.467 13.6228 167.366 14.4593C169.295 15.2382 170.924 16.8536 171.329 18.9978C171.541 20.0747 171.416 21.2285 171.175 22.392L171.165 22.4112Z" fill="#3B2900"/>
<path d="M146.297 41.2292C145.497 37.6427 144.455 34.4408 143.327 31.7004C141.051 26.2293 138.429 22.6908 137.021 20.9216C134.822 18.2197 133.299 16.8736 132.489 16.0851C132.45 16.0563 132.412 16.0178 132.383 15.989C132.383 15.989 132.296 15.9313 132.248 15.912C131.833 15.6909 131.274 15.3544 130.502 14.8832C129.731 14.4121 128.786 13.7582 127.484 13.0371C125.748 12.0275 122.441 9.989 117.629 7.94094C115.113 6.85441 112.152 5.75826 108.835 4.83519C105.856 4.00827 102.587 3.3352 99.0478 2.92174C91.594 1.96982 83.0506 2.60443 74.4204 4.71981C72.2797 5.36403 70.0812 5.87364 67.9598 6.69095C66.8894 7.07556 65.7902 7.4121 64.7198 7.84479C63.6591 8.29671 62.5791 8.72939 61.4992 9.18131C57.1696 10.8832 52.9847 12.9313 49.0697 15.489C41.2206 20.5466 34.9528 27.7581 30.2761 35.2965C29.7265 36.2388 29.1865 37.1907 28.6368 38.1234C28.1836 39.1138 27.7401 40.0946 27.2965 41.0753C27.1904 41.3157 27.0651 41.5465 26.9687 41.7965L26.7083 42.5465C26.5347 43.0465 26.3612 43.5465 26.1779 44.0465C26.0044 44.5369 25.8115 45.0272 25.6669 45.5176C25.5415 46.0272 25.4065 46.5272 25.2908 47.0272C24.7219 49.008 24.4615 51.0176 24.1337 52.9599C23.9794 54.931 23.748 56.8445 23.7962 58.7195C23.7094 60.5944 23.8926 62.4021 23.9794 64.1521C24.0469 65.0367 24.1819 65.8925 24.2783 66.7194C24.3844 67.5559 24.4519 68.3925 24.6158 69.1809C24.9051 70.7675 25.1462 72.3059 25.5126 73.729C25.8308 75.1713 26.149 76.527 26.5251 77.777C27.9233 82.8251 29.36 86.4212 30.064 88.325C31.1825 91.2096 31.8864 92.8635 32.2239 93.8154C32.3396 94.1423 32.4071 94.4019 32.4553 94.5846L32.5228 94.6615C35.7628 94.0269 39.2535 93.1712 42.908 92.0846C50.5258 89.8443 58.8571 86.5943 67.5066 82.8539C71.8361 80.9501 76.2621 78.9982 80.7556 77.0078C85.2684 75.0847 89.7523 72.9501 94.2651 70.8828C103.281 66.7002 112.181 62.3444 120.464 57.8156C124.64 55.5368 128.641 53.2003 132.412 50.8445C136.105 48.5272 139.566 46.2099 142.758 43.9119C143.983 43.0272 145.159 42.1426 146.316 41.2869C146.316 41.258 146.316 41.2292 146.297 41.2003V41.2292ZM39.0895 65.6233C38.511 66.4598 37.942 66.9502 37.6431 67.1906C36.6789 67.8925 36.4667 67.7675 36.3896 67.6521C36.3799 67.6232 36.351 67.5944 36.351 67.5752C36.2835 67.5848 36.216 67.5944 36.1485 67.6136C35.7628 67.6521 35.001 67.7194 33.9885 67.5559C32.9857 67.3829 31.6164 66.9406 30.5268 65.7483C30.0061 65.1617 29.5625 64.4021 29.3408 63.5463C29.1286 62.681 29.1383 61.7483 29.3408 60.8541C29.5529 59.9598 29.9772 59.0945 30.575 58.3541C31.1536 57.6137 32.0021 56.9599 32.8411 56.6137C33.246 56.4022 33.7571 56.2002 34.2778 56.1522C34.7985 56.0945 35.3096 56.1137 35.811 56.2291C36.7753 56.4599 37.6238 56.9406 38.3085 57.5368C38.9738 58.1329 39.5524 58.7964 39.9284 59.6233C40.2852 60.4214 40.4202 61.2771 40.3816 62.0464C40.3141 63.604 39.6681 64.806 39.0992 65.6425L39.0895 65.6233ZM59.5321 39.4696C58.0567 38.835 56.485 37.4696 55.3857 35.4985C54.865 34.5081 54.4407 33.3735 54.2479 32.1235C54.0646 30.8735 54.1996 29.5081 54.6336 28.21C55.54 25.6235 57.8349 23.4793 60.5927 22.7005C61.9524 22.3158 63.4856 22.2197 64.8548 22.7197L65.848 23.0755C66.1662 23.2197 66.4555 23.4024 66.7641 23.5755C67.3908 23.8735 67.8826 24.3735 68.413 24.7966C70.3608 26.7389 71.1322 29.4504 70.8429 31.6716C70.6308 33.9312 69.628 35.7485 68.5962 36.8831C67.5837 38.0657 66.5519 38.6138 66.0409 38.883C65.6455 39.1042 65.2984 39.2004 65.0187 39.2773C64.797 39.335 64.6234 39.3734 64.498 39.4023C64.4691 39.4215 64.4305 39.4503 64.3823 39.4792C64.1509 39.6234 63.7073 39.8927 62.8202 40.0177C62.232 40.1234 60.9785 40.133 59.5128 39.4792L59.5321 39.4696ZM74.1407 70.7482C73.4272 71.9501 72.5111 72.5559 72.0483 72.7867C71.8458 72.8732 71.6626 72.9405 71.5083 72.9982C71.4794 73.0078 71.4697 73.0367 71.4504 73.0463C71.0261 73.3347 70.1487 73.8924 68.7505 74.1232C68.0562 74.2001 67.2462 74.2674 66.3784 74.0463C65.5298 73.8444 64.6234 73.4694 63.8038 72.854C62.9841 72.2386 62.2995 71.3828 61.7692 70.4213C61.4895 69.9501 61.287 69.4213 61.1038 68.8636C60.9785 68.2867 60.8049 67.7098 60.8338 67.0944C60.776 66.4886 60.9302 65.8636 61.0363 65.2483C61.2677 64.6521 61.4702 64.0656 61.8463 63.5463C62.5406 62.4887 63.4856 61.5944 64.5945 61.0271C65.6841 60.4502 66.8991 60.0752 68.1333 59.9694C69.358 59.8925 70.5922 60.0848 71.7204 60.5368C72.2508 60.8444 72.8004 61.0752 73.2247 61.4694L73.5718 61.7483L73.7454 61.9021C73.8322 61.9502 73.8804 62.0656 73.9286 62.1137C74.0829 62.354 74.2757 62.5848 74.4011 62.8444C74.9507 63.8444 75.1918 64.8925 75.2496 65.8733C75.375 67.854 74.8543 69.5559 74.1407 70.729V70.7482ZM88.1709 14.2294C88.1227 13.4794 88.2962 12.6621 88.6434 11.8832C89.0483 11.1332 89.6462 10.4217 90.4369 9.96016C90.813 9.72939 91.2276 9.56593 91.6422 9.40247C92.0762 9.31593 92.5101 9.13324 92.9344 9.13324C93.3683 9.09478 93.7829 9.02747 94.2747 9.0467C94.7665 9.06593 95.2486 9.16208 95.7018 9.33516C96.6179 9.68131 97.3893 10.3448 97.9003 11.1428C98.0257 11.3448 98.1414 11.5563 98.2378 11.7582C98.3632 12.0659 98.3728 12.2005 98.45 12.4217C98.5753 12.8159 98.6525 13.2294 98.7296 13.6332C98.8646 14.4409 98.9225 15.2678 98.7971 16.0755C98.691 16.8736 98.4114 17.6524 97.9389 18.2774C97.4761 18.9024 96.8493 19.3639 96.2225 19.5755C95.9236 19.7101 95.6247 19.7678 95.3354 19.8159C95.0558 19.8832 94.7858 19.8639 94.535 19.8736C94.024 19.9024 93.619 19.8062 93.2622 19.7774C92.944 19.6909 92.6836 19.6139 92.5004 19.5562C92.3365 19.4889 92.1919 19.4409 92.0762 19.3736C91.8929 19.3736 91.594 19.287 91.0733 19.037C90.919 18.9409 90.6876 18.7774 90.408 18.5755C90.138 18.3447 89.8198 18.0466 89.5112 17.6716C88.8844 16.912 88.2191 15.7293 88.1612 14.2197L88.1709 14.2294ZM103.503 50.6907C102.567 52.0464 101.468 52.6522 100.928 52.9406C100.051 53.3349 99.5203 53.3829 99.2503 53.3926C99.0382 53.3926 98.9611 53.3637 98.9225 53.306C98.72 53.3733 98.5175 53.4214 98.2861 53.4599C98.2186 53.4791 98.045 53.508 97.9678 53.4887C97.8714 53.4983 97.7846 53.4983 97.6882 53.4983C97.4954 53.4983 97.3025 53.4983 97.1 53.4791C95.4607 53.4022 93.4261 52.758 91.5844 51.306C90.6587 50.5849 89.8198 49.6426 89.1641 48.4984C88.4987 47.3445 88.1516 45.9407 88.1901 44.5176C88.2287 43.0946 88.6626 41.6234 89.5787 40.4023C89.8101 40.0946 90.0608 39.8157 90.3501 39.5465C90.649 39.2965 90.9383 39.085 91.2469 38.883C91.8544 38.4888 92.4908 38.1234 93.1754 37.8638C94.5158 37.2965 95.9911 37.0273 97.4471 37.085C98.9128 37.1138 100.359 37.585 101.545 38.383C102.143 38.7677 102.654 39.2773 103.088 39.7773C103.31 40.0369 103.512 40.3061 103.715 40.5657C103.898 40.835 104.043 41.133 104.216 41.4311C104.824 42.6042 105.094 43.8542 105.152 45.0176C105.238 47.3734 104.438 49.3638 103.512 50.6714L103.503 50.6907ZM126.202 31.3927C125.392 32.1235 124.63 32.4119 124.244 32.5562C124.09 32.5946 123.955 32.6331 123.849 32.6523C123.666 32.7965 123.347 32.96 122.817 33.0658C122.402 33.1427 121.525 33.1331 120.503 32.7677C120.011 32.5946 119.423 32.2869 118.902 31.9696C118.295 31.6042 117.697 31.0562 117.263 30.3543C116.829 29.6331 116.569 28.7966 116.472 27.9216L116.453 27.7773V27.71L116.366 27.3735C116.337 27.1427 116.289 26.9216 116.299 26.6716C116.27 26.1908 116.328 25.6812 116.491 25.1908C116.81 24.1908 117.523 23.3639 118.304 22.7966C118.7 22.4985 119.124 22.2678 119.539 22.0466C120.011 21.787 120.512 21.6428 120.995 21.5562C121.477 21.4601 121.949 21.4024 122.441 21.4024C122.74 21.4024 123.039 21.3928 123.357 21.4409C123.569 21.4601 123.781 21.5178 124.013 21.5947C124.9 21.8928 125.816 22.4216 126.472 23.0947C126.809 23.4216 127.098 23.7197 127.368 24.1235C127.494 24.3254 127.629 24.5178 127.745 24.7293C127.831 24.9504 127.918 25.162 128.015 25.3639C128.304 26.2389 128.323 27.1331 128.178 27.9312C128.111 28.3254 128.005 28.6908 127.86 29.0177C127.446 30.0658 126.78 30.835 126.192 31.3927H126.202Z" fill="#8AABFF"/>
<path d="M147.86 53.0461C147.879 52.5173 147.85 51.9884 147.792 51.4692C147.744 50.95 147.705 50.4307 147.657 49.9211C147.628 49.6134 147.599 49.3154 147.57 48.998C146.625 49.6904 145.651 50.3827 144.678 51.0846C143.337 52.0461 142.016 53.0461 140.618 53.9788C139.22 54.9211 137.822 55.873 136.414 56.8153C134.977 57.7865 133.521 58.7384 132.046 59.6807C121.921 66.171 110.928 72.1806 99.6558 77.5363C86.7345 83.7094 73.3601 88.8439 60.4485 93.142C57.2279 94.2478 54.0072 95.1804 50.8637 96.1804C47.6816 97.1035 44.5766 97.9881 41.5103 98.8823C39.7167 99.3631 37.9328 99.8054 36.1875 100.18C36.2839 100.315 36.3707 100.459 36.4671 100.594C37.0939 101.488 37.9907 102.825 39.2925 104.344C40.6617 105.959 42.5035 107.796 45.0009 109.536C47.402 111.228 50.343 112.873 53.7179 114.286C55.415 114.998 57.2182 115.632 59.1275 116.151C60.0821 116.43 61.0657 116.661 62.0589 116.853C63.0521 117.026 64.1031 117.123 65.1542 117.267C73.6494 118.219 83.3692 117.728 93.2626 115.507C98.2093 114.392 103.204 112.873 108.103 110.93C110.562 109.959 112.972 108.892 115.364 107.709C116.55 107.113 117.745 106.527 118.893 105.863L120.629 104.892C121.198 104.555 121.728 104.161 122.287 103.805C126.694 100.921 130.667 97.3439 134.022 93.3343C137.359 89.3151 140.088 84.8824 142.209 80.3248C146.529 71.2094 148.13 61.5268 147.879 53.0461H147.86ZM72.4151 100.661C72.5116 99.9016 72.9358 99.1708 73.4951 98.6323C74.6137 97.5073 76.3783 97.1227 77.9018 97.4881C79.435 97.8246 80.8236 98.94 81.3539 100.373C81.6335 101.055 81.7685 101.805 81.7107 102.517C81.6335 103.228 81.4021 103.882 81.0839 104.421C80.7561 104.969 80.3125 105.382 79.8882 105.719C79.435 106.017 78.9722 106.238 78.5382 106.325C77.7765 106.488 77.1883 106.392 76.8508 106.277C76.8122 106.315 76.7736 106.334 76.7061 106.353C76.5518 106.382 76.2626 106.382 75.8094 106.219C75.2308 105.998 73.5047 105.046 72.6273 102.68C72.4344 102.084 72.3187 101.392 72.4248 100.652L72.4151 100.661ZM124.987 88.5555C124.515 90.517 123.271 91.9401 122.114 92.6708C121.564 92.9593 121.101 93.2478 120.638 93.3824C120.426 93.5651 120.069 93.8247 119.356 94.0458C119.105 94.1516 118.7 94.1612 118.208 94.2285C117.707 94.2093 117.09 94.1804 116.415 93.9689C115.537 93.7285 114.592 93.2189 113.715 92.4497C113.233 92.0362 112.77 91.5266 112.355 90.9593C111.275 89.3247 110.398 87.0266 111.323 84.5267C111.873 83.344 112.818 82.5074 113.705 81.7959C113.946 81.6132 114.11 81.4786 114.351 81.2671C114.592 81.0748 114.843 80.8921 115.113 80.719C115.643 80.3825 116.222 80.1132 116.839 79.9209C117.466 79.7478 118.131 79.6613 118.787 79.6998C119.462 79.7382 120.089 79.9402 120.638 80.1805C121.747 80.5844 122.808 81.3055 123.531 82.2286C123.55 82.2478 123.579 82.2671 123.589 82.2959C124.331 83.2382 124.823 84.3151 125.045 85.4113C125.267 86.5074 125.19 87.5747 124.968 88.5555H124.987Z" fill="#8AABFF"/>
<path d="M171.167 22.4121C170.848 23.5659 170.405 24.7486 169.807 25.8928C168.631 28.1716 166.943 30.2966 164.966 32.287C162.99 34.2774 160.762 36.1812 158.4 38.0754C156.056 39.9792 153.694 41.9696 151.158 43.8542C150.416 44.4215 149.683 44.9888 148.931 45.5657C148.41 45.96 147.879 46.3638 147.359 46.7773C147.349 46.7773 147.33 46.7965 147.32 46.8157C146.018 47.7388 144.717 48.6811 143.405 49.6234C140.763 51.5753 137.976 53.4118 135.18 55.2868C123.937 62.7964 111.469 69.7002 98.6342 75.8156C85.7901 81.9405 72.4832 87.0462 59.6681 91.3443C56.4667 92.4308 53.2653 93.3827 50.1314 94.3827C46.9783 95.3058 43.8829 96.2096 40.8359 97.0943C38.9073 97.6231 36.9884 98.0943 35.0888 98.5077C34.6935 98.5942 34.3078 98.6712 33.922 98.7481C30.2482 99.4981 26.6514 100.027 23.1801 100.287C17.5584 100.7 12.1681 100.44 7.6939 98.8346C6.57534 98.4212 5.54357 97.9308 4.58895 97.3635C4.11645 97.0654 3.66325 96.7673 3.24861 96.4212C3.02683 96.2577 2.82433 96.1039 2.63148 95.9116C2.47719 95.7577 2.19756 95.527 2.19756 95.4981C1.81185 94.8347 1.76363 93.9116 2.01434 93.0366C2.25541 92.152 2.69898 91.3058 3.2004 90.5174C4.24181 88.9405 5.47607 87.5943 6.66213 86.402C7.84818 85.2097 9.02459 84.1809 10.0853 83.2867C12.2356 81.479 14.0292 80.1713 15.2538 79.2771C18.8505 76.6713 21.1069 75.2771 22.3797 74.4406C23.0933 73.979 23.5176 73.7002 23.7393 73.5271C23.7876 73.7675 23.8454 74.0175 23.9129 74.2579C24.0961 74.979 24.2697 75.6906 24.4336 76.3829C24.5011 76.6329 24.5783 76.8829 24.6458 77.1232C23.4404 77.479 18.2334 80.1232 13.6145 83.6713C11.3196 85.4213 9.01495 87.2866 7.57818 89.3251C6.08356 91.3251 5.72678 93.3443 5.78464 94.0174C5.78464 94.2481 5.83285 94.4116 5.89071 94.5462C5.83285 94.527 5.78464 94.5174 5.72679 94.5077C4.77216 94.3251 4.54073 94.3827 4.49252 94.5077C4.45395 94.6135 4.56002 94.7577 5.46643 95.152C5.91964 95.3443 6.55606 95.6327 7.51068 95.902C7.98318 96.0462 8.53281 96.2096 9.15959 96.3827C9.796 96.527 10.5192 96.6904 11.3196 96.8635C13.4409 97.2481 17.5873 97.8731 23.209 97.5462C26.0536 97.4116 29.2646 97.0366 32.7456 96.4116C33.0446 96.3635 33.3435 96.3058 33.6424 96.2577C36.7763 95.6616 40.1127 94.8635 43.584 93.8443C51.3175 91.6135 59.7452 88.3732 68.4525 84.6328C72.7821 82.7386 77.2274 80.7963 81.7306 78.8251C86.2433 76.8925 90.7658 74.7579 95.2882 72.6906C104.314 68.4983 113.272 64.0945 121.574 59.508C129.886 54.9503 137.494 50.1042 143.984 45.3542C144.929 44.6619 145.835 43.9792 146.732 43.2869C147.262 42.8831 147.783 42.4792 148.304 42.0658C152.874 38.4985 156.741 35.0754 159.779 32.0466C160.28 31.5658 160.772 31.0947 161.235 30.6428C161.678 30.1716 162.112 29.7101 162.527 29.2774C163.346 28.4024 164.108 27.5947 164.783 26.8736C166.152 25.4505 167.165 24.114 167.647 23.037C168.013 22.2582 168.197 21.489 168.226 20.7582C168.245 20.0948 168.1 19.5275 167.917 19.0563C168.216 19.0275 168.341 18.9217 168.409 18.7582C168.486 18.5563 168.428 18.3063 167.464 17.7871C167.329 17.7102 167.136 17.6332 166.914 17.5467C166.914 17.5467 166.914 17.5435 166.914 17.5371C166.663 17.2967 166.403 17.1236 166.162 17.0082C165.603 16.7294 165.188 16.7582 164.957 16.7871C164.773 16.8255 164.687 16.8832 164.667 16.9409C163.954 16.8159 163.134 16.7102 162.237 16.6525C159.586 16.4794 156.336 16.8544 153.202 17.3929C146.944 18.4505 140.715 19.6428 139.413 20.1236C138.902 20.3159 138.642 20.4794 138.516 20.6236C138.314 20.3928 138.131 20.1717 137.957 19.9794C137.128 19.0659 136.385 18.3352 135.73 17.7294C135.932 17.6909 136.202 17.6236 136.52 17.5371C137.87 17.2005 140.32 16.4409 144.871 15.4602C147.841 14.8448 153.588 13.6621 161.485 13.4506C163.395 13.4121 165.468 13.6236 167.367 14.4602C169.296 15.239 170.926 16.8544 171.331 18.9986C171.543 20.0755 171.417 21.2294 171.176 22.3928L171.167 22.4121Z" fill="#FFC82B"/>
<path d="M68.4239 24.7852C67.8936 24.3621 67.4018 23.8621 66.775 23.564C66.4665 23.4006 66.1772 23.2083 65.859 23.064L64.8658 22.7083C63.4965 22.2083 61.9537 22.3044 60.6037 22.6794C57.8363 23.4679 55.5509 25.6025 54.6349 28.1986C54.201 29.4967 54.0756 30.8524 54.2492 32.112C54.442 33.362 54.8663 34.4966 55.387 35.4966C56.4863 37.4678 58.0484 38.8428 59.5237 39.4678C60.9894 40.1312 62.243 40.112 62.8312 40.0062C63.7183 39.8908 64.1522 39.612 64.3933 39.4678C64.4415 39.4389 64.4704 39.4197 64.4994 39.3909C64.6344 39.362 64.7983 39.3235 65.0297 39.2659C65.2997 39.1889 65.6565 39.1024 66.0422 38.8716C66.5629 38.6024 67.585 38.0543 68.6072 36.8716C69.6293 35.7274 70.6418 33.9197 70.8539 31.6601C71.1336 29.439 70.3621 26.7275 68.4239 24.7852ZM67.6622 36.1216C67.2765 36.6793 66.7943 37.0351 66.4472 37.3812C66.0711 37.6889 65.7433 37.8812 65.5311 38.0447C65.2322 38.3043 64.9526 38.4389 64.7404 38.5735C64.5283 38.7082 64.3644 38.8235 64.2583 38.9005C64.2294 38.9293 64.2101 38.9485 64.1908 38.9582C63.9208 38.9582 63.4965 39.0543 62.7444 39.0255C62.2333 39.0255 61.2209 38.9678 60.0155 38.3524C58.8198 37.7755 57.5084 36.5447 56.5827 34.8043C56.1488 33.9293 55.8113 32.9486 55.6763 31.8813C55.5413 30.814 55.6763 29.7178 56.0524 28.6601C56.8141 26.5544 58.762 24.7563 61.0569 24.1217C62.1851 23.8236 63.4001 23.7467 64.4608 24.1506L65.2901 24.439C65.5504 24.564 65.8011 24.7275 66.0518 24.8621C66.5918 25.1025 66.9775 25.5256 67.4308 25.8621C69.0122 27.4486 69.6968 29.6601 69.4846 31.5736C69.34 33.4967 68.5204 35.0736 67.6718 36.112L67.6622 36.1216Z" fill="#FFF8E3"/>
<path d="M69.4728 31.5846C69.3282 33.5077 68.5086 35.0846 67.66 36.123C67.2743 36.6807 66.7922 37.0365 66.445 37.3827C66.069 37.6903 65.7411 37.8827 65.529 38.0461C65.23 38.3057 64.9504 38.4403 64.7383 38.575C64.5261 38.7096 64.3622 38.825 64.2561 38.9019C64.2272 38.9307 64.2079 38.95 64.1886 38.9596C63.9186 38.9596 63.4944 39.0557 62.7422 39.0269C62.2312 39.0269 61.2187 38.9692 60.0133 38.3538C58.8177 37.7769 57.5062 36.5461 56.5805 34.8057C56.1466 33.9308 55.8091 32.95 55.6741 31.8827C55.5391 30.8154 55.6741 29.7192 56.0502 28.6616C56.812 26.5558 58.7598 24.7577 61.0548 24.1231C62.183 23.8251 63.3979 23.7481 64.4586 24.152L65.2879 24.4404C65.5483 24.5654 65.799 24.7289 66.0497 24.8635C66.5897 25.1039 66.9754 25.527 67.4286 25.8635C69.01 27.45 69.6946 29.6616 69.4825 31.575L69.4728 31.5846Z" fill="#FFF8E3"/>
<path d="M98.7389 13.6325C98.6617 13.2286 98.5846 12.8152 98.4592 12.4209C98.3917 12.1998 98.3821 12.0652 98.2471 11.7575C98.1507 11.5459 98.0446 11.3344 97.9096 11.1325C97.3985 10.3344 96.6271 9.68056 95.7111 9.32479C95.2579 9.15172 94.7757 9.05556 94.284 9.03633C93.7922 9.02672 93.3872 9.09402 92.9533 9.12287C92.529 9.13249 92.0854 9.31518 91.6611 9.3921C91.2465 9.55556 90.8222 9.71902 90.4462 9.94979C89.6555 10.4113 89.0576 11.1132 88.6526 11.8729C88.2958 12.6613 88.1319 13.469 88.1801 14.219C88.238 15.7286 88.9033 16.9113 89.5301 17.6709C89.8387 18.0459 90.1569 18.3343 90.4172 18.5747C90.7065 18.7767 90.9283 18.9401 91.0826 19.0267C91.6129 19.2766 91.9022 19.3728 92.0951 19.3632C92.2108 19.4305 92.3554 19.4786 92.5193 19.5459C92.7025 19.6036 92.9533 19.6709 93.2811 19.7574C93.6282 19.7863 94.0429 19.892 94.5443 19.8632C94.795 19.8536 95.065 19.8632 95.3446 19.7959C95.6339 19.7478 95.9329 19.6901 96.2318 19.5555C96.8586 19.344 97.4853 18.892 97.9385 18.2574C98.411 17.642 98.6907 16.8536 98.7967 16.0651C98.9221 15.2574 98.8642 14.4305 98.7292 13.6228L98.7389 13.6325ZM96.82 17.4978C96.2607 18.3536 95.2579 18.6036 94.4768 18.6709C94.0815 18.7286 93.715 18.6709 93.4161 18.6805C93.1172 18.642 92.8858 18.6228 92.7122 18.6132C92.4036 18.5843 92.1722 18.5747 91.9986 18.5843C91.9022 18.4882 91.7865 18.3824 91.6515 18.2574C91.5358 18.142 91.3622 17.969 91.1404 17.7767C90.9476 17.5459 90.7065 17.2767 90.4751 16.9401C89.993 16.2863 89.5397 15.3055 89.5494 14.1709C89.5301 13.6132 89.694 13.0459 89.9351 12.5075C90.2437 12.0075 90.6487 11.5459 91.2176 11.2286C91.5069 11.0748 91.8058 10.9402 92.1336 10.8344C92.4808 10.7767 92.799 10.6325 93.175 10.6421C93.5415 10.6132 93.9272 10.5556 94.255 10.5652C94.5732 10.5844 94.8914 10.6517 95.1904 10.7671C95.7882 10.9979 96.3089 11.4402 96.6561 11.9882C96.7428 12.1229 96.82 12.2671 96.8778 12.4113C96.9068 12.469 96.8971 12.4402 96.9068 12.4786L96.9453 12.6132L97.0225 12.8825C97.1382 13.2286 97.2057 13.5844 97.2732 13.9305C97.3985 14.6228 97.4468 15.3151 97.3696 15.9209C97.3021 16.5459 97.1093 17.1036 96.8103 17.5074L96.82 17.4978Z" fill="#FFF8E3"/>
<path d="M97.3802 15.9109C97.3127 16.5359 97.1199 17.0936 96.821 17.4974C96.2617 18.3532 95.2588 18.6032 94.4778 18.6705C94.0824 18.7282 93.716 18.6705 93.4171 18.6801C93.1182 18.6417 92.8867 18.6224 92.7132 18.6128C92.4046 18.584 92.1732 18.5744 91.9996 18.584C91.9032 18.4878 91.7875 18.382 91.6525 18.257C91.5368 18.1417 91.3632 17.9686 91.1414 17.7763C90.9486 17.5455 90.7075 17.2763 90.4761 16.9397C89.9939 16.2859 89.5407 15.3051 89.5504 14.1705C89.5311 13.6128 89.695 13.0455 89.9361 12.5071C90.2446 12.0071 90.6496 11.5456 91.2185 11.2282C91.5078 11.0744 91.8068 10.9398 92.1346 10.834C92.4817 10.7763 92.8 10.6321 93.176 10.6417C93.5424 10.6129 93.9282 10.5552 94.256 10.5648C94.5742 10.584 94.8924 10.6513 95.1913 10.7667C95.7892 10.9975 96.3099 11.4398 96.657 11.9879C96.7438 12.1225 96.821 12.2667 96.8788 12.4109C96.9077 12.4686 96.8981 12.4398 96.9077 12.4782L96.9463 12.6129L97.0235 12.8821C97.1392 13.2282 97.2067 13.584 97.2742 13.9302C97.3995 14.6225 97.4477 15.3148 97.3706 15.9205L97.3802 15.9109Z" fill="#FFF8E3"/>
<path d="M39.9166 59.6135C39.5501 58.7866 38.9716 58.1231 38.2966 57.5269C37.612 56.9308 36.7634 56.4404 35.7991 56.2193C35.3074 56.1039 34.7866 56.0847 34.2756 56.1423C33.7549 56.1904 33.2535 56.3923 32.8388 56.6039C31.9903 56.9596 31.1514 57.6039 30.5728 58.3443C29.9749 59.0846 29.5507 59.9596 29.3385 60.8539C29.1264 61.7481 29.1167 62.6808 29.3385 63.5461C29.5603 64.4019 30.0039 65.1615 30.5246 65.748C31.6142 66.9403 32.9835 67.3827 33.9863 67.5557C35.0084 67.7288 35.7606 67.6519 36.1463 67.6134C36.2234 67.6038 36.2909 67.5846 36.3488 67.575C36.3488 67.6038 36.3777 67.6327 36.3873 67.6615C36.4741 67.7769 36.6863 67.9019 37.6505 67.2C37.9495 66.9596 38.5184 66.4692 39.0969 65.6327C39.6659 64.7961 40.3023 63.5942 40.3794 62.0365C40.418 61.2673 40.283 60.4212 39.9262 59.6231L39.9166 59.6135ZM38.0652 64.9884C37.612 65.7384 37.1684 66.2288 36.9659 66.5077C36.908 66.5846 36.8598 66.6519 36.802 66.7096C36.6188 66.6807 36.3873 66.6615 36.0788 66.6423C35.7316 66.6038 35.0566 66.5942 34.1888 66.373C33.3402 66.1615 32.2892 65.7384 31.5274 64.825C30.756 63.9404 30.3992 62.5654 30.7753 61.1904C31.1321 59.8154 32.0963 58.5462 33.5138 57.9596C34.777 57.2481 36.262 57.7385 37.3612 58.6712C37.9012 59.1423 38.3834 59.6904 38.6341 60.2481C38.9041 60.8154 39.0198 61.4404 39.0005 62.0173C38.9812 63.2096 38.5087 64.2481 38.0652 64.9981V64.9884Z" fill="#FFF8E3"/>
<path d="M38.993 62.0062C38.9737 63.1985 38.5013 64.237 38.0577 64.987C37.6045 65.737 37.1609 66.2274 36.9584 66.5062C36.9006 66.5831 36.8523 66.6504 36.7945 66.7081C36.6113 66.6793 36.3799 66.6601 36.0713 66.6408C35.7242 66.6024 35.0492 66.5928 34.1813 66.3716C33.3328 66.1601 32.2817 65.737 31.5199 64.8235C30.7485 63.9389 30.3917 62.5639 30.7678 61.1889C31.1246 59.8139 32.0889 58.5447 33.5063 57.9582C34.7695 57.2467 36.2545 57.737 37.3538 58.6697C37.8938 59.1409 38.3759 59.689 38.6266 60.2466C38.8966 60.8139 39.0123 61.4389 38.993 62.0159V62.0062Z" fill="#FFF8E3"/>
<path d="M75.2493 65.8932C75.2011 64.9221 74.9504 63.8548 74.4008 62.8644C74.2754 62.6048 74.0826 62.374 73.9283 62.1336C73.8801 62.0855 73.8318 61.9702 73.7451 61.9221L73.5715 61.7682L73.2244 61.4894C72.7904 61.0952 72.2408 60.8548 71.7105 60.5567C70.5823 60.1144 69.3576 59.9125 68.1234 59.9894C66.8891 60.0952 65.6838 60.4606 64.5941 61.0471C63.4852 61.6144 62.5402 62.5182 61.846 63.5663C61.4699 64.0759 61.2674 64.6817 61.036 65.2682C60.9203 65.8836 60.7756 66.499 60.8335 67.1144C60.8046 67.7297 60.9878 68.3067 61.1035 68.8836C61.2867 69.4413 61.4892 69.9605 61.7688 70.4413C62.2992 71.4028 62.9838 72.2586 63.8034 72.8643C64.6231 73.4797 65.5198 73.8643 66.378 74.0662C67.2459 74.2778 68.0559 74.2105 68.7501 74.1335C70.1483 73.9028 71.0258 73.3355 71.4501 73.0566C71.4694 73.0374 71.479 73.0182 71.508 73.0086C71.6719 72.9509 71.8454 72.8932 72.0479 72.797C72.5204 72.5566 73.4269 71.9509 74.1404 70.7586C74.8636 69.5855 75.3747 67.8836 75.2493 65.9028V65.8932ZM73.0797 70.172C72.6072 71.0566 72.0479 71.5374 71.7008 71.8355C71.4983 71.9316 71.2476 72.0662 70.939 72.2105C70.5244 72.3836 69.7241 72.8162 68.5669 72.922C67.998 72.9605 67.3423 72.9701 66.6577 72.7778C65.9827 72.5855 65.2788 72.2586 64.6424 71.7393C64.0059 71.2393 63.4659 70.5278 63.032 69.7105C62.6077 68.8932 62.3088 67.9701 62.3185 67.0374C62.2124 65.124 63.5624 63.3067 65.3559 62.3355C66.2623 61.8644 67.2652 61.5663 68.2776 61.4702C69.2901 61.4221 70.2833 61.5855 71.1608 61.9221C71.5755 62.1625 72.019 62.3355 72.3565 62.6528C72.5108 62.7971 72.7615 62.9413 72.8001 63.0375C72.9158 63.2202 73.0797 63.3644 73.1665 63.5759C73.5811 64.3452 73.8222 65.2009 73.8801 66.0278C74.0247 67.6913 73.6197 69.1817 73.0797 70.172Z" fill="#FFF8E3"/>
<path d="M73.0796 70.1703C72.6071 71.0549 72.0478 71.5357 71.7007 71.8338C71.4982 71.9299 71.2475 72.0645 70.9389 72.2088C70.5243 72.3818 69.7239 72.8145 68.5668 72.9203C67.9979 72.9588 67.3422 72.9684 66.6576 72.7761C65.9826 72.5838 65.2787 72.2568 64.6422 71.7376C64.0058 71.2376 63.4658 70.5261 63.0319 69.7088C62.6076 68.8915 62.3087 67.9684 62.3183 67.0357C62.2123 65.1223 63.5623 63.305 65.3558 62.3338C66.2622 61.8627 67.2651 61.5646 68.2775 61.4685C69.29 61.4204 70.2832 61.5838 71.1607 61.9204C71.5753 62.1608 72.0189 62.3338 72.3564 62.6511C72.5107 62.7954 72.7614 62.9396 72.8 63.0358C72.9157 63.2184 73.0796 63.3627 73.1664 63.5742C73.581 64.3434 73.8221 65.1992 73.8799 66.0261C74.0246 67.6896 73.6196 69.1799 73.0796 70.1703Z" fill="#FFF8E3"/>
<path d="M105.142 45.036C105.084 43.8629 104.814 42.6226 104.207 41.4495C104.043 41.161 103.888 40.8533 103.705 40.5841C103.503 40.3245 103.291 40.0553 103.078 39.7957C102.645 39.286 102.134 38.786 101.536 38.4014C100.34 37.6034 98.8936 37.1322 97.4279 37.1034C95.9718 37.0457 94.5061 37.3149 93.1561 37.8726C92.4715 38.1322 91.8351 38.4976 91.2276 38.8918C90.919 39.0937 90.6298 39.3053 90.3308 39.5553C90.0319 39.8245 89.7812 40.1033 89.5594 40.4014C88.6434 41.6226 88.2094 43.1033 88.1709 44.5168C88.1323 45.9398 88.4794 47.3341 89.1448 48.4975C89.8005 49.6417 90.6394 50.584 91.5651 51.3052C93.4069 52.7571 95.4511 53.4013 97.0807 53.4783C97.2832 53.4975 97.4761 53.4975 97.6689 53.4975C97.7654 53.4975 97.8521 53.4975 97.9486 53.4879C98.0257 53.4975 98.1993 53.4783 98.2668 53.459C98.4982 53.4206 98.7103 53.3629 98.9032 53.3052C98.9418 53.3533 99.0286 53.3821 99.231 53.3821C99.5107 53.3821 100.031 53.3244 100.909 52.9398C101.449 52.6513 102.548 52.036 103.483 50.6898C104.409 49.3725 105.21 47.3918 105.123 45.036H105.142ZM102.481 50.0456C102.259 50.411 102.008 50.709 101.767 50.9687C101.574 50.9687 101.121 51.1802 99.9543 51.7571C99.4528 51.959 98.4982 52.5263 97.1482 52.3052C95.75 52.161 93.9758 51.5456 92.4137 50.2379C91.623 49.5937 90.9287 48.7571 90.3887 47.8052C89.868 46.8533 89.6076 45.7187 89.6462 44.5552C89.6944 43.4014 90.0608 42.2187 90.784 41.3053C91.4397 40.4207 92.6354 39.7572 93.7733 39.2764C96.0875 38.3149 98.8453 38.3534 100.735 39.661C100.986 39.8053 101.179 40.0072 101.401 40.1803C101.613 40.3822 101.806 40.5937 102.008 40.7956C102.191 41.0168 102.365 41.238 102.538 41.4591C102.702 41.6899 102.828 41.9303 102.972 42.161C103.474 43.1226 103.715 44.1706 103.773 45.161C103.888 47.1706 103.233 48.911 102.49 50.0648L102.481 50.0456Z" fill="#FFF8E3"/>
<path d="M102.481 50.0461C102.259 50.4115 102.008 50.7095 101.767 50.9691C101.574 50.9691 101.121 51.1807 99.9544 51.7576C99.453 51.9595 98.4983 52.5268 97.1483 52.3057C95.7501 52.1614 93.9759 51.5461 92.4138 50.2384C91.6231 49.5942 90.9288 48.7576 90.3888 47.8057C89.8681 46.8538 89.6078 45.7192 89.6463 44.5557C89.6945 43.4019 90.061 42.2192 90.7842 41.3057C91.4399 40.4211 92.6356 39.7577 93.7734 39.2769C96.0876 38.3154 98.8455 38.3538 100.735 39.6615C100.986 39.8058 101.179 40.0077 101.401 40.1808C101.613 40.3827 101.806 40.5942 102.008 40.7961C102.191 41.0173 102.365 41.2384 102.539 41.4596C102.703 41.6904 102.828 41.9307 102.973 42.1615C103.474 43.123 103.715 44.1711 103.773 45.1615C103.889 47.1711 103.233 48.9115 102.49 50.0653L102.481 50.0461Z" fill="#FFF8E3"/>
<path d="M128.024 25.3537C127.927 25.1422 127.84 24.9306 127.744 24.7191C127.638 24.5076 127.503 24.3153 127.368 24.1133C127.098 23.7095 126.809 23.4114 126.471 23.0749C125.816 22.4018 124.899 21.873 124.012 21.5749C123.405 21.3537 122.942 21.3826 122.441 21.3826C121.949 21.3826 121.476 21.4403 120.994 21.5364C120.512 21.6326 120.011 21.7768 119.538 22.0268C119.123 22.2383 118.699 22.4883 118.304 22.7768C117.513 23.3537 116.809 24.1806 116.491 25.171C116.327 25.6614 116.269 26.171 116.298 26.6518C116.298 26.9018 116.337 27.1229 116.366 27.3633L116.443 27.6998L116.462 27.7672V27.9018C116.578 28.7768 116.838 29.6133 117.272 30.3248C117.706 31.0364 118.304 31.5941 118.911 31.9498C119.442 32.2575 120.011 32.5748 120.512 32.7383C121.534 33.1133 122.412 33.1229 122.836 33.046C123.357 32.9498 123.675 32.7864 123.858 32.6325C123.974 32.6133 124.099 32.5748 124.253 32.5364C124.629 32.3921 125.391 32.1037 126.211 31.3729C126.992 30.6421 127.898 29.5171 128.197 27.9018C128.352 27.1133 128.323 26.2191 128.033 25.3345L128.024 25.3537ZM126.828 27.7191C126.654 28.9306 125.951 29.8921 125.362 30.5268C124.726 31.171 124.138 31.4787 123.848 31.6614C123.501 31.8633 123.27 31.9979 123.116 32.0941C123.009 32.0941 122.894 32.094 122.768 32.0844C122.441 32.0556 121.785 31.9883 120.946 31.6133C120.522 31.4306 120.097 31.171 119.586 30.8441C119.162 30.5364 118.747 30.1325 118.458 29.6037C118.169 29.0748 117.976 28.4306 117.908 27.7287L117.889 27.5556L117.851 27.3633L117.802 27.1133C117.783 26.9402 117.754 26.7672 117.764 26.6037C117.764 26.2576 117.793 25.9306 117.908 25.6133C118.13 24.9883 118.603 24.4306 119.23 23.9787C119.538 23.7576 119.885 23.546 120.261 23.3633C120.57 23.2095 120.936 23.0941 121.322 23.0172C121.717 22.9403 122.122 22.8922 122.518 22.8826C122.913 22.8826 123.308 22.8826 123.549 22.998C124.321 23.2576 124.928 23.6133 125.478 24.1518C125.738 24.4114 126.037 24.7095 126.22 24.9787C126.307 25.1229 126.404 25.2479 126.481 25.4018L126.683 25.8537C126.895 26.4691 126.934 27.1133 126.828 27.7095V27.7191Z" fill="#FFF8E3"/>
<path d="M126.828 27.7183C126.654 28.9299 125.95 29.8914 125.362 30.526C124.726 31.1702 124.137 31.4779 123.848 31.6606C123.501 31.8625 123.27 31.9972 123.115 32.0933C123.009 32.0933 122.894 32.0933 122.768 32.0837C122.44 32.0549 121.785 31.9875 120.946 31.6125C120.521 31.4299 120.097 31.1702 119.586 30.8433C119.162 30.5356 118.747 30.1318 118.458 29.6029C118.169 29.0741 117.976 28.4299 117.908 27.728L117.889 27.5549L117.85 27.3626L117.802 27.1126C117.783 26.9395 117.754 26.7664 117.764 26.603C117.764 26.2568 117.793 25.9299 117.908 25.6126C118.13 24.9876 118.603 24.4299 119.229 23.978C119.538 23.7568 119.885 23.5453 120.261 23.3626C120.57 23.2088 120.936 23.0934 121.322 23.0164C121.717 22.9395 122.122 22.8915 122.517 22.8818C122.913 22.8818 123.308 22.8818 123.549 22.9972C124.321 23.2568 124.928 23.6126 125.478 24.1511C125.738 24.4107 126.037 24.7087 126.22 24.978C126.307 25.1222 126.404 25.2472 126.481 25.4011L126.683 25.853C126.895 26.4684 126.934 27.1126 126.828 27.7087V27.7183Z" fill="#FFF8E3"/>
<path d="M125.055 85.411C124.833 84.3245 124.351 83.2379 123.599 82.2956C122.866 81.3437 121.786 80.6033 120.648 80.1803C120.098 79.9399 119.471 79.7476 118.797 79.7091C118.141 79.6707 117.475 79.7476 116.858 79.9303C116.241 80.113 115.663 80.3822 115.132 80.7283C114.862 80.9014 114.612 81.0745 114.371 81.2764C114.139 81.488 113.956 81.6226 113.724 81.8053C112.837 82.5168 111.883 83.3533 111.343 84.536C110.417 87.036 111.294 89.3244 112.374 90.959C113.541 92.5648 115.065 93.6033 116.424 93.9686C117.099 94.1802 117.707 94.209 118.218 94.2283C118.71 94.1609 119.115 94.1609 119.365 94.0456C120.079 93.8436 120.445 93.5744 120.658 93.3917C121.111 93.2571 121.583 92.9686 122.133 92.6706C123.29 91.9398 124.524 90.5167 125.006 88.5552C125.219 87.5745 125.296 86.4975 125.074 85.4014L125.055 85.411ZM123.637 88.2764C123.271 89.8629 122.326 91.036 121.4 91.6898C120.436 92.3725 119.664 92.584 119.259 92.6417C118.662 92.7379 118.334 92.661 118.122 92.661C117.909 92.6417 117.823 92.6898 117.765 92.7763C117.726 92.834 117.697 92.9206 117.852 93.0744C117.745 93.0552 117.649 93.0552 117.543 93.0263C117.292 92.9975 117.051 92.8821 116.772 92.8148C115.692 92.4494 114.448 91.536 113.512 90.161C113.059 89.4591 112.702 88.6418 112.529 87.7475C112.336 86.8822 112.403 85.8629 112.712 85.1129C113.098 84.3245 113.85 83.6226 114.708 82.9495C115.19 82.5841 115.547 82.2379 115.981 81.988C116.405 81.7187 116.868 81.5072 117.331 81.3726C118.285 81.1033 119.201 81.161 120.146 81.5841C121.082 81.9495 121.911 82.4976 122.499 83.2476C123.097 83.9879 123.483 84.8533 123.676 85.7283C123.869 86.6129 123.811 87.4879 123.656 88.2764H123.637Z" fill="#FFF8E3"/>
<path d="M123.636 88.2762C123.27 89.8628 122.325 91.0358 121.399 91.6897C120.435 92.3724 119.664 92.5839 119.259 92.6416C118.661 92.7377 118.333 92.6608 118.121 92.6608C117.909 92.6416 117.822 92.6897 117.764 92.7762C117.725 92.8339 117.697 92.9204 117.851 93.0743C117.745 93.0551 117.648 93.0551 117.542 93.0262C117.292 92.9974 117.05 92.882 116.771 92.8147C115.691 92.4493 114.447 91.5358 113.512 90.1608C113.058 89.4589 112.702 88.6416 112.528 87.7474C112.335 86.882 112.403 85.8628 112.711 85.1128C113.097 84.3243 113.849 83.6224 114.707 82.9493C115.189 82.584 115.546 82.2378 115.98 81.9878C116.404 81.7186 116.867 81.5071 117.33 81.3724C118.285 81.1032 119.201 81.1609 120.146 81.584C121.081 81.9494 121.91 82.4974 122.499 83.2474C123.096 83.9878 123.482 84.8532 123.675 85.7282C123.868 86.6128 123.81 87.4878 123.656 88.2762H123.636Z" fill="#FFF8E3"/>
<path d="M81.3534 100.382C80.8134 98.9496 79.4248 97.8342 77.9013 97.4881C76.3778 97.1227 74.6131 97.5169 73.4946 98.6323C72.9353 99.1708 72.511 99.9111 72.4146 100.671C72.3182 101.411 72.4146 102.103 72.6171 102.7C73.4946 105.065 75.2206 106.017 75.7992 106.238C76.2428 106.392 76.532 106.392 76.696 106.363C76.7635 106.344 76.802 106.325 76.8406 106.286C77.1781 106.401 77.7663 106.498 78.5281 106.334C78.9716 106.248 79.4248 106.026 79.8781 105.728C80.312 105.392 80.7459 104.978 81.0834 104.43C81.4016 103.882 81.6427 103.228 81.7102 102.526C81.768 101.805 81.6427 101.065 81.3534 100.373V100.382ZM79.8781 103.757C79.4441 104.536 78.7595 105.007 78.2002 105.171C77.6217 105.353 77.1492 105.325 76.9081 105.286C76.5417 105.286 76.3103 105.219 76.1367 105.248C76.1367 105.248 76.1303 105.248 76.1174 105.248C75.886 105.075 75.5485 104.805 75.1628 104.382C74.6999 103.873 74.1889 103.151 73.9189 102.248C73.6682 101.353 73.7453 100.325 74.5264 99.6707C75.2688 98.9592 76.4645 98.69 77.5638 98.9592C78.6631 99.2188 79.6081 99.9688 79.9841 100.959C80.1866 101.459 80.2734 101.95 80.2541 102.43C80.2155 102.921 80.0709 103.363 79.8588 103.757H79.8781Z" fill="#FFF8E3"/>
<path d="M80.2732 102.43C80.2346 102.92 80.09 103.363 79.8779 103.757C79.4439 104.536 78.7593 105.007 78.2 105.17C77.6215 105.353 77.149 105.324 76.9079 105.286C76.5415 105.286 76.3101 105.218 76.1365 105.247C76.1365 105.247 76.1301 105.247 76.1172 105.247C75.8858 105.074 75.5483 104.805 75.1626 104.382C74.6997 103.872 74.1887 103.151 73.9187 102.247C73.668 101.353 73.7451 100.324 74.5262 99.6702C75.2686 98.9587 76.4643 98.6895 77.5636 98.9587C78.6629 99.2183 79.6079 99.9683 79.9839 100.959C80.1864 101.459 80.2732 101.949 80.2539 102.43H80.2732Z" fill="#FFF8E3"/>
<g style="mix-blend-mode:multiply" opacity="0.22">
<path d="M108.816 4.8353C112.143 5.75837 115.094 6.85452 117.61 7.94105C122.422 9.98911 125.729 12.0276 127.465 13.0372C128.767 13.7487 129.712 14.4025 130.483 14.8833C131.245 15.3545 131.814 15.691 132.229 15.9122C132.277 15.9314 132.315 15.9602 132.364 15.9795C132.364 15.9795 132.441 16.066 132.47 16.0852C133.28 16.8833 134.813 18.2198 137.002 20.9217C138.41 22.691 141.032 26.2294 143.308 31.7005C144.436 34.4409 145.468 37.6332 146.278 41.2293C146.288 41.2581 146.297 41.287 146.297 41.3158C145.15 42.1812 143.964 43.0658 142.739 43.9408C139.547 46.2389 136.086 48.5562 132.393 50.8735C132.286 46.8927 131.833 42.9408 131.139 39.0851C130.483 35.4409 129.355 32.1332 127.851 29.0082C126.597 26.3832 125.074 23.8833 123.338 21.4217C122.711 20.5179 122.056 19.6141 121.361 18.7102C117.9 14.1814 113.657 8.74874 108.797 4.82568L108.816 4.8353Z" fill="#8AABFF"/>
</g>
<g style="mix-blend-mode:multiply" opacity="0.22">
<path d="M142.19 80.3344C140.069 84.8921 137.33 89.3247 134.003 93.3439C130.648 97.3535 126.675 100.921 122.268 103.815C121.719 104.171 121.188 104.565 120.61 104.902L118.874 105.873C117.726 106.536 116.531 107.123 115.345 107.719C112.963 108.902 110.543 109.969 108.084 110.94C103.185 112.882 98.2 114.401 93.2436 115.517C83.3502 117.728 73.6304 118.228 65.1352 117.276C64.0841 117.132 63.0331 117.046 62.0399 116.863C61.0467 116.671 60.0631 116.43 59.1085 116.161C57.1992 115.632 55.396 114.998 53.6989 114.296C50.324 112.882 47.3926 111.238 44.9819 109.546C42.4845 107.815 40.6523 105.978 39.2734 104.353C42.0216 104.786 45.088 106.152 47.0455 106.652C50.6229 107.546 54.0943 108.95 57.7103 109.69C64.383 111.026 71.4994 109.7 78.0853 108.363C90.3605 105.863 103.484 100.7 113.705 92.4593C117.428 89.4689 120.764 86.0651 123.531 82.2382C125.142 80.0171 126.569 77.6421 127.765 75.1325C130.079 70.2671 131.438 65.0364 132.027 59.6807C133.502 58.7384 134.958 57.7865 136.395 56.8153C137.803 55.8634 139.201 54.9211 140.599 53.9788C141.997 53.0461 143.318 52.0461 144.659 51.0846C145.623 50.3827 146.606 49.7 147.551 48.998C147.58 49.3057 147.609 49.6134 147.638 49.9211C147.686 50.4403 147.725 50.9596 147.773 51.4692C147.831 51.9884 147.86 52.5269 147.841 53.0461C148.091 61.5268 146.491 71.2094 142.171 80.3248L142.19 80.3344Z" fill="#8AABFF"/>
</g>
</svg>
