<svg width="125" height="87" viewBox="0 0 125 87" fill="none" xmlns="http://www.w3.org/2000/svg">
<path d="M124.868 13.4417C124.654 12.4546 124.121 11.5641 123.451 10.8945C122.78 10.2111 121.984 9.72791 121.175 9.41728C119.557 8.74769 117.911 8.65104 116.438 8.69246C110.663 8.92026 106.5 9.87287 104.356 10.4044C101.216 11.2259 99.5146 11.9024 98.5809 12.2889C98.2351 12.4477 97.9931 12.5581 97.834 12.6548C97.1217 12.0266 96.5684 11.6262 96.1603 11.3639C96.1188 11.3432 96.0912 11.3225 96.0566 11.2949C96.0566 11.2949 96.052 11.2926 96.0428 11.288C96.0428 11.288 95.9943 11.2397 95.9667 11.219C95.7108 10.9981 95.3443 10.6943 94.8186 10.2801C94.2861 9.86597 93.6153 9.31373 92.6539 8.71317C91.4298 7.90552 89.0646 6.34545 85.5513 4.78537C82.0587 3.20459 77.4043 1.6238 71.8854 0.954213C71.5396 0.912795 71.2007 0.850668 70.848 0.816153L69.7898 0.754027C69.0775 0.705706 68.3582 0.664288 67.6252 0.615967C66.8921 0.615967 66.1521 0.629773 65.3982 0.636676C65.0248 0.636676 64.6444 0.636676 64.264 0.636676C63.8836 0.664288 63.5102 0.698803 63.1229 0.726415C62.3621 0.788541 61.5875 0.843765 60.8129 0.905892C60.0384 1.01634 59.2569 1.14059 58.4684 1.25104C58.0812 1.31317 57.6731 1.36149 57.2858 1.43052C56.8916 1.51336 56.4974 1.60309 56.1032 1.68593C55.3148 1.86541 54.5125 2.01727 53.7241 2.21056C52.1542 2.66615 50.5289 3.05272 48.9659 3.64638C48.1844 3.9294 47.3753 4.17791 46.6007 4.50235C45.8261 4.81989 45.0446 5.14433 44.2631 5.46186C41.1371 6.6975 37.9903 8.22996 35.1133 10.1283C33.6679 11.074 32.2916 12.1371 30.9707 13.2484C29.6635 14.3736 28.4256 15.5747 27.2706 16.8242C24.9814 19.3507 22.9551 22.0359 21.2607 24.8524C19.4971 27.6481 18.3421 30.7061 17.5883 33.6882C17.1664 35.1792 16.9866 36.6841 16.7653 38.1337C16.6477 39.5971 16.5094 41.0191 16.5509 42.4136C16.5094 43.808 16.6616 45.1402 16.7238 46.438C16.793 47.08 16.8898 47.7081 16.9659 48.3225C17.0489 48.9438 17.118 49.5443 17.2425 50.1311C17.4154 51.0216 17.5676 51.8914 17.7612 52.7197C17.5745 52.7611 17.2356 52.8716 16.6547 53.1408C15.6518 53.6033 13.9159 54.5007 11.0942 56.3783C10.1813 56.9996 8.85347 57.9246 7.25589 59.2223C6.46056 59.8712 5.58915 60.6167 4.69007 61.4934C3.79792 62.377 2.85735 63.371 2.04127 64.6205C1.63323 65.2486 1.26668 65.9596 1.05229 66.788C0.948549 67.2022 0.900137 67.6578 0.948549 68.1203C0.962381 68.355 1.04537 68.5828 1.1007 68.8175C1.1422 68.9348 1.19752 69.0384 1.24593 69.1488C1.30818 69.2386 1.33584 69.3973 1.47416 69.5285C2.13117 70.1843 2.78819 70.6813 3.55586 71.1645C4.32353 71.6201 5.13961 72.0067 6.01102 72.3242C9.49665 73.5667 13.5079 73.7462 17.6575 73.4563C20.3132 73.263 23.045 72.8626 25.8321 72.2897C25.9497 72.5037 26.0949 72.7246 26.2332 72.9593C26.6759 73.6772 27.3398 74.7057 28.3357 75.9207C29.3108 77.1494 30.7217 78.5024 32.4922 79.8001C34.2765 81.0841 36.4412 82.3266 38.9447 83.3966C40.1965 83.9281 41.5382 84.4182 42.9629 84.8186C43.6752 85.0119 44.4083 85.1983 45.176 85.3501C45.9368 85.4744 46.7044 85.5641 47.4859 85.6746C53.7379 86.3994 60.8683 86.0542 68.1162 84.4389C71.7401 83.6313 75.3918 82.5268 78.9742 81.0979C80.7654 80.3869 82.5428 79.6068 84.2857 78.7371C85.1571 78.2953 86.0285 77.8673 86.8791 77.3703L88.1586 76.6593L89.3827 75.8378C92.6747 73.6634 95.614 70.9919 98.0968 68.0167C100.566 65.0208 102.571 61.7212 104.127 58.3387C104.321 57.9177 104.515 57.4897 104.708 57.0686C104.895 56.6475 105.04 56.2057 105.206 55.7777C105.365 55.3498 105.525 54.9218 105.684 54.4938C105.856 54.0727 106.002 53.6447 106.119 53.2029C106.368 52.3331 106.624 51.4703 106.866 50.6143C107.06 49.7514 107.247 48.8817 107.426 48.0326C108.049 44.6018 108.305 41.2608 108.173 38.0992C108.111 36.8497 107.994 35.6279 107.841 34.4544C108.623 33.8539 109.397 33.2464 110.165 32.6527C111.998 31.279 113.699 29.8294 115.38 28.4488C117.067 27.0751 118.686 25.6738 120.159 24.169C121.618 22.671 122.904 21.0212 123.796 19.2126C124.253 18.3152 124.578 17.3833 124.827 16.41C125.034 15.4298 125.083 14.4219 124.875 13.4279L124.868 13.4417ZM17.9963 46.2378C17.9341 44.9884 17.8027 43.6837 17.858 42.3376C17.8234 40.9915 17.9894 39.6247 18.1001 38.2096C18.3283 36.8152 18.515 35.3725 18.93 33.9505C19.0199 33.5915 19.1098 33.2326 19.1997 32.8667C19.3104 32.5078 19.4418 32.1557 19.5663 31.8037C19.6977 31.4447 19.8152 31.0858 19.9466 30.7337L20.1334 30.1953C20.2025 30.0158 20.2924 29.8432 20.3685 29.6706C20.6866 28.9734 21.0048 28.2693 21.3298 27.5583C21.724 26.8818 22.1113 26.2053 22.5055 25.5219C25.8598 20.11 30.3551 14.9328 35.9847 11.3018C38.7926 9.4656 41.7941 7.99526 44.8994 6.77343C45.6739 6.45589 46.4416 6.13836 47.2093 5.81392C47.97 5.50328 48.7585 5.26168 49.5261 4.98556C51.0546 4.3988 52.6314 4.03295 54.1598 3.57045C60.3565 2.05179 66.4771 1.59619 71.8231 2.27959C77.183 2.90086 81.7268 4.3988 85.1571 5.88295C88.6081 7.35328 90.9734 8.81672 92.2252 9.54153C93.1588 10.0524 93.8366 10.5218 94.3898 10.86C94.9431 11.1982 95.3443 11.4399 95.6416 11.5986C95.6762 11.6124 95.7039 11.6331 95.7385 11.6538C95.7385 11.6538 95.7869 11.7091 95.8145 11.7298C96.4024 12.2958 97.4951 13.2622 99.0719 15.202C100.082 16.4721 101.963 19.0124 103.595 22.9471C104.404 24.9076 105.151 27.2063 105.725 29.7811C105.725 29.8018 105.739 29.8225 105.732 29.8432C104.909 30.4645 104.058 31.0996 103.18 31.7277C98.5602 35.0619 93.1242 38.4719 87.1904 41.7094C81.2565 44.9608 74.8661 48.0878 68.4067 51.0837C65.17 52.5679 61.9541 54.0934 58.7174 55.4809C55.4946 56.9029 52.3202 58.3042 49.2149 59.671C43.0113 62.3563 37.0359 64.6895 31.5723 66.2979C28.9512 67.0779 26.4407 67.6923 24.1239 68.1479L24.0755 68.0927C24.0409 67.9546 23.9925 67.7751 23.9095 67.5404C23.6674 66.857 23.1626 65.6697 22.3672 63.5919C21.8554 62.232 20.8319 59.6503 19.8222 56.0193C19.5524 55.122 19.3242 54.1486 19.096 53.1132C18.8332 52.0846 18.6672 50.9871 18.4528 49.8481C18.3352 49.2751 18.2868 48.6815 18.2038 48.0809C18.1347 47.4804 18.0378 46.866 17.9963 46.2378ZM100.559 15.5333C100.663 15.5333 100.787 15.5471 100.946 15.5402C101.928 15.5333 106.437 14.8499 110.919 14.0906C113.146 13.7109 115.352 13.4279 117.116 13.4624C118.658 13.4624 119.834 13.704 120.415 13.8076C120.442 13.8628 120.463 13.918 120.484 13.9802C120.581 14.2839 120.657 14.6566 120.608 15.0501C120.567 15.4436 120.421 15.9061 120.159 16.3755C119.827 16.9899 119.156 17.8182 118.139 18.8191C117.641 19.33 117.095 19.8822 116.5 20.4966C116.196 20.8003 115.885 21.1178 115.566 21.4423C115.228 21.7598 114.875 22.0843 114.515 22.4225C112.454 24.4106 109.868 26.6609 106.839 29.0149C106.23 26.5367 105.462 24.3139 104.632 22.4087C103.263 19.254 101.721 16.983 100.566 15.5402L100.559 15.5333ZM23.7712 68.2169C21.3921 68.6587 19.2066 68.9348 17.2702 69.0522C13.3488 69.3352 10.4649 68.9624 8.97796 68.7692C8.4316 68.6863 7.94748 68.6173 7.51178 68.5483C7.08299 68.4654 6.70261 68.3895 6.37756 68.3205C6.17009 68.2859 5.99027 68.2514 5.82429 68.2169C5.82429 68.2031 5.80354 68.1962 5.79662 68.1824C5.76896 68.1617 5.72747 68.1203 5.6998 68.0996C5.6998 68.0858 5.70672 68.0582 5.7413 68.0167C5.80354 67.9408 5.79662 67.9546 5.80354 67.927C5.81046 67.8856 5.81737 67.782 5.85887 67.782C5.99027 67.3886 6.28766 66.2703 7.28355 65.0761C8.23795 63.868 9.8217 62.6048 11.44 61.3761C14.4623 59.0567 17.7681 57.1583 18.7433 56.4749C19.8429 60.1128 20.9356 62.6876 21.5442 64.0199C22.4295 65.9734 23.0588 67.0848 23.4461 67.7199C23.5775 67.9408 23.6882 68.0996 23.7781 68.21L23.7712 68.2169ZM102.779 57.8486C101.257 61.1276 99.2932 64.3029 96.9072 67.1884C94.5005 70.0669 91.6442 72.6279 88.4906 74.7057C88.0963 74.9611 87.716 75.2442 87.3079 75.4858L86.0631 76.183C85.2401 76.6593 84.3825 77.0804 83.5318 77.5083C81.8236 78.3643 80.0877 79.1305 78.331 79.8277C74.8177 81.2152 71.2422 82.3128 67.6943 83.1067C60.5986 84.7013 53.6204 85.0533 47.5343 84.3699C46.7805 84.2733 46.0267 84.1973 45.3074 84.08C44.5951 83.935 43.8965 83.7694 43.2119 83.5761C41.8425 83.1964 40.5492 82.7408 39.332 82.2369C36.9114 81.2221 34.809 80.0417 33.08 78.8268C29.6151 76.4108 27.9069 73.7324 26.9594 72.4139C26.8902 72.3104 26.828 72.2138 26.7588 72.1171C28.0175 71.841 29.297 71.5235 30.5834 71.1783C32.7757 70.5432 35.0096 69.9013 37.2849 69.2455C39.5464 68.5276 41.8563 67.8511 44.1663 67.0641C53.4198 63.9785 63.0191 60.2923 72.2865 55.8606C81.5469 51.4427 90.5446 46.4311 98.6432 40.9777C99.6529 40.2943 100.663 39.6178 101.659 38.9414C102.654 38.2718 103.609 37.5539 104.57 36.8636C105.269 36.3596 105.96 35.8626 106.645 35.3656C106.666 35.5865 106.686 35.8074 106.707 36.0283C106.735 36.3941 106.769 36.7669 106.797 37.1397C106.832 37.5124 106.859 37.8921 106.845 38.2718C107.025 44.3671 105.877 51.3115 102.779 57.8624V57.8486ZM123.561 16.265C123.333 17.0934 123.015 17.9425 122.586 18.7639C121.742 20.3999 120.532 21.9255 119.114 23.3544C117.697 24.7833 116.099 26.1501 114.405 27.51C112.724 28.8768 111.03 30.3057 109.211 31.6587C108.678 32.066 108.153 32.4733 107.613 32.8874C107.24 33.1705 106.859 33.4604 106.486 33.7572C106.479 33.7572 106.465 33.771 106.458 33.7848C105.525 34.4475 104.591 35.124 103.65 35.8005C101.755 37.2018 99.7566 38.5203 97.751 39.8664C89.687 45.2576 80.7447 50.2139 71.5396 54.6042C62.3275 59.0014 52.7835 62.6669 43.5923 65.7526C41.2962 66.5326 39.0001 67.216 36.7524 67.9339C34.4909 68.5966 32.2708 69.2455 30.0854 69.8805C28.7022 70.2602 27.326 70.5984 25.9635 70.8953C25.68 70.9574 25.4033 71.0126 25.1267 71.0679C22.4917 71.6063 19.9121 71.986 17.4223 72.1723C13.3903 72.4692 9.52432 72.2828 6.31532 71.13C5.51307 70.8332 4.77306 70.4811 4.08839 70.0738C3.74951 69.8598 3.42446 69.6458 3.12707 69.3973C2.968 69.28 2.82277 69.1695 2.68445 69.0315C2.5738 68.921 2.37323 68.7554 2.37323 68.7346C2.0966 68.2583 2.06202 67.5957 2.24183 66.9675C2.41473 66.3324 2.73286 65.7249 3.09249 65.1589C3.83941 64.0268 4.72465 63.0604 5.57531 62.2044C6.42598 61.3484 7.26972 60.6098 8.03047 59.9679C9.57273 58.6701 10.8591 57.7313 11.7374 57.0893C14.3171 55.2186 15.9354 54.2177 16.8483 53.6171C17.3601 53.2858 17.6644 53.0856 17.8234 52.9613C17.858 53.1339 17.8995 53.3134 17.9479 53.4859C18.0793 54.0037 18.2038 54.5145 18.3214 55.0115C18.3698 55.191 18.4251 55.3705 18.4735 55.543C17.6091 55.7984 13.8744 57.6968 10.5617 60.244C8.91571 61.5003 7.2628 62.8395 6.23233 64.3029C5.16036 65.7388 4.90447 67.1884 4.94596 67.6716C4.94596 67.8373 4.98054 67.9546 5.02204 68.0513C4.98054 68.0374 4.94596 68.0305 4.90447 68.0236C4.21979 67.8925 4.05381 67.9339 4.01923 68.0236C3.99156 68.0996 4.06764 68.2031 4.71774 68.4861C5.04279 68.6242 5.49924 68.8313 6.18392 69.0246C6.5228 69.1281 6.91701 69.2455 7.36654 69.3697C7.823 69.4733 8.34169 69.5906 8.91571 69.7149C10.4372 69.991 13.4111 70.4397 17.4431 70.205C19.4833 70.1083 21.7863 69.8391 24.2829 69.3904C24.4973 69.3559 24.7117 69.3145 24.9261 69.28C27.1738 68.852 29.5667 68.279 32.0565 67.5473C37.603 65.9458 43.6476 63.6195 49.8927 60.9343C52.9979 59.5744 56.1862 58.18 59.4159 56.7649C62.6526 55.3774 65.8962 53.8449 69.1397 52.3608C75.6131 49.3511 82.038 46.1895 87.9926 42.8968C93.9541 39.6247 99.4108 36.1456 104.065 32.7356C104.743 32.2386 105.393 31.7484 106.036 31.2514C106.417 30.9615 106.79 30.6716 107.164 30.3747C110.442 27.8137 113.215 25.3563 115.394 23.1818C115.753 22.8367 116.106 22.4984 116.438 22.174C116.756 21.8357 117.067 21.5044 117.365 21.1938C117.952 20.5656 118.499 19.9857 118.983 19.468C119.965 18.4464 120.691 17.4869 121.037 16.7137C121.3 16.1546 121.431 15.6024 121.452 15.0777C121.466 14.6014 121.362 14.1941 121.231 13.8559C121.445 13.8352 121.535 13.7593 121.583 13.6419C121.639 13.4969 121.597 13.3175 120.906 12.9447C120.809 12.8895 120.67 12.8343 120.511 12.7721C120.511 12.7721 120.511 12.7698 120.511 12.7652C120.332 12.5927 120.145 12.4684 119.972 12.3856C119.571 12.1854 119.273 12.2061 119.107 12.2268C118.976 12.2544 118.914 12.2958 118.9 12.3372C118.388 12.2475 117.8 12.1716 117.157 12.1301C115.255 12.0059 112.925 12.2751 110.677 12.6617C106.188 13.421 101.721 14.277 100.787 14.6221C100.421 14.7602 100.234 14.8775 100.144 14.9811C99.9987 14.8154 99.8673 14.6566 99.7428 14.5186C99.148 13.8628 98.6155 13.3382 98.1452 12.9033C98.2904 12.8757 98.4841 12.8274 98.7123 12.7652C99.6805 12.5236 101.437 11.9783 104.702 11.2742C106.832 10.8324 110.954 9.98332 116.618 9.83146C117.987 9.80384 119.474 9.95571 120.836 10.5563C122.22 11.1154 123.388 12.2751 123.679 13.8145C123.831 14.5876 123.741 15.416 123.568 16.2512L123.561 16.265Z" fill="#3B2900"/>
<path d="M105.728 29.7747C105.154 27.1999 104.407 24.9012 103.598 22.9339C101.966 19.0061 100.085 16.4658 99.0749 15.1956C97.498 13.2559 96.4053 12.2895 95.8244 11.7234C95.7967 11.7027 95.7691 11.6751 95.7483 11.6544C95.7483 11.6544 95.6861 11.613 95.6515 11.5992C95.3541 11.4404 94.953 11.1988 94.3997 10.8606C93.8464 10.5223 93.1687 10.0529 92.235 9.53518C90.9901 8.81036 88.618 7.34693 85.1669 5.87659C83.3619 5.09655 81.2387 4.30961 78.8596 3.64693C76.7226 3.05327 74.378 2.57006 71.8399 2.27323C66.4939 1.58984 60.3664 2.04543 54.1766 3.56409C52.6412 4.02659 51.0644 4.39245 49.5429 4.9792C48.7752 5.25532 47.9868 5.49693 47.2191 5.80756C46.4584 6.132 45.6838 6.44264 44.9092 6.76708C41.804 7.98891 38.8024 9.45924 35.9946 11.2954C30.365 14.9264 25.8696 20.1037 22.5154 25.5156C22.1212 26.1921 21.7339 26.8755 21.3397 27.5451C21.0146 28.2561 20.6965 28.9602 20.3784 29.6643C20.3023 29.8369 20.2124 30.0025 20.1432 30.182L19.9565 30.7204C19.832 31.0794 19.7075 31.4384 19.5761 31.7973C19.4516 32.1494 19.3133 32.5014 19.2096 32.8535C19.1197 33.2193 19.0229 33.5783 18.9399 33.9372C18.5318 35.3593 18.3451 36.802 18.1099 38.1964C17.9993 39.6115 17.8333 40.9852 17.8679 42.3313C17.8056 43.6774 17.937 44.9751 17.9993 46.2315C18.0477 46.8665 18.1445 47.4809 18.2137 48.0746C18.2898 48.6751 18.3382 49.2757 18.4557 49.8417C18.6632 50.9807 18.8361 52.0852 19.0989 53.1068C19.3272 54.1423 19.5554 55.1156 19.8251 56.013C20.8279 59.6371 21.8584 62.2188 22.3633 63.5856C23.1655 65.6565 23.6704 66.8438 23.9124 67.5272C23.9954 67.7619 24.0438 67.9483 24.0784 68.0794L24.1268 68.1346C26.4506 67.679 28.9541 67.0647 31.5753 66.2846C37.0389 64.6762 43.0143 62.343 49.2179 59.6578C52.3231 58.291 55.4975 56.8897 58.7204 55.4608C61.957 54.0802 65.1729 52.5477 68.4096 51.0636C74.876 48.0608 81.2594 44.9337 87.2002 41.6824C90.1948 40.0464 93.0649 38.369 95.7691 36.6777C98.4179 35.0141 100.901 33.3505 103.19 31.7007C104.068 31.0656 104.912 30.4305 105.742 29.8162C105.742 29.7954 105.742 29.7747 105.728 29.754V29.7747ZM28.8366 47.2876C28.4216 47.8882 28.0136 48.2402 27.7992 48.4128C27.1076 48.9167 26.9554 48.827 26.9001 48.7442C26.8932 48.7234 26.8724 48.7027 26.8724 48.6889C26.824 48.6958 26.7756 48.7027 26.7272 48.7165C26.4506 48.7442 25.9042 48.7925 25.178 48.6751C24.4588 48.5509 23.4767 48.2333 22.6952 47.3774C22.3218 46.9563 22.0036 46.4109 21.8446 45.7966C21.6924 45.1753 21.6993 44.5057 21.8446 43.8637C21.9967 43.2218 22.301 42.6005 22.7298 42.069C23.1448 41.5374 23.7534 41.068 24.355 40.8195C24.6455 40.6677 25.0121 40.5227 25.3855 40.4882C25.759 40.4468 26.1255 40.4606 26.4852 40.5434C27.1767 40.7091 27.7853 41.0542 28.2764 41.4822C28.7536 41.9102 29.1685 42.3865 29.4383 42.9802C29.6942 43.5531 29.791 44.1675 29.7633 44.7197C29.7149 45.838 29.2515 46.7009 28.8435 47.3014L28.8366 47.2876ZM43.4984 28.5115C42.4402 28.0559 41.3129 27.0757 40.5245 25.6606C40.1511 24.9495 39.8468 24.135 39.7084 23.2376C39.577 22.3402 39.6739 21.36 39.9851 20.4281C40.6352 18.5712 42.2812 17.0318 44.2591 16.4727C45.2343 16.1966 46.3339 16.1275 47.316 16.4865L48.0283 16.7419C48.2565 16.8454 48.464 16.9766 48.6853 17.1009C49.1349 17.3148 49.4876 17.6738 49.868 17.9775C51.265 19.3719 51.8182 21.3186 51.6108 22.9132C51.4586 24.5354 50.7394 25.84 49.9994 26.6546C49.2732 27.5037 48.5332 27.8971 48.1666 28.0904C47.8831 28.2492 47.6341 28.3182 47.4335 28.3734C47.2745 28.4149 47.15 28.4425 47.0601 28.4632C47.0393 28.477 47.0117 28.4977 46.9771 28.5184C46.8111 28.6219 46.493 28.8152 45.8567 28.905C45.4348 28.9809 44.5358 28.9878 43.4845 28.5184L43.4984 28.5115ZM53.976 50.9669C53.4642 51.8298 52.8072 52.2647 52.4753 52.4303C52.33 52.4925 52.1986 52.5408 52.088 52.5822C52.0672 52.5891 52.0603 52.6098 52.0465 52.6167C51.7422 52.8238 51.1128 53.2242 50.11 53.3899C49.6121 53.4451 49.0311 53.4934 48.4087 53.3346C47.8001 53.1897 47.15 52.9205 46.5621 52.4787C45.9743 52.0369 45.4832 51.4225 45.1029 50.7322C44.9023 50.394 44.7571 50.0143 44.6257 49.6139C44.5358 49.1998 44.4113 48.7856 44.432 48.3438C44.3905 47.9089 44.5012 47.4602 44.5773 47.0184C44.7432 46.5904 44.8885 46.1693 45.1582 45.7966C45.6561 45.0372 46.3339 44.3953 47.1292 43.988C47.9107 43.5738 48.7822 43.3046 49.6674 43.2287C50.5457 43.1734 51.431 43.3115 52.2401 43.6359C52.6205 43.8568 53.0147 44.0225 53.319 44.3055L53.568 44.5057L53.6925 44.6162C53.7547 44.6507 53.7893 44.7335 53.8239 44.768C53.9345 44.9406 54.0728 45.1063 54.1628 45.2927C54.557 46.0106 54.7299 46.763 54.7714 47.4671C54.8613 48.8891 54.4878 50.1109 53.976 50.9531V50.9669ZM64.0387 10.3911C64.0041 9.85271 64.1286 9.26596 64.3776 8.70682C64.6681 8.16839 65.0969 7.65756 65.664 7.32622C65.9337 7.16055 66.2311 7.0432 66.5285 6.92585C66.8397 6.86372 67.1509 6.73256 67.4552 6.73256C67.7664 6.70495 68.0638 6.65663 68.4165 6.67044C68.7692 6.68424 69.115 6.75327 69.4401 6.87753C70.0971 7.12603 70.6504 7.60234 71.0169 8.17529C71.1068 8.32025 71.1898 8.47212 71.259 8.61708C71.3489 8.83798 71.3558 8.93462 71.4111 9.09339C71.501 9.37641 71.5563 9.67324 71.6117 9.96316C71.7085 10.543 71.75 11.1367 71.6601 11.7165C71.584 12.2895 71.3834 12.8486 71.0446 13.2973C70.7126 13.746 70.2631 14.0773 69.8135 14.2292C69.5991 14.3259 69.3847 14.3673 69.1773 14.4018C68.9767 14.4501 68.7831 14.4363 68.6032 14.4432C68.2367 14.4639 67.9462 14.3949 67.6903 14.3742C67.4621 14.312 67.2754 14.2568 67.144 14.2154C67.0264 14.1671 66.9227 14.1326 66.8397 14.0842C66.7083 14.0842 66.4939 14.0221 66.1204 13.8426C66.0098 13.7736 65.8438 13.6563 65.6432 13.5113C65.4496 13.3456 65.2213 13.1316 65 12.8624C64.5505 12.3171 64.0733 11.468 64.0318 10.3842L64.0387 10.3911ZM75.0351 36.5673C74.3642 37.5406 73.5758 37.9755 73.1885 38.1826C72.5592 38.4656 72.1788 38.5001 71.9851 38.507C71.833 38.507 71.7777 38.4863 71.75 38.4449C71.6048 38.4932 71.4595 38.5277 71.2935 38.5553C71.2451 38.5691 71.1206 38.5899 71.0653 38.576C70.9962 38.583 70.9339 38.583 70.8647 38.583C70.7264 38.583 70.5881 38.583 70.4429 38.5691C69.2672 38.5139 67.8079 38.0514 66.487 37.0091C65.823 36.4913 65.2213 35.8149 64.7511 34.9934C64.2739 34.165 64.0249 33.1572 64.0525 32.1356C64.0802 31.1139 64.3914 30.0578 65.0484 29.1811C65.2144 28.9602 65.3942 28.76 65.6017 28.5667C65.8161 28.3872 66.0236 28.2354 66.2449 28.0904C66.6806 27.8074 67.1371 27.5451 67.6281 27.3587C68.5894 26.9514 69.6475 26.7581 70.6918 26.7996C71.7431 26.8203 72.7805 27.1585 73.6311 27.7315C74.0599 28.0076 74.4265 28.3734 74.7377 28.7324C74.8967 28.9188 75.042 29.1121 75.1872 29.2984C75.3186 29.4917 75.4224 29.7057 75.5468 29.9197C75.9825 30.7619 76.1762 31.6593 76.2177 32.4945C76.2799 34.1857 75.7059 35.6147 75.042 36.5535L75.0351 36.5673ZM91.3152 22.713C90.7342 23.2376 90.1879 23.4447 89.9113 23.5482C89.8006 23.5759 89.7038 23.6035 89.6277 23.6173C89.4963 23.7208 89.2681 23.8382 88.8877 23.9141C88.5903 23.9693 87.961 23.9624 87.2279 23.7001C86.8752 23.5759 86.4533 23.355 86.0798 23.1272C85.6441 22.8648 85.2153 22.4714 84.9041 21.9675C84.5929 21.4497 84.4062 20.8492 84.337 20.221L84.3232 20.1175V20.0691L84.2609 19.8275C84.2402 19.6619 84.2056 19.5031 84.2125 19.3236C84.1918 18.9785 84.2333 18.6126 84.3508 18.2606C84.5791 17.5426 85.0908 16.949 85.651 16.5417C85.9346 16.3277 86.2389 16.162 86.5363 16.0033C86.8752 15.8169 87.2348 15.7134 87.5806 15.6512C87.9264 15.5822 88.2653 15.5408 88.618 15.5408C88.8324 15.5408 89.0468 15.5339 89.275 15.5684C89.4271 15.5822 89.5793 15.6236 89.7453 15.6788C90.3815 15.8928 91.0386 16.2725 91.5088 16.7557C91.7509 16.9904 91.9584 17.2044 92.152 17.4943C92.2419 17.6393 92.3388 17.7773 92.4217 17.9292C92.484 18.088 92.5462 18.2398 92.6154 18.3848C92.8229 19.013 92.8367 19.655 92.733 20.2279C92.6845 20.5109 92.6085 20.7732 92.5047 21.0079C92.2073 21.7604 91.7301 22.3126 91.3083 22.713H91.3152Z" fill="#BF89FF"/>
<path d="M106.844 38.2582C106.857 37.8785 106.837 37.4989 106.795 37.1261C106.761 36.7534 106.733 36.3806 106.698 36.0147C106.678 35.7938 106.657 35.5798 106.636 35.3521C105.958 35.8491 105.26 36.3461 104.561 36.85C103.6 37.5403 102.652 38.2582 101.65 38.9278C100.647 39.6043 99.644 40.2877 98.6343 40.9642C97.6038 41.6614 96.5595 42.3448 95.5014 43.0213C88.2396 47.6808 80.3555 51.9952 72.2707 55.8401C63.0034 60.2718 53.411 63.958 44.1505 67.0437C41.8406 67.8375 39.5307 68.5071 37.2761 69.225C34.9938 69.8877 32.7669 70.5228 30.5676 71.1647C29.2812 71.5099 28.0018 71.8274 26.75 72.0967C26.8192 72.1933 26.8814 72.2968 26.9506 72.3935C27.4001 73.0355 28.0433 73.995 28.9769 75.0856C29.959 76.2453 31.2799 77.5638 33.0712 78.8133C34.7932 80.0282 36.9026 81.2086 39.3232 82.2233C40.5404 82.7342 41.8337 83.1898 43.203 83.5625C43.8877 83.7627 44.5931 83.9284 45.3055 84.0664C46.0178 84.1907 46.7717 84.2597 47.5255 84.3633C53.6184 85.0467 60.5897 84.6946 67.6855 83.1C71.2333 82.2993 74.8158 81.2086 78.3291 79.8142C80.0927 79.117 81.8216 78.3508 83.5368 77.5017C84.3875 77.0737 85.245 76.6526 86.068 76.1763L87.3129 75.4791C87.7209 75.2375 88.1013 74.9545 88.5024 74.6991C91.663 72.6282 94.5124 70.0603 96.9191 67.1817C99.3121 64.2963 101.269 61.114 102.791 57.842C105.889 51.298 107.037 44.3466 106.857 38.2582H106.844ZM52.7332 72.4418C52.8024 71.8965 53.1067 71.3718 53.5078 70.9853C54.31 70.1776 55.5756 69.9015 56.6684 70.1638C57.768 70.4054 58.7639 71.2062 59.1443 72.2347C59.3448 72.7248 59.4417 73.2633 59.4002 73.7741C59.3448 74.2849 59.1789 74.7543 58.9506 75.1409C58.7155 75.5343 58.3974 75.8312 58.093 76.0728C57.768 76.2868 57.436 76.4455 57.1248 76.5077C56.5785 76.625 56.1566 76.556 55.9145 76.4731C55.8869 76.5008 55.8592 76.5146 55.8108 76.5284C55.7001 76.5491 55.4927 76.5491 55.1676 76.4317C54.7527 76.273 53.5147 75.5896 52.8853 73.8914C52.747 73.4634 52.664 72.9664 52.7401 72.4349L52.7332 72.4418ZM90.4389 63.7509C90.1 65.1592 89.2079 66.1808 88.378 66.7054C87.9837 66.9125 87.6518 67.1196 87.3198 67.2162C87.1677 67.3474 86.9118 67.5338 86.4 67.6925C86.2202 67.7685 85.9297 67.7754 85.577 67.8237C85.2174 67.8099 84.7748 67.7892 84.2906 67.6373C83.6613 67.4647 82.9835 67.0989 82.3542 66.5467C82.0084 66.2498 81.6764 65.884 81.379 65.4767C80.6044 64.3032 79.9751 62.6534 80.639 60.8586C81.0332 60.0095 81.711 59.409 82.3473 58.8981C82.5202 58.767 82.6377 58.6703 82.8106 58.5185C82.9835 58.3804 83.1633 58.2493 83.357 58.125C83.7374 57.8834 84.1523 57.6901 84.5949 57.5521C85.0445 57.4278 85.5217 57.3657 85.992 57.3933C86.4761 57.4209 86.9256 57.5659 87.3198 57.7384C88.1152 58.0284 88.8759 58.5461 89.3946 59.2088C89.4084 59.2226 89.4292 59.2364 89.4361 59.2571C89.9686 59.9336 90.3213 60.7067 90.4804 61.4937C90.6395 62.2806 90.5841 63.0468 90.4251 63.7509H90.4389Z" fill="#BF89FF"/>
<path d="M123.563 16.2653C123.335 17.0936 123.017 17.9427 122.588 18.7642C121.745 20.4002 120.534 21.9257 119.116 23.3546C117.699 24.7836 116.101 26.1504 114.407 27.5102C112.726 28.877 111.032 30.306 109.213 31.6589C108.68 32.0662 108.155 32.4735 107.615 32.8877C107.242 33.1707 106.861 33.4606 106.488 33.7574C106.481 33.7574 106.467 33.7712 106.46 33.7851C105.527 34.4477 104.593 35.1242 103.652 35.8007C101.757 37.202 99.7587 38.5205 97.7531 39.8666C89.6891 45.2578 80.7468 50.2142 71.5417 54.6045C62.3297 59.0017 52.7857 62.6672 43.5944 65.7528C41.2983 66.5328 39.0022 67.2162 36.7545 67.9341C34.493 68.5968 32.273 69.2457 30.0875 69.8808C28.7044 70.2604 27.3281 70.5987 25.9656 70.8955C25.6821 70.9577 25.4055 71.0129 25.1288 71.0681C22.4938 71.6065 19.9142 71.9862 17.4245 72.1726C13.3925 72.4694 9.52645 72.283 6.31745 71.1302C5.5152 70.8334 4.77519 70.4813 4.09052 70.0741C3.75164 69.8601 3.42659 69.6461 3.1292 69.3976C2.97013 69.2802 2.8249 69.1698 2.68658 69.0317C2.57593 68.9213 2.37536 68.7556 2.37536 68.7349C2.09873 68.2586 2.06415 67.5959 2.24396 66.9677C2.41686 66.3327 2.73499 65.7252 3.09462 65.1591C3.84154 64.0271 4.72678 63.0606 5.57744 62.2047C6.4281 61.3487 7.27185 60.6101 8.0326 59.9681C9.57486 58.6703 10.8612 57.7315 11.7395 57.0895C14.3192 55.2188 15.9375 54.2179 16.8504 53.6173C17.3622 53.286 17.6665 53.0858 17.8256 52.9616C17.8602 53.1341 17.9017 53.3136 17.9501 53.4862C18.0815 54.0039 18.206 54.5147 18.3235 55.0117C18.3719 55.1912 18.4273 55.3707 18.4757 55.5433C17.6112 55.7987 13.8766 57.697 10.5638 60.2442C8.91784 61.5006 7.26493 62.8397 6.23446 64.3032C5.16249 65.739 4.9066 67.1886 4.94809 67.6718C4.94809 67.8375 4.98267 67.9549 5.02417 68.0515C4.98267 68.0377 4.94809 68.0308 4.9066 68.0239C4.22192 67.8927 4.05594 67.9341 4.02136 68.0239C3.99369 68.0998 4.06977 68.2034 4.71987 68.4864C5.04492 68.6244 5.50137 68.8315 6.18605 69.0248C6.52493 69.1284 6.91914 69.2457 7.36867 69.37C7.82513 69.4735 8.34382 69.5909 8.91784 69.7151C10.4394 69.9912 13.4132 70.4399 17.4452 70.2052C19.4854 70.1086 21.7884 69.8394 24.2851 69.3907C24.4995 69.3562 24.7139 69.3147 24.9282 69.2802C27.1759 68.8522 29.5688 68.2793 32.0586 67.5476C37.6052 65.9461 43.6497 63.6198 49.8948 60.9345C53.0001 59.5746 56.1883 58.1802 59.418 56.7651C62.6547 55.3776 65.8983 53.8451 69.1419 52.361C75.6152 49.3513 82.0401 46.1897 87.9947 42.897C93.9563 39.625 99.4129 36.1459 104.067 32.7358C104.745 32.2388 105.395 31.7487 106.038 31.2517C106.419 30.9617 106.792 30.6718 107.166 30.375C110.444 27.814 113.217 25.3565 115.396 23.1821C115.755 22.8369 116.108 22.4987 116.44 22.1742C116.758 21.836 117.069 21.5046 117.367 21.194C117.955 20.5658 118.501 19.986 118.985 19.4683C119.967 18.4466 120.693 17.4871 121.039 16.714C121.302 16.1548 121.433 15.6026 121.454 15.078C121.468 14.6017 121.364 14.1944 121.233 13.8561C121.447 13.8354 121.537 13.7595 121.585 13.6421C121.641 13.4972 121.599 13.3177 120.908 12.9449C120.811 12.8897 120.673 12.8345 120.513 12.7724C120.513 12.7724 120.513 12.7701 120.513 12.7655C120.334 12.5929 120.147 12.4686 119.974 12.3858C119.573 12.1856 119.276 12.2063 119.11 12.227C118.978 12.2546 118.916 12.2961 118.902 12.3375C118.39 12.2477 117.802 12.1718 117.159 12.1304C115.257 12.0061 112.927 12.2753 110.679 12.6619C106.191 13.4212 101.723 14.2772 100.789 14.6224C100.423 14.7604 100.236 14.8778 100.146 14.9813C100.001 14.8156 99.8694 14.6569 99.7449 14.5188C99.1501 13.863 98.6176 13.3384 98.1473 12.9035C98.2926 12.8759 98.4862 12.8276 98.7144 12.7655C99.6827 12.5239 101.439 11.9785 104.704 11.2744C106.834 10.8326 110.956 9.98355 116.62 9.83169C117.989 9.80407 119.476 9.95594 120.839 10.5565C122.222 11.1156 123.391 12.2753 123.681 13.8147C123.833 14.5878 123.743 15.4162 123.57 16.2515L123.563 16.2653Z" fill="#FFC82B"/>
<path d="M49.8728 17.9692C49.4924 17.6655 49.1397 17.3066 48.6902 17.0926C48.4689 16.9752 48.2614 16.8372 48.0332 16.7336L47.3208 16.4782C46.3388 16.1192 45.2322 16.1883 44.264 16.4575C42.2791 17.0235 40.64 18.556 39.983 20.4198C39.6718 21.3517 39.5819 22.325 39.7064 23.2293C39.8447 24.1267 40.149 24.9413 40.5225 25.6592C41.3109 27.0743 42.4313 28.0614 43.4894 28.5101C44.5406 28.9864 45.4397 28.9726 45.8616 28.8967C46.4978 28.8138 46.8091 28.6137 46.982 28.5101C47.0165 28.4894 47.0373 28.4756 47.058 28.4549C47.1549 28.4342 47.2724 28.4066 47.4384 28.3651C47.6321 28.3099 47.8879 28.2478 48.1646 28.0821C48.538 27.8888 49.2711 27.4954 50.0042 26.6463C50.7373 25.8248 51.4635 24.5271 51.6156 22.9049C51.8162 21.3103 51.2629 19.3636 49.8728 17.9692ZM49.3265 26.1079C49.0498 26.5082 48.704 26.7637 48.4551 27.0122C48.1853 27.2331 47.9502 27.3711 47.798 27.4885C47.5836 27.6748 47.3831 27.7715 47.2309 27.8681C47.0788 27.9648 46.9612 28.0476 46.8851 28.1028C46.8644 28.1235 46.8506 28.1373 46.8367 28.1443C46.6431 28.1443 46.3388 28.2133 45.7993 28.1926C45.4328 28.1926 44.7066 28.1512 43.8421 27.7094C42.9845 27.2952 42.044 26.4116 41.38 25.1622C41.0688 24.534 40.8268 23.8299 40.7299 23.0637C40.6331 22.2974 40.7299 21.5105 40.9997 20.7511C41.546 19.2394 42.943 17.9485 44.589 17.4929C45.3982 17.2789 46.2696 17.2237 47.0304 17.5136L47.6251 17.7207C47.8119 17.8105 47.9917 17.9278 48.1715 18.0245C48.5588 18.197 48.8354 18.5008 49.1605 18.7424C50.2947 19.8814 50.7857 21.4691 50.6336 22.8428C50.5298 24.2234 49.942 25.3554 49.3334 26.101L49.3265 26.1079Z" fill="#FFF8E3"/>
<path d="M50.6248 22.8507C50.521 24.2313 49.9332 25.3634 49.3246 26.1089C49.0479 26.5093 48.7021 26.7647 48.4532 27.0132C48.1834 27.2341 47.9483 27.3722 47.7961 27.4895C47.5817 27.6759 47.3812 27.7726 47.229 27.8692C47.0769 27.9659 46.9593 28.0487 46.8832 28.1039C46.8625 28.1246 46.8487 28.1384 46.8348 28.1453C46.6412 28.1453 46.3369 28.2144 45.7974 28.1937C45.4309 28.1937 44.7047 28.1522 43.8402 27.7104C42.9826 27.2963 42.0421 26.4127 41.3781 25.1632C41.0669 24.5351 40.8249 23.831 40.728 23.0647C40.6312 22.2985 40.728 21.5116 40.9978 20.7522C41.5441 19.2405 42.9411 17.9496 44.5871 17.494C45.3963 17.28 46.2677 17.2248 47.0285 17.5147L47.6232 17.7218C47.81 17.8116 47.9898 17.9289 48.1696 18.0256C48.5569 18.1981 48.8335 18.5019 49.1586 18.7435C50.2928 19.8825 50.7838 21.4701 50.6317 22.8438L50.6248 22.8507Z" fill="#FFF8E3"/>
<path d="M71.6179 9.96265C71.5626 9.67273 71.5073 9.3759 71.4174 9.09287C71.369 8.93411 71.362 8.83746 71.2652 8.61657C71.1961 8.4647 71.12 8.31284 71.0232 8.16787C70.6566 7.59493 70.1033 7.12552 69.4463 6.87011C69.1213 6.74586 68.7755 6.67683 68.4228 6.66302C68.0701 6.65612 67.7796 6.70444 67.4684 6.72515C67.1641 6.73205 66.8459 6.86321 66.5416 6.91843C66.2442 7.03578 65.9399 7.15313 65.6702 7.31881C65.1031 7.65015 64.6743 8.15407 64.3839 8.6994C64.128 9.26545 64.0104 9.8453 64.045 10.3837C64.0865 11.4675 64.5637 12.3166 65.0132 12.8619C65.2345 13.1311 65.4627 13.3382 65.6495 13.5108C65.857 13.6557 66.016 13.7731 66.1267 13.8352C66.5071 14.0147 66.7145 14.0837 66.8529 14.0768C66.9358 14.1252 67.0396 14.1597 67.1572 14.208C67.2886 14.2494 67.4684 14.2977 67.7035 14.3599C67.9525 14.3806 68.2499 14.4565 68.6095 14.4358C68.7893 14.4289 68.983 14.4358 69.1835 14.3875C69.391 14.353 69.6054 14.3115 69.8198 14.2149C70.2693 14.063 70.7189 13.7386 71.0439 13.283C71.3828 12.8412 71.5834 12.2752 71.6594 11.7091C71.7493 11.1293 71.7078 10.5356 71.611 9.95575L71.6179 9.96265ZM70.2417 12.7377C69.8405 13.352 69.1213 13.5315 68.5611 13.5798C68.2775 13.6212 68.0147 13.5798 67.8003 13.5867C67.5859 13.5591 67.42 13.5453 67.2955 13.5384C67.0742 13.5177 66.9082 13.5108 66.7837 13.5177C66.7145 13.4487 66.6315 13.3727 66.5347 13.283C66.4517 13.2002 66.3272 13.0759 66.1682 12.9378C66.0299 12.7722 65.857 12.5789 65.691 12.3373C65.3452 11.8679 65.0201 11.1638 65.027 10.3492C65.0132 9.94885 65.1308 9.54157 65.3037 9.155C65.525 8.79605 65.8155 8.4647 66.2235 8.2369C66.431 8.12646 66.6454 8.02981 66.8805 7.95388C67.1295 7.91246 67.3577 7.80892 67.6274 7.81582C67.8902 7.79511 68.1669 7.75369 68.402 7.7606C68.6302 7.7744 68.8585 7.82272 69.0729 7.90556C69.5017 8.07123 69.8751 8.38877 70.1241 8.78224C70.1863 8.87888 70.2417 8.98243 70.2832 9.08597C70.3039 9.12739 70.297 9.10668 70.3039 9.13429L70.3316 9.23093L70.3869 9.42422C70.4699 9.67273 70.5183 9.92814 70.5667 10.1766C70.6566 10.6737 70.6912 11.1707 70.6359 11.6056C70.5875 12.0543 70.4491 12.4546 70.2347 12.7446L70.2417 12.7377Z" fill="#FFF8E3"/>
<path d="M70.6403 11.5983C70.5919 12.047 70.4536 12.4474 70.2392 12.7373C69.838 13.3517 69.1188 13.5312 68.5586 13.5795C68.275 13.6209 68.0122 13.5795 67.7978 13.5864C67.5834 13.5588 67.4175 13.545 67.293 13.5381C67.0717 13.5174 66.9057 13.5105 66.7812 13.5174C66.712 13.4484 66.629 13.3724 66.5322 13.2827C66.4492 13.1998 66.3247 13.0756 66.1657 12.9375C66.0273 12.7719 65.8545 12.5786 65.6885 12.337C65.3427 11.8676 65.0176 11.1635 65.0245 10.3489C65.0107 9.94854 65.1283 9.54126 65.3012 9.15469C65.5225 8.79574 65.813 8.46439 66.221 8.23659C66.4285 8.12615 66.6429 8.0295 66.878 7.95357C67.127 7.91215 67.3552 7.80861 67.6249 7.81551C67.8877 7.7948 68.1644 7.75339 68.3995 7.76029C68.6277 7.77409 68.856 7.82242 69.0704 7.90525C69.4992 8.07092 69.8726 8.38846 70.1216 8.78193C70.1838 8.87857 70.2392 8.98212 70.2807 9.08566C70.3014 9.12708 70.2945 9.10637 70.3014 9.13398L70.3291 9.23062L70.3844 9.42391C70.4674 9.67242 70.5158 9.92783 70.5642 10.1763C70.6541 10.6733 70.6887 11.1704 70.6334 11.6053L70.6403 11.5983Z" fill="#FFF8E3"/>
<path d="M29.4262 42.9731C29.1634 42.3794 28.7484 41.9031 28.2643 41.4751C27.7733 41.0472 27.1647 40.6951 26.4731 40.5363C26.1203 40.4535 25.7469 40.4397 25.3803 40.4811C25.0069 40.5156 24.6473 40.6606 24.3499 40.8125C23.7413 41.0679 23.1396 41.5304 22.7246 42.0619C22.2958 42.5934 21.9915 43.2216 21.8394 43.8636C21.6872 44.5056 21.6803 45.1751 21.8394 45.7964C21.9984 46.4108 22.3166 46.9561 22.69 47.3772C23.4715 48.2332 24.4536 48.5507 25.1729 48.675C25.906 48.7992 26.4454 48.744 26.722 48.7164C26.7774 48.7095 26.8258 48.6957 26.8673 48.6888C26.8673 48.7095 26.888 48.7302 26.8949 48.7509C26.9572 48.8337 27.1093 48.9235 27.8009 48.4195C28.0153 48.247 28.4234 47.8949 28.8383 47.2944C29.2464 46.6938 29.7028 45.8309 29.7581 44.7126C29.7858 44.1604 29.689 43.5529 29.4331 42.98L29.4262 42.9731ZM28.0983 46.8319C27.7733 47.3703 27.4551 47.7223 27.3099 47.9225C27.2684 47.9778 27.2338 48.0261 27.1923 48.0675C27.0609 48.0468 26.8949 48.033 26.6736 48.0192C26.4246 47.9916 25.9405 47.9847 25.3181 47.8259C24.7095 47.674 23.9557 47.3703 23.4093 46.7145C22.856 46.0794 22.6001 45.0923 22.8699 44.1052C23.1257 43.1181 23.8173 42.2069 24.834 41.7858C25.74 41.275 26.805 41.627 27.5934 42.2966C27.9807 42.6348 28.3265 43.0283 28.5063 43.4287C28.7 43.836 28.783 44.2847 28.7692 44.6988C28.7553 45.5548 28.4164 46.3003 28.0983 46.8388V46.8319Z" fill="#FFF8E3"/>
<path d="M28.7651 44.6908C28.7513 45.5468 28.4124 46.2923 28.0943 46.8308C27.7692 47.3692 27.4511 47.7212 27.3059 47.9214C27.2644 47.9766 27.2298 48.025 27.1883 48.0664C27.0569 48.0457 26.8909 48.0319 26.6696 48.0181C26.4206 47.9905 25.9365 47.9836 25.3141 47.8248C24.7055 47.6729 23.9516 47.3692 23.4053 46.7134C22.852 46.0783 22.5961 45.0912 22.8658 44.1041C23.1217 43.1169 23.8133 42.2058 24.83 41.7847C25.736 41.2738 26.801 41.6259 27.5894 42.2955C27.9767 42.6337 28.3225 43.0272 28.5023 43.4276C28.696 43.8349 28.779 44.2836 28.7651 44.6977V44.6908Z" fill="#FFF8E3"/>
<path d="M54.7707 47.4814C54.7361 46.7842 54.5563 46.0179 54.1621 45.3069C54.0721 45.1206 53.9338 44.9549 53.8232 44.7823C53.7886 44.7478 53.754 44.665 53.6918 44.6304L53.5673 44.52L53.3183 44.3198C53.0071 44.0368 52.6129 43.8642 52.2325 43.6502C51.4233 43.3327 50.545 43.1877 49.6598 43.2429C48.7745 43.3189 47.91 43.5812 47.1285 44.0023C46.3332 44.4095 45.6554 45.0584 45.1575 45.8109C44.8878 46.1767 44.7425 46.6116 44.5766 47.0327C44.4936 47.4745 44.3898 47.9163 44.4313 48.3581C44.4106 48.7999 44.542 49.214 44.625 49.6282C44.7564 50.0286 44.9016 50.4013 45.1022 50.7465C45.4825 51.4368 45.9736 52.0512 46.5614 52.486C47.1493 52.9278 47.7925 53.204 48.408 53.3489C49.0304 53.5008 49.6114 53.4525 50.1093 53.3972C51.1121 53.2316 51.7415 52.8243 52.0458 52.6241C52.0596 52.6103 52.0665 52.5965 52.0873 52.5896C52.2048 52.5482 52.3293 52.5068 52.4746 52.4377C52.8134 52.2652 53.4635 51.8303 53.9753 50.9743C54.494 50.1321 54.8606 48.9103 54.7707 47.4883V47.4814ZM53.2146 50.5532C52.8757 51.1883 52.4746 51.5334 52.2256 51.7474C52.0804 51.8165 51.9005 51.9131 51.6792 52.0166C51.3818 52.1409 50.8078 52.4515 49.9779 52.5275C49.5699 52.5551 49.0996 52.562 48.6085 52.4239C48.1244 52.2859 47.6196 52.0512 47.1631 51.6784C46.7067 51.3194 46.3194 50.8086 46.0082 50.2219C45.7039 49.6351 45.4895 48.9724 45.4964 48.3028C45.4203 46.9291 46.3885 45.6245 47.6749 44.9273C48.325 44.589 49.0443 44.375 49.7704 44.306C50.4966 44.2715 51.2089 44.3888 51.8383 44.6304C52.1357 44.803 52.4538 44.9273 52.6959 45.1551C52.8065 45.2586 52.9863 45.3622 53.014 45.4312C53.097 45.5623 53.2146 45.6659 53.2768 45.8178C53.5742 46.37 53.7471 46.9844 53.7886 47.578C53.8923 48.7722 53.6019 49.8422 53.2146 50.5532Z" fill="#FFF8E3"/>
<path d="M53.2146 50.552C52.8757 51.187 52.4746 51.5322 52.2256 51.7462C52.0804 51.8152 51.9005 51.9118 51.6792 52.0154C51.3818 52.1396 50.8078 52.4503 49.9779 52.5262C49.5699 52.5538 49.0996 52.5607 48.6086 52.4227C48.1244 52.2846 47.6196 52.0499 47.1631 51.6771C46.7067 51.3182 46.3194 50.8074 46.0082 50.2206C45.7039 49.6339 45.4895 48.9712 45.4964 48.3016C45.4203 46.9279 46.3885 45.6232 47.6749 44.926C48.325 44.5878 49.0443 44.3738 49.7704 44.3048C50.4966 44.2702 51.209 44.3876 51.8383 44.6292C52.1357 44.8018 52.4538 44.926 52.6959 45.1538C52.8065 45.2574 52.9863 45.3609 53.014 45.4299C53.097 45.5611 53.2146 45.6646 53.2768 45.8165C53.5742 46.3687 53.7471 46.9831 53.7886 47.5768C53.8923 48.771 53.6019 49.8409 53.2146 50.552Z" fill="#FFF8E3"/>
<path d="M76.2054 32.5076C76.1639 31.6654 75.9702 30.7749 75.5345 29.9328C75.417 29.7257 75.3063 29.5048 75.1749 29.3115C75.0297 29.1251 74.8775 28.9318 74.7254 28.7455C74.4142 28.3796 74.0476 28.0207 73.6188 27.7445C72.7612 27.1716 71.7239 26.8333 70.6726 26.8126C69.6283 26.7712 68.5771 26.9645 67.6089 27.3649C67.1178 27.5512 66.6614 27.8136 66.2257 28.0966C66.0044 28.2415 65.7969 28.3934 65.5825 28.5729C65.3681 28.7662 65.1883 28.9664 65.0292 29.1804C64.3722 30.057 64.061 31.1201 64.0333 32.1348C64.0057 33.1565 64.2546 34.1574 64.7318 34.9927C65.2021 35.8141 65.8038 36.4906 66.4677 37.0083C67.7887 38.0507 69.2549 38.5132 70.4237 38.5684C70.5689 38.5822 70.7072 38.5822 70.8455 38.5822C70.9147 38.5822 70.9769 38.5822 71.0461 38.5753C71.1014 38.5822 71.2259 38.5684 71.2743 38.5546C71.4403 38.527 71.5925 38.4856 71.7308 38.4442C71.7584 38.4787 71.8207 38.4994 71.9659 38.4994C72.1665 38.4994 72.5399 38.458 73.1693 38.1819C73.5566 37.9748 74.345 37.533 75.0158 36.5666C75.6798 35.6208 76.2538 34.1988 76.1916 32.5076H76.2054ZM74.2966 36.1041C74.1375 36.3664 73.9577 36.5804 73.7848 36.7667C73.6465 36.7667 73.3214 36.9186 72.4846 37.3328C72.125 37.4777 71.4403 37.885 70.4721 37.7263C69.4693 37.6227 68.1967 37.1809 67.0763 36.2421C66.5092 35.7796 66.0113 35.1791 65.624 34.4957C65.2505 33.8123 65.0638 32.9977 65.0915 32.1624C65.126 31.3341 65.3889 30.485 65.9076 29.8292C66.3778 29.1942 67.2354 28.7179 68.0515 28.3727C69.7113 27.6824 71.6893 27.71 73.0448 28.6488C73.2246 28.7524 73.3629 28.8973 73.522 29.0216C73.6742 29.1665 73.8125 29.3184 73.9577 29.4634C74.0891 29.6221 74.2136 29.7809 74.3381 29.9397C74.4557 30.1054 74.5456 30.2779 74.6493 30.4436C75.0089 31.1339 75.1818 31.8863 75.2233 32.5973C75.3063 34.0401 74.836 35.2895 74.3035 36.1179L74.2966 36.1041Z" fill="#FFF8E3"/>
<path d="M74.3016 36.1043C74.1425 36.3666 73.9627 36.5806 73.7898 36.767C73.6515 36.767 73.3264 36.9189 72.4896 37.333C72.1299 37.478 71.4453 37.8853 70.477 37.7265C69.4742 37.623 68.2017 37.1812 67.0813 36.2424C66.5142 35.7799 66.0163 35.1793 65.629 34.4959C65.2555 33.8125 65.0688 32.998 65.0964 32.1627C65.131 31.3343 65.3938 30.4853 65.9125 29.8295C66.3828 29.1944 67.2404 28.7181 68.0565 28.373C69.7163 27.6827 71.6942 27.7103 73.0498 28.6491C73.2296 28.7526 73.3679 28.8976 73.527 29.0218C73.6791 29.1668 73.8174 29.3187 73.9627 29.4636C74.0941 29.6224 74.2186 29.7812 74.3431 29.9399C74.4606 30.1056 74.5505 30.2782 74.6543 30.4439C75.0139 31.1342 75.1868 31.8866 75.2283 32.5976C75.3113 34.0403 74.841 35.2898 74.3085 36.1181L74.3016 36.1043Z" fill="#FFF8E3"/>
<path d="M92.618 18.3775C92.5489 18.2256 92.4866 18.0737 92.4175 17.9219C92.3414 17.77 92.2446 17.6319 92.1478 17.487C91.9541 17.197 91.7466 16.9831 91.5046 16.7414C91.0343 16.2582 90.3773 15.8786 89.741 15.6646C89.3053 15.5058 88.9733 15.5265 88.6137 15.5265C88.261 15.5265 87.9221 15.5679 87.5763 15.637C87.2305 15.706 86.8709 15.8095 86.532 15.989C86.2346 16.1409 85.9303 16.3204 85.6468 16.5275C85.0797 16.9416 84.5748 17.5353 84.3466 18.2463C84.229 18.5984 84.1875 18.9642 84.2082 19.3094C84.2082 19.4888 84.2359 19.6476 84.2567 19.8202L84.312 20.0618L84.3258 20.1101V20.2067C84.4088 20.8349 84.5955 21.4355 84.9068 21.9463C85.218 22.4571 85.6468 22.8575 86.0825 23.1129C86.4628 23.3338 86.8709 23.5616 87.2305 23.6789C87.9636 23.9482 88.593 23.9551 88.8973 23.8998C89.2707 23.8308 89.4989 23.7135 89.6304 23.603C89.7133 23.5892 89.8032 23.5616 89.9139 23.534C90.1836 23.4304 90.73 23.2234 91.3178 22.6987C91.878 22.1741 92.5281 21.3664 92.7425 20.2067C92.8532 19.6407 92.8324 18.9987 92.625 18.3636L92.618 18.3775ZM91.7605 20.0756C91.636 20.9454 91.1311 21.6357 90.7092 22.0913C90.2528 22.5538 89.8309 22.7747 89.6234 22.9058C89.3745 23.0508 89.2085 23.1474 89.0978 23.2165C89.0217 23.2165 88.9388 23.2164 88.8488 23.2095C88.6137 23.1888 88.1434 23.1405 87.5417 22.8713C87.2374 22.7401 86.9331 22.5538 86.5666 22.3191C86.2623 22.0982 85.9649 21.8082 85.7574 21.4286C85.5499 21.0489 85.4116 20.5864 85.3632 20.0825L85.3494 19.9582L85.3217 19.8202L85.2871 19.6407C85.2733 19.5164 85.2526 19.3922 85.2595 19.2748C85.2595 19.0263 85.2802 18.7916 85.3632 18.5638C85.5223 18.1151 85.8612 17.7148 86.3107 17.3903C86.532 17.2316 86.781 17.0797 87.0507 16.9485C87.272 16.8381 87.5348 16.7553 87.8115 16.7C88.095 16.6448 88.3855 16.6103 88.669 16.6034C88.9526 16.6034 89.2361 16.6034 89.409 16.6862C89.9623 16.8726 90.398 17.128 90.7922 17.5146C90.979 17.701 91.1934 17.915 91.3248 18.1082C91.387 18.2118 91.4562 18.3015 91.5115 18.412L91.6567 18.7364C91.8089 19.1782 91.8365 19.6407 91.7605 20.0687V20.0756Z" fill="#FFF8E3"/>
<path d="M91.7602 20.075C91.6357 20.9448 91.1308 21.6351 90.709 22.0907C90.2525 22.5532 89.8306 22.7741 89.6231 22.9052C89.3742 23.0502 89.2082 23.1468 89.0975 23.2158C89.0215 23.2158 88.9385 23.2158 88.8486 23.2089C88.6134 23.1882 88.1431 23.1399 87.5414 22.8707C87.2371 22.7395 86.9328 22.5532 86.5663 22.3185C86.262 22.0976 85.9646 21.8076 85.7571 21.428C85.5497 21.0483 85.4113 20.5858 85.3629 20.0819L85.3491 19.9576L85.3214 19.8196L85.2869 19.6401C85.273 19.5158 85.2523 19.3916 85.2592 19.2742C85.2592 19.0257 85.2799 18.791 85.3629 18.5632C85.522 18.1145 85.8609 17.7142 86.3104 17.3897C86.5317 17.231 86.7807 17.0791 87.0504 16.9479C87.2717 16.8375 87.5345 16.7546 87.8112 16.6994C88.0947 16.6442 88.3852 16.6097 88.6687 16.6028C88.9523 16.6028 89.2359 16.6028 89.4088 16.6856C89.962 16.872 90.3977 17.1274 90.7919 17.514C90.9787 17.7004 91.1931 17.9144 91.3245 18.1076C91.3867 18.2112 91.4559 18.3009 91.5112 18.4114L91.6564 18.7358C91.8086 19.1776 91.8363 19.6401 91.7602 20.0681V20.075Z" fill="#FFF8E3"/>
<path d="M90.4889 61.4935C90.3298 60.7134 89.984 59.9334 89.4446 59.2569C88.919 58.5735 88.1444 58.042 87.3283 57.7382C86.9341 57.5657 86.4845 57.4276 86.0004 57.4C85.5301 57.3724 85.0529 57.4276 84.6103 57.5588C84.1677 57.6899 83.7528 57.8832 83.3724 58.1317C83.1787 58.256 82.9989 58.3802 82.826 58.5252C82.66 58.6771 82.5286 58.7737 82.3626 58.9049C81.7264 59.4157 81.0417 60.0162 80.6544 60.8653C79.9905 62.6601 80.6198 64.303 81.3944 65.4765C82.2312 66.6293 83.324 67.3748 84.2991 67.6371C84.7832 67.789 85.2189 67.8097 85.5855 67.8235C85.9382 67.7752 86.2287 67.7752 86.4085 67.6924C86.9203 67.5474 87.1831 67.3541 87.3352 67.2229C87.6603 67.1263 87.9991 66.9192 88.3933 66.7052C89.2233 66.1806 90.1085 65.159 90.4543 63.7507C90.6065 63.0466 90.6618 62.2735 90.5027 61.4866L90.4889 61.4935ZM89.4722 63.5506C89.2094 64.6896 88.5317 65.5317 87.8677 66.0011C87.1761 66.4912 86.6229 66.6431 86.3324 66.6845C85.9036 66.7535 85.6685 66.6983 85.5163 66.6983C85.3642 66.6845 85.3019 66.719 85.2604 66.7812C85.2328 66.8226 85.212 66.8847 85.3227 66.9952C85.2466 66.9813 85.1774 66.9813 85.1014 66.9606C84.9215 66.9399 84.7486 66.8571 84.5481 66.8088C83.7735 66.5465 82.8813 65.8907 82.2105 64.9035C81.8854 64.3996 81.6296 63.8129 81.5051 63.1709C81.3667 62.5496 81.4152 61.8179 81.6365 61.2795C81.9131 60.7134 82.4526 60.2095 83.0681 59.7263C83.4139 59.464 83.6698 59.2155 83.981 59.036C84.2853 58.8427 84.6172 58.6909 84.9492 58.5942C85.6339 58.4009 86.2909 58.4424 86.9687 58.7461C87.6395 59.0084 88.2343 59.4019 88.6562 59.9403C89.0849 60.4718 89.3616 61.0931 89.4999 61.7213C89.6382 62.3563 89.5967 62.9845 89.4861 63.5506H89.4722Z" fill="#FFF8E3"/>
<path d="M89.4744 63.5504C89.2116 64.6894 88.5338 65.5316 87.8699 66.001C87.1783 66.4911 86.625 66.643 86.3346 66.6844C85.9058 66.7534 85.6706 66.6982 85.5185 66.6982C85.3663 66.6844 85.3041 66.7189 85.2626 66.781C85.2349 66.8224 85.2142 66.8846 85.3249 66.995C85.2488 66.9812 85.1796 66.9812 85.1035 66.9605C84.9237 66.9398 84.7508 66.857 84.5503 66.8086C83.7757 66.5463 82.8835 65.8905 82.2127 64.9034C81.8876 64.3995 81.6317 63.8127 81.5072 63.1708C81.3689 62.5495 81.4173 61.8178 81.6387 61.2793C81.9153 60.7133 82.4547 60.2094 83.0703 59.7262C83.416 59.4639 83.6719 59.2154 83.9832 59.0359C84.2875 58.8426 84.6194 58.6907 84.9514 58.5941C85.6361 58.4008 86.2931 58.4422 86.9708 58.7459C87.6417 59.0083 88.2365 59.4017 88.6583 59.9402C89.0871 60.4717 89.3638 61.093 89.5021 61.7211C89.6404 62.3562 89.5989 62.9844 89.4882 63.5504H89.4744Z" fill="#FFF8E3"/>
<path d="M59.149 72.2417C58.7617 71.2131 57.7658 70.4124 56.6731 70.1639C55.5804 69.9016 54.3148 70.1846 53.5125 70.9853C53.1114 71.3719 52.8071 71.9034 52.7379 72.4488C52.6688 72.9803 52.7379 73.4773 52.8832 73.9053C53.5125 75.6034 54.7505 76.2868 55.1654 76.4456C55.4836 76.556 55.691 76.556 55.8086 76.5353C55.857 76.5215 55.8847 76.5077 55.9124 76.4801C56.1544 76.5629 56.5763 76.632 57.1226 76.5146C57.4408 76.4525 57.7658 76.2937 58.0909 76.0797C58.4021 75.8381 58.7133 75.5413 58.9554 75.1478C59.1836 74.7544 59.3565 74.285 59.4049 73.781C59.4464 73.2633 59.3565 72.7318 59.149 72.2348V72.2417ZM58.0909 74.6646C57.7797 75.2238 57.2886 75.562 56.8875 75.6794C56.4725 75.8105 56.1337 75.7898 55.9608 75.7622C55.698 75.7622 55.532 75.7139 55.4075 75.7346C55.4075 75.7346 55.4029 75.7346 55.3937 75.7346C55.2277 75.6103 54.9856 75.417 54.709 75.1133C54.377 74.7475 54.0105 74.2297 53.8168 73.5808C53.637 72.9389 53.6923 72.2002 54.2525 71.7308C54.7851 71.22 55.6426 71.0267 56.4311 71.22C57.2195 71.4064 57.8972 71.9448 58.167 72.6558C58.3122 73.0148 58.3744 73.3669 58.3606 73.712C58.3329 74.0641 58.2292 74.3816 58.077 74.6646H58.0909Z" fill="#FFF8E3"/>
<path d="M58.3718 73.7115C58.3442 74.0635 58.2404 74.381 58.0883 74.6641C57.777 75.2232 57.286 75.5615 56.8849 75.6788C56.4699 75.81 56.1311 75.7893 55.9582 75.7616C55.6953 75.7616 55.5294 75.7133 55.4049 75.734C55.4049 75.734 55.4003 75.734 55.391 75.734C55.2251 75.6098 54.983 75.4165 54.7064 75.1128C54.3744 74.7469 54.0079 74.2292 53.8142 73.5803C53.6344 72.9383 53.6897 72.1997 54.2499 71.7303C54.7824 71.2195 55.64 71.0262 56.4284 71.2195C57.2169 71.4059 57.8946 71.9443 58.1643 72.6553C58.3096 73.0143 58.3718 73.3663 58.358 73.7115H58.3718Z" fill="#FFF8E3"/>
<g style="mix-blend-mode:multiply" opacity="0.22">
<path d="M78.842 3.64704C81.228 4.30973 83.3442 5.09667 85.1493 5.8767C88.6004 7.34704 90.9725 8.81048 92.2174 9.53529C93.151 10.0461 93.8288 10.5155 94.3821 10.8607C94.9284 11.1989 95.3365 11.4405 95.6339 11.5993C95.6684 11.6131 95.6961 11.6338 95.7307 11.6476C95.7307 11.6476 95.786 11.7097 95.8068 11.7235C96.3877 12.2965 97.4873 13.256 99.0573 15.1957C100.067 16.4659 101.948 19.0062 103.58 22.934C104.389 24.9013 105.129 27.1931 105.71 29.7749C105.717 29.7956 105.724 29.8163 105.724 29.837C104.901 30.4583 104.051 31.0933 103.172 31.7215C100.883 33.3713 98.4002 35.0349 95.7514 36.6986C95.6754 33.8407 95.3503 31.0036 94.8524 28.2355C94.3821 25.6193 93.5729 23.2446 92.494 21.0012C91.595 19.1166 90.5022 17.3219 89.2574 15.5547C88.8078 14.9058 88.3375 14.2569 87.8396 13.6081C85.3568 10.3567 82.3138 6.45656 78.8281 3.64014L78.842 3.64704Z" fill="#BF89FF"/>
</g>
<g style="mix-blend-mode:multiply" opacity="0.22">
<path d="M102.779 57.8489C101.257 61.1209 99.2931 64.3032 96.9071 67.1886C94.5003 70.0672 91.651 72.6282 88.4904 74.706C88.0962 74.9614 87.7158 75.2444 87.3008 75.486L86.056 76.1832C85.233 76.6595 84.3754 77.0806 83.5247 77.5086C81.8165 78.3577 80.0806 79.1239 78.317 79.8211C74.8037 81.2155 71.2282 82.3062 67.6734 83.1069C60.5776 84.6946 53.6064 85.0536 47.5134 84.3702C46.7596 84.2666 46.0057 84.2045 45.2934 84.0733C44.581 83.9353 43.8756 83.7627 43.1909 83.5694C41.8216 83.1898 40.5283 82.7342 39.3111 82.2302C36.8905 81.2155 34.7881 80.0351 33.0591 78.8202C31.2679 77.5776 29.9538 76.2592 28.9648 75.0926C30.9359 75.4032 33.1352 76.3834 34.5391 76.7424C37.1049 77.3843 39.5946 78.3922 42.1881 78.9237C46.974 79.8832 52.0779 78.9306 56.8015 77.9711C65.6055 76.1763 75.0181 72.4694 82.349 66.5536C85.0186 64.4067 87.4115 61.9631 89.3964 59.2157C90.5513 57.6211 91.5749 55.9161 92.4325 54.1144C94.0923 50.6215 95.0674 46.8662 95.4893 43.0213C96.5474 42.3448 97.5917 41.6614 98.6222 40.9642C99.632 40.2808 100.635 39.6043 101.638 38.9278C102.64 38.2582 103.588 37.5403 104.549 36.85C105.241 36.3461 105.946 35.856 106.624 35.3521C106.645 35.5729 106.665 35.7938 106.686 36.0147C106.721 36.3875 106.748 36.7603 106.783 37.1261C106.825 37.4989 106.845 37.8854 106.831 38.2582C107.011 44.3466 105.863 51.298 102.765 57.842L102.779 57.8489Z" fill="#BF89FF"/>
</g>
</svg>
