<svg width="15" height="15" viewBox="0 0 15 15" fill="none" xmlns="http://www.w3.org/2000/svg">
<g clip-path="url(#clip0_1881_9118)">
<path d="M4.4707 2.01147L2.7207 4.34481V12.5115C2.7207 12.8209 2.84362 13.1176 3.06241 13.3364C3.2812 13.5552 3.57795 13.6781 3.88737 13.6781H12.054C12.3634 13.6781 12.6602 13.5552 12.879 13.3364C13.0978 13.1176 13.2207 12.8209 13.2207 12.5115V4.34481L11.4707 2.01147H4.4707Z" stroke="#3B2900" stroke-linecap="round" stroke-linejoin="round"/>
<path d="M2.7207 4.34448H13.2207" stroke="#3B2900" stroke-linecap="round" stroke-linejoin="round"/>
<path d="M10.3044 6.67798C10.3044 7.29682 10.0585 7.89031 9.62094 8.32789C9.18336 8.76548 8.58986 9.01131 7.97103 9.01131C7.35219 9.01131 6.7587 8.76548 6.32111 8.32789C5.88353 7.89031 5.6377 7.29682 5.6377 6.67798" stroke="#3B2900" stroke-linecap="round" stroke-linejoin="round"/>
</g>
<defs>
<clipPath id="clip0_1881_9118">
<rect width="14" height="14" fill="white" transform="translate(0.970703 0.844604)"/>
</clipPath>
</defs>
</svg>
