<svg width="37" height="45" viewBox="0 0 37 45" fill="none" xmlns="http://www.w3.org/2000/svg">
<path d="M36.1632 11.9281C36.1228 11.5847 35.8737 11.2953 35.5371 11.1808C35.4563 11.1471 35.3688 11.1269 35.288 11.1135L35.1466 11.0798C35.0456 11.0664 34.9514 11.0529 34.8571 11.0327C34.6686 11.0125 34.4801 10.9923 34.2849 10.9788C33.5309 10.9384 32.7971 10.9923 32.097 11.0866C30.7101 11.2818 29.4378 11.5511 28.3 11.8338C27.1623 12.1166 26.1861 12.4195 25.4186 12.6888C24.6512 12.9581 24.1126 13.1937 23.8568 13.2812C23.473 13.4159 23.2711 13.4361 23.1364 13.4765C23.0826 13.4832 23.0557 13.5034 23.0287 13.5236C23.0153 13.389 23.0018 13.2476 22.9816 13.0591C22.9008 12.4128 22.5575 10.6018 22.0256 8.23212C21.7563 7.04052 21.4399 5.71429 21.0899 4.32073C20.9081 3.62058 20.7196 2.90024 20.5378 2.18663C20.4368 1.84329 20.383 1.4057 20.0194 0.947912C19.8444 0.719018 19.5145 0.523784 19.1712 0.51032C18.8279 0.490123 18.5316 0.624767 18.3162 0.766143C17.8853 1.07582 17.6565 1.44609 17.441 1.78943C17.2323 2.13951 17.0573 2.50977 16.9092 2.87331C16.613 3.60712 16.4245 4.34092 16.236 5.03434C15.8724 6.42116 15.5224 7.73394 15.2059 8.91207C14.6 11.2683 14.1625 13.0456 14.0547 13.6919C13.9874 14.1093 13.974 14.3584 13.974 14.5267V14.52C13.8326 14.4459 13.5835 14.3449 13.1526 14.2035C12.5535 14.0083 10.8906 13.5977 8.65555 13.0658C7.53801 12.8033 6.29929 12.4936 4.93939 12.2108C4.25271 12.0762 3.53237 11.9617 2.77163 11.9348C2.39463 11.9213 2.0109 11.9348 1.62716 11.9752C1.43193 12.0089 1.25689 12.0156 1.0078 12.0896C0.893355 12.1233 0.75198 12.1772 0.59714 12.2916C0.449032 12.3926 0.334585 12.534 0.260531 12.7023C0.0922271 13.0456 0.247067 13.5236 0.368246 13.7121C0.502889 13.9477 0.610604 14.0824 0.731783 14.2507C0.974141 14.5806 1.2165 14.8902 1.47232 15.1999C1.9907 15.8058 2.52254 16.4117 3.10151 16.8964C3.66701 17.4081 4.22578 17.8995 4.75762 18.3775C5.29619 18.8353 5.81457 19.2661 6.30602 19.6835C8.26508 21.3329 9.76635 22.5649 10.3184 22.9554C10.4732 23.0631 10.6079 23.1506 10.7223 23.2179C10.6887 23.2583 10.6415 23.2987 10.6011 23.3391C10.1636 23.8036 9.00562 25.2174 7.51108 27.0957C6.76381 28.0382 5.92902 29.0884 5.05384 30.1924C4.62298 30.7512 4.17865 31.3167 3.72087 31.889L3.39099 32.3198C3.26308 32.4679 3.1217 32.6901 3.04092 32.8988C2.99379 33.0065 2.9534 33.1209 2.91974 33.2489C2.89281 33.3566 2.87261 33.5787 2.89281 33.747C2.9332 34.1038 3.17556 34.4068 3.50544 34.5212C3.80165 34.6424 4.23251 34.5212 4.34023 34.501L4.83167 34.3731C5.16155 34.2789 5.48469 34.1846 5.80784 34.0971C6.44066 33.9019 7.07349 33.7066 7.67938 33.4912C8.88444 33.0671 10.002 32.6093 10.9781 32.1582C12.9305 31.2561 14.3038 30.4146 14.7818 30.0713C15.0309 29.8895 15.1925 29.7481 15.3002 29.6404C15.3002 29.7751 15.3002 29.9232 15.3137 30.0982C15.3406 30.7781 15.5089 32.6093 15.758 35.0598C15.8859 36.2851 16.0407 37.6652 16.1956 39.1193C16.2764 39.8464 16.3571 40.6004 16.4447 41.3611C16.4851 41.7449 16.5322 42.1219 16.5726 42.5056L16.6399 43.0846L16.6601 43.2394C16.6601 43.3134 16.6803 43.4212 16.714 43.5154C16.7678 43.6972 16.8621 43.8588 16.99 43.9867C17.2929 44.256 17.7507 44.2896 18.1142 44.0944C18.296 44.0069 18.4643 43.8386 18.5653 43.6837C18.6528 43.5423 18.7134 43.4077 18.7605 43.2932C18.9154 42.8355 19.0231 42.4585 19.1577 42.0478C19.4001 41.2332 19.6357 40.4253 19.8646 39.6242C20.3089 38.0354 20.6927 36.514 21.0091 35.1406C21.6352 32.4006 21.9987 30.2867 22.066 29.5529C22.1199 28.9403 22.1401 28.5498 22.1132 28.3276C22.2007 28.4152 22.3151 28.5229 22.4565 28.644C22.8402 28.9874 23.9578 29.8356 25.4658 30.9465C26.2198 31.4985 27.0748 32.1246 27.9836 32.7843C28.4481 33.1142 28.9396 33.4508 29.5051 33.7336C29.7878 33.8817 30.084 34.0096 30.3937 34.1038C30.5553 34.1577 30.6697 34.1981 31.0131 34.2587C31.2958 34.3058 31.5786 34.3395 31.8748 34.3731C31.9219 34.05 31.9892 33.7538 32.0027 33.4239C32.0094 33.0267 31.9758 32.9257 31.9421 32.7103C31.8815 32.3265 31.7671 31.9765 31.6392 31.6399C31.3901 30.9801 31.1343 30.3675 30.8582 29.7616C30.3129 28.5431 29.7272 27.4121 29.1685 26.4224C28.0442 24.4432 27.0074 23.0362 26.617 22.5918C26.2736 22.2148 26.0851 22.0667 25.9572 22.0263C26.0986 21.9455 26.2736 21.8109 26.516 21.6224C27.0007 21.2387 28.2933 20.0605 29.9831 18.4852C30.8246 17.6908 31.7738 16.8022 32.7634 15.8664C33.2616 15.3951 33.7665 14.9104 34.2849 14.419C34.5407 14.1766 34.8033 13.9275 35.0591 13.6852L35.4496 13.3082L35.6515 13.1197C35.7256 13.0389 35.8064 12.9514 35.8804 12.8504C35.9141 12.8033 35.9478 12.7561 35.9814 12.7023C36.0285 12.6282 36.0622 12.5407 36.0959 12.4667C36.1632 12.2983 36.1901 12.1233 36.1632 11.955V11.9281ZM35.086 12.1435L35.0255 12.231C32.9856 14.2103 30.9525 16.1963 29.3098 17.7918C27.6605 19.4075 26.4352 20.653 26.0447 21.131C25.459 21.8244 25.4186 22.0263 25.5196 22.134C25.5533 22.1677 25.6206 22.1812 25.7351 22.134C25.7216 22.235 25.7889 22.4505 26.0784 22.9621C26.3544 23.4805 27.2902 24.901 28.3337 26.8668C28.8453 27.8497 29.4041 28.9672 29.9157 30.1588C30.1783 30.7512 30.4341 31.3706 30.663 31.9832C30.7707 32.2862 30.865 32.5824 30.9188 32.8719C30.9525 33.094 30.9525 33.1479 30.9525 33.1613C30.9525 33.1613 30.8784 33.1411 30.7169 33.094C30.461 33.0065 30.2187 32.9055 29.9696 32.7843C29.4781 32.542 29.0136 32.2323 28.5626 31.9226C27.6403 31.2898 26.7718 30.6839 26.0111 30.1521C24.4627 29.0884 23.298 28.3142 22.8402 28.0651C22.1266 27.6746 21.9381 27.6881 21.8573 27.8025C21.8169 27.8564 21.8169 27.9372 21.9516 28.1055C21.8304 28.2065 21.6486 28.5767 21.413 29.425C21.2178 30.1319 20.7667 32.2054 20.0868 34.905C19.7367 36.2514 19.3395 37.7594 18.8884 39.328C18.6528 40.1089 18.4172 40.9168 18.1748 41.7247C18.0537 42.1084 17.919 42.5594 17.7978 42.9028C17.7709 42.9836 17.744 43.0374 17.7103 43.0778C17.7036 43.0913 17.7036 43.098 17.7036 43.098C17.542 41.6843 17.367 40.2907 17.2121 38.9712C17.0304 37.5103 16.8621 36.137 16.7072 34.9117C16.3908 32.4679 16.1283 30.6435 15.9869 29.977C15.7714 28.9672 15.6301 28.7922 15.4887 28.8124C15.4146 28.8124 15.3608 28.8931 15.3339 29.1692C15.2059 29.1692 14.9569 29.2432 14.4452 29.4721C13.9201 29.7077 12.5333 30.455 10.6011 31.2763C9.63844 31.687 8.53437 32.1178 7.35624 32.515C6.76381 32.717 6.14445 32.8988 5.52509 33.0873C5.20868 33.1748 4.899 33.2623 4.57585 33.3498C4.35369 33.4037 4.03728 33.4845 3.94303 33.5114C3.94303 33.5114 3.95649 33.3902 4.01035 33.2892C4.06421 33.1613 4.11806 33.0738 4.22578 32.9392L4.56239 32.5083C5.00671 31.9293 5.45103 31.3571 5.88189 30.7983C6.73015 29.6808 7.55147 28.6104 8.28528 27.6544C9.73943 25.729 10.8166 24.2547 11.1532 23.7161C11.2138 23.6151 11.2676 23.5209 11.3148 23.4401C11.3551 23.3593 11.3888 23.292 11.4225 23.2314C11.6042 22.8611 11.584 22.7332 11.51 22.6726C11.4494 22.6322 11.3551 22.6255 11.1263 22.8275C11.032 22.7197 10.9041 22.5784 10.7493 22.4168C10.278 21.9321 8.83731 20.626 6.93211 18.9363C6.45413 18.5189 5.94248 18.0678 5.41737 17.6033C4.90573 17.1388 4.37389 16.6406 3.82185 16.1491C3.25635 15.6577 2.77836 15.1057 2.28691 14.5267C2.05129 14.2372 1.81566 13.9343 1.5935 13.6313C1.48579 13.4832 1.35787 13.3082 1.29729 13.2005C1.25689 13.1264 1.25689 13.1129 1.25689 13.1062L1.33768 13.0793C1.43866 13.0456 1.6137 13.0254 1.77527 13.0052C2.11188 12.9648 2.44175 12.9581 2.77836 12.9648C3.44485 12.9783 4.1248 13.0793 4.77782 13.2005C6.11079 13.4832 7.37643 13.7458 8.48724 13.9881C10.7358 14.4594 12.4323 14.796 13.0517 14.8633C13.8326 14.9508 14.0682 14.9104 14.1423 14.8162C14.1423 14.8162 14.1423 14.8229 14.1557 14.8229C14.2634 14.8498 14.3914 14.7892 14.7414 13.8535C14.9703 13.2408 15.4887 11.4838 16.1686 9.15442C16.4918 7.98303 16.8688 6.67699 17.2593 5.29016C17.4545 4.59675 17.643 3.8966 17.9123 3.24358C18.0469 2.92044 18.195 2.60402 18.3768 2.31454C18.5653 2.01833 18.7538 1.74904 18.9558 1.62113C19.05 1.56054 19.1241 1.54707 19.151 1.54707C19.1914 1.55381 19.2116 1.56054 19.2722 1.62786C19.3934 1.76924 19.4809 2.10584 19.5819 2.47611C19.7771 3.19646 19.9589 3.90333 20.1474 4.59675C20.4974 5.9903 20.8408 7.30308 21.1437 8.47448C21.7361 10.824 22.167 12.608 22.369 13.2207C22.6652 14.1295 22.8133 14.2776 22.9479 14.2507C23.0287 14.2305 23.0759 14.1564 23.0759 13.8131L23.0893 13.8265C23.2307 13.9073 23.5404 14.0016 24.0588 13.9275C24.4088 13.8804 24.9676 13.6852 25.7283 13.4765C26.4958 13.2543 27.4652 12.9985 28.5828 12.7494C29.6936 12.5003 30.9592 12.2647 32.2922 12.0964C32.9519 12.0156 33.6184 11.9685 34.2849 12.0156C34.4465 12.0291 34.6148 12.0425 34.7764 12.0627C34.8571 12.0762 34.9312 12.0896 35.0187 12.1031L35.1264 12.1233L35.086 12.1435Z" fill="#3B2900"/>
<path d="M35.0864 12.1368L35.0259 12.231C32.986 14.2103 30.9529 16.1963 29.3102 17.7918C27.6609 19.4075 26.4423 20.653 26.0451 21.131C25.4594 21.8244 25.419 22.0263 25.52 22.1273C25.5537 22.161 25.621 22.1744 25.7355 22.1273C25.722 22.2283 25.7961 22.4505 26.0788 22.9554C26.3481 23.4738 27.2839 24.8942 28.3341 26.8668C28.8457 27.8497 29.3978 28.9605 29.9161 30.1588C30.172 30.7512 30.4345 31.3706 30.6634 31.9832C30.7711 32.2862 30.8654 32.5824 30.9192 32.8719C30.9529 33.094 30.9529 33.1479 30.9529 33.1613C30.9529 33.1613 30.8721 33.1411 30.7105 33.094C30.4547 33.0132 30.2124 32.9055 29.9633 32.7911C29.4785 32.5487 29.0073 32.239 28.563 31.9294C27.6407 31.2898 26.7722 30.6974 26.0047 30.1655C24.4563 29.1018 23.2917 28.3209 22.8406 28.0786C22.127 27.6948 21.9385 27.7016 21.8577 27.816C21.8106 27.8699 21.8173 27.9506 21.952 28.1189C21.8308 28.2132 21.649 28.5902 21.4201 29.4385C21.2249 30.1386 20.7671 32.2188 20.0872 34.9184C19.7371 36.2649 19.3399 37.7662 18.8888 39.3415C18.6532 40.1224 18.4176 40.9303 18.1752 41.7381C18.0541 42.1151 17.9127 42.5662 17.7915 42.9163C17.7713 42.997 17.7376 43.0509 17.704 43.0913C17.704 43.1048 17.6973 43.1115 17.6973 43.1115C17.5289 41.6977 17.3606 40.3042 17.1991 38.9779C17.024 37.5238 16.849 36.1437 16.6942 34.9184C16.3777 32.4747 16.1219 30.6435 15.9805 29.9838C15.7651 28.9739 15.6237 28.7922 15.4824 28.8124C15.415 28.8124 15.3545 28.8932 15.3275 29.1692C15.1996 29.1692 14.9505 29.2432 14.4389 29.4789C13.9138 29.7145 12.5269 30.455 10.6015 31.2831C9.63884 31.6937 8.53477 32.1179 7.35664 32.5285C6.75748 32.7305 6.14485 32.9123 5.52549 33.1008C5.21581 33.1883 4.8994 33.2691 4.57625 33.3633C4.35409 33.4172 4.03095 33.498 3.94343 33.5249C3.94343 33.5249 3.95689 33.4104 4.00402 33.3027C4.05788 33.1748 4.11173 33.0873 4.21945 32.9459L4.55606 32.5218C4.62338 32.4343 4.69743 32.34 4.76475 32.2525C5.14176 31.7678 5.50529 31.2831 5.86883 30.8118C6.71708 29.6943 7.53841 28.6239 8.27221 27.6679C9.71963 25.7492 10.8035 24.2749 11.1334 23.7296C11.194 23.6286 11.2478 23.5343 11.295 23.4536C11.3354 23.3728 11.369 23.3055 11.4027 23.2449C11.5844 22.8813 11.571 22.7534 11.4902 22.6861C11.4296 22.6457 11.3354 22.639 11.1065 22.8409C11.0122 22.7332 10.8843 22.5918 10.7295 22.4303C10.2582 21.9456 8.81752 20.6462 6.90558 18.9497C6.42087 18.5323 5.91595 18.0813 5.39084 17.6168C4.87247 17.1455 4.34736 16.6541 3.79532 16.1559C3.22982 15.6644 2.75184 15.1191 2.26039 14.5402C2.02476 14.2507 1.78913 13.9477 1.56024 13.6448C1.45253 13.49 1.33135 13.3216 1.27076 13.2207C1.23037 13.1399 1.22363 13.1331 1.22363 13.1264L1.29769 13.0995C1.39867 13.0658 1.58044 13.0524 1.73528 13.0187C2.07189 12.9783 2.40176 12.9716 2.73837 12.985C3.41159 12.9985 4.0848 13.0928 4.73783 13.2207C6.07079 13.5034 7.32971 13.766 8.44725 14.0083C10.6958 14.4863 12.3923 14.8162 13.0184 14.8768C13.8061 14.9643 14.035 14.9239 14.1023 14.8297C14.1023 14.8297 14.1157 14.8297 14.1157 14.8364C14.2235 14.87 14.3514 14.8095 14.7014 13.867C14.9236 13.2543 15.4487 11.4972 16.1287 9.16117C16.4585 7.98977 16.8355 6.68373 17.2193 5.2969C17.4145 4.60349 17.603 3.90334 17.8723 3.25032C18.0069 2.92718 18.1618 2.61076 18.3368 2.32128C18.4109 2.2001 18.4916 2.08566 18.5724 1.97794C18.6869 1.82983 18.8013 1.70192 18.9158 1.6346C19.01 1.57401 19.0841 1.56055 19.1177 1.56055C19.1514 1.56728 19.1783 1.57401 19.2389 1.64133C19.3601 1.78271 19.4409 2.11932 19.5419 2.49632C19.7371 3.21666 19.9189 3.92354 20.1141 4.61695C20.4642 6.01051 20.8075 7.31655 21.1105 8.49468C21.7029 10.8442 22.1337 12.6215 22.3357 13.2409C22.6319 14.1497 22.78 14.2978 22.9147 14.2641C22.9887 14.2507 23.0493 14.1699 23.0426 13.8333V13.8468C23.1974 13.9275 23.5004 14.0218 24.0188 13.9545C24.3688 13.9073 24.9276 13.7121 25.6883 13.5034C26.4558 13.2813 27.4252 13.0254 28.5428 12.7763C29.6603 12.5272 30.9192 12.2849 32.2522 12.1233C32.9052 12.0425 33.5784 11.9954 34.2382 12.0425C34.3998 12.056 34.5681 12.0695 34.7296 12.0897C34.8172 12.1031 34.8912 12.1166 34.972 12.1301L35.0797 12.1502L35.0864 12.1368Z" fill="#FFFCF3"/>
<g style="mix-blend-mode:multiply" opacity="0.25">
<path d="M35.0854 12.1368L35.0248 12.231C32.985 14.2103 30.9518 16.1963 29.3092 17.7918C27.6598 19.4075 26.4413 20.653 26.0441 21.131C25.4584 21.8244 25.418 22.0263 25.519 22.1273C25.5526 22.161 25.62 22.1744 25.7344 22.1273C25.7209 22.2283 25.795 22.4505 26.0778 22.9554C26.347 23.4738 27.2828 24.8942 28.333 26.8668C28.8447 27.8497 29.3967 28.9605 29.9151 30.1588C30.1709 30.7512 30.4335 31.3706 30.6624 31.9832C30.7701 32.2862 30.8643 32.5824 30.9182 32.8719C30.9518 33.094 30.9518 33.1479 30.9518 33.1613C30.9518 33.1613 30.8711 33.1411 30.7095 33.094C30.4537 33.0132 30.2113 32.9055 29.9622 32.7911C29.4775 32.5487 29.0062 32.239 28.5619 31.9294C27.6396 31.2898 26.7712 30.6974 26.0037 30.1655C24.4553 29.1018 23.2906 28.3209 22.8396 28.0786C22.126 27.6948 21.9375 27.7016 21.8567 27.816C21.8096 27.8699 21.8163 27.9506 21.9509 28.1189C21.8298 28.2132 21.648 28.5902 21.4191 29.4385C21.2239 30.1386 20.7661 32.2188 20.0861 34.9184C19.7361 36.2649 19.3389 37.7662 18.8878 39.3415C18.6522 40.1224 18.4165 40.9303 18.1742 41.7381C18.053 42.1151 17.9116 42.5662 17.7905 42.9163C17.7703 42.997 17.7366 43.0509 17.7029 43.0913C17.7029 43.1048 17.6962 43.1115 17.6962 43.1115C17.5279 41.6977 17.3596 40.3042 17.198 38.9779C17.023 37.5238 16.848 36.1437 16.6931 34.9184C16.3767 32.4747 16.1209 30.6435 15.9795 29.9838C15.7641 28.9739 15.6227 28.7922 15.4813 28.8124C15.414 28.8124 15.3534 28.8932 15.3265 29.1692C15.1986 29.1692 14.9495 29.2432 14.4378 29.4789C13.9127 29.7145 12.5259 30.455 10.6005 31.2831C9.6378 31.6937 8.53372 32.1179 7.35559 32.5285C6.75643 32.7305 6.1438 32.9123 5.52444 33.1008C5.21476 33.1883 4.89835 33.2691 4.57521 33.3633C4.35305 33.4172 4.0299 33.498 3.94238 33.5249C3.94238 33.5249 3.95585 33.4104 4.00297 33.3027C4.05683 33.1748 4.11069 33.0873 4.2184 32.9459L4.55501 32.5218C4.62233 32.4343 4.69639 32.34 4.76371 32.2525C6.71604 30.6637 9.92055 29.7885 12.021 28.7922C13.6636 28.0112 15.1447 26.8196 16.5787 25.9041C16.5719 28.2199 17.5346 31.1754 18.3156 33.3566C20.1063 32.0438 20.5035 27.1832 20.9276 25.0222C22.3751 26.0252 24.8323 28.4758 26.65 28.4084C27.0943 25.9108 23.0415 23.292 23.5128 21.1175C24.0985 18.4179 29.0668 17.3475 28.9659 13.9747C26.926 13.7458 22.2539 14.7354 21.069 16.3511C19.5745 11.7396 19.8303 6.72412 18.5781 1.97794C18.6926 1.82983 18.807 1.70192 18.9215 1.6346C19.0157 1.57401 19.0898 1.56055 19.1234 1.56055C19.1571 1.56728 19.184 1.57401 19.2446 1.64133C19.3658 1.78271 19.4466 2.11932 19.5476 2.49632C19.7428 3.21666 19.9246 3.92354 20.1198 4.61695C20.4699 6.01051 20.8132 7.31655 21.1161 8.49468C21.7086 10.8442 22.1394 12.6215 22.3414 13.2409C22.6376 14.1497 22.7857 14.2978 22.9204 14.2641C22.9944 14.2507 23.055 14.1699 23.0483 13.8333V13.8468C23.2031 13.9275 23.5061 14.0218 24.0244 13.9545C24.3745 13.9073 24.9333 13.7121 25.694 13.5034C26.4615 13.2813 27.4309 13.0254 28.5485 12.7763C29.666 12.5272 30.9249 12.2849 32.2579 12.1233C32.9109 12.0425 33.5841 11.9954 34.2439 12.0425C34.4054 12.056 34.5738 12.0695 34.7353 12.0897C34.8228 12.1031 34.8969 12.1166 34.9777 12.1301L35.0854 12.1502V12.1368Z" fill="#D3C7B8"/>
</g>
</svg>
