<svg width="32" height="39" viewBox="0 0 32 39" fill="none" xmlns="http://www.w3.org/2000/svg">
<path d="M31.4551 10.4486C31.4198 10.1485 31.2021 9.89555 30.908 9.79554C30.8374 9.76612 30.7609 9.74847 30.6903 9.73671L30.5667 9.70729C30.4785 9.69552 30.3961 9.68376 30.3138 9.66611C30.149 9.64846 29.9843 9.63081 29.8137 9.61904C29.1548 9.58374 28.5135 9.63081 27.9017 9.71317C26.6897 9.88378 25.5778 10.1191 24.5836 10.3662C23.5893 10.6133 22.7363 10.878 22.0656 11.1134C21.3949 11.3487 20.9243 11.5546 20.7007 11.6311C20.3654 11.7487 20.1889 11.7664 20.0712 11.8017C20.0241 11.8076 20.0006 11.8252 19.9771 11.8429C19.9653 11.7252 19.9536 11.6017 19.9359 11.4369C19.8653 10.8722 19.5653 9.28959 19.1005 7.21872C18.8652 6.17741 18.5887 5.01843 18.2827 3.80062C18.1239 3.18877 17.9592 2.55927 17.8003 1.93566C17.7121 1.63562 17.665 1.25322 17.3473 0.853163C17.1944 0.653137 16.9061 0.482525 16.606 0.470758C16.306 0.453109 16.0471 0.570772 15.8589 0.694318C15.4824 0.964943 15.2823 1.28852 15.0941 1.58856C14.9117 1.89448 14.7587 2.21805 14.6293 2.53574C14.3704 3.177 14.2057 3.81827 14.041 4.42423C13.7233 5.63616 13.4174 6.78337 13.1409 7.81292C12.6114 9.87202 12.229 11.4252 12.1349 11.9899C12.076 12.3547 12.0643 12.5724 12.0643 12.7195V12.7136C11.9407 12.6489 11.723 12.5606 11.3465 12.4371C10.8229 12.2665 9.36978 11.9076 7.41658 11.4428C6.43998 11.2134 5.35748 10.9427 4.16908 10.6957C3.569 10.578 2.93951 10.478 2.27471 10.4544C1.94526 10.4427 1.60992 10.4544 1.27458 10.4897C1.10397 10.5192 0.951004 10.525 0.733328 10.5898C0.633315 10.6192 0.509769 10.6662 0.374456 10.7663C0.245027 10.8545 0.145014 10.978 0.0802994 11.1251C-0.0667792 11.4252 0.0685331 11.8429 0.17443 12.0076C0.292092 12.2135 0.386223 12.3312 0.492119 12.4782C0.703912 12.7665 0.915705 13.0371 1.13926 13.3078C1.59227 13.8373 2.05703 14.3667 2.56298 14.7903C3.05717 15.2374 3.54547 15.6669 4.01024 16.0846C4.48089 16.4847 4.93389 16.8612 5.36336 17.2259C7.07535 18.6673 8.38729 19.7439 8.86971 20.0852C9.00502 20.1793 9.12269 20.2558 9.2227 20.3146C9.19328 20.3499 9.1521 20.3852 9.1168 20.4205C8.7344 20.8264 7.7225 22.0619 6.41644 23.7033C5.76341 24.5269 5.0339 25.4447 4.2691 26.4095C3.89257 26.8978 3.50429 27.392 3.10423 27.8921L2.81596 28.2686C2.70418 28.398 2.58063 28.5922 2.51004 28.7745C2.46885 28.8687 2.43356 28.9687 2.40414 29.0805C2.38061 29.1746 2.36296 29.3687 2.38061 29.5158C2.41591 29.8276 2.6277 30.0924 2.91597 30.1924C3.17483 30.2983 3.55135 30.1924 3.64548 30.1747L4.07495 30.063C4.36323 29.9806 4.64562 29.8982 4.92801 29.8218C5.48102 29.6511 6.03404 29.4805 6.56352 29.2923C7.6166 28.9216 8.5932 28.5216 9.44626 28.1274C11.1524 27.3391 12.3525 26.6037 12.7702 26.3036C12.9879 26.1448 13.1291 26.0212 13.2232 25.9271C13.2232 26.0448 13.2232 26.1742 13.235 26.3272C13.2585 26.9214 13.4056 28.5216 13.6233 30.663C13.7351 31.7338 13.8704 32.9398 14.0057 34.2106C14.0763 34.846 14.1469 35.5049 14.2234 36.1697C14.2587 36.505 14.2999 36.8345 14.3352 37.1698L14.394 37.6757L14.4116 37.8111C14.4116 37.8758 14.4293 37.9699 14.4587 38.0523C14.5058 38.2111 14.5881 38.3523 14.6999 38.4641C14.9646 38.6994 15.3647 38.7288 15.6824 38.5582C15.8412 38.4817 15.9883 38.3347 16.0766 38.1993C16.153 38.0758 16.206 37.9581 16.2472 37.8581C16.3825 37.4581 16.4766 37.1286 16.5943 36.7697C16.8061 36.0579 17.012 35.3519 17.212 34.6518C17.6003 33.2634 17.9356 31.9338 18.2121 30.7336C18.7593 28.3392 19.077 26.4919 19.1358 25.8506C19.1829 25.3153 19.2005 24.974 19.177 24.7799C19.2535 24.8564 19.3535 24.9505 19.477 25.0564C19.8124 25.3564 20.789 26.0977 22.1068 27.0684C22.7657 27.5509 23.5129 28.098 24.3071 28.6745C24.713 28.9628 25.1425 29.257 25.6367 29.5041C25.8838 29.6335 26.1426 29.7453 26.4132 29.8276C26.5544 29.8747 26.6544 29.91 26.9545 29.9629C27.2016 30.0041 27.4487 30.0335 27.7075 30.063C27.7487 29.7806 27.8075 29.5217 27.8193 29.2334C27.8252 28.8863 27.7958 28.7981 27.7664 28.6098C27.7134 28.2745 27.6134 27.9686 27.5016 27.6744C27.2839 27.0979 27.0604 26.5625 26.8192 26.033C26.3426 24.9682 25.8308 23.9798 25.3425 23.115C24.36 21.3853 23.454 20.1557 23.1128 19.7675C22.8128 19.438 22.648 19.3086 22.5363 19.2733C22.6598 19.2027 22.8128 19.085 23.0245 18.9203C23.4481 18.5849 24.5777 17.5554 26.0544 16.1787C26.7898 15.4845 27.6193 14.708 28.4841 13.8902C28.9195 13.4784 29.3607 13.0548 29.8137 12.6253C30.0373 12.4135 30.2667 12.1959 30.4903 11.9841L30.8315 11.6546L31.008 11.4899C31.0727 11.4193 31.1433 11.3428 31.208 11.2546C31.2374 11.2134 31.2668 11.1722 31.2962 11.1251C31.3374 11.0604 31.3668 10.9839 31.3963 10.9192C31.4551 10.7721 31.4786 10.6192 31.4551 10.4721V10.4486ZM30.5138 10.6368L30.4608 10.7133C28.6782 12.443 26.9015 14.1785 25.4661 15.5728C24.0247 16.9847 22.954 18.0731 22.6127 18.4908C22.1009 19.0968 22.0656 19.2733 22.1538 19.3674C22.1833 19.3968 22.2421 19.4086 22.3421 19.3674C22.3303 19.4557 22.3892 19.6439 22.6421 20.091C22.8834 20.544 23.7011 21.7854 24.613 23.5033C25.0601 24.3622 25.5484 25.3388 25.9955 26.3801C26.225 26.8978 26.4485 27.4391 26.6486 27.9744C26.7427 28.2392 26.8251 28.498 26.8721 28.751C26.9015 28.9452 26.9015 28.9922 26.9015 29.004C26.9015 29.004 26.8368 28.9863 26.6956 28.9452C26.4721 28.8687 26.2603 28.7804 26.0426 28.6745C25.6131 28.4627 25.2072 28.1921 24.813 27.9215C24.007 27.3685 23.2481 26.839 22.5833 26.3742C21.2302 25.4447 20.2124 24.7681 19.8124 24.5505C19.1887 24.2092 19.024 24.221 18.9534 24.321C18.9181 24.3681 18.9181 24.4387 19.0358 24.5858C18.9299 24.674 18.771 24.9976 18.5651 25.7388C18.3945 26.3566 18.0003 28.1686 17.4061 30.5277C17.1002 31.7044 16.7531 33.0222 16.359 34.3929C16.153 35.0754 15.9471 35.7814 15.7353 36.4873C15.6294 36.8227 15.5118 37.2169 15.4059 37.5169C15.3823 37.5875 15.3588 37.6346 15.3294 37.6699C15.3235 37.6816 15.3235 37.6875 15.3235 37.6875C15.1823 36.452 15.0294 35.2342 14.894 34.0811C14.7352 32.8045 14.5881 31.6043 14.4528 30.5336C14.1763 28.398 13.9469 26.8037 13.8233 26.2213C13.6351 25.3388 13.5115 25.1858 13.388 25.2035C13.3232 25.2035 13.2762 25.2741 13.2527 25.5153C13.1409 25.5153 12.9232 25.58 12.4761 25.78C12.0172 25.9859 10.8053 26.639 9.1168 27.3567C8.27551 27.7156 7.31068 28.0921 6.28113 28.4392C5.76341 28.6157 5.22216 28.7746 4.68092 28.9393C4.40441 29.0158 4.13378 29.0922 3.85139 29.1687C3.65725 29.2158 3.38074 29.2864 3.29838 29.3099C3.29838 29.3099 3.31014 29.204 3.35721 29.1158C3.40427 29.004 3.45134 28.9275 3.54547 28.8099L3.83963 28.4333C4.22791 27.9274 4.6162 27.4273 4.99272 26.939C5.734 25.9624 6.45174 25.027 7.093 24.1916C8.36376 22.509 9.30506 21.2206 9.59922 20.7499C9.65217 20.6617 9.69923 20.5793 9.74042 20.5087C9.77572 20.4381 9.80513 20.3793 9.83455 20.3264C9.99339 20.0028 9.97574 19.891 9.91103 19.8381C9.85808 19.8028 9.77572 19.7969 9.57569 19.9734C9.49333 19.8792 9.38155 19.7557 9.24623 19.6145C8.83441 19.1909 7.57542 18.0496 5.91049 16.5729C5.49279 16.2082 5.04567 15.814 4.58679 15.4081C4.13967 15.0021 3.6749 14.5668 3.19248 14.1373C2.6983 13.7078 2.28059 13.2254 1.85113 12.7195C1.64522 12.4665 1.4393 12.2017 1.24516 11.937C1.15103 11.8076 1.03925 11.6546 0.986303 11.5605C0.951004 11.4958 0.951004 11.484 0.951004 11.4781L1.0216 11.4546C1.10985 11.4252 1.26281 11.4075 1.40401 11.3899C1.69816 11.3546 1.98644 11.3487 2.28059 11.3546C2.86303 11.3663 3.45722 11.4546 4.02789 11.5605C5.19275 11.8076 6.29878 12.037 7.2695 12.2488C9.23447 12.6606 10.717 12.9548 11.2583 13.0136C11.9407 13.0901 12.1466 13.0548 12.2113 12.9724C12.2113 12.9724 12.2113 12.9783 12.2231 12.9783C12.3172 13.0018 12.429 12.9489 12.7349 12.1311C12.935 11.5958 13.388 10.0603 13.9822 8.02471C14.2646 7.00105 14.594 5.85972 14.9352 4.64779C15.1058 4.04183 15.2706 3.42998 15.5059 2.85931C15.6236 2.57692 15.753 2.30042 15.9118 2.04744C16.0766 1.78858 16.2413 1.55326 16.4178 1.44148C16.5001 1.38853 16.5649 1.37676 16.5884 1.37676C16.6237 1.38265 16.6413 1.38853 16.6943 1.44736C16.8002 1.57091 16.8767 1.86506 16.9649 2.18864C17.1355 2.81813 17.2944 3.43586 17.4591 4.04182C17.765 5.25963 18.0651 6.40685 18.3298 7.43052C18.8475 9.48373 19.224 11.0428 19.4005 11.5781C19.6594 12.3724 19.7888 12.5018 19.9065 12.4782C19.9771 12.4606 20.0183 12.3959 20.0183 12.0958L20.03 12.1076C20.1536 12.1782 20.4242 12.2606 20.8772 12.1959C21.1831 12.1547 21.6714 11.9841 22.3362 11.8017C23.0069 11.6075 23.8541 11.384 24.8307 11.1663C25.8014 10.9486 26.9074 10.7427 28.0723 10.5956C28.6488 10.525 29.2313 10.4839 29.8137 10.525C29.9549 10.5368 30.102 10.5486 30.2432 10.5662C30.3138 10.578 30.3785 10.5898 30.455 10.6015L30.5491 10.6192L30.5138 10.6368Z" fill="#3B2900"/>
<path d="M30.5141 10.6308L30.4611 10.7132C28.6785 12.4428 26.9018 14.1784 25.4663 15.5727C24.025 16.9846 22.9601 18.073 22.613 18.4907C22.1012 19.0967 22.0659 19.2732 22.1541 19.3614C22.1835 19.3908 22.2424 19.4026 22.3424 19.3614C22.3306 19.4497 22.3953 19.6438 22.6424 20.085C22.8778 20.5381 23.6955 21.7794 24.6133 23.5032C25.0604 24.3621 25.5428 25.3328 25.9958 26.38C26.2194 26.8977 26.4488 27.439 26.6489 27.9743C26.743 28.2391 26.8253 28.4979 26.8724 28.7509C26.9018 28.9451 26.9018 28.9921 26.9018 29.0039C26.9018 29.0039 26.8312 28.9862 26.69 28.9451C26.4665 28.8745 26.2547 28.7803 26.037 28.6803C25.6134 28.4685 25.2016 28.1979 24.8133 27.9273C24.0073 27.3684 23.2484 26.8507 22.5777 26.3859C21.2246 25.4564 20.2068 24.7739 19.8126 24.5621C19.189 24.2268 19.0243 24.2327 18.9537 24.3327C18.9125 24.3797 18.9184 24.4503 19.0361 24.5974C18.9302 24.6798 18.7713 25.0092 18.5713 25.7505C18.4007 26.3624 18.0006 28.1803 17.4064 30.5394C17.1005 31.716 16.7534 33.028 16.3592 34.4046C16.1533 35.0871 15.9474 35.793 15.7356 36.499C15.6297 36.8285 15.5062 37.2226 15.4003 37.5286C15.3826 37.5992 15.3532 37.6462 15.3238 37.6815C15.3238 37.6933 15.3179 37.6992 15.3179 37.6992C15.1708 36.4637 15.0238 35.2459 14.8826 34.0869C14.7296 32.8162 14.5766 31.6101 14.4413 30.5394C14.1648 28.4038 13.9413 26.8036 13.8177 26.2271C13.6295 25.3446 13.5059 25.1857 13.3824 25.2034C13.3235 25.2034 13.2706 25.274 13.2471 25.5152C13.1353 25.5152 12.9176 25.5799 12.4705 25.7858C12.0116 25.9917 10.7997 26.6389 9.11709 27.3625C8.2758 27.7214 7.31097 28.092 6.28142 28.4509C5.75782 28.6274 5.22245 28.7862 4.6812 28.9509C4.41058 29.0274 4.13407 29.098 3.85168 29.1804C3.65754 29.2275 3.37515 29.298 3.29866 29.3216C3.29866 29.3216 3.31043 29.2216 3.35161 29.1274C3.39868 29.0157 3.44574 28.9392 3.53987 28.8156L3.83403 28.445C3.89286 28.3685 3.95758 28.2861 4.01641 28.2097C4.34586 27.7861 4.66355 27.3625 4.98124 26.9507C5.72252 25.9741 6.44026 25.0387 7.08152 24.2032C8.3464 22.5266 9.29359 21.2381 9.58186 20.7616C9.63481 20.6734 9.68187 20.591 9.72305 20.5204C9.75835 20.4498 9.78777 20.391 9.81719 20.338C9.97603 20.0203 9.96426 19.9086 9.89367 19.8497C9.84072 19.8144 9.75835 19.8085 9.55833 19.985C9.47596 19.8909 9.36418 19.7674 9.22887 19.6262C8.81705 19.2026 7.55806 18.0671 5.88725 16.5846C5.46366 16.2198 5.02242 15.8257 4.56354 15.4197C4.11054 15.0079 3.65165 14.5784 3.16924 14.1431C2.67505 13.7136 2.25735 13.2371 1.82788 12.7311C1.62197 12.4781 1.41606 12.2134 1.21603 11.9487C1.1219 11.8134 1.01601 11.6663 0.963057 11.578C0.927758 11.5074 0.921875 11.5015 0.921875 11.4957L0.98659 11.4721C1.07484 11.4427 1.23368 11.431 1.36899 11.4015C1.66315 11.3662 1.95142 11.3604 2.24558 11.3721C2.8339 11.3839 3.42221 11.4662 3.99288 11.578C5.15774 11.8251 6.25788 12.0546 7.23449 12.2664C9.19946 12.6841 10.682 12.9723 11.2291 13.0253C11.9175 13.1018 12.1175 13.0665 12.1763 12.9841C12.1763 12.9841 12.1881 12.9841 12.1881 12.99C12.2822 13.0194 12.394 12.9664 12.6999 12.1428C12.8941 11.6074 13.353 10.0719 13.9472 8.03049C14.2354 7.00683 14.5649 5.8655 14.9002 4.65357C15.0708 4.04761 15.2356 3.43576 15.4709 2.8651C15.5885 2.5827 15.7239 2.3062 15.8768 2.05322C15.9415 1.94732 16.0121 1.84731 16.0827 1.75318C16.1827 1.62375 16.2828 1.51197 16.3828 1.45314C16.4651 1.40019 16.5299 1.38843 16.5593 1.38843C16.5887 1.39431 16.6122 1.40019 16.6652 1.45902C16.7711 1.58257 16.8417 1.87673 16.9299 2.20618C17.1005 2.83568 17.2594 3.45341 17.43 4.05937C17.7359 5.27718 18.0359 6.41851 18.3007 7.44806C18.8184 9.50128 19.1949 11.0544 19.3714 11.5957C19.6303 12.3899 19.7597 12.5193 19.8774 12.4899C19.9421 12.4781 19.995 12.4076 19.9891 12.1134V12.1252C20.1244 12.1958 20.3892 12.2781 20.8422 12.2193C21.1481 12.1781 21.6364 12.0075 22.3012 11.8251C22.9719 11.631 23.8191 11.4074 24.7957 11.1897C25.7723 10.9721 26.8724 10.7603 28.0373 10.6191C28.6079 10.5485 29.1963 10.5073 29.7728 10.5485C29.914 10.5602 30.0611 10.572 30.2023 10.5897C30.2788 10.6014 30.3435 10.6132 30.4141 10.625L30.5082 10.6426L30.5141 10.6308Z" fill="#FFFCF3"/>
<g style="mix-blend-mode:multiply" opacity="0.25">
<path d="M30.5142 10.6308L30.4613 10.7132C28.6787 12.4428 26.902 14.1784 25.4665 15.5727C24.0251 16.9846 22.9603 18.073 22.6132 18.4907C22.1013 19.0967 22.066 19.2732 22.1543 19.3614C22.1837 19.3908 22.2425 19.4026 22.3426 19.3614C22.3308 19.4497 22.3955 19.6438 22.6426 20.085C22.8779 20.5381 23.6957 21.7794 24.6135 23.5032C25.0606 24.3621 25.543 25.3328 25.996 26.38C26.2195 26.8977 26.449 27.439 26.649 27.9743C26.7431 28.2391 26.8255 28.4979 26.8726 28.7509C26.902 28.9451 26.902 28.9921 26.902 29.0039C26.902 29.0039 26.8314 28.9862 26.6902 28.9451C26.4666 28.8745 26.2548 28.7803 26.0372 28.6803C25.6136 28.4685 25.2018 28.1979 24.8135 27.9273C24.0075 27.3684 23.2486 26.8507 22.5779 26.3859C21.2248 25.4564 20.207 24.7739 19.8128 24.5621C19.1892 24.2268 19.0245 24.2327 18.9539 24.3327C18.9127 24.3797 18.9186 24.4503 19.0362 24.5974C18.9303 24.6798 18.7715 25.0092 18.5715 25.7505C18.4009 26.3624 18.0008 28.1803 17.4066 30.5394C17.1007 31.716 16.7536 33.028 16.3594 34.4046C16.1535 35.0871 15.9476 35.793 15.7358 36.499C15.6299 36.8285 15.5063 37.2226 15.4005 37.5286C15.3828 37.5992 15.3534 37.6462 15.324 37.6815C15.324 37.6933 15.3181 37.6992 15.3181 37.6992C15.171 36.4637 15.0239 35.2459 14.8827 34.0869C14.7298 32.8162 14.5768 31.6101 14.4415 30.5394C14.165 28.4038 13.9414 26.8036 13.8179 26.2271C13.6296 25.3446 13.5061 25.1857 13.3825 25.2034C13.3237 25.2034 13.2708 25.274 13.2472 25.5152C13.1354 25.5152 12.9178 25.5799 12.4706 25.7858C12.0118 25.9917 10.7998 26.6389 9.11725 27.3625C8.27597 27.7214 7.31113 28.092 6.28158 28.4509C5.75798 28.6274 5.22262 28.7862 4.68137 28.9509C4.41074 29.0274 4.13423 29.098 3.85184 29.1804C3.6577 29.2275 3.37531 29.298 3.29883 29.3216C3.29883 29.3216 3.31059 29.2216 3.35178 29.1274C3.39884 29.0157 3.44591 28.9392 3.54004 28.8156L3.83419 28.445C3.89303 28.3685 3.95774 28.2861 4.01657 28.2097C5.72268 26.8212 8.52306 26.0564 10.3586 25.1857C11.7941 24.5033 13.0884 23.462 14.3415 22.6619C14.3356 24.6857 15.1769 27.2684 15.8593 29.1745C17.4243 28.0273 17.7714 23.7797 18.142 21.8912C19.4069 22.7678 21.5542 24.9092 23.1427 24.8504C23.531 22.6677 19.9893 20.3792 20.4011 18.479C20.913 16.1198 25.2547 15.1844 25.1665 12.2369C23.3839 12.0369 19.301 12.9017 18.2655 14.3137C16.9595 10.2837 17.183 5.9008 16.0888 1.75318C16.1888 1.62375 16.2888 1.51197 16.3888 1.45314C16.4712 1.40019 16.5359 1.38843 16.5653 1.38843C16.5947 1.39431 16.6183 1.40019 16.6712 1.45902C16.7771 1.58257 16.8477 1.87673 16.936 2.20618C17.1066 2.83568 17.2654 3.45341 17.436 4.05937C17.7419 5.27718 18.042 6.41851 18.3067 7.44806C18.8244 9.50128 19.201 11.0544 19.3775 11.5957C19.6363 12.3899 19.7657 12.5193 19.8834 12.4899C19.9481 12.4781 20.0011 12.4076 19.9952 12.1134V12.1252C20.1305 12.1958 20.3952 12.2781 20.8482 12.2193C21.1542 12.1781 21.6425 12.0075 22.3073 11.8251C22.9779 11.631 23.8251 11.4074 24.8017 11.1897C25.7783 10.9721 26.8785 10.7603 28.0433 10.6191C28.614 10.5485 29.2023 10.5073 29.7788 10.5485C29.92 10.5602 30.0671 10.572 30.2083 10.5897C30.2848 10.6014 30.3495 10.6132 30.4201 10.625L30.5142 10.6426V10.6308Z" fill="#D3C7B8"/>
</g>
</svg>
