<svg width="162" height="352" viewBox="0 0 162 352" fill="none" xmlns="http://www.w3.org/2000/svg">
<path d="M138.422 0.644531C146.314 24.8583 154.309 50.3473 149.502 75.3603C139.667 126.423 92.2626 147.763 53.0236 172.351C20.9267 192.45 -17.9713 224.775 11.3471 264.428C18.387 273.95 29.0916 280.157 40.1542 284.408C80.9102 300.035 135.627 285.513 151.002 244.738C152.962 239.517 154.258 233.838 153.167 228.363C150.917 217.021 139.019 209.862 127.513 208.349C102.558 205.05 78.2 222.428 67.0351 244.942C39.9326 299.627 66.5919 344.007 125.399 350.554C137.908 351.946 150.247 351.26 162.5 349.54" stroke="white" stroke-miterlimit="10" stroke-linecap="round" stroke-dasharray="8 8"/>
</svg>
