<svg width="194" height="668" viewBox="0 0 194 668" fill="none" xmlns="http://www.w3.org/2000/svg">
    <path d="M1.487 1.374c55.955-6.388 114.987 23.628 143.625 75.59 7.009 12.72 11.43 26.66 16.125 40.403 7.848 23.022 15.81 47.261 11.54 71.21-8.736 48.891-53.732 69.879-90.89 93.864-30.393 19.607-67.125 50.976-38.617 88.468 6.845 9.003 17.148 14.793 27.767 18.71 39.122 14.4 91.189-.171 105.348-39.308 1.805-5.011 2.97-10.451 1.857-15.666-2.294-10.802-13.748-17.486-24.756-18.783-23.873-2.83-46.912 14.079-57.285 35.722-25.18 52.572.85 94.612 57.094 100.108 36.827 3.598 71.872-11.588 107.82-16.489 20.087-2.739 36.486-.036 55.873 4.445 17.05 3.945 33.248 5.01 45.51 19.674 9.531 11.387 12.915 28.119 6.861 41.649-8.061 18.022-29.007 25.905-43.347 39.497-25.545 24.235-26.692 68.444-4.782 95.987 19.211 24.153 52.905 34.403 83.255 28.489" stroke="#FF6520" stroke-miterlimit="10" stroke-linecap="round" stroke-dasharray="8 8"/>
</svg>
