<!-- <svg viewBox="0 0 2260 70" fill="none" xmlns="http://www.w3.org/2000/svg">
<path fill="#fffcf3" d="M2687.9-60.8l-1216.1,2.8l0-2.8l-1451,3.4l1.1,68.2C60.6,43.2,165.3,95,274.4,43.6C383.5-7.8,509,22.4,558.1,44
	c44.4,25,167.1,60.9,302.2,4c135.1-56.9,262-56.3,346.3-26.1c68.7,24.6,172.6,71.3,254.2,33.2c9.8-3.1,19.7-6.9,29.7-11.6 c109.1-51.4,234.6-21.2,283.7,0.4c44.4,25,167.1,60.9,302.2,4s262-56.3,346.3-26.1c72.2,25.9,183.3,76.1,266.5,26.7L2687.9-60.8z"/>
</svg> -->
<svg viewBox="0 0 1440 83" fill="none" xmlns="http://www.w3.org/2000/svg">
<path fill="#fffcf3" d="M2430.9-58.8l-1216.1,2.8l0-2.8l-1451,3.4l1.1,68.2C-196.4,45.2-91.7,97,17.4,45.6C126.5-5.8,252,24.4,301.1,46 c44.4,25,167.1,60.9,302.2,4c135.1-56.9,262-56.3,346.3-26.1c68.7,24.6,172.6,71.3,254.2,33.2c9.8-3.1,19.7-6.9,29.7-11.6 c109.1-51.4,234.6-21.2,283.7,0.4c44.4,25,167.1,60.9,302.2,4s262-56.3,346.3-26.1c72.2,25.9,183.3,76.1,266.5,26.7L2430.9-58.8z"/>
</svg>
