<!-- <svg width="2260" height="101" viewBox="0 0 2260 101" fill="none" xmlns="http://www.w3.org/2000/svg">
<path d="M405.372 74.2C384.212 70.8 363.116 67.28 341.661 64.84C307.978 61.01 273.299 60.98 239.568 64.65C204.936 68.43 164.096 76.19 130.988 82.95C89.6191 91.39 43.427 96.16 0.144287 95.73V0H2259.19V95.7C2163.6 94.9 2055.05 62.79 1970.8 67.72C1891.17 72.38 1882.55 81.34 1803.5 91.3C1668.46 108.32 1529.73 99.1 1395.46 83.49C1290.89 71.34 1187.99 48.99 1081.22 48.41C973.041 47.82 868.491 67.62 763.52 81.76C691.346 91.48 617.102 93.91 543.637 90.19C506.608 88.32 482.244 84.91 445.823 80.22C432.24 78.47 418.783 76.36 405.34 74.2H405.372Z" fill="#fffcf3"/>
</svg> -->
<?xml version="1.0" encoding="utf-8"?>
<!-- Generator: Adobe Illustrator 24.3.0, SVG Export Plug-In . SVG Version: 6.00 Build 0)  -->
<svg version="1.1" id="Layer_1" xmlns="http://www.w3.org/2000/svg" xmlns:xlink="http://www.w3.org/1999/xlink" x="0px" y="0px"
	 viewBox="0 0 1451.4 183" style="enable-background:new 0 0 1451.4 183;" xml:space="preserve">
<style type="text/css">
	.st0{fill:#FFF8E3;}
</style>
<path class="st0" d="M537.3,95.1c44.4,25,167.1,60.9,302.2,4s262-56.3,346.3-26.1c72.2,25.9,183.3,76.1,266.5,26.7l-1.3-109.3L0-6.2
	L1.1,62c38.7,32.3,143.4,84.1,252.5,32.7S488.2,73.5,537.3,95.1z"/>
</svg>
