<svg viewBox="0 0 2260 70" fill="none" xmlns="http://www.w3.org/2000/svg">
<path fill="#fffcf3" d="M403.9,35.8c-21.2-3.4-42.4-6.9-63.9-9.4c-33.8-3.8-68.6-3.9-102.4-0.2c-34.8,3.8-75.7,11.6-109,18.4
	C87.1,53,40.7,57.8-2.7,57.4v-96.1h2266.9v96c-95.9-0.8-204.9-33-289.4-28.1c-79.9,4.7-88.6,13.7-167.9,23.7
	c-135.5,17.1-274.7,7.8-409.5-7.8c-104.9-12.2-208.2-34.6-315.3-35.2C973.6,9.3,868.6,29.2,763.3,43.4
	c-72.4,9.8-146.9,12.2-220.6,8.5c-37.2-1.9-61.6-5.3-98.2-10C430.9,40.1,417.4,38,403.9,35.8L403.9,35.8z"/>
</svg>
