<svg width="1440" height="115" viewBox="0 0 1440 115" fill="none" xmlns="http://www.w3.org/2000/svg">
<path d="M55.5796 62.7386C48.7068 59.7848 22.3241 49.9865 9.20927 46.6957L-6.07617 42.1326L-4.21489 186.812H1445.29V84.9519C1442.01 84.9519 1423.93 79.1518 1377.84 55.9512C1320.23 26.9505 1283.69 42.3764 1224.68 62.1216C1178.2 77.6726 1147.48 64.4567 1128.6 56.3315L1127.72 55.9512C1108.79 47.812 1071.09 25.5931 1018.82 52.249C966.547 78.905 924.375 68.5326 893.76 52.249C863.145 35.9654 886.092 45.073 818.584 14.6098C750.572 -16.0809 688.606 8.64513 665.421 26.3335C661.206 27.9789 639.426 39.1678 586.029 70.7601C532.633 102.352 481.574 87.4616 456.754 81.2497L397.737 62.7386C355.419 50.1986 287.992 30.3898 222.794 62.7386C137.677 104.971 74.6956 70.9543 55.5796 62.7386Z" fill="#fff6dc"/>
</svg>
