<svg viewBox="0 0 3233.1 183" fill="none" xmlns="http://www.w3.org/2000/svg">
<polygon fill="#fffcf3" points="0.8,184.2 1016.1,184.2 0.8,181.8 	"/>
<path fill="#fffcf3" d="M2413.8-3.6l0,1.3H1206l0.1,3.5H0.8v106.3c43.7-32.1,142.2-74.8,244.7-26.6c109.1,51.4,234.6,21.2,283.7-0.4 c44.4-25,167.1-60.9,302.2-4c135.1,56.9,262,56.3,346.3,26.1c61.4-22,151.1-61.7,227.7-42.5c8.8,2.8,17.8,5.9,26.7,9.4 c3.7,1.7,7.3,3.6,10.8,5.7v-1.2c2.6,1.1,5.2,2.2,7.8,3.4c109.9,49.6,234.6,21.2,283.7-0.4c44.4-25,167.1-60.9,302.2-4 c135.1,56.9,262,56.3,346.3,26.1c57.1-20.5,138.6-56.2,211.4-45.7c17.5,4.6,35.4,10.5,53.3,18c0.2,0.1,0.4,0.2,0.5,0.3v-0.1 c3.5,1.5,7,3,10.4,4.5c109.9,49.6,234.6,21.2,283.7-0.4c44.4-25,167.1-60.9,302.2-4c135.1,56.9,262,56.3,346.3,26.1 c71.8-25.8,182.1-75.6,265.2-27.4v-74H2413.8z"/>
</svg>