<svg width="1452" height="107" viewBox="0 0 1452 107" fill="none" xmlns="http://www.w3.org/2000/svg">
<path d="M260.46 80.8202C246.86 77.5497 233.3 74.1637 219.51 71.8167C197.86 68.1325 175.57 68.1037 153.89 71.6339C131.63 75.2699 105.38 82.7344 84.1 89.237C57.51 97.3555 27.82 101.944 0 101.53V0H726H1452V101.501C1390.56 100.732 1320.79 69.8447 1266.64 74.587C1215.46 79.0695 1209.92 87.6883 1159.11 97.269C1072.31 113.641 983.14 104.772 896.84 89.7564C829.63 78.0691 763.49 56.5703 694.86 56.0124C625.33 55.4449 558.13 74.4908 490.66 88.0923C444.27 97.4421 396.55 99.7796 349.33 96.2012C325.53 94.4025 309.87 91.1223 286.46 86.6109C277.73 84.9276 269.08 82.8979 260.44 80.8202H260.46Z" fill="#FFFCF3"/>
</svg>
