<svg width="1452" height="101" viewBox="0 0 1452 101" fill="none" xmlns="http://www.w3.org/2000/svg">
<path d="M260.46 74.2C246.86 70.8 233.3 67.28 219.51 64.84C197.86 61.01 175.57 60.98 153.89 64.65C131.63 68.43 105.38 76.19 84.1 82.95C57.51 91.39 27.82 96.16 0 95.73V0H1452V95.7C1390.56 94.9 1320.79 62.79 1266.64 67.72C1215.46 72.38 1209.92 81.34 1159.11 91.3C1072.31 108.32 983.14 99.1 896.84 83.49C829.63 71.34 763.49 48.99 694.86 48.41C625.33 47.82 558.13 67.62 490.66 81.76C444.27 91.48 396.55 93.91 349.33 90.19C325.53 88.32 309.87 84.91 286.46 80.22C277.73 78.47 269.08 76.36 260.44 74.2H260.46Z" fill="#fff6dc"/>
</svg>
