<svg width="1440" height="188" viewBox="0 0 1440 188" fill="none" xmlns="http://www.w3.org/2000/svg">
<path d="M55.441 63.7288C49.8202 58.7925 22.1854 50.9768 9.07065 47.6859H-4.35352V187.802H1445.15V85.9421C1441.87 85.9421 1423.79 80.142 1377.7 56.9414C1320.09 27.9408 1283.55 43.3666 1224.54 63.1118C1177.32 78.9079 1140.23 65.5799 1127.58 56.9414C1113.06 44.6007 1070.95 26.5833 1018.68 53.2392C966.409 79.8952 913.528 64.3459 893.622 53.2392C896.432 54.4733 885.331 48.6732 818.445 15.6C751.559 -17.4731 688.468 9.63535 665.282 27.3237C661.067 28.9691 639.287 40.1581 585.891 71.7503C532.494 103.343 477.459 91.9068 456.616 82.2399L397.599 63.7288C365.514 48.5086 285.607 27.2003 222.656 63.7288C143.967 109.389 62.467 69.8992 55.441 63.7288Z" fill="#DCF7FF"/>
</svg>
