<!-- <svg width="2260" height="101" viewBox="0 0 2260 101" fill="none" xmlns="http://www.w3.org/2000/svg">
<path d="M405.372 74.2C384.212 70.8 363.116 67.28 341.661 64.84C307.978 61.01 273.299 60.98 239.568 64.65C204.936 68.43 164.096 76.19 130.988 82.95C89.6191 91.39 43.427 96.16 0.144287 95.73V0H2259.19V95.7C2163.6 94.9 2055.05 62.79 1970.8 67.72C1891.17 72.38 1882.55 81.34 1803.5 91.3C1668.46 108.32 1529.73 99.1 1395.46 83.49C1290.89 71.34 1187.99 48.99 1081.22 48.41C973.041 47.82 868.491 67.62 763.52 81.76C691.346 91.48 617.102 93.91 543.637 90.19C506.608 88.32 482.244 84.91 445.823 80.22C432.24 78.47 418.783 76.36 405.34 74.2H405.372Z" fill="#fffcf3"/>
</svg> -->
<svg width="1440" height="183" viewBox="0 0 1440 183" fill="none" xmlns="http://www.w3.org/2000/svg">
<path d="M247.923 35.0397C138.685 -15.7293 33.9444 35.4082 -4.77102 67.3231L-5.89894 134.68L1444.93 182.957L1447.49 30.0662C1364.22 -18.7164 1253.01 30.9196 1180.77 56.473C1096.37 86.3245 969.346 86.8294 834.193 30.7005C699.04 -25.4284 576.296 9.95767 531.818 34.6668C482.702 55.9449 357.161 85.8087 247.923 35.0397Z" fill="#FFF8E3"/>
</svg>
