<svg width="278" height="645" viewBox="0 0 278 645" fill="none" xmlns="http://www.w3.org/2000/svg">
<path d="M0.947266 -58.0422C59.6183 -63.9426 121 -31.6859 150.25 23.1181C157.409 36.5343 161.841 51.1918 166.563 65.6452C174.455 89.859 182.449 115.348 177.642 140.361C167.807 191.424 120.403 212.764 81.164 237.352C49.067 257.451 10.169 289.775 39.4875 329.429C46.5273 338.951 57.2319 345.158 68.2945 349.409C109.051 365.035 163.767 350.514 179.142 309.738C181.102 304.518 182.398 298.839 181.307 293.363C179.057 282.022 167.159 274.863 155.653 273.35C130.699 270.051 106.34 287.429 95.1755 309.942C68.073 364.627 94.7323 409.008 153.54 415.554C192.046 419.839 228.949 404.434 266.654 399.809C287.723 397.224 304.854 400.285 325.087 405.25C342.882 409.62 359.826 410.963 372.457 426.488C382.275 438.544 385.582 456.109 379.053 470.188C370.36 488.944 348.32 496.902 333.115 510.93C306.03 535.943 304.206 582.211 326.757 611.356C346.53 636.913 381.661 648.119 413.52 642.354" stroke="white" stroke-miterlimit="10" stroke-linecap="round" stroke-dasharray="8 8"/>
</svg>
