<svg width="1440" height="105" viewBox="0 0 1440 105" fill="none" xmlns="http://www.w3.org/2000/svg">
    <path d="M55.441 64.711c-6.873-2.953-33.256-12.752-46.37-16.043l-15.286-4.563 1.861 144.68H1445.15V86.925c-3.28 0-21.36-5.8-67.45-29.001-57.61-29-94.15-13.575-153.16 6.17-47.22 15.797-84.31 2.469-96.96-6.17-14.52-12.34-56.63-30.358-108.9-3.702-52.271 26.656-105.152 11.106-125.058 0 2.81 1.234-8.291-4.566-75.177-37.64-66.885-33.073-129.977-5.964-153.163 11.724-4.215 1.646-25.995 12.835-79.391 44.427-53.397 31.592-108.432 20.156-129.276 10.49L397.599 64.71c-32.085-15.22-111.992-36.528-174.943 0-78.69 45.661-148.1 8.216-167.215 0z" fill="#FFF6DC"/>
</svg>
